<svg xmlns="http://www.w3.org/2000/svg" viewBox="0 0 1364 314" fill="#F7981D">
  
  <path d="M 156.273 312.548 L 0 0 L 52.547 0 L 156.273 207.452 L 260 0 L 312.548 0 L 156.273 312.548 Z"></path>
  
  <path d="M 157 140 L 87 0 L 227 0 Z" fill="#92908F"></path>
  
  <path transform="translate(279,35)" d="M 135 0 C 209.558 0 270 60.442 270 135 C 270 142.492 269.388 149.84 268.215 157 L 47.71 157 C 57.526 196.071 92.884 225 135 225 C 160.676 225 183.84 214.247 200.236 197 L 254.95 197 C 232.49 240.365 187.207 270 135 270 C 60.442 270 0 209.558 0 135 C 0 60.442 60.442 0 135 0 Z M 135 45 C 93.244 45 58.131 73.436 47.967 112 L 222.033 112 C 211.869 73.436 176.756 45 135 45 Z"></path>
  
  <path transform="translate(576,35)" d="M 135 0 C 209.558 0 270 60.442 270 135 C 270 142.492 269.388 149.84 268.215 157 L 47.71 157 C 57.526 196.071 92.884 225 135 225 C 160.676 225 183.84 214.247 200.236 197 L 254.95 197 C 232.49 240.365 187.207 270 135 270 C 60.442 270 0 209.558 0 135 C 0 60.442 60.442 0 135 0 Z M 135 45 C 93.244 45 58.131 73.436 47.967 112 L 222.033 112 C 211.869 73.436 176.756 45 135 45 Z"></path>
  
  <path transform="translate(832.5,39)" d="M 137.273 274.548 L 0 0 L 51.37 0 L 137.273 171.807 L 223.177 0 L 274.547 0 L 137.273 274.548 Z"></path>
  
  <path transform="translate(1093,35)" d="M 270 270 L 225 270 L 225 235.621 C 201.116 256.999 169.577 270 135 270 C 60.442 270 0 209.558 0 135 C 0 60.442 60.442 0 135 0 C 169.577 0 201.116 13 225 34.378 L 225 0 L 270 0 L 270 270 Z M 135 45 C 85.294 45 45 85.294 45 135 C 45 184.706 85.294 225 135 225 C 184.706 225 225 184.706 225 135 C 225 85.294 184.706 45 135 45 Z"></path>
</svg>