<svg width="30" height="30" viewBox="0 0 30 30" fill="none" xmlns="http://www.w3.org/2000/svg">
<g clip-path="url(#clip0_42_226)">
<path d="M8.93548 26.1896L10.124 25.5034C13.4533 27.0246 17.4439 26.9666 20.8554 24.9969C24.2668 23.0273 26.3124 19.6004 26.6597 15.9565L27.8482 15.2704C27.7055 19.5605 25.4177 23.6821 21.4266 25.9864C17.4355 28.2907 12.7222 28.2112 8.93548 26.1897V26.1896ZM2.15189 14.4401C2.29459 10.1499 4.58238 6.02842 8.57349 3.72415C12.5646 1.41987 17.2779 1.49934 21.0646 3.52089L19.8761 4.20707C16.5468 2.6859 12.5562 2.74395 9.14474 4.71359C5.73327 6.68318 3.68769 10.1101 3.34041 13.754L2.15185 14.4401L2.15189 14.4401ZM14.383 23.0445L16.6635 21.7278C17.3046 21.5724 17.9344 21.3239 18.5347 20.9774C19.1348 20.6308 19.665 20.2096 20.1202 19.7321L22.4007 18.4155C21.7099 19.8548 20.5929 21.1082 19.1059 21.9668C17.6189 22.8253 15.9749 23.1659 14.383 23.0445ZM7.59936 11.295C8.29022 9.85562 9.40715 8.60223 10.8942 7.74367C12.3812 6.88512 14.0252 6.54455 15.6171 6.66594L13.3366 7.98263C12.6955 8.13809 12.0656 8.38658 11.4654 8.73311C10.8653 9.07965 10.3351 9.50087 9.87993 9.97833L7.59936 11.295ZM9.442 6.00172L9.36595 5.02774L10.1877 5.54515L11.0856 5.13428L10.8573 6.0778L11.4965 6.8235L10.4921 6.89954L10.0355 7.72136L9.65508 6.8235L8.71155 6.64088C8.69634 6.6713 9.44203 6.00172 9.44203 6.00172H9.442ZM15.1488 4.3989L15.5597 3.501L16.0162 4.32282L16.9901 4.39893L16.3509 5.11417L16.5336 6.08816L15.6357 5.67725L14.8139 6.19466L14.9661 5.22068L14.2204 4.58156C14.1748 4.58156 15.1487 4.39893 15.1487 4.39893L15.1488 4.3989ZM20.5362 23.6814L20.6123 24.6553L19.7905 24.1379L18.8926 24.5184L19.1209 23.5749L18.4817 22.8292L19.4557 22.753L19.9731 21.9313L20.3535 22.8292L21.2971 23.0118L20.5362 23.6814ZM15.3277 25.1763L14.8712 26.0741L14.4146 25.2523L13.4406 25.1763L14.1559 24.461L13.9733 23.5175L14.8712 23.9284L15.6929 23.4718L15.5407 24.4458L16.256 25.0849C16.2712 24.9784 15.3277 25.1763 15.3277 25.1763ZM5.6067 10.2368L5.04363 9.44546L6.01761 9.47588L6.6111 8.68456L6.8698 9.62808L7.81333 9.96287L7.02197 10.5259V11.4999L6.27628 10.9064L5.33275 11.1651C5.27187 11.1651 5.6067 10.2368 5.6067 10.2368V10.2368ZM24.4799 19.8922L24.0234 20.7901L23.5669 19.9683L22.5929 19.8922L23.3082 19.177L23.1255 18.2334L24.0234 18.6443L24.8452 18.1878L24.693 19.1618L25.4083 19.8009C25.4235 19.6944 24.48 19.8922 24.48 19.8922H24.4799ZM1.42861 15.2699L22.1449 3.30938C23.511 2.52066 25.2579 2.98873 26.0466 4.35484L29.6169 10.5388C30.4056 11.9049 29.9376 13.6518 28.5715 14.4405L7.85517 26.4011C6.48907 27.1898 4.74222 26.7217 3.95347 25.3556L0.383155 19.1716C-0.405527 17.8055 0.0625407 16.0587 1.42861 15.2699ZM1.99986 16.2594C1.18019 16.7326 0.89935 17.7807 1.3726 18.6004L4.94291 24.7844C5.41615 25.604 6.46425 25.8849 7.28396 25.4116L28.0002 13.4511C28.8199 12.9779 29.1007 11.9298 28.6275 11.11L25.0572 4.92609C24.5839 4.10642 23.5358 3.82558 22.7161 4.29882L1.99986 16.2594ZM6.71068 18.2962L7.1781 18.0263L7.60797 18.7709L10.8582 16.8944L10.0517 15.4976L6.133 17.7601L5.90082 17.3579L10.2761 14.8318L11.7384 17.3646L11.2818 17.6282L11.0904 17.2966L7.84021 19.1731L8.75336 20.7547C8.9458 21.0881 9.19965 21.1638 9.5149 20.9818L12.1944 19.4348C12.506 19.2548 12.6296 19.0337 12.5651 18.7714C12.5027 18.5127 12.3812 18.1892 12.2004 17.8008C12.3773 17.7808 12.5645 17.7452 12.7619 17.694C12.9288 18.1001 13.048 18.4322 13.1198 18.6903C13.2475 19.1625 13.0613 19.543 12.5613 19.8317L9.66978 21.5011C9.11539 21.8212 8.67295 21.695 8.34241 21.1224L6.71068 18.2962ZM15.0289 11.6167L15.4307 11.4717C15.5676 11.8468 15.683 12.2077 15.7769 12.5545L16.9047 11.9034L17.1087 12.2567L16.8505 12.4057C17.3806 13.508 17.689 14.4459 17.7757 15.2195C18.2059 15.5002 18.6653 15.6892 19.1538 15.7863C19.1682 15.9954 19.1763 16.1767 19.178 16.3304C18.6875 16.2005 18.2274 15.9975 17.7975 15.7215C17.7913 16.259 17.7243 16.7831 17.5966 17.2941C17.4671 17.2288 17.3142 17.1649 17.138 17.1023C17.3088 16.5279 17.3851 15.9633 17.3667 15.4086C16.8962 15.0329 16.4653 14.5606 16.0741 13.9917C16.1008 14.2179 16.1176 14.4353 16.1244 14.6438C16.0152 14.5717 15.8768 14.4994 15.7094 14.4269C15.6782 13.5947 15.4513 12.6579 15.0289 11.6167ZM15.9121 18.1797L15.5479 18.3899L13.8503 15.4495L15.5406 14.4736L16.8994 16.827C17.1232 17.2147 17.0786 17.5014 16.7654 17.687C16.6335 17.7681 16.4588 17.8713 16.2414 17.9969C16.1605 17.8986 16.063 17.7882 15.9487 17.6657C16.1398 17.57 16.3042 17.4823 16.4419 17.4028C16.5977 17.3128 16.6243 17.1791 16.5219 17.0015L16.2551 16.5395L15.2877 17.0981L15.9121 18.1797ZM12.5653 16.9016C12.7181 16.7603 12.8747 16.6131 13.0351 16.4601L12.3212 15.2236L11.8266 15.5091L11.6132 15.1396L12.1078 14.854L11.4614 13.7344L11.8365 13.5179L12.4829 14.6375L12.8796 14.4084L13.093 14.778L12.6963 15.0071L13.3552 16.1484C13.4818 16.0246 13.611 15.8969 13.7428 15.7653C13.8317 15.9361 13.9091 16.0702 13.9749 16.1675C13.8474 16.2984 13.7204 16.4298 13.5937 16.5615L14.5539 18.2247C14.7548 18.5725 14.704 18.8361 14.4018 19.0155C14.3184 19.0636 14.1779 19.1423 13.9801 19.2516C13.8976 19.1254 13.8022 18.9896 13.6942 18.8443C13.8641 18.7703 13.9925 18.7082 14.0794 18.658C14.1918 18.5932 14.2082 18.4919 14.1287 18.3542L13.2799 16.884C13.147 17.0222 13.0142 17.1604 12.8816 17.2988L12.5653 16.9016ZM13.7821 14.6411C14.135 14.4156 14.4938 14.1855 14.8583 13.9508C14.6658 13.8654 14.4719 13.7828 14.2769 13.7032L14.4334 13.3592C14.8172 13.4923 15.1964 13.6383 15.5703 13.797L15.4063 14.2033C15.3457 14.1734 15.2845 14.1447 15.2226 14.1174C14.358 14.6866 13.8115 15.0517 13.583 15.2125L13.3072 14.9732C13.412 14.5649 13.4787 14.1616 13.5073 13.7634L12.8062 14.1682L12.6116 13.8312L13.6851 13.2115C13.4928 13.1104 13.2959 13.0186 13.0949 12.9362L13.319 12.546C13.5412 12.6291 13.7605 12.7201 13.9764 12.8186L13.7937 13.1487L14.84 12.5446L15.0346 12.8816L13.9774 13.492C13.9479 13.7965 13.8828 14.1795 13.7821 14.6411H13.7821ZM16.4864 12.616L15.8858 12.9627C15.9038 13.0441 15.9208 13.1237 15.9366 13.2015C16.3539 13.8906 16.8113 14.4466 17.3091 14.8694C17.1966 14.2603 16.9224 13.5092 16.4864 12.6159V12.616ZM15.3765 15.0177L14.409 15.5763L14.6663 16.0219L15.6338 15.4634L15.3765 15.0177ZM15.1057 16.7829L16.0731 16.2243L15.8158 15.7786L14.8483 16.3372L15.1057 16.7829ZM16.9796 10.9035L21.7299 8.16094L24.6043 13.1395L24.1478 13.4031L23.947 13.0552L20.1098 15.2706L20.3106 15.6185L19.854 15.8821L16.9796 10.9035ZM21.5056 8.82673L17.6684 11.0421L19.8838 14.8793L23.721 12.6639L21.5056 8.82673ZM18.9094 11.4344L21.2194 10.1008L22.5907 12.4759L22.1667 12.7207L21.991 12.4163L20.529 13.2604L20.7047 13.5648L20.2808 13.8095L18.9094 11.4344ZM21.0151 10.726L19.553 11.5701L20.3093 12.88L21.7713 12.0358L21.0151 10.726Z" fill="#333333"/>
</g>
<defs>
<clipPath id="clip0_42_226">
<rect width="30" height="30" fill="white"/>
</clipPath>
</defs>
</svg>
