<svg width="30" height="30" viewBox="0 0 30 30" fill="none" xmlns="http://www.w3.org/2000/svg">
<path d="M8.93522 26.1932L10.1237 25.5069C13.453 27.0283 17.4434 26.9702 20.8548 25.0004C24.2662 23.0305 26.3117 19.6031 26.659 15.9586L27.8475 15.2723C27.7048 19.5631 25.417 23.6853 21.426 25.9899C17.435 28.2945 12.7219 28.215 8.93522 26.1932V26.1932ZM2.15179 14.442C2.29451 10.1511 4.58222 6.029 8.57322 3.7244C12.5643 1.41976 17.2774 1.49929 21.064 3.52111L19.8756 4.2074C16.5463 2.68597 12.5559 2.74408 9.1445 4.71397C5.73308 6.68386 3.68758 10.1113 3.34029 13.7557L2.15179 14.442ZM14.3826 23.0476L16.6631 21.7307C17.3041 21.5753 17.934 21.3267 18.5341 20.9801C19.1343 20.6336 19.6645 20.2123 20.1196 19.7348L22.4001 18.4179C21.7093 19.8575 20.5924 21.1111 19.1054 21.9697C17.6184 22.8284 15.9745 23.169 14.3825 23.0476L14.3826 23.0476ZM7.59915 11.2964C8.28997 9.85686 9.4069 8.60325 10.8939 7.74457C12.3809 6.88593 14.0248 6.54529 15.6167 6.66672L13.3362 7.98357C12.6951 8.13904 12.0653 8.38761 11.4651 8.73418C10.8649 9.08075 10.3348 9.50204 9.87965 9.97954L7.59915 11.2965V11.2964ZM9.44175 6.00236L9.36568 5.02825L10.1875 5.54575L11.0853 5.13479L10.857 6.07847L11.4962 6.82425L10.4918 6.90036L10.0353 7.72225L9.65482 6.82425L8.71129 6.64161C8.69607 6.67208 9.44175 6.00233 9.44175 6.00233V6.00236ZM15.1483 4.39933L15.5592 3.50129L16.0158 4.32322L16.9897 4.39929L16.3505 5.11465L16.5332 6.08879L15.6353 5.67783L14.8135 6.19533L14.9657 5.22122L14.22 4.58193C14.1744 4.58193 15.1483 4.39933 15.1483 4.39933ZM20.5356 23.6846L20.6117 24.6587L19.7899 24.1412L18.8921 24.5217L19.1204 23.5781L18.4812 22.8322L19.4551 22.7562L19.9726 21.9342L20.353 22.8322L21.2965 23.0149L20.5356 23.6846ZM15.3273 25.1797L14.8708 26.0777L14.4142 25.2558L13.4403 25.1797L14.1555 24.4643L13.9729 23.5206L14.8707 23.9316L15.6925 23.475L15.5403 24.4491L16.2556 25.0884C16.2708 24.9818 15.3273 25.1797 15.3273 25.1797V25.1797ZM5.6065 10.2381L5.04347 9.44665L6.0174 9.47704L6.6109 8.68561L6.86961 9.62925L7.81311 9.96411L7.02179 10.5273V11.5014L6.27608 10.9078L5.33261 11.1665C5.27172 11.1665 5.60654 10.2381 5.60654 10.2381H5.6065ZM24.4793 19.8949L24.0227 20.7929L23.5662 19.971L22.5923 19.8949L23.3075 19.1796L23.1249 18.2359L24.0227 18.6468L24.8445 18.1902L24.6924 19.1643L25.4076 19.8036C25.4228 19.697 24.4793 19.8949 24.4793 19.8949V19.8949ZM4.15125 20.2597L5.93936 19.2274L5.60043 18.6403L6.02436 18.3956L6.36329 18.9826L8.15686 17.9471L9.69468 20.6107L9.29247 20.8429L9.14497 20.5875L7.75361 21.3907L8.43779 22.5757L8.01386 22.8205L7.32968 21.6355L5.94375 22.4357L6.09125 22.6911L5.68911 22.9234L4.15125 20.2598V20.2597ZM3.01186 19.4029L5.38693 18.0317C5.20772 17.9346 5.01161 17.8376 4.79868 17.7407L5.045 17.3014C5.30236 17.404 5.53636 17.5081 5.74704 17.6136L5.58261 17.9187L7.98486 16.5317L8.57175 17.5483L8.14783 17.793L7.7869 17.1679L3.66176 19.5496L4.02268 20.1747L3.59876 20.4194L3.01186 19.4029ZM7.5339 21.0101L8.92525 20.2069L8.5549 19.5654L7.16358 20.3687L7.53393 21.0101H7.5339ZM5.72404 22.0552L7.10997 21.2551L6.73961 20.6136L5.35372 21.4138L5.72408 22.0552L5.72404 22.0552ZM7.9744 18.5597L6.58308 19.3631L6.95025 19.9991L8.34161 19.1957L7.97443 18.5597H7.9744ZM5.1404 21.0441L6.52633 20.244L6.15915 19.608L4.77322 20.4081L5.1404 21.0441ZM11.542 13.7307L11.9659 13.4859L13.1303 15.5026C13.3293 14.9311 13.4806 14.3606 13.5841 13.791L14.0969 13.9009C13.8929 14.7024 13.6738 15.4148 13.4394 16.0381L14.5143 17.8999C14.6399 18.1174 14.795 18.1727 14.9798 18.066L15.3005 17.8809C15.5179 17.7554 15.5854 17.5835 15.5029 17.3654C15.4187 17.1192 15.2774 16.7949 15.0789 16.3925C15.248 16.3729 15.4162 16.3459 15.583 16.3117C15.747 16.6712 15.8795 16.9885 15.9804 17.2636C16.139 17.6891 16.0426 18.0032 15.6912 18.2061L15.164 18.5105C14.7328 18.7594 14.3896 18.6629 14.1344 18.2207L11.542 13.7307ZM9.69836 18.6586C9.90422 18.4504 10.1175 18.2257 10.3383 17.9847L9.60704 16.7181L8.90593 17.1229L8.67997 16.7315L9.38107 16.3267L8.76283 15.2559L9.18675 15.0111L9.805 16.082L10.3974 15.74L10.6234 16.1314L10.031 16.4734L10.6853 17.6067C10.8346 17.4385 10.9876 17.2643 11.1446 17.0843C11.2179 17.2351 11.2943 17.3842 11.3739 17.5317C11.2359 17.6984 11.091 17.8702 10.9395 18.0471L11.8983 19.7077C12.118 20.0882 12.0618 20.3841 11.7295 20.5952C11.5888 20.6861 11.4213 20.7852 11.2272 20.8925C11.1258 20.7518 11.0181 20.6156 10.9046 20.4844C11.0818 20.4063 11.2374 20.3285 11.3714 20.2511C11.5091 20.1716 11.5351 20.0576 11.4493 19.909L10.5988 18.4359C10.4092 18.6506 10.2187 18.8645 10.0272 19.0775L9.69836 18.6586V18.6586ZM13.6598 17.7629C13.7648 17.9197 13.8671 18.0635 13.9669 18.1944C13.6684 18.7485 13.4626 19.1451 13.3495 19.3844C13.2883 19.5211 13.2435 19.6485 13.215 19.7664L12.7229 19.5794C12.7782 19.4074 12.7472 19.2199 12.6301 19.0169L10.0691 14.5812L10.493 14.3365L11.4534 15.9999L12.3502 15.4821L12.5824 15.8844L11.6856 16.4021L13.0885 18.832C13.2497 18.5505 13.4401 18.1941 13.6598 17.7629ZM15.873 11.5921L19.0361 9.76586L19.2684 10.1681L16.5291 11.7496L17.0627 12.6737L19.4758 11.2805L20.7124 13.4223L20.2884 13.667L20.1849 13.4876L18.1956 14.6361L18.8265 15.7287L21.6418 14.1033L21.874 14.5055L18.6348 16.3757L15.873 11.5921H15.873ZM15.2589 15.4114C15.4153 15.268 15.6467 15.0413 15.9534 14.7314L15.2519 13.5165L14.5128 13.9433L14.2899 13.5573L15.0291 13.1305L14.414 12.0651L14.8379 11.8203L15.453 12.8858L16.127 12.4967L16.3498 12.8826L15.6759 13.2717L16.3083 14.3671C16.4821 14.187 16.674 13.988 16.884 13.7701C16.9922 13.9493 17.0784 14.0903 17.1428 14.1933C17.0712 14.266 16.8772 14.4698 16.5609 14.8046L17.5212 16.468C17.743 16.8522 17.6766 17.1514 17.3221 17.3658L16.7351 17.7047C16.6262 17.5658 16.5121 17.431 16.3931 17.3006C16.621 17.1931 16.8092 17.0966 16.9578 17.0108C17.1136 16.9208 17.1402 16.7871 17.0377 16.6095L16.2091 15.1744C16.0014 15.3961 15.7936 15.6176 15.5855 15.8389L15.2589 15.4114ZM19.2747 11.9112L17.2855 13.0597L17.9728 14.2501L19.962 13.1017L19.2747 11.9112ZM21.819 10.0793C22.0024 9.32597 22.0718 8.48382 22.0271 7.5529L22.4949 7.38425C22.5001 7.61075 22.5004 7.8329 22.4956 8.05068L24.0011 7.18147L24.2114 7.54568C24.1641 7.99093 24.1158 8.35704 24.0665 8.644L25.1182 8.03686L26.248 9.99375L25.8567 10.2197L25.728 9.99682L23.5595 11.2488L24.1871 12.336C24.3169 12.5607 24.4922 12.6092 24.7132 12.4816L26.3655 11.5277C26.6264 11.3771 26.7244 11.1997 26.6597 10.9955C26.608 10.8224 26.4924 10.5509 26.3127 10.1811C26.4673 10.1643 26.6371 10.1364 26.8222 10.0971C26.9921 10.4919 27.1001 10.775 27.146 10.9466C27.2477 11.2986 27.112 11.5823 26.7388 11.7978L24.8311 12.8992C24.4108 13.1419 24.0825 13.0584 23.846 12.6489L22.3129 9.99347C22.2863 10.1325 22.2576 10.271 22.2269 10.4092C22.103 10.2851 21.9663 10.1745 21.819 10.0793ZM21.6022 12.0385C21.9798 11.7722 22.3225 11.5164 22.6302 11.271C22.7056 11.4353 22.7641 11.5658 22.8055 11.6627C22.4109 11.9582 21.9361 12.3241 21.3812 12.7604L21.0652 12.4138C21.184 12.1761 21.2406 11.6445 21.2351 10.819C20.9197 11.0301 20.6645 11.2052 20.4695 11.3444L20.1537 11.0484C20.1903 10.3169 20.1456 9.55754 20.0196 8.77022L20.5314 8.67765C20.5896 9.36648 20.6114 10.0579 20.5968 10.749C20.7327 10.6706 20.9435 10.544 21.2291 10.3694C21.2195 10.0682 21.2041 9.73404 21.183 9.36693L21.667 9.32664C21.6815 10.3475 21.6599 11.2514 21.6022 12.0385H21.6022ZM23.7232 7.84211L22.4786 8.56068C22.4577 8.93032 22.4227 9.2839 22.3736 9.6215L23.5992 8.9139C23.6446 8.62436 23.686 8.26711 23.7232 7.84211ZM24.9434 8.63779L24.0521 9.1524L24.6201 10.1363L25.5115 9.62168L24.9434 8.63775V8.63779ZM23.3429 10.8738L24.2342 10.3592L23.6662 9.37532L22.7749 9.88993L23.3429 10.8738ZM21.7356 13.7009C22.2711 13.2388 22.7987 12.7674 23.318 12.2871C23.4186 12.4948 23.4898 12.6349 23.5316 12.7074C22.9408 13.2321 22.4594 13.6743 22.0874 14.0341L21.7356 13.7009ZM1.99986 16.262C1.18043 16.7351 0.899685 17.7831 1.37297 18.6029L4.94368 24.7877C5.41697 25.6075 6.46493 25.8884 7.2844 25.4152L28.0001 13.4547C28.8196 12.9816 29.1003 11.9335 28.627 11.1138L25.0563 4.92897C24.583 4.10922 23.5351 3.82833 22.7156 4.30147L1.9999 16.262H1.99986ZM1.42843 15.2722L22.1442 3.31172C23.5103 2.52297 25.2572 2.99122 26.046 4.35754L29.6167 10.5424C30.4056 11.9087 29.9376 13.6557 28.5715 14.4445L7.85582 26.405C6.48972 27.1937 4.74283 26.7255 3.95397 25.3592L0.383256 19.1743C-0.4056 17.808 0.0623635 16.061 1.42847 15.2722H1.42843Z" fill="#333333"/>
</svg>
