<svg width="30" height="30" viewBox="0 0 30 30" fill="none" xmlns="http://www.w3.org/2000/svg">
<path d="M8.93168 26.1923L10.1201 25.5062C13.4497 27.0278 17.4404 26.9701 20.8518 25.0005C24.2631 23.031 26.3085 19.6038 26.6555 15.9595L27.8439 15.2733C27.7016 19.564 25.4141 23.6859 21.4231 25.9902C17.4321 28.2944 12.7187 28.2144 8.93168 26.1923V26.1923ZM2.1489 14.4406C2.29122 10.1499 4.57868 6.02803 8.56972 3.72378C12.5607 1.41957 17.2741 1.49949 21.0611 3.52164L19.8727 4.20778C16.5431 2.68614 12.5524 2.74385 9.14107 4.71342C5.72965 6.68296 3.68436 10.1101 3.33736 13.7545L2.1489 14.4406ZM14.3793 23.0472L16.6598 21.7306C17.3008 21.5752 17.9307 21.3267 18.5309 20.9802C19.1311 20.6337 19.6612 20.2124 20.1163 19.7349L22.3968 18.4183C21.7061 19.8578 20.5892 21.1113 19.1022 21.9698C17.6152 22.8283 15.9713 23.1688 14.3793 23.0472H14.3793ZM7.59608 11.2956C8.28679 9.85613 9.40361 8.60267 10.8906 7.74413C12.3776 6.88563 14.0216 6.54513 15.6136 6.6667L13.3331 7.98335C12.692 8.13874 12.0621 8.38724 11.462 8.73374C10.8618 9.08028 10.3316 9.50152 9.87654 9.97899L7.59604 11.2956H7.59608ZM9.43854 6.00181L9.36236 5.02771L10.1842 5.54524L11.0821 5.13438L10.8539 6.07803L11.4931 6.82388L10.4887 6.89988L10.0322 7.72174L9.65168 6.82371L8.70811 6.64099C8.69286 6.67142 9.43854 6.00181 9.43854 6.00181ZM15.1451 4.39871L15.5559 3.50074L16.0125 4.32271L16.9865 4.39889L16.3474 5.11417L16.5301 6.08828L15.6322 5.67724L14.8104 6.19467L14.9625 5.2206L14.2168 4.58128C14.1711 4.58128 15.1451 4.39871 15.1451 4.39871ZM20.5325 23.6848L20.6087 24.6589L19.7868 24.1413L18.889 24.5217L19.1171 23.5781L18.4779 22.8323L19.4519 22.7562L19.9692 21.9344L20.3498 22.8324L21.2934 23.0152L20.5325 23.6848V23.6848ZM15.3242 25.1799L14.8677 26.0779L14.4111 25.2559L13.4371 25.1797L14.1523 24.4644L13.9696 23.5208L14.8675 23.9318L15.6893 23.4753L15.5371 24.4493L16.2525 25.0887C16.2677 24.9821 15.3242 25.1799 15.3242 25.1799ZM5.60322 10.2376L5.04004 9.44613L6.01404 9.47667L6.6075 8.68528L6.86633 9.62895L7.8099 9.96388L7.01858 10.527L7.01865 11.5011L6.2729 10.9074L5.32936 11.1661C5.2685 11.1661 5.60322 10.2376 5.60322 10.2376ZM24.4761 19.8949L24.0196 20.7928L23.563 19.9709L22.589 19.8947L23.3042 19.1794L23.1215 18.2358L24.0195 18.6468L24.8412 18.1902L24.6891 19.1643L25.4045 19.8036C25.4196 19.6971 24.4761 19.8949 24.4761 19.8949ZM1.42847 15.272L22.1442 3.3111C23.5103 2.52231 25.2572 2.99056 26.046 4.35696L29.6167 10.542C30.4056 11.9084 29.9376 13.6555 28.5715 14.4442L7.85582 26.4052C6.48972 27.194 4.74283 26.7257 3.95397 25.3593L0.383256 19.1743C-0.4056 17.8079 0.0623635 16.0608 1.42847 15.2721V15.272ZM1.9999 16.2618C1.18043 16.735 0.899685 17.7831 1.37297 18.6028L4.94368 24.7879C5.41697 25.6077 6.46493 25.8886 7.2844 25.4154L28.0001 13.4545C28.8196 12.9813 29.1003 11.9332 28.627 11.1135L25.0563 4.92839C24.583 4.10864 23.5351 3.82774 22.7156 4.30089L1.9999 16.2618ZM7.04615 18.5494L8.83425 17.5171L8.49533 16.93L8.91925 16.6852L9.25818 17.2723L11.0518 16.2368L12.5896 18.9005L12.1874 19.1327L12.0399 18.8772L10.6486 19.6805L11.3328 20.8656L10.9088 21.1103L10.2246 19.9252L8.83872 20.7254L8.98622 20.9809L8.58404 21.2131L7.04618 18.5494H7.04615ZM5.90679 17.6925L8.28186 16.3213C8.10265 16.2242 7.90654 16.1272 7.69358 16.0303L7.93993 15.591C8.19729 15.6936 8.43129 15.7977 8.64197 15.9032L8.47754 16.2083L10.8798 14.8214L11.4667 15.8379L11.0428 16.0827L10.6818 15.4575L6.55668 17.8392L6.91761 18.4643L6.49368 18.7091L5.90679 17.6925ZM10.4288 19.2998L11.8202 18.4966L11.4498 17.8551L10.0585 18.6584L10.4289 19.2998H10.4288ZM8.619 20.345L10.0049 19.5448L9.63454 18.9034L8.24865 19.7035L8.619 20.345ZM10.8694 16.8494L9.47797 17.6527L9.84518 18.2888L11.2365 17.4855L10.8693 16.8494H10.8694ZM8.03536 19.3339L9.42125 18.5337L9.05404 17.8977L7.66815 18.6978L8.03536 19.3339ZM14.4369 12.0201L14.8608 11.7754L16.0252 13.7922C16.2242 13.2206 16.3755 12.6501 16.479 12.0805L16.9918 12.1904C16.7879 12.9919 16.5687 13.7043 16.3344 14.3276L17.4093 16.1895C17.5348 16.407 17.69 16.4623 17.8748 16.3556L18.1955 16.1705C18.4129 16.045 18.4803 15.8731 18.3979 15.655C18.3137 15.4088 18.1724 15.0845 17.9739 14.6821C18.143 14.6625 18.3111 14.6355 18.4779 14.6013C18.642 14.9608 18.7745 15.2781 18.8754 15.5532C19.034 15.9787 18.9376 16.2929 18.5862 16.4958L18.059 16.8001C17.6278 17.0491 17.2846 16.9525 17.0293 16.5103L14.4369 12.0201ZM12.5933 16.9482C12.7991 16.74 13.0125 16.5153 13.2332 16.2743L12.502 15.0077L11.8008 15.4125L11.5749 15.0211L12.276 14.6163L11.6577 13.5454L12.0816 13.3006L12.6999 14.3716L13.2923 14.0295L13.5183 14.4209L12.9259 14.763L13.5803 15.8964C13.7295 15.7281 13.8826 15.5539 14.0395 15.3739C14.1128 15.5247 14.1893 15.6738 14.2689 15.8213C14.1308 15.9881 13.986 16.1598 13.8345 16.3367L14.7933 17.9974C15.013 18.378 14.9568 18.6738 14.6245 18.8849C14.4838 18.9758 14.3163 19.0749 14.1222 19.1822C14.0208 19.0415 13.9131 18.9053 13.7996 18.7741C13.9768 18.696 14.1324 18.6182 14.2664 18.5408C14.4041 18.4613 14.4301 18.3473 14.3443 18.1987L13.4937 16.7255C13.3042 16.9403 13.1136 17.1542 12.9221 17.3672L12.5933 16.9482ZM16.5547 16.0525C16.6597 16.2093 16.7621 16.3532 16.8618 16.4841C16.5633 17.0381 16.3575 17.4348 16.2445 17.6741C16.1833 17.8108 16.1385 17.9382 16.11 18.0561L15.6179 17.8691C15.6731 17.697 15.6422 17.5095 15.525 17.3066L12.964 12.8707L13.3879 12.626L14.3483 14.2894L15.2451 13.7717L15.4773 14.1739L14.5805 14.6917L15.9835 17.1216C16.1446 16.8401 16.335 16.4838 16.5547 16.0525H16.5547ZM17.512 11.7229L19.6045 10.5148L18.9202 9.3297L19.3877 9.05985L20.0719 10.2449L22.1861 9.02428L23.6172 11.5031L23.1716 11.7605L23.0021 11.4669L21.3336 12.4302L22.5011 14.4525L22.0337 14.7223L20.8662 12.7001L19.2194 13.6509L19.3889 13.9444L18.9431 14.2017L17.512 11.7228V11.7229ZM21.9727 9.68374L20.3042 10.6471L21.1014 12.0278L22.7699 11.0645L21.9727 9.68374ZM18.9872 13.2487L20.634 12.298L19.8368 10.9172L18.19 11.868L18.9871 13.2487H18.9872Z" fill="#333333"/>
</svg>
