<svg width="30" height="30" viewBox="0 0 30 30" fill="none" xmlns="http://www.w3.org/2000/svg">
<path d="M8.93522 26.1932L10.1237 25.5069C13.453 27.0283 17.4434 26.9702 20.8548 25.0004C24.2662 23.0305 26.3117 19.6031 26.659 15.9586L27.8475 15.2723C27.7048 19.5631 25.417 23.6853 21.426 25.9899C17.435 28.2945 12.7219 28.215 8.93522 26.1932V26.1932ZM2.15179 14.442C2.29451 10.1511 4.58222 6.029 8.57322 3.7244C12.5643 1.41976 17.2774 1.49929 21.064 3.52111L19.8756 4.2074C16.5463 2.68597 12.5559 2.74408 9.1445 4.71397C5.73308 6.68386 3.68758 10.1113 3.34029 13.7557L2.15179 14.442ZM14.3826 23.0476L16.6631 21.7307C17.3041 21.5753 17.934 21.3267 18.5341 20.9801C19.1343 20.6336 19.6645 20.2123 20.1196 19.7348L22.4001 18.4179C21.7093 19.8575 20.5924 21.1111 19.1054 21.9697C17.6184 22.8284 15.9745 23.169 14.3825 23.0476L14.3826 23.0476ZM7.59915 11.2964C8.28997 9.85686 9.4069 8.60325 10.8939 7.74457C12.3809 6.88593 14.0248 6.54529 15.6167 6.66672L13.3362 7.98357C12.6951 8.13904 12.0653 8.38761 11.4651 8.73418C10.8649 9.08075 10.3348 9.50204 9.87965 9.97954L7.59915 11.2965V11.2964ZM9.44175 6.00236L9.36568 5.02825L10.1875 5.54575L11.0853 5.13479L10.857 6.07847L11.4962 6.82425L10.4918 6.90036L10.0353 7.72225L9.65482 6.82425L8.71129 6.64161C8.69607 6.67208 9.44175 6.00233 9.44175 6.00233V6.00236ZM15.1483 4.39933L15.5592 3.50129L16.0158 4.32322L16.9897 4.39929L16.3505 5.11465L16.5332 6.08879L15.6353 5.67783L14.8135 6.19533L14.9657 5.22122L14.22 4.58193C14.1744 4.58193 15.1483 4.39933 15.1483 4.39933ZM20.5356 23.6846L20.6117 24.6587L19.7899 24.1412L18.8921 24.5217L19.1204 23.5781L18.4812 22.8322L19.4551 22.7562L19.9726 21.9342L20.353 22.8322L21.2965 23.0149L20.5356 23.6846ZM15.3273 25.1797L14.8708 26.0777L14.4142 25.2558L13.4403 25.1797L14.1555 24.4643L13.9729 23.5206L14.8707 23.9316L15.6925 23.475L15.5403 24.4491L16.2556 25.0884C16.2708 24.9818 15.3273 25.1797 15.3273 25.1797V25.1797ZM5.6065 10.2381L5.04347 9.44665L6.0174 9.47704L6.6109 8.68561L6.86961 9.62925L7.81311 9.96411L7.02179 10.5273V11.5014L6.27608 10.9078L5.33261 11.1665C5.27172 11.1665 5.60654 10.2381 5.60654 10.2381H5.6065ZM24.4793 19.8949L24.0227 20.7929L23.5662 19.971L22.5923 19.8949L23.3075 19.1796L23.1249 18.2359L24.0227 18.6468L24.8445 18.1902L24.6924 19.1643L25.4076 19.8036C25.4228 19.697 24.4793 19.8949 24.4793 19.8949V19.8949ZM1.42847 15.2722L22.1442 3.31172C23.5103 2.52297 25.2572 2.99122 26.046 4.35754L29.6167 10.5424C30.4056 11.9087 29.9376 13.6557 28.5715 14.4445L7.85582 26.405C6.48972 27.1937 4.74283 26.7255 3.95397 25.3592L0.383256 19.1743C-0.4056 17.808 0.0623635 16.061 1.42847 15.2722ZM1.9999 16.262C1.18043 16.7351 0.899685 17.7831 1.37297 18.6029L4.94368 24.7877C5.41697 25.6075 6.46493 25.8884 7.2844 25.4152L28.0001 13.4547C28.8196 12.9816 29.1003 11.9335 28.627 11.1138L25.0563 4.92897C24.583 4.10922 23.5351 3.82833 22.7156 4.30147L1.9999 16.262ZM4.02922 20.0061L5.81733 18.9737L5.4784 18.3866L5.90233 18.1419L6.24125 18.729L8.03483 17.6935L9.57265 20.357L9.17043 20.5892L9.02293 20.3338L7.63158 21.1371L8.31575 22.3221L7.89182 22.5669L7.20765 21.3819L5.82175 22.182L5.96925 22.4375L5.56704 22.6697L4.02922 20.0061V20.0061ZM2.88983 19.1492L5.2649 17.778C5.08568 17.6809 4.88961 17.584 4.67665 17.4871L4.92297 17.0477C5.18033 17.1504 5.41433 17.2544 5.625 17.3599L5.46058 17.665L7.86283 16.2781L8.44972 17.2946L8.02579 17.5394L7.66486 16.9142L3.53972 19.2959L3.90065 19.921L3.47672 20.1657L2.88983 19.1492ZM7.41186 20.7565L8.80322 19.9532L8.4329 19.3117L7.04154 20.115L7.4119 20.7565H7.41186ZM5.60204 21.8016L6.98793 21.0014L6.61761 20.36L5.23168 21.1601L5.60204 21.8016ZM7.8524 18.3061L6.46104 19.1094L6.82822 19.7454L8.21958 18.9421L7.8524 18.3061ZM5.01836 20.7905L6.40429 19.9903L6.03711 19.3543L4.65118 20.1545L5.01836 20.7905ZM11.42 13.477L11.8439 13.2323L13.0083 15.249C13.2073 14.6774 13.3586 14.1069 13.4622 13.5374L13.9749 13.6472C13.7709 14.4487 13.5518 15.1611 13.3174 15.7844L14.3923 17.6462C14.5179 17.8637 14.673 17.919 14.8578 17.8123L15.1785 17.6272C15.3959 17.5017 15.4634 17.3299 15.3809 17.1117C15.2968 16.8655 15.1554 16.5412 14.9569 16.1389C15.126 16.1192 15.2942 16.0922 15.461 16.058C15.625 16.4175 15.7575 16.7348 15.8584 17.01C16.0171 17.4354 15.9206 17.7495 15.5692 17.9525L15.042 18.2569C14.6108 18.5058 14.2676 18.4092 14.0124 17.9671L11.42 13.477ZM9.57636 18.4049C9.78222 18.1967 9.99554 17.9721 10.2163 17.731L9.48504 16.4645L8.78397 16.8692L8.55797 16.4779L9.25907 16.0731L8.64082 15.0022L9.06475 14.7574L9.683 15.8283L10.2754 15.4863L10.5014 15.8777L9.90897 16.2197L10.5634 17.3531C10.7126 17.1848 10.8656 17.0106 11.0226 16.8306C11.0959 16.9814 11.1723 17.1306 11.2519 17.2781C11.1139 17.4447 10.9691 17.6165 10.8175 17.7934L11.7764 19.4541C11.996 19.8346 11.9398 20.1304 11.6075 20.3416C11.4668 20.4325 11.2994 20.5316 11.1052 20.6388C11.0038 20.4981 10.8961 20.3619 10.7826 20.2307C10.9598 20.1526 11.1154 20.0749 11.2494 19.9975C11.3871 19.918 11.4131 19.8039 11.3273 19.6553L10.4768 18.1822C10.2872 18.397 10.0967 18.6109 9.90518 18.8239L9.57636 18.4049ZM13.5378 17.5092C13.6428 17.666 13.7451 17.8099 13.8449 17.9407C13.5464 18.4948 13.3406 18.8915 13.2275 19.1307C13.1663 19.2675 13.1215 19.3948 13.093 19.5127L12.6009 19.3257C12.6562 19.1537 12.6252 18.9662 12.5081 18.7632L9.94711 14.3275L10.371 14.0828L11.3314 15.7462L12.2282 15.2284L12.4604 15.6307L11.5636 16.1484L12.9665 18.5783C13.1277 18.2968 13.3181 17.9404 13.5378 17.5092ZM18.2148 15.4679L17.8289 15.6907L16.062 12.6303L17.3718 11.874C17.0195 11.8914 16.6581 11.914 16.2877 11.9418L16.3599 11.5523C16.7028 11.5272 17.0459 11.5042 17.3891 11.4835L18.0658 10.4151L15.5168 11.8868L15.316 11.5389L18.5824 9.65304L18.7926 10.0173L17.874 11.4573C17.9562 11.4533 18.0361 11.4494 18.1137 11.4457L19.2795 10.7726L20.6981 13.2297C20.9366 13.6428 20.8656 13.9592 20.4852 14.1788C20.2967 14.2876 20.0889 14.4004 19.8616 14.5171C19.7614 14.3869 19.6535 14.2629 19.5384 14.1456C19.7813 14.0392 19.9843 13.9389 20.1474 13.8448C20.343 13.7318 20.3865 13.5811 20.2776 13.3926L20.1239 13.1263L19.0858 13.7256L19.5754 14.5736L19.1895 14.7964L18.6999 13.9484L17.6781 14.5384L18.2148 15.4679ZM18.4471 15.7324L19.8129 14.9728L21.5977 13.8844C21.6269 14.027 21.6588 14.1994 21.6934 14.4017L19.9007 15.4512L18.5884 16.1654C17.9682 16.5138 17.4146 16.5507 16.9277 16.2762C16.8586 16.4997 16.7814 16.868 16.696 17.3812L16.2127 17.0587C16.3545 16.5637 16.4582 16.2079 16.5239 15.9911L15.4678 14.1619L14.821 14.5354L14.5888 14.1331L15.6541 13.5181L16.9957 15.8419C17.4268 16.0739 17.9105 16.0374 18.4471 15.7324ZM14.165 11.9428C14.4796 12.0608 14.9309 12.2568 15.5191 12.5309L15.2902 13.0255C14.7309 12.7347 14.2849 12.5187 13.9522 12.3774L14.165 11.9428V11.9428ZM19.0945 11.3433L18.0564 11.9425L18.3702 12.4861L19.4084 11.8868L19.0945 11.3432V11.3433ZM18.8849 13.3777L19.923 12.7783L19.6091 12.2348L18.571 12.8341L18.8849 13.3776V13.3777ZM16.9626 13.299L17.9844 12.7091L17.6705 12.1655L16.6488 12.7554L16.9626 13.299V13.299ZM17.4772 14.1905L18.499 13.6006L18.1851 13.057L17.1634 13.6469L17.4772 14.1905ZM21.2415 9.12468L23.5731 7.77854L22.9737 6.74029L23.4139 6.48611L24.0134 7.52436L24.9482 6.98465L25.1773 7.38147L24.2425 7.92118L25.5449 10.1771C25.8149 10.6446 25.7251 11.008 25.2759 11.2674C25.0003 11.4262 24.7239 11.5833 24.4466 11.7389C24.3469 11.6081 24.2256 11.4607 24.0826 11.2968C24.3892 11.1584 24.6675 11.0171 24.9175 10.8727C25.1422 10.743 25.1795 10.5524 25.0294 10.3008L23.8022 8.17536L21.4706 9.5215L21.2415 9.12472V9.12468ZM24.0472 12.4406L25.5249 11.6238L27.1457 10.6155C27.1673 10.7925 27.192 10.9691 27.2197 11.1453L25.6399 12.0865L24.2297 12.8572C23.6023 13.2097 23.0247 13.2678 22.4968 13.0313C22.4414 13.1696 22.3631 13.5193 22.2618 14.0803L21.7699 13.7554C21.9022 13.336 22.0105 13.0089 22.0948 12.7743L21.0167 10.907L20.3862 11.271L20.1603 10.8796L21.2092 10.274L22.5697 12.6305C23.0223 12.7993 23.5147 12.736 24.0472 12.4406ZM22.0615 10.043L22.2518 9.60693C22.9375 9.88265 23.4692 10.1048 23.8467 10.2734L23.6318 10.7671C23.0731 10.4857 22.5497 10.2443 22.0615 10.043H22.0615ZM19.6059 8.71404C20.004 8.8514 20.4595 9.03782 20.9722 9.27329C20.8775 9.44393 20.7991 9.60514 20.737 9.757C20.2631 9.51357 19.8224 9.30661 19.4147 9.13607L19.6059 8.71404Z" fill="#333333"/>
</svg>
