<svg width="30" height="30" viewBox="0 0 30 30" fill="none" xmlns="http://www.w3.org/2000/svg">
<g clip-path="url(#clip0_42_229)">
<path d="M8.93543 26.1932L10.1239 25.5069C13.4533 27.0283 17.4438 26.9702 20.8553 25.0003C24.2668 23.0304 26.3123 19.6031 26.6596 15.9586L27.8481 15.2723C27.7055 19.5632 25.4177 23.6853 21.4266 25.9899C17.4354 28.2946 12.7222 28.215 8.93543 26.1932V26.1932ZM2.15186 14.442C2.29453 10.1512 4.58232 6.02901 8.57343 3.7244C12.5646 1.41976 17.2778 1.49929 21.0646 3.52111L19.8761 4.2074C16.5467 2.68597 12.5562 2.74408 9.14468 4.71397C5.73325 6.68387 3.68768 10.1113 3.34036 13.7557L2.15186 14.442ZM14.3829 23.0477L16.6635 21.7308C17.3045 21.5753 17.9344 21.3267 18.5346 20.9802C19.1348 20.6336 19.665 20.2123 20.1201 19.7348L22.4007 18.4179C21.7099 19.8574 20.5929 21.111 19.1059 21.9697C17.6189 22.8284 15.9749 23.169 14.383 23.0476L14.3829 23.0477ZM7.59936 11.2964C8.29018 9.85683 9.40711 8.60322 10.8941 7.74454C12.3812 6.8859 14.0251 6.54526 15.6171 6.66669L13.3365 7.98354C12.6955 8.13901 12.0656 8.38758 11.4654 8.73415C10.8652 9.08072 10.335 9.50201 9.87989 9.97951L7.59929 11.2964L7.59936 11.2964ZM9.442 6.00233L9.36593 5.02822L10.1877 5.54572L11.0856 5.13476L10.8573 6.07844L11.4965 6.82422L10.492 6.90033L10.0355 7.72222L9.65504 6.82422L8.7115 6.64158C8.69629 6.67204 9.442 6.00229 9.442 6.00229V6.00233ZM15.1487 4.39929L15.5596 3.50126L16.0161 4.32319L16.9901 4.39926L16.351 5.11461L16.5336 6.08876L15.6357 5.67779L14.8139 6.19529L14.9661 5.22119L14.2204 4.5819C14.1748 4.5819 15.1487 4.39929 15.1487 4.39929ZM20.5361 23.6846L20.6121 24.6587L19.7904 24.1412L18.8925 24.5217L19.1208 23.5781L18.4816 22.8322L19.4556 22.7562L19.973 21.9342L20.3535 22.8322L21.297 23.0149L20.5361 23.6846ZM15.3276 25.1797L14.8711 26.0777L14.4145 25.2558L13.4406 25.1797L14.1558 24.4643L13.9732 23.5206L14.871 23.9316L15.6929 23.475L15.5407 24.4491L16.256 25.0884C16.2712 24.9818 15.3276 25.1797 15.3276 25.1797L15.3276 25.1797ZM5.60664 10.238L5.04357 9.44662L6.01754 9.47701L6.61104 8.68558L6.86975 9.62922L7.81332 9.96408L7.02193 10.5272V11.5013L6.27625 10.9078L5.33271 11.1665C5.27186 11.1665 5.60664 10.238 5.60664 10.238ZM24.4799 19.8948L24.0234 20.7929L23.5668 19.971L22.5929 19.8949L23.3081 19.1795L23.1255 18.2358L24.0233 18.6468L24.8451 18.1902L24.693 19.1643L25.4082 19.8036C25.4234 19.697 24.4799 19.8949 24.4799 19.8949V19.8948ZM1.42861 15.2719L22.1449 3.30965C23.511 2.52083 25.2578 2.98893 26.0465 4.35529L29.6169 10.5402C30.4056 11.9065 29.9375 13.6536 28.5714 14.4424L7.85514 26.4047C6.48904 27.1935 4.74218 26.7254 3.95346 25.359L0.383141 19.1742C-0.405573 17.8079 0.0624626 16.0608 1.42861 15.2719ZM1.99986 16.2615C1.18018 16.7348 0.89932 17.7831 1.37257 18.6029L4.94289 24.7877C5.41611 25.6075 6.46421 25.8884 7.28389 25.4151L28.0001 13.4528C28.8198 12.9795 29.1007 11.9312 28.6274 11.1114L25.0571 4.92658C24.5839 4.10679 23.5358 3.8259 22.7161 4.29922L1.99986 16.2615ZM6.71064 18.2986L7.17807 18.0287L7.60796 18.7734L10.8581 16.8966L10.0517 15.4996L6.13296 17.7624L5.90079 17.3602L10.276 14.8337L11.7383 17.3669L11.2818 17.6305L11.0904 17.2989L7.84018 19.1757L8.75332 20.7575C8.94579 21.0909 9.19961 21.1666 9.51486 20.9846L12.1944 19.4373C12.506 19.2574 12.6295 19.0363 12.5651 18.7739C12.5027 18.5152 12.3811 18.1916 12.2003 17.8031C12.3772 17.7831 12.5644 17.7475 12.7619 17.6963C12.9287 18.1025 13.048 18.4347 13.1198 18.6928C13.2474 19.1651 13.0613 19.5456 12.5612 19.8343L9.66975 21.504C9.11536 21.8241 8.67289 21.6979 8.34239 21.1253L6.71061 18.2986H6.71064ZM15.6665 17.2295L15.2806 17.4523L13.5139 14.3919L14.8238 13.6355C14.4715 13.6529 14.1101 13.6755 13.7398 13.7034L13.812 13.3138C14.1549 13.2887 14.4979 13.2657 14.8411 13.245L15.5179 12.1765L12.9688 13.6484L12.768 13.3005L16.0345 11.4143L16.2448 11.7785L15.326 13.2187L15.5657 13.2071L16.7315 12.5339L18.1499 14.9909C18.3884 15.4041 18.3174 15.7205 17.9369 15.9402C17.7485 16.049 17.5406 16.1618 17.3134 16.2785C17.2132 16.1483 17.1053 16.0243 16.9902 15.907C17.2331 15.8006 17.4361 15.7003 17.5991 15.6061C17.7949 15.4932 17.8383 15.3424 17.7295 15.154L17.5757 14.8876L16.5376 15.4871L17.0271 16.3351L16.6413 16.5579L16.1517 15.7099L15.1299 16.2999L15.6665 17.2295ZM15.8989 17.4939L17.2648 16.7342L19.0496 15.6456C19.0788 15.7882 19.1106 15.9606 19.1453 16.1629L17.3525 17.2126L16.0401 17.9269C15.42 18.2754 14.8664 18.3124 14.3794 18.0379C14.3104 18.2614 14.2331 18.6297 14.1477 19.1429L13.6644 18.8204C13.8062 18.3254 13.91 17.9695 13.9757 17.7528L12.9198 15.9236L12.273 16.2971L12.0408 15.8948L13.1061 15.2797L14.4476 17.6035C14.8786 17.8354 15.3623 17.7989 15.8989 17.4939ZM11.6169 13.7043C11.9314 13.8223 12.3828 14.0183 12.9709 14.2923L12.7419 14.787C12.1828 14.4962 11.7368 14.2802 11.404 14.1389L11.6169 13.7043ZM16.5465 13.1047L15.5084 13.7041L15.8221 14.2477L16.8603 13.6483L16.5465 13.1047V13.1047ZM16.3368 15.1392L17.3749 14.5398L17.0611 13.9962L16.023 14.5956L16.3368 15.1392ZM14.4145 15.0606L15.4363 14.4705L15.1225 13.927L14.1007 14.517L14.4145 15.0605V15.0606ZM14.9291 15.952L15.9509 15.362L15.6371 14.8185L14.6153 15.4085L14.9291 15.952H14.9291ZM18.6936 10.8863L21.0253 9.53997L20.426 8.50172L20.8662 8.24751L21.4656 9.28572L22.4004 8.7459L22.6295 9.14272L21.6946 9.68254L22.9969 11.9384C23.2668 12.4059 23.177 12.7694 22.7277 13.0289C22.4522 13.1876 22.1757 13.3448 21.8984 13.5004C21.7988 13.3696 21.6774 13.2222 21.5345 13.0583C21.8411 12.9199 22.1194 12.7785 22.3695 12.6342C22.5941 12.5044 22.6314 12.3138 22.4813 12.0622L21.2544 9.93676L18.9227 11.2832L18.6936 10.8863ZM21.4991 14.2022L22.9769 13.3851L24.5978 12.3767C24.6198 12.5572 24.6445 12.7338 24.6718 12.9065L23.0918 13.8479L21.6816 14.6187C21.0542 14.9713 20.4766 15.0294 19.9488 14.793C19.8933 14.9313 19.815 15.281 19.7137 15.842L19.2218 15.5172C19.3541 15.0977 19.4624 14.7707 19.5467 14.5359L18.4689 12.6687L17.8384 13.0328L17.6124 12.6414L18.6614 12.0357L20.0217 14.3921C20.4742 14.5609 20.9667 14.4975 21.4991 14.2022ZM19.5135 11.8045L19.7039 11.3684C20.3896 11.6442 20.9213 11.8663 21.2988 12.0348L21.0838 12.5286C20.5252 12.2472 20.0018 12.0058 19.5135 11.8045ZM17.0579 10.4756C17.456 10.6129 17.9115 10.7993 18.4242 11.0347C18.3295 11.2054 18.251 11.3666 18.1889 11.5185C17.7151 11.2751 17.2743 11.0681 16.8667 10.8976L17.0579 10.4755V10.4756Z" fill="#333333"/>
</g>
<defs>
<clipPath id="clip0_42_229">
<rect width="30" height="30" fill="white"/>
</clipPath>
</defs>
</svg>
