<svg width="30" height="30" viewBox="0 0 30 30" fill="none" xmlns="http://www.w3.org/2000/svg">
<g clip-path="url(#clip0_42_227)">
<path d="M8.93562 26.1926L10.1241 25.5063C13.4534 27.0277 17.4438 26.9696 20.8552 24.9997C24.2666 23.0299 26.3121 19.6026 26.6594 15.9583L27.8479 15.272C27.7052 19.5627 25.4174 23.6847 21.4264 25.9893C17.4354 28.2939 12.7223 28.2143 8.93562 26.1926V26.1926ZM2.15222 14.4417C2.29489 10.1509 4.58262 6.0289 8.57362 3.72435C12.5647 1.41977 17.2778 1.4993 21.0645 3.52107L19.876 4.20734C16.5467 2.68595 12.5563 2.74406 9.14486 4.7139C5.73352 6.68374 3.688 10.1111 3.34069 13.7554L2.15222 14.4417ZM14.383 23.0471L16.6635 21.7303C17.3045 21.5748 17.9344 21.3262 18.5346 20.9797C19.1347 20.6331 19.6649 20.2118 20.12 19.7343L22.4006 18.4174C21.7097 19.857 20.5928 21.1106 19.1058 21.9692C17.6188 22.8278 15.9749 23.1685 14.383 23.047L14.383 23.0471ZM7.59958 11.2962C8.29038 9.85663 9.40728 8.60305 10.8943 7.7444C12.3813 6.88577 14.0252 6.54514 15.6171 6.66657L13.3366 7.98339C12.6956 8.13885 12.0657 8.38742 11.4655 8.73398C10.8654 9.08054 10.3352 9.50182 9.88006 9.9793L7.59951 11.2962L7.59958 11.2962ZM9.44217 6.00223L9.3661 5.02814L10.1879 5.54563L11.0857 5.13468L10.8574 6.07833L11.4966 6.8241L10.4922 6.9002L10.0357 7.72208L9.6552 6.8241L8.71169 6.64146C8.69648 6.67192 9.44217 6.00219 9.44217 6.00219V6.00223ZM15.1487 4.39923L15.5596 3.50122L16.0162 4.32313L16.9901 4.39919L16.351 5.11453L16.5336 6.08865L15.6357 5.6777L14.814 6.19519L14.9661 5.2211L14.2204 4.58183C14.1748 4.58183 15.1487 4.39923 15.1487 4.39923ZM20.536 23.684L20.612 24.6581L19.7903 24.1406L18.8925 24.5211L19.1207 23.5775L18.4816 22.8317L19.4555 22.7556L19.9729 21.9337L20.3534 22.8317L21.2969 23.0143L20.536 23.684ZM15.3276 25.1791L14.8711 26.0771L14.4145 25.2552L13.4406 25.1791L14.1559 24.4637L13.9732 23.5201L14.8711 23.931L15.6929 23.4745L15.5407 24.4485L16.256 25.0878C16.2712 24.9812 15.3277 25.1791 15.3277 25.1791L15.3276 25.1791ZM5.60691 10.2378L5.04386 9.44642L6.0178 9.47682L6.61128 8.68541L6.86999 9.62903L7.81354 9.96387L7.02216 10.527V11.5011L6.2765 10.9075L5.33299 11.1663C5.27214 11.1663 5.60691 10.2378 5.60691 10.2378ZM24.4797 19.8944L24.0232 20.7924L23.5666 19.9705L22.5927 19.8944L23.3079 19.1791L23.1253 18.2354L24.0231 18.6464L24.8449 18.1898L24.6928 19.1639L25.408 19.8031C25.4232 19.6966 24.4797 19.8944 24.4797 19.8944V19.8944ZM1.42848 15.2707L22.1442 3.31051C23.5103 2.52181 25.2572 2.99002 26.046 4.3563L29.6168 10.541C30.4056 11.9073 29.9377 13.6543 28.5715 14.443L7.85586 26.4032C6.48975 27.1919 4.74287 26.7237 3.95403 25.3574L0.383261 19.1727C-0.405576 17.8064 0.0623761 16.0594 1.42848 15.2707V15.2707ZM1.99983 16.2603C1.1802 16.7335 0.89939 17.7817 1.3727 18.6015L4.94343 24.7862C5.41674 25.6059 6.46486 25.8869 7.28451 25.4137L28.0002 13.4534C28.8199 12.9802 29.1007 11.932 28.6274 11.1122L25.0566 4.92754C24.5833 4.10777 23.5352 3.82685 22.7156 4.30005L1.99983 16.2603V16.2603ZM6.71078 18.298L7.17816 18.0282L7.60815 18.7729L10.8582 16.8964L10.0517 15.4994L6.13308 17.7619L5.90084 17.3596L10.276 14.8336L11.7384 17.3667L11.2819 17.6302L11.0905 17.2987L7.84036 19.1751L8.75362 20.7569C8.94611 21.0903 9.19997 21.166 9.51521 20.984L12.1946 19.437C12.5062 19.2571 12.6298 19.036 12.5653 18.7737C12.5029 18.515 12.3813 18.1914 12.2005 17.8029C12.3774 17.7829 12.5646 17.7474 12.7621 17.6961C12.9289 18.1023 13.0482 18.4345 13.12 18.6926C13.2477 19.1649 13.0615 19.5453 12.5615 19.834L9.67013 21.5034C9.11575 21.8234 8.67327 21.6972 8.3427 21.1246L6.71078 18.298ZM13.2029 13.0997L16.3661 11.2734L16.5983 11.6757L13.8591 13.2571L14.3926 14.1812L16.8057 12.788L18.0422 14.9297L17.6183 15.1745L17.5148 14.9951L15.5255 16.1435L16.1564 17.2361L18.9716 15.6107L19.2039 16.013L15.9647 17.8831L13.2029 13.0997ZM12.5888 16.9188C12.7452 16.7754 12.9767 16.5487 13.2833 16.2389L12.5818 15.024L11.8427 15.4507L11.6198 15.0648L12.359 14.638L11.7439 13.5726L12.1678 13.3279L12.7829 14.3933L13.4569 14.0042L13.6797 14.3901L13.0058 14.7792L13.6381 15.8745C13.8301 15.6756 14.022 15.4767 14.2138 15.2776C14.3221 15.4567 14.4083 15.5978 14.4727 15.7008C14.4011 15.7735 14.2072 15.9773 13.8908 16.3121L14.8511 17.9755C15.0729 18.3596 15.0065 18.6588 14.652 18.8731L14.065 19.2121C13.9561 19.0732 13.842 18.9384 13.723 18.808C13.9509 18.7005 14.1391 18.604 14.2877 18.5182C14.4434 18.4283 14.4701 18.2945 14.3675 18.1169L13.539 16.6819C13.3567 16.8765 13.1488 17.098 12.9154 17.3464L12.5888 16.9188ZM16.6046 13.4187L14.6154 14.5672L15.3027 15.7576L17.2919 14.6091L16.6046 13.4187ZM19.1489 11.5869C19.3323 10.8336 19.4017 9.99145 19.357 9.06054L19.8249 8.89187C19.8301 9.1184 19.8303 9.34053 19.8256 9.55828L21.3311 8.68909L21.5413 9.05329C21.494 9.49853 21.4457 9.86466 21.3964 10.1516L22.4481 9.54442L23.5779 11.5013L23.1866 11.7272L23.0579 11.5044L20.8894 12.7564L21.517 13.8436C21.6468 14.0682 21.8221 14.1168 22.0431 13.9892L23.6954 13.0353C23.9562 12.8846 24.0543 12.7072 23.9896 12.503C23.9379 12.3299 23.8222 12.0584 23.6426 11.6887C23.7972 11.6719 23.967 11.6439 24.1521 11.6047C24.322 11.9994 24.4299 12.2826 24.4759 12.4542C24.5777 12.8061 24.4419 13.0898 24.0687 13.3053L22.161 14.4067C21.7407 14.6494 21.4123 14.566 21.1759 14.1564L19.6428 11.5011C19.6162 11.6401 19.5875 11.7787 19.5568 11.9168C19.4329 11.7927 19.2962 11.6821 19.1489 11.5869H19.1489ZM18.9321 13.546C19.3097 13.2797 19.6524 13.0239 19.9601 12.7786C20.0355 12.9428 20.094 13.0733 20.1354 13.1702C19.7408 13.4657 19.266 13.8316 18.7112 14.2679L18.3951 13.9213C18.5139 13.6836 18.5705 13.152 18.565 12.3266C18.2496 12.5376 17.9944 12.7127 17.7994 12.8519L17.4836 12.5559C17.5202 11.8245 17.4755 11.0651 17.3495 10.2778L17.8613 10.1853C17.9195 10.8741 17.9413 11.5655 17.9267 12.2566C18.0626 12.1781 18.2734 12.0516 18.5591 11.877C18.5494 11.5758 18.534 11.2416 18.5129 10.8745L18.9969 10.8342C19.0114 11.855 18.9898 12.759 18.9321 13.546ZM21.0531 9.34971L19.8085 10.0683C19.7876 10.4379 19.7526 10.7915 19.7036 11.1291L20.9291 10.4215C20.9745 10.1319 21.0158 9.77474 21.0531 9.34975L21.0531 9.34971ZM22.2733 10.1454L21.382 10.66L21.9501 11.6438L22.8414 11.1292L22.2734 10.1453L22.2733 10.1454ZM20.6728 12.3814L21.5642 11.8668L20.9961 10.8829L20.1048 11.3975L20.6728 12.3814ZM19.0655 15.2083C19.601 14.7462 20.1286 14.2749 20.6479 13.7946C20.7485 14.0023 20.8197 14.1424 20.8615 14.2149C20.2707 14.7396 19.7893 15.1818 19.4173 15.5416L19.0655 15.2083Z" fill="#333333"/>
</g>
<defs>
<clipPath id="clip0_42_227">
<rect width="30" height="30" fill="white"/>
</clipPath>
</defs>
</svg>
