<svg xmlns="http://www.w3.org/2000/svg" width="12" height="12" viewBox="0 0 12 12" fill="none">
  <path d="M 11.082 0 C 11.338 0 11.555 0.104 11.733 0.311 C 11.911 0.518 12 0.771 12 1.068 L 12 0.95 C 12 1.248 11.911 1.5 11.733 1.708 C 11.555 1.915 11.338 2.019 11.082 2.019 L 0.918 2.019 C 0.662 2.019 0.445 1.915 0.267 1.708 C 0.089 1.5 0 1.248 0 0.95 L 0 1.068 C 0 0.771 0.089 0.518 0.267 0.311 C 0.445 0.104 0.662 0 0.918 0 L 11.082 0 Z M 11.082 4.991 C 11.338 4.991 11.555 5.094 11.733 5.302 C 11.911 5.509 12 5.761 12 6.059 L 12 5.941 C 12 6.239 11.911 6.491 11.733 6.698 C 11.555 6.906 11.338 7.009 11.082 7.009 L 0.918 7.009 C 0.662 7.009 0.445 6.906 0.267 6.698 C 0.089 6.491 0 6.239 0 5.941 L 0 6.059 C 0 5.761 0.089 5.509 0.267 5.302 C 0.445 5.094 0.662 4.991 0.918 4.991 L 11.082 4.991 Z M 11.082 9.981 C 11.338 9.981 11.555 10.085 11.733 10.292 C 11.911 10.5 12 10.752 12 11.05 L 12 10.932 C 12 11.229 11.911 11.482 11.733 11.689 C 11.555 11.896 11.338 12 11.082 12 L 0.918 12 C 0.662 12 0.445 11.896 0.267 11.689 C 0.089 11.482 0 11.229 0 10.932 L 0 11.05 C 0 10.752 0.089 10.5 0.267 10.292 C 0.445 10.085 0.662 9.981 0.918 9.981 L 11.082 9.981 Z" fill="currentColor" fill-rule="nonzero"></path>
</svg>