<svg xmlns="http://www.w3.org/2000/svg" width="24" height="24" viewBox="0 0 24 24" fill="none">
  <path d="M 12 0 C 18.627 0 24 5.373 24 12 C 24 18.627 18.627 24 12 24 C 5.373 24 0 18.627 0 12 C 0 5.373 5.373 0 12 0 Z M 12 1.636 C 6.277 1.636 1.636 6.277 1.636 12 C 1.636 17.723 6.277 22.364 12 22.364 C 17.723 22.364 22.364 17.723 22.364 12 C 22.364 6.277 17.723 1.636 12 1.636 Z M 16.636 16.909 C 16.853 16.909 17.061 16.995 17.215 17.149 C 17.368 17.302 17.455 17.51 17.455 17.727 C 17.455 17.944 17.368 18.152 17.215 18.306 C 17.061 18.459 16.853 18.545 16.636 18.545 L 7.364 18.545 C 7.147 18.545 6.939 18.459 6.785 18.306 C 6.632 18.152 6.545 17.944 6.545 17.727 C 6.545 17.51 6.632 17.302 6.785 17.149 C 6.939 16.995 7.147 16.909 7.364 16.909 L 16.636 16.909 Z M 7.091 11.455 C 7.525 11.455 7.941 11.627 8.248 11.934 C 8.555 12.241 8.727 12.657 8.727 13.091 C 8.727 13.525 8.555 13.941 8.248 14.248 C 7.941 14.555 7.525 14.727 7.091 14.727 C 6.657 14.727 6.241 14.555 5.934 14.248 C 5.627 13.941 5.455 13.525 5.455 13.091 C 5.455 12.657 5.627 12.241 5.934 11.934 C 6.241 11.627 6.657 11.455 7.091 11.455 Z M 12 11.455 C 12.434 11.455 12.85 11.627 13.157 11.934 C 13.464 12.241 13.636 12.657 13.636 13.091 C 13.636 13.525 13.464 13.941 13.157 14.248 C 12.85 14.555 12.434 14.727 12 14.727 C 11.566 14.727 11.15 14.555 10.843 14.248 C 10.536 13.941 10.364 13.525 10.364 13.091 C 10.364 12.657 10.536 12.241 10.843 11.934 C 11.15 11.627 11.566 11.455 12 11.455 Z M 16.909 11.455 C 17.343 11.455 17.759 11.627 18.066 11.934 C 18.373 12.241 18.545 12.657 18.545 13.091 C 18.545 13.525 18.373 13.941 18.066 14.248 C 17.759 14.555 17.343 14.727 16.909 14.727 C 16.475 14.727 16.059 14.555 15.752 14.248 C 15.445 13.941 15.273 13.525 15.273 13.091 C 15.273 12.657 15.445 12.241 15.752 11.934 C 16.059 11.627 16.475 11.455 16.909 11.455 Z M 7.091 6.545 C 7.525 6.545 7.941 6.718 8.248 7.025 C 8.555 7.332 8.727 7.748 8.727 8.182 C 8.727 8.616 8.555 9.032 8.248 9.339 C 7.941 9.646 7.525 9.818 7.091 9.818 C 6.657 9.818 6.241 9.646 5.934 9.339 C 5.627 9.032 5.455 8.616 5.455 8.182 C 5.455 7.748 5.627 7.332 5.934 7.025 C 6.241 6.718 6.657 6.545 7.091 6.545 Z M 12 6.545 C 12.434 6.545 12.85 6.718 13.157 7.025 C 13.464 7.332 13.636 7.748 13.636 8.182 C 13.636 8.616 13.464 9.032 13.157 9.339 C 12.85 9.646 12.434 9.818 12 9.818 C 11.566 9.818 11.15 9.646 10.843 9.339 C 10.536 9.032 10.364 8.616 10.364 8.182 C 10.364 7.748 10.536 7.332 10.843 7.025 C 11.15 6.718 11.566 6.545 12 6.545 Z M 16.909 6.545 C 17.343 6.545 17.759 6.718 18.066 7.025 C 18.373 7.332 18.545 7.748 18.545 8.182 C 18.545 8.616 18.373 9.032 18.066 9.339 C 17.759 9.646 17.343 9.818 16.909 9.818 C 16.475 9.818 16.059 9.646 15.752 9.339 C 15.445 9.032 15.273 8.616 15.273 8.182 C 15.273 7.748 15.445 7.332 15.752 7.025 C 16.059 6.718 16.475 6.545 16.909 6.545 Z" fill="currentColor" fill-rule="nonzero"></path>
</svg>