<?xml version="1.0" standalone="no"?><!DOCTYPE svg PUBLIC "-//W3C//DTD SVG 1.1//EN" "http://www.w3.org/Graphics/SVG/1.1/DTD/svg11.dtd"><svg t="1778484768362" class="icon" viewBox="0 0 1024 1024" version="1.1" xmlns="http://www.w3.org/2000/svg" p-id="37513" xmlns:xlink="http://www.w3.org/1999/xlink" width="200" height="200"><path d="M305.729829 356.397105c0-56.803962-46.055619-102.8352-102.890058-102.8352S99.949714 299.593143 99.949714 356.397105c0 56.805181 46.055619 102.836419 102.890057 102.836419 56.834438 0.488838 102.890057-46.031238 102.890058-102.836419z m618.809295 0c0-56.803962-46.0544-102.8352-102.888838-102.8352-56.834438 0-102.890057 46.031238-102.890057 102.8352 0 56.805181 46.055619 102.836419 102.890057 102.836419 56.834438 0.488838 102.888838-46.031238 102.888838-102.836419zM70.063543 515.547429C31.357562 515.547429 0 546.887924 0 585.573181V771.657143h198.430476V592.429105l-44.585447-76.881676H70.063543z m884.362971 0h-84.271543l-44.585447 76.881676V771.657143H1024V585.573181c0-38.685257-31.357562-70.025752-69.573486-70.025752z" fill="#007AFF" fill-opacity=".65" p-id="37514"></path><path d="M513.083733 412.267276c68.598248 0 124.457448-55.8592 124.457448-124.457447 0-68.598248-55.8592-124.457448-124.457448-124.457448-68.598248 0-124.457448 55.8592-124.457447 124.457448 0 68.598248 55.8592 124.457448 124.457447 124.457447z m178.356419 89.667048h-113.187352l-65.169067 112.697295-65.169066-112.697295h-113.187353c-51.938743 0-94.077562 42.138819-94.077562 94.078781v263.612952h544.377905V595.523048c0.490057-51.939962-41.648762-93.588724-93.587505-93.588724z" fill="#007AFF" p-id="37515"></path></svg>