<?xml version="1.0" standalone="no"?><!DOCTYPE svg PUBLIC "-//W3C//DTD SVG 1.1//EN" "http://www.w3.org/Graphics/SVG/1.1/DTD/svg11.dtd"><svg t="1778484808413" class="icon" viewBox="0 0 1024 1024" version="1.1" xmlns="http://www.w3.org/2000/svg" p-id="37995" xmlns:xlink="http://www.w3.org/1999/xlink" width="200" height="200"><path d="M709.485714 157.257143h275.692496a39.38621 39.38621 0 0 1 39.38499 39.38499v748.307505a78.768762 78.768762 0 0 1-78.769981 78.768762H709.485714V157.257143z" fill="#FFFFFF" p-id="37996"></path><path d="M709.485714 157.257143h275.692496a39.38621 39.38621 0 0 1 39.38499 39.38499v748.307505a78.768762 78.768762 0 0 1-78.769981 78.768762H709.485714V157.257143z" fill="#FFCC00" fill-opacity=".65" p-id="37997"></path><path d="M0 984.61501A39.383771 39.383771 0 0 0 39.38499 1024h905.846248a78.7712 78.7712 0 0 1-78.769981-78.768762V39.38499A39.38499 39.38499 0 0 0 827.076267 0H39.38499A39.38499 39.38499 0 0 0 0 39.38499v945.23002z" fill="#FFCC00" p-id="37998"></path><path d="M196.934705 275.69981a39.383771 39.383771 0 1 0 0 78.76998h157.538743a39.38621 39.38621 0 0 0 0-78.76998H196.934705z m0 236.307504a39.383771 39.383771 0 1 0 0 78.769981H669.549714a39.383771 39.383771 0 1 0 0-78.769981H196.934705z m0 236.307505a39.383771 39.383771 0 1 0 0 78.769981h236.307505a39.383771 39.383771 0 1 0 0-78.769981H196.934705z" fill="#FFFFFF" p-id="37999"></path></svg>