<?xml version="1.0" standalone="no"?><!DOCTYPE svg PUBLIC "-//W3C//DTD SVG 1.1//EN" "http://www.w3.org/Graphics/SVG/1.1/DTD/svg11.dtd"><svg t="1778666595177" class="icon" viewBox="0 0 1024 1024" version="1.1" xmlns="http://www.w3.org/2000/svg" p-id="20956" xmlns:xlink="http://www.w3.org/1999/xlink" width="200" height="200"><path d="M255.1296 327.68c90.409448 0 163.69981-73.353752 163.69981-163.84S345.539048 0 255.1296 0C164.720152 0 91.428571 73.353752 91.428571 163.84s73.291581 163.84 163.701029 163.84zM213.333333 409.6c-67.325562 0-121.904762 54.5792-121.904762 121.904762v492.495238h327.400839V707.295086l91.111619 52.647009c17.488457 10.105905 39.84579 4.115505 49.938285-13.380266l2.18941-3.794896 61.386362-35.471847V1024H950.857143V531.504762c0-67.325562-54.5792-121.904762-121.904762-121.904762h-83.592533c-67.325562 0-121.904762 54.5792-121.904762 121.904762v82.895238L521.142857 673.520152 418.830629 614.4l-0.001219-82.895238c0-67.325562-54.577981-121.904762-121.904762-121.904762H213.333333zM787.156114 327.68c-90.409448 0-163.69981-73.353752-163.699809-163.84S696.746667 0 787.156114 0C877.565562 0 950.857143 73.353752 950.857143 163.84s-73.291581 163.84-163.701029 163.84z" fill="#333333" p-id="20957"></path></svg>