<?xml version="1.0" standalone="no"?><!DOCTYPE svg PUBLIC "-//W3C//DTD SVG 1.1//EN" "http://www.w3.org/Graphics/SVG/1.1/DTD/svg11.dtd"><svg t="1778484786982" class="icon" viewBox="0 0 1024 1024" version="1.1" xmlns="http://www.w3.org/2000/svg" p-id="37672" xmlns:xlink="http://www.w3.org/1999/xlink" width="200" height="200"><path d="M417.170431 767.982952c0-129.415907 77.610779-241.023001 190.273553-294.823681 15.501188-20.873455 29.745557-46.562079 32.398167-69.151928 13.442246-0.943529 34.564383-12.861988 40.743647-59.7593 3.351114-25.216859-9.949725-39.391743-17.980696-43.835108 0 0 20.040857-36.697686 20.040857-80.970427 0-88.779534-36.134494-164.565424-113.780624-164.565424 0 0-26.952758-54.877084-113.814758-54.877084-160.842506 0-227.525898 99.520409-227.525898 219.442508 0 40.4011 20.040857 80.970426 20.040857 80.970427-8.030971 4.477498-21.297677 18.685295-17.980696 43.835108 6.214616 46.897312 27.301401 58.782857 40.708296 59.7593 5.167469 43.833889 53.93965 99.856862 71.012168 108.00364v73.125967C303.389806 694.858204 0 621.699324 0 877.738339h436.966263c-13.058252-35.214126-19.765356-72.323845-19.831184-109.721254l0.035352-0.034133z" fill="#8DADF9" p-id="37673"></path><path d="M757.963742 511.992698c-70.408748 0-137.933271 26.972263-187.719684 74.98255C520.457644 634.985534 492.488214 700.101253 492.488214 767.998799c0 50.632421 15.569454 100.128705 44.740848 142.229134 29.170174 42.099209 70.631831 74.911846 119.14192 94.288331 48.50887 19.376486 101.886547 24.446432 153.384479 14.56863 51.496713-9.877802 98.799962-34.259626 135.926747-70.063762 37.128004-35.802918 62.41191-81.41781 72.655421-131.078664 10.243511-49.659635 4.985834-101.134405-15.107442-147.913472-20.093275-46.779066-54.120066-86.76082-97.777196-114.891161C861.795862 527.007493 810.469813 511.992698 757.963742 511.992698z m113.779406 292.601389h-75.865127v73.125966c0 9.701043-3.995981 19.0059-11.110242 25.865384-7.113041 6.859483-16.761666 10.714057-26.822322 10.714057-10.059437 0-19.708062-3.854574-26.822322-10.714057-7.113041-6.859483-11.110242-16.164341-11.110242-25.865384v-73.125966h-75.829776a39.208888 39.208888 0 0 1-14.872168-2.458784 38.154427 38.154427 0 0 1-12.703514-7.852993 36.595288 36.595288 0 0 1-8.524679-12.006229 35.471342 35.471342 0 0 1-3.000033-14.261434c0-4.899283 1.020328-9.748585 3.000033-14.260216a36.595288 36.595288 0 0 1 8.524679-12.006229 38.154427 38.154427 0 0 1 12.703514-7.852993 39.233269 39.233269 0 0 1 14.872168-2.460003h75.829776v-73.124747c0-9.701043 3.9972-19.0059 11.110242-25.865384 7.11426-6.860702 16.762885-10.714057 26.822322-10.714056 10.060657 0 19.709281 3.853355 26.822322 10.714056 7.11426 6.859483 11.110242 16.164341 11.110242 25.865384v73.124747h75.865127c9.861955 0.28891 19.218012 4.269044 26.088466 11.098052 6.869235 6.827788 10.7104 15.968077 10.7104 25.481389 0 9.514531-3.841164 18.653601-10.7104 25.482608-6.870454 6.829007-16.226511 10.809141-26.088466 11.096832z" fill="#5276E4" p-id="37674"></path></svg>