<?xml version="1.0" standalone="no"?><!DOCTYPE svg PUBLIC "-//W3C//DTD SVG 1.1//EN" "http://www.w3.org/Graphics/SVG/1.1/DTD/svg11.dtd"><svg t="1778484798018" class="icon" viewBox="0 0 1024 1024" version="1.1" xmlns="http://www.w3.org/2000/svg" p-id="37831" xmlns:xlink="http://www.w3.org/1999/xlink" width="200" height="200"><path d="M1019.734538 170.771118L842.952335 877.932846C817.620586 978.72468 731.385365 1024 655.930156 1024h-1.077636c-75.995246-0.538818-162.769285-46.892992-186.483361-148.762461l-46.351736-196.733089L711.98305 388.525414c21.019988-21.021207 21.019988-55.516514 0-76.537721-21.019988-21.019988-55.514076-21.019988-76.534064 0L345.48336 601.966729 148.760023 555.613774C46.89543 531.898479 0.543694 445.119563 0.004876 369.660697-0.533942 293.661794 44.73894 206.345281 146.065934 181.012313L853.19231 4.222795c46.890554-11.858867 95.936379 1.616453 130.430467 36.111761 34.494088 34.496527 47.968189 83.54479 36.111761 130.436562z" fill="#ACA3FF" p-id="37832"></path><path d="M984.577289 41.431696l-0.916721-1.023997c34.494088 34.495308 47.968189 83.543571 36.110542 130.436562l-72.221084 288.630773-462.273936 462.458011a202.702751 202.702751 0 0 1-16.870359-46.623583l-46.350517-196.733088L712.02084 388.597338c20.695722-20.696941 21.018769-54.43766 0.969141-75.512505L984.577289 41.431696z" fill="#FFFFFF" p-id="37833"></path><path d="M984.577289 41.431696l-0.916721-1.023997c34.494088 34.495308 47.968189 83.543571 36.110542 130.436562l-72.221084 288.630773-462.273936 462.458011a202.702751 202.702751 0 0 1-16.870359-46.623583l-46.350517-196.733088L712.02084 388.597338c20.695722-20.696941 21.018769-54.43766 0.969141-75.512505L984.577289 41.431696z" fill="#ACA3FF" fill-opacity=".85" p-id="37834"></path><path d="M983.591082 40.389413l0.969141 0.96914-271.639728 271.654357a54.19507 54.19507 0 0 0-38.509622-16.785027 54.203603 54.203603 0 0 0-38.939944 15.75981L345.505302 601.966729l-196.723336-46.352955a203.732843 203.732843 0 0 1-43.980694-15.576953L569.715659 75.100491 853.214253 4.222795c46.890554-11.858867 95.936379 1.616453 130.430467 36.111761l-0.053638 0.054857z" fill="#FFFFFF" p-id="37835"></path><path d="M983.591082 40.389413l0.969141 0.96914-271.639728 271.654357a54.19507 54.19507 0 0 0-38.509622-16.785027 54.203603 54.203603 0 0 0-38.939944 15.75981L345.505302 601.966729l-196.723336-46.352955a203.732843 203.732843 0 0 1-43.980694-15.576953L569.715659 75.100491 853.214253 4.222795c46.890554-11.858867 95.936379 1.616453 130.430467 36.111761l-0.053638 0.054857z" fill="#ACA3FF" fill-opacity=".65" p-id="37836"></path><path d="M569.694935 75.206548L104.834186 540.08924C33.421329 504.947839 0.490056 433.369192 0.004876 369.767973-0.533942 293.76907 44.73894 206.452556 146.065934 181.119589l423.575363-105.913041h0.053638z" fill="#FFFFFF" p-id="37837"></path><path d="M569.694935 75.206548L104.834186 540.08924C33.421329 504.947839 0.490056 433.369192 0.004876 369.767973-0.533942 293.76907 44.73894 206.452556 146.065934 181.119589l423.575363-105.913041h0.053638z" fill="#ACA3FF" fill-opacity=".45" p-id="37838"></path></svg>