<?xml version="1.0" standalone="no"?><!DOCTYPE svg PUBLIC "-//W3C//DTD SVG 1.1//EN" "http://www.w3.org/Graphics/SVG/1.1/DTD/svg11.dtd"><svg t="1778565561162" class="icon" viewBox="0 0 1024 1024" version="1.1" xmlns="http://www.w3.org/2000/svg" p-id="20928" xmlns:xlink="http://www.w3.org/1999/xlink" width="200" height="200"><path d="M187.733333 0c-43.088457 0-78.019048 34.93059-78.019047 78.019048v246.471923C48.488838 328.267581 0 379.118933 0 441.295238v465.676191c0 64.632686 52.394667 117.028571 117.028571 117.028571h789.942858c64.632686 0 117.028571-52.395886 117.028571-117.028571V441.295238c0-62.176305-48.488838-113.027657-109.714286-116.804267V78.019048c0-43.088457-34.93059-78.019048-78.019047-78.019048H187.733333z m-14.628571 117.028571c0-21.544229 17.465295-39.009524 39.009524-39.009523h599.771428c21.544229 0 39.009524 17.465295 39.009524 39.009523v305.893181a39.009524 39.009524 0 0 1-11.156724 27.312762l-299.885714 305.818819c-15.294171 15.596495-40.411429 15.596495-55.7056 0l-299.885714-305.818819A39.009524 39.009524 0 0 1 173.104762 422.921752V117.028571z m437.870933 266.112c0.558324-0.554667 1.06179-1.141029 1.516495-1.75299v-0.001219C626.397867 368.7168 635.12381 350.455467 635.12381 330.158324 635.12381 291.894857 604.116114 260.87619 565.867276 260.87619c-21.758781 0-41.169676 10.0352-53.867276 25.730439C499.3024 270.91139 479.891505 260.87619 458.132724 260.87619 419.883886 260.87619 388.87619 291.894857 388.87619 330.158324c0 20.662857 9.041676 39.215543 23.389867 51.910705 0.507124 0.714362 1.073981 1.384838 1.694476 2.002895l87.160686 86.864457a15.4112 15.4112 0 0 0 10.881219 4.49219c4.081371 0 7.995733-1.615238 10.882438-4.49219l88.090819-87.79581z" p-id="20929"></path></svg>