<svg width="30" height="30" viewBox="0 0 30 30" fill="none" xmlns="http://www.w3.org/2000/svg">
<path d="M27.2706 6.30454H23.1798V3.65225C23.1798 2.19368 21.9526 1 20.4537 1H9.54286C8.04404 1 6.81679 2.19368 6.81679 3.65225V6.30454H2.72607C1.22718 6.30454 0 7.49821 0 8.95679V12.9369H30V8.95679C29.9966 7.49821 28.7728 6.30454 27.2706 6.30454ZM20.4538 6.30454H9.54286V4.30946C9.54286 3.91046 9.81782 3.64221 10.2269 3.64221H19.7698C20.1788 3.64221 20.4538 3.91043 20.4538 4.30946V6.30454ZM19.7698 16.253C19.7698 15.9915 19.7697 15.854 19.6356 15.5925H30V26.2049C30 27.6635 28.7728 28.8571 27.2739 28.8571H2.72607C1.22718 28.8571 0 27.6635 0 26.2049V15.5891H10.3577C10.2235 15.8574 10.2235 15.9881 10.2235 16.2564C10.2235 18.7779 12.4064 20.9003 14.9983 20.9003C17.5869 20.897 19.7698 18.7745 19.7698 16.253ZM17.0437 16.253C17.0437 17.3159 16.0914 18.2447 15.0017 18.2447C13.9086 18.2447 12.9529 17.3126 12.9529 16.253C12.9529 15.9848 12.9529 15.854 13.0871 15.5858H16.9096C17.0437 15.854 17.0437 15.9848 17.0437 16.253H17.0437Z" fill="#333333"/>
</svg>
