<svg width="30" height="30" viewBox="0 0 30 30" fill="none" xmlns="http://www.w3.org/2000/svg">
<g clip-path="url(#clip0_2565_106)">
<path d="M21.73 30H8.26324C6.34247 30.0024 4.78519 28.4444 4.78284 26.5251V13.9228C4.78987 12.0035 6.34479 10.4478 8.26324 10.4408H11.9427C10.8498 10.4408 19.7974 10.4431 21.7182 10.4408C23.639 10.4384 25.1963 11.9964 25.1987 13.9157V26.5133C25.208 28.428 23.6625 29.9883 21.7487 29.9977C21.7417 30 21.737 30 21.73 30Z" fill="#F7981D"/>
<path d="M20.2203 12.8848H9.76122C8.55043 12.8848 7.56683 11.9113 7.56683 10.7076C7.56683 9.50397 8.54811 8.5304 9.76122 8.5304H20.2203C21.4311 8.5304 22.4147 9.50397 22.4147 10.7076C22.4147 11.9113 21.4311 12.8848 20.2203 12.8848ZM11.9662 24.9737C11.9827 24.9933 12.0001 25.0122 12.0183 25.0303L12.0277 25.0397C12.1782 25.1866 12.3806 25.268 12.5908 25.2662C12.6964 25.2664 12.801 25.2456 12.8986 25.2052C12.9961 25.1647 13.0847 25.1052 13.1591 25.0303L13.1513 25.0287L21.0878 17.1253C21.3818 16.8159 21.3818 16.3306 21.0878 16.0212C20.7796 15.7 20.2716 15.6883 19.9494 15.993L12.5899 23.3283L10.0333 20.7801C9.71107 20.4753 9.20067 20.487 8.8949 20.8082C8.58916 21.1294 8.6009 21.6381 8.92313 21.9428L11.9662 24.9737Z" fill="#FFCC00"/>
<path d="M25.2808 5.19139e-07C25.1763 -4.17112e-06 25.0729 0.0205671 24.9764 0.0605397C24.8799 0.100512 24.7922 0.159103 24.7183 0.232967C24.6444 0.306831 24.5859 0.394521 24.5459 0.491029C24.5059 0.587538 24.4853 0.690975 24.4853 0.795434V1.98855H23.2922C23.1349 1.98857 22.9811 2.03523 22.8503 2.12263C22.7196 2.21004 22.6176 2.33426 22.5574 2.47959C22.4972 2.62493 22.4814 2.78485 22.5121 2.93914C22.5428 3.09343 22.6185 3.23516 22.7298 3.34642C22.8789 3.49559 23.0813 3.57941 23.2922 3.57941H24.4853V4.77253C24.4854 4.92983 24.532 5.08359 24.6195 5.21438C24.7069 5.34516 24.8311 5.4471 24.9764 5.5073C25.1217 5.5675 25.2817 5.58326 25.4359 5.55259C25.5902 5.52192 25.7319 5.4462 25.8432 5.335C25.9924 5.18581 26.0762 4.98349 26.0762 4.77253V3.57941H27.2693C27.4266 3.57938 27.5804 3.53271 27.7112 3.4453C27.842 3.35789 27.9439 3.23368 28.0041 3.08835C28.0643 2.94302 28.08 2.7831 28.0494 2.62882C28.0187 2.47453 27.943 2.3328 27.8318 2.22155C27.6826 2.07241 27.4803 1.9886 27.2693 1.98855H26.0762V0.795434C26.0762 0.690973 26.0556 0.587534 26.0157 0.491024C25.9757 0.394513 25.9171 0.306821 25.8433 0.232957C25.7694 0.159092 25.6817 0.100501 25.5852 0.0605302C25.4887 0.0205592 25.3852 -8.85443e-06 25.2808 5.19139e-07ZM2.24883 2.99813C2.07844 2.99813 1.91503 3.06582 1.79454 3.1863C1.67406 3.30679 1.60637 3.4702 1.60637 3.64059V4.60428H0.642686C0.515604 4.60424 0.391367 4.6419 0.285692 4.71249C0.180017 4.78308 0.0976537 4.88342 0.0490214 5.00083C0.00038902 5.11824 -0.0123268 5.24743 0.0124827 5.37207C0.0372923 5.49671 0.0985122 5.61119 0.188397 5.70102C0.248053 5.76068 0.318877 5.80801 0.396825 5.84029C0.474772 5.87258 0.558317 5.8892 0.642686 5.88919H1.60637V6.85288C1.60636 6.93725 1.62297 7.02079 1.65526 7.09875C1.68754 7.1767 1.73486 7.24752 1.79452 7.30718C1.85418 7.36684 1.92501 7.41417 2.00296 7.44645C2.08091 7.47873 2.16446 7.49534 2.24883 7.49533C2.41921 7.4953 2.58261 7.42762 2.70312 7.30716C2.82359 7.18667 2.89127 7.02326 2.89129 6.85288V5.88919H3.85497C4.02535 5.88915 4.18875 5.82147 4.30926 5.70102C4.39907 5.61115 4.46023 5.49668 4.48501 5.37206C4.5098 5.24745 4.49711 5.11829 4.44853 5.00089C4.41623 4.92294 4.36891 4.85212 4.30926 4.79244C4.18875 4.67199 4.02535 4.60431 3.85497 4.60428H2.89129V3.64059C2.89129 3.4702 2.8236 3.30679 2.70311 3.1863C2.58263 3.06582 2.41922 2.99813 2.24883 2.99813ZM2.77886 11.0235C2.88371 10.9186 2.95513 10.7851 2.98407 10.6397C3.013 10.4943 2.99817 10.3435 2.94143 10.2066C2.88469 10.0696 2.7886 9.95254 2.66531 9.87018C2.54203 9.78783 2.39709 9.7439 2.24883 9.74393C2.15039 9.74392 2.05292 9.7633 1.96198 9.80096C1.87103 9.83862 1.7884 9.89383 1.7188 9.96344C1.64919 10.033 1.59398 10.1157 1.55632 10.2066C1.51866 10.2976 1.49928 10.395 1.4993 10.4935C1.49926 10.6417 1.5432 10.7867 1.62555 10.91C1.70791 11.0332 1.82498 11.1293 1.96196 11.1861C2.09894 11.2428 2.24967 11.2576 2.39508 11.2287C2.54049 11.1998 2.67405 11.1283 2.77886 11.0235ZM28.9758 9.24424C28.9758 9.5093 28.8705 9.76349 28.683 9.95091C28.4956 10.1383 28.2414 10.2436 27.9764 10.2436C27.7113 10.2436 27.4571 10.1383 27.2697 9.95091C27.0823 9.76349 26.977 9.5093 26.977 9.24424C26.977 8.97919 27.0823 8.725 27.2697 8.53758C27.4571 8.35016 27.7113 8.24487 27.9764 8.24487C28.2414 8.24487 28.4956 8.35016 28.683 8.53758C28.8705 8.725 28.9758 8.97919 28.9758 9.24424ZM9.19518 1.70605C9.3826 1.51863 9.48789 1.26443 9.48789 0.999378C9.48789 0.734327 9.3826 0.480131 9.19518 0.292711C9.00776 0.105291 8.75357 -2.74711e-09 8.48851 0C8.22346 2.74712e-09 7.96927 0.105291 7.78185 0.292711C7.68905 0.385512 7.61543 0.495683 7.56521 0.616933C7.51499 0.738183 7.48914 0.868138 7.48914 0.999378C7.48914 1.26443 7.59443 1.51863 7.78185 1.70605C7.96927 1.89347 8.22346 1.99876 8.48851 1.99876C8.75357 1.99876 9.00776 1.89347 9.19518 1.70605Z" fill="#F7981D"/>
</g>
<defs>
<clipPath id="clip0_2565_106">
<rect width="30" height="30" fill="white"/>
</clipPath>
</defs>
</svg>
