<svg width="30" height="30" viewBox="0 0 30 30" fill="none" xmlns="http://www.w3.org/2000/svg">
<g clip-path="url(#clip0_45_31)">
<path d="M15.8863 0.733599C16.2773 1.15625 16.4945 1.71095 16.4945 2.28685V27.7134C16.4945 28.9763 15.4711 30.0001 14.2088 30.0001C13.6329 30.0001 13.0782 29.7826 12.6556 29.3911L4.12364 21.4856H2.28571C1.02336 21.4856 0 20.4618 0 19.1989V10.7959C0 9.53296 1.02336 8.50916 2.28571 8.50916H4.12364L12.6562 0.60858C13.5827 -0.249222 15.0288 -0.193269 15.8863 0.733634V0.733599ZM25.4165 2.84784C28.3502 6.17393 30 10.4637 30 15.0092C30 19.5421 28.3594 23.8208 25.4404 27.1433C25.0217 27.6199 24.2997 27.6636 23.8276 27.2409C23.3556 26.8182 23.3123 26.0891 23.731 25.6126C26.2827 22.7081 27.715 18.9725 27.715 15.0092C27.715 11.0349 26.2747 7.28963 23.71 4.38208C23.2904 3.90634 23.3322 3.1772 23.8035 2.75355C24.2747 2.3299 24.9968 2.3721 25.4165 2.84788V2.84784ZM21.8461 7.23975C23.575 9.34252 24.5381 11.9858 24.5381 14.7755C24.5381 17.7819 23.4189 20.6148 21.4399 22.7798C21.0119 23.248 20.2891 23.2772 19.8255 22.8452C19.3617 22.4131 19.3328 21.6834 19.7607 21.2152C21.354 19.4723 22.2531 17.1963 22.2531 14.7755C22.2531 12.529 21.4795 10.4057 20.088 8.71325C19.685 8.22304 19.7518 7.49586 20.2373 7.08897C20.7228 6.68208 21.4431 6.74957 21.8461 7.23975Z" fill="#333333"/>
</g>
<defs>
<clipPath id="clip0_45_31">
<rect width="30" height="30" fill="white"/>
</clipPath>
</defs>
</svg>
