<svg width="30" height="30" viewBox="0 0 30 30" fill="none" xmlns="http://www.w3.org/2000/svg">
<path d="M10 0C11.2624 0 12.2857 1.02336 12.2857 2.28571V27.7143C12.2857 28.9766 11.2624 30 10 30H6.7143C5.45195 30 4.42859 28.9766 4.42859 27.7143V2.28571C4.42859 1.02336 5.45195 0 6.7143 0H10ZM23.2857 0C24.5481 0 25.5714 1.02336 25.5714 2.28571V27.7143C25.5714 28.9766 24.5481 30 23.2857 30H20C18.7377 30 17.7143 28.9766 17.7143 27.7143V2.28571C17.7143 1.02336 18.7377 0 20 0H23.2857Z" fill="black"/>
</svg>
