<svg width="30" height="30" viewBox="0 0 30 30" fill="none" xmlns="http://www.w3.org/2000/svg">
<g clip-path="url(#clip0_45_20)">
<path d="M29.0131 13.4673C29.9985 14.0304 30.2964 15.2107 29.6766 16.1095C29.5097 16.3513 29.2833 16.557 29.0131 16.7123L16.1284 24.0648C15.441 24.4546 14.5709 24.4546 13.8876 24.0648L0.98696 16.6979C0.00160364 16.1348 -0.29636 14.9545 0.323461 14.0557C0.490318 13.8139 0.716782 13.6081 0.98696 13.4529C1.13339 13.3694 1.29908 13.3254 1.46767 13.3255C1.63626 13.3255 1.80193 13.3695 1.94832 13.4531L13.8836 20.2712C14.5709 20.661 15.441 20.661 16.1244 20.2712L27.8572 13.5815L28.0526 13.4691C28.1987 13.385 28.3641 13.3407 28.5326 13.3404C28.7011 13.3401 28.8668 13.3838 29.0131 13.4673ZM29.0131 19.1102C29.9985 19.6733 30.2964 20.8536 29.6766 21.7523C29.5097 21.9942 29.2833 22.1999 29.0131 22.3551L16.1284 29.7076C15.441 30.0975 14.5709 30.0975 13.8876 29.7076L0.98696 22.3407C0.00160364 21.7776 -0.29636 20.5973 0.323461 19.6986C0.490318 19.4568 0.716782 19.251 0.98696 19.0958C1.1334 19.0122 1.29909 18.9683 1.46769 18.9683C1.63629 18.9683 1.80197 19.0123 1.94839 19.0959L13.8836 25.9105C14.5709 26.3003 15.441 26.3003 16.1244 25.9105L28.0143 19.0957L28.0376 19.084C28.1898 19.0077 28.3584 18.9701 28.5286 18.9747C28.6988 18.9792 28.8652 19.0258 29.0131 19.1101L29.0131 19.1102ZM16.1147 0.299902L29.013 7.67426C29.9985 8.2379 30.2965 9.4194 29.6766 10.3191C29.5097 10.5611 29.2832 10.7671 29.013 10.9225L16.1305 18.2788C15.4431 18.669 14.5729 18.669 13.8895 18.2788L0.987032 10.9008C0.0016037 10.3371 -0.296432 9.15565 0.323461 8.25597C0.490354 8.0139 0.716853 7.80797 0.987032 7.65258L13.8775 0.292687C14.565 -0.0975625 15.4352 -0.0975625 16.1186 0.292687L16.1147 0.299902Z" fill="#333333"/>
</g>
<defs>
<clipPath id="clip0_45_20">
<rect width="30" height="30" fill="white"/>
</clipPath>
</defs>
</svg>
