<svg width="30" height="30" viewBox="0 0 30 30" fill="none" xmlns="http://www.w3.org/2000/svg">
<path d="M27.1255 11.5H16.4389V19.594H14.0645V11.5H3.37442C2.06143 11.5 1 12.537 1 13.8121V27.6879C1 28.9664 2.06486 30 3.37439 30H27.1255C28.4385 30 29.4999 28.9631 29.4999 27.6879V13.8121C29.4999 12.537 28.4385 11.5 27.1255 11.5ZM10.2292 6.46426L13.7903 3.61098V10.3487C13.7903 10.9828 14.3284 11.5 14.9959 11.5C15.6599 11.5 16.2016 10.9861 16.2016 10.3487V3.63434L19.7382 6.47429C20.2485 6.88144 21.0068 6.81804 21.4332 6.33412C21.8595 5.8469 21.7931 5.12273 21.2864 4.71226L15.7508 0.277164C15.3594 -0.0131573 14.9925 9.26993e-05 14.9925 9.26993e-05C14.9925 9.26993e-05 14.5731 -0.00315708 14.2166 0.267164L8.68106 4.70226C8.17081 5.1094 8.10441 5.8369 8.53077 6.32412C8.96059 6.81133 9.71895 6.87476 10.2292 6.46426Z" fill="#333333"/>
</svg>
