<svg width="30" height="30" viewBox="0 0 30 30" fill="none" xmlns="http://www.w3.org/2000/svg">
<g clip-path="url(#clip0_45_58)">
<path fill-rule="evenodd" clip-rule="evenodd" d="M21.7831 21.7976C22.62 20.9608 23.9768 20.9608 24.8136 21.7976L29.3579 26.3419C30.1948 27.1787 30.1948 28.5355 29.3579 29.3724C28.5211 30.2092 27.1643 30.2092 26.3275 29.3724L21.7832 24.828C20.9463 23.9912 20.9463 22.6344 21.7832 21.7976H21.7831ZM26.2856 0C28.3164 0 29.9666 1.62957 29.9994 3.6522L29.9999 3.71363V8.56845L29.9999 8.5714C29.9999 8.87451 29.8795 9.16519 29.6652 9.37952C29.4508 9.59385 29.1601 9.71425 28.857 9.71425C28.5539 9.71425 28.2632 9.59385 28.0489 9.37952C27.8346 9.16519 27.7142 8.87451 27.7142 8.5714L27.7142 8.56986V3.71363C27.7142 2.93267 27.0873 2.2981 26.3092 2.28549L26.2856 2.28531H3.71427C2.9332 2.28531 2.29853 2.91206 2.28588 3.68999L2.28571 3.71363V26.281C2.28571 27.0619 2.91256 27.6965 3.69066 27.7091L3.71427 27.7093L8.57139 27.7092L8.5714 27.7142C8.87451 27.7142 9.16519 27.8346 9.37952 28.0489C9.59385 28.2632 9.71425 28.5539 9.71425 28.857C9.71425 29.1601 9.59385 29.4508 9.37952 29.6651C9.16519 29.8795 8.87451 29.9999 8.5714 29.9999C8.53447 29.9999 8.49772 29.9981 8.46127 29.9946H3.71427C1.68346 29.9946 0.0332855 28.365 0.000499911 26.3424L0 26.281V3.71366C0 1.68317 1.62985 0.0333213 3.65284 0.000535673L3.71427 0H26.2856ZM9.28479 9.29921C12.6321 5.95187 18.0588 5.95137 21.4055 9.29814C24.7523 12.6449 24.7518 18.0715 21.4044 21.4188C18.0571 24.7662 12.6305 24.7667 9.28371 21.4199C5.93694 18.0732 5.93744 12.6466 9.28479 9.29921Z" fill="#333333"/>
</g>
<defs>
<clipPath id="clip0_45_58">
<rect width="30" height="30" fill="white"/>
</clipPath>
</defs>
</svg>
