<svg width="30" height="30" viewBox="0 0 30 30" fill="none" xmlns="http://www.w3.org/2000/svg">
<path d="M0.702999 8.43595C0.809071 8.43663 0.913606 8.45985 1.00907 8.50381L1.02582 8.51181L13.6821 14.7611C13.9118 14.8748 14.0575 15.0999 14.0623 15.3469V29.3267C14.0616 29.5614 13.9337 29.779 13.7244 29.9012C13.5196 30.0209 13.2656 30.0324 13.0502 29.9326L13.0365 29.926L0.382214 23.6768C0.152607 23.565 0.00524999 23.3398 0 23.0909V9.11113C0.00107143 8.7437 0.3085 8.44538 0.690535 8.43799L0.703035 8.43785V8.43595H0.702999ZM29.287 8.43785C29.6594 8.43785 30 8.72235 30 9.1187V23.0756C30.0004 23.3293 29.8519 23.5617 29.6158 23.6768L16.9674 29.9222C16.7486 30.0306 16.4867 30.0221 16.276 29.8997C16.0654 29.7774 15.9364 29.5588 15.9357 29.3229V15.3641C15.9357 15.1126 16.0752 14.883 16.3036 14.7671L28.9623 8.5156C29.0629 8.46445 29.1742 8.43781 29.287 8.43785ZM27.7143 11.6812L18.2214 16.3692V26.7539L27.7143 22.0665V11.6812ZM4.74582 19.7776L4.73857 19.7907L4.71821 19.8283C4.71314 19.8377 4.70821 19.8471 4.70346 19.8567C4.48274 20.3007 4.65974 20.8386 5.09846 21.0657L5.11185 21.0724L8.97363 22.9921C9.41685 23.2125 9.95395 23.0463 10.196 22.6165L10.2032 22.6034L10.2235 22.566C10.2286 22.5566 10.2336 22.5471 10.2383 22.5375C10.4589 22.094 10.2822 21.5567 9.84406 21.3297L9.8307 21.3229L5.96856 19.4017C5.52521 19.1812 4.98774 19.3475 4.74582 19.7776V19.7776ZM4.73432 16.5269L4.72707 16.54L4.70732 16.5766C4.70242 16.5856 4.69771 16.5947 4.69317 16.6039C4.47203 17.0487 4.64935 17.5876 5.08889 17.8151L5.10228 17.8219L8.96299 19.7411C9.40649 19.9615 9.94395 19.7949 10.1857 19.3647L10.193 19.3516L10.2126 19.3153C10.2175 19.3062 10.2223 19.297 10.2269 19.2878C10.4478 18.844 10.2712 18.3062 9.83274 18.079L9.81934 18.0722L5.95792 16.15C5.51406 15.929 4.97592 16.0959 4.73432 16.5269ZM14.6089 0C14.7079 0 14.8069 0.0208572 14.898 0.0568929L28.087 5.57785C28.6296 5.80546 28.6652 6.52992 28.1484 6.80874L15.2366 13.0598C15.0193 13.1756 14.7549 13.1756 14.5376 13.0598L1.17036 6.58874C0.930713 6.46088 0.788285 6.21328 0.803463 5.95099C0.818642 5.68871 0.988749 5.45767 1.24168 5.35596L14.3296 0.055C14.4116 0.0210154 14.4991 0.00245436 14.5878 0.000250084L14.6089 0ZM14.6018 2.41082L5.4461 6.1191L14.8871 10.6895L23.9254 6.31367L14.6018 2.41082Z" fill="#333333"/>
</svg>
