<svg width="30" height="30" viewBox="0 0 30 30" fill="none" xmlns="http://www.w3.org/2000/svg">
<g clip-path="url(#clip0_2714_117)">
<path d="M28.9495 1.05057C27.5487 -0.350179 25.2777 -0.350179 23.8769 1.05057L1.05054 23.8769C-0.350179 25.2776 -0.350179 27.5487 1.05054 28.9494C2.45129 30.3501 4.72236 30.3501 6.12307 28.9494L28.9495 6.12304C30.3502 4.72232 30.3502 2.45125 28.9495 1.05054V1.05057ZM26.2578 17.6952L25.8807 16.4932C25.7158 15.9511 25.3152 15.5504 24.7732 15.3619L23.5714 14.9847L24.7732 14.6076C25.2916 14.4427 25.7158 14.042 25.8807 13.4999L26.2578 12.3214L26.6348 13.5235C26.7998 14.042 27.2004 14.4662 27.7423 14.6312L28.9441 15.0083L27.7423 15.3854C27.2239 15.5504 26.7998 15.9511 26.6348 16.4932L26.2578 17.6952ZM21.3922 21.0226L21.6429 21.8214L21.8935 21.0226C22.0031 20.6623 22.2851 20.396 22.6297 20.2864L23.4286 20.0357L22.6297 19.7851C22.2694 19.6754 22.0031 19.3935 21.8935 19.0489L21.6429 18.25L21.3922 19.0332C21.2826 19.3935 21.0006 19.6598 20.656 19.7694L19.8571 20.02L20.656 20.2707C21.0163 20.396 21.2826 20.6623 21.3922 21.0226ZM27.5 24.1786L27.2494 23.3797C27.1397 23.0194 26.8734 22.7531 26.5131 22.6278L25.7143 22.3772L26.5131 22.1266C26.8578 22.0169 27.1397 21.7506 27.2494 21.3904L27.5 20.6071L27.7506 21.406C27.8603 21.7506 28.1266 22.0326 28.4869 22.1422L29.2857 22.3929L28.4869 22.6435C28.1422 22.7531 27.8603 23.0194 27.7506 23.3797L27.5 24.1786ZM17.4135 4.04136L17.7143 5L18.015 4.04136C18.1466 3.60904 18.485 3.28946 18.8985 3.15789L19.8571 2.85714L18.8985 2.55639C18.4662 2.42482 18.1466 2.08646 18.015 1.67293L17.7143 0.714286L17.4135 1.65414C17.282 2.08646 16.9436 2.406 16.5301 2.53761L15.5714 2.83832L16.5301 3.13911C16.9624 3.28946 17.282 3.60904 17.4135 4.04136ZM8.56336 7.75629C8.41068 7.27007 8.14275 6.82796 7.7824 6.4676C7.42204 6.10725 6.97993 5.83932 6.49371 5.68664L4.25 4.99032L6.49371 4.294C7.48018 4.00386 8.25386 3.23018 8.56336 2.24371L9.25968 0L9.93664 2.22436C10.0893 2.71057 10.3572 3.15269 10.7176 3.51305C11.078 3.87341 11.5201 4.14133 12.0063 4.294L14.25 4.99032L12.0256 5.68664C11.5394 5.83932 11.0973 6.10724 10.737 6.4676C10.3766 6.82795 10.1087 7.27007 9.956 7.75629L9.25968 10L8.56336 7.75629Z" fill="#333333"/>
</g>
<defs>
<clipPath id="clip0_2714_117">
<rect width="30" height="30" fill="white"/>
</clipPath>
</defs>
</svg>
