<svg width="30" height="30" viewBox="0 0 30 30" fill="none" xmlns="http://www.w3.org/2000/svg">
<g clip-path="url(#clip0_45_74)">
<path fill-rule="evenodd" clip-rule="evenodd" d="M0 26.7074V3.14625L16.8571 0V30L0 26.7074ZM11.2002 16.0067C11.6455 15.6944 12.0189 15.2548 12.3168 14.6869C12.6182 14.1123 12.7704 13.4014 12.7704 12.5597C12.7704 11.4687 12.507 10.6025 11.9887 9.97121C11.4809 9.35304 10.8649 8.99521 10.1491 8.89104C9.69446 8.82193 8.74754 8.88536 7.36604 9.07204L4.08668 9.51514V20.8646L6.07146 21.1361V16.6513L7.47054 16.6991C8.49568 16.7342 9.31057 16.7011 9.89036 16.5967C10.3261 16.5092 10.7627 16.3134 11.2002 16.0067ZM18.25 3.82143H30V26.1071H18.25V23.4643H27.3214V22.2143H18.25V20.1786H27.3214V18.9286H18.25V16.9286H27.3214V15.6786H18.25V13.6429H27.3214V12.3929H18.25V10.3929H27.3214V9.14286H18.25V7.07143H27.3214V5.82143H18.25V3.82143ZM7.09957 11.1666C7.89846 11.0954 8.44621 11.0752 8.72378 11.1079C9.10629 11.1497 9.427 11.3115 9.68364 11.5948C9.94296 11.8814 10.0738 12.2619 10.0738 12.7339C10.0738 13.1176 9.98039 13.4573 9.79503 13.7513C9.61096 14.0431 9.35925 14.2584 9.04207 14.3971C8.729 14.5343 8.12057 14.6074 7.23986 14.618L6.0715 14.632V11.2583L7.09957 11.1666Z" fill="#FDAB29"/>
</g>
<defs>
<clipPath id="clip0_45_74">
<rect width="30" height="30" fill="white"/>
</clipPath>
</defs>
</svg>
