<svg xmlns="http://www.w3.org/2000/svg" width="30" height="30" viewBox="0 0 30 30" fill="none">
  <path d="M 22.956 22.956 C 20.754 21.221 19.103 20.012 17.668 19.318 C 16.215 21.409 15.632 24.66 15 30 C 14.368 24.66 13.785 21.409 12.332 19.318 C 10.898 20.012 9.246 21.219 7.044 22.956 C 8.781 20.754 9.988 19.103 10.682 17.668 C 8.591 16.215 5.34 15.632 0 15 C 5.34 14.368 8.591 13.785 10.682 12.332 C 9.988 10.898 8.781 9.246 7.044 7.044 C 9.246 8.781 10.898 9.988 12.332 10.682 C 13.785 8.591 14.368 5.34 15 0 C 15.632 5.34 16.215 8.591 17.668 10.682 C 19.103 9.988 20.754 8.781 22.956 7.044 C 21.221 9.246 20.012 10.898 19.318 12.332 C 21.409 13.785 24.66 14.368 30 15 C 24.66 15.632 21.409 16.215 19.318 17.668 C 20.012 19.103 21.219 20.754 22.956 22.956 Z" fill="currentColor" fill-rule="nonzero"/>
</svg>
