<svg width="30" height="30" viewBox="0 0 30 30" fill="none" xmlns="http://www.w3.org/2000/svg">
<g clip-path="url(#clip0_3102_476)">
<path d="M25.0353 7.13275C25.3835 7.22841 25.7236 7.35126 26.0525 7.50018V9.07475C25.3574 9.25336 24.9039 9.91986 24.9941 10.6303C25.0843 11.3407 25.6901 11.8733 26.408 11.8733C27.1258 11.8733 27.7316 11.3407 27.8218 10.6303C27.912 9.91986 27.4585 9.25336 26.7634 9.07475V7.87279C28.4619 8.89264 29.6374 10.5934 29.9889 12.5398C30.0084 12.6479 30.0022 12.759 29.9708 12.8643C29.9394 12.9696 29.8837 13.0661 29.8082 13.1459C28.1009 14.9667 25.7135 16 23.2143 16C20.7151 16 18.3277 14.9667 16.6204 13.1459C16.5449 13.0661 16.4892 12.9696 16.4578 12.8643C16.4264 12.759 16.4202 12.6479 16.4397 12.5398C16.8036 10.5253 18.0493 8.77757 19.8373 7.77321V9.03525C18.7444 9.29282 17.9303 10.6665 17.9303 12.3836C17.9368 12.5752 18.0944 12.7271 18.2865 12.727H19.0129C19.2096 12.727 19.3691 12.5679 19.3691 12.3716C19.3691 12.1753 19.2096 12.0161 19.0129 12.0161H18.6686C18.7719 10.7111 19.4277 9.68089 20.1988 9.68089C20.9698 9.68089 21.6256 10.7197 21.7289 12.0161H21.3847C21.1879 12.0161 21.0284 12.1753 21.0284 12.3715C21.0284 12.5679 21.1879 12.727 21.3847 12.727H22.1024C22.2939 12.7262 22.4505 12.5745 22.457 12.3836C22.457 10.6528 21.6429 9.27907 20.5499 9.02668V7.42121C20.8243 7.30639 21.106 7.21002 21.3933 7.13275C21.9601 7.41046 22.583 7.55482 23.2143 7.55479C23.8457 7.55479 24.4687 7.41039 25.0353 7.13275ZM26.4071 9.72725C26.6955 9.72654 26.9558 9.89932 27.0666 10.1649C27.1208 10.2948 27.1352 10.4378 27.1079 10.5759C27.0806 10.7139 27.0128 10.8407 26.9133 10.9402C26.8136 11.0398 26.6867 11.1077 26.5485 11.1352C26.4102 11.1628 26.2669 11.1488 26.1365 11.095C26.0063 11.0414 25.895 10.9504 25.8166 10.8334C25.7382 10.7165 25.6963 10.5789 25.6963 10.4381C25.6972 10.0466 26.0146 9.72911 26.4071 9.72725ZM23.2143 0C25.1155 0 26.6566 1.5375 26.6566 3.43414C26.6566 5.33079 25.1155 6.86832 23.2143 6.86832C21.3131 6.86832 19.7719 5.33079 19.7719 3.43414C19.7719 1.53754 21.3131 0 23.2143 0ZM8.61226 21.1327C8.95809 21.2285 9.29583 21.3513 9.62233 21.5002L10.3281 21.8728C12.0148 22.8926 13.1819 24.5934 13.5309 26.5398C13.5702 26.759 13.6204 27.0262 13.4683 27.1883C11.773 29.009 9.28565 30 6.80408 30C4.3225 30 1.7725 29.0779 0.0771833 27.2571C-0.0291024 27.1439 -0.00599527 26.9456 0.030969 26.7617L0.0348262 26.7428C0.0498262 26.6702 0.0663262 26.6006 0.0771833 26.5398C0.438576 24.5252 1.6755 22.7776 3.4509 21.7732L4.15843 21.4212C4.43081 21.3064 4.7106 21.21 4.9959 21.1327C5.55823 21.4104 6.17694 21.5548 6.80408 21.5548C7.43121 21.5548 8.04992 21.4104 8.61226 21.1327ZM7.23168 23.6759H6.1595L6.15322 23.676C6.05118 23.6794 5.98329 23.7641 5.96558 23.8652L5.96454 23.8716L5.22536 27.2589L6.69561 28.0921L8.15768 27.2589L7.42665 23.8716L7.42561 23.8654C7.40761 23.7621 7.33726 23.6759 7.23168 23.6759ZM7.61611 23.8505L8.06765 25.7959L8.37225 25.2667L7.61611 23.8505ZM7.734 22.1694H5.64908L5.64358 22.1694C5.52236 22.1723 5.38954 22.2673 5.42208 22.39L5.42368 22.3956L5.84633 23.4417H7.53679L7.9594 22.3956L7.961 22.39C7.99404 22.2654 7.85665 22.1694 7.734 22.1694ZM6.80408 14C8.69186 14 10.2222 15.5375 10.2222 17.4341C10.2222 19.3308 8.69186 20.8683 6.80408 20.8683C4.91629 20.8683 3.38597 19.3308 3.38597 17.4341C3.38597 15.5375 4.91629 14 6.80408 14Z" fill="#F7981D"/>
<path d="M20.2962 28.2814C24.0769 28.1997 26.4912 26.6355 28.5727 23.6761C30.7898 20.5211 29.7624 16.25 29.7624 16.25C29.7624 16.25 28.751 19.435 26.9349 20.9526C25.3265 22.2961 23.7637 23.438 20.296 23.5931V21.8531L15.7858 25.8933L20.296 30V28.2814H20.2962ZM1.43237 6.34046C3.51762 3.37325 5.93787 1.80361 9.72797 1.72189V0L14.2501 4.11729L9.72797 8.16807V6.42296C6.25176 6.57836 4.68583 7.72336 3.07283 9.07093C1.25212 10.5925 0.238187 13.7857 0.238187 13.7857C0.238187 13.7857 -0.791599 9.50357 1.43237 6.34046Z" fill="#8DADF9"/>
</g>
<defs>
<clipPath id="clip0_3102_476">
<rect width="30" height="30" fill="white"/>
</clipPath>
</defs>
</svg>
