<svg width="30" height="30" viewBox="0 0 30 30" fill="none" xmlns="http://www.w3.org/2000/svg">
<path fill-rule="evenodd" clip-rule="evenodd" d="M7.95252 8.01956C8.28669 8.02191 8.61872 8.07388 8.9369 8.17386C9.93704 8.41667 10.8006 9.03377 11.3422 9.89163C11.8836 10.7494 12.06 11.7809 11.8344 12.7647L11.6976 13.3018L15.1498 14.9678C15.3191 15.0503 15.4699 15.1651 15.5941 15.3047C15.7183 15.4444 15.8134 15.6067 15.8734 15.7823L15.9096 15.7959C15.9487 15.9138 15.9734 16.0357 15.9838 16.1592C16.0008 16.3712 15.9758 16.5849 15.9086 16.7871C15.8413 16.9894 15.7335 17.1773 15.5922 17.3389C15.4508 17.5005 15.2781 17.6332 15.0844 17.7295C14.8906 17.8258 14.679 17.8841 14.4623 17.9004C14.2015 17.8963 13.9463 17.8231 13.724 17.6895L10.9457 16.2803L10.8285 16.8477L11.0746 17.1993L11.1615 17.3389L13.6947 21.8174C13.9568 22.2602 14.1525 22.7379 14.2748 23.2354L14.9828 27.9795C15.0258 28.2261 15.0144 28.4788 14.9496 28.7207C14.8847 28.9627 14.7679 29.1886 14.6068 29.3828C14.2939 29.7292 13.8605 29.9489 13.391 30H13.1596C12.7684 30.0013 12.3849 29.8894 12.059 29.6778C11.8637 29.5552 11.6975 29.3925 11.5726 29.2012C11.4478 29.0099 11.3669 28.7942 11.3353 28.5694C11.1144 26.7273 10.7216 24.9089 10.1625 23.1368L9.04822 21.1836L8.93201 21.1123C8.60161 20.939 8.28096 20.7485 7.97108 20.542L7.03553 23.0225C6.80254 23.5852 6.51695 24.1257 6.18201 24.6368L3.44569 28.5674C3.32251 28.7711 3.15711 28.9473 2.96033 29.085C2.76343 29.2227 2.5391 29.3192 2.30213 29.3672C2.17236 29.3812 2.04128 29.3812 1.91151 29.3672C1.52924 29.3679 1.155 29.2558 0.83924 29.045C0.643123 28.9302 0.472593 28.7776 0.338263 28.5967C0.203908 28.4157 0.108937 28.2093 0.0579898 27.9912C-0.00227794 27.7787 -0.01605 27.5558 0.0189273 27.3379C0.0539424 27.1201 0.137147 26.9117 0.261115 26.7276L3.15858 22.7578C3.34994 22.5184 3.50582 22.2538 3.62147 21.9717L5.33924 17.0479C5.21334 16.3509 5.24924 15.6346 5.44471 14.9532L5.92322 12.9453L5.37342 13.4493L3.46229 17.3379C3.2554 17.6867 2.92227 17.9469 2.52869 18.0664C2.13505 18.186 1.70964 18.1564 1.33729 17.9834C1.29737 17.9683 1.25841 17.9509 1.22108 17.9326C1.05208 17.8505 0.901389 17.7362 0.777716 17.5967C0.654091 17.4573 0.559645 17.2954 0.500373 17.1201C0.441127 16.9448 0.417735 16.7594 0.432013 16.5752C0.446357 16.391 0.498594 16.2106 0.584357 16.0459L2.46522 12.2022C2.59117 11.9641 2.74721 11.7425 2.92908 11.542L6.20057 8.52445C6.44004 8.32486 6.72008 8.17673 7.02186 8.08988C7.32355 8.00308 7.64085 7.97864 7.95252 8.01956ZM22.9545 6.01761C23.2472 6.01957 23.538 6.0666 23.8168 6.15628C24.6929 6.37413 25.4489 6.92674 25.9232 7.69534C26.3974 8.46381 26.5524 9.38735 26.3549 10.2686L26.2338 10.75L29.2592 12.2442C29.4074 12.3181 29.5401 12.4199 29.6488 12.545C29.7577 12.6702 29.8403 12.8163 29.893 12.9737L29.9301 12.9903C29.9977 13.1985 30.017 13.4199 29.9867 13.6368C29.9564 13.8535 29.8773 14.0606 29.7553 14.2422C29.6331 14.424 29.471 14.5757 29.2816 14.6856C29.0921 14.7954 28.8799 14.8613 28.6615 14.877C28.4331 14.8733 28.2098 14.808 28.015 14.6885L25.5805 13.4258L25.4779 13.9336L25.6937 14.2481L25.7699 14.3741L27.9896 18.3868C28.2192 18.7832 28.3904 19.2108 28.4974 19.6563L29.1176 23.9073C29.1553 24.1284 29.1452 24.3553 29.0883 24.5723C29.0313 24.7891 28.9288 24.9911 28.7875 25.1651C28.5133 25.4754 28.1335 25.6732 27.7221 25.7188H27.5189C27.1763 25.7198 26.8406 25.6192 26.5551 25.4297C26.3839 25.3199 26.2387 25.1734 26.1293 25.002C26.0201 24.8307 25.9488 24.6379 25.9213 24.4366C25.7275 22.7861 25.3838 21.1563 24.8939 19.5684L23.9174 17.8184L23.8158 17.7559C23.5265 17.6005 23.2453 17.4302 22.974 17.2451L22.1537 19.4668C21.9496 19.9709 21.6993 20.4555 21.4056 20.9131L19.0082 24.4346C18.9003 24.6174 18.755 24.7759 18.5824 24.8994C18.4099 25.0229 18.2138 25.1093 18.0062 25.1524C17.8924 25.1645 17.7773 25.1645 17.6635 25.1524C17.3284 25.1529 17.0006 25.0514 16.724 24.8623C16.5524 24.7594 16.4031 24.623 16.2855 24.461C16.1679 24.2988 16.084 24.1143 16.0394 23.919C15.9868 23.7286 15.9756 23.5291 16.0062 23.334C16.0369 23.1388 16.1087 22.9522 16.2172 22.7871L18.7553 19.2276C18.9233 19.0134 19.0603 18.7762 19.1615 18.5235L20.6664 14.1104C20.5563 13.4857 20.5887 12.8441 20.7601 12.2334L21.1781 10.4346L20.6967 10.8868L19.0219 14.3701C18.8406 14.6832 18.5488 14.9172 18.2035 15.0244C17.8583 15.1316 17.485 15.1046 17.1586 14.9493C17.1237 14.9357 17.0897 14.9197 17.057 14.9034C16.9086 14.8297 16.7759 14.7277 16.6674 14.6026C16.5588 14.4773 16.4761 14.3313 16.4242 14.1739C16.3723 14.0164 16.3519 13.85 16.3646 13.6846C16.3774 13.5194 16.423 13.3585 16.4984 13.211L18.1469 9.76468C18.2572 9.55167 18.3938 9.35318 18.5531 9.17386L21.4193 6.46976C21.6291 6.29093 21.8746 6.1579 22.139 6.08011C22.4034 6.00233 22.6814 5.98087 22.9545 6.01761ZM8.70154 2.22855C9.21209 2.00946 9.77635 1.94606 10.3226 2.04691C10.8688 2.14774 11.3731 2.40813 11.7719 2.79495C12.1706 3.18186 12.4462 3.67852 12.5638 4.22171C12.6814 4.76499 12.6361 5.33126 12.433 5.84867C12.2299 6.36608 11.8779 6.81191 11.4222 7.12992C10.9668 7.44773 10.4276 7.62378 9.87244 7.63577C9.12175 7.64544 8.39777 7.35698 7.85877 6.83402C7.31977 6.31104 7.00899 5.59592 6.99549 4.84476C6.99031 4.28895 7.14995 3.74385 7.4535 3.27835C7.75702 2.81297 8.19116 2.44761 8.70154 2.22855ZM24.1078 0.229525C24.619 0.00980905 25.1837 -0.0538238 25.7308 0.0469075C26.2781 0.147676 26.7834 0.408423 27.183 0.795931C27.5826 1.18343 27.8591 1.68046 27.9769 2.22464C28.0947 2.76871 28.0484 3.33539 27.8451 3.85355C27.6417 4.37172 27.2897 4.81833 26.8334 5.13675C26.3769 5.45518 25.836 5.63186 25.2797 5.64359C24.5286 5.65347 23.8045 5.36492 23.265 4.84183C22.7255 4.31864 22.4144 3.60328 22.4008 2.85159C22.395 2.29482 22.5541 1.74882 22.8578 1.28226C23.1615 0.815672 23.5965 0.449312 24.1078 0.229525Z" fill="#333333"/>
</svg>
