<svg width="30" height="30" viewBox="0 0 30 30" fill="none" xmlns="http://www.w3.org/2000/svg">
<g clip-path="url(#clip0_2565_103)">
<path d="M3.55462 1.88853C3.65756 1.78584 3.73924 1.66387 3.795 1.52959C3.85076 1.39531 3.87951 1.25136 3.87959 1.10596C3.87968 0.960563 3.8511 0.816576 3.79549 0.682231C3.73989 0.547887 3.65835 0.425821 3.55553 0.323015C3.45271 0.220208 3.33064 0.138677 3.19629 0.0830838C3.06194 0.0274908 2.91795 -0.00107375 2.77255 -0.000976314C2.62716 -0.000878876 2.4832 0.0278786 2.34893 0.0836517C2.21466 0.139425 2.09269 0.221119 1.99001 0.324064C1.88729 0.4268 1.80581 0.548763 1.75022 0.68299C1.69463 0.817216 1.66602 0.961078 1.66603 1.10636C1.66604 1.39977 1.78262 1.68116 1.9901 1.88862C2.19759 2.09608 2.47899 2.21262 2.7724 2.21261C3.06581 2.21259 3.3472 2.09602 3.55466 1.88853H3.55462ZM7.29161 2.49804C7.05906 2.49805 6.83604 2.59044 6.6716 2.75487C6.50716 2.91931 6.41478 3.14233 6.41477 3.37488V4.69019H5.09946C4.86691 4.69019 4.64388 4.78257 4.47945 4.94701C4.31501 5.11145 4.22263 5.33448 4.22263 5.56703C4.22263 5.79958 4.31501 6.02261 4.47945 6.18704C4.64388 6.35148 4.86691 6.44386 5.09946 6.44386H6.41477V7.75917C6.41477 7.99172 6.50715 8.21475 6.67159 8.37919C6.83603 8.54363 7.05906 8.63601 7.29161 8.63601C7.52416 8.63601 7.74719 8.54363 7.91163 8.37919C8.07606 8.21475 8.16844 7.99172 8.16844 7.75917V6.44386H9.48375C9.71631 6.44386 9.93933 6.35148 10.1038 6.18704C10.2682 6.02261 10.3606 5.79958 10.3606 5.56703C10.3606 5.33448 10.2682 5.11145 10.1038 4.94701C9.93933 4.78257 9.71631 4.69019 9.48375 4.69019H8.16844V3.37488C8.16845 3.25973 8.14577 3.14571 8.10171 3.03932C8.05765 2.93294 7.99306 2.83628 7.91164 2.75485C7.83021 2.67343 7.73355 2.60884 7.62716 2.56478C7.52078 2.52072 7.40676 2.49804 7.29161 2.49804ZM10.5977 14.4795L12.0256 13.8172L15.234 17.0008L14.5717 18.4536C15.2533 26.5356 10.0206 28.3889 2.00033 28.3889C1.31209 28.3889 0.79882 28.3034 0.441819 28.057C-0.384594 27.4867 0.116614 26.4058 0.584919 25.3958C0.708892 25.1285 0.83058 24.8661 0.92472 24.6194C1.22298 23.8377 1.38742 22.9238 1.55893 21.9706C2.18564 18.4874 2.90678 14.4796 10.5976 14.4796L10.5977 14.4795ZM26.275 23.8809C26.3976 23.7583 26.5539 23.6748 26.724 23.6409C26.8941 23.6071 27.0704 23.6245 27.2306 23.6908C27.3908 23.7572 27.5277 23.8696 27.6241 24.0138C27.7204 24.158 27.7719 24.3275 27.7719 24.5009V25.8162H29.0872C29.2606 25.8162 29.4301 25.8676 29.5743 25.9639C29.7185 26.0603 29.8309 26.1973 29.8973 26.3575C29.9414 26.4639 29.964 26.5779 29.9641 26.6931C29.9641 26.8082 29.9414 26.9222 29.8973 27.0286C29.8533 27.135 29.7887 27.2317 29.7072 27.3131C29.6258 27.3945 29.5291 27.4591 29.4227 27.5031C29.3163 27.5472 29.2023 27.5699 29.0872 27.5699H27.7719V28.8852C27.7719 29.0003 27.7492 29.1144 27.7052 29.2207C27.6611 29.3271 27.5965 29.4238 27.5151 29.5052C27.3925 29.6279 27.2362 29.7114 27.0661 29.7452C26.896 29.7791 26.7197 29.7617 26.5595 29.6953C26.4531 29.6512 26.3564 29.5866 26.275 29.5052C26.1936 29.4238 26.129 29.3271 26.0849 29.2207C26.0409 29.1144 26.0182 29.0003 26.0182 28.8852V27.5699H24.7029C24.5878 27.5699 24.4737 27.5472 24.3674 27.5031C24.261 27.4591 24.1643 27.3945 24.0829 27.3131C24.0015 27.2316 23.9369 27.135 23.8928 27.0286C23.8487 26.9222 23.8261 26.8082 23.8261 26.693C23.8261 26.5779 23.8487 26.4639 23.8928 26.3575C23.9369 26.2511 24.0015 26.1544 24.0829 26.073C24.1643 25.9916 24.261 25.927 24.3674 25.8829C24.4737 25.8389 24.5878 25.8162 24.7029 25.8162H26.0182V24.5009C26.0182 24.2683 26.1106 24.0453 26.275 23.8809ZM20.984 28.8937C20.9841 29.039 20.9554 29.1828 20.8998 29.3171C20.8443 29.4513 20.7628 29.5732 20.66 29.676C20.5573 29.7787 20.4354 29.8602 20.3012 29.9158C20.1669 29.9714 20.0231 30 19.8778 30C19.7325 30 19.5887 29.9714 19.4545 29.9158C19.3202 29.8602 19.1983 29.7787 19.0956 29.676C18.9928 29.5733 18.9113 29.4513 18.8557 29.3171C18.8001 29.1829 18.7715 29.039 18.7715 28.8938C18.7715 28.6004 18.8881 28.319 19.0955 28.1115C19.303 27.904 19.5844 27.7875 19.8778 27.7875C20.1712 27.7875 20.4526 27.904 20.66 28.1115C20.8675 28.3189 20.984 28.6003 20.984 28.8937Z" fill="#F7981D"/>
<path d="M29.1209 6.21097L20.1437 16.9716C19.6063 17.616 18.8796 18.076 18.0518 18.1935C17.2213 18.3113 16.063 18.4228 14.7144 18.3826C14.7144 18.3826 14.3893 17.485 13.1119 16.1217C11.8345 14.7584 10.8604 14.2921 10.8604 14.2921C10.9025 12.8771 11.1261 11.687 11.3249 10.8853C11.5064 10.1557 11.9725 9.54521 12.573 9.09685L23.9015 0.639452C24.2688 0.365135 24.6835 0.146238 25.1409 0.141885C25.8885 0.134747 27.1441 0.360853 28.3669 1.66649C29.5904 2.9722 29.74 4.24593 29.6885 4.99623C29.6569 5.45526 29.415 5.8584 29.1209 6.21097Z" fill="#FFCC00"/>
</g>
<defs>
<clipPath id="clip0_2565_103">
<rect width="30" height="30" fill="white"/>
</clipPath>
</defs>
</svg>
