<svg width="30" height="30" viewBox="0 0 30 30" fill="none" xmlns="http://www.w3.org/2000/svg">
<g clip-path="url(#clip0_2565_104)">
<path d="M13.6679 17.2961C17.8402 14.1915 19.6901 8.61086 19.2179 0.553868C19.3369 -0.911201 21.0613 0.609171 24.3904 5.11527L28.7174 0.328766C28.8192 0.216662 28.9532 0.138958 29.1011 0.106412C29.2496 0.0734617 29.4046 0.0869893 29.5452 0.14516C29.6854 0.203317 29.8034 0.303113 29.8826 0.430453C29.9615 0.557191 29.9978 0.705893 29.9861 0.854753C29.0504 12.6158 24.1753 19.7681 15.3607 22.3117C6.04194 25.0009 5.47767 23.3289 13.6682 17.2965L13.6679 17.2961Z" fill="#FFCC00"/>
<path d="M7.01653 4.81949C7.01653 5.08134 6.91024 5.33245 6.721 5.51759C6.53175 5.70273 6.27508 5.80674 6.00744 5.80674C5.73981 5.80674 5.48317 5.70273 5.29393 5.51759C5.10468 5.33245 4.99836 5.08134 4.99836 4.81949C4.99836 4.55767 5.10468 4.30656 5.29393 4.12142C5.48317 3.93628 5.73981 3.83228 6.00744 3.83228C6.27508 3.83228 6.53175 3.93628 6.721 4.12142C6.91024 4.30656 7.01653 4.55767 7.01653 4.81949ZM3.08826 12.6256C3.2775 12.4404 3.38383 12.1894 3.38383 11.9275C3.38383 11.6657 3.2775 11.4146 3.08826 11.2294C2.89902 11.0443 2.64234 10.9403 2.37474 10.9403C2.10711 10.9403 1.85043 11.0443 1.66119 11.2294C1.47194 11.4146 1.36562 11.6657 1.36562 11.9275C1.36562 12.1894 1.47194 12.4404 1.66119 12.6256C1.85043 12.8108 2.10711 12.9148 2.37474 12.9148C2.64234 12.9148 2.89902 12.8108 3.08826 12.6256ZM16.1197 24.854L12.2723 25.3338C12.0781 25.3579 11.8925 25.4281 11.7309 25.5386C11.5708 25.6481 11.4398 25.7949 11.3492 25.9664L9.57196 29.3396C9.46842 29.5361 9.31075 29.7003 9.11676 29.8137C8.92198 29.9273 8.69975 29.9853 8.47429 29.9813C8.2489 29.9775 8.02887 29.9119 7.83823 29.7916C7.64845 29.6716 7.49681 29.502 7.4004 29.302L5.74509 25.8704C5.66066 25.696 5.53489 25.5448 5.37874 25.43C5.22117 25.3142 5.03815 25.2377 4.84497 25.207L1.0165 24.5961C0.79427 24.5609 0.586064 24.4651 0.414799 24.3192C0.244572 24.1738 0.119337 23.9846 0.0532589 23.7732C-0.0128006 23.562 -0.0170718 23.3363 0.0409495 23.1228C0.0989999 22.909 0.216956 22.7155 0.381581 22.564L3.20582 19.9632C3.34832 19.8324 3.45654 19.6687 3.52101 19.4863C3.58497 19.305 3.60288 19.1107 3.57314 18.9207L2.98422 15.1696C2.94997 14.951 2.9789 14.7272 3.0676 14.5244C3.15637 14.3212 3.30148 14.1463 3.48655 14.0195C3.67253 13.8924 3.88986 13.8189 4.11479 13.807C4.33998 13.7948 4.5642 13.8446 4.76305 13.951L8.16448 15.7754C8.33721 15.8678 8.52949 15.9177 8.72536 15.9209C8.9213 15.9243 9.11522 15.8809 9.29106 15.7944L12.7555 14.0877C12.9579 13.9881 13.1838 13.9459 13.4085 13.9658C13.6328 13.9853 13.8475 14.0662 14.0289 14.1996C14.2093 14.3326 14.3482 14.5124 14.4296 14.7186C14.511 14.9243 14.5319 15.1491 14.4899 15.3663L13.7674 19.0949C13.7308 19.2836 13.7418 19.4784 13.7992 19.6619C13.8571 19.8463 13.9594 20.0136 14.0972 20.1492L16.8269 22.8448C16.9854 23.0007 17.0965 23.1984 17.1474 23.4148C17.1978 23.6303 17.1854 23.8557 17.1119 24.0645C17.0383 24.2736 16.9064 24.4583 16.731 24.5978C16.5547 24.7378 16.3432 24.8264 16.1197 24.854ZM8.86754 7.61761C9.01893 7.46947 9.22427 7.38627 9.43838 7.38627C9.65246 7.38627 9.85779 7.46947 10.0092 7.61761C10.1606 7.76572 10.2456 7.96659 10.2456 8.17607V9.36073H11.4566C11.5626 9.36073 11.6675 9.38118 11.7655 9.42085C11.8631 9.46034 11.9521 9.5185 12.0274 9.59208C12.1021 9.66505 12.1616 9.75214 12.2024 9.84829C12.2429 9.94391 12.2638 10.0467 12.2638 10.1505C12.2638 10.2543 12.2429 10.3569 12.2024 10.4528C12.1616 10.5489 12.1021 10.636 12.0274 10.709C11.9521 10.7826 11.8631 10.8407 11.7655 10.8802C11.6673 10.9199 11.5624 10.9403 11.4566 10.9403H10.2456V12.125C10.2456 12.2287 10.2248 12.3314 10.1842 12.4272C10.1434 12.5234 10.0839 12.6105 10.0092 12.6835C9.93387 12.757 9.84491 12.8152 9.74729 12.8546C9.64915 12.8944 9.54426 12.9148 9.43838 12.9148C9.33249 12.9148 9.22758 12.8944 9.12943 12.8546C9.03182 12.8152 8.94285 12.757 8.86754 12.6835C8.79282 12.6105 8.73334 12.5234 8.69254 12.4272C8.65201 12.3316 8.63112 12.2288 8.6311 12.125V10.9403H7.42017C7.20609 10.9403 7.00076 10.8571 6.84934 10.709C6.69795 10.5609 6.61289 10.36 6.61289 10.1505C6.61289 9.94106 6.69795 9.74018 6.84934 9.59208C7.00076 9.44394 7.20609 9.36073 7.42017 9.36073H8.6311V8.17607C8.6311 7.96659 8.71616 7.76572 8.86754 7.61761ZM20.9766 23.0184C21.128 22.8703 21.3333 22.7871 21.5474 22.7871C21.7616 22.7871 21.9669 22.8703 22.1183 23.0184C22.2697 23.1665 22.3547 23.3674 22.3547 23.5769V24.7615H23.5656C23.7797 24.7615 23.9851 24.8448 24.1365 24.9929C24.2878 25.141 24.3729 25.3419 24.3729 25.5513C24.3729 25.7608 24.2878 25.9617 24.1365 26.1098C23.9851 26.2579 23.7797 26.3411 23.5656 26.3411H22.3547V27.5258C22.3547 27.7353 22.2697 27.9362 22.1183 28.0843C21.9669 28.2324 21.7616 28.3156 21.5474 28.3156C21.3333 28.3156 21.128 28.2324 20.9766 28.0843C20.8252 27.9362 20.7402 27.7353 20.7402 27.5258V26.3411H19.5293C19.3152 26.3411 19.1098 26.2579 18.9584 26.1098C18.8071 25.9617 18.722 25.7608 18.722 25.5513C18.722 25.3419 18.8071 25.141 18.9584 24.9929C19.1098 24.8448 19.3152 24.7615 19.5293 24.7615H20.7402V23.5769C20.7402 23.3674 20.8252 23.1665 20.9766 23.0184Z" fill="#F7981D"/>
</g>
<defs>
<clipPath id="clip0_2565_104">
<rect width="30" height="30" fill="white"/>
</clipPath>
</defs>
</svg>
