<svg width="30" height="30" viewBox="0 0 30 30" fill="none" xmlns="http://www.w3.org/2000/svg">
<g clip-path="url(#clip0_45_57)">
<path fill-rule="evenodd" clip-rule="evenodd" d="M27.9509 15.977C26.9847 15.4893 25.8929 15.2143 24.7366 15.2143C20.7916 15.2143 17.5938 18.4122 17.5938 22.3571C17.5938 23.5134 17.8688 24.6052 18.3565 25.5714H4.66518C2.14046 25.5714 0.09375 23.5247 0.09375 21V6.57143C0.09375 4.04671 2.14046 2 4.66518 2H23.3795C25.9042 2 27.9509 4.04671 27.9509 6.57143V15.977ZM19.492 13.7857L8.55264 7.46986V20.1016L19.492 13.7857ZM19.3795 22.3571C19.3795 19.3984 21.7779 17 24.7366 17C27.6953 17 30.0938 19.3984 30.0938 22.3571C30.0938 25.3159 27.6953 27.7143 24.7366 27.7143C21.7779 27.7143 19.3795 25.3159 19.3795 22.3571ZM25.6116 23.2321H27.9509V21.4821H25.6116V19.1429H23.8616V21.4821H21.5223V23.2321H23.8616V25.5714H25.6116V23.2321Z" fill="#333333"/>
</g>
<defs>
<clipPath id="clip0_45_57">
<rect width="30" height="30" fill="white"/>
</clipPath>
</defs>
</svg>
