<svg width="14" height="14" viewBox="0 0 14 14" fill="none" xmlns="http://www.w3.org/2000/svg">
<g clip-path="url(#clip0_128_944)">
<path d="M4.40723 3.99237C4.13156 4.1794 3.80746 4.27923 3.47591 4.27923C3.0315 4.27866 2.60545 4.09914 2.29119 3.78005C1.97695 3.46097 1.80015 3.02836 1.79959 2.5771C1.79959 2.24046 1.89791 1.91137 2.08209 1.63146C2.2663 1.35155 2.5281 1.13338 2.8344 1.00455C3.14021 0.875775 3.47769 0.842023 3.80294 0.907691C4.12812 0.973359 4.42682 1.13548 4.66126 1.37353C4.8957 1.61157 5.05534 1.91486 5.12003 2.24504C5.18472 2.57515 5.15157 2.91696 5.02465 3.22848C4.89776 3.5395 4.6829 3.80534 4.40723 3.99237ZM9.17543 7.04293C9.14687 7.05037 9.11747 7.05401 9.08799 7.05378L9.08965 7.05426C9.03484 7.05404 8.98073 7.04196 8.93104 7.01884C8.88112 6.99561 8.83676 6.96194 8.80096 6.92012L8.11783 6.11429C8.08413 6.07549 8.0584 6.03043 8.04211 5.98168C8.0091 5.88297 8.01631 5.77523 8.06216 5.68179C8.08478 5.63575 8.11628 5.59463 8.15484 5.56079C8.19318 5.52715 8.23787 5.50152 8.28627 5.4854C8.3345 5.46933 8.38548 5.46315 8.43615 5.46721C8.48687 5.4713 8.53626 5.48553 8.58137 5.50907C8.62669 5.53273 8.66685 5.56517 8.6995 5.6045L8.90361 5.84577L9.25502 4.46791C9.27154 4.40236 9.30476 4.34221 9.35145 4.29333C9.3978 4.24478 9.45612 4.20929 9.52054 4.19044C9.58472 4.1717 9.65273 4.17031 9.71762 4.18643C9.78272 4.20266 9.84239 4.23575 9.89064 4.28238L10.4694 4.84042L10.8917 2.58049C10.901 2.53032 10.92 2.48246 10.9476 2.43957C10.9751 2.39689 11.0107 2.36003 11.0525 2.33111C11.094 2.30235 11.1408 2.28213 11.1902 2.27164C11.2394 2.2612 11.2903 2.26072 11.3398 2.27021C11.3894 2.27975 11.4366 2.29907 11.4786 2.32704C11.5208 2.35516 11.5571 2.39133 11.5854 2.43347C11.6138 2.47583 11.6337 2.52333 11.644 2.5733C11.6543 2.62336 11.6547 2.67499 11.6454 2.72524L11.0913 5.68678C11.0784 5.75535 11.0475 5.81924 11.0017 5.87186C10.9562 5.92411 10.8974 5.96306 10.8316 5.98457C10.766 6.00595 10.6958 6.00898 10.6286 5.99335C10.5613 5.9776 10.4994 5.94386 10.4497 5.89572L9.83194 5.30196L9.46056 6.76089C9.44331 6.82979 9.40752 6.89265 9.35708 6.94265C9.307 6.99228 9.24411 7.027 9.17543 7.04293ZM7.60721 5.46842C7.60696 5.21966 7.50953 4.98115 7.33628 4.80525C7.16304 4.62934 6.92815 4.53041 6.68315 4.53015H1.70455C1.59307 4.53004 1.48275 4.55271 1.38036 4.59678C1.27756 4.64107 1.18481 4.70573 1.10769 4.78686C1.03014 4.86846 0.969718 4.96477 0.929981 5.07009C0.890066 5.17582 0.871556 5.28842 0.875527 5.40135L0.981504 8.47193C0.98633 8.60395 1.02162 8.73307 1.08462 8.84919C1.14725 8.9647 1.23602 9.06396 1.34386 9.13903L1.79531 9.45075C1.80279 9.4561 1.80904 9.46308 1.81354 9.47117C1.81806 9.47926 1.82076 9.48827 1.82145 9.49755L2.03934 12.0791C2.0634 12.3647 2.19226 12.6307 2.40037 12.8244C2.60848 13.0182 2.88066 13.1254 3.16298 13.125H3.78457C4.06395 13.1254 4.3335 13.0203 4.54086 12.8302C4.7482 12.6401 4.87855 12.3785 4.90655 12.0962L5.43452 6.87163C5.43598 6.85938 5.44078 6.84779 5.44838 6.83815C5.45594 6.82855 5.46604 6.82126 5.47753 6.8171L6.9507 6.36521C7.14112 6.30826 7.30813 6.18999 7.42656 6.02823C7.54498 5.86646 7.60839 5.66998 7.60721 5.46842Z" fill="#ACA3FF"/>
<path d="M6.64728 0.959473H12.1073C12.3773 0.95991 12.6361 1.06914 12.8269 1.26314C13.0177 1.45714 13.1249 1.7201 13.125 1.99426V7.13321C13.1246 7.40716 13.0173 7.66976 12.8265 7.86347C12.6357 8.05717 12.3771 8.16616 12.1073 8.16656H6.64728C6.5455 8.16656 6.4479 8.1255 6.37594 8.05243C6.30397 7.97935 6.26355 7.88024 6.26355 7.7769C6.26355 7.67357 6.30397 7.57446 6.37594 7.50138C6.4479 7.42832 6.5455 7.38727 6.64728 7.38727H12.1073C12.1402 7.38727 12.1727 7.38069 12.203 7.36793C12.2335 7.35511 12.2611 7.33639 12.2842 7.31285C12.3075 7.28918 12.3259 7.26119 12.3384 7.23044C12.351 7.19957 12.3575 7.16655 12.3575 7.13321V1.99282C12.3575 1.95948 12.351 1.92646 12.3384 1.89559C12.3259 1.86484 12.3075 1.83684 12.2842 1.81317C12.261 1.78963 12.2335 1.77092 12.203 1.7581C12.1727 1.74534 12.1402 1.73877 12.1073 1.73876H6.64728C6.5455 1.73876 6.4479 1.69771 6.37594 1.62463C6.30397 1.55157 6.26355 1.45246 6.26355 1.34912C6.26355 1.24577 6.30397 1.14668 6.37594 1.0736C6.4479 1.00054 6.5455 0.959473 6.64728 0.959473Z" fill="#ACA3FF"/>
</g>
<defs>
<clipPath id="clip0_128_944">
<rect width="14" height="14" fill="white"/>
</clipPath>
</defs>
</svg>
