<svg width="30" height="30" viewBox="0 0 30 30" fill="none" xmlns="http://www.w3.org/2000/svg">
<path d="M18.5057 0C18.7907 0 19.0628 0.113571 19.2664 0.315L26.4707 7.52357V7.52143C26.5705 7.62092 26.6497 7.73914 26.7038 7.86931C26.7578 7.99949 26.7857 8.13905 26.7857 8.28V28.9286C26.7857 29.2127 26.6728 29.4853 26.4718 29.6862C26.2709 29.8871 25.9984 30 25.7142 30H4.28566C4.0015 30 3.72898 29.8871 3.52805 29.6862C3.32712 29.4853 3.21423 29.2127 3.21423 28.9286V1.07143C3.21423 0.787268 3.32712 0.514746 3.52805 0.313814C3.72898 0.112882 4.0015 7.77001e-09 4.28566 0L18.5057 0ZM14.9999 12.8571C14.1557 12.8571 13.3198 13.0234 12.5398 13.3465C11.7599 13.6695 11.0512 14.143 10.4542 14.74C9.85728 15.3369 9.38375 16.0456 9.06069 16.8256C8.73763 17.6055 8.57136 18.4415 8.57138 19.2857C8.57136 20.1299 8.73763 20.9659 9.06069 21.7458C9.38375 22.5258 9.85728 23.2345 10.4542 23.8314C11.0512 24.4284 11.7599 24.9019 12.5398 25.225C13.3198 25.548 14.1557 25.7143 14.9999 25.7143C15.8442 25.7143 16.6801 25.548 17.4601 25.225C18.24 24.9019 18.9487 24.4284 19.5457 23.8314C20.1426 23.2345 20.6161 22.5258 20.9392 21.7458C21.2623 20.9659 21.4285 20.1299 21.4285 19.2857C21.4285 18.4415 21.2623 17.6055 20.9392 16.8256C20.6161 16.0456 20.1426 15.3369 19.5457 14.74C18.9487 14.143 18.24 13.6695 17.4601 13.3465C16.6801 13.0234 15.8442 12.8571 14.9999 12.8571ZM14.9999 21.4886C15.1923 21.4886 15.3804 21.5457 15.5404 21.6526C15.7003 21.7595 15.825 21.9114 15.8986 22.0892C15.9722 22.2669 15.9915 22.4625 15.954 22.6512C15.9165 22.8399 15.8239 23.0133 15.6879 23.1494C15.5054 23.3318 15.258 23.4343 14.9999 23.4343C14.7419 23.4343 14.4945 23.3318 14.312 23.1494C14.1296 22.9669 14.0271 22.7194 14.0271 22.4614C14.0271 22.2034 14.1296 21.956 14.312 21.7735C14.4945 21.5911 14.7419 21.4886 14.9999 21.4886ZM14.9721 15.135C15.1943 15.135 15.4074 15.2233 15.5646 15.3804C15.7217 15.5375 15.8099 15.7506 15.8099 15.9729V19.89C15.8094 20.1118 15.7208 20.3244 15.5638 20.481C15.4067 20.6377 15.1939 20.7257 14.9721 20.7257L14.9699 20.7236C14.5092 20.7236 14.1342 20.3486 14.1342 19.8857V15.9729C14.1342 15.7506 14.2225 15.5375 14.3796 15.3804C14.5368 15.2233 14.7499 15.135 14.9721 15.135ZM18.5027 2.96061C18.3227 2.78061 18.0149 2.90811 18.0149 3.16264V8.48714C18.0149 8.56292 18.0451 8.63559 18.0986 8.68917C18.1522 8.74275 18.2249 8.77286 18.3007 8.77286H23.6252C23.8797 8.77286 24.0072 8.46511 23.8272 8.28511L18.5027 2.96057V2.96061Z" fill="#333333"/>
</svg>
