<svg width="30" height="30" viewBox="0 0 30 30" fill="none" xmlns="http://www.w3.org/2000/svg">
<g clip-path="url(#clip0_45_19)">
<path d="M26.2857 0C28.3165 0 29.9667 1.62986 29.9995 3.65286L30 3.71429V8.57143C30 9.20261 29.4883 9.71428 28.8571 9.71428C28.2323 9.71428 27.7245 9.21279 27.7144 8.59036L27.7143 8.57143V3.71429C27.7143 2.93321 27.0874 2.29854 26.3093 2.28589L26.2857 2.28571H3.71429C2.93321 2.28571 2.29854 2.91257 2.28589 3.69068L2.28571 3.71429V26.2857C2.28571 27.0668 2.91257 27.7015 3.69068 27.7141L3.71429 27.7143H8.57143C9.20261 27.7143 9.71428 28.226 9.71428 28.8571C9.71428 29.482 9.21279 29.9897 8.59036 29.9999L8.57143 30H3.71429C1.68346 30 0.0332856 28.3701 0.000499913 26.3471L0 26.2857V3.71429C0 1.68346 1.62986 0.0332856 3.65286 0.000499913L3.71429 0H26.2857ZM8.70264 7.53689L29.5651 14.8145C29.6037 14.8279 29.6376 14.8522 29.6629 14.8843C29.6882 14.9164 29.7038 14.9551 29.7078 14.9958C29.7118 15.0365 29.7041 15.0774 29.6855 15.1139C29.667 15.1503 29.6384 15.1807 29.6032 15.2015L23.1904 18.9763L29.751 25.5369C29.8904 25.6764 29.8904 25.9025 29.751 26.042L26.7205 29.0724C26.581 29.2119 26.3549 29.2119 26.2154 29.0724L19.7104 22.5673L16.0943 28.7104C16.0736 28.7456 16.0432 28.7742 16.0068 28.7927C15.9703 28.8112 15.9293 28.8189 15.8886 28.8149C15.848 28.8109 15.8093 28.7953 15.7771 28.77C15.745 28.7448 15.7208 28.7108 15.7073 28.6722L8.42975 7.80979C8.41648 7.77174 8.41421 7.73072 8.4232 7.69143C8.43219 7.65215 8.45207 7.6162 8.48056 7.58771C8.50906 7.55921 8.54501 7.53933 8.58429 7.53034C8.62357 7.52135 8.66459 7.52362 8.70264 7.53689Z" fill="#333333"/>
</g>
<defs>
<clipPath id="clip0_45_19">
<rect width="30" height="30" fill="white"/>
</clipPath>
</defs>
</svg>
