<svg width="30" height="30" viewBox="0 0 30 30" fill="none" xmlns="http://www.w3.org/2000/svg">
<path fill-rule="evenodd" clip-rule="evenodd" d="M19.6811 29.5548C21.5591 28.9384 23.2926 27.9551 24.7862 26.6682C25.2336 26.2828 25.3137 25.6201 24.9711 25.1392C24.5736 24.5813 24.3571 23.9158 24.3571 23.2147C24.3571 21.3804 25.8442 19.8933 27.6786 19.8933C27.861 19.8932 28.0432 19.908 28.2232 19.9376C28.8058 20.0334 29.3655 19.6698 29.5146 19.0986C29.8358 17.8679 30 16.5943 30 15.3C30.0003 14.4506 29.9289 13.6027 29.7866 12.7653C29.6828 12.1561 29.1136 11.7397 28.5016 11.8253C28.3472 11.8469 28.1916 11.8577 28.0357 11.8576C26.2014 11.8576 24.7143 10.3706 24.7143 8.53616C24.7143 7.67941 25.0385 6.87644 25.6128 6.2643C26.0355 5.81369 26.0236 5.10873 25.5858 4.67269C23.9391 3.03241 21.9328 1.79127 19.7214 1.05848C19.0771 0.844979 18.3898 1.23677 18.2452 1.89991C17.9156 3.41216 16.5693 4.50955 15 4.50955C13.4307 4.50955 12.0844 3.41216 11.7548 1.89991C11.6102 1.23677 10.9229 0.84498 10.2786 1.05844C8.15504 1.76212 6.21989 2.93477 4.61029 4.48084C4.14093 4.93169 4.14225 5.68291 4.61321 6.13209C5.26721 6.7558 5.64286 7.61462 5.64286 8.53616C5.64286 10.3706 4.15579 11.8576 2.32143 11.8576C2.07822 11.8578 1.83572 11.8314 1.59825 11.7789C0.962357 11.6379 0.337429 12.0561 0.225143 12.6976C0.0757142 13.5514 0 14.4212 0 15.3C0 16.5943 0.164214 17.8679 0.485428 19.0985C0.634536 19.6698 1.19421 20.0334 1.77679 19.9376C1.95529 19.9082 2.13714 19.8933 2.32143 19.8933C4.15579 19.8933 5.64286 21.3804 5.64286 23.2147C5.64286 23.9158 5.42643 24.5813 5.02893 25.1392C4.68632 25.6201 4.76639 26.2828 5.21375 26.6682C6.70743 27.9551 8.44086 28.9384 10.3189 29.5548C10.9469 29.7609 11.6182 29.393 11.7824 28.7528C12.1556 27.297 13.4746 26.2596 15 26.2596C16.5254 26.2596 17.8444 27.297 18.2176 28.7528C18.3818 29.393 19.0531 29.7609 19.6811 29.5548ZM10.5357 15.296C10.5357 17.7616 12.5344 19.7603 15 19.7603C17.4656 19.7603 19.4643 17.7616 19.4643 15.296C19.4643 12.8304 17.4656 10.8317 15 10.8317C12.5344 10.8317 10.5357 12.8304 10.5357 15.296Z" fill="#333333"/>
</svg>
