<svg width="30" height="30" viewBox="0 0 30 30" fill="none" xmlns="http://www.w3.org/2000/svg">
<g clip-path="url(#clip0_3410_14)">
<path d="M16.7368 11.5263C18.9169 11.5263 20.6842 9.75901 20.6842 7.57896C20.6842 5.39891 18.9169 3.63159 16.7368 3.63159C14.5568 3.63159 12.7894 5.39891 12.7894 7.57896C12.7894 9.75901 14.5568 11.5263 16.7368 11.5263ZM8.05259 28.8947C10.2326 28.8947 12 27.1274 12 24.9474C12 22.7673 10.2326 21 8.05259 21C5.87254 21 4.10522 22.7673 4.10522 24.9474C4.10522 27.1274 5.87254 28.8947 8.05259 28.8947ZM25.7763 28.8158C27.9563 28.8158 29.7236 27.0485 29.7236 24.8684C29.7236 22.6884 27.9563 20.9211 25.7763 20.9211C23.5962 20.9211 21.8289 22.6884 21.8289 24.8684C21.8289 27.0485 23.5962 28.8158 25.7763 28.8158Z" fill="#89BEF5" fill-opacity="0.8"/>
<path d="M15 0C18.4881 0 21.3158 2.82766 21.3158 6.31579C21.3158 8.77042 19.9155 10.8979 17.8702 11.9432L20.3553 18.316C21.3219 17.7154 22.4625 17.3684 23.6842 17.3684C27.1723 17.3684 30 20.1961 30 23.6842C30 27.1723 27.1723 30 23.6842 30C20.5387 30 17.9304 27.7005 17.4483 24.6908H12.5517C12.0696 27.7005 9.46133 30 6.31579 30C2.82766 30 0 27.1723 0 23.6842C0 20.1961 2.82766 17.3684 6.31579 17.3684C7.63903 17.3684 8.86721 17.7754 9.88204 18.471C10.5419 16.6076 11.6166 13.5823 12.2037 11.9803C10.1183 10.9489 8.68421 8.79983 8.68421 6.31579C8.68421 2.82766 11.5119 0 15 0ZM6.31579 19.8947C4.22293 19.8947 2.52632 21.5914 2.52632 23.6842C2.52632 25.7771 4.22293 27.4737 6.31579 27.4737C8.40864 27.4737 10.1053 25.7771 10.1053 23.6842C10.1053 21.5914 8.40864 19.8947 6.31579 19.8947ZM23.6842 19.8947C21.5914 19.8947 19.8947 21.5914 19.8947 23.6842C19.8947 25.7771 21.5914 27.4737 23.6842 27.4737C25.7771 27.4737 27.4737 25.7771 27.4737 23.6842C27.4737 21.5914 25.7771 19.8947 23.6842 19.8947ZM15.7167 12.5913C15.2557 12.6433 14.7904 12.645 14.329 12.5962L11.6016 20.2263C12.0061 20.8428 12.2988 21.5257 12.4665 22.2437L17.5052 22.3711C17.6891 21.5014 18.052 20.6978 18.5535 20.0005L15.7167 12.5913ZM15 2.52632C12.9071 2.52632 11.2105 4.22293 11.2105 6.31579C11.2105 8.40864 12.9071 10.1053 15 10.1053C17.0929 10.1053 18.7895 8.40864 18.7895 6.31579C18.7895 4.22293 17.0929 2.52632 15 2.52632Z" fill="#333333"/>
</g>
<defs>
<clipPath id="clip0_3410_14">
<rect width="30" height="30" fill="white"/>
</clipPath>
</defs>
</svg>
