<svg width="30" height="30" viewBox="0 0 30 30" fill="none" xmlns="http://www.w3.org/2000/svg">
<path d="M0 15C0 18.9782 1.58035 22.7936 4.3934 25.6066C7.20644 28.4196 11.0218 30 15 30C18.9782 30 22.7936 28.4196 25.6066 25.6066C28.4196 22.7936 30 18.9782 30 15C30 11.0218 28.4196 7.20644 25.6066 4.3934C22.7936 1.58035 18.9782 0 15 0C11.0218 0 7.20644 1.58035 4.3934 4.3934C1.58035 7.20644 0 11.0218 0 15Z" fill="white"/>
<path d="M0 15C0 18.9782 1.58035 22.7936 4.3934 25.6066C7.20644 28.4196 11.0218 30 15 30C18.9782 30 22.7936 28.4196 25.6066 25.6066C28.4196 22.7936 30 18.9782 30 15C30 11.0218 28.4196 7.20644 25.6066 4.3934C22.7936 1.58035 18.9782 0 15 0C11.0218 0 7.20644 1.58035 4.3934 4.3934C1.58035 7.20644 0 11.0218 0 15Z" fill="#FFCC00" fill-opacity="0.1"/>
<path d="M7.14288 22.5063C7.17378 19.7164 9.93688 17.4014 13.5762 16.9153L14.1323 18.2454H15.8538L16.4107 16.9135C20.0416 17.3936 22.8036 19.6936 22.8572 22.4714C20.7322 24.2715 17.9825 25.3571 14.9793 25.3571C11.9956 25.3571 9.26213 24.2856 7.14288 22.5063ZM15.7267 18.8486H14.2423L13.5002 22.7076L14.9845 24.5629L16.4688 22.7076L15.7267 18.8486ZM20.6875 10.9204C20.4046 13.8119 17.9663 16.0714 15.0003 16.0714C12.2527 16.0714 9.95803 14.1325 9.40999 11.5484C9.3271 11.1567 9.28542 10.7575 9.28563 10.3571C9.28563 7.20118 11.8442 4.64282 15.0003 4.64282C18.1564 4.64282 20.715 7.20118 20.715 10.3571C20.715 10.5472 20.7057 10.7351 20.6875 10.9204ZM19.5288 10.9889C17.9357 10.9391 16.4906 10.3026 15.4023 9.28825C14.2044 10.6184 12.5014 11.4848 10.5954 11.5854C11.132 13.5136 12.9008 14.9285 15.0003 14.9285C17.3109 14.9285 19.2211 13.2146 19.5288 10.9889Z" fill="#FFCC00"/>
</svg>
