<svg width="30" height="30" viewBox="0 0 30 30" fill="none" xmlns="http://www.w3.org/2000/svg">
<path d="M2.11774 26.1557C0.505998 28.1997 0 30 0 30C0 30 1.79914 29.4937 3.84195 27.8809C4.60195 27.2796 8.731 23.5077 11.4308 21.1927C11.6846 20.9751 11.7001 20.5879 11.4637 20.3514L9.64357 18.5301C9.40703 18.2934 9.01939 18.3089 8.80164 18.563C6.48622 21.2644 2.70095 25.3952 2.11774 26.1557ZM19.9968 3.91478L12.9971 8.86808C12.708 9.07258 12.6727 9.48801 12.9229 9.73847L20.2483 17.0684C20.4988 17.319 20.9146 17.2836 21.1191 16.9943L26.0689 9.99069L26.6499 10.572C27.4183 11.3409 28.6552 11.3409 29.4236 10.572C30.192 9.80319 30.192 8.56548 29.4236 7.79663L22.2082 0.576763C21.4399 -0.192091 20.203 -0.192091 19.4346 0.576763C18.6662 1.34565 18.6662 2.58333 19.4346 3.35218L19.9968 3.91478ZM5.54141 8.7283C5.40483 8.59162 5.20616 8.52751 5.02548 8.59587C4.77994 8.6888 4.54948 8.83262 4.34795 9.0343C3.57956 9.80319 3.57956 11.0409 4.34795 11.8097L18.1789 25.6493C18.9473 26.4182 20.1842 26.4182 20.9526 25.6493C21.1543 25.4476 21.2981 25.2168 21.3909 24.9709C21.4591 24.7904 21.3951 24.5919 21.2587 24.4553L5.54141 8.7283ZM27.0247 28.4435C26.6686 28.4435 26.3126 28.3123 26.0314 28.0309L1.94906 3.95228C1.40557 3.40846 1.40557 2.50833 1.94906 1.96447C2.49256 1.42065 3.39216 1.42065 3.93563 1.96447L28.018 26.0619C28.5615 26.6057 28.5615 27.5059 28.018 28.0497C27.7556 28.3123 27.3995 28.4435 27.0247 28.4435Z" fill="#333333"/>
</svg>
