<svg width="30" height="30" viewBox="0 0 30 30" fill="none" xmlns="http://www.w3.org/2000/svg">
<g clip-path="url(#clip0_45_50)">
<path d="M29.7165 0.33475L29.759 0.377251C30.2053 0.823549 30.2053 1.54721 29.759 1.99351L2.08727 29.6653C1.64093 30.1116 0.917307 30.1116 0.470974 29.6653L0.428473 29.6228C-0.0178244 29.1764 -0.0178244 28.4528 0.428473 28.0065L28.1002 0.33475C28.5465 -0.111583 29.2702 -0.111583 29.7165 0.33475ZM21.3328 11.5893V22.5321C21.3328 25.4417 18.7745 25.4999 18.6722 25.5011H7.40955L21.3328 11.5893H21.3328ZM18.6722 4.53129C18.7541 4.53225 20.4088 4.57086 21.0666 6.12297L1.85455 25.3192C1.08378 25.0397 0.105929 24.3302 0.105929 22.5304V7.50201C0.105929 4.59068 2.66421 4.53247 2.76657 4.53129H18.6722ZM29.6221 5.91043V5.91218C29.8858 6.00122 30.0668 6.25548 30.0733 6.54581V23.4589C30.0733 23.7295 29.9834 24.0001 29.712 24.0908C29.5322 24.1816 29.4406 24.1816 29.3507 24.1816C29.1852 24.1782 29.0261 24.114 28.9012 24.0001L22.8529 19.2974C22.6713 19.2066 22.5815 18.9361 22.5815 18.7563V11.2467C22.5815 11.0652 22.6713 10.8854 22.8528 10.7056L28.8996 6.00119C29.081 5.81964 29.3507 5.81964 29.6221 5.91043H29.6221Z" fill="#333333"/>
</g>
<defs>
<clipPath id="clip0_45_50">
<rect width="30" height="30" fill="white"/>
</clipPath>
</defs>
</svg>
