<svg width="30" height="30" viewBox="0 0 30 30" fill="none" xmlns="http://www.w3.org/2000/svg">
<g clip-path="url(#clip0_45_18)">
<path d="M15 0C6.71575 0 0 6.71575 0 15C0 23.2842 6.71575 30 15 30C23.2842 30 30 23.2842 30 15C30 6.71575 23.2842 0 15 0ZM22.4622 20.0378C23.1316 20.7073 23.1316 21.7927 22.4622 22.4622C22.1274 22.7969 21.6887 22.9643 21.25 22.9643C20.8113 22.9643 20.3726 22.7969 20.0378 22.4622L15 17.4244L9.96218 22.4622C9.62743 22.797 9.18871 22.9644 8.75 22.9644C8.31129 22.9644 7.87257 22.797 7.53782 22.4622C6.86832 21.7928 6.86832 20.7073 7.53782 20.0379L12.5756 15L7.53782 9.96218C6.86836 9.29268 6.86836 8.20729 7.53782 7.53779C8.20732 6.86832 9.29271 6.86832 9.96221 7.53779L15 12.5756L20.0378 7.53779C20.7073 6.86832 21.7927 6.86829 22.4622 7.53779C23.1317 8.20729 23.1317 9.29268 22.4622 9.96214L17.4244 15L22.4622 20.0378Z" fill="#333333"/>
</g>
<defs>
<clipPath id="clip0_45_18">
<rect width="30" height="30" fill="white"/>
</clipPath>
</defs>
</svg>
