<svg width="30" height="30" viewBox="0 0 30 30" fill="none" xmlns="http://www.w3.org/2000/svg">
<path d="M22.3571 9.57143C22.3571 4.58571 20.0376 2.28571 15 2.28571C10.0127 2.28571 7.68954 4.53996 7.64357 9.42268L7.64286 9.57143V10.7143H5.35714V9.57143C5.35714 3.31904 8.70429 0 15 0C21.2327 0 24.5756 3.25296 24.6419 9.38475L24.6429 9.57143V10.7143H26.2857C28.3371 10.7143 30 12.201 30 14.035V26.6793C30 28.5132 28.3371 30 26.2857 30H3.71429C1.66293 30 0 28.5133 0 26.6793V14.035C0 12.2011 1.66293 10.7143 3.71429 10.7143H22.3571V9.57143Z" fill="#333333"/>
</svg>
