<svg width="30" height="30" viewBox="0 0 30 30" fill="none" xmlns="http://www.w3.org/2000/svg">
<path fill-rule="evenodd" clip-rule="evenodd" d="M2 3.75C2 1.6875 3.76061 0 5.91314 0H24.3369C26.4875 0 28.25 1.6875 28.25 3.75V26.25C28.25 28.3125 26.4875 30 24.3369 30H5.91311C3.76064 30 2 28.3125 2 26.25V3.75ZM26.2925 7.0625H3.95564L3.9556 22.0625H26.2925V7.0625ZM16.1863 25.7813C16.1863 26.5313 15.5 27.1875 14.7181 27.1875C13.9362 27.1875 13.25 26.5313 13.25 25.7813C13.25 25.0313 13.9362 24.375 14.7181 24.375C15.5 24.375 16.1863 25.0313 16.1863 25.7813Z" fill="#333333"/>
</svg>
