<svg width="30" height="30" viewBox="0 0 30 30" fill="none" xmlns="http://www.w3.org/2000/svg">
<g clip-path="url(#clip0_45_51)">
<path d="M23.188 16.9062C23.7403 16.9062 24.1881 17.354 24.1881 17.9062C24.1881 18.0287 24.1661 18.146 24.1258 18.2545L24.1277 18.2551C22.9011 21.6938 19.7863 24.2359 16.0316 24.6333L16.0316 26.125H19.6255C20.1778 26.125 20.6255 26.5727 20.6255 27.125C20.6255 27.6773 20.1778 28.125 19.6255 28.125H10.3752C9.82288 28.125 9.37516 27.6773 9.37516 27.125C9.37516 26.5727 9.82288 26.125 10.3752 26.125H14.0315L14.0315 24.6397C12.3569 24.4734 10.8078 23.8807 9.49416 22.9718L10.9394 21.5278C12.1236 22.265 13.5185 22.6875 15.0003 22.6875C18.2832 22.6875 21.1392 20.6137 22.2242 17.6391C22.341 17.2165 22.7283 16.9062 23.188 16.9062ZM27.795 2.16847L27.8322 2.20566C28.2188 2.59225 28.2227 3.21669 27.8438 3.60806L27.8322 3.61984L3.61972 27.8317C3.22919 28.2222 2.59603 28.2222 2.2055 27.8317L2.16832 27.7945C1.78169 27.4079 1.77785 26.7834 2.15672 26.3921L2.16835 26.3802L26.3808 2.16844C26.7713 1.77794 27.4045 1.77794 27.795 2.16847ZM20.6254 11.8499L20.6255 15C20.6255 18.1066 18.107 20.625 15.0003 20.625C14.0831 20.625 13.2173 20.4055 12.4523 20.0162L20.6254 11.8499ZM6.8126 16.9062C7.26778 16.9062 7.65194 17.2104 7.77297 17.6265L7.77638 17.6388L7.77653 17.6392L7.77647 17.6391L7.77453 17.6338C7.94924 18.1138 8.17171 18.5751 8.4386 19.0107L6.99319 20.4549C6.5272 19.7726 6.15072 19.0333 5.87297 18.2551L5.87485 18.2544C5.83352 18.143 5.81243 18.0251 5.81257 17.9062C5.81257 17.354 6.26028 16.9062 6.8126 16.9062ZM15.0003 1.875C17.8938 1.875 20.277 4.05953 20.5905 6.86919L9.95675 17.4937C9.58444 16.7422 9.37516 15.8955 9.37516 15V7.5C9.37516 4.39341 11.8936 1.875 15.0003 1.875Z" fill="#333333"/>
<path d="M24.451 17.1786C25.0822 17.1786 25.5938 17.6903 25.5938 18.3214C25.5938 18.4614 25.5687 18.5955 25.5227 18.7194L25.5248 18.7201C24.1231 22.65 20.5633 25.5554 16.2722 26.0094L16.2721 27.7143H20.3795C21.0106 27.7143 21.5223 28.226 21.5223 28.8571C21.5223 29.4883 21.0106 30 20.3795 30H9.80767C9.17649 30 8.66481 29.4883 8.66481 28.8571C8.66481 28.226 9.17649 27.7143 9.80767 27.7143H13.9863L13.9863 26.0168C12.0725 25.8267 10.3021 25.1494 8.80081 24.1106L10.4525 22.4604C11.8059 23.3029 13.4001 23.7857 15.0936 23.7857C18.8454 23.7857 22.1095 21.4157 23.3494 18.0161C23.4829 17.5331 23.9255 17.1786 24.451 17.1786ZM29.7161 0.335393L29.7586 0.377893C30.2004 0.819714 30.2048 1.53336 29.7718 1.98064L29.7586 1.99411L2.08717 29.6647C1.64085 30.111 0.91724 30.111 0.470919 29.6647L0.428419 29.6222C-0.0134383 29.1804 -0.0178313 28.4667 0.415169 28.0195L0.428455 28.006L28.0998 0.335357C28.5461 -0.110929 29.2697 -0.110929 29.7161 0.335393ZM21.5223 11.3999L21.5223 15C21.5223 18.5504 18.6441 21.4286 15.0936 21.4286C14.0453 21.4286 13.0558 21.1777 12.1816 20.7328L21.5223 11.3999ZM5.73617 17.1786C6.25638 17.1786 6.69542 17.5261 6.83374 18.0017L6.83763 18.0157L6.83781 18.0162L6.83774 18.0161L6.83553 18.01C7.03519 18.5586 7.28944 19.0858 7.59445 19.5836L5.94256 21.2341C5.41 20.4544 4.97973 19.6094 4.66231 18.7201L4.66445 18.7194C4.61722 18.592 4.59312 18.4573 4.59328 18.3214C4.59328 17.6903 5.10495 17.1786 5.73617 17.1786ZM15.0936 0C18.4003 0 21.124 2.49661 21.4823 5.70764L9.32949 17.85C8.90399 16.9911 8.66481 16.0235 8.66481 15V6.42857C8.66481 2.87818 11.5431 0 15.0936 0Z" fill="#333333"/>
</g>
<defs>
<clipPath id="clip0_45_51">
<rect width="30" height="30" fill="white"/>
</clipPath>
</defs>
</svg>
