<svg width="30" height="30" viewBox="0 0 30 30" fill="none" xmlns="http://www.w3.org/2000/svg">
<path d="M7.25539 0L14.1722 4.0241L7.03532 8.04486V16.3073L0 12.2832V4.13124L7.25539 0Z" fill="#333333"/>
<path d="M15.0525 19.7857L9.66597 16.7425L15.0525 13.6993L20.439 16.7425L15.0525 19.7857Z" fill="#333333"/>
<path d="M22.8564 0.0032959L30 4.13453V12.2865L23.0832 16.3106V8.05151L15.9395 4.0274L22.8564 0.0032959Z" fill="#333333"/>
<path d="M7.90548 17.7201H8.01721L15.0458 21.7408L22.0811 17.7201H22.1928V25.9792L15.0491 30L7.90548 25.9792V17.7201Z" fill="#333333"/>
<path d="M21.3192 15.4369V9.01569L15.7126 5.87207V12.2832L21.3192 15.4369Z" fill="#333333"/>
<path d="M14.4024 5.87207L8.79579 9.01569V15.4268L14.4024 12.2765V5.87207Z" fill="#333333"/>
</svg>
