<svg width="30" height="30" viewBox="0 0 30 30" fill="none" xmlns="http://www.w3.org/2000/svg">
<path d="M19.9643 15.5598C22.1474 14.0061 23.5714 11.4551 23.5714 8.57143C23.5714 3.83756 19.7339 0 15 0C10.2661 0 6.42857 3.83756 6.42857 8.57143C6.42857 11.4235 7.82155 13.9502 9.96429 15.5084V19.2857H3.57143C1.59898 19.2857 0 20.8847 0 22.8571C0 24.8296 1.59898 26.4286 3.57143 26.4286H26.4286C28.401 26.4286 30 24.8296 30 22.8571C30 20.8847 28.401 19.2857 26.4286 19.2857H19.9643V15.5598Z" fill="#333333"/>
<path d="M2.82143 28.8571C2.82143 28.226 3.3331 27.7143 3.96429 27.7143H25.9643C26.5955 27.7143 27.1071 28.226 27.1071 28.8571C27.1071 29.4883 26.5955 30 25.9643 30H3.96429C3.3331 30 2.82143 29.4883 2.82143 28.8571Z" fill="#333333"/>
</svg>
