<svg width="30" height="30" viewBox="0 0 30 30" fill="none" xmlns="http://www.w3.org/2000/svg">
<path d="M15 30C23.2843 30 30 23.2843 30 15C30 6.71573 23.2843 0 15 0C6.71573 0 0 6.71573 0 15C0 23.2843 6.71573 30 15 30Z" fill="#FEF4E9"/>
<mask id="mask0_663_19" style="mask-type:alpha" maskUnits="userSpaceOnUse" x="0" y="0" width="30" height="30">
<path d="M15 30C23.2843 30 30 23.2843 30 15C30 6.71573 23.2843 0 15 0C6.71573 0 0 6.71573 0 15C0 23.2843 6.71573 30 15 30Z" fill="#794E23"/>
</mask>
<g mask="url(#mask0_663_19)">
<path d="M17.9723 16.1449C18.5145 16.2944 19.0441 16.4864 19.5561 16.719L20.6629 17.3013C23.3076 18.8947 25.1378 21.5522 25.6851 24.5935C25.7466 24.9359 25.8253 25.3534 25.5868 25.6067C22.9284 28.4516 19.0282 30 15.1369 30C11.2457 30 7.24709 28.5592 4.58876 25.7143C4.42209 25.5373 4.45831 25.2276 4.51625 24.9402L4.52231 24.9106C4.5458 24.7973 4.57171 24.6884 4.58876 24.5935C5.1554 21.4457 7.09501 18.715 9.87894 17.1457L10.9884 16.5957C11.4156 16.4163 11.8543 16.2657 12.3016 16.1449C14.0896 17.0242 16.1843 17.0242 17.9723 16.1449ZM15.8074 20.1186H14.1262L14.1163 20.1188C13.9563 20.124 13.8499 20.2564 13.8221 20.4144L13.8205 20.4243L12.6614 25.717L14.9668 27.0189L17.2595 25.717L16.1132 20.4243L16.1116 20.4146C16.0833 20.2533 15.973 20.1186 15.8074 20.1186ZM16.4102 20.3914L17.1183 23.4311L17.5959 22.6043L16.4102 20.3914ZM16.5951 17.7646H13.3258L13.3172 17.7647C13.1271 17.7691 12.9189 17.9176 12.9699 18.1093L12.9724 18.1181L13.6351 19.7528H16.2859L16.9486 18.1181L16.951 18.1093C17.0029 17.9147 16.7874 17.7646 16.5951 17.7646ZM15.1369 5C18.0971 5 20.4967 7.40238 20.4967 10.3659C20.4967 13.3293 18.0971 15.7317 15.1369 15.7317C12.1768 15.7317 9.77709 13.3293 9.77709 10.3659C9.77709 7.40238 12.1767 5 15.1369 5Z" fill="#794E23"/>
</g>
</svg>
