<svg width="30" height="30" viewBox="0 0 30 30" fill="none" xmlns="http://www.w3.org/2000/svg">
<g clip-path="url(#clip0_3102_465)">
<path d="M21.662 17.1812C20.9416 18.2829 20.2852 19.2757 19.693 20.1595C19.4498 20.5369 19.2001 20.91 18.9439 21.2787C18.6886 21.6461 18.4594 21.9819 18.2561 22.2861C18.0832 22.5452 17.9091 22.8035 17.7336 23.0609C17.5885 23.2733 17.4985 23.4082 17.4636 23.4655C17.2666 23.7298 17.0633 23.8321 16.8538 23.7725C16.6442 23.7129 16.4554 23.599 16.2872 23.4308C16.2311 23.3747 16.17 23.2732 16.1038 23.1263C16.0376 22.9794 15.988 22.8664 15.955 22.7873L14.1939 15.7675C12.9133 15.4557 11.7576 15.1648 10.7266 14.8949C10.2881 14.7769 9.84907 14.6608 9.40956 14.5466C8.97337 14.4333 8.57391 14.3337 8.21126 14.2478C7.84857 14.1619 7.53982 14.0838 7.28494 14.0134C7.03009 13.9431 6.8631 13.8914 6.78396 13.8584C6.61414 13.8039 6.47902 13.7091 6.37857 13.5741C6.27812 13.439 6.21483 13.2893 6.1887 13.1247C6.16256 12.9602 6.17609 12.8065 6.22925 12.6636C6.2824 12.5208 6.37211 12.4086 6.4983 12.3273C6.63857 12.2425 6.77905 12.1581 6.91975 12.0741C7.14332 11.9402 7.40713 11.7773 7.71117 11.5854C8.04786 11.3733 8.38623 11.1639 8.72627 10.9572C9.10659 10.7257 9.48789 10.4958 9.87017 10.2675C10.8676 9.65015 11.8655 9.03355 12.8638 8.41772C12.7903 7.16791 12.7207 6.04885 12.6549 5.06049C12.6266 4.64015 12.5983 4.22552 12.5699 3.81656C12.544 3.4475 12.5207 3.07826 12.5001 2.70886C12.482 2.37937 12.4658 2.1095 12.4517 1.89934C12.4376 1.68919 12.4307 1.57271 12.431 1.54997C12.423 1.29138 12.4496 1.03288 12.51 0.781326C12.5703 0.530335 12.6924 0.335318 12.8763 0.196311C13.0602 0.0572681 13.2487 -0.00788031 13.4419 0.000758543C13.6351 0.00943311 13.8049 0.0639436 13.9513 0.164254L19.6335 4.87772L26.2039 2.17632C26.4557 2.05909 26.7096 1.99584 26.9656 1.98659C27.2216 1.97731 27.4561 2.07923 27.6691 2.29231C27.7813 2.40443 27.8535 2.52852 27.8857 2.66453C27.9179 2.80053 27.9275 2.93115 27.9143 3.05642C27.9012 3.18172 27.8797 3.29852 27.8497 3.40697C27.8198 3.51542 27.793 3.60391 27.7693 3.67249L25.0174 10.1924L29.7136 15.8919C29.8802 16.1738 29.968 16.4 29.977 16.5705C29.986 16.7409 29.904 16.9126 29.7311 17.0856C29.5696 17.2471 29.3806 17.3407 29.1642 17.3664C28.9478 17.3922 28.6803 17.4187 28.3615 17.4459L21.662 17.1812Z" fill="#F7981D"/>
<path d="M0.355469 22.1677C-0.11849 21.6937 -0.11849 20.9252 0.355469 20.4512L5.45804 15.3486C5.93203 14.8747 6.70053 14.8747 7.17453 15.3486C7.64849 15.8226 7.64849 16.5911 7.17453 17.0651L2.07196 22.1677C1.59797 22.6417 0.829464 22.6417 0.355469 22.1677ZM0.355469 29.6446C-0.11849 29.1706 -0.11849 28.4021 0.355469 27.9281L9.97202 18.3115C10.446 17.8376 11.2145 17.8376 11.6885 18.3115C12.1625 18.7855 12.1625 19.554 11.6885 20.028L2.07196 29.6446C1.59797 30.1185 0.829464 30.1185 0.355469 29.6446ZM7.8877 29.6438C7.41374 29.1698 7.41374 28.4014 7.8877 27.9274L11.2207 24.5944C11.6947 24.1204 12.4632 24.1204 12.9372 24.5944C13.4112 25.0683 13.4112 25.8369 12.9372 26.3108L9.60419 29.6438C9.13019 30.1178 8.36169 30.1178 7.8877 29.6438Z" fill="#8DADF9"/>
</g>
<defs>
<clipPath id="clip0_3102_465">
<rect width="30" height="30" fill="white"/>
</clipPath>
</defs>
</svg>
