<svg width="30" height="30" viewBox="0 0 30 30" fill="none" xmlns="http://www.w3.org/2000/svg">
<g clip-path="url(#clip0_2986_5)">
<path d="M11.25 26.25C11.25 28.3211 12.9289 30 15 30C17.0711 30 18.75 28.3211 18.75 26.25V18.75H26.25C28.3211 18.75 30 17.0711 30 15C30 12.9289 28.3211 11.25 26.25 11.25H18.75V3.75C18.75 1.67893 17.0711 0 15 0C12.9289 0 11.25 1.67893 11.25 3.75V11.25H3.75C1.67893 11.25 0 12.9289 0 15C0 17.0711 1.67893 18.75 3.75 18.75H11.25V26.25Z" fill="#333333"/>
</g>
<defs>
<clipPath id="clip0_2986_5">
<rect width="30" height="30" fill="white"/>
</clipPath>
</defs>
</svg>
