<svg width="30" height="30" viewBox="0 0 30 30" fill="none" xmlns="http://www.w3.org/2000/svg">
<g clip-path="url(#clip0_1680_123)">
<path d="M0 8.57143C0 3.83757 3.83757 0 8.57143 0H21.4286C26.1624 0 30 3.83757 30 8.57143V21.4286C30 26.1624 26.1624 30 21.4286 30H8.57143C3.83757 30 0 26.1624 0 21.4286V8.57143Z" fill="white"/>
<path d="M0 8.57143C0 3.83757 3.83757 0 8.57143 0H21.4286C26.1624 0 30 3.83757 30 8.57143V21.4286C30 26.1624 26.1624 30 21.4286 30H8.57143C3.83757 30 0 26.1624 0 21.4286V8.57143Z" fill="#FFCC00" fill-opacity="0.1"/>
<path d="M8.14288 6.42859C7.19609 6.42859 6.42859 7.19609 6.42859 8.14287V21.8572C6.42859 22.8039 7.19609 23.5714 8.14288 23.5714H16.6127C16.0234 22.7129 15.6786 21.6735 15.6786 20.5536C15.6786 17.7067 17.9067 15.3802 20.7143 15.2228V8.14287C20.7143 7.19609 19.9468 6.42859 19 6.42859H8.14288ZM8.7143 10.3572C8.7143 9.96266 9.03409 9.64287 9.42859 9.64287H16.5714C16.9659 9.64287 17.2857 9.96266 17.2857 10.3572C17.2857 10.7517 16.9659 11.0714 16.5714 11.0714H9.42859C9.03409 11.0714 8.7143 10.7517 8.7143 10.3572ZM9.42859 14.2143C9.03409 14.2143 8.7143 13.8945 8.7143 13.5C8.7143 13.1055 9.03409 12.7857 9.42859 12.7857H15.1429C15.5374 12.7857 15.8572 13.1055 15.8572 13.5C15.8572 13.8945 15.5374 14.2143 15.1429 14.2143H9.42859ZM8.7143 16.6429C8.7143 16.2484 9.03409 15.9286 9.42859 15.9286H13.7143C14.1088 15.9286 14.4286 16.2484 14.4286 16.6429C14.4286 17.0374 14.1088 17.3572 13.7143 17.3572H9.42859C9.03409 17.3572 8.7143 17.0374 8.7143 16.6429Z" fill="#FFCC00"/>
<path d="M20.15 23.5358C18.2603 23.5358 16.7285 22.0039 16.7285 20.1143C16.7285 18.2247 18.2603 16.6929 20.15 16.6929C22.0396 16.6929 23.5714 18.2247 23.5714 20.1143C23.5714 22.0039 22.0396 23.5358 20.15 23.5358ZM18.3753 20.5386H20.7474V20.9083C20.7474 21.1143 20.8769 21.1826 21.0393 21.0586L21.9152 20.39C22.0765 20.2669 22.0776 20.0684 21.9152 19.9443L21.0393 19.2756C20.878 19.1527 20.7474 19.2204 20.7474 19.426V19.7958H18.3753C18.3511 19.7958 18.3272 19.8006 18.305 19.8101C18.2827 19.8196 18.2625 19.8334 18.2456 19.8508C18.2286 19.8683 18.2152 19.889 18.2062 19.9117C18.1971 19.9345 18.1926 19.9588 18.1928 19.9833V20.351C18.1928 20.4546 18.274 20.5386 18.3753 20.5386Z" fill="#FFCC00" fill-opacity="0.4"/>
</g>
<defs>
<clipPath id="clip0_1680_123">
<rect width="30" height="30" fill="white"/>
</clipPath>
</defs>
</svg>
