<svg width="30" height="30" viewBox="0 0 30 30" fill="none" xmlns="http://www.w3.org/2000/svg">
<path d="M15.8934 9.74068C15.8934 6.5702 13.1848 4 9.84369 4C6.50251 4 3.79394 6.5702 3.79394 9.74068C3.79394 12.8035 6.32176 15.3058 9.50565 15.4722C8.29489 15.5191 7.1201 15.798 6.00832 16.3035C4.8312 16.8386 3.77523 17.6033 2.8698 18.5764C1.96855 19.545 1.26136 20.6719 0.767877 21.9258C0.258343 23.2206 0 24.5949 0 26.0105C0 26.4931 0.391251 26.8843 0.87386 26.8843C1.3565 26.8843 1.74772 26.4931 1.74772 26.0105C1.74772 23.6487 2.60063 21.4314 4.14932 19.767C5.68182 18.12 7.71441 17.2128 9.87266 17.2128C10.8251 17.2128 11.7575 17.3895 12.644 17.7379C13.0932 17.9144 13.6004 17.6934 13.7769 17.2442C13.9535 16.795 13.7324 16.2878 13.2832 16.1112C12.2932 15.7221 11.2565 15.5077 10.1971 15.4713C13.3738 15.2976 15.8934 12.7985 15.8934 9.74068ZM9.84369 13.7336C7.47155 13.7336 5.54169 11.9424 5.54169 9.74068C5.54169 7.53895 7.47155 5.74775 9.84369 5.74775C12.2158 5.74775 14.1457 7.53899 14.1457 9.74068C14.1457 11.9424 12.2158 13.7336 9.84369 13.7336ZM19.2796 22.3031L16.2041 20.5274C16.1045 20.4699 15.9915 20.4396 15.8764 20.4396C15.7614 20.4396 15.6484 20.4699 15.5487 20.5274C15.4491 20.585 15.3664 20.6677 15.3088 20.7673C15.2513 20.8669 15.221 20.9799 15.221 21.095V22.0133H9.77633C9.29372 22.0133 8.90247 22.4045 8.90247 22.8871C8.90247 23.3698 9.29372 23.761 9.77633 23.761H15.221V24.6463C15.221 24.7614 15.2512 24.8744 15.3088 24.9741C15.3663 25.0737 15.449 25.1565 15.5487 25.214C15.6483 25.2716 15.7613 25.3018 15.8764 25.3018C15.9915 25.3018 16.1045 25.2715 16.2041 25.2139L19.2796 23.4383C19.3793 23.3808 19.462 23.298 19.5196 23.1984C19.5771 23.0988 19.6074 22.9857 19.6074 22.8707C19.6074 22.7556 19.5771 22.6426 19.5196 22.543C19.462 22.4433 19.3793 22.3606 19.2796 22.3031Z" fill="#F5A623"/>
<path d="M21.2396 16.5387H26.5672C26.8832 16.5387 27.1394 16.7948 27.1394 17.1108C27.1394 17.4268 26.8832 17.6829 26.5672 17.6829H21.2396C20.9236 17.6829 20.6674 17.4268 20.6674 17.1108C20.6674 16.7948 20.9236 16.5387 21.2396 16.5387ZM25.7093 5.28723C28.0789 5.28723 30 7.20844 30 9.57822V21.3061C30 23.6759 28.0789 25.5971 25.7093 25.5971H24.1358C23.6619 25.5971 23.2777 25.2129 23.2777 24.7389C23.2777 24.265 23.6619 23.8807 24.1358 23.8807H25.7093C27.131 23.8807 28.2837 22.728 28.2837 21.3061V9.57822C28.2837 8.15632 27.131 7.00356 25.7093 7.00356H19.9165C19.4426 7.00356 19.0584 6.61935 19.0584 6.14539C19.0584 5.67144 19.4426 5.28723 19.9165 5.28723H25.7093ZM19.13 14.3456C18.814 14.3456 18.5578 14.0895 18.5578 13.7735C18.5578 13.4575 18.814 13.2014 19.13 13.2014H26.5672C26.8832 13.2014 27.1394 13.4575 27.1394 13.7735C27.1394 14.0895 26.8832 14.3456 26.5672 14.3456H19.13ZM26.5674 21.0202H23.4205C23.1046 21.0202 22.8485 20.7642 22.8485 20.4481C22.8485 20.1321 23.1049 19.876 23.4205 19.876H26.5674C26.8833 19.876 27.1394 20.132 27.1394 20.4481C27.1394 20.7641 26.883 21.0202 26.5674 21.0202ZM26.5676 11.0083H19.9877C19.6719 11.0083 19.4159 10.7522 19.4159 10.4362C19.4159 10.1203 19.6718 9.8641 19.9877 9.8641H26.5676C26.8834 9.8641 27.1394 10.1202 27.1394 10.4362C27.1394 10.7522 26.8835 11.0083 26.5676 11.0083Z" fill="#999999"/>
</svg>
