<svg width="30" height="30" viewBox="0 0 30 30" fill="none" xmlns="http://www.w3.org/2000/svg">
<path d="M18.481 13.3739C19.1317 13.5533 19.7672 13.7837 20.3816 14.0629V17.0152C19.0828 17.35 18.2355 18.5997 18.404 19.9318C18.5726 21.2638 19.7045 22.2625 21.0457 22.2625C22.3869 22.2625 23.5188 21.2638 23.6873 19.9318C23.8559 18.5997 23.0086 17.35 21.7098 17.0152V14.7615C24.8834 16.6737 27.0797 19.8627 27.7364 23.5122C27.7728 23.7148 27.7612 23.9232 27.7026 24.1205C27.6439 24.3179 27.5399 24.4988 27.3987 24.6486C24.2087 28.0625 19.7481 30 15.0786 30C10.4091 30 5.94844 28.0625 2.75844 24.6486C2.61729 24.4988 2.51323 24.3179 2.4546 24.1205C2.39596 23.9232 2.38439 23.7148 2.42079 23.5122C3.10076 19.7348 5.4283 16.458 8.76901 14.5748V16.9411C6.72687 17.424 5.20576 19.9997 5.20576 23.2192C5.2179 23.5784 5.5124 23.8633 5.87147 23.8631H7.22855C7.59622 23.8631 7.89426 23.5647 7.89426 23.1967C7.89426 22.8286 7.59622 22.5302 7.22855 22.5302H6.58537C6.77833 20.0834 8.00358 18.1516 9.4443 18.1516C10.885 18.1516 12.1103 20.0995 12.3032 22.5302H11.6601C11.2924 22.5302 10.9944 22.8286 10.9944 23.1966C10.9944 23.5647 11.2924 23.8631 11.6601 23.8631H13.0011C13.3589 23.8616 13.6515 23.5772 13.6636 23.2192C13.6636 19.9739 12.1425 17.3983 10.1004 16.925V13.9148C10.613 13.6995 11.1394 13.5188 11.6762 13.3739C12.7348 13.8945 13.8988 14.1652 15.0786 14.1652C16.2583 14.1652 17.4223 13.8945 18.481 13.3739ZM21.0441 18.2386C21.5829 18.2373 22.0693 18.5612 22.2764 19.0592C22.4835 19.5571 22.3704 20.131 21.9899 20.5128C21.8039 20.6995 21.5667 20.8268 21.3083 20.8785C21.0499 20.9302 20.782 20.904 20.5385 20.8032C20.0407 20.5971 19.7159 20.1109 19.7159 19.5715C19.7177 18.8373 20.3108 18.2421 21.0441 18.2386V18.2386ZM15.0786 0C18.6308 0 21.5104 2.88286 21.5104 6.43904C21.5104 9.99521 18.6308 12.8781 15.0786 12.8781C11.5264 12.8781 8.6468 9.99521 8.6468 6.43904C8.6468 2.88286 11.5264 0 15.0786 0Z" fill="#333333"/>
</svg>
