<svg width="30" height="30" viewBox="0 0 30 30" fill="none" xmlns="http://www.w3.org/2000/svg">
<path d="M15.286 3.44997C15.6633 3.50896 16.0207 3.27301 16.1001 2.89942L16.4973 0.815179C16.5767 0.44159 16.3185 0.0876626 15.9413 0.00901213C15.564 -0.0499757 15.2066 0.185976 15.1272 0.559565L14.73 2.6438C14.6506 3.01739 14.9087 3.37132 15.286 3.44997Z" fill="#333333"/>
<path d="M13.1503 10.5496L13.6715 14.1677H10.9794L13.1503 10.5496Z" fill="#333333"/>
<path fill-rule="evenodd" clip-rule="evenodd" d="M8.31041 21.5112L8.03318 21.4597L7.7231 23.1249L8.23146 23.2194C8.22826 23.2495 8.22504 23.2791 8.22182 23.3081C8.14639 23.8738 10.7854 24.7411 11.7669 25.0054L7.5199 24.2162L7.29507 25.4236L11.5415 26.2128L11.3529 27.3067L7.09187 26.5149L7.01465 26.9295C7.01465 27.0427 7.0901 27.1559 7.31644 27.3445L9.91935 29.5324C10.1457 29.7211 10.5229 29.872 10.8624 29.9474L11.3543 27.3071L11.3529 27.3067L11.5415 26.2128L11.5575 26.2158L11.7826 25.0073C11.7826 25.0073 11.7827 25.0073 11.7826 25.0073L11.5575 26.2158L15.8044 27.0051C15.8115 27.0059 15.8186 27.0068 15.8257 27.0078L16.0433 25.831L11.8057 25.0434L11.8114 25.0104C12.8626 25.1229 15.5422 25.2618 15.691 24.7039C15.6965 24.6827 15.7021 24.6613 15.7078 24.6396L16.2452 24.7394L16.5587 23.044L16.269 22.9901C16.5585 22.3166 16.9317 21.6683 17.3885 21.271C21.7267 17.8382 22.0285 15.8766 22.2548 13.6887C22.7075 9.23731 19.9914 5.57814 15.6155 4.74823H15.5778C11.1642 3.91835 7.27873 6.37037 6.10931 10.6708C5.54346 12.7833 5.1285 14.7072 7.88231 19.4981C8.17984 20.0336 8.28964 20.7778 8.31041 21.5112ZM18.8901 8.66086L17.0075 17.6509H18.8595L20.736 8.66086H18.8901ZM10.3355 15.664H13.8984L14.1989 17.6509H15.9528L14.4933 8.66089H12.4389L7.35523 17.6509H9.25625L10.3355 15.664Z" fill="#333333"/>
<path d="M10.2809 3.37146C10.4953 3.68318 10.4174 4.1118 10.1055 4.32611C9.79358 4.54042 9.36472 4.46249 9.1503 4.15077L7.9612 2.41682C7.74677 2.1051 7.82475 1.67648 8.13664 1.46217C8.44853 1.24786 8.87739 1.32579 9.09182 1.63751L10.2809 3.37146Z" fill="#333333"/>
<path d="M20.7022 4.32611C20.3904 4.54042 20.3124 4.96903 20.5268 5.28076C20.7412 5.59248 21.1701 5.67041 21.482 5.4561L23.2169 4.26766C23.5288 4.05335 23.6068 3.62474 23.3923 3.31301C23.1779 3.00129 22.7491 2.92336 22.4372 3.13767L20.7022 4.32611Z" fill="#333333"/>
<path d="M6.43159 6.78812C6.5097 6.41559 6.25584 6.06268 5.8848 5.98425L3.81481 5.59212C3.44378 5.5333 3.09227 5.76858 3.01416 6.1411C2.93604 6.51363 3.18991 6.86655 3.56095 6.94497L5.63093 7.3371C6.00197 7.39593 6.35348 7.16065 6.43159 6.78812Z" fill="#333333"/>
<path d="M26.0014 9.41541C26.0795 9.04288 25.8256 8.68996 25.4546 8.61153L23.3846 8.2194C23.0135 8.16058 22.662 8.39586 22.5839 8.76839C22.5058 9.14091 22.7597 9.49383 23.1307 9.57226L25.2007 9.96439C25.5717 10.0232 25.9232 9.78793 26.0014 9.41541Z" fill="#333333"/>
<path d="M10.8624 29.9474L11.3543 27.3071L15.6158 28.099L15.6235 28.1009L15.5402 28.5516C15.5025 28.627 15.3516 28.7402 15.0875 28.8157L11.881 29.9096C11.5792 30.0228 11.2397 30.0229 10.8624 29.9474Z" fill="#333333"/>
</svg>
