<svg width="30" height="30" viewBox="0 0 30 30" fill="none" xmlns="http://www.w3.org/2000/svg">
<path d="M15 0C23.2843 0 30 6.71571 30 15C30 23.2843 23.2843 30 15 30C6.71571 30 0 23.2843 0 15C0 6.71571 6.71571 0 15 0ZM16.2418 8.577C15.5512 7.90289 14.4488 7.90289 13.7582 8.577L13.7418 8.59318L8.91889 13.4219C8.45564 13.8857 8.45564 14.6377 8.91889 15.1015C9.38211 15.5653 10.1331 15.5653 10.5964 15.1015L13.8011 11.8929V20.8571C13.8011 21.4489 14.2808 21.9286 14.8726 21.9286H15.1021C15.6939 21.9286 16.1735 21.4489 16.1735 20.8571V11.8676L19.4036 15.1015L19.4255 15.1229C19.8902 15.5651 20.6251 15.558 21.0811 15.1015C21.5371 14.6449 21.5443 13.9091 21.1025 13.4439L21.0811 13.4219L16.2582 8.59318L16.2418 8.577Z" fill="#333333"/>
</svg>
