<svg width="30" height="30" viewBox="0 0 30 30" fill="none" xmlns="http://www.w3.org/2000/svg">
<path d="M12.6483 3.42857C16.3016 3.42857 19.2634 7.0775 19.2634 11.5779C19.2634 14.4919 16.3915 17.6998 16.1554 18.4892C15.9193 19.2786 15.9 19.8965 16.1668 20.1585C16.5818 20.5659 17.6502 20.9803 17.6502 20.9803L23.2525 23.1613C24.4326 23.5845 25.3571 24.7301 25.3571 25.9845V26.5794C25.3571 27.9481 24.2443 28.7857 22.8764 28.7857H2.48054C1.11286 28.7857 0 27.9481 0 26.5794V25.9845C0 24.7304 0.9245 23.6187 2.10436 23.1952L7.15471 20.9468C7.15471 20.9468 8.52368 20.5264 8.89832 20.107C9.14789 19.8278 9.22479 18.9061 8.90879 18.3013C8.59296 17.6965 6.03379 14.3691 6.03379 11.5781C6.03375 7.07743 8.99529 3.42857 12.6483 3.42857H12.6483ZM18.7579 2C21.9895 2 24.6096 5.23775 24.6096 9.23107C24.6096 11.8168 22.0691 14.6632 21.8602 15.3636C21.6514 16.0641 21.6343 16.6124 21.8703 16.8449C22.2374 17.2064 23.1826 17.5741 23.1826 17.5741L28.1384 19.5093C29.1823 19.8848 30 20.9014 30 22.0144V22.5423C30 23.7568 29.0156 24.5 27.8055 24.5H27.2014C26.419 24.2791 26.1924 23.485 26.9058 23.1605L27.8055 22.7725C27.9126 22.7725 28.0822 22.6129 28.1383 22.3922C28.1758 22.245 28.1758 22.0974 28.1383 21.9491C28.0044 21.6799 27.8064 21.4795 27.4751 21.3604C27.4585 21.3544 27.442 21.3482 27.4256 21.3418L22.4722 19.4074C22.0747 19.2528 21.0861 18.8303 20.4945 18.2475C19.92 17.6818 19.6716 16.9155 19.7504 15.9613C19.7802 15.6009 19.8563 15.214 19.9795 14.8007C20.121 14.3261 20.405 13.8965 20.8349 13.2461C20.8829 13.1736 20.9307 13.101 20.9785 13.0284C21.6611 11.9902 22.6467 10.4186 22.6467 9.23104C22.6467 7.74925 22.1937 6.37332 21.371 5.35675C20.6457 4.46036 19.7176 3.96675 18.7579 3.96675C18.6162 3.95532 18.4652 3.95086 18.3124 3.94675L18.2665 3.9455L18.1976 3.94361C17.7689 3.93129 17.3418 3.90821 17.0851 3.72736C16.5831 3.37354 16.572 2.64371 16.9643 2.34664C17.5296 2.12189 18.1321 2 18.7579 2Z" fill="#333333"/>
</svg>
