<svg width="30" height="30" viewBox="0 0 30 30" fill="none" xmlns="http://www.w3.org/2000/svg">
<path d="M2.28571 0V0.0147143L13.9866 4.84007C14.3952 5.00254 15.3328 5.00254 15.7414 4.84007L27.7143 0.0236428V0C27.7334 0 27.7524 -4.05998e-08 27.7714 0.000714234L27.7731 0V0.000714234C29.0083 0.0319999 30 1.04307 30 2.28571V23.424C30 24.6667 29.0083 25.6778 27.7731 25.709V25.715C23.9001 25.6758 21.0097 26.0862 19.1767 26.9103C17.5542 27.6399 16.833 28.6273 16.833 30H14.5473C14.5473 29.9994 14.0949 29.9985 13.1901 29.9974C13.1901 28.6246 12.4689 27.6372 10.8464 26.9077C9.01339 26.0835 6.12304 25.6731 2.25 25.7124V25.7095C1.00411 25.6904 0 24.6745 0 23.424V2.28571C0 1.04779 0.984143 0.0397142 2.21271 0.000892792L2.25 0H2.28571ZM25.5068 15.9975C22.9472 16.5104 20.4389 17.2069 18.0068 18.0799V20.9953C20.4152 20.0651 22.9297 19.3669 25.5068 18.9129V15.9975ZM4.50021 15.9975V18.9129C7.07732 19.367 9.59179 20.0651 12.0002 20.9953V18.0799C9.56818 17.2068 7.05986 16.5104 4.50021 15.9975ZM4.50021 9.99675V12.9121C7.07736 13.3662 9.59182 14.0644 12.0002 14.9946V12.0792C9.56818 11.2061 7.05986 10.5097 4.50021 9.99675ZM25.5068 9.99671C22.9472 10.5096 20.4389 11.206 18.0068 12.0791V14.9946C20.4152 14.0643 22.9297 13.3662 25.5068 12.9121V9.99671Z" fill="#333333"/>
</svg>
