<svg width="30" height="30" viewBox="0 0 30 30" fill="none" xmlns="http://www.w3.org/2000/svg">
<path d="M27.2417 14.2575L16.7234 0.970167C16.3086 0.383449 15.6253 0 14.852 0C14.0789 0 13.3957 0.383341 12.9808 0.969952L2.46235 14.2575C2.1757 14.5645 2 14.9764 2 15.4296C2 16.3786 2.76933 17.148 3.71838 17.148L3.7207 17.1479L3.72074 17.148H6.22434V27.136C6.22434 28.7178 7.50658 30 9.08831 30H12.7041V21.3768H17V30H20.5442C22.1259 30 23.4081 28.7178 23.4081 27.136V17.148H25.8976L25.8987 17.1458C25.9275 17.1472 25.9565 17.148 25.9857 17.148C26.9347 17.148 27.7041 16.3786 27.7041 15.4296C27.7041 14.9764 27.5284 14.5645 27.2417 14.2575Z" fill="#333333"/>
</svg>
