<svg width="30" height="30" viewBox="0 0 30 30" fill="none" xmlns="http://www.w3.org/2000/svg">
<path d="M15.2533 0C19.2878 0 22.1655 1.1945 23.744 3.65021C24.1226 4.23918 24.3972 5.02514 24.5917 6.01975L24.6071 6.09975L24.6221 6.18068L24.6295 6.22146C24.7412 6.84268 24.3282 7.43682 23.707 7.54861C23.0858 7.66032 22.4916 7.24728 22.3799 6.62611L22.3683 6.56264L22.3624 6.53125L22.3506 6.46925L22.3445 6.43861L22.3324 6.37804L22.3262 6.34811L22.3138 6.28896L22.3075 6.25975L22.2948 6.20204L22.2819 6.14532L22.2689 6.08957L22.2556 6.03475L22.2423 5.98093C22.24 5.97208 22.2378 5.96323 22.2355 5.95439L22.2219 5.902L22.2081 5.85061L22.2011 5.82525L22.1871 5.77536C22.1801 5.75061 22.173 5.72625 22.1659 5.70229L22.1515 5.65479C22.1418 5.62343 22.1321 5.59275 22.1223 5.56271L22.1075 5.51818L22.0925 5.47461L22.0775 5.43204C22.0676 5.40454 22.0574 5.37714 22.047 5.34986L22.0315 5.31021L22.016 5.27164C22.0083 5.25288 22.0004 5.23419 21.9924 5.21557L21.9766 5.17943C21.974 5.17353 21.9713 5.16763 21.9686 5.16175L21.9526 5.12711C21.9446 5.11004 21.9366 5.09332 21.9285 5.07704L21.9122 5.04489C21.8844 4.99055 21.8541 4.93756 21.8213 4.88611C20.7213 3.17475 18.5794 2.28571 15.2533 2.28571C12.3337 2.28571 10.3105 2.97596 9.11196 4.29529C7.91496 5.61282 7.43082 7.67889 7.727 10.5618C7.73229 10.6131 7.73407 10.6641 7.73257 10.7143L26.2857 10.7143C28.3371 10.7143 30 12.201 30 14.035V26.6793C30 28.5132 28.3371 30 26.2857 30H3.71429C1.66293 30 0 28.5133 0 26.6793V14.035C0 12.2011 1.66293 10.7143 3.71429 10.7143H5.44514L5.44286 10.6914C5.10907 7.26714 5.74636 4.60068 7.42018 2.75829C9.10929 0.899 11.7443 0 15.2533 0Z" fill="#333333"/>
</svg>
