<svg width="30" height="30" viewBox="0 0 30 30" fill="none" xmlns="http://www.w3.org/2000/svg">
<g clip-path="url(#clip0_2927_107)">
<circle cx="14.9941" cy="15.0059" r="15" transform="rotate(0.0224783 14.9941 15.0059)" fill="#F7981D"/>
<path d="M27.7084 15.0109C27.7112 7.98897 22.021 2.29435 14.9991 2.2916C7.9772 2.28884 2.28258 7.97899 2.27983 15.0009C2.27707 22.0228 7.96722 27.7174 14.9891 27.7202L14.9882 30.0059C6.70396 30.0026 -0.00913489 23.2843 -0.0058848 15C-0.00263472 6.71573 6.71573 0.00263472 15 0.0058848C23.2843 0.00913489 29.9974 6.7275 29.9941 15.0118C29.9909 23.296 23.2725 30.0091 14.9882 30.0059L14.9891 27.7202C22.011 27.7229 27.7056 22.0328 27.7084 15.0109Z" fill="url(#paint0_linear_2927_107)"/>
<g filter="url(#filter0_d_2927_107)">
<path d="M19.8412 19.8568C18.5 18.7991 17.4934 18.0616 16.6193 17.6384C15.7331 18.9123 15.3769 20.8939 14.9904 24.1486C14.6066 20.8936 14.2519 18.9118 13.3667 17.6371C12.4923 18.0596 11.4851 18.7952 10.143 19.853C11.2018 18.5117 11.9382 17.5051 12.3614 16.631C11.0875 15.7448 9.1059 15.3886 5.85121 15.0022C9.1062 14.6183 11.088 14.2637 12.3627 13.3785C11.9402 12.504 11.2046 11.4969 10.1468 10.1548C11.4881 11.2136 12.4947 11.95 13.3688 12.3732C14.255 11.0992 14.6112 9.11765 14.9976 5.86296C15.3815 9.11796 15.7361 11.0998 16.6213 12.3744C17.4958 11.9519 18.5029 11.2163 19.845 10.1586C18.7874 11.4999 18.0499 12.5064 17.6267 13.3805C18.9006 14.2667 20.8822 14.6229 24.1368 15.0094C20.8818 15.3932 18.9 15.7479 17.6254 16.6331C18.0479 17.5075 18.7835 18.5147 19.8412 19.8568Z" fill="white"/>
</g>
</g>
<defs>
<filter id="filter0_d_2927_107" x="-58.1488" y="-42.137" width="146.286" height="146.286" filterUnits="userSpaceOnUse" color-interpolation-filters="sRGB">
<feFlood flood-opacity="0" result="BackgroundImageFix"/>
<feColorMatrix in="SourceAlpha" type="matrix" values="0 0 0 0 0 0 0 0 0 0 0 0 0 0 0 0 0 0 127 0" result="hardAlpha"/>
<feOffset dy="16"/>
<feGaussianBlur stdDeviation="32"/>
<feComposite in2="hardAlpha" operator="out"/>
<feColorMatrix type="matrix" values="0 0 0 0 0.901961 0 0 0 0 0.317647 0 0 0 0 0 0 0 0 0.8 0"/>
<feBlend mode="normal" in2="BackgroundImageFix" result="effect1_dropShadow_2927_107"/>
<feBlend mode="normal" in="SourceGraphic" in2="effect1_dropShadow_2927_107" result="shape"/>
</filter>
<linearGradient id="paint0_linear_2927_107" x1="-16.6304" y1="-0.00652436" x2="46.6187" y2="30.0183" gradientUnits="userSpaceOnUse">
<stop stop-color="#FF9E16"/>
<stop offset="0.240385" stop-color="#FE9A16"/>
<stop offset="0.408554" stop-color="#E65100"/>
<stop offset="0.680925" stop-color="#F88910"/>
<stop offset="0.841346" stop-color="#ED6908"/>
<stop offset="1" stop-color="#FE9A16"/>
</linearGradient>
<clipPath id="clip0_2927_107">
<rect width="30" height="30" fill="white"/>
</clipPath>
</defs>
</svg>
