<svg width="30" height="30" viewBox="0 0 30 30" fill="none" xmlns="http://www.w3.org/2000/svg">
<g clip-path="url(#clip0_45_36)">
<path d="M22.642 0C22.8485 3.40142e-06 23.0481 0.0745753 23.204 0.21C23.5578 0.517249 23.5988 1.05082 23.2984 1.40828L23.2892 1.41918L14.9827 10.9839L14.9828 29.5714C14.9828 29.8081 14.7909 30 14.5542 30C14.4969 30 14.4401 29.9885 14.3874 29.9662C14.3346 29.9439 14.2868 29.9112 14.2468 29.8701L8.67328 24.1341C8.59557 24.0541 8.5521 23.947 8.5521 23.8354V11.025L0.209928 1.41918C0.0785151 1.26783 0.0042973 1.07522 0.000178558 0.87482L0 0.857142C0 0.388499 0.376142 0.00767844 0.842999 0.000107033L0.857142 0H22.642ZM28.8571 24.5711C29.4883 24.5711 30 25.0828 30 25.714C30 26.3389 29.4985 26.8466 28.876 26.8567L28.8571 26.8569H18.2497C17.6185 26.8569 17.1068 26.3452 17.1068 25.714C17.1068 25.0892 17.6083 24.5814 18.2308 24.5713L18.2497 24.5711H28.8571H28.8571ZM28.8571 18.7141C29.4883 18.7141 30 19.2258 30 19.8569C30 20.4818 29.4985 20.9895 28.876 20.9996L28.8571 20.9998H18.2497C17.6185 20.9998 17.1068 20.4881 17.1068 19.8569C17.1068 19.232 17.6083 18.7243 18.2308 18.7142L18.2497 18.7141H28.8571H28.8571ZM28.8571 12.857C29.4883 12.857 30 13.3687 30 13.9998C30 14.6247 29.4985 15.1324 28.876 15.1426L28.8571 15.1427H18.2497C17.6185 15.1427 17.1068 14.631 17.1068 13.9998C17.1068 13.375 17.6083 12.8672 18.2308 12.8572L18.2497 12.857H28.8571H28.8571Z" fill="#333333"/>
</g>
<defs>
<clipPath id="clip0_45_36">
<rect width="30" height="30" fill="white"/>
</clipPath>
</defs>
</svg>
