<svg width="30" height="30" viewBox="0 0 30 30" fill="none" xmlns="http://www.w3.org/2000/svg">
<path d="M2.58527 4.51013C2.62685 4.46847 2.66818 4.42656 2.70927 4.38442L2.77177 4.32004L2.80312 4.28754L2.86609 4.22192L2.99305 4.0886L3.21874 3.85048L3.31687 3.74729L3.3828 3.67838L3.44912 3.60948C4.25855 2.77135 5.15974 1.95207 6.21918 1.88448C7.12424 1.8007 8.14505 2.26073 9.32387 3.72854C12.0346 7.10835 11.0941 8.2941 9.63918 9.73917L9.54149 9.83592L9.3423 10.0324C9.27521 10.0986 9.20752 10.1657 9.13949 10.2338C7.95115 11.424 10.4098 14.4201 13.0118 17.0263C14.8889 18.9064 16.9935 20.7323 18.4592 21.1312C18.9727 21.2541 19.4031 21.1925 19.711 20.8842L19.7452 20.8499L19.8131 20.7814L19.8804 20.7133L20.1441 20.4451L20.209 20.3795L20.2735 20.3146L20.3377 20.2504C21.2026 19.3897 22.0003 18.7536 23.2753 19.0404C24.0248 19.1869 24.9401 19.6571 26.1374 20.5998L26.2126 20.6594C26.2378 20.6794 26.2631 20.6997 26.2886 20.7201C29.5881 23.3748 27.7468 25.2666 26.1404 26.8012L25.9233 27.0083L25.8168 27.1102C25.7135 27.2091 25.6112 27.3091 25.51 27.4101C24.601 28.3205 22.5169 28.3903 19.825 27.4524L19.7433 27.4236C16.7963 26.3973 13.1194 24.1612 9.45952 20.4955C2.48237 13.5073 0.682117 6.41629 2.58524 4.51017L2.58527 4.51013Z" fill="#333333"/>
</svg>
