<svg width="20" height="20" viewBox="0 0 20 20" fill="none" xmlns="http://www.w3.org/2000/svg">
<g clip-path="url(#clip0_128_131)">
<path d="M3.27832 9.99928C3.27827 10.8823 3.45215 11.7566 3.79001 12.5724C4.12788 13.3882 4.62313 14.1294 5.24747 14.7538C5.87181 15.3781 6.61302 15.8734 7.42878 16.2113C8.24454 16.5493 9.11887 16.7232 10.0018 16.7232C10.8848 16.7232 11.7592 16.5493 12.5749 16.2113C13.3907 15.8734 14.1319 15.3781 14.7562 14.7538C15.3806 14.1294 15.8758 13.3882 16.2137 12.5724C16.5516 11.7566 16.7254 10.8823 16.7254 9.99928C16.7254 9.1163 16.5516 8.24197 16.2137 7.42619C15.8758 6.61041 15.3806 5.86917 14.7562 5.2448C14.1319 4.62042 13.3907 4.12514 12.5749 3.78722C11.7592 3.44931 10.8848 3.27539 10.0018 3.27539C9.11887 3.27539 8.24454 3.44931 7.42878 3.78722C6.61302 4.12514 5.87181 4.62042 5.24747 5.2448C4.62313 5.86917 4.12788 6.61041 3.79001 7.42619C3.45215 8.24197 3.27827 9.1163 3.27832 9.99928Z" fill="#00DF93"/>
<path d="M10.0019 20C8.33589 20.0003 6.69618 19.5844 5.23174 18.79C3.7673 17.9956 2.52454 16.8479 1.61637 15.4511C0.708193 14.0544 0.16338 12.4529 0.0314198 10.7921C-0.10054 9.13126 0.184535 7.46381 0.860749 5.94118C0.891996 5.87046 0.936876 5.8066 0.992822 5.75325C1.04877 5.69989 1.11468 5.65808 1.1868 5.63022C1.25891 5.60236 1.33581 5.58899 1.4131 5.59087C1.49039 5.59275 1.56654 5.60984 1.63722 5.64118C1.70793 5.67242 1.77179 5.7173 1.82515 5.77325C1.87851 5.8292 1.92031 5.89511 1.94817 5.96722C1.97604 6.03934 1.98941 6.11624 1.98753 6.19353C1.98565 6.27081 1.96855 6.34697 1.93722 6.41765C1.43317 7.54446 1.1745 8.76559 1.1784 10C1.17885 11.8398 1.75442 13.6335 2.82457 15.1301C3.89472 16.6267 5.40593 17.7513 7.14678 18.3466C8.88762 18.942 10.771 18.9782 12.5335 18.4504C14.296 17.9225 15.8494 16.8569 16.9764 15.4026C18.1033 13.9484 18.7475 12.1782 18.8188 10.3397C18.8901 8.50128 18.385 6.68653 17.374 5.14935C16.363 3.61217 14.8968 2.42947 13.1805 1.76669C11.4642 1.10391 9.58365 0.99421 7.80193 1.45294C7.72699 1.47225 7.64899 1.47662 7.57238 1.46578C7.49576 1.45495 7.42203 1.42913 7.35539 1.38981C7.2208 1.31038 7.12328 1.18074 7.08428 1.02941C7.06497 0.954481 7.0606 0.87648 7.07143 0.799863C7.08227 0.723246 7.10809 0.649512 7.14741 0.582872C7.18674 0.516233 7.23881 0.457992 7.30065 0.411475C7.36248 0.364958 7.43288 0.331077 7.50781 0.311765C8.32308 0.105057 9.16086 0.000334618 10.0019 0C12.6541 0 15.1976 1.05357 17.073 2.92893C18.9484 4.8043 20.0019 7.34784 20.0019 10C20.0019 12.6522 18.9484 15.1957 17.073 17.0711C15.1976 18.9464 12.6541 20 10.0019 20Z" fill="#00DF93" fill-opacity="0.65"/>
<path d="M10.0022 4.78259C9.92495 4.78259 9.84846 4.76738 9.77709 4.73782C9.70572 4.70826 9.64087 4.66493 9.58625 4.6103C9.53163 4.55568 9.4883 4.49083 9.45874 4.41947C9.42917 4.3481 9.41396 4.27161 9.41396 4.19436V3.27671C9.41396 3.1207 9.47593 2.97108 9.58625 2.86077C9.69657 2.75045 9.84619 2.68848 10.0022 2.68848C10.1582 2.68848 10.3078 2.75045 10.4181 2.86077C10.5285 2.97108 10.5904 3.1207 10.5904 3.27671V4.19436C10.5904 4.27161 10.5752 4.3481 10.5457 4.41947C10.5161 4.49083 10.4728 4.55568 10.4181 4.6103C10.3635 4.66493 10.2987 4.70826 10.2273 4.73782C10.1559 4.76738 10.0794 4.78259 10.0022 4.78259ZM4.19631 10.5885H3.27867C3.12266 10.5885 2.97304 10.5265 2.86272 10.4162C2.7524 10.3059 2.69043 10.1563 2.69043 10.0002C2.69043 9.84423 2.7524 9.69461 2.86272 9.5843C2.97304 9.47398 3.12266 9.41201 3.27867 9.41201H4.19631C4.35232 9.41201 4.50194 9.47398 4.61226 9.5843C4.72257 9.69461 4.78455 9.84423 4.78455 10.0002C4.78455 10.1563 4.72257 10.3059 4.61226 10.4162C4.50194 10.5265 4.35232 10.5885 4.19631 10.5885ZM10.0022 17.312C9.92495 17.312 9.84846 17.2968 9.77709 17.2672C9.70572 17.2377 9.64087 17.1943 9.58625 17.1397C9.53163 17.0851 9.4883 17.0202 9.45874 16.9489C9.42917 16.8775 9.41396 16.801 9.41396 16.7238V15.8061C9.41396 15.6501 9.47593 15.5005 9.58625 15.3902C9.69657 15.2799 9.84619 15.2179 10.0022 15.2179C10.1582 15.2179 10.3078 15.2799 10.4181 15.3902C10.5285 15.5005 10.5904 15.6501 10.5904 15.8061V16.7238C10.5904 16.801 10.5752 16.8775 10.5457 16.9489C10.5161 17.0202 10.4728 17.0851 10.4181 17.1397C10.3635 17.1943 10.2987 17.2377 10.2273 17.2672C10.1559 17.2968 10.0794 17.312 10.0022 17.312ZM16.7257 10.5885H15.8081C15.6521 10.5885 15.5024 10.5265 15.3921 10.4162C15.2818 10.3059 15.2198 10.1563 15.2198 10.0002C15.2198 9.84423 15.2818 9.69461 15.3921 9.5843C15.5024 9.47398 15.6521 9.41201 15.8081 9.41201H16.7257C16.8817 9.41201 17.0314 9.47398 17.1417 9.5843C17.252 9.69461 17.314 9.84423 17.314 10.0002C17.314 10.1563 17.252 10.3059 17.1417 10.4162C17.0314 10.5265 16.8817 10.5885 16.7257 10.5885ZM14.3845 13.0767C14.2819 13.0743 14.1813 13.0481 14.0904 13.0002L9.71396 10.512C9.58003 10.4368 9.48081 10.3123 9.43749 10.1649L8.51984 6.98848C8.48604 6.84167 8.50986 6.68749 8.58637 6.55773C8.66289 6.42796 8.78627 6.33249 8.93109 6.29101C9.07591 6.24952 9.23113 6.26518 9.36475 6.33476C9.49836 6.40433 9.6002 6.52251 9.64925 6.66495L10.5022 9.60612L14.6728 11.9591C14.8083 12.0357 14.908 12.1629 14.9499 12.3129C14.9918 12.4628 14.9725 12.6233 14.8963 12.7591C14.8476 12.8532 14.7743 12.9324 14.6842 12.9884C14.5941 13.0443 14.4906 13.0748 14.3845 13.0767Z" fill="white" fill-opacity="0.85"/>
</g>
<defs>
<clipPath id="clip0_128_131">
<rect width="20" height="20" fill="white"/>
</clipPath>
</defs>
</svg>
