<svg width="30" height="30" viewBox="0 0 30 30" fill="none" xmlns="http://www.w3.org/2000/svg">
<g clip-path="url(#clip0_2293_7)">
<path d="M28.8691 29.9991H1.08818C0.813561 29.9999 0.548862 29.8965 0.347393 29.7099C0.145433 29.5228 0.0213943 29.2665 0 28.992L0 27.5135C0 27.37 0.0281429 27.2279 0.0828571 27.0953C0.137468 26.9628 0.217608 26.8423 0.318714 26.7407C0.419655 26.6393 0.539627 26.5588 0.67175 26.5039C0.803716 26.4489 0.94524 26.4207 1.08818 26.4206H2.92318V2.84993C2.94539 2.08629 3.26318 1.36143 3.80896 0.829286C4.35479 0.297143 5.08564 -0.000356808 5.84636 3.2116e-07H18.2646C19.0399 3.2116e-07 19.7834 0.309286 20.3316 0.859822C20.8798 1.41036 21.1877 2.15707 21.1877 2.93564V26.5064H22.66V14.6781C22.6593 14.5748 22.6805 14.4726 22.7222 14.378C22.7638 14.2836 22.825 14.1991 22.9018 14.1301C22.9784 14.0613 23.0688 14.0095 23.1669 13.9784C23.265 13.9472 23.3686 13.9374 23.4708 13.9496H25.6045C26.6714 13.9496 27.0768 15.0639 27.0768 16.0924V26.3778H28.9118C29.0548 26.3778 29.1964 26.4061 29.3285 26.4611C29.4605 26.516 29.5804 26.5965 29.6813 26.6979C29.8855 26.9032 30.0001 27.1811 30 27.4706V28.9491C29.9945 29.0927 29.9609 29.2337 29.901 29.3643C29.8413 29.4946 29.7564 29.612 29.6513 29.7096C29.5464 29.8071 29.4232 29.8828 29.2889 29.9326C29.1548 29.9822 29.0121 30.0049 28.8691 29.9991ZM13.9331 24.8564C13.9331 24.9521 13.9519 25.0468 13.9884 25.1352C14.0248 25.2236 14.0782 25.3039 14.1456 25.3716C14.2129 25.4391 14.2928 25.4928 14.3809 25.5294C14.4689 25.566 14.5633 25.5849 14.6586 25.585H15.3841C15.4794 25.5849 15.5738 25.566 15.6618 25.5294C15.7498 25.4928 15.8298 25.4391 15.897 25.3716C15.9645 25.3039 16.0179 25.2236 16.0543 25.1352C16.0908 25.0468 16.1095 24.9521 16.1095 24.8564V22.7136C16.1095 22.5204 16.0331 22.3351 15.897 22.1985C15.8298 22.1309 15.7499 22.0772 15.6618 22.0406C15.5738 22.004 15.4794 21.9851 15.3841 21.9851H14.6159C14.5206 21.9851 14.4263 22.0039 14.3383 22.0405C14.2502 22.0772 14.1703 22.1308 14.103 22.1985C14.0355 22.2662 13.9821 22.3465 13.9457 22.4348C13.9092 22.5233 13.8905 22.618 13.8905 22.7136L13.9331 24.8564ZM13.9331 19.7137C13.9331 19.9069 14.0096 20.0923 14.1456 20.2289C14.2129 20.2965 14.2928 20.3501 14.3808 20.3867C14.4689 20.4234 14.5633 20.4422 14.6586 20.4423H15.3841C15.4794 20.4422 15.5738 20.4234 15.6618 20.3867C15.7499 20.3501 15.8298 20.2965 15.897 20.2289C16.0332 20.092 16.1096 19.9068 16.1095 19.7137V17.5709C16.1095 17.3777 16.0331 17.1924 15.897 17.0557C15.8298 16.9882 15.7499 16.9345 15.6618 16.8979C15.5738 16.8613 15.4794 16.8424 15.3841 16.8424H14.6159C14.5206 16.8424 14.4263 16.8612 14.3383 16.8978C14.2502 16.9345 14.1703 16.9881 14.103 17.0557C14.0355 17.1235 13.9821 17.2038 13.9457 17.2921C13.9092 17.3805 13.8905 17.4753 13.8905 17.5709L13.9331 19.7137ZM8.08679 24.8564C8.08679 24.9521 8.10554 25.0468 8.142 25.1352C8.17842 25.2235 8.23185 25.3039 8.29925 25.3716C8.36655 25.4392 8.44653 25.4929 8.53461 25.5295C8.62259 25.5661 8.71695 25.585 8.81225 25.585H9.53768C9.63296 25.585 9.72729 25.5661 9.81532 25.5295C9.9034 25.4929 9.98338 25.4392 10.0507 25.3716C10.1181 25.3039 10.1715 25.2235 10.2079 25.1352C10.2444 25.0468 10.2632 24.9521 10.2631 24.8564V22.7136C10.2631 22.618 10.2444 22.5232 10.2079 22.4348C10.1715 22.3465 10.1181 22.2662 10.0507 22.1985C9.98337 22.1309 9.90339 22.0772 9.81532 22.0405C9.72733 22.0039 9.63298 21.9851 9.53768 21.9851H8.76957C8.67428 21.9851 8.57996 22.0039 8.49193 22.0405C8.40385 22.0772 8.32388 22.1309 8.25657 22.1985C8.18917 22.2662 8.13574 22.3465 8.09932 22.4348C8.06286 22.5233 8.0441 22.618 8.04411 22.7136L8.08679 24.8564ZM8.08679 19.7137C8.08679 19.9069 8.16321 20.0923 8.29925 20.2289C8.3665 20.2965 8.44643 20.3501 8.53447 20.3867C8.6225 20.4234 8.7169 20.4422 8.81225 20.4423H9.53768C9.63296 20.4423 9.72729 20.4234 9.81532 20.3868C9.90339 20.3502 9.98337 20.2965 10.0507 20.2289C10.1181 20.1612 10.1715 20.0808 10.2079 19.9925C10.2444 19.9041 10.2632 19.8094 10.2631 19.7137V17.5709C10.2631 17.4753 10.2444 17.3805 10.2079 17.2921C10.1715 17.2038 10.1181 17.1235 10.0507 17.0557C9.98337 16.9881 9.90339 16.9345 9.81532 16.8978C9.72733 16.8612 9.63298 16.8424 9.53768 16.8424H8.76957C8.67428 16.8424 8.57996 16.8612 8.49193 16.8978C8.40385 16.9345 8.32388 16.9881 8.25657 17.0557C8.18917 17.1235 8.13574 17.2038 8.09932 17.2921C8.06286 17.3805 8.0441 17.4753 8.04411 17.5709L8.08679 19.7137ZM16.8563 6.85693C16.8563 6.56711 16.7417 6.28914 16.5376 6.08421C16.4368 5.98281 16.3169 5.90233 16.1848 5.8474C16.0528 5.79246 15.9112 5.76416 15.7681 5.76411H13.8905V4.02846C13.8905 3.73861 13.7758 3.46064 13.5717 3.25571C13.4709 3.15432 13.351 3.07385 13.2189 3.01892C13.0869 2.96399 12.9453 2.93569 12.8023 2.93564H11.33C11.1871 2.93565 11.0455 2.96392 10.9136 3.01882C10.7815 3.07381 10.6615 3.15431 10.5605 3.25571C10.4594 3.3573 10.3793 3.47776 10.3246 3.61025C10.2699 3.7429 10.2418 3.88498 10.2418 4.02846V5.87125H8.40682C8.2638 5.8713 8.1222 5.89961 7.99015 5.95454C7.85811 6.00947 7.73821 6.08995 7.63736 6.19136C7.43313 6.39666 7.31854 6.67449 7.31864 6.96407V8.44261C7.31864 8.73246 7.43329 9.01043 7.63736 9.21536C7.73822 9.31675 7.85811 9.39722 7.99016 9.45215C8.12221 9.50707 8.26381 9.53538 8.40682 9.53543H10.2418V11.3783C10.2418 11.6681 10.3565 11.946 10.5605 12.151C10.6614 12.2524 10.7813 12.3329 10.9133 12.3878C11.0454 12.4427 11.187 12.471 11.33 12.4711H12.8023C12.9453 12.471 13.0869 12.4427 13.2189 12.3878C13.351 12.3329 13.4709 12.2524 13.5717 12.151C13.776 11.9457 13.8906 11.6678 13.8905 11.3783V9.53543H15.7255C15.8685 9.53538 16.0101 9.50707 16.1421 9.45215C16.2742 9.39722 16.3941 9.31675 16.4949 9.21536C16.6992 9.01005 16.8138 8.7322 16.8136 8.44261L16.8563 6.85693Z" fill="#333333"/>
</g>
<defs>
<clipPath id="clip0_2293_7">
<rect width="30" height="30" fill="white"/>
</clipPath>
</defs>
</svg>
