<svg width="30" height="30" viewBox="0 0 30 30" fill="none" xmlns="http://www.w3.org/2000/svg">
<g clip-path="url(#clip0_45_43)">
<path d="M29.6421 6.34729C29.906 6.43664 30.0872 6.69175 30.0938 6.98307V23.9534C30.0938 24.2249 30.0037 24.4964 29.7321 24.5875C29.5521 24.6786 29.4604 24.6786 29.3704 24.6786C29.2047 24.6752 29.0454 24.6107 28.9204 24.4964L22.8654 19.7779C22.6838 19.6867 22.5938 19.4153 22.5938 19.2349V11.6999C22.5938 11.5177 22.6838 11.3373 22.8654 11.1569L28.9187 6.43661C29.1004 6.25446 29.3704 6.25446 29.6421 6.34554V6.34729ZM18.7083 5C18.7083 5 21.3795 5 21.3795 8.06425V23.0267C21.3795 26 18.7083 26 18.7083 26H2.76489C2.76489 26 0.09375 26 0.09375 23.025V7.975C0.09375 5 2.76489 5 2.76489 5H18.7083Z" fill="#333333"/>
</g>
<defs>
<clipPath id="clip0_45_43">
<rect width="30" height="30" fill="white"/>
</clipPath>
</defs>
</svg>
