<svg width="30" height="30" viewBox="0 0 30 30" fill="none" xmlns="http://www.w3.org/2000/svg">
<g clip-path="url(#clip0_3249_132)">
<path fill-rule="evenodd" clip-rule="evenodd" d="M22.7276 0C26.742 0 30 3.25163 30 7.25805V9.67706C30 10.479 29.3488 11.129 28.5456 11.129C27.7423 11.129 27.0911 10.479 27.0911 9.67706V7.25805C27.0911 4.85806 25.1324 2.90321 22.7276 2.90321C20.3229 2.90322 18.3642 4.85806 18.3642 7.25805V11.1265C20.6053 11.3043 22.3764 13.1862 22.3764 15.4713V25.6414C22.3764 28.0435 20.4194 30 18.0167 30H4.35969C1.95701 30 7.36489e-06 28.0435 0 25.6414V15.4713C0 13.0693 1.95701 11.1127 4.35969 11.1127C11.017 11.1128 11.5645 11.1128 15.4552 11.1127V7.25805C15.4552 3.2516 18.7133 3.03279e-06 22.7276 0ZM8.28177 19.3456C7.48735 19.3457 6.82855 20.0043 6.82854 20.7985C6.82854 21.5927 7.48734 22.2514 8.28177 22.2514H14.0947C14.8891 22.2514 15.5479 21.5927 15.5479 20.7985C15.5479 20.0043 14.8891 19.3456 14.0947 19.3456H8.28177Z" fill="#333333"/>
</g>
<defs>
<clipPath id="clip0_3249_132">
<rect width="30" height="30" fill="white"/>
</clipPath>
</defs>
</svg>
