<svg width="30" height="30" viewBox="0 0 30 30" fill="none" xmlns="http://www.w3.org/2000/svg">
<path d="M8.48322 28.8501C8.48322 29.4827 7.9704 29.9955 7.33781 29.9955H3.14541C2.51282 29.9955 2 29.4827 2 28.8501V18.3579C2 17.7253 2.51282 17.2125 3.14541 17.2125H7.33781C7.9704 17.2125 8.48322 17.7253 8.48322 18.3579V28.8501ZM16.9653 10.2729V28.2729H12.7416V10.2729H16.9653ZM17.538 8.55481H12.1689C11.5363 8.55481 11.0235 9.06763 11.0235 9.70022V28.8456C11.0235 29.4782 11.5363 29.9911 12.1689 29.9911H17.538C18.1706 29.9911 18.6835 29.4782 18.6835 28.8456V9.70022C18.6835 9.06763 18.1706 8.55481 17.538 8.55481ZM27.6689 28.8546C27.6689 29.4872 27.1561 30 26.5235 30H22.4072C21.7746 30 21.2617 29.4872 21.2617 28.8546V1.14541C21.2617 0.512823 21.7746 0 22.4072 0H26.5235C27.1561 0 27.6689 0.512823 27.6689 1.14541V28.8546Z" fill="#333333"/>
</svg>
