<svg width="30" height="30" viewBox="0 0 30 30" fill="none" xmlns="http://www.w3.org/2000/svg">
<path d="M21.4587 0C24.0979 0 26.2424 2.22536 26.2851 4.98757L26.2857 5.07143V12.8571H27.1429C28.7208 12.8571 30 14.1363 30 15.7143V27.1429C30 28.7208 28.7208 30 27.1429 30H2.85714C1.27918 30 0 28.7208 0 27.1429V15.7143C0 14.1363 1.27918 12.8571 2.85714 12.8571H3.71429V5.07143C3.71429 2.29857 5.83243 0.0454642 8.4615 0.000678471L8.54132 0H21.4587ZM21.4587 2.28571H8.54132C7.09157 2.28571 5.91361 3.50811 5.89021 5.02536L5.88986 5.07143L5.88982 12.8571H7.85714C8.25164 12.8571 8.57143 13.1769 8.57143 13.5714V18.5714C8.57143 18.9659 8.89121 19.2857 9.28571 19.2857H20.7143C21.1088 19.2857 21.4286 18.9659 21.4286 18.5714V13.5714C21.4286 13.1769 21.7484 12.8571 22.1429 12.8571H24.1101V5.07143C24.1101 3.54832 22.9467 2.31071 21.5025 2.28607L21.4587 2.28571ZM16.0714 10.3571C16.6632 10.3571 17.1429 10.8368 17.1429 11.4286C17.1429 12.0203 16.6632 12.5 16.0714 12.5H9.64286C9.05111 12.5 8.57143 12.0203 8.57143 11.4286C8.57143 10.8368 9.05111 10.3571 9.64286 10.3571H16.0714ZM20.3571 5C20.9489 5 21.4286 5.47968 21.4286 6.07143C21.4286 6.66318 20.9489 7.14286 20.3571 7.14286H9.64286C9.05111 7.14286 8.57143 6.66318 8.57143 6.07143C8.57143 5.47968 9.05111 5 9.64286 5H20.3571Z" fill="#333333"/>
</svg>
