<svg width="30" height="30" viewBox="0 0 30 30" fill="none" xmlns="http://www.w3.org/2000/svg">
<path d="M15 30C23.2843 30 30 23.2843 30 15C30 6.71573 23.2843 0 15 0C6.71573 0 0 6.71573 0 15C0 23.2843 6.71573 30 15 30Z" fill="#E3EEFF"/>
<mask id="mask0_663_18" style="mask-type:alpha" maskUnits="userSpaceOnUse" x="0" y="0" width="30" height="30">
<path d="M15 30C23.2843 30 30 23.2843 30 15C30 6.71573 23.2843 0 15 0C6.71573 0 0 6.71573 0 15C0 23.2843 6.71573 30 15 30Z" fill="#4E79BC"/>
</mask>
<g mask="url(#mask0_663_18)">
<path d="M17.9723 16.1449C18.5145 16.2944 19.0441 16.4864 19.5561 16.719V19.1793C18.4738 19.4584 17.7677 20.4998 17.9081 21.6098C18.0486 22.7199 18.9918 23.5521 20.1095 23.5521C21.2272 23.5521 22.1704 22.7199 22.3109 21.6098C22.4514 20.4998 21.7453 19.4584 20.6629 19.1793V17.3013C23.3076 18.8947 25.1378 21.5522 25.6851 24.5935C25.74 24.8698 25.8119 25.3662 25.5734 25.6195C22.9151 28.4644 19.0282 30 15.1369 30C11.2457 30 7.24709 28.5592 4.58876 25.7143C4.35024 25.461 4.52723 24.9359 4.58876 24.5935C5.1554 21.4457 7.09501 18.715 9.87894 17.1457V19.1176C8.17715 19.52 6.90956 21.6664 6.90956 24.3493C6.91968 24.6487 7.1651 24.8861 7.46433 24.8859H8.59522C8.90162 24.8859 9.14998 24.6373 9.14998 24.3306C9.14998 24.0238 8.90162 23.7752 8.59522 23.7752H8.05924C8.22004 21.7362 9.24108 20.1264 10.4417 20.1264C11.6423 20.1264 12.6633 21.7496 12.8241 23.7752H12.2882C11.9818 23.7752 11.7334 24.0238 11.7334 24.3305C11.7334 24.6373 11.9818 24.8859 12.2882 24.8859H13.4057C13.7039 24.8846 13.9477 24.6476 13.9578 24.3493C13.9578 21.6449 12.6902 19.4986 10.9884 19.1042V16.5957C11.4156 16.4163 11.8543 16.2657 12.3016 16.1449C14.0896 17.0242 16.1843 17.0242 17.9723 16.1449ZM20.1082 20.1988C20.5572 20.1977 20.9625 20.4677 21.1351 20.8826C21.3077 21.2976 21.2134 21.7758 20.8963 22.094C20.5794 22.4122 20.1018 22.5077 19.6869 22.336C19.272 22.1643 19.0014 21.759 19.0014 21.3096C19.0028 20.6978 19.4971 20.2018 20.1082 20.1988V20.1988ZM15.1369 5C18.0971 5 20.4967 7.40238 20.4967 10.3659C20.4967 13.3293 18.0971 15.7317 15.1369 15.7317C12.1768 15.7317 9.77709 13.3293 9.77709 10.3659C9.77709 7.40238 12.1767 5 15.1369 5Z" fill="#4E79BC"/>
</g>
</svg>
