<svg width="30" height="30" viewBox="0 0 30 30" fill="none" xmlns="http://www.w3.org/2000/svg">
<g clip-path="url(#clip0_45_17)">
<path d="M10 15.4464C14.4618 15.4464 20 18.6497 20 25.0297V31.875H0V25.0297C0 18.6497 5.53821 15.4464 10 15.4464ZM20.5905 16.1607C25.3207 16.1607 30 19.2248 30 25.3273V31.875H21.9347V25.3273C21.9347 21.45 21.0735 18.5358 19.2857 16.2912C19.757 16.212 20.2008 16.1607 20.5905 16.1607ZM10.0094 1.875C13.1767 1.875 15.7143 4.42704 15.7143 7.58929C15.7143 10.7515 13.1767 13.3036 10.0094 13.3036C6.84196 13.3036 4.28571 10.7515 4.28571 7.58929C4.28571 4.42704 6.84196 1.875 10.0094 1.875ZM22.8652 3.30357C25.6367 3.30357 27.8571 5.53661 27.8571 8.30357C27.8571 11.0705 25.6367 13.3036 22.8652 13.3036C20.0939 13.3036 17.8571 11.0705 17.8571 8.30357C17.8571 5.53661 20.0938 3.30357 22.8652 3.30357Z" fill="#333333"/>
</g>
<defs>
<clipPath id="clip0_45_17">
<rect width="30" height="30" fill="white"/>
</clipPath>
</defs>
</svg>
