<svg width="30" height="30" viewBox="0 0 30 30" fill="none" xmlns="http://www.w3.org/2000/svg">
<g clip-path="url(#clip0_45_65)">
<path d="M18.3929 0C19.9708 0 21.25 1.27918 21.25 2.85714H22.5714C25.0961 2.85714 27.1429 4.90386 27.1429 7.42857V9.67857H27.1423C27.1427 9.69046 27.1429 9.70236 27.1429 9.71428C27.1429 10.3455 26.6312 10.8571 26 10.8571C25.3688 10.8571 24.8571 10.3455 24.8571 9.71428C24.8571 9.70236 24.8573 9.69046 24.8577 9.67857H24.8571V7.42857C24.8571 6.17882 23.8541 5.16336 22.6092 5.14318L22.5714 5.14286H21.25V5.10714C21.25 6.68511 19.9708 7.96429 18.3929 7.96429H8.75C7.17204 7.96429 5.89286 6.68511 5.89286 5.10714V5.14286H4.57143C3.32168 5.14286 2.30621 6.14586 2.28604 7.39079L2.28571 7.42857V25.4286C2.28571 26.6783 3.28871 27.6938 4.53364 27.714L4.57143 27.7143H15C15.6312 27.7143 16.1429 28.226 16.1429 28.8571C16.1429 29.482 15.6414 29.9897 15.0189 29.9999L15 30H4.57143C2.04671 30 0 27.9533 0 25.4286V7.42857C0 4.90386 2.04671 2.85714 4.57143 2.85714H5.89286C5.89286 1.27918 7.17204 0 8.75 0H18.3929ZM12.3571 21.7143C12.9883 21.7143 13.5 22.226 13.5 22.8571C13.5 23.4883 12.9883 24 12.3571 24H6.14286C5.51168 24 5 23.4883 5 22.8571C5 22.226 5.51168 21.7143 6.14286 21.7143H12.3571ZM14.6429 16.2143C15.274 16.2143 15.7857 16.726 15.7857 17.3571C15.7857 17.9883 15.274 18.5 14.6429 18.5H6.14286C5.51168 18.5 5 17.9883 5 17.3571C5 16.726 5.51168 16.2143 6.14286 16.2143H14.6429ZM16.9286 10.7143C17.5597 10.7143 18.0714 11.226 18.0714 11.8571C18.0714 12.4883 17.5597 13 16.9286 13H6.14286C5.51168 13 5 12.4883 5 11.8571C5 11.226 5.51168 10.7143 6.14286 10.7143H16.9286ZM18.3929 2.28571H8.75C8.43818 2.28571 8.18464 2.5355 8.17868 2.84589L8.17857 2.85714V5.10714C8.17857 5.41896 8.42836 5.6725 8.73875 5.67846L8.75 5.67857H18.3929C18.7047 5.67857 18.9582 5.42879 18.9642 5.11839L18.9643 5.10714V2.85714C18.9643 2.54532 18.7145 2.29179 18.4041 2.28582L18.3929 2.28571Z" fill="white"/>
<path d="M27.8125 12.5C28.2068 12.5 28.5264 12.8202 28.5264 13.2152C28.5264 13.3372 28.4954 13.457 28.4361 13.5635L26.222 17.5426H29.2861C29.6804 17.5426 30 17.8628 30 18.2579C30 18.438 29.9322 18.6115 29.81 18.7438L19.6222 29.7706C19.3543 30.0605 18.9026 30.078 18.6133 29.8096C18.509 29.7129 18.4359 29.5873 18.4034 29.4488C18.3708 29.3104 18.3801 29.1654 18.4303 29.0323L21.2886 21.4408H18.0354C17.6411 21.4408 17.3214 21.1205 17.3214 20.7255C17.3214 20.6036 17.3525 20.4837 17.4118 20.3772L21.5908 12.867C21.6526 12.7558 21.743 12.6631 21.8526 12.5986C21.9623 12.5341 22.0872 12.5 22.2144 12.5H27.8125Z" fill="#F7981D"/>
</g>
<defs>
<clipPath id="clip0_45_65">
<rect width="30" height="30" fill="white"/>
</clipPath>
</defs>
</svg>
