<svg width="30" height="30" viewBox="0 0 30 30" fill="none" xmlns="http://www.w3.org/2000/svg">
<path fill-rule="evenodd" clip-rule="evenodd" d="M18.739 5.7211C18.739 6.511 19.3793 7.15137 20.1692 7.15137C20.9592 7.15137 21.5995 6.511 21.5995 5.7211V1.43027C21.5995 0.640369 20.9592 0 20.1692 0C19.3793 0 18.739 0.640369 18.739 1.43027V5.7211ZM8.6913 5.7211C8.6913 6.511 9.33163 7.15137 10.1216 7.15137C10.9115 7.15137 11.5518 6.511 11.5518 5.7211V1.43027C11.5518 0.640369 10.9115 0 10.1216 0C9.33163 0 8.6913 0.640369 8.6913 1.43027V5.7211ZM6.84871 4.29082H7.97616V6.11839C7.97616 7.08383 8.93666 7.86651 10.1216 7.86651C11.3065 7.86651 12.267 7.08386 12.267 6.11839V4.29082H18.0238V6.11839C18.0238 7.08383 18.9843 7.86651 20.1692 7.86651C21.3541 7.86651 22.3147 7.08386 22.3147 6.11839V4.29082H23.4421C25.9594 4.29082 28 6.33143 28 8.84868V25.4421C28 27.9594 25.9594 30 23.4421 30H6.84871C4.33143 30 2.29082 27.9594 2.29082 25.4421V8.84868C2.29082 6.33143 4.33143 4.29082 6.84871 4.29082ZM6.516 25.7748H23.7032V10.736H6.516V25.7748ZM21.8141 23.5867H19.2396C18.7656 23.5867 18.3814 23.2413 18.3814 22.8153V20.0672C18.3814 19.6412 18.7656 19.2959 19.2396 19.2959H21.8141C22.288 19.2959 22.6722 19.6412 22.6722 20.0672V22.8153C22.6722 23.2413 22.288 23.5867 21.8141 23.5867ZM16.4148 23.5867H13.8403C13.3664 23.5867 12.9821 23.2413 12.9821 22.8153V20.0672C12.9821 19.6412 13.3664 19.2959 13.8403 19.2959H16.4148C16.8887 19.2959 17.2729 19.6412 17.2729 20.0672V22.8153C17.2729 23.2413 16.8887 23.5867 16.4148 23.5867ZM11.0155 23.5867H8.441C7.96697 23.5867 7.58284 23.2413 7.58284 22.8153V20.0672C7.58284 19.6412 7.96697 19.2959 8.441 19.2959H11.0155C11.4894 19.2959 11.8737 19.6412 11.8737 20.0672V22.8153C11.8737 23.2413 11.4894 23.5867 11.0155 23.5867ZM16.4148 17.1633H13.8403C13.3664 17.1633 12.9821 16.8179 12.9821 16.3919V13.6438C12.9821 13.2177 13.3664 12.8725 13.8403 12.8725H16.4148C16.8887 12.8725 17.2729 13.2177 17.2729 13.6438V16.3919C17.2729 16.8179 16.8887 17.1633 16.4148 17.1633ZM11.0155 17.1633H8.441C7.96697 17.1633 7.58284 16.8179 7.58284 16.3919V13.6438C7.58284 13.2178 7.96697 12.8725 8.441 12.8725H11.0155C11.4894 12.8725 11.8737 13.2178 11.8737 13.6438V16.3919C11.8737 16.8179 11.4894 17.1633 11.0155 17.1633Z" fill="#333333"/>
</svg>
