<svg width="30" height="30" viewBox="0 0 30 30" fill="none" xmlns="http://www.w3.org/2000/svg">
<g clip-path="url(#clip0_3226_163)">
<path d="M30.0028 30H7.42859V16.6607H9.4808V11.5302C9.4808 9.96566 11.1984 8.87823 13.5859 8.26791C13.6336 6.94039 14.1943 5.68309 15.1501 4.76054C16.1058 3.83799 17.3822 3.3221 18.7106 3.32141H18.7157C20.0438 3.32209 21.32 3.8378 22.2757 4.76008C23.2314 5.68236 23.7922 6.93933 23.8402 8.26663C26.2305 8.8767 27.9506 9.96452 27.9506 11.5302V16.6607H30.0028V30Z" fill="#9BC6F2"/>
<path d="M15 0C17.9374 0 20.3187 2.383 20.3187 5.32257C20.3187 7.40125 19.1279 9.2015 17.3918 10.0778C18.7653 10.3106 20.0851 10.7522 21.2037 11.4238C22.8227 12.3959 24.082 13.9036 24.3107 15.9397L27.0557 18C27.2159 18.1202 27.3458 18.2761 27.4353 18.4552C27.5249 18.6344 27.5715 18.8319 27.5714 19.0322V28.7096C27.5714 29.4223 26.9942 30 26.2821 30H3.71798C3.00584 30 2.42859 29.4223 2.42859 28.7096V19.0322C2.42859 18.6261 2.61966 18.2436 2.9443 18L5.68927 15.9397C5.91798 13.9036 7.17734 12.3959 8.79634 11.4238C9.91487 10.7522 11.2347 10.3106 12.6081 10.0778C10.8721 9.2015 9.6813 7.40121 9.6813 5.32257C9.6813 2.383 12.0626 0 15 0ZM5.00734 19.6774V27.4193H14.0881C14.0515 27.3157 14.0329 27.2067 14.033 27.0968V24.8388H11.7766C11.2425 24.8388 10.8096 24.4055 10.8096 23.871C10.8096 23.3365 11.2425 22.9032 11.7766 22.9032H14.033V20.6452C14.033 20.1107 14.4659 19.6775 15 19.6775C15.5341 19.6775 15.9671 20.1107 15.9671 20.6452V22.9032H18.2235C18.7576 22.9032 19.1905 23.3365 19.1905 23.871C19.1905 24.4055 18.7576 24.8388 18.2235 24.8388H15.9671V27.0968C15.9671 27.2099 15.9476 27.3185 15.912 27.4193H24.9927V19.6774L22.6288 17.9032H7.3712L5.00734 19.6774ZM15 12.4597C13.1533 12.4597 11.384 12.8796 10.1231 13.6367C9.35255 14.0994 8.80455 14.6605 8.5028 15.3225H21.4972C21.1954 14.6605 20.6474 14.0994 19.8769 13.6367C18.616 12.8796 16.8466 12.4597 15 12.4597ZM15 2.58064C13.4868 2.58064 12.2601 3.80825 12.2601 5.32257C12.2601 6.83689 13.4868 8.06454 15 8.06454C16.5132 8.06454 17.7399 6.83689 17.7399 5.32257C17.7399 3.80825 16.5132 2.58064 15 2.58064Z" fill="#333333"/>
</g>
<defs>
<clipPath id="clip0_3226_163">
<rect width="30" height="30" fill="white"/>
</clipPath>
</defs>
</svg>
