<svg width="30" height="30" viewBox="0 0 30 30" fill="none" xmlns="http://www.w3.org/2000/svg">
<g clip-path="url(#clip0_2700_121)">
<path d="M19.1732 9.19388V8.43478C19.1732 7.71385 19.3975 7.04135 19.7815 6.48665C18.7341 2.56719 16.9819 0 15.002 0C12.8684 0 10.9991 2.98143 9.99146 7.42374L10.0262 7.32298C10.4912 5.9719 11.7578 5 13.2473 5H13.2545L13.2616 5.00005C14.7616 5.01077 16.0337 5.99596 16.4826 7.37466L16.4839 7.3786L17.0792 9.19388H19.1732Z" fill="#333333"/>
<path d="M19.1732 11.1286H17.7137L19.1732 15.579V11.1286Z" fill="#333333"/>
<path d="M14.9744 9.19388L14.5815 7.99565C14.3897 7.40435 13.856 7.00435 13.2473 7C12.6511 7 12.1174 7.39131 11.9173 7.97391L11.4968 9.19388H14.9744Z" fill="#333333"/>
<path fill-rule="evenodd" clip-rule="evenodd" d="M10.8301 11.1286H15.6089L18.1468 18.8673H9.39469C9.29464 17.8926 9.22763 16.8874 9.20366 15.8477L10.8301 11.1286ZM13.2056 13.2609C13.2765 13.2609 13.3349 13.3043 13.3557 13.3696L14.5565 17.0304C14.5732 17.0826 14.5648 17.1391 14.5356 17.1826C14.5064 17.2261 14.4564 17.2522 14.4064 17.2522H11.9465C11.8964 17.2522 11.8464 17.2261 11.8172 17.1826C11.788 17.1391 11.7797 17.0826 11.7964 17.0304L13.0555 13.3696C13.0764 13.3043 13.1389 13.2609 13.2056 13.2609Z" fill="#333333"/>
<path d="M7.26093 15.3466L6.04755 18.8673H0.520563C0.192649 17.6294 0 16.3382 0 14.9979C0 13.6575 0.192649 12.3705 0.520563 11.1285H7.46004C7.33297 12.3951 7.25919 13.6985 7.25919 14.9979C7.25919 15.1142 7.25978 15.2304 7.26093 15.3466Z" fill="#333333"/>
<path d="M5.37937 20.8061L5.16637 21.4241L5.15635 21.4568C4.62822 23.1778 5.47755 25.0909 7.23185 25.7504L7.23967 25.7533L7.24752 25.7562C7.6087 25.8885 8.00375 25.9652 8.41505 25.9652C8.60367 25.9652 8.78901 25.9497 8.9698 25.9198C9.45474 27.2491 10.0413 28.4225 10.7269 29.3728C6.39842 28.0898 2.89794 24.9132 1.16819 20.8061H5.37937Z" fill="#333333"/>
<path d="M8.35758 23.964C8.21424 23.9577 8.07166 23.9281 7.93557 23.8783C7.21845 23.6087 6.83487 22.8043 7.06835 22.0435L7.49481 20.8061H7.70187C7.87162 21.9029 8.09046 22.9627 8.35758 23.964Z" fill="#333333"/>
<path d="M10.7018 25.0744C11.7642 28.1003 13.2989 30 15.002 30C16.5685 30 17.9926 28.3929 19.0377 25.7804C19.0233 25.7858 19.0089 25.7911 18.9944 25.7963C18.6168 25.9358 18.2337 26 17.8503 26C16.3601 26 15.0932 25.0279 14.6287 23.6758L14.6242 23.6625L14.1461 22.2043H12.1302L11.6043 23.7307L11.5925 23.7617C11.3978 24.2713 11.0899 24.7184 10.7018 25.0744Z" fill="#333333"/>
<path d="M18.7826 20.8061H15.7924L16.5202 23.0261C16.7204 23.6087 17.254 24 17.8503 24C18.0087 24 18.1588 23.9739 18.3089 23.9174C18.755 23.7597 19.0781 23.3833 19.2056 22.9409C19.2492 22.7895 19.2699 22.6303 19.2648 22.4696C19.2605 22.3362 19.2385 22.2017 19.197 22.0696L18.7826 20.8061Z" fill="#333333"/>
<path d="M10.4966 20.8061L9.9503 22.3917C9.83824 21.8811 9.73746 21.3518 9.64886 20.8061H10.4966Z" fill="#333333"/>
<path d="M21.1609 25.5793C20.6547 27.0487 20.0288 28.3404 19.2854 29.3688C23.6057 28.0858 27.1144 24.9091 28.8441 20.802H26V22.4846C25.9901 24.3529 24.4771 25.8913 22.5866 25.8913C22.0765 25.8913 21.5939 25.7794 21.1609 25.5793Z" fill="#333333"/>
<path d="M26 18.8673H29.4753C29.8074 17.6254 29.9959 16.3383 29.9959 14.998C29.9959 13.6576 29.8074 12.3664 29.4794 11.1286H26V18.8673Z" fill="#333333"/>
<path d="M24 11.1286V18.8673H22.5441C22.6711 17.6008 22.7449 16.2973 22.7449 14.998C22.7449 13.6986 22.6711 12.3992 22.5441 11.1286H24Z" fill="#333333"/>
<path d="M26 9.19382H28.8359C27.1062 5.0867 23.6057 1.91004 19.2772 0.627075C20.1529 1.8409 20.8669 3.4185 21.4141 5.22024C21.7792 5.0863 22.1739 5.01304 22.5866 5.01304C24.4834 5.01304 26 6.56022 26 8.43478V9.19382Z" fill="#333333"/>
<path d="M21.925 7.17882C22.1225 7.07306 22.3477 7.01304 22.5866 7.01304C23.3663 7.01304 24 7.65217 24 8.43478V9.19382H22.3022C22.1957 8.50581 22.07 7.83237 21.925 7.17882Z" fill="#333333"/>
<path d="M21.743 23.6093C21.9685 22.7127 22.1564 21.772 22.3063 20.802H24V22.4739C23.9959 23.2565 23.3621 23.8913 22.5866 23.8913C22.2706 23.8913 21.9786 23.7863 21.743 23.6093Z" fill="#333333"/>
<path d="M1.16819 9.19382C2.88974 5.0867 6.39842 1.91004 10.7187 0.627075C9.24307 2.67244 8.22653 5.75073 7.70187 9.19382H1.16819Z" fill="#333333"/>
<path d="M17.8502 24C17.254 24 16.7203 23.6087 16.5202 23.0261L15.6321 20.3174C15.6113 20.2522 15.5487 20.2043 15.482 20.2043H10.8166C10.7498 20.2043 10.6873 20.2478 10.6665 20.313L9.72418 23.0478C9.51155 23.6044 8.99455 23.9652 8.41501 23.9652C8.25241 23.9652 8.0898 23.9348 7.93554 23.8783C7.21841 23.6087 6.83483 22.8043 7.06832 22.0435L11.9173 7.97391C12.1174 7.39131 12.6511 7 13.2473 7C13.856 7.00435 14.3897 7.40435 14.5815 7.99565L19.1969 22.0696C19.4346 22.8261 19.0343 23.6609 18.3089 23.9174C18.1588 23.9739 18.0087 24 17.8502 24ZM13.2056 13.2609C13.1389 13.2609 13.0763 13.3043 13.0555 13.3696L11.7963 17.0304C11.7797 17.0826 11.788 17.1391 11.8172 17.1826C11.8464 17.2261 11.8964 17.2522 11.9464 17.2522H14.4064C14.4564 17.2522 14.5064 17.2261 14.5356 17.1826C14.5648 17.1391 14.5731 17.0826 14.5564 17.0304L13.3557 13.3696C13.3348 13.3043 13.2765 13.2609 13.2056 13.2609ZM22.5866 23.8913C21.8069 23.8913 21.1732 23.2522 21.1732 22.4696V8.43478C21.1732 7.65217 21.8069 7.01304 22.5866 7.01304C23.3663 7.01304 24 7.65217 24 8.43478V22.4739C23.9958 23.2565 23.3621 23.8913 22.5866 23.8913Z" fill="#333333"/>
</g>
<defs>
<clipPath id="clip0_2700_121">
<rect width="30" height="30" fill="white"/>
</clipPath>
</defs>
</svg>
