<svg width="30" height="30" viewBox="0 0 30 30" fill="none" xmlns="http://www.w3.org/2000/svg">
<g clip-path="url(#clip0_45_77)">
<path d="M30 3.82143H18.25V5.82143H27.3214V7.07143H18.25V9.14286H27.3214V10.3929H18.25V12.3929H27.3214V13.6429H18.25V15.6786H27.3214V16.9286H18.25V18.9286H27.3214V20.1786H18.25V22.2143H27.3214V23.4643H18.25V26.1071H30V3.82143ZM0 3.14625V26.7074L16.8571 30V0L0 3.14625ZM12.7857 21.37L4.07143 20.7266V9.25546L12.543 8.63V10.7822L6.20875 11.0916V13.7046L12.0702 13.6102V15.7419L6.20875 15.6905V18.8985L12.7857 19.2204V21.37Z" fill="#6FB47B"/>
</g>
<defs>
<clipPath id="clip0_45_77">
<rect width="30" height="30" fill="white"/>
</clipPath>
</defs>
</svg>
