<svg width="48" height="14" viewBox="0 0 48 14" fill="none" xmlns="http://www.w3.org/2000/svg">
<path d="M48 13.9979C46.2511 13.9979 44.5027 14.007 42.7537 13.9872C41.0798 13.9677 39.2063 13.9403 37.5774 13.2925C35.8178 12.5924 34.6528 11.3683 33.4807 9.92773C32.6369 8.89162 30.9794 6.68099 30.1723 5.61362C29.5117 4.73853 28.2187 3.00876 27.5126 2.1719C26.6239 1.1191 25.5253 1.52588e-05 23.9995 1.52588e-05C22.4737 1.52588e-05 21.3756 1.11904 20.4873 2.17081C19.7813 3.00716 18.4883 4.73796 17.8272 5.61253C17.0211 6.6799 15.3636 8.89053 14.5193 9.92664C13.3451 11.3672 12.1822 12.5913 10.4231 13.2914C8.79366 13.9376 6.91965 13.9667 5.2468 13.9861C3.49731 14.006 1.74891 13.9968 0 13.9968" fill="#333333"/>
</svg>
