<svg width="30" height="30" viewBox="0 0 30 30" fill="none" xmlns="http://www.w3.org/2000/svg">
<g clip-path="url(#clip0_3102_450)">
<path d="M22.8571 15.7144C26.802 15.7144 29.9999 18.9123 29.9999 22.8572C29.9999 26.8021 26.802 30.0001 22.8571 30.0001C18.9122 30.0001 15.7142 26.8021 15.7142 22.8572C15.7142 18.9123 18.9122 15.7144 22.8571 15.7144ZM22.8627 19.0358C22.7599 19.0358 22.6787 19.067 22.6192 19.1295C22.5597 19.192 22.5137 19.2667 22.4813 19.3537L21.548 21.5386L19.0403 21.7669C18.9808 21.7778 18.9267 21.805 18.878 21.8485C18.8293 21.8919 18.7996 21.9517 18.7888 22.0278C18.7779 22.1039 18.7955 22.1786 18.8415 22.252C18.8878 22.3257 18.9437 22.3929 19.0079 22.4517C19.0133 22.4572 19.0431 22.483 19.0972 22.5292C19.1665 22.5886 19.2355 22.6484 19.3041 22.7086C19.3982 22.7908 19.4929 22.8723 19.5881 22.9532C19.6936 23.0428 19.8005 23.1339 19.9087 23.2262C20.1963 23.4725 20.4831 23.7197 20.7689 23.9681C20.6767 24.3485 20.5847 24.729 20.493 25.1095C20.4559 25.2534 20.4193 25.3974 20.3834 25.5416C20.3513 25.6704 20.3201 25.7995 20.2901 25.9289C20.2669 26.0297 20.2426 26.1303 20.2171 26.2305C20.2034 26.2835 20.1899 26.3365 20.1765 26.3895C20.1657 26.4384 20.1711 26.486 20.1927 26.5321C20.2143 26.5784 20.2482 26.6178 20.2942 26.6504C20.3399 26.6829 20.3928 26.7039 20.4484 26.7115C20.5052 26.7197 20.5606 26.7102 20.6147 26.683C20.6418 26.6721 20.6945 26.6449 20.773 26.6015C20.8673 26.5488 20.9606 26.4944 21.0529 26.4384C21.1612 26.3732 21.2815 26.3025 21.4141 26.2265C21.5477 26.1498 21.6816 26.0737 21.8158 25.9982C22.1296 25.8188 22.4786 25.615 22.8627 25.3867L24.9808 26.6259C25.0079 26.6368 25.0471 26.6517 25.0985 26.6707C25.1499 26.6898 25.1891 26.6993 25.2162 26.6993C25.2973 26.6993 25.3704 26.6816 25.4353 26.6463C25.5002 26.611 25.5245 26.539 25.5083 26.4303C25.5029 26.4085 25.4921 26.3555 25.4758 26.2713C25.4561 26.1693 25.4358 26.0674 25.415 25.9656C25.3881 25.8327 25.3624 25.6995 25.3379 25.5661C25.3107 25.4188 25.281 25.272 25.2486 25.1258C25.1697 24.7367 25.0885 24.3481 25.0052 23.96L26.685 22.4436C26.7443 22.3753 26.8025 22.306 26.8595 22.2357C26.9055 22.1786 26.9285 22.112 26.9285 22.036C26.9285 21.9545 26.9069 21.8947 26.8636 21.8566C26.8203 21.8186 26.7445 21.786 26.6363 21.7588L24.1287 21.5224L23.2198 19.3374C23.2057 19.3098 23.1908 19.2826 23.1751 19.2559C23.1549 19.2214 23.1318 19.1887 23.1062 19.1581C23.0791 19.1255 23.0453 19.0969 23.0047 19.0725C22.9642 19.048 22.9168 19.0358 22.8627 19.0358Z" fill="#8DADF9"/>
<path d="M16.5756 0.0210082C17.1558 -0.0950274 17.7203 0.281294 17.8363 0.861508C17.8502 0.930697 17.8571 1.00109 17.8571 1.07165V14.4019C14.9708 16.1124 13.0357 19.2588 13.0357 22.8571C13.0357 25.5978 14.1582 28.0762 15.9686 29.8578L1.72261 27.0086C0.720999 26.8082 0 25.9288 0 24.9073V5.09286C0 4.0714 0.721035 3.19193 1.72261 2.99161L16.5756 0.0210082ZM3.89285 18.3571C3.41946 18.3571 3.03571 18.7409 3.03571 19.2143C3.03571 19.6829 3.41178 20.0637 3.87868 20.0713L3.89285 20.0714H10.75C11.2234 20.0714 11.6071 19.6877 11.6071 19.2143C11.6071 18.7409 11.2234 18.3571 10.75 18.3571H3.89285ZM26.7143 3.92858C28.5108 3.92858 29.9705 5.37036 29.9995 7.15997L30 7.21429V16.1161C29.3311 15.4074 28.5608 14.8017 27.7143 14.3189V7.21429C27.7143 6.6675 27.2754 6.22325 26.7308 6.21443L26.7143 6.21429H21.1428C20.5117 6.21429 20 5.70261 20 5.07143C20 4.44658 20.5015 3.93883 21.1239 3.92858H26.7143ZM3.89285 14.1429C3.41946 14.1429 3.03571 14.5266 3.03571 15C3.03571 15.4686 3.41178 15.8495 3.87868 15.857L3.89285 15.8571H13.9643C14.4377 15.8571 14.8214 15.4734 14.8214 15C14.8214 14.5266 14.4377 14.1429 13.9643 14.1429H3.89285ZM3.89285 9.92857C3.41946 9.92857 3.03571 10.3123 3.03571 10.7857C3.03571 11.2544 3.41178 11.6352 3.87868 11.6428L3.89285 11.6429H12.1786C12.652 11.6429 13.0357 11.2591 13.0357 10.7857C13.0357 10.3123 12.652 9.92857 12.1786 9.92857H3.89285Z" fill="#F7981D"/>
</g>
<defs>
<clipPath id="clip0_3102_450">
<rect width="30" height="30" fill="white"/>
</clipPath>
</defs>
</svg>
