<svg width="30" height="30" viewBox="0 0 30 30" fill="none" xmlns="http://www.w3.org/2000/svg">
<g clip-path="url(#clip0_42_188)">
<path d="M27.8569 0H2.14271C0.959286 0 0 1.0745 0 2.39996V21.5996C0 22.9251 0.959286 23.9996 2.14271 23.9996H12.6428V27.6H7.14279C6.55125 27.6005 6.07186 28.1375 6.07143 28.8V30H23.9286V28.8C23.9281 28.1373 23.4485 27.6003 22.8568 27.6H17.3572V23.9996H27.8569C28.4252 23.9997 28.9704 23.747 29.3722 23.2969C29.7742 22.8468 30 22.2362 30 21.5997V2.39996C30 1.76336 29.7742 1.15282 29.3723 0.70275C28.9704 0.252679 28.4252 0 27.8569 0ZM13.7509 21.2987C13.7422 21.0739 13.7943 20.8509 13.9017 20.6532C14.0091 20.4555 14.1679 20.2905 14.3613 20.1755C14.5547 20.0605 14.7755 19.9999 15.0005 20C15.2255 20.0001 15.4462 20.0609 15.6395 20.176C15.8328 20.2911 15.9915 20.4563 16.0987 20.6541C16.206 20.8518 16.2579 21.0749 16.249 21.2997C16.2222 21.9704 15.6707 22.5002 14.9995 22.5C14.3284 22.4998 13.7772 21.9695 13.751 21.2987H13.7509ZM4 2.28571H26C26.9468 2.28571 27.7143 3.05321 27.7143 4V16.6429C27.7143 17.5896 26.9468 18.3571 26 18.3571H4C3.05321 18.3571 2.28571 17.5896 2.28571 16.6429V4C2.28571 3.05321 3.05321 2.28571 4 2.28571Z" fill="#333333"/>
</g>
<defs>
<clipPath id="clip0_42_188">
<rect width="30" height="30" fill="white"/>
</clipPath>
</defs>
</svg>
