<svg width="30" height="30" viewBox="0 0 30 30" fill="none" xmlns="http://www.w3.org/2000/svg">
<circle cx="15" cy="15" r="15" fill="white"/>
<circle cx="15" cy="15" r="15" fill="#FFCC00" fill-opacity="0.1"/>
<path d="M7.14285 22.5063C7.17375 19.7164 9.93687 17.4014 13.5761 16.9153L14.1323 18.2454H15.8538L16.4107 16.9135C20.0415 17.3936 22.8036 19.6936 22.8571 22.4714C20.7321 24.2715 17.9825 25.3571 14.9793 25.3571C11.9956 25.3571 9.26211 24.2856 7.14285 22.5063ZM15.7267 18.8486H14.2423L13.5002 22.7076L14.9845 24.5628L16.4688 22.7076L15.7267 18.8486Z" fill="#FFCC00"/>
<path d="M20.6875 10.9204C20.4045 13.8119 17.9663 16.0714 15.0003 16.0714C12.2527 16.0714 9.95801 14.1325 9.40996 11.5484C9.40716 11.5352 9.4044 11.522 9.40169 11.5087C9.32557 11.1367 9.28559 10.7516 9.28559 10.3571C9.28559 7.2012 11.8441 4.64282 15.0003 4.64282C18.1564 4.64282 20.7149 7.2012 20.7149 10.3571C20.7149 10.5472 20.7056 10.7351 20.6875 10.9204ZM19.5288 10.9889C17.9357 10.9391 16.4906 10.3026 15.4023 9.28824C14.2044 10.6184 12.5014 11.4848 10.5954 11.5854C11.132 13.5136 12.9008 14.9285 15.0003 14.9285C17.3109 14.9285 19.2211 13.2146 19.5288 10.9889Z" fill="#FFCC00"/>
</svg>
