<svg xmlns="http://www.w3.org/2000/svg" width="24" height="24" viewBox="0 0 24 24" fill="none">
  <path d="M 12 0 C 18.627 0 24 5.373 24 12 C 24 18.627 18.627 24 12 24 C 5.373 24 0 18.627 0 12 C 0 5.373 5.373 0 12 0 Z M 12.993 6.862 C 12.441 6.322 11.559 6.322 11.007 6.862 L 10.993 6.875 L 7.135 10.738 C 6.765 11.109 6.765 11.71 7.135 12.081 C 7.506 12.452 8.107 12.452 8.477 12.081 L 11.041 9.514 L 11.041 16.686 C 11.041 17.159 11.425 17.543 11.898 17.543 L 12.082 17.543 C 12.555 17.543 12.939 17.159 12.939 16.686 L 12.939 9.494 L 15.523 12.081 L 15.54 12.098 C 15.912 12.452 16.5 12.446 16.865 12.081 C 17.23 11.716 17.235 11.127 16.882 10.755 L 16.865 10.738 L 13.007 6.875 L 12.993 6.862 Z" fill="currentColor" fill-rule="nonzero"/>
</svg>
