<svg width="30" height="30" viewBox="0 0 30 30" fill="none" xmlns="http://www.w3.org/2000/svg">
<g clip-path="url(#clip0_3102_472)">
<path d="M25.6524 0H12.7049C10.316 0 8.35718 1.61157 8.35718 3.61621V11.7528C8.35718 13.7574 10.316 15.369 12.7049 15.369H21.5277L24.5854 17.6881C25.4454 18.3563 26.4622 17.8846 26.4622 16.9019V15.3297C28.75 15.3297 30 13.7181 30 11.7528V3.61621C30 1.61157 28.0412 0 25.6524 0Z" fill="#8DADF9"/>
<path d="M19.2074 6.42859C21.8603 6.42859 24.0357 8.53437 24.0357 11.1538V21.8369C24.0357 24.4563 21.8603 26.5621 19.2074 26.5621H10.7179L7.32214 29.5924C6.36707 30.4656 4.72225 29.8492 4.72225 28.5652V26.5108C2.12236 26.4594 0 24.3536 0 21.7856V11.1538C0 8.53437 2.17543 6.42859 4.82836 6.42859H19.2074ZM5.78571 15.8214C5.78571 16.6421 5.94734 17.4548 6.2614 18.213C6.57546 18.9712 7.03578 19.6601 7.61609 20.2404C8.1964 20.8207 8.88532 21.2811 9.64353 21.5951C10.4017 21.9092 11.2144 22.0708 12.0351 22.0708C12.8558 22.0708 13.6684 21.9092 14.4266 21.5951C15.1848 21.2811 15.8737 20.8207 16.4541 20.2404C17.0344 19.6601 17.4947 18.9712 17.8088 18.213C18.1228 17.4548 18.2845 16.6421 18.2845 15.8214H15.7851C15.7851 16.816 15.39 17.7698 14.6867 18.4731C13.9835 19.1764 13.0296 19.5714 12.0351 19.5714C11.0405 19.5714 10.0867 19.1764 9.38342 18.4731C8.68016 17.7698 8.28507 16.816 8.28507 15.8214H5.78571Z" fill="#F7981D"/>
</g>
<defs>
<clipPath id="clip0_3102_472">
<rect width="30" height="30" fill="white"/>
</clipPath>
</defs>
</svg>
