<svg width="30" height="30" viewBox="0 0 30 30" fill="none" xmlns="http://www.w3.org/2000/svg">
<path d="M15 0C18.9782 0 22.7934 1.58051 25.6064 4.39355C28.4195 7.2066 30 11.0218 30 15C30 18.9782 28.4195 22.7934 25.6064 25.6064C22.7934 28.4195 18.9782 30 15 30C11.0218 30 7.2066 28.4195 4.39355 25.6064C1.58051 22.7934 0 18.9782 0 15C0 11.0218 1.58051 7.2066 4.39355 4.39355C7.2066 1.58051 11.0218 0 15 0ZM15.8535 18.2451H14.1318L13.5762 16.915C9.93707 17.401 7.17375 19.7161 7.14258 22.5059C9.26183 24.2851 11.9958 25.3574 14.9795 25.3574C17.9826 25.3574 20.7325 24.2718 22.8574 22.4717C22.8039 19.6939 20.0418 17.3932 16.4111 16.9131L15.8535 18.2451ZM15.7266 18.8486L16.4688 22.708L14.9844 24.5625L13.5 22.708L14.2422 18.8486H15.7266ZM15 4.64258C11.844 4.64273 9.28516 7.20159 9.28516 10.3574C9.28496 10.7577 9.32728 11.1573 9.41016 11.5488C9.95834 14.1326 12.2527 16.0712 15 16.0713C17.9659 16.0713 20.4043 13.8122 20.6875 10.9209C20.7056 10.7357 20.7148 10.5474 20.7148 10.3574C20.7148 7.20149 18.1561 4.64258 15 4.64258ZM15.4023 9.28809C16.4907 10.3024 17.9362 10.9395 19.5293 10.9893C19.2215 13.2148 17.3105 14.9287 15 14.9287C12.9007 14.9286 11.1323 13.513 10.5957 11.585C12.5016 11.4843 14.2045 10.6182 15.4023 9.28809Z" fill="#333333"/>
</svg>
