<svg width="30" height="30" viewBox="0 0 30 30" fill="none" xmlns="http://www.w3.org/2000/svg">
<path d="M17.2742 0.61466L27.9193 6.88976C29.2016 7.66244 30 9.02051 30 10.4722V25.8088C30 28.1268 28.0645 30 25.6693 30H4.33064C1.9355 30 0 28.1268 0 25.8088V10.4956C0 9.02051 0.798392 7.66244 2.08064 6.91319L12.7742 0.614625C14.1532 -0.204875 15.8951 -0.204875 17.2742 0.614625V0.61466ZM21.0534 17.7605C21.3551 17.3957 21.3039 16.8554 20.9391 16.5538C20.5743 16.2521 20.034 16.3033 19.7323 16.668L15.1032 22.2658L9.95392 16.6358C9.63442 16.2865 9.09224 16.2623 8.74292 16.5818C8.3936 16.9013 8.36942 17.4435 8.68892 17.7928L14.5032 24.1499C14.586 24.2404 14.6872 24.3121 14.8 24.3601C14.9128 24.4081 15.0346 24.4314 15.1571 24.4283C15.2797 24.4252 15.4002 24.3959 15.5104 24.3423C15.6207 24.2888 15.7182 24.2122 15.7963 24.1177L21.0534 17.7605Z" fill="#333333"/>
</svg>
