<svg xmlns="http://www.w3.org/2000/svg" width="10.057" height="18.815" viewBox="0 0 10.057 18.815" fill="none">
  <path d="M 5.026 13.045 C 7.194 13.045 10.057 16.004 10.057 18.337 C 10.057 19.07 8.725 18.804 6.394 18.56 L 6.4 18.49 C 6.4 16.956 5.291 15.178 3.883 13.975 C 4.349 13.459 4.794 13.045 5.026 13.045 Z M 3.239 7.275 C 4.773 7.309 6.239 7.421 7.317 7.532 C 7.153 10.31 4.985 12.555 2.286 12.555 C 1.493 12.556 0.71 12.357 0 11.973 L 0 11.736 L 0.08 11.681 C 1.522 10.664 2.618 9.16 3.198 7.4 L 3.239 7.275 Z M 2.482 0 C 5.139 0.039 6.646 0.857 6.843 0.972 L 6.866 0.984 L 7.766 6.77 C 7.766 6.77 5.641 6.403 3.485 6.303 C 3.599 5.714 3.657 5.112 3.657 4.508 C 3.66 2.998 3.294 1.515 2.597 0.209 L 2.482 0 Z" fill="currentColor" fill-rule="nonzero"/>
</svg>
