<svg width="30" height="30" viewBox="0 0 30 30" fill="none" xmlns="http://www.w3.org/2000/svg">
<path d="M30 2V28H7.06L0 15L7.06 2H30ZM23.64 10.362C23.526 10.2472 23.3905 10.1561 23.2412 10.094C23.0919 10.0318 22.9317 9.99981 22.77 9.99981C22.6083 9.99981 22.4481 10.0318 22.2988 10.094C22.1495 10.1561 22.014 10.2472 21.9 10.362L14.94 17.36L12.1 14.5C11.986 14.3852 11.8505 14.2941 11.7012 14.232C11.5519 14.1698 11.3917 14.1378 11.23 14.1378C11.0683 14.1378 10.9081 14.1698 10.7588 14.232C10.6095 14.2941 10.474 14.3852 10.36 14.5C10.1298 14.7322 10.0006 15.046 10.0006 15.373C10.0006 15.7 10.1298 16.0138 10.36 16.246L13.486 19.398C13.6759 19.5904 13.9022 19.7431 14.1516 19.8473C14.401 19.9516 14.6687 20.0052 14.939 20.0052C15.2093 20.0052 15.477 19.9516 15.7264 19.8473C15.9758 19.7431 16.2021 19.5904 16.392 19.398L23.64 12.112C23.8708 11.8797 24.0004 11.5655 24.0004 11.238C24.0004 10.9105 23.8708 10.5963 23.64 10.364V10.362Z" fill="#333333"/>
</svg>
