<svg width="30" height="30" viewBox="0 0 30 30" fill="none" xmlns="http://www.w3.org/2000/svg">
<g clip-path="url(#clip0_2751_127)">
<path d="M15 6.81818C17.17 6.81818 19.251 7.68019 20.7854 9.21458C22.3198 10.749 23.1818 12.83 23.1818 15C23.1818 18.0273 21.5318 20.6727 19.0909 22.0909V24.5455C19.0909 24.9071 18.9472 25.254 18.6915 25.5097C18.4358 25.7654 18.0889 25.9091 17.7273 25.9091H12.2727C11.9111 25.9091 11.5642 25.7654 11.3085 25.5097C11.0528 25.254 10.9091 24.9071 10.9091 24.5455V22.0909C8.46819 20.6727 6.81818 18.0273 6.81818 15C6.81818 12.83 7.68019 10.749 9.21458 9.21458C10.749 7.68019 12.83 6.81818 15 6.81818ZM17.7273 27.2727V28.6364C17.7273 28.998 17.5836 29.3449 17.3279 29.6006C17.0721 29.8563 16.7253 30 16.3636 30H13.6364C13.2747 30 12.9279 29.8563 12.6721 29.6006C12.4164 29.3449 12.2727 28.998 12.2727 28.6364V27.2727H17.7273ZM25.9091 15C25.9091 14.2469 26.5196 13.6364 27.2727 13.6364H28.6364C29.3895 13.6364 30 14.2469 30 15C30 15.7531 29.3895 16.3636 28.6364 16.3636H27.2727C26.5196 16.3636 25.9091 15.7531 25.9091 15ZM0 15C0 14.2469 0.610526 13.6364 1.36365 13.6364H2.72727C3.48039 13.6364 4.09091 14.2469 4.09091 15C4.09091 15.7531 3.48039 16.3636 2.72726 16.3636H1.36365C0.610524 16.3636 0 15.7531 0 15ZM15 0C15.7531 0 16.3636 0.610526 16.3636 1.36365V2.72726C16.3636 3.48038 15.7531 4.09091 15 4.09091C14.2469 4.09091 13.6364 3.48039 13.6364 2.72726V1.36365C13.6364 0.610527 14.2469 0 15 0ZM4.37387 4.3875C4.90953 3.84806 5.78188 3.84755 6.31817 4.38637L7.28407 5.3568C7.81735 5.89259 7.8148 6.7594 7.27838 7.29204C6.74464 7.82201 5.88311 7.8215 5.34999 7.2909L4.37955 6.32501C3.84339 5.79137 3.84084 4.92428 4.37387 4.3875ZM22.7182 7.28181C22.1831 6.74672 22.1821 5.8795 22.7159 5.34315L23.6682 4.38638C24.205 3.847 25.0778 3.84597 25.6159 4.38408C26.154 4.9222 26.153 5.79496 25.6136 6.33181L24.6568 7.28409C24.1205 7.81791 23.2533 7.81689 22.7182 7.28181Z" fill="#333333"/>
</g>
<defs>
<clipPath id="clip0_2751_127">
<rect width="30" height="30" fill="white"/>
</clipPath>
</defs>
</svg>
