<svg width="30" height="30" viewBox="0 0 30 30" fill="none" xmlns="http://www.w3.org/2000/svg">
<path d="M28.8393 11.6463L23.5351 3.74244C24.3387 2.77463 24.178 1.3229 23.2136 0.516392C22.2492 -0.29012 20.9633 -0.128818 20.1597 0.838997C19.356 1.80681 19.5167 3.25853 20.4811 4.06505C20.4811 4.22635 20.6419 4.22635 20.9633 4.38765L20.1597 9.54933C19.9989 10.1945 19.5167 10.5171 19.0345 10.3558L9.06905 8.74282C9.22978 7.93631 8.90831 7.12979 8.26538 6.64589C7.14024 6.00068 5.69364 6.16198 5.05071 7.12979C4.24704 8.09761 4.40777 9.38803 5.21144 10.1945C5.85438 10.6784 6.65804 10.8398 7.30098 10.6784L10.5156 20.1953C10.6764 20.6792 10.3549 21.3244 9.87271 21.4857L5.05071 23.26L4.56851 22.7761C3.60411 21.9696 2.1575 22.1309 1.51457 23.0987C0.710903 24.0666 0.871637 25.5183 1.83604 26.1635C2.80044 26.97 4.24704 26.8087 4.88997 25.8409L13.5696 29.8734C14.2125 30.196 14.8555 29.8734 15.0162 29.2282C16.3021 26.0022 18.0701 22.9374 20.3204 20.1953C22.5707 17.4532 25.3031 15.1949 28.3571 13.4206C29 12.9367 29.1607 12.1302 28.8393 11.6463Z" fill="#FDB913"/>
</svg>
