<svg width="30" height="30" viewBox="0 0 30 30" fill="none" xmlns="http://www.w3.org/2000/svg">
<path d="M23.8795 0C26.0491 0 27.808 1.75889 27.808 3.92857V26.0714C27.808 28.2411 26.0491 30 23.8795 30H6.02232C3.85264 30 2.09375 28.2411 2.09375 26.0714V3.92857C2.09375 1.75889 3.85264 0 6.02232 0H23.8795ZM24.85 24.0816H15.7304L15.7169 24.0817C15.2729 24.0889 14.9152 24.4516 14.9152 24.898C14.9152 25.3488 15.2801 25.7143 15.7304 25.7143H24.85L24.8635 25.7142C25.3075 25.707 25.6652 25.3443 25.6652 24.898C25.6652 24.4471 25.3002 24.0816 24.85 24.0816ZM5.51582 17.7122C5.2205 17.4264 4.74936 17.4293 4.45761 17.721C4.16296 18.0157 4.16296 18.4934 4.45761 18.7881L7.25879 21.5893L4.45761 24.3905L4.44886 24.3994C4.16296 24.6947 4.16589 25.1658 4.45761 25.4576C4.75229 25.7522 5.23004 25.7522 5.52475 25.4576L8.32589 22.6564L11.1271 25.4576L11.136 25.4663C11.4313 25.7522 11.9024 25.7493 12.1942 25.4576C12.4888 25.1629 12.4888 24.6851 12.1942 24.3904L9.393 21.5893L12.1942 18.7881L12.2029 18.7792C12.4888 18.4839 12.4859 18.0128 12.1942 17.721C11.8995 17.4264 11.4217 17.4264 11.127 17.721L8.32589 20.5222L5.52471 17.721L5.51582 17.7122ZM24.8495 17.5H15.7309L15.7174 17.5001C15.2731 17.5073 14.9152 17.87 14.9152 18.3163C14.9152 18.7672 15.2804 19.1326 15.7309 19.1326H24.8494L24.8629 19.1325C25.3072 19.1253 25.6652 18.7627 25.6652 18.3163C25.6652 17.8655 25.3 17.5 24.8494 17.5H24.8495ZM24.8495 10.9061H15.7309L15.7174 10.9062C15.2731 10.9134 14.9152 11.2754 14.9152 11.7209C14.9152 12.1709 15.2804 12.5357 15.7309 12.5357H24.8494L24.8629 12.5356C25.3072 12.5284 25.6652 12.1664 25.6652 11.7209C25.6652 11.2709 25.3 10.9061 24.8494 10.9061H24.8495ZM13.2117 5.12614C12.8933 4.80775 12.3766 4.80818 12.0576 5.12711L7.22125 9.96346L5.62986 8.37204L5.62021 8.36254C5.30057 8.05311 4.79104 8.05582 4.47582 8.37104C4.15739 8.68946 4.15786 9.20614 4.47679 9.52511L6.59425 11.6426C6.60943 11.6607 6.62554 11.6782 6.64257 11.6953C6.96096 12.0137 7.47764 12.0132 7.79661 11.6943L13.2107 6.28018L13.2202 6.27054C13.5296 5.95093 13.5269 5.44139 13.2117 5.12614ZM24.8495 4.28571H15.7309L15.7174 4.28582C15.2731 4.29304 14.9152 4.65504 14.9152 5.10054C14.9152 5.55054 15.2804 5.91536 15.7309 5.91536H24.8494L24.8629 5.91525C25.3072 5.90804 25.6652 5.54604 25.6652 5.10054C25.6652 4.65054 25.3 4.28571 24.8494 4.28571H24.8495Z" fill="#333333"/>
</svg>
