<svg width="30" height="30" viewBox="0 0 30 30" fill="none" xmlns="http://www.w3.org/2000/svg">
<g clip-path="url(#clip0_45_48)">
<path d="M15 0C23.2843 0 30 6.71571 30 15C30 23.2843 23.2843 30 15 30C6.71571 30 0 23.2843 0 15C0 6.71571 6.71571 0 15 0ZM10.6429 8.57143C10.0117 8.57143 9.5 9.08311 9.5 9.71428V20.2857C9.5 20.9169 10.0117 21.4286 10.6429 21.4286C11.274 21.4286 11.7857 20.9169 11.7857 20.2857V9.71428C11.7857 9.08311 11.274 8.57143 10.6429 8.57143ZM19.3571 8.57143C18.726 8.57143 18.2143 9.08311 18.2143 9.71428V20.2857C18.2143 20.9169 18.726 21.4286 19.3571 21.4286C19.9883 21.4286 20.5 20.9169 20.5 20.2857V9.71428C20.5 9.08311 19.9883 8.57143 19.3571 8.57143Z" fill="#333333"/>
</g>
<defs>
<clipPath id="clip0_45_48">
<rect width="30" height="30" fill="white"/>
</clipPath>
</defs>
</svg>
