<svg width="30" height="30" viewBox="0 0 30 30" fill="none" xmlns="http://www.w3.org/2000/svg">
<g clip-path="url(#clip0_42_224)">
<path d="M18.2857 4.28571C20.0215 4.28571 21.4286 5.69282 21.4286 7.42857V23.4286H26.8571C27.3258 23.4286 27.7066 23.0525 27.7142 22.5856L27.7143 22.5714V3.14286C27.7143 2.67421 27.3382 2.29339 26.8713 2.28582L26.8571 2.28571H13.8571C13.3885 2.28571 13.0077 2.66182 13.0001 3.12868L13 3.14286V4.28571H18.2857ZM10.7143 10.7143C10.0894 10.7143 9.58168 11.2158 9.57157 11.8382L9.57143 11.8571V16H5.42857L5.40964 16.0001C4.78721 16.0102 4.28571 16.518 4.28571 17.1429C4.28571 17.7677 4.78721 18.2755 5.40964 18.2856L5.42857 18.2857H9.57143V22.4286L9.57157 22.4475C9.58168 23.0699 10.0894 23.5714 10.7143 23.5714C11.3391 23.5714 11.8469 23.0699 11.857 22.4475L11.8571 22.4286V18.2857H16L16.0189 18.2856C16.6414 18.2755 17.1429 17.7677 17.1429 17.1429C17.1429 16.518 16.6414 16.0102 16.0189 16.0001L16 16H11.8571V11.8571L11.857 11.8382C11.8469 11.2158 11.3391 10.7143 10.7143 10.7143ZM10.7143 3.14286C10.7143 1.42446 12.0934 0.0281786 13.8052 0.000428643L13.8571 0H26.8571C28.5755 0 29.9718 1.37911 29.9996 3.09089L30 3.14286V22.5714C30 24.2898 28.6209 25.6861 26.9091 25.7139L26.8571 25.7143H21.4286V26.8571C21.4286 28.5929 20.0215 30 18.2857 30H3.14286C1.40711 30 0 28.5929 0 26.8571V7.42857C0 5.69282 1.40711 4.28571 3.14286 4.28571H10.7143V3.14286Z" fill="#333333"/>
</g>
<defs>
<clipPath id="clip0_42_224">
<rect width="30" height="30" fill="white"/>
</clipPath>
</defs>
</svg>
