<svg width="30" height="30" viewBox="0 0 30 30" fill="none" xmlns="http://www.w3.org/2000/svg">
<path fill-rule="evenodd" clip-rule="evenodd" d="M29.25 0H0.750001C0.25 0 0 0.249861 0 0.749584V1.87396C0 2.37368 0.25 2.62354 0.750001 2.62354L2.81249 2.62354V21.4881C2.81249 23.144 4.15561 24.4864 5.81249 24.4864H11.2274L7.41788 28.2938C7.02738 28.6841 7.02738 29.317 7.41788 29.7072C7.80845 30.0976 8.44157 30.0976 8.83213 29.7072L14.0559 24.4864H15.9608L21.1845 29.7072C21.575 30.0976 22.2082 30.0976 22.5987 29.7072C22.9893 29.317 22.9893 28.6841 22.5987 28.2938L18.7892 24.4864H24.1875C25.8444 24.4864 27.1875 23.144 27.1875 21.4881V2.62354L29.25 2.62354C29.75 2.62354 30 2.37368 30 1.87396V0.749584C30 0.249861 29.75 0 29.25 0ZM17.4375 4.5669H22.4375C23.1279 4.5669 23.6875 5.12621 23.6875 5.81621V10.6052C23.6875 11.2952 23.1279 11.8545 22.4375 11.8545H17.4375C16.7471 11.8545 16.1875 11.2952 16.1875 10.6052V5.81621C16.1875 5.12621 16.7471 4.5669 17.4375 4.5669ZM5.81249 16.136C5.81249 15.6497 6.20699 15.2554 6.69355 15.2554H13.6814C14.168 15.2554 14.5625 15.6497 14.5625 16.136C14.5625 16.6223 14.168 17.0166 13.6814 17.0166H6.69355C6.20699 17.0166 5.81249 16.6223 5.81249 16.136ZM6.69355 18.96H13.6814C14.168 18.96 14.5625 19.3542 14.5625 19.8405C14.5625 20.3269 14.168 20.7211 13.6814 20.7211H6.69355C6.20699 20.7211 5.81249 20.3269 5.81249 19.8405C5.81249 19.3542 6.20699 18.96 6.69355 18.96Z" fill="#333333"/>
</svg>
