<svg width="30" height="30" viewBox="0 0 30 30" fill="none" xmlns="http://www.w3.org/2000/svg">
<path d="M5.5443 15.4677L14.7658 20.1228C14.9291 20.2052 15.1096 20.2479 15.2925 20.2474C15.4754 20.2469 15.6556 20.2033 15.8185 20.1202L23.8137 16.0342L23.8141 22.8471C23.8141 23.2911 23.5556 23.6952 23.1507 23.8842L15.1801 27.6053C15.0263 27.677 14.8586 27.7143 14.6889 27.7144C14.5191 27.7144 14.3514 27.6773 14.1975 27.6057L6.20887 23.8838C5.80359 23.695 5.5448 23.2908 5.54469 22.8465L5.54434 15.4677H5.5443ZM28.4532 13.6632L28.4536 19.9255C28.4536 20.0268 28.413 20.124 28.3408 20.1957C28.2684 20.2674 28.1705 20.3076 28.0686 20.3076H26.1435C25.9308 20.3076 25.7585 20.1365 25.7585 19.9255L25.7581 15.0406L28.4532 13.6632ZM15.4059 2.1071L15.4541 2.13082L29.3808 9.37316C29.6996 9.53881 29.9224 9.84248 29.9834 10.1945C30.0134 10.3683 30.0027 10.5467 29.952 10.7157C29.9014 10.8847 29.8123 11.0397 29.6917 11.1684L15.811 18.2619C15.6481 18.3451 15.4679 18.3887 15.285 18.3892C15.1021 18.3896 14.9216 18.3469 14.7583 18.2646L0.224642 10.9282C0.200383 10.8955 0.177887 10.8615 0.157249 10.8264L0.130499 10.7783C-0.155716 10.2321 0.0438556 9.5592 0.582536 9.25398L0.622357 9.23238L14.385 2.12928C14.5423 2.0482 14.716 2.00408 14.8929 2.00027C15.0699 1.99646 15.2453 2.03308 15.4059 2.10732V2.1071Z" fill="#333333"/>
</svg>
