<svg width="30" height="30" viewBox="0 0 30 30" fill="none" xmlns="http://www.w3.org/2000/svg">
<g clip-path="url(#clip0_45_73)">
<path fill-rule="evenodd" clip-rule="evenodd" d="M0 26.7074V3.14625L16.8929 0V30L0 26.7074ZM5.18461 23.4367C5.33871 23.3353 5.46654 23.186 5.56786 22.9886C5.66939 22.7907 5.72114 22.5383 5.72275 22.2317C5.72489 21.8338 5.63914 21.5009 5.46596 21.234C5.29321 20.9679 5.07886 20.7868 4.82346 20.6908C4.65789 20.6273 4.30418 20.5734 3.76632 20.5292L2.37518 20.4149V25.2306L3.23064 25.3441L3.23314 23.5204L3.80093 23.585C4.19914 23.6303 4.50554 23.6416 4.71836 23.6187C4.87561 23.5984 5.031 23.5378 5.18461 23.4367ZM9.76414 25.691C9.99382 25.4875 10.173 25.2048 10.3011 24.8424C10.4062 24.5448 10.4617 24.1813 10.4673 23.7522C10.4737 23.2631 10.4248 22.8458 10.3208 22.5011C10.2169 22.1568 10.0631 21.8601 9.85971 21.6113C9.65696 21.3634 9.41311 21.1827 9.12868 21.069C8.91796 20.9856 8.61261 20.9274 8.21439 20.8946L6.48543 20.7526L6.45246 25.7717L8.21829 26.0061C8.57232 26.0532 8.85725 26.055 9.072 26.0113C9.3605 25.9513 9.59146 25.8445 9.76414 25.691ZM12.3886 22.1436L14.9456 22.3757L14.9643 21.4492L11.3695 21.1539L11.2938 26.4143L12.3179 26.5503L12.354 24.3041L14.5454 24.5481L14.5633 23.631L12.3684 23.4054L12.3886 22.1436ZM10.3202 13.1698C11.1293 13.4845 12.0744 13.75 13.1871 13.9473C13.1871 13.9473 16.2356 13.9904 15.1578 12.0863C15.1578 12.0863 14.4149 10.6998 10.0783 12.3352C8.80968 11.81 7.52304 10.9468 6.72446 9.50232C7.35561 7.55664 7.71111 5.63061 7.21529 4.55454C7.21529 4.55454 6.08971 1.38757 5.35664 4.61186C5.35664 4.61186 4.83332 7.30446 6.16225 9.74846C5.62775 11.2298 4.80425 13.0666 3.55629 15.2739C3.55629 15.2739 2.82118 15.5608 1.94007 16.2365C1.94007 16.2365 0.265357 17.5899 1.77057 18.0178C1.77057 18.0178 2.69614 18.1497 3.81686 16.0814C3.81686 16.0814 5.38211 13.2896 6.46682 10.2571C6.46727 10.2575 6.46773 10.2579 6.46819 10.2583C6.46902 10.2589 6.4699 10.2596 6.47086 10.2603C7.06229 11.1484 7.93596 11.9943 9.23157 12.6768C8.00079 13.2016 6.565 13.934 4.90457 14.9394C4.90457 14.9394 7.72011 13.908 10.3111 13.1701C10.3141 13.1701 10.3173 13.17 10.3202 13.1698ZM18.25 3.78571H30V26.0714H18.25V23.4286H27.3214V22.1786H18.25V20.1429H27.3214V18.8929H18.25V16.8929H27.3214V15.6429H18.25V13.6071H27.3214V12.3571H18.25V10.3571H27.3214V9.10714H18.25V7.03571H27.3214V5.78571H18.25V3.78571ZM6.72382 9.4716L6.7245 9.46985C6.70461 9.43439 6.71447 9.45392 6.72382 9.4716ZM8.63286 21.8196C8.81389 21.8784 8.96332 21.9732 9.08075 22.1041C9.19846 22.2354 9.28932 22.4114 9.35329 22.6321C9.41725 22.8529 9.447 23.1635 9.44246 23.563C9.43789 23.9623 9.40121 24.2733 9.33243 24.4963C9.26379 24.7189 9.17675 24.8739 9.0715 24.9615C8.96643 25.049 8.83521 25.1039 8.67804 25.1263C8.55829 25.144 8.36439 25.1361 8.09729 25.1029L7.38993 25.015L7.41704 21.6599L7.84393 21.6987C8.23436 21.7341 8.498 21.7744 8.63286 21.8196ZM2.24979 17.3721C2.24979 17.3721 1.79954 17.3174 2.18782 16.7853C2.18782 16.7853 2.67914 16.2559 3.43639 16.0805L3.43627 16.0809C3.42879 16.1052 3.0719 17.2629 2.24979 17.3721ZM3.65775 21.3187C3.97461 21.3475 4.18664 21.378 4.2925 21.4101C4.43664 21.4524 4.55582 21.5365 4.65 21.6622C4.74432 21.7882 4.79118 21.9414 4.79046 22.1216C4.78989 22.2679 4.75561 22.3927 4.68771 22.496C4.61989 22.5991 4.52675 22.6702 4.40843 22.7094C4.29032 22.7485 4.05732 22.7497 3.71107 22.7133L3.23429 22.6632L3.23618 21.2805L3.65775 21.3187ZM5.90446 6.40125C5.90446 6.40125 5.86639 2.39403 7.0005 5.12121C7.0005 5.12121 7.00053 5.12132 7.0006 5.12155C7.00691 5.14265 7.30904 6.15343 6.44411 8.88578C6.15357 8.19157 5.95704 7.37571 5.90446 6.40125ZM11.6104 12.8005C11.6054 12.7983 11.6004 12.7965 11.5951 12.7945C13.5207 12.3199 14.871 12.205 13.9136 13.1442C13.9136 13.1442 12.8949 13.1167 11.6104 12.8005Z" fill="#E9573F"/>
</g>
<defs>
<clipPath id="clip0_45_73">
<rect width="30" height="30" fill="white"/>
</clipPath>
</defs>
</svg>
