<svg width="30" height="30" viewBox="0 0 30 30" fill="none" xmlns="http://www.w3.org/2000/svg">
<path d="M10.2857 7.14286C9.65454 7.14286 9.14286 6.63118 9.14286 6V1.14286C9.14286 0.511678 9.65454 0 10.2857 0C10.9169 0 11.4286 0.511678 11.4286 1.14286V6C11.4286 6.63118 10.9169 7.14286 10.2857 7.14286ZM17.9286 6.07143C17.9286 7.05764 18.7281 7.85714 19.7143 7.85714C20.7005 7.85714 21.5 7.05764 21.5 6.07143V3.21429H25.7143C28.0812 3.21429 30 5.13307 30 7.5V11.0714H0V7.5C0 5.13307 1.91879 3.21429 4.28571 3.21429H8.5V6.07143C8.5 7.05764 9.2995 7.85714 10.2857 7.85714C11.2719 7.85714 12.0714 7.05764 12.0714 6.07143V3.21429H17.9286V6.07143ZM0 13.3571H30V25.7143C30 28.0812 28.0812 30 25.7143 30H4.28571C1.91879 30 0 28.0812 0 25.7143V13.3571ZM21.0534 17.7605C21.3551 17.3957 21.3039 16.8554 20.9391 16.5537C20.5743 16.252 20.034 16.3032 19.7323 16.668L15.1032 22.2658L9.95393 16.6358C9.63443 16.2865 9.09225 16.2623 8.74293 16.5818C8.39361 16.9013 8.36943 17.4434 8.68893 17.7927L14.5032 24.1499C14.586 24.2403 14.6872 24.312 14.8 24.36C14.9128 24.408 15.0346 24.4313 15.1571 24.4282C15.2797 24.4252 15.4001 24.3959 15.5104 24.3423C15.6207 24.2887 15.7182 24.2121 15.7963 24.1176L21.0534 17.7605ZM18.5714 6C18.5714 6.63118 19.0831 7.14286 19.7143 7.14286C20.3455 7.14286 20.8571 6.63118 20.8571 6V1.14286C20.8571 0.511678 20.3455 0 19.7143 0C19.0831 0 18.5714 0.511678 18.5714 1.14286V6Z" fill="#333333"/>
</svg>
