<svg width="30" height="30" viewBox="0 0 30 30" fill="none" xmlns="http://www.w3.org/2000/svg">
<g clip-path="url(#clip0_1261_38)">
<path d="M2.14778 7.4554C3.71535 4.79649 6.06494 2.68585 8.87611 1.41135C11.6873 0.136837 14.8232 -0.239492 17.8561 0.333685L16.1436 8.02746C15.79 7.96469 15.4318 7.93206 15.0726 7.92993C13.6611 7.92993 12.2813 8.34849 11.1077 9.13268C9.93407 9.91687 9.01934 11.0315 8.47918 12.3355C7.93902 13.6396 7.79769 15.0746 8.07306 16.459C8.34843 17.8433 9.02814 19.115 10.0262 20.1131C11.0243 21.1112 12.296 21.7909 13.6803 22.0662C15.0647 22.3416 16.4997 22.2003 17.8038 21.6601C19.1078 21.12 20.2224 20.2052 21.0066 19.0316C21.7908 17.858 22.2094 16.4782 22.2094 15.0666H30.0738C30.0743 17.3734 29.5429 19.6491 28.5208 21.717C27.4987 23.7849 26.0135 25.5893 24.1806 26.9898C22.3477 28.3903 20.2165 29.3493 17.9527 29.7922C15.6889 30.235 13.3535 30.1499 11.128 29.5433C8.90243 28.9367 6.84676 27.8251 5.12074 26.2948C3.39473 24.7645 2.04487 22.8568 1.17609 20.7199C0.307319 18.5831 -0.0569628 16.2746 0.111563 13.9741C0.280089 11.6735 0.976883 9.44284 2.14778 7.4554ZM24.5314 3.4941L24.4038 7.11591L27.9938 7.56606L21.8005 12.8365L19.7204 12.5702L16.5825 15.0648H18.5632C18.5636 15.8692 18.3146 16.654 17.8505 17.311C17.3865 17.9681 16.7301 18.4651 15.9718 18.7336C15.2136 19.0022 14.3907 19.0291 13.6165 18.8106C12.8423 18.5921 12.1549 18.139 11.649 17.5136C11.143 16.8882 10.8434 16.1214 10.7913 15.3186C10.7392 14.5159 10.9373 13.7168 11.3582 13.0313C11.7791 12.3458 12.4022 11.8076 13.1416 11.4909C13.8811 11.1742 14.7006 11.0946 15.4872 11.2629L14.9845 13.598L18.2856 10.9947L18.3381 8.76645L24.5314 3.49597V3.4941Z" fill="#F7981D"/>
<path d="M17.3381 0.245698L17.8558 0.333852L16.1415 8.02763C15.7879 7.96486 15.4296 7.93223 15.0705 7.9301C13.6746 7.9301 12.3093 8.33948 11.1437 9.10756C9.97804 9.87564 9.06326 10.9687 8.51258 12.2514C7.96189 13.5341 7.79947 14.9502 8.04543 16.3243C8.29139 17.6984 8.93493 18.9702 9.89638 19.9822C10.8578 20.9943 12.095 21.7021 13.4546 22.0182C14.8143 22.3343 16.2368 22.2446 17.5461 21.7604C18.8554 21.2762 19.9939 20.4186 20.8207 19.2939C21.6475 18.1692 22.1263 16.8267 22.1978 15.4326L22.2072 15.0668H30.0717C30.0717 15.8996 30.0041 16.7192 29.871 17.522C24.8466 23.0539 18.4992 27.2186 11.4243 29.6253C7.68422 28.6869 4.44914 26.3443 2.39057 23.0838C0.331989 19.8232 -0.39198 15.8952 0.368934 12.115C1.12985 8.3348 3.3172 4.99279 6.47697 2.78265C9.63673 0.572517 13.5262 -0.335994 17.3381 0.245698ZM24.5311 3.49426L24.4036 7.11608L27.9935 7.56623L21.8002 12.8367L19.7201 12.5704L16.5822 15.0649H18.5629C18.5636 15.8576 18.3221 16.6316 17.8707 17.2832C17.4193 17.9349 16.7797 18.4331 16.0374 18.7111C15.295 18.9892 14.4855 19.0338 13.7171 18.839C12.9487 18.6443 12.2581 18.2194 11.7379 17.6213C11.2176 17.0233 10.8925 16.2805 10.8061 15.4926C10.7196 14.7046 10.8759 13.909 11.2541 13.2124C11.6323 12.5157 12.2143 11.9512 12.9221 11.5945C13.63 11.2377 14.43 11.1057 15.2149 11.2162L15.4888 11.2631L14.9842 13.5982L18.2853 10.9949L18.3378 8.76662L24.5311 3.49614V3.49426Z" fill="#FFB245"/>
<path d="M17.1866 0.223212L17.031 0.474544C15.2181 3.31941 12.8128 5.73966 9.97918 7.57013C7.1456 9.40059 3.95046 10.5982 0.611816 11.0812C1.58227 7.56549 3.80026 4.52379 6.85091 2.525C9.90156 0.526217 13.5759 -0.292735 17.1866 0.221336V0.223212Z" fill="#FFCC93"/>
</g>
<defs>
<clipPath id="clip0_1261_38">
<rect width="30" height="30" fill="white"/>
</clipPath>
</defs>
</svg>
