<svg width="30" height="30" viewBox="0 0 30 30" fill="none" xmlns="http://www.w3.org/2000/svg">
<path d="M20.3593 0C21.2063 6.36625e-06 21.8928 0.77025 21.7331 1.72043V3.26165H28.2816C29.2307 3.26165 30 4.03189 30 4.98207V17.2133C28.819 15.9674 27.2823 15.0609 25.5521 14.6556C24.789 9.50643 20.3554 5.55564 15 5.55564C9.10811 5.55564 4.33179 10.3377 4.33179 16.2366C4.33179 22.1356 9.10811 26.9175 15 26.9175C15.0988 26.9175 15.1972 26.9161 15.2954 26.9135C15.813 28.0983 16.5808 29.1493 17.5321 30H1.71837C0.769329 30 3.73371e-06 29.2298 0 28.2796V4.98207C3.02137e-06 4.03189 0.769329 3.26165 1.71837 3.26165H8.09068V1.72043C8.09068 0.77025 8.77729 3.05854e-06 9.62425 0H20.3593ZM23.1071 16.2143C26.914 16.2143 30 19.3003 30 23.1071C30 26.914 26.914 30 23.1071 30C19.3003 30 16.2143 26.914 16.2143 23.1071C16.2143 19.3003 19.3003 16.2143 23.1071 16.2143ZM22.2682 24.0082C22.0621 23.8041 21.7296 23.8041 21.5255 24.0082C21.3214 24.2143 21.3214 24.5468 21.5255 24.7509L22.3984 25.6237L21.5255 26.4966C21.3214 26.7027 21.3214 27.0351 21.5255 27.2393C21.6286 27.3423 21.7627 27.3929 21.8968 27.3929C22.031 27.3929 22.1651 27.3423 22.2662 27.2393L23.1404 26.3657L24.0139 27.2393C24.117 27.3423 24.2511 27.3929 24.3853 27.3929C24.5213 27.3929 24.6555 27.3423 24.7566 27.2393C24.9607 27.0332 24.9607 26.7008 24.7566 26.4966L23.8833 25.6234L24.7526 24.7548C24.9568 24.5487 24.9568 24.2162 24.7526 24.0121C24.5466 23.808 24.2141 23.808 24.01 24.0121L23.141 24.8811L22.2682 24.0082ZM23.1605 20.9968C22.4295 20.9968 21.7296 21.164 21.0823 21.4926C20.4641 21.8056 19.9139 22.2624 19.494 22.8146C19.319 23.044 19.3618 23.3745 19.5931 23.5494C19.6884 23.6214 19.8011 23.6563 19.9119 23.6563C20.0694 23.6563 20.2269 23.5844 20.3299 23.4483C21.0084 22.556 22.0407 22.0447 23.1605 22.0447C24.2803 22.0447 25.3106 22.556 25.991 23.4483C26.166 23.6796 26.4945 23.7224 26.7259 23.5475C26.9572 23.3725 27 23.044 26.825 22.8126C26.4051 22.2605 25.8569 21.8036 25.2387 21.4906C24.5913 21.164 23.8914 20.9968 23.1605 20.9968ZM23.1274 18.8214C22.0504 18.8214 20.9773 19.082 20.0247 19.5738C19.1033 20.0481 18.2906 20.7422 17.6744 21.5781C17.5013 21.8114 17.5519 22.1419 17.7851 22.313C17.8785 22.383 17.9873 22.416 18.0962 22.416C18.2575 22.416 18.417 22.3421 18.52 22.2002C19.5951 20.7422 21.3175 19.8713 23.1274 19.8713C24.9568 19.8713 26.6326 20.715 27.7251 22.1866C27.8981 22.4199 28.2267 22.4685 28.46 22.2955C28.6933 22.1225 28.7419 21.7939 28.5689 21.5606C27.9526 20.7305 27.14 20.0404 26.2224 19.5679C25.2718 19.08 24.2025 18.8214 23.1274 18.8214ZM15 10.5313C16.4587 10.5313 17.8576 11.1108 18.8891 12.1422C19.667 12.9202 20.1878 13.9073 20.3968 14.9714C17.5401 16.0258 15.3704 18.494 14.7403 21.525C13.3761 21.4606 12.081 20.8904 11.1109 19.9204C10.0795 18.8889 9.50004 17.49 9.50004 16.0313C9.50004 14.5726 10.0795 13.1737 11.1109 12.1422C12.1424 11.1108 13.5413 10.5313 15 10.5313Z" fill="#333333"/>
</svg>
