<svg width="30" height="30" viewBox="0 0 30 30" fill="none" xmlns="http://www.w3.org/2000/svg">
<g clip-path="url(#clip0_45_16)">
<path d="M26.8669 0H3.13316C1.40276 0 0 1.40276 0 3.13316V26.8669C0 28.5972 1.40276 30 3.13316 30H26.8669C28.5973 30 30.0001 28.5972 30.0001 26.8669V3.13316C30.0001 1.40276 28.5973 0 26.8669 0ZM26.0551 8.90468L11.4289 23.0881C11.1802 23.3293 10.858 23.4494 10.5367 23.4494C10.2083 23.4494 9.88026 23.3243 9.62989 23.0739L3.93118 17.3751C3.4299 16.8744 3.4299 15.9653 3.93118 15.4646C4.43191 14.9638 5.24274 14.8661 5.74354 15.3668L10.5501 20.1727L24.2709 6.868C24.7782 6.37643 25.5888 6.48496 26.0836 6.99407C26.5756 7.50236 26.564 8.41129 26.0551 8.90468Z" fill="#333333"/>
</g>
<defs>
<clipPath id="clip0_45_16">
<rect width="30" height="30" fill="white"/>
</clipPath>
</defs>
</svg>
