<svg width="30" height="30" viewBox="0 0 30 30" fill="none" xmlns="http://www.w3.org/2000/svg">
<g clip-path="url(#clip0_45_25)">
<path d="M27.7143 0H2.28571C1.02336 0 0 1.02336 0 2.28571V27.7143C0 28.9767 1.02336 30 2.28571 30H27.7143C28.9767 30 30 28.9767 30 27.7143V2.28571C30 1.02336 28.9767 0 27.7143 0ZM2.28571 2.28571H27.7143V18.9483L23.4974 14.4452C23.0945 14.015 22.4412 14.015 22.0382 14.4452L17.5817 19.2042L10.3005 11.0714C9.85425 10.5948 9.13061 10.5948 8.68432 11.0714L2.28571 18.2483V2.28571Z" fill="#333333"/>
<path d="M17.875 8.14062C17.875 8.93213 18.1894 9.69122 18.7491 10.2509C19.3088 10.8106 20.0679 11.125 20.8594 11.125C21.6509 11.125 22.41 10.8106 22.9696 10.2509C23.5293 9.69122 23.8437 8.93213 23.8437 8.14062C23.8437 7.34912 23.5293 6.59003 22.9696 6.03035C22.41 5.47067 21.6509 5.15625 20.8594 5.15625C20.0679 5.15625 19.3088 5.47067 18.7491 6.03035C18.1894 6.59003 17.875 7.34912 17.875 8.14062Z" fill="#333333"/>
</g>
<defs>
<clipPath id="clip0_45_25">
<rect width="30" height="30" fill="white"/>
</clipPath>
</defs>
</svg>
