<svg width="30" height="30" viewBox="0 0 30 30" fill="none" xmlns="http://www.w3.org/2000/svg">
<path d="M24.7862 26.6682C23.2926 27.9551 21.5591 28.9384 19.6811 29.5548C19.0531 29.7609 18.3817 29.393 18.2176 28.7528C17.8444 27.297 16.5254 26.2595 15 26.2595C13.4746 26.2595 12.1556 27.297 11.7824 28.7528C11.6182 29.393 10.9469 29.7609 10.3189 29.5548C8.44082 28.9384 6.70739 27.9551 5.21371 26.6682C4.76639 26.2828 4.68629 25.6201 5.02893 25.1392C5.42643 24.5813 5.64286 23.9158 5.64286 23.2147C5.64286 21.3804 4.15579 19.8933 2.32143 19.8933C2.13718 19.8933 1.95529 19.9082 1.77675 19.9376C1.19418 20.0334 0.634536 19.6697 0.485428 19.0985C0.164214 17.8679 0 16.5943 0 15.3C0 14.4212 0.0756785 13.5514 0.225143 12.6976C0.337429 12.056 0.962357 11.6379 1.59821 11.7789C1.8357 11.8314 2.07821 11.8578 2.32143 11.8576C4.15579 11.8576 5.64286 10.3705 5.64286 8.53614C5.64286 7.61457 5.26718 6.75575 4.61325 6.13207C4.14225 5.68289 4.14089 4.93167 4.61029 4.48082C6.21986 2.93475 8.15504 1.7621 10.2786 1.05846C10.9229 0.84496 11.6102 1.23675 11.7547 1.89992C12.0844 3.41217 13.4307 4.50957 15 4.50957C16.5692 4.50957 17.9156 3.41217 18.2452 1.89992C18.3897 1.23675 19.077 0.84496 19.7213 1.05846C21.9328 1.79125 23.9391 3.03239 25.5858 4.67267C26.0235 5.10871 26.0355 5.81371 25.6127 6.26432C25.0385 6.87642 24.7143 7.67939 24.7143 8.53614C24.7143 10.3705 26.2013 11.8576 28.0357 11.8576C28.1929 11.8576 28.3484 11.8467 28.5015 11.8253C29.1136 11.7397 29.6828 12.1561 29.7865 12.7653C29.9289 13.6027 30.0003 14.4506 30 15.3C30 16.5942 29.8358 17.8679 29.5145 19.0985C29.3654 19.6697 28.8057 20.0334 28.2232 19.9375C28.0432 19.908 27.861 19.8932 27.6786 19.8933C25.8442 19.8933 24.3571 21.3803 24.3571 23.2147C24.3571 23.9158 24.5736 24.5813 24.971 25.1392C25.3137 25.6201 25.2336 26.2828 24.7862 26.6682ZM22.0714 23.2147C22.0714 20.176 24.4886 17.7019 27.5051 17.6102C27.6438 16.8542 27.7143 16.082 27.7143 15.3C27.7143 14.9077 27.6965 14.5177 27.6613 14.131C24.7391 13.9384 22.4286 11.5071 22.4286 8.53614C22.4286 7.48957 22.7172 6.48671 23.2449 5.62107C22.2847 4.80225 21.2082 4.12971 20.0502 3.62792C19.1352 5.5215 17.1976 6.79525 15 6.79525C12.8024 6.79525 10.8648 5.5215 9.94971 3.62789C8.88511 4.08956 7.88874 4.69484 6.98836 5.42685C7.59339 6.33353 7.92857 7.40885 7.92857 8.53614C7.92857 11.6275 5.42686 14.1346 2.33754 14.1433C2.30295 14.5279 2.28566 14.9138 2.28571 15.3C2.28571 16.082 2.35618 16.8542 2.49486 17.6102C5.51139 17.7019 7.92857 20.176 7.92857 23.2147C7.92857 24.0216 7.75714 24.8041 7.43432 25.5194C8.23484 26.1134 9.10252 26.611 10.0194 27.002C10.9623 25.182 12.8604 23.9739 15 23.9739C17.1396 23.9739 19.0377 25.182 19.9805 27.002C20.8975 26.611 21.7651 26.1134 22.5656 25.5194C22.2428 24.8041 22.0714 24.0216 22.0714 23.2147Z" fill="white"/>
<path d="M15 19.7602C12.5344 19.7602 10.5357 17.7615 10.5357 15.296C10.5357 12.8304 12.5344 10.8317 15 10.8317C17.4655 10.8317 19.4643 12.8304 19.4643 15.296C19.4643 17.7615 17.4655 19.7602 15 19.7602Z" fill="#F7981D"/>
</svg>
