<svg width="30" height="30" viewBox="0 0 30 30" fill="none" xmlns="http://www.w3.org/2000/svg">
<g clip-path="url(#clip0_45_24)">
<path d="M4.38996 4.38996C10.2593 -1.46332 19.7568 -1.46332 25.61 4.38996C31.4633 10.2593 31.4633 19.7568 25.61 25.61C19.7568 31.4633 10.2593 31.4633 4.38996 25.61C-1.46332 19.7407 -1.46332 10.2432 4.38996 4.38996ZM14.9651 10.6429C9.47411 10.6429 5.97982 12.7204 5.97982 14.2181C5.97982 15.0274 5.8435 16.0722 6.37821 16.6796C6.70143 17.0687 7.28386 17.2896 8.32439 17.1768C10.985 16.8866 10.8076 15.8869 10.8076 14.5485C10.8076 13.6133 12.9522 13.4036 15 13.4036C16.4773 13.4036 18.0228 13.5145 18.7562 13.9345C19.0066 14.0883 19.1518 14.2818 19.1518 14.5241C19.1518 15.4241 19.0715 16.1707 19.83 16.651C20.1971 16.8983 20.7731 17.0784 21.6756 17.1768C24.3362 17.4671 23.9976 15.5321 23.9976 14.2421C23.9976 13.5195 23.1888 12.6621 21.7337 11.9676C20.1708 11.2112 17.8455 10.6429 14.9651 10.6429Z" fill="#333333"/>
</g>
<defs>
<clipPath id="clip0_45_24">
<rect width="30" height="30" fill="white"/>
</clipPath>
</defs>
</svg>
