<svg width="30" height="30" viewBox="0 0 30 30" fill="none" xmlns="http://www.w3.org/2000/svg">
<path d="M0 4.28571C0 1.91879 1.91879 0 4.28571 0H25.7143C28.0812 0 30 1.91879 30 4.28571V21.4286C30 23.7955 28.0812 25.7143 25.7143 25.7143H4.28571C1.91879 25.7143 0 23.7955 0 21.4286V4.28571ZM21.082 12.1252C20.7171 11.8235 20.1769 11.8747 19.8752 12.2395L15.2461 17.8372L10.0968 12.2072C9.77729 11.8579 9.23511 11.8337 8.88582 12.1532C8.5365 12.4727 8.51232 13.0149 8.83179 13.3642L14.6461 19.7214C14.7289 19.8118 14.8301 19.8835 14.9429 19.9315C15.0557 19.9795 15.1774 20.0028 15.3 19.9997C15.4226 19.9967 15.543 19.9674 15.6533 19.9138C15.7636 19.8602 15.861 19.7836 15.9392 19.6891L21.1962 13.332C21.4979 12.9672 21.4468 12.4269 21.082 12.1252ZM4 27.7143C3.36882 27.7143 2.85714 28.226 2.85714 28.8571C2.85714 29.4883 3.36882 30 4 30H26C26.6312 30 27.1429 29.4883 27.1429 28.8571C27.1429 28.226 26.6312 27.7143 26 27.7143H4Z" fill="#333333"/>
</svg>
