<svg width="30" height="30" viewBox="0 0 30 30" fill="none" xmlns="http://www.w3.org/2000/svg">
<g clip-path="url(#clip0_3114_97)">
<g clip-path="url(#clip1_3114_97)">
<path d="M29.875 5.00311L24.6959 25.7207C23.9537 28.6736 21.4273 30.0001 19.2167 30.0001H19.1851C16.9587 29.9843 14.4165 28.6262 13.7217 25.6418L12.3638 19.8781L20.8589 11.3826C21.4747 10.7668 21.4747 9.75617 20.8589 9.14032C20.2431 8.5245 19.2325 8.5245 18.6167 9.14032L10.1216 17.6358L4.3582 16.2778C1.37389 15.583 0.0159249 13.0407 0.000139187 10.83C-0.0156465 8.60342 1.31071 6.04532 4.27927 5.30315L24.9959 0.123766C26.3696 -0.223662 27.8065 0.171123 28.8171 1.18173C29.8276 2.19237 30.2224 3.62933 29.875 5.00311Z" fill="#ACA3FF"/>
<path d="M28.845 1.21384L28.8181 1.18384C29.8287 2.19444 30.2235 3.6314 29.8761 5.00522L27.7602 13.4612L14.217 27.0098C13.997 26.5764 13.831 26.1177 13.7228 25.6439L12.3649 19.8802L20.86 11.3847C21.4663 10.7784 21.4757 9.78985 20.8883 9.17243L28.845 1.21384Z" fill="white"/>
<path d="M28.845 1.21384L28.8181 1.18384C29.8287 2.19444 30.2235 3.6314 29.8761 5.00522L27.7602 13.4612L14.217 27.0098C13.997 26.5764 13.831 26.1177 13.7228 25.6439L12.3649 19.8802L20.86 11.3847C21.4663 10.7784 21.4757 9.78985 20.8883 9.17243L28.845 1.21384Z" fill="#ACA3FF" fill-opacity="0.85"/>
<path d="M28.8161 1.18333L28.8445 1.21173L20.8863 9.17035C20.7404 9.01743 20.5655 8.89516 20.3718 8.81072C20.1781 8.72627 19.9694 8.68136 19.7581 8.6786C19.5468 8.67578 19.337 8.71517 19.1411 8.79445C18.9452 8.87373 18.7671 8.99132 18.6173 9.14032L10.1222 17.6358L4.35881 16.2778C3.91325 16.1755 3.48092 16.0224 3.07031 15.8214L16.6909 2.20026L24.9965 0.123766C26.3702 -0.223662 27.8071 0.171123 28.8177 1.18173L28.8161 1.18333Z" fill="white"/>
<path d="M28.8161 1.18333L28.8445 1.21173L20.8863 9.17035C20.7404 9.01743 20.5655 8.89516 20.3718 8.81072C20.1781 8.72627 19.9694 8.68136 19.7581 8.6786C19.5468 8.67578 19.337 8.71517 19.1411 8.79445C18.9452 8.87373 18.7671 8.99132 18.6173 9.14032L10.1222 17.6358L4.35881 16.2778C3.91325 16.1755 3.48092 16.0224 3.07031 15.8214L16.6909 2.20026L24.9965 0.123766C26.3702 -0.223662 27.8071 0.171123 28.8177 1.18173L28.8161 1.18333Z" fill="#ACA3FF" fill-opacity="0.65"/>
<path d="M16.6903 2.20337L3.07131 15.823C0.979137 14.7934 0.0143534 12.6964 0.000139187 10.8331C-0.0156465 8.60657 1.31071 6.04847 4.27927 5.30629L16.6887 2.20337H16.6903Z" fill="white"/>
<path d="M16.6903 2.20337L3.07131 15.823C0.979137 14.7934 0.0143534 12.6964 0.000139187 10.8331C-0.0156465 8.60657 1.31071 6.04847 4.27927 5.30629L16.6887 2.20337H16.6903Z" fill="#ACA3FF" fill-opacity="0.45"/>
</g>
</g>
<defs>
<clipPath id="clip0_3114_97">
<rect width="30" height="30" fill="white"/>
</clipPath>
<clipPath id="clip1_3114_97">
<rect width="30" height="30" fill="white"/>
</clipPath>
</defs>
</svg>
