<svg width="30" height="31" viewBox="0 0 30 31" fill="none" xmlns="http://www.w3.org/2000/svg">
<path d="M0 15C-4.1511e-08 16.9698 0.387986 18.9204 1.14181 20.7402C1.89563 22.5601 3.00052 24.2137 4.3934 25.6066C5.78628 26.9995 7.43986 28.1044 9.25975 28.8582C11.0796 29.612 13.0302 30 15 30C16.9698 30 18.9204 29.612 20.7402 28.8582C22.5601 28.1044 24.2137 26.9995 25.6066 25.6066C26.9995 24.2137 28.1044 22.5601 28.8582 20.7402C29.612 18.9204 30 16.9698 30 15C30 11.0218 28.4196 7.20644 25.6066 4.3934C22.7936 1.58035 18.9782 0 15 0C11.0218 0 7.20644 1.58035 4.3934 4.3934C1.58035 7.20644 0 11.0218 0 15Z" fill="white"/>
<path d="M0 15C-4.1511e-08 16.9698 0.387986 18.9204 1.14181 20.7402C1.89563 22.5601 3.00052 24.2137 4.3934 25.6066C5.78628 26.9995 7.43986 28.1044 9.25975 28.8582C11.0796 29.612 13.0302 30 15 30C16.9698 30 18.9204 29.612 20.7402 28.8582C22.5601 28.1044 24.2137 26.9995 25.6066 25.6066C26.9995 24.2137 28.1044 22.5601 28.8582 20.7402C29.612 18.9204 30 16.9698 30 15C30 11.0218 28.4196 7.20644 25.6066 4.3934C22.7936 1.58035 18.9782 0 15 0C11.0218 0 7.20644 1.58035 4.3934 4.3934C1.58035 7.20644 0 11.0218 0 15Z" fill="#F7981D" fill-opacity="0.15"/>
<path d="M17.496 14.3512H17.8418C19.2558 14.3563 20.6697 14.3392 22.0837 14.3733C23.0479 14.3972 23.898 15.2558 23.9236 16.2217C23.9559 17.4261 23.9457 18.6305 23.9406 19.835C23.9389 20.2966 23.6629 20.5368 23.1774 20.5385C21.7464 20.5402 20.3137 20.5385 18.8827 20.5385H6.9389C6.2745 20.5385 6.05304 20.3222 6.05474 19.6629C6.05815 18.5113 6.04452 17.358 6.07689 16.2063C6.10244 15.2609 6.96105 14.3954 7.90483 14.3716C9.3188 14.3375 10.7328 14.3529 12.1467 14.3477H12.5096C12.4721 13.8707 12.3171 13.4551 12.0922 13.0769C11.829 12.6355 11.5377 12.2116 11.22 11.8077C9.58285 9.72254 9.92868 6.68846 12.007 5.0394C14.1178 3.36138 17.1978 3.76342 18.8265 5.92867C20.2626 7.83838 20.1399 10.2966 18.5113 12.1246C17.9798 12.7208 17.6442 13.4057 17.5062 14.1893C17.496 14.2353 17.4994 14.2779 17.496 14.3512ZM23.8128 22.2012C23.6476 22.0173 23.3324 21.7958 22.7754 21.7958C17.3631 21.7958 12.634 21.7958 7.22169 21.7975C7.06667 21.7975 6.93038 21.8111 6.80261 21.8401C6.25065 21.9661 5.88438 22.4585 5.91335 23.036C5.94401 23.6237 6.35798 24.0581 6.94231 24.1178C7.06496 24.1297 7.18421 24.1297 7.28984 24.1297H22.7328C22.8452 24.1297 22.973 24.1297 23.1076 24.1126C23.6425 24.0428 24.0275 23.6493 24.0854 23.1092C24.1212 22.7549 24.0275 22.4397 23.8128 22.2012Z" fill="#FC7032"/>
<path d="M20.2468 20.5398C21.6224 18.8379 22.5904 16.8438 23.0764 14.7101C22.7851 14.5074 22.4427 14.383 22.0832 14.3745C20.6692 14.3405 19.2553 14.3575 17.8413 14.3524H17.4955C17.4989 14.2774 17.4955 14.2348 17.504 14.194C17.642 13.4103 17.9776 12.7255 18.5091 12.1292C20.1377 10.3013 20.2604 7.84131 18.8243 5.93331C17.1956 3.76806 14.1173 3.36602 12.0048 5.04404C9.92818 6.69481 9.58065 9.72888 11.2178 11.8124C11.5347 12.2161 11.8277 12.642 12.09 13.0815C12.3149 13.4597 12.4716 13.8754 12.5074 14.3524H12.1445C10.7306 14.3575 9.3166 14.3422 7.90263 14.3762C6.95885 14.3984 6.10195 15.2655 6.07469 16.211C6.04232 17.3626 6.05595 18.5159 6.05254 19.6675C6.05084 20.3251 6.27401 20.5432 6.9367 20.5432H18.8805C19.337 20.5398 19.7919 20.5398 20.2468 20.5398ZM7.2195 21.797C7.06447 21.797 6.92818 21.8106 6.80042 21.8396C6.24846 21.9657 5.88219 22.458 5.91115 23.0355C5.94181 23.6233 6.35578 24.0577 6.94011 24.1173C7.06277 24.1292 7.18202 24.1292 7.28764 24.1292H15.9605C17.1104 23.4969 18.169 22.7112 19.1071 21.7936C15.1343 21.7953 11.3779 21.7953 7.2195 21.797Z" fill="#FF7C33"/>
<path d="M19.4837 7.10243C19.3218 6.69698 19.1021 6.30175 18.8227 5.92867C17.1941 3.76342 14.1157 3.36138 12.0033 5.0394C9.9266 6.69017 9.57907 9.72424 11.2162 11.8077C11.5331 12.2115 11.8261 12.6374 12.0884 13.0769C12.3133 13.4551 12.47 13.8707 12.5058 14.3477H12.143C10.729 14.3529 9.31501 14.3375 7.90104 14.3716C6.95726 14.3937 6.10036 15.2609 6.07311 16.2064C6.04074 17.358 6.05437 18.5113 6.05096 19.6629C6.04926 20.3205 6.27243 20.5385 6.93512 20.5385H7.75283C14.2145 19.3375 19.1583 13.8282 19.4837 7.10243Z" fill="#FF9552"/>
<path d="M15.6164 4.04604C14.3728 3.87738 13.0662 4.19425 12.0032 5.03922C9.92649 6.68999 9.57896 9.72406 11.2161 11.8075C11.2297 11.8263 11.2451 11.845 11.2587 11.8638C13.4631 9.82627 15.0253 7.10907 15.6164 4.04604Z" fill="#FFA56A"/>
</svg>
