<svg width="30" height="30" viewBox="0 0 30 30" fill="none" xmlns="http://www.w3.org/2000/svg">
<g clip-path="url(#clip0_45_39)">
<path d="M25.7143 0C28.0812 0 30 1.91879 30 4.28571V30L15 22.8571L0 30V4.28571C0 1.91879 1.91879 0 4.28571 0H25.7143ZM14.9862 5C14.7282 5 14.3499 5.11125 14.0092 5.64586L12.5011 8.09557C11.8258 8.30021 11.1505 8.50582 10.4748 8.71129L9.48725 9.01164C9.02729 9.16107 8.73675 9.40286 8.62357 9.73039C8.50489 10.0745 8.58832 10.4757 8.87896 10.9571C8.886 10.9689 8.89371 10.9801 8.90207 10.9907C9.49319 11.7387 10.0839 12.4871 10.6742 13.2358C10.6439 14.3154 10.6131 15.3961 10.5818 16.4768C10.5368 16.9942 10.6116 17.3589 10.8104 17.5915C10.961 17.7678 11.1704 17.8571 11.4328 17.8571C11.6339 17.8571 11.8724 17.8046 12.1942 17.6876L14.8017 16.6262C15.79 16.9947 16.7786 17.3623 17.7675 17.729C17.9621 17.7916 18.1423 17.8234 18.3031 17.8234C18.67 17.8234 19.2929 17.6546 19.3427 16.524C19.3432 16.5125 19.3431 16.5009 19.3424 16.4894C19.2879 15.5259 19.2327 14.5644 19.1776 13.6026L19.1769 13.5899L21.0974 11.0073C21.3937 10.581 21.4919 10.1906 21.3891 9.84754C21.284 9.49646 20.9779 9.23003 20.4792 9.05561C20.4727 9.05324 20.4662 9.05117 20.4595 9.04939L17.7516 8.31461C17.1645 7.41918 16.5766 6.52404 15.9888 5.62868C15.9863 5.62518 15.981 5.617 15.9785 5.6135C15.6957 5.21793 15.3432 5 14.9862 5Z" fill="#333333"/>
</g>
<defs>
<clipPath id="clip0_45_39">
<rect width="30" height="30" fill="white"/>
</clipPath>
</defs>
</svg>
