<svg width="30" height="30" viewBox="0 0 30 30" fill="none" xmlns="http://www.w3.org/2000/svg">
<g clip-path="url(#clip0_45_56)">
<path d="M15 0C6.71575 0 0 6.71575 0 15C0 23.2842 6.71575 30 15 30C23.2843 30 30 23.2842 30 15C30 6.71575 23.2843 0 15 0ZM15 24.7143C14.0532 24.7143 13.2857 23.9468 13.2857 23C13.2857 22.0532 14.0532 21.2857 15 21.2857C15.9468 21.2857 16.7143 22.0532 16.7143 23C16.7143 23.9468 15.9468 24.7143 15 24.7143ZM16.7143 18C16.7143 18.9468 15.9468 19.7143 15 19.7143C14.0532 19.7143 13.2857 18.9468 13.2857 18V6.89286C13.2857 5.94607 14.0532 5.17857 15 5.17857C15.9468 5.17857 16.7143 5.94607 16.7143 6.89286V18Z" fill="#333333"/>
</g>
<defs>
<clipPath id="clip0_45_56">
<rect width="30" height="30" fill="white"/>
</clipPath>
</defs>
</svg>
