<svg width="30" height="30" viewBox="0 0 30 30" fill="none" xmlns="http://www.w3.org/2000/svg">
<g clip-path="url(#clip0_45_32)">
<path fill-rule="evenodd" clip-rule="evenodd" d="M21.7331 3.26165H28.2816C29.2307 3.26165 30 4.0319 30 4.98208V28.2796C30 29.2297 29.2307 30 28.2816 30H1.71838C0.769332 30 0 29.2297 0 28.2796V4.98208C0 4.0319 0.769332 3.26165 1.71838 3.26165H8.09069V1.72043C8.09069 0.770251 8.77729 0 9.62427 0H20.3593C21.2062 0 21.8928 0.770251 21.7331 1.72043V3.26165ZM4.33178 16.2366C4.33178 22.1356 9.10812 26.9176 15 26.9176C20.8919 26.9176 25.6682 22.1356 25.6682 16.2366C25.6682 10.3377 20.8919 5.55563 15 5.55563C9.10812 5.55563 4.33178 10.3377 4.33178 16.2366ZM11.1109 19.9203C10.0795 18.8889 9.50003 17.49 9.50003 16.0313C9.50003 14.5726 10.0795 13.1737 11.1109 12.1422C12.1424 11.1108 13.5413 10.5313 15 10.5313C16.4587 10.5313 17.8576 11.1108 18.8891 12.1422C19.9205 13.1737 20.5 14.5726 20.5 16.0313C20.5 17.49 19.9205 18.8889 18.8891 19.9203C17.8576 20.9518 16.4587 21.5312 15 21.5312C13.5413 21.5312 12.1424 20.9518 11.1109 19.9203Z" fill="#333333"/>
</g>
<defs>
<clipPath id="clip0_45_32">
<rect width="30" height="30" fill="white"/>
</clipPath>
</defs>
</svg>
