<svg width="30" height="30" viewBox="0 0 30 30" fill="none" xmlns="http://www.w3.org/2000/svg">
<g clip-path="url(#clip0_45_38)">
<path d="M22.7143 8.57143C24.3711 8.57143 25.7143 9.91457 25.7143 11.5714V27C25.7143 28.6569 24.3711 30 22.7143 30H7.28571C5.62886 30 4.28571 28.6569 4.28571 27V11.5714C4.28571 9.91457 5.62886 8.57143 7.28571 8.57143H22.7143ZM11.4286 12.4286C10.8037 12.4286 10.296 12.9301 10.2859 13.5525L10.2857 13.5714V25L10.2859 25.0189C10.296 25.6414 10.8037 26.1429 11.4286 26.1429C12.0534 26.1429 12.5612 25.6414 12.5713 25.0189L12.5714 25V13.5714L12.5713 13.5525C12.5612 12.9301 12.0534 12.4286 11.4286 12.4286ZM18.5714 12.4286C17.9466 12.4286 17.4388 12.9301 17.4287 13.5525L17.4286 13.5714V25L17.4287 25.0189C17.4388 25.6414 17.9466 26.1429 18.5714 26.1429C19.1963 26.1429 19.704 25.6414 19.7141 25.0189L19.7143 25V13.5714L19.7141 13.5525C19.704 12.9301 19.1963 12.4286 18.5714 12.4286ZM19.5 0C21.1766 0 22.5357 1.35914 22.5357 3.03571V4.14286H28.8585C29.4889 4.14286 30 4.65454 30 5.28571C30 5.91057 29.4991 6.41832 28.8774 6.42843L28.8585 6.42857H1.1415C0.511071 6.42857 0 5.91689 0 5.28571C0 4.66086 0.500893 4.15311 1.12261 4.143L1.1415 4.14286H7.5V3.03571C7.5 1.35914 8.85914 0 10.5357 0H19.5Z" fill="#333333"/>
</g>
<defs>
<clipPath id="clip0_45_38">
<rect width="30" height="30" fill="white"/>
</clipPath>
</defs>
</svg>
