<svg width="30" height="30" viewBox="0 0 30 30" fill="none" xmlns="http://www.w3.org/2000/svg">
<path d="M15.5451 1.33555C17.3083 -0.445185 20.2674 -0.445185 22.032 1.33555L28.6189 7.99673C29.5034 8.89374 30 9.98844 30 11.2012C30 12.4228 29.5063 13.513 28.613 14.41L15.9888 27.0493L15.9007 27.1629C15.4187 27.7191 14.8061 28.0717 14.0376 28.2783L13.7438 28.3476L4.54893 29.9808L4.31678 30H3.94505C2.84602 30 1.88363 29.6135 1.13429 28.8507C0.39524 28.1012 0 26.9106 0 25.7731L0.0205699 25.543L1.63973 16.2159C1.83074 15.2407 2.26124 14.4691 3.01793 13.8966L2.91507 13.9792L15.5451 1.33555ZM14.0582 6.60843L5.45548 15.2215L14.7723 24.4793L23.372 15.8662L14.0582 6.60843ZM19.9853 3.09269C19.2507 2.50403 18.109 2.54976 17.4331 3.23137L15.9492 4.71557L25.2645 13.9719L26.7235 12.5113C27.0761 12.1572 27.2686 11.7957 27.3171 11.4003L27.3288 11.2012C27.3288 10.735 27.1319 10.3027 26.7205 9.88665L20.1352 3.22694L19.9853 3.09269Z" fill="#333333"/>
</svg>
