<svg xmlns="http://www.w3.org/2000/svg" width="17.371" height="21.029" viewBox="0 0 17.371 21.029" fill="none">
  <path d="M 3.063 8.417 C 3.246 11.524 5.669 14.03 8.686 14.03 C 11.703 14.03 14.126 11.524 14.309 8.418 C 12.425 8.225 10.533 8.125 8.64 8.117 C 6.583 8.117 4.526 8.266 3.063 8.418 L 3.063 8.417 Z M 11.749 14.58 C 11.063 14.58 8.686 17.838 8.686 17.838 C 8.686 17.838 6.446 14.581 5.623 14.581 C 2.743 14.581 0 17.787 0 20.494 C 0 21.697 3.703 20.494 8.96 20.494 C 14.171 20.494 17.371 21.697 17.371 20.494 C 17.371 17.888 14.171 14.581 11.749 14.581 L 11.749 14.58 Z M 14.811 7.565 L 13.806 1.101 C 13.806 1.101 12.023 0 8.686 0 C 5.349 0 3.566 1.102 3.566 1.102 L 2.56 7.567 C 2.56 7.567 5.989 7.016 8.869 7.016 C 11.611 7.016 14.811 7.567 14.811 7.567 L 14.811 7.565 Z M 8.229 5.612 L 8.229 4.108 L 6.811 4.108 C 6.537 4.108 6.354 3.908 6.354 3.607 C 6.354 3.307 6.583 3.105 6.811 3.105 L 8.229 3.105 L 8.229 1.603 C 8.229 1.327 8.434 1.102 8.686 1.102 C 8.937 1.102 9.143 1.326 9.143 1.604 L 9.143 3.108 L 10.56 3.108 C 10.834 3.108 11.017 3.307 11.017 3.609 C 11.017 3.885 10.811 4.109 10.56 4.109 L 9.143 4.109 L 9.143 5.613 C 9.143 5.889 8.937 6.114 8.686 6.114 C 8.434 6.114 8.229 5.89 8.229 5.613 L 8.229 5.612 Z" fill="currentColor" fill-rule="nonzero"/>
</svg>
