<svg width="30" height="30" viewBox="0 0 30 30" fill="none" xmlns="http://www.w3.org/2000/svg">
<path d="M7.5 0C8.16304 0 8.79893 0.278886 9.26777 0.775306C9.73661 1.27173 10 1.94502 10 2.64706C10 3.3491 9.73661 4.02239 9.26777 4.51881C8.79893 5.01523 8.16304 5.29412 7.5 5.29412H5.83333C5.7239 5.29412 5.61554 5.31694 5.51443 5.36128C5.41333 5.40563 5.32146 5.47062 5.24408 5.55255C5.1667 5.63449 5.10531 5.73176 5.06343 5.83881C5.02155 5.94586 5 6.0606 5 6.17647V23.8235C5 23.9394 5.02155 24.0541 5.06343 24.1612C5.10531 24.2682 5.1667 24.3655 5.24408 24.4474C5.32146 24.5294 5.41333 24.5944 5.51443 24.6387C5.61554 24.6831 5.7239 24.7059 5.83333 24.7059H7.5C8.16304 24.7059 8.79893 24.9848 9.26777 25.4812C9.73661 25.9776 10 26.6509 10 27.3529C10 28.055 9.73661 28.7283 9.26777 29.2247C8.79893 29.7211 8.16304 30 7.5 30H3.33333C2.89559 30 2.46214 29.9087 2.05772 29.7313C1.6533 29.554 1.28584 29.294 0.976311 28.9663C0.666782 28.6385 0.42125 28.2494 0.253735 27.8212C0.0862189 27.393 -5.12976e-09 26.9341 0 26.4706V3.52941C-5.12976e-09 3.06592 0.0862189 2.60697 0.253735 2.17876C0.42125 1.75056 0.666782 1.36148 0.976311 1.03374C1.28584 0.706005 1.6533 0.44603 2.05772 0.268661C2.46214 0.0912912 2.89559 0 3.33333 0H7.5ZM26.6667 0C27.1044 0 27.5379 0.0912912 27.9423 0.268661C28.3467 0.44603 28.7142 0.706005 29.0237 1.03374C29.3332 1.36148 29.5788 1.75056 29.7463 2.17876C29.9138 2.60697 30 3.06592 30 3.52941V26.4706C30 26.9341 29.9138 27.393 29.7463 27.8212C29.5788 28.2494 29.3332 28.6385 29.0237 28.9663C28.7142 29.294 28.3467 29.554 27.9423 29.7313C27.5379 29.9087 27.1044 30 26.6667 30H22.5C21.837 30 21.2011 29.7211 20.7322 29.2247C20.2634 28.7283 20 28.055 20 27.3529C20 26.6509 20.2634 25.9776 20.7322 25.4812C21.2011 24.9848 21.837 24.7059 22.5 24.7059H24.1667C24.2761 24.7059 24.3845 24.6831 24.4856 24.6387C24.5867 24.5944 24.6785 24.5294 24.7559 24.4474C24.8333 24.3655 24.8947 24.2682 24.9366 24.1612C24.9784 24.0541 25 23.9394 25 23.8235V6.17647C25 6.0606 24.9784 5.94586 24.9366 5.83881C24.8947 5.73176 24.8333 5.63449 24.7559 5.55255C24.6785 5.47062 24.5867 5.40563 24.4856 5.36128C24.3845 5.31694 24.2761 5.29412 24.1667 5.29412H22.5C21.837 5.29412 21.2011 5.01523 20.7322 4.51881C20.2634 4.02239 20 3.3491 20 2.64706C20 1.94502 20.2634 1.27173 20.7322 0.775306C21.2011 0.278886 21.837 0 22.5 0H26.6667ZM15 9.70588C15.663 9.70588 16.2989 9.98477 16.7678 10.4812C17.2366 10.9776 17.5 11.6509 17.5 12.3529V17.6471C17.5 18.3491 17.2366 19.0224 16.7678 19.5188C16.2989 20.0152 15.663 20.2941 15 20.2941C14.337 20.2941 13.7011 20.0152 13.2322 19.5188C12.7634 19.0224 12.5 18.3491 12.5 17.6471V12.3529C12.5 11.6509 12.7634 10.9776 13.2322 10.4812C13.7011 9.98477 14.337 9.70588 15 9.70588Z" fill="#262626"/>
</svg>
