<svg width="30" height="30" viewBox="0 0 30 30" fill="none" xmlns="http://www.w3.org/2000/svg">
<g clip-path="url(#clip0_2565_105)">
<path d="M11.983 13.1996L14.0919 11.0905C14.8791 10.3032 16.1551 10.3032 16.9423 11.0905L19.0524 13.1996C19.8396 13.9869 19.8396 15.2631 19.0524 16.0504L16.9436 18.1595C16.1564 18.9468 14.8804 18.9468 14.0932 18.1595L11.9843 16.0504C11.1959 15.2631 11.1959 13.9869 11.983 13.1996Z" fill="#FFCC00"/>
<path d="M7.99356 0.988215C7.99346 1.1182 7.96761 1.24687 7.91749 1.3668C7.86738 1.48674 7.794 1.59555 7.7016 1.68696C7.51398 1.87256 7.26068 1.97658 6.99677 1.97639C6.73286 1.97657 6.47955 1.87256 6.29192 1.68696C6.19951 1.59555 6.12614 1.48672 6.07603 1.36678C6.02592 1.24684 6.00008 1.11816 5.99999 0.988179C6.00008 0.858199 6.02593 0.729527 6.07604 0.609594C6.12614 0.489661 6.19952 0.380844 6.29192 0.289429C6.47955 0.103835 6.73286 -0.0001812 6.99677 2.53166e-07C7.26068 -0.00018729 7.51398 0.10383 7.7016 0.289429C7.79401 0.380845 7.86739 0.489666 7.9175 0.609606C7.96761 0.729546 7.99346 0.858227 7.99356 0.988215ZM2.23349 0.983107C2.3448 0.871801 2.48662 0.796002 2.64102 0.765296C2.79541 0.734589 2.95544 0.750354 3.10087 0.810597C3.24631 0.87084 3.37061 0.972855 3.45807 1.10374C3.54552 1.23463 3.5922 1.38851 3.5922 1.54593V2.73979H4.78606C4.99715 2.7398 5.19959 2.82366 5.34886 2.97292C5.49812 3.12218 5.58198 3.32462 5.58199 3.53571C5.582 3.64023 5.56142 3.74373 5.52142 3.8403C5.48142 3.93686 5.42279 4.0246 5.34888 4.0985C5.1996 4.24776 4.99716 4.33162 4.78606 4.33164H3.5922V5.5255C3.59218 5.68292 3.54549 5.8368 3.45803 5.96769C3.37057 6.09858 3.24627 6.2006 3.10084 6.26086C2.97992 6.31095 2.8485 6.33045 2.71824 6.31762C2.58797 6.3048 2.46289 6.26004 2.35405 6.18731C2.24522 6.11459 2.156 6.01615 2.09431 5.90071C2.03261 5.78527 2.00033 5.65639 2.00034 5.5255V4.33164H0.806488C0.701962 4.33165 0.598459 4.31107 0.501888 4.27108C0.405317 4.23108 0.317571 4.17245 0.24366 4.09854C0.16975 4.02463 0.111122 3.93689 0.0711264 3.84031C0.0311306 3.74374 0.0105497 3.64024 0.0105591 3.53571C0.0105591 3.32462 0.0944156 3.12217 0.243681 2.97291C0.392947 2.82364 0.595394 2.73979 0.806488 2.73979H2.00034V1.54593C2.00034 1.33486 2.0842 1.13236 2.23349 0.983107ZM27.2248 3.28571C27.1203 3.28571 27.0168 3.30629 26.9202 3.34629C26.8236 3.38629 26.7359 3.44492 26.662 3.51883C26.5881 3.59274 26.5295 3.68048 26.4895 3.77705C26.4495 3.87362 26.4289 3.97712 26.4289 4.08164V5.2755H25.235C25.1305 5.2755 25.027 5.29608 24.9304 5.33609C24.8339 5.37609 24.7461 5.43473 24.6722 5.50864C24.5983 5.58254 24.5397 5.67028 24.4997 5.76684C24.4597 5.8634 24.4391 5.9669 24.4391 6.07143C24.4391 6.17595 24.4597 6.27945 24.4997 6.37602C24.5397 6.47258 24.5983 6.56032 24.6722 6.63421C24.7461 6.70813 24.8339 6.76677 24.9304 6.80677C25.027 6.84677 25.1305 6.86736 25.235 6.86736H26.4289V8.06121C26.4289 8.21862 26.4756 8.37249 26.5631 8.50336C26.6505 8.63424 26.7748 8.73624 26.9203 8.79648C27.0657 8.85672 27.2257 8.87249 27.3801 8.84179C27.5345 8.8111 27.6763 8.73532 27.7876 8.62404C27.9369 8.47476 28.0207 8.27231 28.0207 8.06121V6.86736H29.2146C29.372 6.86732 29.5259 6.82062 29.6567 6.73316C29.7876 6.6457 29.8896 6.5214 29.9498 6.37598C30.0101 6.23057 30.0258 6.07055 29.9951 5.91617C29.9645 5.76179 29.8887 5.61997 29.7774 5.50864C29.7035 5.43472 29.6158 5.37609 29.5192 5.33608C29.4226 5.29608 29.3191 5.27549 29.2146 5.2755H28.0207V4.08164C28.0207 3.87055 27.9369 3.66811 27.7876 3.51885C27.6383 3.36958 27.4359 3.28572 27.2248 3.28571ZM4.80824 9.03707C4.08331 8.86486 3.35438 9.30918 3.18006 10.0309C3.00709 10.7526 3.45342 11.4783 4.17838 11.6518L5.08688 11.8687L5.54113 15.1027C5.54774 15.1487 5.55699 15.1934 5.56756 15.2368L6.63188 24.4589C6.79959 25.9089 7.99331 27 9.41024 27H9.59284C9.30245 27.3226 9.14285 27.717 9.14285 28.125C9.14285 28.6223 9.37988 29.0992 9.80184 29.4508C10.2238 29.8025 10.7961 30 11.3928 30C11.9896 30 12.5619 29.8025 12.9838 29.4508C13.4058 29.0992 13.6428 28.6223 13.6428 28.125C13.6428 27.717 13.4832 27.3226 13.1928 27H18.5928C18.4801 27.1253 18.3863 27.2621 18.3141 27.4075C18.2011 27.635 18.1428 27.8788 18.1428 28.125C18.1428 28.3712 18.2011 28.615 18.3141 28.8425C18.4272 29.07 18.5929 29.2767 18.8018 29.4508C19.0108 29.6249 19.2588 29.763 19.5318 29.8573C19.8048 29.9515 20.0974 30 20.3928 30C20.6883 30 20.9809 29.9515 21.2539 29.8573C21.5269 29.763 21.7749 29.6249 21.9838 29.4508C22.1928 29.2767 22.3585 29.07 22.4716 28.8425C22.5846 28.615 22.6428 28.3712 22.6428 28.125C22.6428 27.8788 22.5846 27.635 22.4716 27.4075C22.3993 27.2621 22.3056 27.1253 22.1928 27H22.6536C24.0837 27 25.284 25.8905 25.4359 24.426L26.3735 16.537C26.5491 14.8345 25.5178 13.4818 23.8552 13.4818H8.04084L7.63413 10.5896C7.55756 10.0414 7.15217 9.59707 6.61206 9.46825L4.80824 9.03707ZM24.6292 10.2428C24.7221 10.15 24.7958 10.0397 24.846 9.9184C24.8963 9.79707 24.9221 9.66704 24.9221 9.53571C24.9221 9.40439 24.8963 9.27436 24.846 9.15303C24.7958 9.03171 24.7221 8.92147 24.6292 8.82861C24.5364 8.73575 24.4261 8.66209 24.3048 8.61183C24.1835 8.56158 24.0535 8.53571 23.9221 8.53571C23.7908 8.53571 23.6608 8.56158 23.5394 8.61183C23.4181 8.66209 23.3079 8.73575 23.215 8.82861C23.0275 9.01614 22.9221 9.2705 22.9221 9.53571C22.9221 9.80093 23.0275 10.0553 23.215 10.2428C23.4026 10.4304 23.6569 10.5357 23.9221 10.5357C24.1873 10.5357 24.4417 10.4304 24.6292 10.2428Z" fill="#F7981D"/>
<path d="M6.63613 24.4865L6.14288 20.25H25.9465L25.4167 24.454C25.265 25.9025 24.0662 27 22.6392 27H9.41235C7.99456 26.9987 6.80231 25.9194 6.63613 24.4865Z" fill="#FFCC00"/>
</g>
<defs>
<clipPath id="clip0_2565_105">
<rect width="30" height="30" fill="white"/>
</clipPath>
</defs>
</svg>
