<svg width="30" height="30" viewBox="0 0 30 30" fill="none" xmlns="http://www.w3.org/2000/svg">
<path d="M7.47452 9.6C10.1232 9.6 12.2704 7.45096 12.2704 4.8C12.2704 2.14904 10.1232 0 7.47452 0C4.8258 0 2.67859 2.14904 2.67859 4.8C2.67859 7.45096 4.8258 9.6 7.47452 9.6ZM6.25002 12C4.27759 12 2.67859 13.599 2.67859 15.5714V30H12.2704V20.7215L14.9397 22.2639C15.4521 22.56 16.1071 22.3845 16.4027 21.8719L16.4669 21.7607L18.2653 20.7215V30H27.8572V15.5714C27.8572 13.599 26.2582 12 24.2857 12H21.8367C19.8643 12 18.2653 13.599 18.2653 15.5714V18L15.2679 19.732L12.2704 18L12.2704 15.5714C12.2704 13.599 10.6714 12 8.69898 12H6.25002ZM23.0612 9.6C20.4125 9.6 18.2653 7.45096 18.2653 4.8C18.2653 2.14904 20.4125 0 23.0612 0C25.7099 0 27.8572 2.14904 27.8572 4.8C27.8572 7.45096 25.7099 9.6 23.0612 9.6Z" fill="#333333"/>
</svg>
