<svg width="30" height="30" viewBox="0 0 30 30" fill="none" xmlns="http://www.w3.org/2000/svg">
<path fill-rule="evenodd" clip-rule="evenodd" d="M29.6653 0.377259L29.6228 0.334757C29.1765 -0.111576 28.4528 -0.111576 28.0065 0.334757L0.334723 28.0065C-0.111574 28.4528 -0.111574 29.1764 0.334723 29.6228L0.377224 29.6653C0.823558 30.1116 1.54718 30.1116 1.99352 29.6653L29.6653 1.99352C30.1116 1.54722 30.1116 0.823556 29.6653 0.377259ZM15.5451 1.33556C17.3083 -0.445177 20.2674 -0.445177 22.032 1.33556L23.7591 3.08217L21.865 4.97631L20.1352 3.22695L19.9853 3.0927C19.2507 2.50403 18.109 2.54977 17.4331 3.23138L15.9492 4.71557L19.0473 7.79405L17.1548 9.68646L14.0582 6.60844L5.45548 15.2215L8.54743 18.2939L0.0949493 26.7463C0.0320455 26.4252 0 26.097 0 25.7731L0.0205699 25.543L1.63973 16.2159C1.8228 15.2812 2.2259 14.5335 2.92533 13.969L15.5451 1.33556ZM25.0061 8.15281L26.9002 6.25867L28.6189 7.99673C29.5034 8.89374 30 9.98845 30 11.2012C30 12.4228 29.5063 13.513 28.613 14.41L15.9888 27.0493L15.9007 27.1629C15.4187 27.7191 14.8061 28.0717 14.0376 28.2783L13.7438 28.3476L4.54893 29.9808L4.31678 30H3.94505C3.69554 30 3.45307 29.9801 3.21853 29.9403L11.7163 21.4426L14.7723 24.4793L23.372 15.8662L20.3232 12.8357L22.2161 10.9428L25.2645 13.9719L26.7235 12.5113C27.0761 12.1572 27.2686 11.7957 27.3171 11.4004L27.3288 11.2012C27.3288 10.735 27.1319 10.3027 26.7205 9.88665L25.0061 8.15281Z" fill="#333333"/>
</svg>
