<svg width="30" height="30" viewBox="0 0 30 30" fill="none" xmlns="http://www.w3.org/2000/svg">
<path d="M22.9923 9.80363C22.9818 9.88599 22.9712 9.93879 22.967 10.0212C24.2849 12.3168 24.2785 14.9715 22.3418 17.018C22.2821 17.0793 22.1842 17.0812 22.1222 17.0222L12.7237 7.56497C12.6656 7.50181 12.6674 7.40412 12.7279 7.34322C14.7597 5.39178 17.4018 5.38545 19.6807 6.71597L19.8961 6.69063L26.9101 0L30 3.11722L22.9902 9.80363H22.9923ZM7.17978 5.17757C7.17978 4.13849 8.01615 3.29583 9.05104 3.29583C10.0838 3.29583 10.9202 4.13849 10.9202 5.17757C10.9219 5.67496 10.7259 6.15264 10.3753 6.50554C10.0248 6.85843 9.54844 7.05763 9.05104 7.05931C8.55363 7.05819 8.07704 6.85953 7.72611 6.50703C7.37519 6.15453 7.17867 5.67707 7.17978 5.17968V5.17757ZM20.853 28.335C19.5583 28.335 18.5087 27.279 18.5087 25.9781C18.5087 24.675 19.5583 23.619 20.853 23.619C22.1477 23.619 23.1973 24.675 23.1973 25.9781C23.1973 27.279 22.1477 28.335 20.853 28.335ZM23.7274 23.486C23.7274 22.7785 24.2977 22.204 25.0031 22.204C25.7085 22.204 26.2788 22.7785 26.2788 23.486C26.2788 24.1956 25.7085 24.77 25.0031 24.77C24.6637 24.7689 24.3386 24.633 24.0993 24.3922C23.8601 24.1514 23.7263 23.8254 23.7274 23.486ZM11.0617 9.42346L20.4306 18.8469C20.5014 18.9147 20.5162 19.0223 20.4665 19.1067C19.9596 19.9219 17.4041 24.2387 16.7219 29.941C16.7197 29.9629 16.7066 29.9824 16.687 29.9926C16.6674 30.0028 16.644 30.0024 16.6247 29.9916L13.444 28.0613C13.4145 28.0423 13.4018 28.0085 13.4187 27.9769C13.7165 27.3454 16.5804 21.3137 16.2868 21.6072C14.9187 23.0432 13.6579 24.5778 12.5147 26.1986L11.6615 27.3813C11.6615 27.3813 8.31394 25.1152 7.28116 23.7065C7.26427 23.6833 7.26004 23.6643 7.28116 23.6432C8.69997 21.8335 10.1066 20.0144 11.501 18.1859L5.48173 21.8184C5.45427 21.8332 5.42259 21.829 5.39936 21.8037C5.1079 21.4784 3.09726 19.244 2.51856 18.1943C2.50589 18.1732 2.50589 18.1521 2.52912 18.1352C3.09937 17.6706 6.34132 14.9039 6.34132 14.9039L1.77936 16.5301C1.74775 16.5421 1.71215 16.5296 1.69488 16.5006L0.00948556 13.3115C-0.0116346 13.2735 0.00314949 13.2271 0.0475019 13.2165C0.850069 13.056 7.5515 11.6537 10.804 9.3939C10.8851 9.33759 10.9954 9.35024 11.0617 9.42346Z" fill="#333333"/>
</svg>
