<svg width="30" height="30" viewBox="0 0 30 30" fill="none" xmlns="http://www.w3.org/2000/svg">
<path d="M11.28 0H1.86C0.84 0 0 0.84 0 1.86V15C0 16.02 0.84 16.86 1.86 16.86H11.22C12.24 16.86 13.08 16.02 13.08 15V1.86C13.14 0.84 12.3 0 11.28 0ZM11.28 20.64H1.86C0.84 20.64 0 21.48 0 22.5V28.14C0 29.16 0.84 30 1.86 30H11.22C12.24 30 13.08 29.16 13.08 28.14V22.5C13.14 21.48 12.3 20.64 11.28 20.64ZM28.14 0H18.78C17.76 0 16.92 0.84 16.92 1.86V7.5C16.92 8.52 17.76 9.36 18.78 9.36H28.14C29.16 9.36 30 8.52 30 7.5V1.86C30 0.84 29.16 0 28.14 0ZM28.14 13.14H18.78C17.76 13.14 16.92 13.98 16.92 15V28.14C16.92 29.16 17.76 30 18.78 30H28.14C29.16 30 30 29.16 30 28.14V15C30 13.98 29.16 13.14 28.14 13.14Z" fill="#333333"/>
</svg>
