<svg width="30" height="30" viewBox="0 0 30 30" fill="none" xmlns="http://www.w3.org/2000/svg">
<path d="M29.6735 15.7814L26.2481 19.2031C26.0406 19.4104 25.9239 19.6916 25.9237 19.9849V24.8222C25.9237 25.1156 25.8072 25.397 25.5997 25.6044C25.3923 25.8119 25.1109 25.9284 24.8175 25.9284H19.9765C19.6832 25.9286 19.402 26.0453 19.1946 26.2528L15.7767 29.6764C15.5693 29.8836 15.288 30 14.9948 30C14.7016 30 14.4204 29.8836 14.213 29.6764L10.7894 26.2528C10.5826 26.0457 10.3021 25.9291 10.0094 25.9284H5.17404C4.88098 25.9279 4.6001 25.8111 4.39305 25.6037C4.186 25.3963 4.06972 25.1153 4.06972 24.8222V19.9812C4.06903 19.6885 3.95239 19.4081 3.74536 19.2012L0.323636 15.7776C0.116405 15.5702 0 15.289 0 14.9958C0 14.7026 0.116405 14.4214 0.323636 14.2139L3.74536 10.7922C3.95285 10.5849 4.06952 10.3037 4.06972 10.0104V5.17498C4.06972 4.8816 4.18626 4.60023 4.39371 4.39278C4.60117 4.18533 4.88253 4.06878 5.17592 4.06878H10.0132C10.3062 4.06909 10.5874 3.9531 10.795 3.7463L14.2186 0.322701C14.426 0.116042 14.7068 0 14.9995 0C15.2923 0 15.5731 0.116042 15.7804 0.322701L19.204 3.7463C19.4103 3.95254 19.6915 4.06503 19.9859 4.07066H24.8269C25.4344 4.07066 25.9293 4.56376 25.9331 5.17686V10.0179C25.9338 10.3105 26.0504 10.591 26.2575 10.7978L29.6792 14.2214C29.8845 14.4295 29.9992 14.7103 29.9981 15.0026C29.9971 15.2949 29.8804 15.5748 29.6735 15.7814ZM22.1645 9.67852C21.9453 9.48271 21.6616 9.37448 21.3677 9.37448C21.0737 9.37448 20.7901 9.48271 20.5708 9.67852L13.3955 16.2557L9.41135 12.6015C9.19101 12.4119 8.90931 12.3087 8.6186 12.3111C8.3279 12.3135 8.04795 12.4214 7.83079 12.6146C7.72817 12.7048 7.64572 12.8156 7.58884 12.9398C7.53196 13.064 7.50191 13.1988 7.50067 13.3354C7.49944 13.472 7.52703 13.6074 7.58165 13.7326C7.63627 13.8578 7.7167 13.9701 7.81767 14.0621L12.6006 18.4456C12.8189 18.6429 13.1032 18.7512 13.3974 18.7494C13.6974 18.7494 13.9861 18.6406 14.1943 18.4456L22.1664 11.1391C22.2695 11.0466 22.3522 10.9336 22.4094 10.8074C22.4665 10.6812 22.4968 10.5445 22.4982 10.406C22.4973 10.2672 22.4671 10.1301 22.4096 10.0038C22.3521 9.87749 22.2686 9.76473 22.1645 9.6729V9.67852Z" fill="#333333"/>
</svg>
