<svg width="30" height="30" viewBox="0 0 30 30" fill="none" xmlns="http://www.w3.org/2000/svg">
<path d="M13.1086 5.40738L8.67422 0H3.65156L8.08641 5.40738H13.1081H13.1086ZM26.152 5.40738L21.7177 0H16.695L21.1298 5.40738H26.1516H26.152ZM19.6303 5.40738L15.1959 0H10.1733L14.6081 5.40738H19.6298H19.6303ZM28.0434 0H23.2172L27.652 5.40738H30V2.04541C30 0.886229 29.152 0 28.0434 0ZM1.95656 0C0.847969 0 0 0.88623 0 2.0459V5.40738H6.58688L2.1525 0H1.95656ZM0 27.9541C0 29.1138 0.847969 30 1.95656 30H28.0434C29.152 30 30 29.1138 30 27.9541V6.88328H0V27.9541ZM10.4344 12.9541C10.4344 11.7954 11.348 11.25 12.3914 11.25C12.7172 11.25 13.1086 11.3184 13.4348 11.523L20.8692 16.023C21.1645 16.1869 21.4116 16.4323 21.584 16.7326C21.7563 17.0329 21.8474 17.3768 21.8474 17.7273C21.8474 18.0778 21.7563 18.4217 21.584 18.722C21.4116 19.0223 21.1645 19.2677 20.8692 19.4316L13.4348 23.9316C13.1086 24.1362 12.7828 24.2046 12.3914 24.2046C11.348 24.2046 10.4348 23.6587 10.4348 22.5V12.9541H10.4344Z" fill="#548DFF"/>
</svg>
