<svg width="30" height="30" viewBox="0 0 30 30" fill="none" xmlns="http://www.w3.org/2000/svg">
<g clip-path="url(#clip0_45_35)">
<path fill-rule="evenodd" clip-rule="evenodd" d="M23.6835 14.1472L15.818 6.27132L0 22.1102V29.9629L7.90901 30L23.6835 14.1472ZM24.0332 0.502948L24.0316 0.501305L24.0315 0.501341C23.3616 -0.167738 22.2761 -0.167024 21.607 0.502948L16.8957 5.22043L24.7865 13.1216L29.5009 8.40085C30.1694 7.73152 30.1694 6.64727 29.5009 5.97795L24.0332 0.502948ZM30.0019 28.8571C30.0019 28.2258 29.4902 27.7141 28.859 27.7141H14.0366L14.0177 27.7143C13.3952 27.7244 12.8937 28.2322 12.8937 28.8571C12.8937 29.4883 13.4054 30 14.0366 30H28.859L28.8779 29.9998C29.5004 29.9897 30.0019 29.482 30.0019 28.8571Z" fill="#333333"/>
</g>
<defs>
<clipPath id="clip0_45_35">
<rect width="30" height="30" fill="white"/>
</clipPath>
</defs>
</svg>
