<svg width="30" height="30" viewBox="0 0 30 30" fill="none" xmlns="http://www.w3.org/2000/svg">
<g clip-path="url(#clip0_2695_229)">
<path fill-rule="evenodd" clip-rule="evenodd" d="M4.76021 28.7178C4.95417 28.9118 5.21177 29.0178 5.48755 29.0178V29.0148H12.367C12.9337 29.0148 13.3943 28.5542 13.3943 27.9874C13.3943 27.4207 12.9337 26.9601 12.367 26.9601H6.63008C6.56644 26.9601 6.51492 26.9086 6.51492 26.8449V19.7927C6.51189 19.2442 6.08458 18.7957 5.53604 18.7684C4.08136 18.6957 2.30847 18.2623 2.0933 17.7532C2.08118 17.7259 2.08118 17.6925 2.0933 17.6622C2.93277 15.7712 4.58141 14.4832 4.77234 14.3377C5.02084 14.1559 5.17237 13.874 5.19359 13.5679C5.22389 13.0982 5.99972 2.04868 16.1885 2.04868C21.2678 2.04868 25.3379 4.27312 27.0805 8.00074C29.0019 12.1193 27.7017 17.3562 23.5135 22.3596C23.3589 22.5445 23.2741 22.7779 23.2741 23.0203V27.8147C23.2741 28.3814 23.7347 28.8421 24.3014 28.8421C24.8681 28.8421 25.3288 28.3814 25.3288 27.8147V23.4355C25.3288 23.4082 25.3348 23.384 25.353 23.3628C29.8565 17.8168 31.1627 11.9041 28.9382 7.13703C26.8501 2.66995 22.083 0 16.1855 0C5.35421 0 3.46312 10.7737 3.1934 12.9345C3.19037 12.9618 3.17522 12.9891 3.154 13.0073C2.41151 13.6376 1.03866 14.9771 0.214338 16.8319C-0.100842 17.5441 -0.0675058 18.2744 0.308287 18.8836C1.07502 20.1261 3.17522 20.5686 4.36018 20.7231C4.41776 20.7322 4.46019 20.7807 4.46019 20.8383V27.9905C4.46019 28.2632 4.56929 28.5269 4.76021 28.7178ZM16.2734 19.1745C16.4189 19.5806 16.8068 19.8534 17.2402 19.8534C17.3553 19.8534 17.4644 19.8352 17.5735 19.7958C18.1009 19.617 18.3918 19.0351 18.2191 18.5078L14.8642 8.69778C14.7248 8.28562 14.3369 8.0068 13.8944 8.00377C13.461 8.00377 13.0731 8.27652 12.9277 8.68262L9.40308 18.4896C9.23337 19.0199 9.51219 19.5806 10.0334 19.7685C10.1456 19.8079 10.2638 19.8291 10.382 19.8291C10.8032 19.8291 11.179 19.5776 11.3336 19.1897L12.0185 17.2834C12.0336 17.238 12.0791 17.2077 12.1276 17.2077H15.5188C15.5673 17.2077 15.6128 17.241 15.6279 17.2865L16.2734 19.1745ZM13.755 12.4436C13.7702 12.3981 13.8156 12.3678 13.8641 12.3678C13.9156 12.3678 13.9581 12.3981 13.9732 12.4436L14.846 14.9953C14.8581 15.0317 14.8521 15.0711 14.8309 15.1014C14.8096 15.1317 14.7733 15.1499 14.7369 15.1499H12.9489C12.9125 15.1499 12.8761 15.1317 12.8549 15.1014C12.8337 15.0711 12.8276 15.0317 12.8398 14.9953L13.755 12.4436ZM19.6555 18.7866C19.6555 19.3321 20.1162 19.7776 20.6829 19.7776C21.2466 19.7776 21.7073 19.3351 21.7103 18.7896V9.00386C21.7103 8.45836 21.2496 8.01286 20.6829 8.01286C20.1162 8.01286 19.6555 8.45836 19.6555 9.00386V18.7866Z" fill="#333333"/>
</g>
<defs>
<clipPath id="clip0_2695_229">
<rect width="30" height="30" fill="white"/>
</clipPath>
</defs>
</svg>
