<svg width="30" height="30" viewBox="0 0 30 30" fill="none" xmlns="http://www.w3.org/2000/svg">
<g clip-path="url(#clip0_45_44)">
<path d="M15 0C6.71575 0 0 6.71575 0 15C0 23.2842 6.71575 30 15 30C23.2843 30 30 23.2842 30 15C30 6.71575 23.2843 0 15 0ZM24.2531 10.9936L14.1524 21.0945C13.5943 21.6525 12.8612 21.9315 12.1281 21.9315C11.395 21.9315 10.662 21.6525 10.1039 21.0945L5.74543 16.7254C5.07679 16.0551 5.07811 14.9697 5.74839 14.3011C6.41868 13.6324 7.50411 13.6337 8.17275 14.304L12.1286 18.2695L21.8288 8.56921C22.4983 7.89975 23.5837 7.89971 24.2531 8.56921C24.9226 9.23868 24.9226 10.3241 24.2531 10.9936Z" fill="#333333"/>
</g>
<defs>
<clipPath id="clip0_45_44">
<rect width="30" height="30" fill="white"/>
</clipPath>
</defs>
</svg>
