<svg width="30" height="30" viewBox="0 0 30 30" fill="none" xmlns="http://www.w3.org/2000/svg">
<path d="M15 8.57141H27.8571V12.1428H30V30H10V12.1428H15V8.57141Z" fill="#8AC58C"/>
<path d="M17.8572 0C19.6669 0 21.1429 1.47596 21.1429 3.28571V6.42857H25.7143C26.3455 6.42857 26.8572 6.94025 26.8572 7.57143V26.8571C26.8572 28.274 25.7026 29.4286 24.2857 29.4286H5.71431C4.29742 29.4286 3.14288 28.274 3.14288 26.8571V7.57143C3.14288 6.94025 3.65456 6.42857 4.28574 6.42857H8.85717V3.28571C8.85717 1.47596 10.3331 0 12.1429 0H17.8572ZM5.4286 26.8571C5.4286 27.0117 5.55978 27.1429 5.71431 27.1429H24.2857C24.4403 27.1429 24.5715 27.0117 24.5715 26.8571V8.71429H5.4286V26.8571ZM15 22.8571C15.6312 22.8571 16.1429 23.3688 16.1429 24C16.1429 24.6312 15.6312 25.1429 15 25.1429H9.28574C8.65456 25.1429 8.14288 24.6312 8.14288 24C8.14288 23.3688 8.65456 22.8571 9.28574 22.8571H15ZM20.7143 17.8571C21.3455 17.8571 21.8572 18.3688 21.8572 19C21.8572 19.6312 21.3455 20.1429 20.7143 20.1429H9.28574C8.65456 20.1429 8.14288 19.6312 8.14288 19C8.14288 18.3688 8.65456 17.8571 9.28574 17.8571H20.7143ZM20.7143 12.8571C21.3455 12.8571 21.8572 13.3688 21.8572 14C21.8572 14.6312 21.3455 15.1429 20.7143 15.1429H9.28574C8.65456 15.1429 8.14288 14.6312 8.14288 14C8.14288 13.3688 8.65456 12.8571 9.28574 12.8571H20.7143ZM12.1429 2.28571C11.5955 2.28571 11.1429 2.73832 11.1429 3.28571V6.42857H18.8572V3.28571C18.8572 2.73832 18.4046 2.28571 17.8572 2.28571H12.1429ZM15 2.35714C15.3156 2.35714 15.5715 2.61296 15.5715 2.92857V3.78571H16.4286C16.7442 3.78571 17 4.04154 17 4.35714C17 4.67275 16.7442 4.92857 16.4286 4.92857H15.5715V5.78571C15.5715 6.10132 15.3156 6.35714 15 6.35714C14.6844 6.35714 14.4286 6.10132 14.4286 5.78571V4.92857H13.5715C13.2558 4.92857 13 4.67275 13 4.35714C13 4.04154 13.2558 3.78571 13.5715 3.78571H14.4286V2.92857C14.4286 2.61296 14.6844 2.35714 15 2.35714Z" fill="#333333"/>
</svg>
