<svg width="30" height="30" viewBox="0 0 30 30" fill="none" xmlns="http://www.w3.org/2000/svg">
<g clip-path="url(#clip0_45_30)">
<path d="M21.4286 5V9.86232L21.429 9.91196C21.4554 11.5293 22.7728 12.8309 24.3982 12.8568L24.4476 12.8571H30V27.7143C30 28.9766 28.8629 30 27.4603 30H11.1111C9.7085 30 8.57143 28.9766 8.57143 27.7143V27.1429H2.28571C1.02336 27.1429 0 26.1195 0 24.8571V4.42857C0 3.16621 1.02336 2.14286 2.28571 2.14286H5.93046C6.6715 0.861893 8.05654 0 9.64286 0C11.2292 0 12.6142 0.861857 13.3552 2.14286H17C18.2624 2.14286 19.2857 3.16621 19.2857 4.42857V4.99996L21.4286 5ZM25.2857 23.4286H13.2857C12.6545 23.4286 12.1429 23.9402 12.1429 24.5714C12.1429 25.1963 12.6444 25.704 13.2668 25.7141L13.2857 25.7143H25.2857C25.9169 25.7143 26.4286 25.2026 26.4286 24.5714C26.4286 23.9402 25.9169 23.4286 25.2857 23.4286ZM25.2857 17.0357H13.2857C12.6545 17.0357 12.1429 17.5474 12.1429 18.1786C12.1429 18.8034 12.6444 19.3112 13.2668 19.3213L13.2857 19.3214H25.2857C25.9169 19.3214 26.4286 18.8097 26.4286 18.1786C26.4286 17.5474 25.9169 17.0357 25.2857 17.0357ZM23.4286 5.45714L30 10.7143V10.8571H24.4476L24.4307 10.857C23.8787 10.8482 23.4375 10.4124 23.4287 9.87854L23.4286 9.86232V5.45714ZM17 4.42857H2.28571V24.8571H8.57143V7.28571C8.57143 6.02336 9.7085 5 11.1111 5L17 4.99996V4.42857Z" fill="#333333"/>
</g>
<defs>
<clipPath id="clip0_45_30">
<rect width="30" height="30" fill="white"/>
</clipPath>
</defs>
</svg>
