<svg width="30" height="30" viewBox="0 0 30 30" fill="none" xmlns="http://www.w3.org/2000/svg">
<path d="M23.4286 0C24.6909 0 25.7143 1.02336 25.7143 2.28571V13.7299C24.5288 13.1481 23.1954 12.8214 21.7857 12.8214C16.8546 12.8214 12.8571 16.8189 12.8571 21.75C12.8571 25.4695 15.1315 28.6578 18.3654 30H2.28571C1.02336 30 0 28.9766 0 27.7143V2.28571C0 1.02336 1.02336 0 2.28571 0H23.4286ZM5.89286 21.6786C5.26168 21.6786 4.75 22.1903 4.75 22.8214C4.75 23.4526 5.26168 23.9643 5.89286 23.9643H10.4286C11.0598 23.9643 11.5714 23.4526 11.5714 22.8214C11.5714 22.1903 11.0598 21.6786 10.4286 21.6786H5.89286ZM5.89286 13.6429C5.26168 13.6429 4.75 14.1545 4.75 14.7857C4.75 15.4169 5.26168 15.9286 5.89286 15.9286H10.4286C11.0598 15.9286 11.5714 15.4169 11.5714 14.7857C11.5714 14.1545 11.0598 13.6429 10.4286 13.6429H5.89286ZM5.89286 5.64286C5.26168 5.64286 4.75 6.15454 4.75 6.78571C4.75 7.41689 5.26168 7.92857 5.89286 7.92857H19.8929C20.524 7.92857 21.0357 7.41689 21.0357 6.78571C21.0357 6.15454 20.524 5.64286 19.8929 5.64286H5.89286Z" fill="#333333"/>
<path d="M21.749 15C25.4764 15 28.498 18.0216 28.498 21.749C28.498 23.2512 28.0072 24.6388 27.1772 25.7601L29.7065 28.2894C30.0978 28.6806 30.0978 29.3151 29.7065 29.7065C29.3151 30.0978 28.6806 30.0978 28.2894 29.7065L25.7601 27.1772C24.6388 28.0072 23.2512 28.498 21.749 28.498C18.0216 28.498 15 25.4764 15 21.749C15 18.0216 18.0216 15 21.749 15Z" fill="#333333"/>
</svg>
