<svg width="30" height="30" viewBox="0 0 30 30" fill="none" xmlns="http://www.w3.org/2000/svg">
<path d="M0 10.0842V10.0715L9.3571 17.3717L0.826736 24.9682C0.448706 24.6213 0.175228 24.1592 0.0602269 23.6366L0 10.0842Z" fill="#333333"/>
<path d="M25.8385 25.6263H4.12597L11.8303 18.8467C13.1278 19.8576 13.9668 20.3752 14.7975 20.3752C15.6627 20.3752 16.5299 19.8227 17.9198 18.7091C17.9355 18.6981 17.9529 18.6848 17.9704 18.6714L17.9704 18.6714L17.9704 18.6713C17.9832 18.6616 17.996 18.6518 18.0081 18.6429L25.8385 25.6263Z" fill="#333333"/>
<path d="M29.9397 23.6383C29.8248 24.161 29.552 24.6227 29.1744 24.9693L20.6428 17.3717L30 10.0714L29.9397 23.6383Z" fill="#333333"/>
<path d="M29.8864 6.78962C26.3431 9.54561 19.8143 14.6267 17.3712 16.5794C14.6406 18.7625 14.6406 18.7625 11.9656 16.6644C10.9731 15.8894 9.71559 14.9163 8.31246 13.8331C5.76992 11.8721 2.76928 9.5571 0.00592954 7.35727C0.0473663 6.75575 0.302552 6.18632 0.728819 5.75401C1.19998 5.27616 1.84161 5.00496 2.51266 5H27.4911L27.4892 5.00187C28.617 5.00187 29.5681 5.75421 29.8864 6.78962Z" fill="#333333"/>
</svg>
