<svg width="30" height="30" viewBox="0 0 30 30" fill="none" xmlns="http://www.w3.org/2000/svg">
<path d="M23.9509 17.2143C24.582 17.2143 25.0937 17.7245 25.0937 18.354C25.0937 18.4935 25.0685 18.6272 25.0225 18.7507L25.0247 18.7515C23.623 22.6705 20.0633 25.5677 15.7723 26.0205L15.7722 27.7206L19.8826 27.7207C20.512 27.7207 21.0223 28.2309 21.0223 28.8603C21.0223 29.4897 20.512 30 19.8826 30H9.30479C8.67536 30 8.16514 29.4897 8.16514 28.8603C8.16514 28.2309 8.67536 27.7207 9.30479 27.7207L13.4865 27.7206V26.0279C9.16361 25.5998 5.57222 22.6923 4.16279 18.7515L4.16493 18.7507C4.1177 18.6238 4.09359 18.4894 4.09375 18.354C4.09372 17.7245 4.60536 17.2143 5.23657 17.2143C5.76189 17.2143 6.20446 17.5677 6.33811 18.0492L6.33657 18.0452L6.37364 18.1449C7.63947 21.4838 10.8773 23.803 14.5937 23.803C18.3455 23.803 21.6095 21.4394 22.8494 18.0492C22.983 17.5677 23.4255 17.2143 23.9509 17.2143ZM14.5937 0C18.1441 0 21.0223 2.87818 21.0223 6.42857V15C21.0223 18.5504 18.1441 21.4286 14.5937 21.4286C11.0433 21.4286 8.16514 18.5504 8.16514 15V6.42857C8.16514 2.87818 11.0433 0 14.5937 0Z" fill="#333333"/>
</svg>
