<svg width="30" height="30" viewBox="0 0 30 30" fill="none" xmlns="http://www.w3.org/2000/svg">
<g clip-path="url(#clip0_45_75)">
<path d="M30 3.82143H18.25V5.82143H27.3214V7.07143H18.25V9.14286H27.3214V10.3929H18.25V12.3929H27.3214V13.6429H18.25V15.6786H27.3214V16.9286H18.25V18.9286H27.3214V20.1786H18.25V22.2143H27.3214V23.4643H18.25V26.1071H30V3.82143ZM0 3.14625V26.7075L16.8571 30V0L0 3.14625ZM12.6989 18.3266C12.6998 18.8042 12.6062 19.2975 12.4182 19.8065C12.2301 20.3153 11.9557 20.7787 11.5951 21.1961C11.2344 21.6136 10.7857 21.9605 10.249 22.2367C9.71232 22.513 9.09904 22.6541 8.40921 22.6597C7.73268 22.6652 7.13054 22.539 6.60271 22.2813C6.07493 22.0236 5.62818 21.6872 5.26264 21.2724C4.89707 20.8575 4.61921 20.4005 4.42929 19.9012C4.23929 19.4019 4.14386 18.9135 4.14293 18.436L4.15996 11.7001C4.15975 11.5807 4.2325 11.4773 4.37825 11.3899C4.52404 11.3025 4.65654 11.2583 4.776 11.2573C4.88879 11.263 5.01986 11.3067 5.16921 11.3884C5.31861 11.4701 5.39343 11.5707 5.39361 11.6901L5.37654 18.406C5.37725 18.7643 5.43764 19.1219 5.55771 19.4792C5.67779 19.8363 5.86411 20.1599 6.11671 20.4497C6.36929 20.7394 6.68479 20.9723 7.06318 21.1485C7.44161 21.3244 7.8895 21.4103 8.40682 21.4061C8.87111 21.4023 9.29211 21.3061 9.66979 21.1172C10.0475 20.9284 10.3671 20.6855 10.6285 20.3882C10.8899 20.0909 11.0933 19.7626 11.2386 19.4032C11.3838 19.0439 11.4561 18.6851 11.4554 18.3269L11.4709 10.7552C11.4702 10.3971 11.4116 10.0841 11.2949 9.81636C11.1784 9.54871 11.0237 9.32282 10.8311 9.13861C10.6384 8.9545 10.4093 8.81704 10.1437 8.72636C9.87825 8.63564 9.593 8.59154 9.28793 8.59404C8.72411 8.60525 8.27346 8.79793 7.93593 9.17211C7.59839 9.54636 7.43025 10.0916 7.43161 10.8079L7.42475 17.6532C7.42536 17.9584 7.52032 18.2014 7.70971 18.3822C7.89914 18.563 8.11314 18.6525 8.35193 18.6506C8.64375 18.6482 8.87071 18.5386 9.03286 18.3217C9.19493 18.1047 9.27575 17.877 9.27525 17.6382L9.28336 11.4296C9.28318 11.3103 9.35593 11.2068 9.50164 11.1194C9.64746 11.032 9.77993 10.9879 9.89936 10.9869C10.0187 10.9859 10.1532 11.0262 10.3026 11.108C10.4519 11.1897 10.5267 11.2902 10.527 11.4096L10.509 17.6281C10.5099 18.1058 10.4477 18.5009 10.3222 18.8137C10.1968 19.1265 10.0331 19.3748 9.83118 19.5589C9.62914 19.7429 9.39896 19.8724 9.14043 19.9476C8.8815 20.0227 8.61415 20.065 8.34468 20.0734C8.12582 20.0818 7.88864 20.0489 7.63311 19.9747C7.37764 19.9005 7.14357 19.7714 6.931 19.5874C6.71839 19.4033 6.5405 19.1577 6.39729 18.8505C6.25407 18.5432 6.18539 18.154 6.19111 17.6831C6.19064 17.4443 6.18693 17.2287 6.17996 17.0365C6.173 16.8706 6.17104 16.7199 6.17407 16.5838C6.17711 16.4478 6.17868 16.3731 6.17864 16.3599L6.178 10.818C6.17711 10.3405 6.24921 9.89218 6.39436 9.47307C6.53946 9.05407 6.74775 8.68757 7.01911 8.37357C7.29043 8.05964 7.61661 7.80989 7.99761 7.62443C8.37864 7.43886 8.80793 7.34411 9.2855 7.34025H9.28543H9.2855C9.76304 7.33643 10.2075 7.42225 10.6191 7.59804C11.0307 7.77382 11.3926 8.01632 11.7049 8.3255C12.0173 8.63479 12.2634 8.99425 12.4432 9.40403C12.6231 9.81378 12.7135 10.2575 12.7144 10.7351L12.6989 18.3266Z" fill="#4FCCD3"/>
</g>
<defs>
<clipPath id="clip0_45_75">
<rect width="30" height="30" fill="white"/>
</clipPath>
</defs>
</svg>
