<svg width="30" height="30" viewBox="0 0 30 30" fill="none" xmlns="http://www.w3.org/2000/svg">
<path d="M23.7857 0C25.9554 0 27.7143 1.75889 27.7143 3.92857V26.0714C27.7143 28.2411 25.9554 30 23.7857 30H5.92857C3.75889 30 2 28.2411 2 26.0714V3.92857C2 1.75889 3.75889 0 5.92857 0H23.7857ZM22.4127 22.3929H7.30157L7.28479 22.393C6.7315 22.4031 6.28571 22.9109 6.28571 23.5357C6.28571 24.1669 6.74054 24.6786 7.30157 24.6786H22.4127L22.4295 24.6784C22.9828 24.6683 23.4286 24.1606 23.4286 23.5357C23.4286 22.9045 22.9737 22.3929 22.4127 22.3929ZM7.51786 5.35714C6.88668 5.35714 6.375 5.86882 6.375 6.5V17.9286L6.37514 17.9475C6.38525 18.5699 6.893 19.0714 7.51786 19.0714C8.14903 19.0714 8.66071 18.5597 8.66071 17.9286V6.5L8.66057 6.48107C8.65046 5.85864 8.14271 5.35714 7.51786 5.35714ZM14.8929 8.21429C14.2617 8.21429 13.75 8.72596 13.75 9.35714V17.9286L13.7501 17.9475C13.7602 18.5699 14.268 19.0714 14.8929 19.0714C15.524 19.0714 16.0357 18.5597 16.0357 17.9286V9.35714L16.0356 9.33821C16.0255 8.71582 15.5177 8.21429 14.8929 8.21429ZM22.2857 11.0714C21.6545 11.0714 21.1429 11.5831 21.1429 12.2143V17.9286L21.143 17.9475C21.1531 18.5699 21.6609 19.0714 22.2857 19.0714C22.9169 19.0714 23.4286 18.5597 23.4286 17.9286V12.2143L23.4284 12.1954C23.4183 11.573 22.9106 11.0714 22.2857 11.0714Z" fill="#333333"/>
</svg>
