<svg width="30" height="30" viewBox="0 0 30 30" fill="none" xmlns="http://www.w3.org/2000/svg">
<g clip-path="url(#clip0_3410_49)">
<path d="M15 0C6.71568 0 0 6.71568 0 15C0 23.2843 6.71568 30 15 30C23.2843 30 30 23.2843 30 15C30 6.71568 23.2843 0 15 0ZM20.1786 19.2723C20.1783 19.5126 20.0828 19.743 19.9129 19.9129C19.743 20.0828 19.5126 20.1783 19.2723 20.1786H10.7277C10.4874 20.1783 10.257 20.0828 10.0871 19.9129C9.91723 19.743 9.82167 19.5126 9.82143 19.2723V10.7277C9.82167 10.4874 9.91723 10.257 10.0871 10.0871C10.257 9.91723 10.4874 9.82167 10.7277 9.82143H19.2723C19.5126 9.82167 19.743 9.91723 19.9129 10.0871C20.0828 10.257 20.1783 10.4874 20.1786 10.7277V19.2723Z" fill="black"/>
</g>
<defs>
<clipPath id="clip0_3410_49">
<rect width="30" height="30" fill="white"/>
</clipPath>
</defs>
</svg>
