<svg width="30" height="30" viewBox="0 0 30 30" fill="none" xmlns="http://www.w3.org/2000/svg">
<g clip-path="url(#clip0_45_33)">
<path d="M4.98808 0C5.37812 0 5.73122 0.158081 5.98677 0.413707C6.2424 0.669261 6.40048 1.02236 6.40048 1.4124V3.57569H24.1538C24.7808 3.57569 25.3484 3.82981 25.7593 4.24073C26.1702 4.65161 26.4243 5.21925 26.4243 5.84625V23.5995H28.5876C28.9776 23.5995 29.3307 23.7576 29.5863 24.0132C29.8419 24.2688 30 24.6219 30 25.0119C30 25.402 29.8419 25.7551 29.5863 26.0106C29.3307 26.2662 28.9776 26.4243 28.5876 26.4243H26.4243V28.5876C26.4243 28.9776 26.2662 29.3307 26.0106 29.5863C25.7551 29.8419 25.402 30 25.0119 30C24.6219 30 24.2688 29.8419 24.0132 29.5863C23.7576 29.3307 23.5995 28.9776 23.5995 28.5876V26.4243H5.84625C5.21925 26.4243 4.65161 26.1702 4.24073 25.7593C3.82981 25.3484 3.57569 24.7808 3.57569 24.1538V6.40048H1.4124C1.02236 6.40048 0.669261 6.2424 0.413707 5.98677C0.158045 5.73125 0 5.37815 0 4.98808C0 4.59804 0.158081 4.24495 0.413707 3.98939C0.669261 3.73377 1.02236 3.57569 1.4124 3.57569L3.57569 3.57565V1.4124C3.57569 1.02236 3.73377 0.669261 3.98939 0.413707C4.24491 0.158045 4.59801 0 4.98808 0ZM21.2932 6.40048H8.70679C8.07683 6.40048 7.50586 6.65306 7.08962 7.06248C6.67269 7.47258 6.41095 8.04007 6.4008 8.66868L6.40048 8.70665V21.2932C6.40048 21.9232 6.65306 22.4941 7.06248 22.9104C7.47258 23.3273 8.04007 23.589 8.66868 23.5992L8.70665 23.5995H21.2932C21.9232 23.5995 22.4941 23.3469 22.9104 22.9375C23.3273 22.5274 23.589 21.9599 23.5992 21.3313L23.5995 21.2934V8.70679C23.5995 8.06993 23.3414 7.49335 22.924 7.076C22.5067 6.65861 21.9301 6.40048 21.2932 6.40048ZM18.7902 8.93921C19.4172 8.93921 19.9849 9.19334 20.3957 9.60426C20.8067 10.0151 21.0608 10.5828 21.0608 11.2098V21.0608H11.2098C10.5828 21.0608 10.0151 20.8067 9.60426 20.3957C9.19334 19.9849 8.93921 19.4172 8.93921 18.7902V8.93921H18.7902Z" fill="#333333"/>
</g>
<defs>
<clipPath id="clip0_45_33">
<rect width="30" height="30" fill="white"/>
</clipPath>
</defs>
</svg>
