<svg width="30" height="30" viewBox="0 0 30 30" fill="none" xmlns="http://www.w3.org/2000/svg">
<path d="M1.27049 27H23.5243C24.0245 27 24.4903 26.691 24.6868 26.2275L29.9105 12.8025C29.9865 12.6135 30.0148 12.4087 29.9927 12.2062C29.9706 12.0038 29.8989 11.8099 29.7839 11.6417C29.6689 11.4736 29.5142 11.3365 29.3335 11.2425C29.1528 11.1485 28.9517 11.1006 28.748 11.103H24.5248V6.91425C24.5246 6.75059 24.492 6.5886 24.4287 6.43765C24.3655 6.2867 24.273 6.14978 24.1565 6.03483C24.04 5.91988 23.9019 5.82917 23.7501 5.76797C23.5984 5.70676 23.4359 5.67626 23.2723 5.67825H12.3974L9.78517 3.0855C9.72594 3.03267 9.65 3.00239 9.57067 3H1.25249C0.554995 3 0 3.549 0 4.236V25.764C0.00746795 26.0954 0.144802 26.4107 0.38243 26.6419C0.620057 26.873 0.938969 27.0016 1.27049 27ZM2.81248 5.769H8.52443L11.2027 8.364H21.5623V10.9417H6.76794C6.27145 10.9417 5.8102 11.2417 5.6152 11.6902L2.81248 18.6922V5.76975V5.769Z" fill="#333333"/>
</svg>
