<svg width="30" height="30" viewBox="0 0 30 30" fill="none" xmlns="http://www.w3.org/2000/svg">
<g clip-path="url(#clip0_2295_4)">
<path d="M0.357247 15.357C0.357247 23.4441 6.91307 29.9999 15.0001 29.9999C23.0871 29.9999 29.643 23.4441 29.643 15.357C29.643 7.27 23.0871 0.714182 15.0001 0.714182C6.91307 0.714182 0.357247 7.27 0.357247 15.357ZM6.33485 14.6624C5.88853 14.2161 5.88853 13.4925 6.33485 13.0462C6.78114 12.5999 7.50478 12.5999 7.95107 13.0462L13.3554 18.4505L22.0427 9.76322C22.489 9.3169 23.2126 9.3169 23.659 9.76322C24.1052 10.2095 24.1052 10.9331 23.659 11.3794L14.1635 20.8749C13.7172 21.3212 12.9936 21.3212 12.5473 20.8749L6.33485 14.6624ZM23.9287 1.04161L28.9584 6.07132C30.3474 4.6824 30.3474 2.43054 28.9584 1.04157C27.5695 -0.347354 25.3176 -0.347354 23.9287 1.04157V1.04161ZM1.04182 1.04161C-0.34711 2.43054 -0.34711 4.6824 1.04182 6.07132L6.07153 1.04157C4.6826 -0.347354 2.43075 -0.347354 1.04178 1.04157L1.04182 1.04161Z" fill="#333333"/>
</g>
<defs>
<clipPath id="clip0_2295_4">
<rect width="30" height="30" fill="white"/>
</clipPath>
</defs>
</svg>
