<svg width="30" height="30" viewBox="0 0 30 30" fill="none" xmlns="http://www.w3.org/2000/svg">
<path d="M22.9556 22.9556C20.7544 21.2213 19.1025 20.0119 17.6681 19.3181C16.215 21.4088 15.6319 24.66 15 30C14.3681 24.66 13.785 21.4088 12.3319 19.3181C10.8975 20.0119 9.24564 21.2194 7.04439 22.9556C8.78064 20.7544 9.98814 19.1025 10.6819 17.6681C8.59125 16.215 5.34 15.6319 0 15C5.34 14.3681 8.59125 13.785 10.6819 12.3319C9.98814 10.8975 8.78064 9.24564 7.04436 7.04439C9.24561 8.78064 10.8975 9.98814 12.3319 10.6819C13.785 8.59125 14.3681 5.34 15 0C15.6319 5.34 16.215 8.59125 17.6681 10.6819C19.1025 9.98814 20.7544 8.78064 22.9556 7.04436C21.2213 9.24561 20.0119 10.8975 19.3181 12.3319C21.4088 13.785 24.66 14.3681 30 15C24.66 15.6319 21.4088 16.215 19.3181 17.6681C20.0119 19.1025 21.2194 20.7544 22.9556 22.9556Z" fill="#333333"/>
</svg>
