<svg width="30" height="30" viewBox="0 0 30 30" fill="none" xmlns="http://www.w3.org/2000/svg">
<path fill-rule="evenodd" clip-rule="evenodd" d="M29.9107 3.97793C29.9688 4.1491 29.9873 4.33123 29.9647 4.51059C29.9959 7.90413 29.9908 11.2986 29.9857 14.6906V14.6911V14.6916C29.981 17.8151 29.9763 20.9364 30 24.0529C29.9923 24.2061 29.9912 24.3631 29.99 24.5215C29.9857 25.0928 29.9813 25.6814 29.6719 26.1706C29.2523 26.4862 28.7273 26.5004 28.2217 26.5141C28.128 26.5166 28.0349 26.5191 27.9433 26.5235H17.7128V30H15.5962C12.5245 29.4342 9.44911 28.8932 6.37294 28.3519L6.37236 28.3518L6.37179 28.3517C4.24791 27.9781 2.12366 27.6043 0 27.2224V2.79882C1.85492 2.47023 3.70984 2.13945 5.56491 1.80863C8.97015 1.20138 12.3759 0.594035 15.7832 0H17.7093V3.17647C18.927 3.17647 20.1444 3.17019 21.3611 3.16391C23.7925 3.15137 26.2213 3.13883 28.6453 3.17647C28.8248 3.1558 29.0067 3.17621 29.1771 3.23617C29.3476 3.29612 29.5022 3.39405 29.6293 3.52255C29.7564 3.65105 29.8526 3.80677 29.9107 3.97793ZM17.7164 25.4753H28.9628V4.18941H17.7164V25.4753ZM7.05551 17.1776L10.996 12.7411V11.0541H4.67075V12.7059H8.39606L4.39206 17.2659V18.8647H11.1406V17.1776H7.05551ZM22.3554 5.89413V6.28589L20.1082 8.49178H22.5035V8.91531H19.2509V8.52707L21.5193 6.31766H19.4026V5.89413H22.3554ZM23.6536 5.89413V8.91531H23.008V5.89413H23.6536ZM26.0489 5.89413C26.9944 5.89413 27.46 6.20119 27.46 6.81884C27.46 7.43648 26.9944 7.76472 26.0383 7.76472H25.0647V8.92589H24.4226V5.89413H26.0489ZM25.0647 7.3306H25.9995C26.2141 7.34352 26.4285 7.30352 26.6239 7.21413C26.6878 7.17122 26.7389 7.11183 26.7718 7.04224C26.8048 6.97266 26.8183 6.89547 26.8109 6.81884C26.8156 6.74206 26.799 6.66548 26.7629 6.59757C26.7268 6.52967 26.6726 6.4731 26.6063 6.43413C26.4129 6.3421 26.199 6.30196 25.9854 6.31766H25.0647V7.3306ZM26.9873 19.4118H19.7554V23.7424H26.9873V19.4118ZM19.7554 10.5882H27.0085H27.0226V17.8588H19.7554V10.5882ZM23.3749 11.2941H22.6693V12H23.3749V12.7059H22.6693V13.4118H23.3749V14.1176H24.0804V13.4118H23.3749V12.7059H24.0804V12H23.3749V11.2941ZM22.6693 16.2353H24.0804V14.3506H22.6693V16.2353Z" fill="#733781"/>
</svg>
