<svg width="30" height="30" viewBox="0 0 30 30" fill="none" xmlns="http://www.w3.org/2000/svg">
<g clip-path="url(#clip0_45_55)">
<path d="M26.3745 24.8807L27.1732 27.5459L24.2606 25.9441C23.1987 26.2115 22.132 26.4794 21.0747 26.4794C16.0229 26.4794 12.0436 23.0109 12.0436 18.7397C12.0436 14.476 16.0229 11 21.0747 11C25.8459 11 30.0938 14.4757 30.0938 18.7397C30.0938 21.1449 28.5061 23.2745 26.3745 24.8807ZM18.1467 15.2712C17.6179 15.2712 17.0848 15.8065 17.0848 16.3379C17.0848 16.8769 17.6181 17.4051 18.1467 17.4051C18.95 17.4051 19.4759 16.8769 19.4759 16.3379C19.4757 15.8065 18.9498 15.2712 18.1467 15.2712ZM23.9872 15.2712C23.4622 15.2712 22.9325 15.8065 22.9325 16.3379C22.9325 16.8769 23.4621 17.4051 23.9872 17.4051C24.7831 17.4051 25.3165 16.8769 25.3165 16.3379C25.3163 15.8065 24.7831 15.2712 23.9872 15.2712ZM11.3753 18.8675C11.3753 19.6423 11.4955 20.3894 11.7032 21.1024C11.3753 21.1283 11.0451 21.1448 10.7118 21.1448C9.38621 21.1448 8.32082 20.8734 6.99246 20.6093L3.28054 22.4791L4.34268 19.2707C1.68446 17.4048 0.09375 14.9997 0.09375 12.0707C0.09375 6.99618 4.87496 3 10.7118 3C15.9327 3 20.5065 6.19293 21.4254 10.4898C21.0876 10.4519 20.7471 10.4266 20.4029 10.4266C15.3591 10.4269 11.3753 14.2082 11.3753 18.8675V18.8675ZM7.26221 7.53521C6.4665 7.53521 5.66325 8.06357 5.66325 8.86621C5.66325 9.66557 6.46654 10.2013 7.26218 10.2013C8.05811 10.2013 8.58775 9.66557 8.58775 8.86621C8.58775 8.06336 8.05811 7.53521 7.26221 7.53521ZM14.6936 7.53521C13.8977 7.53521 13.099 8.06357 13.099 8.86621C13.099 9.66557 13.8977 10.2013 14.6936 10.2013C15.4932 10.2013 16.0229 9.66557 16.0229 8.86621C16.0229 8.06336 15.4932 7.53521 14.6936 7.53521Z" fill="#333333"/>
</g>
<defs>
<clipPath id="clip0_45_55">
<rect width="30" height="30" fill="white"/>
</clipPath>
</defs>
</svg>
