<svg width="30" height="30" viewBox="0 0 30 30" fill="none" xmlns="http://www.w3.org/2000/svg">
<g clip-path="url(#clip0_3226_141)">
<path d="M12.481 5H21.6976V9.60525H26.9643V27.3684C26.9643 28.6842 25.6476 30 24.331 30H9.84762C8.53097 30 7.21429 28.6842 7.21429 27.3684V9.60525H12.481V5Z" fill="#FCA659"/>
<path d="M15 12.0714C15.6312 12.0714 16.1428 12.5831 16.1428 13.2143V17.0714H20C20.6312 17.0714 21.1428 17.5831 21.1428 18.2143C21.1428 18.8454 20.6312 19.3571 20 19.3571H16.1428V23.2143C16.1428 23.8454 15.6312 24.3571 15 24.3571C14.3688 24.3571 13.8571 23.8454 13.8571 23.2143V19.3571H9.99997C9.3688 19.3571 8.85712 18.8454 8.85712 18.2143C8.85712 17.5831 9.3688 17.0714 9.99997 17.0714H13.8571V13.2143C13.8571 12.5831 14.3688 12.0714 15 12.0714Z" fill="#333333"/>
<path d="M20.8252 0C21.4687 0 21.9903 0.521607 21.9903 1.16504V6.55339H26.6505C28.4954 6.55339 30 8.058 30 9.90289V26.6505C30 28.4954 28.4954 30 26.6505 30H3.3495C1.50464 30 0 28.4954 0 26.6505V9.90289C0 8.058 1.50464 6.55339 3.3495 6.55339H8.00968V1.16504C8.00971 0.521607 8.53132 0 9.17479 0H20.8252ZM10.3398 7.71843C10.3398 8.36186 9.81821 8.8835 9.17479 8.8835H3.3495C2.7915 8.8835 2.33011 9.34489 2.33011 9.90289V26.6505C2.33011 27.2085 2.7915 27.6699 3.3495 27.6699H26.6505C27.2085 27.6699 27.6699 27.2085 27.6699 26.6505V9.90289C27.6699 9.34489 27.2085 8.8835 26.6505 8.8835H20.8252C20.1818 8.8835 19.6602 8.36186 19.6602 7.71843V2.33011H10.3398V7.71843Z" fill="#333333"/>
</g>
<defs>
<clipPath id="clip0_3226_141">
<rect width="30" height="30" fill="white"/>
</clipPath>
</defs>
</svg>
