<svg width="30" height="30" viewBox="0 0 30 30" fill="none" xmlns="http://www.w3.org/2000/svg">
<path d="M24.6502 14.1886C24.0821 13.7209 23.3056 13.6083 22.6307 13.8957C22.5741 13.3721 22.5521 12.8707 22.4601 12.3837C22.0277 10.1723 20.7172 8.23775 18.8353 7.03271C14.602 4.22864 9.07176 4.47892 5.10258 7.65425C3.23612 9.10214 2.15397 11.3567 2.18308 13.737C2.21215 16.1173 3.34908 18.3441 5.25037 19.7448C5.92415 20.1252 6.19344 20.9676 5.86751 21.6754C5.7105 22.163 5.5811 22.6591 5.47994 23.1612C5.52762 23.1968 5.57558 23.2318 5.62379 23.2662C5.9277 23.1185 6.22131 22.9505 6.50265 22.7633C7.62497 21.8535 9.12297 21.5735 10.4922 22.0176C12.2674 22.4076 14.1158 22.3002 15.8339 21.7073C15.9191 22.0437 16.0389 22.3704 16.1915 22.6821C16.4077 22.9661 16.651 23.2283 16.9179 23.4652C15.6762 23.9046 14.3751 24.1535 13.0589 24.2037C11.644 24.2708 10.2268 24.1325 8.85158 23.7931C8.61657 23.7455 8.37248 23.7754 8.15587 23.8782C7.0899 24.3828 6.03337 24.9128 4.98547 25.4483C4.82442 25.5675 4.6293 25.6318 4.42893 25.6316C4.22856 25.6314 4.03356 25.5668 3.87272 25.4473C3.54154 25.202 3.40501 24.768 3.53508 24.374C3.6813 23.5111 3.79511 22.6431 3.87626 21.7717C3.86404 21.555 3.76869 21.3517 3.61054 21.2051C2.15465 19.9006 1.0609 18.2335 0.437757 16.369C-0.668315 12.5691 0.352864 9.28643 3.14751 6.57275C8.22347 1.63882 17.1404 1.85364 22.0143 6.9786C23.7898 8.76243 24.7723 11.2005 24.7359 13.7325C24.7359 13.8368 24.7359 13.9426 24.7241 14.0509C24.7056 14.0998 24.6808 14.1461 24.6502 14.1886Z" fill="#0482EF"/>
<path d="M23.3452 14.5794C24.1619 14.5621 24.8792 15.129 25.0659 15.9392C25.2842 17.1822 25.8767 18.3252 26.7611 19.2098C26.8362 19.4054 26.8596 19.617 26.8291 19.8242C26.6212 19.8604 26.4074 19.8416 26.2089 19.7699C25.2957 18.8689 24.1353 18.2718 22.8814 18.0579C22.0454 17.8604 21.4893 17.0536 21.5909 16.1855C21.7031 15.2806 22.4501 14.5966 23.3452 14.5794V14.5794Z" fill="#62B723"/>
<path d="M29.9993 21.0306C30.0242 21.8713 29.4244 22.6006 28.5964 22.7361C27.393 22.9281 26.2808 23.4947 25.4179 24.3553C25.2147 24.5558 24.9673 24.7069 24.778 24.4202C24.7405 24.3229 24.7283 24.2176 24.7427 24.1143C24.757 24.011 24.7974 23.913 24.8599 23.8295C25.7083 22.9756 26.2844 21.8892 26.5151 20.7077C26.7043 19.8352 27.5129 19.2412 28.3997 19.3234C29.2865 19.4056 29.9729 20.1381 29.9993 21.0306Z" fill="#0082EF"/>
<path d="M25.2631 26.1316C25.2583 26.9418 24.5994 27.622 23.726 27.7185C22.8686 27.84 22.0494 27.3473 21.8253 26.5755C21.603 25.4116 20.992 24.3406 20.0776 23.5116C20.0093 23.3593 19.9855 23.1932 20.0085 23.0298C20.1984 22.9874 20.3957 22.9903 20.5842 23.0382C21.5387 23.8702 22.736 24.4278 24.0295 24.6424C24.7724 24.8057 25.2874 25.4286 25.2607 26.1316H25.2632H25.2631Z" fill="#FC6500"/>
<path d="M16.8447 20.8411C16.8586 20.1169 17.4191 19.499 18.1919 19.3564C19.4471 19.1703 20.6094 18.6335 21.5209 17.819C21.7051 17.7502 21.9025 17.7241 22.0982 17.7426C22.12 17.9186 22.0914 18.0968 22.0151 18.2594C21.13 19.0785 20.5318 20.1223 20.2975 21.2564C20.1057 22.0633 19.2582 22.5895 18.3722 22.4519C17.4911 22.35 16.8332 21.6573 16.8422 20.8412H16.8447L16.8447 20.8411Z" fill="#FFCB01"/>
</svg>
