<svg width="30" height="30" viewBox="0 0 30 30" fill="none" xmlns="http://www.w3.org/2000/svg">
<path d="M23.3828 0C24.8107 0 25.9999 1.16444 26 2.59863V28.5225C26 29.9411 25.0606 30.4258 23.9004 29.5674L15.5 23.3428L7.09961 29.5674C5.93154 30.431 5.00001 29.9593 5 28.5225V2.59863C5.00012 1.18259 6.17088 0 7.61719 0H23.3828ZM13.8164 7.45996C14.0803 7.65192 14.3482 7.87219 14.6201 8.12012C14.9001 8.36008 15.1604 8.59988 15.4004 8.83984C15.5858 9.01331 15.7419 9.17368 15.8691 9.32031H10.5645V10.1963H14.8359V12.8359H11.1162V13.7119H14.8359V16.6758H10V17.5518H20.7041V16.6758H15.8076V13.7119H19.5996V12.8359H15.8076V10.1963H20.0918V9.32031H16.1865L16.7676 8.90039C16.6076 8.70847 16.4041 8.50026 16.1562 8.27637C15.9083 8.04437 15.6396 7.81208 15.3516 7.58008C15.0716 7.34816 14.8038 7.14373 14.5479 6.96777L13.8164 7.45996Z" fill="#333333"/>
</svg>
