<svg width="30" height="30" viewBox="0 0 30 30" fill="none" xmlns="http://www.w3.org/2000/svg">
<path fill-rule="evenodd" clip-rule="evenodd" d="M20.3856 1.53422L29.6579 12.6503C29.911 12.9533 30.0303 13.3368 29.9934 13.7297C29.9566 14.1223 29.7681 14.4771 29.4628 14.7288L15.2931 26.4075H26.7047C27.3356 26.4075 27.847 26.9159 27.847 27.543C27.847 28.1702 27.3356 28.6786 26.7047 28.6786H3.28654C2.65564 28.6786 2.14421 28.1702 2.14421 27.543C2.14421 26.9159 2.65564 26.4075 3.28654 26.4075H7.30836L0.341143 18.0549C-0.181428 17.428 -0.0937854 16.4956 0.536465 15.9762L18.2945 1.33997C18.5999 1.08829 18.9854 0.969787 19.3807 1.00657C19.7756 1.04332 20.1325 1.23064 20.3856 1.53422ZM4.05746 16.0244C4.02877 16.1096 4.01066 16.198 4.00353 16.2877C3.95432 16.9029 4.42471 17.4406 5.05418 17.4887L15.5195 18.2885C15.6009 18.2956 15.6815 18.2991 15.7616 18.2991C17.1276 18.2991 18.2985 17.2815 18.4329 15.9278L19.5701 5.69792C19.6383 5.08446 19.1848 4.53314 18.5571 4.46646C18.3588 4.44502 18.075 4.49994 17.975 4.55353C17.875 4.60712 17.5893 4.82141 17.4785 4.96271C17.3677 5.10401 17.3166 5.27967 17.297 5.45657L16.1607 15.6607L16.1572 15.7103C16.1367 15.9247 15.9419 16.0827 15.7224 16.0627L15.7138 16.062L5.23246 15.2609C5.14595 15.2542 5.05897 15.2572 4.97311 15.2697C4.97311 15.2697 4.58929 15.3214 4.35714 15.5536C4.125 15.7857 4.05746 16.0244 4.05746 16.0244Z" fill="#333333"/>
</svg>
