<svg width="30" height="30" viewBox="0 0 30 30" fill="none" xmlns="http://www.w3.org/2000/svg">
<path d="M28.8572 27.7143C29.4883 27.7143 30 28.226 30 28.8571C30 29.4883 29.4883 30 28.8572 30H1.14286C0.511679 30 0 29.4883 0 28.8571C0 28.226 0.511679 27.7143 1.14286 27.7143H28.8572ZM5.54029 9.93408L18.8827 23.2765L15.0561 27.1031C14.2697 27.8896 12.995 27.8898 12.209 27.1039L1.71297 16.6078C0.926965 15.8218 0.927251 14.5471 1.71368 13.7607L5.54029 9.93408ZM17.7315 0.589255L28.2275 11.0853C29.0135 11.8713 29.0132 13.146 28.2268 13.9324L20.3066 21.8526L6.96415 8.51019L14.8844 0.589969C15.6708 -0.196389 16.9455 -0.19671 17.7315 0.589327V0.589255Z" fill="#333333"/>
</svg>
