<svg width="30" height="30" viewBox="0 0 30 30" fill="none" xmlns="http://www.w3.org/2000/svg">
<g clip-path="url(#clip0_1857_5)">
<path d="M10.8392 21.9631C10.9455 22.2299 11.073 22.5189 11.2218 22.8302C11.3493 23.1192 11.5194 23.4527 11.7319 23.8306C11.9445 24.2086 12.1995 24.6199 12.4971 25.0645C12.8584 25.5981 13.225 26.1594 13.5969 26.7486C13.9689 27.3377 14.2505 27.8713 14.4418 28.3493C14.633 28.8272 14.6915 29.2219 14.6171 29.5331C14.5427 29.8443 14.2399 30 13.7085 30H11.8913C11.4662 30 11.073 29.9166 10.7117 29.7499C10.3504 29.5831 10.005 29.3274 9.67561 28.9829C9.34615 28.6383 9.00611 28.1992 8.6554 27.6656C8.30472 27.1321 7.92748 26.4985 7.52366 25.7648C7.0348 24.92 6.69473 24.1808 6.50345 23.5472C6.31216 22.9136 6.18466 22.3856 6.12088 21.9631C6.03588 21.4741 6.03588 21.0516 6.12088 20.6959C6.29091 20.7182 6.49284 20.7626 6.72663 20.8293C6.96065 20.8839 7.19445 20.9395 7.42801 20.9961C7.7043 21.0627 8.02312 21.1295 8.38444 21.1961C8.74576 21.2851 9.06986 21.3685 9.35679 21.4462C9.64371 21.5241 9.90407 21.6075 10.1379 21.6964C10.3929 21.7853 10.6267 21.8742 10.8392 21.9631Z" fill="#007AFF"/>
<path opacity="0.4" d="M0 10.1247C0 9.54671 0.196606 9.05765 0.589782 8.65747C0.982994 8.25729 1.45588 8.05719 2.00849 8.05719H4.01698V17.4279H2.00849C1.45588 17.4279 0.982994 17.2278 0.589782 16.8277C0.19657 16.4275 0 15.9384 0 15.3604V10.1247ZM22.3165 1.52101C23.2305 0.609518 24.0594 0.109307 24.8032 0.0203791C25.5471 -0.0685489 26.206 0.137093 26.7799 0.637304C27.3537 1.13752 27.8425 1.87119 28.2464 2.83826C28.6502 3.80536 28.9796 4.8836 29.2347 6.07299C29.4897 7.26241 29.681 8.5074 29.8085 9.80796C29.9361 11.1085 29.9998 12.3479 29.9998 13.5262C29.9998 14.7045 29.9201 15.8828 29.7607 17.0611C29.6013 18.2394 29.3675 19.3454 29.0593 20.3792C28.7512 21.413 28.3898 22.319 27.9754 23.0971C27.5609 23.8752 27.0987 24.4532 26.5886 24.8312C26.0785 25.2091 25.5312 25.3425 24.9467 25.2313C24.3622 25.1202 23.7512 24.6866 23.1136 23.9308C22.4972 23.1749 21.663 22.5468 20.6109 22.0466C19.5588 21.5464 18.4111 21.124 17.1678 20.7794C15.9242 20.4347 14.6631 20.1564 13.3899 19.9457C12.1147 19.7345 10.9457 19.5455 9.88305 19.3788C8.82034 19.2121 7.93299 19.0509 7.22099 18.8952C6.509 18.7396 6.1105 18.5506 6.02546 18.3283V7.89044C6.1105 7.57923 6.44525 7.32355 7.02971 7.12344C7.6142 6.92337 8.35809 6.73441 9.26137 6.55655C10.1647 6.3787 11.1849 6.18416 12.3219 5.97295C13.459 5.76174 14.6173 5.47274 15.7969 5.10592C16.9765 4.7391 18.1295 4.27221 19.256 3.70532C20.3825 3.1384 21.4026 2.41033 22.3165 1.52105V1.52101Z" fill="#007AFF"/>
</g>
<defs>
<clipPath id="clip0_1857_5">
<rect width="30" height="30" fill="white"/>
</clipPath>
</defs>
</svg>
