<svg width="30" height="30" viewBox="0 0 30 30" fill="none" xmlns="http://www.w3.org/2000/svg">
<path d="M0 15C0 18.9782 1.58035 22.7936 4.3934 25.6066C7.20644 28.4196 11.0218 30 15 30C18.9782 30 22.7936 28.4196 25.6066 25.6066C28.4196 22.7936 30 18.9782 30 15C30 11.0218 28.4196 7.20644 25.6066 4.3934C22.7936 1.58035 18.9782 0 15 0C11.0218 0 7.20644 1.58035 4.3934 4.3934C1.58035 7.20644 0 11.0218 0 15Z" fill="white"/>
<path d="M12.2248 25.7143C15.5035 23.4193 17.1662 19.7659 17.2365 14.7542V4.28577H15.6206V14.7542C15.5738 19.2975 14.0281 22.5762 10.9836 24.6136L12.2248 25.7143ZM25.6909 24.9181V23.349H22.3653V15.5036H24.9883V13.9579H22.3653V7.28341H25.3396V5.73777H18.0093V7.28341H20.7494V13.9579H18.267V15.5036H20.7494V23.349H17.2131V24.9181H25.6908H25.6909ZM4.70724 24.3092C7.23653 23.63 9.60188 22.7869 11.7798 21.8033V20.1172C10.8431 20.5621 9.88288 20.9837 8.92271 21.3584V15.082H11.1475V13.5129H8.92271V7.4942H11.4754V5.92512H4.56678V7.4942H7.28338V13.5129H4.77749V15.082H7.28335V21.9204C6.29978 22.2015 5.31613 22.4591 4.28571 22.6933L4.70724 24.3092V24.3092ZM12.5293 17.9158C13.5128 16.3701 14.0047 13.9345 14.0281 10.6558V8.17337H12.4824V10.6558C12.459 13.513 12.0843 15.5739 11.3349 16.8619L12.5293 17.9158Z" fill="#F7981D"/>
</svg>
