<svg width="30" height="30" viewBox="0 0 30 30" fill="none" xmlns="http://www.w3.org/2000/svg">
<path fill-rule="evenodd" clip-rule="evenodd" d="M24.4612 6.46242H26.5797C27.2092 6.46242 27.7196 6.97277 27.7196 7.60235V11.7613C27.7196 12.3909 27.2093 12.9013 26.5797 12.9013H25.6091V28.8553C25.6091 29.4875 25.0966 30 24.4644 30H5.29097C4.65878 30 4.14628 29.4875 4.14628 28.8553V12.9013H3.13993C2.51035 12.9013 2 12.3909 2 11.7613V7.60235C2 6.97277 2.51035 6.46242 3.13993 6.46242H4.8615L7.33273 0L15.5264 3.13322L21.8741 0.416916L24.4612 6.46242ZM23.0172 5.99761L21.2721 1.9196L17.063 3.72076L23.0172 5.99761ZM21.0278 6.46242L7.99307 1.478L6.08702 6.46242H8.15633L7.41218 6.17493L8.03091 4.57327L9.63258 5.192L9.14183 6.46242H21.0278ZM13.6509 23.8702L20.7392 18.576C21.2457 18.1977 21.3496 17.4804 20.9714 16.9739C20.593 16.4673 19.8757 16.3635 19.3693 16.7417L13.1348 21.3981L10.5694 18.4128C10.1573 17.9334 9.43458 17.8787 8.95514 18.2907C8.47566 18.7028 8.421 19.4255 8.83305 19.905L12.0683 23.6697C12.0897 23.6943 12.112 23.718 12.1353 23.7407C12.3569 23.9749 12.6601 24.0978 12.9668 24.0978C13.2134 24.0979 13.4535 24.0181 13.6509 23.8702ZM4.28937 10.6119H25.4303V8.75179H4.28937V10.6119ZM10.4417 3.14656L8.8401 2.52775L8.22125 4.12934L9.82288 4.74819L10.4417 3.14656Z" fill="#333333"/>
</svg>
