<svg width="28" height="28" viewBox="0 0 28 28" fill="none" xmlns="http://www.w3.org/2000/svg">
<path d="M19.5986 24.7533H6.39659C4.38619 24.7533 2.75659 23.1237 2.75659 21.1133V7.31212C2.75659 5.30172 4.38619 3.67212 6.39659 3.67212H20.1586C22.169 3.67212 23.7986 5.30172 23.7986 7.31212V20.5547C23.7986 22.8731 21.9184 24.7533 19.5986 24.7533Z" fill="#8DADF9"/>
<path d="M12.6896 19.9429C12.6896 20.7859 12.8556 21.6206 13.1782 22.3994C13.5008 23.1782 13.9736 23.8858 14.5697 24.4818C15.1657 25.0779 15.8733 25.5507 16.6521 25.8733C17.4309 26.1959 18.2656 26.3619 19.1086 26.3619C19.9515 26.3619 20.7862 26.1959 21.565 25.8733C22.3438 25.5507 23.0514 25.0779 23.6475 24.4818C24.2436 23.8858 24.7164 23.1782 25.039 22.3994C25.3615 21.6206 25.5276 20.7859 25.5276 19.9429C25.5276 18.2405 24.8513 16.6078 23.6475 15.404C22.4437 14.2002 20.811 13.5239 19.1086 13.5239C17.4062 13.5239 15.7735 14.2002 14.5697 15.404C13.3659 16.6078 12.6896 18.2405 12.6896 19.9429Z" fill="#8DADF9"/>
<path d="M23.7986 20.7173V15.5611C22.6268 14.3081 20.9594 13.5227 19.1086 13.5227C15.5624 13.5227 12.6896 16.3969 12.6896 19.9417C12.6896 21.8583 13.531 23.5775 14.8624 24.7535H19.761C21.9912 24.7535 23.7986 22.9461 23.7986 20.7173Z" fill="#5276E4"/>
<path d="M8.53302 6.30408C7.93802 6.30408 7.45642 5.82248 7.45642 5.22748V2.67108C7.45642 2.07608 7.93802 1.59448 8.53302 1.59448C9.12802 1.59448 9.60962 2.07608 9.60962 2.67108V5.22748C9.60962 5.82108 9.12662 6.30408 8.53302 6.30408ZM18.123 6.30408C17.528 6.30408 17.0464 5.82248 17.0464 5.22748V2.67108C17.0464 2.07608 17.528 1.59448 18.123 1.59448C18.718 1.59448 19.1996 2.07608 19.1996 2.67108V5.22748C19.1996 5.82108 18.7166 6.30408 18.123 6.30408Z" fill="#8DADF9"/>
<path d="M7.45642 3.67212V5.22752C7.45642 5.82252 7.93802 6.30412 8.53302 6.30412C9.12802 6.30412 9.60962 5.82252 9.60962 5.22752V3.67212H7.45642ZM17.0464 3.67212V5.22752C17.0464 5.82252 17.528 6.30412 18.123 6.30412C18.718 6.30412 19.1996 5.82252 19.1996 5.22752V3.67212H17.0464Z" fill="#8DADF9"/>
<path d="M20.797 10.1514H5.75818C5.13938 10.1514 4.63818 9.65018 4.63818 9.03138C4.63818 8.41258 5.13938 7.91138 5.75818 7.91138H20.797C21.4158 7.91138 21.917 8.41258 21.917 9.03138C21.917 9.65018 21.4158 10.1514 20.797 10.1514ZM7.57398 15.3048H5.75818C5.13938 15.3048 4.63818 14.8036 4.63818 14.1848C4.63818 13.566 5.13938 13.0648 5.75818 13.0648H7.57398C8.19278 13.0648 8.69398 13.566 8.69398 14.1848C8.69398 14.8036 8.19278 15.3048 7.57398 15.3048ZM12.7736 15.3048H10.9578C10.339 15.3048 9.83778 14.8036 9.83778 14.1848C9.83778 13.566 10.339 13.0648 10.9578 13.0648H12.7736C13.3924 13.0648 13.8936 13.566 13.8936 14.1848C13.8936 14.8036 13.3924 15.3048 12.7736 15.3048ZM21.0602 23.5158C20.7732 23.5158 20.4876 23.4066 20.2678 23.1882L18.1188 21.0392C18.0147 20.9351 17.9323 20.8116 17.876 20.6756C17.8198 20.5396 17.791 20.3939 17.7912 20.2468V17.5252C17.7912 16.9064 18.2924 16.4052 18.9112 16.4052C19.53 16.4052 20.0312 16.9064 20.0312 17.5252V19.7834L21.8526 21.6048C22.2894 22.0416 22.2894 22.7514 21.8526 23.1882C21.7486 23.2923 21.625 23.3748 21.4891 23.431C21.3531 23.4872 21.2073 23.516 21.0602 23.5158Z" fill="white"/>
</svg>
