<svg width="30" height="30" viewBox="0 0 30 30" fill="none" xmlns="http://www.w3.org/2000/svg">
<path d="M6.87758 0C10.6759 0 13.7514 3.07914 13.7514 6.87383V13.314C13.7514 13.5525 13.5562 13.7477 13.3177 13.7477H6.87758C3.07926 13.7477 0.00372323 10.6685 0.00372323 6.87383C0.00372323 3.06829 3.0684 0 6.87758 0ZM6.93901 16.2485H13.3177C13.5562 16.2485 13.7514 16.4437 13.7514 16.6822V23.0609C13.7514 26.8701 10.6325 30.0251 6.82337 29.9962C3.0684 29.9673 0.0290447 26.9279 0.000151787 23.173C-0.0252054 19.3674 3.12987 16.2485 6.93901 16.2485ZM23.1261 0C26.9172 0 29.9927 3.07189 30 6.863C30.0072 10.6505 26.8558 13.7513 23.0647 13.7513H16.6859C16.4474 13.7513 16.2523 13.5561 16.2523 13.3176V6.87743C16.2523 3.07914 19.3278 0 23.1261 0ZM16.6859 16.2485H23.0647C26.8738 16.2485 30.0288 19.3674 30 23.1766C29.971 26.9315 26.9317 29.9709 23.1767 29.9998C19.3676 30.0287 16.2487 26.8737 16.2487 23.0645V16.6822C16.2523 16.4437 16.4474 16.2485 16.6859 16.2485Z" fill="#333333"/>
</svg>
