<svg width="30" height="30" viewBox="0 0 30 30" fill="none" xmlns="http://www.w3.org/2000/svg">
<g clip-path="url(#clip0_45_22)">
<path d="M17.8363 0.861508C17.8502 0.930699 17.8571 1.00109 17.8571 1.07165V28.9286C17.8571 29.5203 17.3775 30 16.7857 30C16.7152 30 16.6448 29.993 16.5756 29.9792L1.72261 27.0086C0.721 26.8082 0 25.9288 0 24.9074V5.09286C0 4.0714 0.721 3.19194 1.72261 2.99161L16.5756 0.0210082C17.1558 -0.0950275 17.7203 0.281294 17.8363 0.861508ZM26.7143 3.92858C28.5108 3.92858 29.9705 5.37036 29.9996 7.15997L30 7.21429V22.7857C30 24.5822 28.5582 26.042 26.7686 26.071L26.7143 26.0714H21.1428C20.5117 26.0714 20 25.5598 20 24.9286C20 24.3037 20.5015 23.796 21.1239 23.7859L21.1428 23.7857H26.7143C27.2611 23.7857 27.7053 23.3469 27.7141 22.8023L27.7143 22.7857V7.21429C27.7143 6.66751 27.2755 6.22326 26.7308 6.21444L26.7143 6.21429H21.1428C20.5117 6.21429 20 5.70261 20 5.07144C20 4.44658 20.5015 3.93883 21.1239 3.92858H26.7143ZM10.75 18.3571H3.89286C3.41946 18.3571 3.03571 18.7409 3.03571 19.2143C3.03571 19.6829 3.41182 20.0638 3.87868 20.0713L3.89286 20.0714H10.75C11.2234 20.0714 11.6071 19.6877 11.6071 19.2143C11.6071 18.7409 11.2234 18.3571 10.75 18.3571ZM13.9643 14.1429H3.89286C3.41946 14.1429 3.03571 14.5266 3.03571 15C3.03571 15.4686 3.41182 15.8495 3.87868 15.857L3.89286 15.8571H13.9643C14.4377 15.8571 14.8214 15.4734 14.8214 15C14.8214 14.5266 14.4377 14.1429 13.9643 14.1429ZM12.1786 9.92858H3.89286C3.41946 9.92858 3.03571 10.3123 3.03571 10.7857C3.03571 11.2544 3.41182 11.6352 3.87868 11.6428L3.89286 11.6429H12.1786C12.652 11.6429 13.0357 11.2591 13.0357 10.7857C13.0357 10.3123 12.652 9.92858 12.1786 9.92858Z" fill="#333333"/>
</g>
<defs>
<clipPath id="clip0_45_22">
<rect width="30" height="30" fill="white"/>
</clipPath>
</defs>
</svg>
