<svg width="30" height="30" viewBox="0 0 30 30" fill="none" xmlns="http://www.w3.org/2000/svg">
<path d="M14.9985 0C17.1663 0 19.6153 2.9616 19.6153 6.32457C19.6153 7.7336 19.5713 8.5275 19.3809 9.40632C23.4089 9.51178 26.1654 9.50883 27.3372 9.81644C29.1768 10.3408 29.9971 11.8524 30 13.0387C30.0029 21.2645 26.9446 27.1028 26.3207 28.1926C25.685 29.417 24.525 30 22.9636 30H17.8401C15.23 30 12.7166 29.4639 12.239 29.3555C10.0185 28.8458 8.97859 28.5968 8.43959 28.4621C8.42203 28.4562 8.41325 28.4533 8.39568 28.4503C8.36981 28.4437 8.34535 28.4375 8.3222 28.4316C8.37169 22.8326 8.42853 14.5297 8.43586 9.5942C8.43613 9.59406 8.4364 9.59393 8.43666 9.59379C11.5828 7.93868 12.1658 4.67825 12.1863 2.79171C12.2068 1.25086 13.4665 0 14.9985 0Z" fill="#333333"/>
<path d="M5.62448 9.37406C5.94627 9.37406 6.26433 9.4428 6.56191 9.55828V29.8296C6.2708 29.9377 5.95576 29.9971 5.62448 29.9971H2.81222C1.26258 29.9971 0 28.7345 0 27.1849V12.1863C4.14449e-06 10.6366 1.26258 9.37406 2.81222 9.37406H5.62448Z" fill="#333333"/>
</svg>
