<svg width="30" height="30" viewBox="0 0 30 30" fill="none" xmlns="http://www.w3.org/2000/svg">
<path d="M30 9.34162C30 7.35742 28.3915 5.74893 26.4073 5.74893C24.4232 5.74893 22.8147 7.35742 22.8147 9.34162C22.8147 10.5447 23.4061 11.6096 24.3141 12.2616C23.6597 13.9943 22.7114 15.4335 20.8241 15.4335C18.6014 15.4335 16.9958 13.0945 16.2964 10.9597L16.3416 8.92256C17.6564 8.38872 18.5837 7.0991 18.5837 5.59269C18.5837 3.60849 16.9752 2 14.991 2C13.0069 2 11.3983 3.60852 11.3983 5.59272C11.3983 7.10949 12.3383 8.40664 13.6675 8.93367L13.7147 11.0604C13.0007 13.1674 11.444 15.4335 9.25612 15.4335C7.35208 15.4335 6.4039 13.9687 5.74887 12.2154C6.62112 11.5599 7.18531 10.5167 7.18531 9.34162C7.18531 7.35742 5.57682 5.74893 3.59265 5.74893C1.60849 5.74893 0 7.35742 0 9.34162C0 11.1828 1.38509 12.7002 3.1701 12.9094L7.64946 26.6352C7.86978 27.2014 8.07476 27.6442 8.59939 27.6442H21.459C21.9836 27.6442 22.1886 27.2383 22.4665 26.6352L26.9152 12.8984C28.6588 12.6516 30 11.1534 30 9.34162Z" fill="#333333"/>
</svg>
