<svg width="30" height="30" viewBox="0 0 30 30" fill="none" xmlns="http://www.w3.org/2000/svg">
<path d="M13.5762 11.7941C13.5762 11.0099 14.2073 10.3794 14.9923 10.3794C15.7773 10.3794 16.4084 11.0099 16.4084 11.7941C16.4084 12.5784 15.7773 13.2088 14.9923 13.2088C14.2073 13.2088 13.5762 12.5784 13.5762 11.7941Z" fill="#333333"/>
<path fill-rule="evenodd" clip-rule="evenodd" d="M18.7019 8.61112L15.8851 6.98116C15.6388 7.15031 15.3309 7.24257 15.0231 7.24257C14.6998 7.24257 14.4074 7.15031 14.1457 6.98116L11.2673 8.64188C11.1904 9.14932 10.8671 9.57987 10.4207 9.79515V13.6855C10.8979 13.9162 11.2365 14.3929 11.2827 14.9464L14.1611 16.6072C14.4074 16.438 14.7152 16.3457 15.0231 16.3457C15.3463 16.3457 15.6388 16.438 15.8851 16.6072L18.6865 14.9926C18.7327 14.4082 19.1021 13.9008 19.6101 13.6701V9.8259C19.1329 9.61063 18.7789 9.16469 18.7019 8.61112ZM14.9923 14.5313C13.4838 14.5313 12.2524 13.3011 12.2524 11.7942C12.2524 10.2872 13.4838 9.05706 14.9923 9.05706C16.5008 9.05706 17.7322 10.2872 17.7322 11.7942C17.7322 13.3011 16.5008 14.5313 14.9923 14.5313Z" fill="#333333"/>
<path fill-rule="evenodd" clip-rule="evenodd" d="M1.8471 0H28.1529C29.1688 0 29.9846 0.830357 30 1.84524V21.7584C29.9846 22.7579 29.1688 23.5883 28.1529 23.5883H1.8471C0.831196 23.5883 0 22.7733 0 21.7584V1.84524C0 0.830357 0.831196 0 1.8471 0ZM20.2719 16.6687C21.1339 16.6687 21.842 15.9613 21.842 15.1002C21.842 14.5159 21.5033 13.9931 21.0262 13.7316V9.77976C21.5187 9.51835 21.842 8.99553 21.842 8.41121C21.842 7.5501 21.1339 6.84276 20.2719 6.84276C19.8409 6.84276 19.4561 6.99653 19.1791 7.27331L16.5931 5.78175V5.68948C16.5931 4.82837 15.8851 4.12103 15.0231 4.12103C14.1611 4.12103 13.4531 4.82837 13.4531 5.68948V5.78175L10.8209 7.30407C10.5439 7.0119 10.1437 6.84276 9.71267 6.84276C8.85069 6.84276 8.14264 7.5501 8.14264 8.41121C8.14264 9.02629 8.49667 9.54911 9.02001 9.81052V13.7009C8.49667 13.9469 8.14264 14.4851 8.14264 15.1002C8.14264 15.9613 8.85069 16.6687 9.71267 16.6687C10.1129 16.6687 10.4823 16.5149 10.7594 16.2688L13.4531 17.8219V17.9142C13.4531 18.7753 14.1611 19.4826 15.0231 19.4826C15.8851 19.4826 16.5931 18.7753 16.5931 17.9142V17.8065L19.2406 16.2842C19.5177 16.5303 19.8717 16.6687 20.2719 16.6687Z" fill="#333333"/>
<path d="M3.57143 27.1429C2.78245 27.1429 2.14286 27.7825 2.14286 28.5714C2.14286 29.3604 2.78245 30 3.57143 30H26.4286C27.2176 30 27.8571 29.3604 27.8571 28.5714C27.8571 27.7825 27.2176 27.1429 26.4286 27.1429H3.57143Z" fill="#333333"/>
</svg>
