<svg width="30" height="30" viewBox="0 0 30 30" fill="none" xmlns="http://www.w3.org/2000/svg">
<g clip-path="url(#clip0_45_76)">
<path d="M30 3.82143H18.25V5.82143H27.3214V7.07143H18.25V9.14286H27.3214V10.3929H18.25V12.3929H27.3214V13.6429H18.25V15.6786H27.3214V16.9286H18.25V18.9286H27.3214V20.1786H18.25V22.2143H27.3214V23.4643H18.25V26.1071H30V3.82143ZM0 3.14625V26.7074L16.8929 30V0L0 3.14625ZM11.4661 20.4852L9.06132 20.2325L7.55757 13.7775L6.16739 19.9285L4.21046 19.7229L2.02279 10.8647L3.78271 10.6798L5.16371 16.6219L6.51471 10.3927L8.67425 10.1658L10.1988 16.7863L12.0719 9.80886L14.8701 9.51482L11.4661 20.4852Z" fill="#4C83E5"/>
</g>
<defs>
<clipPath id="clip0_45_76">
<rect width="30" height="30" fill="white"/>
</clipPath>
</defs>
</svg>
