<svg width="30" height="30" viewBox="0 0 30 30" fill="none" xmlns="http://www.w3.org/2000/svg">
<path d="M0 2.81071C0 1.25839 1.25871 0 2.81143 0H20.6171C22.1699 0 23.4286 1.25839 23.4286 2.81071V12.0914L23.5052 14.5448C23.3733 14.5387 23.2405 14.5357 23.1071 14.5357C18.3733 14.5357 14.5357 18.3733 14.5357 23.1071C14.5357 24.9731 15.132 26.6998 16.1444 28.1071H2.81143C1.25871 28.1071 0 26.8487 0 25.2964V2.81071ZM4.92 5.27011C4.27304 5.27011 3.74857 5.79443 3.74857 6.44121C3.74857 7.08804 4.27304 7.61236 4.92 7.61236H16.6343C17.2812 7.61236 17.8057 7.08804 17.8057 6.44121C17.8057 5.79443 17.2812 5.27011 16.6343 5.27011H4.92ZM14.2914 10.4231H4.92C4.27304 10.4231 3.74857 10.9474 3.74857 11.5942C3.74857 12.241 4.27304 12.7653 4.92 12.7653H14.2914C14.9384 12.7653 15.4629 12.241 15.4629 11.5942C15.4629 10.9474 14.9384 10.4231 14.2914 10.4231ZM4.92 15.576C4.27304 15.576 3.74857 16.1004 3.74857 16.7472C3.74857 17.394 4.27304 17.9183 4.92 17.9183H11.9486C12.5955 17.9183 13.12 17.394 13.12 16.7472C13.12 16.1004 12.5955 15.576 11.9486 15.576H4.92ZM23.1071 30C26.914 30 30 26.914 30 23.1071C30 19.3003 26.914 16.2143 23.1071 16.2143C19.3003 16.2143 16.2143 19.3003 16.2143 23.1071C16.2143 26.914 19.3003 30 23.1071 30ZM19.146 20.7531L25.4612 27.0683C24.7722 27.4786 23.9672 27.7143 23.1071 27.7143C20.5627 27.7143 18.5 25.6516 18.5 23.1071C18.5 22.2471 18.7357 21.442 19.146 20.7531ZM27.7143 23.1071C27.7143 23.9625 27.4812 24.7634 27.0751 25.4497L20.7645 19.1392C21.4509 18.7331 22.2518 18.5 23.1071 18.5C25.6516 18.5 27.7143 20.5627 27.7143 23.1071Z" fill="#333333"/>
</svg>
