<svg width="30" height="30" viewBox="0 0 30 30" fill="none" xmlns="http://www.w3.org/2000/svg">
<path d="M14.9991 4C21.0041 4 26.0044 7.57143 30 14.7143L29.8798 14.9275C25.9043 21.9282 20.944 25.4286 14.9991 25.4286C9.05429 25.4286 4.09464 21.9282 0.120143 14.9275L0 14.7143C3.99454 7.57143 8.99425 4 14.9991 4ZM15 7.57143C11.0551 7.57143 7.85714 10.7694 7.85714 14.7143C7.85714 18.6592 11.0551 21.8571 15 21.8571C18.9449 21.8571 22.1429 18.6592 22.1429 14.7143C22.1429 10.7694 18.9449 7.57143 15 7.57143ZM15 10.4286C17.3669 10.4286 19.2857 12.3474 19.2857 14.7143C19.2857 17.0812 17.3669 19 15 19C12.6331 19 10.7143 17.0812 10.7143 14.7143C10.7143 12.3474 12.6331 10.4286 15 10.4286Z" fill="#333333"/>
</svg>
