<svg width="30" height="30" viewBox="0 0 30 30" fill="none" xmlns="http://www.w3.org/2000/svg">
<g clip-path="url(#clip0_45_41)">
<path fill-rule="evenodd" clip-rule="evenodd" d="M10.2955 11.5839C9.02296 10.3114 8.30804 8.5854 8.30804 6.78571C8.30804 4.98603 9.02296 3.26006 10.2955 1.98749C11.5681 0.714921 13.2941 0 15.0938 0C16.8934 0 18.6194 0.714921 19.892 1.98749C21.1645 3.26006 21.8795 4.98603 21.8795 6.78571C21.8795 8.5854 21.1645 10.3114 19.892 11.5839C18.6194 12.8565 16.8934 13.5714 15.0938 13.5714C13.2941 13.5714 11.5681 12.8565 10.2955 11.5839ZM10.0223 16.4422C10.0223 15.7979 10.1285 15.18 10.3235 14.6071C5.64671 15.7997 2.32471 18.7974 2.23832 23.0587H2.23661V23.8929H27.9509V23.0587H27.9492C27.863 18.8093 24.5594 15.8165 19.9033 14.6173C20.0959 15.1873 20.2009 15.8018 20.2009 16.4422C20.2009 19.2083 18.2431 21.4889 15.7184 21.8073L17.308 14.678H12.8795L14.468 21.8026C11.9611 21.4667 10.0223 19.1949 10.0223 16.4422ZM30.0938 26.7857C30.0938 25.7995 29.2943 25 28.308 25H1.87946C0.89325 25 0.09375 25.7995 0.09375 26.7857C0.09375 27.7719 0.89325 28.5714 1.87946 28.5714H2.95089V30H27.2366V28.5714H28.308C29.2943 28.5714 30.0938 27.7719 30.0938 26.7857Z" fill="#333333"/>
</g>
<defs>
<clipPath id="clip0_45_41">
<rect width="30" height="30" fill="white"/>
</clipPath>
</defs>
</svg>
