<svg width="30" height="30" viewBox="0 0 30 30" fill="none" xmlns="http://www.w3.org/2000/svg">
<path d="M19.2003 1.99699C20.2728 0.0924708 22.6483 -0.565426 24.4983 0.529641C26.3484 1.62475 26.9804 4.06287 25.9079 5.96736C25.0524 7.48646 23.3592 8.26985 21.7529 7.90148L20.1144 10.8112C22.0588 12.6473 22.5215 15.6447 21.203 17.9859C20.9245 18.4805 20.5544 18.8866 20.0966 19.3522L21.7177 22.2131C22.6587 22.0122 23.6055 22.17 24.4541 22.6724C24.9003 22.9364 25.5363 23.3729 25.8892 24.1128C26.4176 25.0507 26.5387 26.1801 26.2216 27.2085C25.9162 28.2311 25.2198 29.0393 24.2621 29.4916C22.9961 30.181 21.585 30.1679 20.3901 29.4606C19.9409 29.1947 19.3066 28.755 18.9506 28.0133C18.1618 26.4888 18.373 24.6439 19.476 23.3869L17.8872 20.5795C16.4049 21.1066 14.7576 20.9366 13.3537 20.1056C12.0309 19.3226 11.0447 17.9124 10.6997 16.3165L7.52083 16.3105C6.96852 18.0004 5.51569 19.1103 3.87431 19.0851L3.86314 19.0827C3.47322 19.066 2.70357 18.9702 1.95796 18.5288C0.713144 17.792 -0.0374346 16.4656 0.00144016 15.0669C4.79506e-05 14.0426 0.423101 13.0255 1.16297 12.273C1.91683 11.5031 2.88913 11.0766 3.90359 11.0776L3.92461 11.0772C4.41064 11.1079 5.14165 11.228 5.83736 11.6399C6.63292 12.1108 7.27883 12.9213 7.58776 13.8279L10.7957 13.8339C10.9034 13.2511 11.1112 12.6975 11.4223 12.1451C12.0661 11.0018 13.0953 10.1122 14.3224 9.63955C15.5132 9.17965 16.824 9.14192 18.0271 9.52434L19.6476 6.6467C18.5508 5.32944 18.3683 3.47433 19.2003 1.99699ZM4.41285 20.6839C4.7619 20.0641 5.4519 19.873 6.05401 20.2294L6.34727 20.403L6.49923 20.6428C8.44054 24.2499 12.4365 26.6238 16.4442 26.5466L16.4733 26.5467L16.755 26.5635L17.0576 26.7426C17.7003 27.1231 17.7818 27.9164 17.4955 28.4321C17.3599 28.673 17.0557 28.9768 16.3817 29.0361L16.3607 29.0365C13.9468 29.0978 11.5442 28.4594 9.41031 27.1962C7.28258 25.9368 5.54693 24.1215 4.39307 21.9526L4.3829 21.9337C4.1887 21.5104 4.19763 21.0661 4.41285 20.6839ZM26.399 7.41395C26.7194 7.24392 27.0422 7.19517 27.3329 7.27733L27.3534 7.2852C27.4721 7.32546 27.5618 7.36572 27.6367 7.41004C27.8114 7.51346 27.9652 7.66872 28.0763 7.86295C30.6121 12.1945 30.6423 17.6293 28.1586 22.0471L27.9789 22.4033L27.9509 22.4381C27.5374 22.9213 26.8782 23.0578 26.3852 22.766L26.2854 22.7069L26.2622 22.6889C25.9667 22.4455 25.7938 22.1247 25.7606 21.7625C25.7337 21.4854 25.8113 21.2145 25.9994 20.9618L26.0681 20.8397C28.1154 17.2042 28.0891 12.7008 25.998 9.08644L25.9701 9.03996C25.8132 8.80148 25.7568 8.50265 25.8199 8.20595C25.8795 7.88586 26.0857 7.60105 26.3824 7.42127L26.399 7.41395ZM17.9596 12.1779C16.4121 11.2619 14.4211 11.8133 13.5289 13.405C12.6318 14.9979 13.1603 17.0364 14.7077 17.9524C16.2552 18.8683 18.2413 18.3183 19.1384 16.7253C20.0354 15.1323 19.507 13.0938 17.9596 12.1779ZM16.6003 0.984453C16.8075 0.978597 17.0223 1.03295 17.2033 1.14003C17.2968 1.19544 17.3998 1.25642 17.4899 1.36969C17.6996 1.61567 17.816 1.93078 17.8178 2.25746C17.8238 2.58648 17.7003 2.8945 17.4694 3.13462C17.2354 3.37295 16.9237 3.50537 16.5878 3.5035C12.4861 3.45219 8.66883 5.68042 6.6215 9.31602L6.53654 9.46695C6.40492 9.77446 6.14908 9.99983 5.83187 10.0904C5.56342 10.1756 5.23343 10.1558 4.90316 10.0332L4.87146 10.023L4.8434 10.0063C4.35359 9.71641 4.13337 9.08076 4.31714 8.49585L4.329 8.46002L4.54058 8.08426C7.01117 3.69722 11.6302 0.975779 16.6003 0.984453Z" fill="#333333"/>
</svg>
