<svg width="30" height="30" viewBox="0 0 30 30" fill="none" xmlns="http://www.w3.org/2000/svg">
<path d="M21.1429 3.21429H9.42857C8.79739 3.21429 8.28571 3.72596 8.28571 4.35714V22.7857C8.28571 23.4169 8.79739 23.9286 9.42857 23.9286H21.1429C21.774 23.9286 22.2857 23.4169 22.2857 22.7857V4.35714C22.2857 3.72596 21.774 3.21429 21.1429 3.21429ZM17.2857 1.35714C17.2857 1.2 17.1357 1.07143 16.9524 1.07143H13.619C13.4357 1.07143 13.2857 1.2 13.2857 1.35714V1.64286C13.2857 1.8 13.4357 1.92857 13.619 1.92857H16.9524C17.1357 1.92857 17.2857 1.8 17.2857 1.64286V1.35714ZM15.3036 28.0357C16.0402 28.0357 16.6429 27.433 16.6429 26.6964C16.6429 25.9598 16.0402 25.3571 15.3036 25.3571C14.5669 25.3571 13.9643 25.9598 13.9643 26.6964C13.9643 27.433 14.567 28.0357 15.3036 28.0357ZM22.7143 30H7.85714C6.83571 30 6 29.1 6 28V2C6 0.9 6.83571 0 7.85714 0H22.7143C23.7357 0 24.5714 0.9 24.5714 2V28C24.5714 29.1 23.7357 30 22.7143 30Z" fill="#333333"/>
</svg>
