<svg width="30" height="30" viewBox="0 0 30 30" fill="none" xmlns="http://www.w3.org/2000/svg">
<path d="M17.3573 12.2618C16.7318 12.898 15.8834 13.2555 14.9987 13.2555C14.1141 13.2555 13.2657 12.898 12.6402 12.2618L11.4612 11.0616L13.8192 8.66304L10.167 4.94811C10.0903 4.8695 9.9986 4.80704 9.89735 4.76439C9.79611 4.72174 9.68736 4.69977 9.5775 4.69977C9.46764 4.69977 9.35889 4.72174 9.25765 4.76439C9.1564 4.80704 9.06471 4.8695 8.98796 4.94811L1.91271 12.1446C1.58718 12.4759 1.58718 13.0127 1.91271 13.3439L14.4088 26.0553C14.4855 26.1339 14.5772 26.1964 14.6785 26.239C14.7797 26.2817 14.8884 26.3036 14.9983 26.3036C15.1082 26.3036 15.2169 26.2817 15.3181 26.239C15.4194 26.1964 15.5111 26.1339 15.5878 26.0553L16.1783 25.4557L14.4088 23.6567C14.1924 23.4437 14.1057 23.1285 14.1821 22.8322C14.2584 22.5359 14.4859 22.3045 14.7772 22.2269C15.0685 22.1492 15.3784 22.2373 15.5878 22.4575L17.3573 24.2555L18.5364 23.0571L16.7678 21.2573C16.5511 21.0443 16.4642 20.729 16.5406 20.4325C16.6169 20.1361 16.8445 19.9045 17.136 19.8269C17.4275 19.7492 17.7374 19.8376 17.9468 20.058L19.7154 21.8569L20.8945 20.6576L19.1267 18.8587C18.9049 18.647 18.814 18.3293 18.8896 18.0296C18.9651 17.7299 19.1951 17.4959 19.4896 17.4188C19.7842 17.3418 20.0967 17.434 20.3049 17.6594L22.0744 19.4584L22.6639 18.8587C22.9894 18.5275 22.9894 17.9906 22.6639 17.6594L17.3573 12.2618V12.2618ZM23.8429 20.058L16.7678 27.2546C16.2986 27.7319 15.6623 28 14.9988 28C14.3352 28 13.6989 27.7319 13.2298 27.2546L0.732857 14.5441C0.263571 14.0669 0 13.4196 0 12.7448C0 12.0698 0.263607 11.4226 0.732857 10.9454L7.80893 3.74882C8.03917 3.51301 8.31424 3.32563 8.61796 3.19769C8.92169 3.06975 9.24793 3.00385 9.5775 3.00385C9.90707 3.00385 10.2333 3.06975 10.537 3.19769C10.8408 3.32563 11.1158 3.51301 11.3461 3.74882L14.9984 7.46371L18.6539 3.74543C19.1231 3.26814 19.7594 3 20.4229 3C21.0865 3 21.7228 3.26814 22.192 3.74543L29.2671 10.942C29.7364 11.4192 30 12.0664 30 12.7413C30 13.4162 29.7364 14.0635 29.2671 14.5407L23.843 20.058H23.8429Z" fill="#333333"/>
</svg>
