<svg width="30" height="30" viewBox="0 0 30 30" fill="none" xmlns="http://www.w3.org/2000/svg">
<g clip-path="url(#clip0_1509_91)">
<path d="M23.6817 14.1472L15.8168 6.27133L0 22.1102V29.9629L7.90839 30L23.6817 14.1472ZM24.0313 0.502978L24.0297 0.501335H24.0297C23.3598 -0.167736 22.2744 -0.167022 21.6053 0.502942L16.8944 5.22044L24.7846 13.1215L29.4987 8.40087C30.1671 7.73155 30.1671 6.6473 29.4987 5.97794L24.0313 0.502942V0.502978ZM17 30C18.1835 30 19.1429 29.0406 19.1429 27.8571C19.1429 26.6737 18.1835 25.7143 17 25.7143C15.8165 25.7143 14.8571 26.6737 14.8571 27.8571C14.8571 29.0406 15.8165 30 17 30ZM22.4286 30C23.612 30 24.5714 29.0406 24.5714 27.8571C24.5714 26.6737 23.612 25.7143 22.4286 25.7143C21.2451 25.7143 20.2857 26.6737 20.2857 27.8571C20.2857 29.0406 21.2451 30 22.4286 30ZM30 27.8571C30 29.0406 29.0406 30 27.8571 30C26.6737 30 25.7143 29.0406 25.7143 27.8571C25.7143 26.6737 26.6737 25.7143 27.8571 25.7143C29.0406 25.7143 30 26.6737 30 27.8571Z" fill="#333333"/>
</g>
<defs>
<clipPath id="clip0_1509_91">
<rect width="30" height="30" fill="white"/>
</clipPath>
</defs>
</svg>
