<svg width="30" height="30" viewBox="0 0 30 30" fill="none" xmlns="http://www.w3.org/2000/svg">
<g clip-path="url(#clip0_45_63)">
<path d="M0 15C0 18.9782 1.58035 22.7936 4.3934 25.6066C7.20644 28.4196 11.0218 30 15 30C18.9782 30 22.7936 28.4196 25.6066 25.6066C28.4196 22.7936 30 18.9782 30 15C30 11.0218 28.4196 7.20644 25.6066 4.3934C22.7936 1.58035 18.9782 0 15 0C11.0218 0 7.20644 1.58035 4.3934 4.3934C1.58035 7.20644 0 11.0218 0 15H0Z" fill="#66CCFF"/>
<path fill-rule="evenodd" clip-rule="evenodd" d="M17.3614 9.88589H12.6386C12.3017 9.88589 12.0291 9.61289 12.0291 9.27603V7.46661C12.0291 7.13018 12.3017 6.85718 12.6386 6.85718H17.3614C17.6983 6.85718 17.9709 7.13018 17.9709 7.46661V9.27603C17.9709 9.61289 17.6983 9.88589 17.3614 9.88589ZM11.6096 19.3526C11.2727 19.3526 11.0001 19.0796 11.0001 18.7428H11.0006C11.0006 18.4063 11.2731 18.1333 11.61 18.1333H18.39C18.5517 18.1333 18.7067 18.1976 18.8211 18.3119C18.9354 18.4262 18.9996 18.5813 18.9996 18.743C18.9996 18.9047 18.9354 19.0597 18.8211 19.174C18.7067 19.2884 18.5517 19.3526 18.39 19.3526H11.6096ZM11.61 19.7906H18.39C18.5516 19.7906 18.7066 19.8548 18.8209 19.9691C18.9352 20.0834 18.9994 20.2384 18.9994 20.4C18.9994 20.5617 18.9352 20.7167 18.8209 20.831C18.7066 20.9453 18.5516 21.0095 18.39 21.0095H11.61C11.4484 21.0095 11.2934 20.9453 11.1791 20.831C11.0648 20.7167 11.0006 20.5617 11.0006 20.4C11.0006 20.2384 11.0648 20.0834 11.1791 19.9691C11.2934 19.8548 11.4484 19.7906 11.61 19.7906ZM14.3906 12.267L12.675 13.9826C12.6184 14.0392 12.5512 14.0841 12.4772 14.1147C12.4032 14.1453 12.324 14.1611 12.2439 14.161C12.1639 14.161 12.0846 14.1452 12.0107 14.1146C11.9367 14.0839 11.8695 14.039 11.8129 13.9824C11.7563 13.9258 11.7114 13.8586 11.6808 13.7846C11.6502 13.7106 11.6345 13.6314 11.6345 13.5513C11.6345 13.4713 11.6503 13.392 11.6809 13.318C11.7116 13.2441 11.7565 13.1769 11.8131 13.1203L14.139 10.7949C14.3676 10.5669 14.6772 10.4389 15 10.4389C15.3228 10.4389 15.6324 10.5669 15.861 10.7949L18.1869 13.1203C18.2435 13.1769 18.2884 13.2441 18.3191 13.3181C18.3498 13.3921 18.3656 13.4714 18.3656 13.5515C18.3656 13.6315 18.3498 13.7108 18.3191 13.7848C18.2884 13.8588 18.2435 13.926 18.1869 13.9826C18.0677 14.1013 17.9117 14.1609 17.7557 14.1609C17.5997 14.1609 17.4437 14.1013 17.3246 13.9826L15.6094 12.2675V16.8189C15.6094 16.9805 15.5452 17.1355 15.4309 17.2498C15.3166 17.3641 15.1616 17.4283 15 17.4283C14.8384 17.4283 14.6834 17.3641 14.5691 17.2498C14.4548 17.1355 14.3906 16.9805 14.3906 16.8189V12.267ZM18.5811 7.63804H20.1223C20.582 7.63827 21.0229 7.82088 21.3482 8.14581C21.6734 8.47074 21.8565 8.91144 21.8571 9.37118V21.1243C21.8563 21.584 21.6732 22.0246 21.348 22.3494C21.0228 22.6743 20.582 22.8568 20.1223 22.857H9.87771C9.41804 22.8568 8.97723 22.6743 8.65199 22.3494C8.32675 22.0246 8.14365 21.584 8.14285 21.1243V9.37118C8.14365 8.91151 8.32675 8.47092 8.65199 8.14609C8.97723 7.82125 9.41804 7.63869 9.87771 7.63847H11.4189V8.85732H9.87771C9.59314 8.85732 9.36171 9.08832 9.36171 9.37161V21.1239C9.36205 21.2605 9.41658 21.3914 9.51332 21.4878C9.61007 21.5842 9.74112 21.6383 9.87771 21.6382H20.1223C20.4069 21.6382 20.6383 21.4072 20.6383 21.1243V9.37161C20.6383 9.0879 20.4069 8.85732 20.1223 8.85732H18.5811V7.63804Z" fill="white"/>
</g>
<defs>
<clipPath id="clip0_45_63">
<rect width="30" height="30" fill="white"/>
</clipPath>
</defs>
</svg>
