<svg width="30" height="30" viewBox="0 0 30 30" fill="none" xmlns="http://www.w3.org/2000/svg">
<path d="M1.69341 12.2934H1.89676L1.78474 12.4054C1.14134 13.057 1.14134 14.1029 1.78474 14.7545L2.93857 15.9167C3.24986 16.2322 3.67313 16.4064 4.11726 16.4064C4.56143 16.4064 4.98471 16.228 5.296 15.9167L5.34588 15.8627V15.9457C5.34588 16.863 6.08881 17.606 7.00614 17.606H8.63309C9.55038 17.606 10.2934 16.863 10.2934 15.9457V15.8087L10.4095 15.925C11.057 16.5725 12.1071 16.5725 12.7545 15.925L13.9375 14.7463C14.2488 14.435 14.4272 14.0115 14.4272 13.5716C14.4272 13.1316 14.2529 12.7083 13.9375 12.397L13.8378 12.2974H13.9831C14.9004 12.2974 15.6433 11.5545 15.6433 10.6372V8.97707C15.6433 8.05978 14.9004 7.31681 13.9831 7.31681H13.9001L13.9706 7.24631C14.6181 6.59879 14.6181 5.54865 13.9706 4.89705L12.796 3.7224C12.1486 3.07492 11.0985 3.07492 10.4469 3.7224L10.3265 3.84279V3.66026C10.3265 2.74293 9.58353 2 8.66624 2H7.00614C6.08881 2 5.34588 2.74293 5.34588 3.66026V3.78474L5.26288 3.70174C4.61536 3.05422 3.56523 3.05422 2.91787 3.70174L1.73489 4.88047C1.4236 5.19176 1.24516 5.61508 1.24516 6.05508C1.24516 6.49497 1.41948 6.91829 1.73489 7.22958L1.81789 7.31273H1.68929C0.771997 7.31273 0.0290277 8.05554 0.0290277 8.97283V10.6331C0.0331523 11.5504 0.776082 12.2934 1.69341 12.2934ZM7.76977 6.68186C9.42166 6.68186 10.7581 8.01838 10.7581 9.67028C10.7581 11.3222 9.42166 12.6587 7.76977 12.6587C6.11788 12.6587 4.78136 11.3222 4.78136 9.67028C4.78136 8.01838 6.11788 6.68186 7.76977 6.68186ZM15.6392 4.49035C15.6392 3.11644 16.7556 2.00004 18.1295 2.00004H27.5097C28.8834 2.00004 30 3.11644 30 4.49035C30 5.86422 28.8834 6.98066 27.5097 6.98066H18.1295C16.7556 6.98066 15.6392 5.86422 15.6392 4.49035ZM30 15.1157C30 16.4896 28.8834 17.606 27.5097 17.606H18.1295C16.7556 17.606 15.6392 16.4896 15.6392 15.1157C15.6392 13.7419 16.7556 12.6253 18.1295 12.6253H27.5097C28.8834 12.6253 30 13.7419 30 15.1157ZM29.9667 25.741C29.9667 27.1149 28.8503 28.2313 27.4764 28.2313H2.49031C1.1164 28.2313 0 27.1149 0 25.741C0 24.3672 1.1164 23.2506 2.49031 23.2506H27.4764C28.8503 23.2506 29.9667 24.3672 29.9667 25.741Z" fill="#333333"/>
</svg>
