<svg width="30" height="30" viewBox="0 0 30 30" fill="none" xmlns="http://www.w3.org/2000/svg">
<path d="M17.9285 0C20.3109 0 22.2466 1.91193 22.2851 4.28511L22.2857 4.35714V9.42857C22.2857 10.0597 21.774 10.5714 21.1428 10.5714C20.518 10.5714 20.0102 10.0699 20.0001 9.44746L20 9.42857V4.35714C20 3.22457 19.091 2.30429 17.9628 2.286L17.9285 2.28571H6.49996C5.36739 2.28571 4.44711 3.19468 4.42882 4.32289L4.42854 4.35714V9.42857C4.42854 10.0597 3.91686 10.5714 3.28568 10.5714C2.66082 10.5714 2.15307 10.0699 2.14282 9.44746V4.35714C2.14282 1.97482 4.05475 0.0390714 6.42793 0.000571438L6.49996 0H17.9285ZM13.6802 8.57143C14.0405 8.57142 14.3965 8.64927 14.7238 8.79965C15.0512 8.95003 15.3422 9.16938 15.5769 9.44268L16.4983 10.5157C16.733 10.789 17.024 11.0083 17.3514 11.1587C17.6787 11.3091 18.0347 11.3869 18.395 11.3869H26.1429V5.14289L26.1427 5.12161C26.1314 4.42136 25.5601 3.85718 24.8572 3.85718H24.3215L24.3073 3.85707C23.8404 3.8495 23.4643 3.46868 23.4643 3.00004C23.4643 2.52664 23.8481 2.14289 24.3215 2.14289H24.8572L24.9068 2.14329C26.5408 2.16979 27.8572 3.50261 27.8572 5.14289V11.3869C29.0406 11.387 30 12.3464 30 13.5298V27.8571C30 29.0406 29.0406 30 27.8571 30H2.14286C0.959393 30 0 29.0406 0 27.8571V13.5298C0 12.3463 0.959393 11.3869 2.14286 11.3869H4.38786C4.9564 11.3869 5.50797 11.1931 5.95157 10.8375L8.09304 9.12082C8.53664 8.76521 9.08821 8.57143 9.65675 8.57143H13.6802ZM16.6786 5.82143C16.6786 5.19025 16.1669 4.67857 15.5357 4.67857H8.89286C8.26168 4.67857 7.75 5.19025 7.75 5.82143C7.75 6.45264 8.26168 6.96429 8.89286 6.96429H15.5357C16.1669 6.96429 16.6786 6.45264 16.6786 5.82143ZM18.4753 18.7926L13.6241 15.201C13.4719 15.0873 13.2908 15.0188 13.1015 15.0033C12.9124 14.988 12.7229 15.0264 12.5547 15.1142C12.3855 15.2026 12.2443 15.3364 12.1469 15.5006C12.0488 15.6659 11.998 15.8549 12.0001 16.0471V23.2386C11.998 23.4308 12.0488 23.6198 12.1469 23.7851C12.2443 23.9493 12.3855 24.0831 12.5547 24.1715C12.7229 24.2593 12.9124 24.2977 13.1015 24.2824C13.2908 24.2669 13.4719 24.1984 13.6241 24.0847L18.4753 20.4931C18.6098 20.3966 18.7191 20.2692 18.7942 20.1217C18.8698 19.9734 18.9092 19.8093 18.9091 19.6429C18.9092 19.4764 18.8698 19.3123 18.7942 19.164C18.7191 19.0165 18.6098 18.8891 18.4753 18.7926Z" fill="#333333"/>
</svg>
