<svg width="30" height="30" viewBox="0 0 30 30" fill="none" xmlns="http://www.w3.org/2000/svg">
<path fill-rule="evenodd" clip-rule="evenodd" d="M0.0625004 10.9732C0.273219 12.6633 1.01676 14.297 2.29313 15.5893L3.878 17.1939L3.86396 17.2081L7.14586 20.5309L7.15928 20.516L7.25303 20.611L7.0643 21.1586C6.84455 21.8747 7.20556 22.6317 7.88051 22.8854C8.0257 22.9386 8.17874 22.9673 8.33178 22.9673C8.6714 22.9673 8.98821 22.8356 9.22725 22.6098L11.4227 24.8325L11.4095 24.8476L14.1865 27.6592C14.4146 27.8901 14.7078 28.0037 15 27.9999C15.2922 28.0037 15.5854 27.8901 15.8135 27.6592L18.5905 24.8476L18.5773 24.8325L20.806 22.5761C21.0385 22.7764 21.3403 22.8977 21.6697 22.8977C22.3996 22.8977 22.9961 22.3003 23 21.5637V20.3832L26.136 17.2081L26.122 17.1939L27.7069 15.5893C30.7644 12.4937 30.7644 7.43856 27.7069 4.34298C24.6494 1.21901 19.6564 1.21901 16.5989 4.34298L15 5.9582L13.4011 4.34298C10.3436 1.21901 5.35063 1.21901 2.29313 4.34298C0.764376 5.89077 0 7.92845 0 9.96614C0 10.3025 0.0208335 10.639 0.0625004 10.9732ZM23 20.3832V8.35038C23 7.61381 22.4035 7.01228 21.6697 7.01228C20.9359 7.01228 20.3395 7.61381 20.3395 8.35038V21.5596C20.3395 21.9655 20.5206 22.3303 20.806 22.5761L22.8407 20.516L22.8541 20.5309L23 20.3832ZM9.22725 22.6098C9.37212 22.4729 9.48842 22.3015 9.56394 22.1038L10.4508 19.5299C10.4704 19.4685 10.5293 19.4276 10.592 19.4276H14.9831C15.0459 19.4276 15.1047 19.4726 15.1244 19.534L15.9602 22.0834C16.1486 22.6317 16.6508 23 17.212 23C17.3611 23 17.5024 22.9754 17.6436 22.9223C18.3264 22.6808 18.7031 21.8951 18.4795 21.1831L14.1355 7.93709C13.955 7.38056 13.4527 7.00409 12.8798 7C12.3186 7 11.8164 7.36829 11.628 7.91663L7.25303 20.611L9.22725 22.6098ZM12.6993 12.9949C12.7189 12.9335 12.7778 12.8926 12.8405 12.8926C12.9073 12.8926 12.9622 12.9335 12.9818 12.9949L14.112 16.4404C14.1276 16.4895 14.1198 16.5427 14.0923 16.5836C14.0649 16.6246 14.0178 16.6491 13.9707 16.6491H11.6555C11.6084 16.6491 11.5613 16.6246 11.5338 16.5836C11.5064 16.5427 11.4985 16.4895 11.5142 16.4404L12.6993 12.9949Z" fill="#333333"/>
</svg>
