<svg width="30" height="30" viewBox="0 0 30 30" fill="none" xmlns="http://www.w3.org/2000/svg">
<path d="M18.1429 27.8571C18.427 27.8571 18.6995 27.97 18.9005 28.171C19.1014 28.3719 19.2143 28.6444 19.2143 28.9286C19.2143 29.2127 19.1014 29.4853 18.9005 29.6862C18.6995 29.8871 18.427 30 18.1429 30H11.7143C11.4301 30 11.1576 29.8871 10.9567 29.6862C10.7557 29.4853 10.6429 29.2127 10.6429 28.9286C10.6429 28.6444 10.7557 28.3719 10.9567 28.171C11.1576 27.97 11.4301 27.8571 11.7143 27.8571H18.1429ZM14.9286 5.35714C16.8161 5.35617 18.6513 5.9783 20.1491 7.12697C21.6469 8.27564 22.7237 9.88661 23.2123 11.7099C23.7009 13.5331 23.574 15.4666 22.8513 17.2104C22.1286 18.9541 20.8505 20.4105 19.2154 21.3536L19.2143 24.6429C19.2143 25.2112 18.9885 25.7562 18.5867 26.1581C18.1848 26.5599 17.6398 26.7857 17.0714 26.7857H12.7857C12.2174 26.7857 11.6724 26.5599 11.2705 26.1581C10.8686 25.7562 10.6429 25.2112 10.6429 24.6429V21.3536C9.00783 20.4106 7.72978 18.9542 7.00705 17.2106C6.28433 15.467 6.15734 13.5336 6.6458 11.7104C7.13426 9.88719 8.21086 8.27622 9.7085 7.12746C11.2061 5.97871 13.0411 5.35641 14.9286 5.35714ZM8.11 20.7471C8.31086 20.9481 8.4237 21.2205 8.4237 21.5046C8.4237 21.7887 8.31086 22.0612 8.11 22.2621L6.595 23.7771C6.39293 23.9723 6.12228 24.0803 5.84136 24.0779C5.56043 24.0754 5.2917 23.9627 5.09305 23.7641C4.8944 23.5654 4.78172 23.2967 4.77928 23.0158C4.77684 22.7349 4.88483 22.4642 5.08 22.2621L6.595 20.7471C6.79592 20.5463 7.0684 20.4334 7.3525 20.4334C7.6366 20.4334 7.90908 20.5463 8.11 20.7471ZM23.2621 20.7471L24.7771 22.2621C24.9723 22.4642 25.0803 22.7349 25.0779 23.0158C25.0754 23.2967 24.9627 23.5654 24.7641 23.7641C24.5654 23.9627 24.2967 24.0754 24.0158 24.0779C23.7349 24.0803 23.4642 23.9723 23.2621 23.7771L21.7471 22.2621C21.552 22.0601 21.444 21.7894 21.4464 21.5085C21.4489 21.2276 21.5615 20.9588 21.7602 20.7602C21.9588 20.5615 22.2276 20.4489 22.5085 20.4464C22.7894 20.444 23.0601 20.552 23.2621 20.7471ZM4.21429 12.8571C4.49845 12.8571 4.77097 12.97 4.9719 13.171C5.17283 13.3719 5.28571 13.6444 5.28571 13.9286C5.28571 14.2127 5.17283 14.4853 4.9719 14.6862C4.77097 14.8871 4.49845 15 4.21429 15H2.07143C1.78727 15 1.51475 14.8871 1.31381 14.6862C1.11288 14.4853 1 14.2127 1 13.9286C1 13.6444 1.11288 13.3719 1.31381 13.171C1.51475 12.97 1.78727 12.8571 2.07143 12.8571H4.21429ZM27.7857 12.8571C28.0699 12.8571 28.3424 12.97 28.5433 13.171C28.7443 13.3719 28.8571 13.6444 28.8571 13.9286C28.8571 14.2127 28.7443 14.4853 28.5433 14.6862C28.3424 14.8871 28.0699 15 27.7857 15H25.6429C25.3587 15 25.0862 14.8871 24.8852 14.6862C24.6843 14.4853 24.5714 14.2127 24.5714 13.9286C24.5714 13.6444 24.6843 13.3719 24.8852 13.171C25.0862 12.97 25.3587 12.8571 25.6429 12.8571H27.7857ZM24.7771 4.08C24.978 4.28092 25.0908 4.5534 25.0908 4.8375C25.0908 5.1216 24.978 5.39408 24.7771 5.595L23.2621 7.11C23.0601 7.30517 22.7894 7.41316 22.5085 7.41072C22.2276 7.40828 21.9588 7.2956 21.7602 7.09695C21.5615 6.8983 21.4489 6.62957 21.4464 6.34864C21.444 6.06772 21.552 5.79707 21.7471 5.595L23.2621 4.08C23.4631 3.87914 23.7355 3.7663 24.0196 3.7663C24.3037 3.7663 24.5762 3.87914 24.7771 4.08ZM6.595 4.08L8.11 5.595C8.21233 5.69384 8.29396 5.81206 8.35011 5.94278C8.40626 6.0735 8.43582 6.21409 8.43706 6.35636C8.43829 6.49862 8.41118 6.6397 8.35731 6.77138C8.30344 6.90305 8.22388 7.02268 8.12328 7.12328C8.02268 7.22388 7.90305 7.30344 7.77138 7.35731C7.63971 7.41118 7.49862 7.43829 7.35636 7.43705C7.21409 7.43582 7.0735 7.40626 6.94278 7.35011C6.81206 7.29396 6.69384 7.21233 6.595 7.11L5.08 5.595C4.88483 5.39293 4.77684 5.12228 4.77928 4.84136C4.78172 4.56043 4.8944 4.2917 5.09305 4.09305C5.2917 3.8944 5.56043 3.78172 5.84136 3.77928C6.12228 3.77684 6.39293 3.88483 6.595 4.08ZM14.9286 0C15.2127 0 15.4853 0.112882 15.6862 0.313814C15.8871 0.514746 16 0.787268 16 1.07143V3.21429C16 3.49845 15.8871 3.77097 15.6862 3.9719C15.4853 4.17283 15.2127 4.28571 14.9286 4.28571C14.6444 4.28571 14.3719 4.17283 14.171 3.9719C13.97 3.77097 13.8571 3.49845 13.8571 3.21429V1.07143C13.8571 0.787268 13.97 0.514746 14.171 0.313814C14.3719 0.112882 14.6444 0 14.9286 0Z" fill="#333333"/>
</svg>
