<svg width="30" height="30" viewBox="0 0 30 30" fill="none" xmlns="http://www.w3.org/2000/svg">
<path fill-rule="evenodd" clip-rule="evenodd" d="M0 4.25413V25.7314L16.7665 28.7066V1L0 4.25413ZM11.5599 10.9484C10.7231 9.98761 9.63843 9.49174 8.27479 9.49174C6.84917 9.49174 5.67148 9.98761 4.80372 11.0103C3.93595 12.0331 3.50206 13.3657 3.50206 15.0083C3.50206 16.5579 3.93595 17.8285 4.80372 18.8203C5.67148 19.812 6.78719 20.2769 8.15082 20.2769C9.54545 20.2769 10.6612 19.781 11.5289 18.7893C12.3967 17.7975 12.8306 16.4339 12.8306 14.8223C12.8306 13.1798 12.4277 11.9401 11.5599 10.9484ZM9.91735 17.3636C9.48347 17.9525 8.89462 18.2314 8.15082 18.2314C7.46901 18.2314 6.84917 17.9215 6.41529 17.3327C5.95041 16.7438 5.76446 15.907 5.76446 14.9153C5.76446 13.8926 6.01239 13.0868 6.41529 12.467C6.84917 11.8471 7.43801 11.5372 8.21281 11.5372C8.92562 11.5372 9.51446 11.8471 9.94834 12.436C10.3822 13.0248 10.5682 13.8616 10.5682 14.9463C10.5682 15.969 10.3512 16.7438 9.91735 17.3636ZM30 7.53926L20.7955 15.1632L18.2851 13.1488V6.79546H30V7.53926ZM30 8.99586L20.7955 16.6508L18.2851 14.6054V23.2831H30V8.99586Z" fill="#4596EC"/>
</svg>
