<svg xmlns="http://www.w3.org/2000/svg" width="24" height="24" viewBox="0 0 24 24" fill="none">
  <path d="M 18.365 18.365 C 16.604 16.977 15.282 16.01 14.135 15.454 C 12.972 17.127 12.505 19.728 12 24 C 11.495 19.728 11.028 17.127 9.866 15.454 C 8.718 16.009 7.397 16.975 5.636 18.365 C 7.024 16.604 7.991 15.282 8.546 14.135 C 6.873 12.972 4.272 12.505 0 12 C 4.272 11.495 6.873 11.028 8.545 9.866 C 7.991 8.718 7.024 7.397 5.635 5.636 C 7.396 7.024 8.718 7.991 9.865 8.546 C 11.028 6.873 11.495 4.272 12 0 C 12.505 4.272 12.972 6.873 14.135 8.545 C 15.282 7.991 16.604 7.024 18.365 5.635 C 16.977 7.396 16.01 8.718 15.454 9.865 C 17.127 11.028 19.728 11.495 24 12 C 19.728 12.505 17.127 12.972 15.454 14.135 C 16.009 15.282 16.975 16.604 18.365 18.365 Z" fill="currentColor" fill-rule="nonzero"/>
</svg>
