<svg width="48" height="14" viewBox="0 0 48 14" fill="none" xmlns="http://www.w3.org/2000/svg">
<path d="M0 0.00209812C1.74891 0.00209812 3.49731 -0.00704475 5.24629 0.012841C6.92017 0.0322695 8.79366 0.0596981 10.4226 0.707527C12.1822 1.40764 13.3472 2.6317 14.5193 4.07227C15.3631 5.10838 17.0206 7.31901 17.8277 8.38638C18.4883 9.26147 19.7813 10.9912 20.4874 11.8281C21.3761 12.8809 22.4747 14 24.0005 14C25.5263 14 26.6244 12.881 27.5127 11.8292C28.2187 10.9928 29.5117 9.26204 30.1728 8.38747C30.9789 7.3201 32.6364 5.10947 33.4807 4.07336C34.6549 2.63278 35.8178 1.40873 37.5769 0.708612C39.2063 0.0623839 41.0803 0.0332981 42.7532 0.0139267C44.5027 -0.00601617 46.2511 0.00318383 48 0.00318383" fill="#333333"/>
</svg>
