<svg width="30" height="30" viewBox="0 0 30 30" fill="none" xmlns="http://www.w3.org/2000/svg">
<path d="M25.4369 0.110941L12.4515 4.0901C10.872 4.54573 9.61138 6.18599 9.61138 7.75032V21.4344C9.61138 21.4344 8.66975 20.7965 6.57386 21.1002C3.49077 21.5407 1 23.8948 1 26.3703C1 28.8459 3.49077 30.3647 6.57386 29.9243C9.65695 29.4838 11.9047 27.2057 11.9047 24.7301V11.5168C11.9047 10.4233 13.226 9.95252 13.226 9.95252L24.7079 6.35306C24.7079 6.35306 25.9836 5.9278 25.9836 7.09725V18.002C25.9836 18.002 24.8142 17.3337 22.7183 17.5767C19.6352 17.9564 17.1444 20.2649 17.1444 22.7405C17.1444 25.2161 19.6352 26.7804 22.7183 26.4159C25.8014 26.0362 28.2922 23.7277 28.2922 21.2521V2.1309C28.277 0.581757 27.0012 -0.3295 25.4369 0.110941Z" fill="#4FCCD3"/>
</svg>
