<svg width="30" height="30" viewBox="0 0 30 30" fill="none" xmlns="http://www.w3.org/2000/svg">
<path d="M0 15C0 18.9782 1.58035 22.7936 4.3934 25.6066C7.20644 28.4196 11.0218 30 15 30C18.9782 30 22.7936 28.4196 25.6066 25.6066C28.4196 22.7936 30 18.9782 30 15C30 11.0218 28.4196 7.20644 25.6066 4.3934C22.7936 1.58035 18.9782 0 15 0C11.0218 0 7.20644 1.58035 4.3934 4.3934C1.58035 7.20644 0 11.0218 0 15Z" fill="white"/>
<path d="M8.91929 25.7143V10.2252C9.87422 8.61805 10.6662 6.89448 11.295 5.03112L9.71122 4.28577C8.5699 7.87273 6.72983 11.0637 4.21429 13.8354L4.77329 15.6057C5.6584 14.674 6.4969 13.719 7.26554 12.6942V25.7143H8.91926H8.91929ZM18.3991 25.7143V10.6678H18.5155C20.146 15.396 22.1957 19.146 24.6879 21.9411L25.7826 20.4503C23.1273 17.865 21.0776 14.6041 19.6335 10.6678H24.4317V9.06062H18.3991V4.49541H16.7454V9.06062H11.2718V10.6678H15.4876C14.0901 14.8137 12.1801 18.0979 9.73447 20.5435L10.6895 22.1041C13.1351 19.3091 15.1149 15.5125 16.6522 10.6678H16.7454V25.7143H18.3991Z" fill="#F7981D"/>
</svg>
