<svg width="30" height="30" viewBox="0 0 30 30" fill="none" xmlns="http://www.w3.org/2000/svg">
<g clip-path="url(#clip0_45_59)">
<path d="M15 0C23.2843 0 30 6.71571 30 15C30 23.2843 23.2843 30 15 30C6.71571 30 0 23.2843 0 15C0 6.71571 6.71571 0 15 0ZM7.21429 12.8571C6.03082 12.8571 5.07143 13.8165 5.07143 15C5.07143 16.1835 6.03082 17.1429 7.21429 17.1429C8.39775 17.1429 9.35714 16.1835 9.35714 15C9.35714 13.8165 8.39775 12.8571 7.21429 12.8571ZM15 12.8571C13.8165 12.8571 12.8571 13.8165 12.8571 15C12.8571 16.1835 13.8165 17.1429 15 17.1429C16.1835 17.1429 17.1429 16.1835 17.1429 15C17.1429 13.8165 16.1835 12.8571 15 12.8571ZM22.7857 12.8571C21.6022 12.8571 20.6429 13.8165 20.6429 15C20.6429 16.1835 21.6022 17.1429 22.7857 17.1429C23.9692 17.1429 24.9286 16.1835 24.9286 15C24.9286 13.8165 23.9692 12.8571 22.7857 12.8571Z" fill="#333333"/>
</g>
<defs>
<clipPath id="clip0_45_59">
<rect width="30" height="30" fill="white"/>
</clipPath>
</defs>
</svg>
