<svg width="30" height="30" viewBox="0 0 30 30" fill="none" xmlns="http://www.w3.org/2000/svg">
<g clip-path="url(#clip0_3102_458)">
<path d="M14.2403 1.50907C16.0303 1.50907 17.743 1.83935 19.321 2.44221L16.7353 5.028C16.6832 5.08004 16.6346 5.13537 16.5897 5.19364C15.8333 5.02603 15.0471 4.93764 14.2403 4.93764C8.26918 4.93764 3.42857 9.77825 3.42857 15.7494C3.42857 21.7206 8.26918 26.5612 14.2403 26.5612C20.2115 26.5612 25.0521 21.7206 25.0521 15.7494C25.0521 14.9038 24.955 14.0809 24.7714 13.2912C24.8127 13.257 24.8523 13.2209 24.8903 13.183L27.5076 10.5656C28.1358 12.172 28.4807 13.9204 28.4807 15.7494L28.4804 15.8415C28.4309 23.6639 22.0743 29.9898 14.2403 29.9898L14.1483 29.9895C6.32593 29.9399 3.57129e-05 23.5834 0 15.7494C0 7.88468 6.37561 1.50907 14.2403 1.50903V1.50907ZM14.2889 8.23932C15.1255 8.24464 15.9296 8.38671 16.68 8.64432L16.9632 10.0604L16.1418 10.8818C15.5525 10.6514 14.9112 10.5249 14.2403 10.5249C11.3549 10.5249 9.01571 12.864 9.01571 15.7495C9.01575 18.635 11.3549 20.9741 14.2403 20.9741C17.1258 20.9741 19.4649 18.635 19.465 15.7495C19.465 15.0926 19.3436 14.4641 19.1223 13.8849L20.0199 12.9874L21.324 13.2482C21.6003 14.0306 21.7507 14.8725 21.7507 15.7495L21.7505 15.7981C21.7244 19.9236 18.372 23.2598 14.2403 23.2598L14.1918 23.2597C10.0825 23.2337 6.75618 19.9074 6.73014 15.7981L6.73 15.7495C6.73 11.6017 10.0925 8.23918 14.2403 8.23918L14.2889 8.23932Z" fill="#F7981D"/>
<path d="M23.4609 0.167815C23.7845 -0.154828 24.3383 0.0123147 24.4281 0.459743L25.4702 4.51585L29.5379 5.55567C29.9867 5.64514 30.1544 6.19717 29.8308 6.51985L25.44 10.897C25.0336 11.3022 24.4509 11.4781 23.8873 11.3657L21.2371 10.8373L14.1442 17.9085C13.7352 18.3162 12.7863 18.0305 12.3773 17.6227C11.9683 17.215 11.6825 16.2682 12.0915 15.8604L19.1482 8.82542L18.6001 6.09299C18.5446 5.81621 18.5585 5.53 18.6406 5.25989C18.7226 4.98979 18.8702 4.74418 19.0702 4.54499L23.4609 0.167815Z" fill="#8DADF9"/>
</g>
<defs>
<clipPath id="clip0_3102_458">
<rect width="30" height="30" fill="white"/>
</clipPath>
</defs>
</svg>
