<svg width="30" height="30" viewBox="0 0 30 30" fill="none" xmlns="http://www.w3.org/2000/svg">
<path d="M15 0C13.422 0 12.1429 1.27918 12.1429 2.85714V3.61339C7.81228 4.85361 4.64286 8.84239 4.64286 13.5714V22.5H1.78571C0.7995 22.5 0 23.2995 0 24.2857C0 25.2719 0.7995 26.0714 1.78571 26.0714H28.2143C29.2005 26.0714 30 25.2719 30 24.2857C30 23.2995 29.2005 22.5 28.2143 22.5H25.3571V13.5714C25.3571 8.84239 22.1877 4.85361 17.8571 3.61339V2.85714C17.8571 1.27918 16.578 0 15 0ZM15 30C16.578 30 17.8571 28.7311 17.8571 27.1429L16.291 27.1429L15 27.1429L13.1496 27.1429L12.1429 27.1429C12.1429 28.7311 13.422 30 15 30Z" fill="#333333"/>
</svg>
