<svg width="30" height="30" viewBox="0 0 30 30" fill="none" xmlns="http://www.w3.org/2000/svg">
<path d="M13.9257 29.8208C14.6213 30.0597 15.3768 30.0597 16.0725 29.8208C20.8128 28.1953 22.5253 26.8674 22.5253 26.8674C27.4518 23.5077 27.4951 19.0961 27.4951 19.0961V5.17306C27.4951 4.49054 26.9398 3.90427 26.2573 3.87933C22.761 3.75528 17.6081 1.18656 15.722 0.181436C15.4991 0.0623183 15.2503 0 14.9976 0C14.7449 0 14.4961 0.0623183 14.2732 0.181436C12.387 1.18354 7.23717 3.75528 3.73782 3.87933C3.0553 3.90411 2.5 4.49054 2.5 5.17306V19.0961C2.5 19.0961 2.54336 23.5075 7.46987 26.8674C7.47288 26.8674 9.18531 28.1953 13.9257 29.8208Z" fill="#667EEA"/>
<path d="M14.1031 27.2981C14.6843 27.4966 15.315 27.4966 15.8962 27.2981C19.8548 25.9424 21.2849 24.8318 21.2849 24.8318C25.3985 22.0274 25.4358 18.3419 25.4358 18.3419V6.86952C25.4358 6.29866 24.9704 5.81166 24.4027 5.7899C21.4835 5.68745 17.1806 3.54076 15.6078 2.70306C15.4216 2.60372 15.2138 2.55176 15.0028 2.55176C14.7918 2.55176 14.5841 2.60372 14.3979 2.70306C12.8251 3.54061 8.52218 5.68745 5.6029 5.7899C5.03522 5.80849 4.56982 6.29866 4.56982 6.86952V18.3419C4.56982 18.3419 4.60699 22.0274 8.72072 24.8318C8.71453 24.8318 10.1447 25.9424 14.1031 27.2981Z" fill="#95A6F5"/>
<path d="M14.9985 2.55176C14.7873 2.55133 14.5794 2.60358 14.3935 2.70377C12.8207 3.54132 8.51778 5.68816 5.59851 5.79062C5.03082 5.8092 4.56543 6.29937 4.56543 6.87023V18.3426C4.56543 18.3426 4.6026 22.0281 8.71633 24.8325C8.71633 24.8325 10.1465 25.9431 14.1051 27.2988C14.3935 27.3981 14.6975 27.4478 15.0017 27.4478V2.55176H14.9985Z" fill="#BCC8FF"/>
<path d="M25.4359 16.6377V18.3409C25.4359 18.3409 25.3987 22.0264 21.285 24.8309C21.285 24.8309 20.5994 25.3644 18.8652 26.14L20.3358 28.1069C22.0482 27.2568 23.5684 26.2766 24.6944 25.0326C26.5465 22.9478 27.3035 21.0988 27.4803 19.3708L25.4359 16.6377Z" fill="#4762DB"/>
<path d="M25.4348 18.3426V16.6394L20.8031 10.4473L14.9987 15.8484V20.9703L18.8642 26.1387C20.5984 25.36 21.2839 24.8295 21.2839 24.8295C25.3976 22.0281 25.4348 18.3426 25.4348 18.3426ZM14.2355 16.5589L9.95752 14.229L14.9987 20.9703V15.8484L14.2355 16.5589Z" fill="#768DF5"/>
<path d="M14.0808 17.9404C13.8355 17.9408 13.6 17.8437 13.4262 17.6705L10.1594 14.4007C9.79647 14.0378 9.79647 13.4513 10.1594 13.0916C10.5224 12.7286 11.1088 12.7286 11.4686 13.0916L14.0806 15.7037L19.3607 10.4236C19.7237 10.0606 20.3101 10.0606 20.6699 10.4236C21.0328 10.7865 21.0328 11.3729 20.6699 11.7327L14.7354 17.6674C14.6501 17.7543 14.5482 17.8233 14.4357 17.8702C14.3233 17.9171 14.2026 17.941 14.0808 17.9404Z" fill="white"/>
</svg>
