<svg width="30" height="30" viewBox="0 0 30 30" fill="none" xmlns="http://www.w3.org/2000/svg">
<g clip-path="url(#clip0_2988_91)">
<path d="M24.6797 11.129H22.2598V7.25807C22.2598 3.25164 19.0074 0 14.9999 0C10.9925 0 7.74009 3.25161 7.74009 7.25807V11.129H5.32016C2.91955 11.129 0.964233 13.0839 0.964233 15.4839V25.6452C0.964233 28.0452 2.91955 30 5.32016 30H24.6797C27.0803 30 29.0357 28.0452 29.0357 25.6452V15.4839C29.0357 13.0839 27.0803 11.129 24.6797 11.129ZM17.9039 22.2581H12.096C11.3023 22.2581 10.644 21.6 10.644 20.8065C10.644 20.0129 11.3023 19.3548 12.096 19.3548H17.9039C18.6976 19.3548 19.3559 20.0129 19.3559 20.8065C19.3559 21.6 18.6976 22.2581 17.9039 22.2581ZM19.3559 11.129H10.644V7.25807C10.644 4.85807 12.5993 2.90321 14.9999 2.90321C17.4006 2.90321 19.3559 4.85807 19.3559 7.25807V11.129Z" fill="#333333"/>
</g>
<defs>
<clipPath id="clip0_2988_91">
<rect width="30" height="30" fill="white"/>
</clipPath>
</defs>
</svg>
