<svg width="30" height="30" viewBox="0 0 30 30" fill="none" xmlns="http://www.w3.org/2000/svg">
<g clip-path="url(#clip0_2695_203)">
<path fill-rule="evenodd" clip-rule="evenodd" d="M5.70811 20.7483H14.1981L14.6508 23.7526C14.8022 24.7571 15.6654 25.5 16.6812 25.5C17.9461 25.5 18.9102 24.3674 18.7082 23.1188L16.079 6.86538C15.8119 5.2138 14.386 4 12.7129 4C11.4819 4 10.3464 4.66353 9.74212 5.73603L0.255711 22.5726C-0.481769 23.8815 0.464004 25.5 1.96636 25.5C2.68718 25.5 3.35004 25.105 3.69315 24.4711L5.70811 20.7483ZM12.4153 8.51705L13.6574 17.1698H7.24245L12.4153 8.51705ZM22.1494 22.8995C21.8695 24.2406 22.8932 25.5 24.2633 25.5C25.2864 25.5 26.1691 24.782 26.3775 23.7803L29.9522 6.59225C30.2303 5.25504 29.2094 4 27.8436 4C26.8237 4 25.9436 4.71539 25.7353 5.7138L22.1494 22.8995Z" fill="#333333"/>
</g>
<defs>
<clipPath id="clip0_2695_203">
<rect width="30" height="30" fill="white"/>
</clipPath>
</defs>
</svg>
