<svg width="30" height="30" viewBox="0 0 30 30" fill="none" xmlns="http://www.w3.org/2000/svg">
<path d="M15.4208 0C16.2887 0 16.9937 0.656555 16.9937 1.46759C16.9937 2.27649 16.2887 2.93519 15.4208 2.93519H6.06675C4.45309 2.93519 3.14588 4.15389 3.14588 5.6601V25.844L5.47315 24.2605C6.77131 23.3842 8.28164 22.8749 9.8448 22.7865L10.3741 22.7693H21.7919C23.4055 22.7693 24.7127 21.5485 24.7127 20.0444V15.6586C24.7127 14.8476 25.4199 14.191 26.2878 14.191C27.1557 14.191 27.8586 14.8476 27.8586 15.6586V20.0401C27.8586 23.1684 25.1413 25.7023 21.7919 25.7023H10.372C9.27692 25.7023 8.20757 26.0285 7.32467 26.6314L2.85658 29.6782C2.54378 29.889 2.17503 30.0011 1.79795 30C0.805757 30 0 29.249 0 28.3221V5.6601C0 2.53181 2.71729 0 6.06675 0H15.4208ZM22.8591 0.523527C23.0541 -0.173794 24.0934 -0.173794 24.2884 0.523527L25.3063 4.1496C25.3385 4.26475 25.3998 4.36966 25.4842 4.45427C25.5699 4.5401 25.6771 4.60447 25.7928 4.64094L29.4894 5.76738C29.6394 5.81029 29.768 5.90256 29.8601 6.02271C29.9509 6.14165 30 6.28716 30 6.43681C30 6.58647 29.9509 6.73197 29.8601 6.85091C29.7664 6.97332 29.6368 7.06333 29.4894 7.10839L25.7949 8.23268C25.6801 8.26871 25.5757 8.33202 25.4906 8.4172C25.4055 8.50239 25.3423 8.60692 25.3063 8.72188L24.2884 12.3479C24.0934 13.0474 23.0541 13.0474 22.8591 12.3479L21.8411 8.72188C21.8079 8.60732 21.7459 8.50317 21.6611 8.41935C21.575 8.33293 21.469 8.26886 21.3526 8.23268L17.6559 7.10624C17.5089 7.06177 17.3793 6.97252 17.2852 6.85091C17.1945 6.73197 17.1453 6.58647 17.1453 6.43681C17.1453 6.28716 17.1945 6.14165 17.2852 6.02271C17.379 5.90031 17.5086 5.81029 17.6559 5.76524L21.3526 4.64094C21.469 4.60477 21.575 4.54069 21.6611 4.45427C21.7452 4.37027 21.8065 4.26612 21.839 4.15174L22.8612 0.525673H22.8591V0.523527Z" fill="#333333"/>
</svg>
