<svg width="30" height="30" viewBox="0 0 30 30" fill="none" xmlns="http://www.w3.org/2000/svg">
<path d="M28.8571 2.14286C29.482 2.14286 29.9897 2.64436 30 3.26679V26.5714C30 28.4461 28.4955 29.9693 26.6281 29.9995L26.5714 30H5.42857C4.79739 30 4.28571 29.4883 4.28571 28.8571C4.28571 28.2323 4.78721 27.7245 5.40964 27.7144L5.42857 27.7143H26.5714C27.1963 27.7143 27.704 27.2128 27.7141 26.5904L27.7143 26.5714V3.28571C27.7143 2.65454 28.226 2.14286 28.8571 2.14286ZM23.4286 0C24.6909 0 25.7143 1.02336 25.7143 2.28571V23.4286C25.7143 24.6909 24.6909 25.7143 23.4286 25.7143H2.28571C1.02336 25.7143 0 24.6909 0 23.4286V2.28571C0 1.02336 1.02336 0 2.28571 0H23.4286ZM23.4286 2.28571H2.28571V23.4286H23.4286V2.28571ZM13.9286 19.1429C14.5203 19.1429 15 19.6225 15 20.2143V20.3571C15 20.9489 14.5203 21.4286 13.9286 21.4286H5.35714C4.76539 21.4286 4.28571 20.9489 4.28571 20.3571V20.2143C4.28571 19.6225 4.76539 19.1429 5.35714 19.1429H13.9286ZM18.2143 11.7143C18.806 11.7143 19.2857 12.194 19.2857 12.7857V12.9286C19.2857 13.5203 18.806 14 18.2143 14H5.35714C4.76539 14 4.28571 13.5203 4.28571 12.9286V12.7857C4.28571 12.194 4.76539 11.7143 5.35714 11.7143H18.2143ZM20.3571 4.28571C20.9489 4.28571 21.4286 4.76539 21.4286 5.35714V5.5C21.4286 6.09175 20.9489 6.57143 20.3571 6.57143H5.35714C4.76539 6.57143 4.28571 6.09175 4.28571 5.5V5.35714C4.28571 4.76539 4.76539 4.28571 5.35714 4.28571H20.3571Z" fill="#333333"/>
</svg>
