<svg width="30" height="30" viewBox="0 0 30 30" fill="none" xmlns="http://www.w3.org/2000/svg">
<g clip-path="url(#clip0_42_221)">
<path fill-rule="evenodd" clip-rule="evenodd" d="M24.5507 22.9388L29.6661 28.0543C30.1113 28.4995 30.1113 29.221 29.6661 29.6661C29.2209 30.1113 28.4995 30.1113 28.0542 29.6661L22.9388 24.5507C20.5098 26.613 17.3646 27.857 13.9285 27.857C6.236 27.857 0 21.621 0 13.9285C0 6.236 6.236 0 13.9285 0C21.621 0 27.857 6.236 27.857 13.9285C27.857 17.3646 26.613 20.5098 24.5507 22.9388ZM2.28568 13.9285C2.28568 20.3587 7.49839 25.5714 13.9285 25.5714C20.3587 25.5714 25.5714 20.3587 25.5714 13.9285C25.5714 7.49839 20.3587 2.28568 13.9285 2.28568C7.49839 2.28568 2.28568 7.49839 2.28568 13.9285ZM7.28575 13.25H20.5714C21.2026 13.25 21.7143 13.7617 21.7143 14.3929C21.7143 15.024 21.2026 15.5357 20.5714 15.5357H7.28575C6.65457 15.5357 6.14289 15.024 6.14289 14.3929C6.14289 13.7617 6.65457 13.25 7.28575 13.25Z" fill="#333333"/>
</g>
<defs>
<clipPath id="clip0_42_221">
<rect width="30" height="30" fill="white"/>
</clipPath>
</defs>
</svg>
