<svg width="30" height="30" viewBox="0 0 30 30" fill="none" xmlns="http://www.w3.org/2000/svg">
<g clip-path="url(#clip0_42_109)">
<path fill-rule="evenodd" clip-rule="evenodd" d="M25.6066 4.39339C26.9838 5.77061 28.0652 7.37464 28.8207 9.16096C29.6032 11.011 30 12.9755 30 15C30 17.0245 29.6032 18.989 28.8207 20.839C28.0652 22.6253 26.9838 24.2294 25.6066 25.6066C24.2294 26.9838 22.6254 28.0652 20.839 28.8207C18.989 29.6032 17.0245 30 15 30C12.9755 30 11.011 29.6032 9.161 28.8207C7.37464 28.0652 5.77061 26.9838 4.39339 25.6066C3.01621 24.2294 1.93479 22.6254 1.17925 20.839C0.39675 18.989 0 17.0245 0 15C0 12.9755 0.39675 11.011 1.17921 9.161C1.93475 7.37468 3.01614 5.77064 4.39336 4.39343C5.77057 3.01621 7.37461 1.93482 9.16096 1.17925C11.011 0.39675 12.9755 0 15 0C17.0245 0 18.989 0.39675 20.839 1.17921C22.6254 1.93479 24.2294 3.01618 25.6066 4.39339ZM15 27.7143C18.3961 27.7143 21.589 26.3918 23.9904 23.9904C26.3918 21.589 27.7143 18.3961 27.7143 15C27.7143 11.6039 26.3918 8.41104 23.9904 6.00964C21.589 3.60821 18.3961 2.28571 15 2.28571C11.6039 2.28571 8.41107 3.60825 6.00964 6.00964C3.60825 8.41104 2.28571 11.6039 2.28571 15C2.28571 18.3961 3.60825 21.589 6.00964 23.9904C8.41107 26.3918 11.6039 27.7143 15 27.7143ZM6.07143 15C6.07143 14.3688 6.58311 13.8571 7.21429 13.8571H22.7857C23.4169 13.8571 23.9286 14.3688 23.9286 15C23.9286 15.6312 23.4169 16.1429 22.7857 16.1429H7.21429C6.58311 16.1429 6.07143 15.6312 6.07143 15Z" fill="#333333"/>
</g>
<defs>
<clipPath id="clip0_42_109">
<rect width="30" height="30" fill="white"/>
</clipPath>
</defs>
</svg>
