<svg width="30" height="30" viewBox="0 0 30 30" fill="none" xmlns="http://www.w3.org/2000/svg">
<g clip-path="url(#clip0_42_280)">
<path d="M20.3206 14.1428C21.3323 12.9321 22.7424 12.1784 24.3374 11.9265C25.2014 11.6429 25.9713 11.125 26.5715 10.4067C28.319 8.31546 28.0474 5.19757 25.9647 3.44279C23.8821 1.68796 20.7771 1.96075 19.0296 4.05207C18.3792 4.83032 17.9944 5.76507 17.9003 6.75136C17.8775 8.28189 17.3816 9.71314 16.4237 10.8594C15.6888 11.7389 14.7461 12.3752 13.6779 12.7546L18.9386 17.1873C19.1252 16.0652 19.5855 15.0224 20.3206 14.1428ZM21.1661 19.0642L22.9399 20.5587C23.4757 21.0102 23.8515 21.5245 24.0645 22.0694C24.2775 22.6143 24.3276 23.1898 24.2121 23.7635C24.0966 24.3373 23.8154 24.9093 23.3658 25.4474C22.9161 25.9855 22.4039 26.3629 21.8613 26.5767C21.3187 26.7906 20.7456 26.8409 20.1742 26.7249C19.6029 26.6089 19.0331 26.3266 18.4973 25.8751L5.26136 14.7226C4.7255 14.2711 4.34968 13.7568 4.13671 13.2119C3.92371 12.667 3.87361 12.0916 3.98911 11.5178C4.10461 10.9441 4.38579 10.372 4.83543 9.83396C5.28507 9.29586 5.79721 8.9185 6.33989 8.70464C6.88254 8.49075 7.45561 8.44043 8.02696 8.55643C8.59836 8.67239 9.16804 8.95475 9.70386 9.40625L11.4503 10.8778C12.7397 10.8197 13.8959 10.3278 14.6797 9.38989C15.3189 8.62496 15.6241 7.66664 15.6244 6.64207C15.7404 5.19871 16.288 3.77629 17.2855 2.58254C19.8413 -0.475965 24.3823 -0.874893 27.4281 1.69146C30.474 4.25789 30.8713 8.81775 28.3155 11.8763C27.3697 13.0081 26.1519 13.7758 24.8387 14.1637C23.7341 14.3061 22.7549 14.7862 22.0646 15.6123C21.2808 16.5502 20.9991 17.7791 21.1661 19.0642ZM8.24043 11.1575C7.99389 10.9497 7.76896 10.8364 7.57582 10.7972C7.43396 10.7684 7.30639 10.7796 7.17168 10.8327C6.98825 10.905 6.78632 11.0558 6.57946 11.3034C6.37257 11.551 6.25968 11.7769 6.22064 11.9708C6.19196 12.1132 6.20314 12.2414 6.256 12.3766C6.32796 12.5608 6.47821 12.7636 6.72479 12.9713L19.9607 24.1239C20.2072 24.3316 20.4322 24.4449 20.6254 24.4842C20.7671 24.513 20.8948 24.5017 21.0295 24.4486C21.2129 24.3764 21.4148 24.2255 21.6217 23.9779C21.8286 23.7304 21.9415 23.5045 21.9805 23.3105C22.0092 23.1681 21.998 23.04 21.9452 22.9047C21.8732 22.7205 21.7229 22.5177 21.4764 22.31L8.24046 11.1575H8.24043ZM1.14286 27.7143H20.2857C20.9169 27.7143 21.4286 28.226 21.4286 28.8571C21.4286 29.4883 20.9169 30 20.2857 30H1.14286C0.511678 30 0 29.4883 0 28.8571C0 28.226 0.511678 27.7143 1.14286 27.7143Z" fill="#333333"/>
</g>
<defs>
<clipPath id="clip0_42_280">
<rect width="30" height="30" fill="white"/>
</clipPath>
</defs>
</svg>
