<svg width="30" height="30" viewBox="0 0 30 30" fill="none" xmlns="http://www.w3.org/2000/svg">
<g clip-path="url(#clip0_42_145)">
<path fill-rule="evenodd" clip-rule="evenodd" d="M20.3822 4.11259C23.2697 7.02377 23.2489 11.7225 20.3353 14.6079L15.0141 19.8925L9.69117 14.6079C9.68101 14.5979 9.67099 14.5879 9.66093 14.5778C9.65542 14.5722 9.6499 14.5667 9.64434 14.5611C6.75728 11.6497 6.7789 6.95084 9.69274 4.06599C12.639 1.14735 17.3891 1.14735 20.3353 4.06599L20.3822 4.11259ZM8.30704 2.7937C4.69029 6.44023 4.71685 12.3257 8.36648 15.9394L15.0141 22.5429L21.6601 15.9411L21.7148 15.8847C25.3341 12.2382 25.3097 6.35055 21.6601 2.73431C17.9801 -0.911437 12.0465 -0.911437 8.36648 2.73431L8.31019 2.79074L8.30704 2.7937ZM16.8947 9.39252C16.8947 10.4303 16.0528 11.2716 15.0141 11.2716C13.9754 11.2716 13.1334 10.4303 13.1334 9.39252C13.1334 8.3547 13.9754 7.51345 15.0141 7.51345C16.0527 7.51345 16.8947 8.35466 16.8947 9.39252ZM11.2543 9.39248C11.2543 11.4672 12.9377 13.1491 15.0141 13.1491C17.0904 13.1491 18.7738 11.4672 18.7738 9.39248C18.7738 7.31759 17.0904 5.63588 15.0141 5.63588C12.9377 5.63588 11.2543 7.31763 11.2543 9.39248ZM2.79184 24.5714H27.2081C28.7997 24.5714 30 25.6939 30 27.1823V27.4239C30 28.1831 29.6911 28.8626 29.1303 29.3375C28.6257 29.7647 27.9431 30 27.2081 30H5.79057C5.31678 30 4.93271 29.6162 4.93271 29.1429C4.93271 28.6695 5.31678 28.2857 5.79057 28.2857H27.2081C27.7045 28.2857 28.2843 28.06 28.2843 27.4239V27.1823C28.2843 26.563 27.7438 26.2857 27.2081 26.2857H2.79184C1.17413 26.2857 0 25.2043 0 23.7143V23.4643C0 22.7075 0.3059 22.0249 0.861366 21.5423C1.36986 21.1005 2.05544 20.8572 2.79184 20.8572H8.72161C9.1954 20.8572 9.57947 21.2409 9.57947 21.7143C9.57947 22.1877 9.1954 22.5714 8.72161 22.5714H2.79184C2.25621 22.5714 1.71573 22.8475 1.71573 23.4643V23.7143C1.71573 23.8574 1.76763 24.5714 2.79184 24.5714Z" fill="#333333"/>
</g>
<defs>
<clipPath id="clip0_42_145">
<rect width="30" height="30" fill="white"/>
</clipPath>
</defs>
</svg>
