<svg width="30" height="30" viewBox="0 0 30 30" fill="none" xmlns="http://www.w3.org/2000/svg">
<path fill-rule="evenodd" clip-rule="evenodd" d="M18.1922 2H1.93844C0.869597 2 0 2.8696 0 3.93844V23.6149C0 24.6838 0.869561 25.5534 1.93844 25.5534H13.7084C14.182 25.5534 14.5659 25.1695 14.5659 24.696C14.5659 24.2224 14.182 23.8385 13.7084 23.8385H4.95527V17.577C4.95527 17.4194 5.0835 17.2912 5.24109 17.2912H13.7441C14.2177 17.2912 14.6016 16.9073 14.6016 16.4337C14.6016 15.9602 14.2177 15.5763 13.7441 15.5763H5.24109C4.13791 15.5763 3.24037 16.4738 3.24037 17.577V23.8385H1.93848C1.8792 23.8384 1.82237 23.8149 1.78047 23.7729C1.73856 23.731 1.71499 23.6742 1.71494 23.6149V3.93844C1.715 3.87918 1.73857 3.82236 1.78048 3.78045C1.82239 3.73854 1.87921 3.71497 1.93848 3.7149H3.20465V10.9675C3.20465 11.5989 3.71651 12.1108 4.34791 12.1108H16.3165C16.9479 12.1108 17.4598 11.5989 17.4598 10.9675V3.78689L21.6398 8.71005V10.896C21.6398 11.3696 22.0237 11.7535 22.4973 11.7535C22.9708 11.7535 23.3547 11.3696 23.3547 10.896V8.08025L18.1922 2ZM12.851 9.6456V3.7149H15.4948V9.6456H12.851ZM22.4973 12.6824C18.3537 12.6824 14.9946 16.0415 14.9946 20.1851C14.9946 24.3287 18.3537 27.6878 22.4973 27.6878C26.6409 27.6878 30 24.3287 30 20.1851C30 16.0415 26.6409 12.6824 22.4973 12.6824ZM26.5899 24.2777C25.4967 25.3708 24.0433 25.9729 22.4973 25.9729C20.9513 25.9729 19.4979 25.3708 18.4047 24.2777C17.3115 23.1846 16.7095 21.7311 16.7095 20.1851C16.7095 18.6391 17.3116 17.1857 18.4047 16.0925C19.4978 14.9993 20.9513 14.3973 22.4973 14.3973C24.0433 14.3973 25.4967 14.9993 26.5899 16.0925C27.6831 17.1856 28.2851 18.6391 28.2851 20.1851C28.2851 21.7311 27.6831 23.1845 26.5899 24.2777ZM26.3274 17.2777C26.5506 17.0545 26.9126 17.0545 27.1358 17.2777C27.359 17.5009 27.359 17.8629 27.1357 18.0861L22.3804 22.8414C22.1019 23.12 21.7359 23.2592 21.37 23.2592C21.004 23.2592 20.6381 23.12 20.3595 22.8414L17.8588 20.3406C17.6355 20.1173 17.6355 19.7554 17.8588 19.5322C18.082 19.3089 18.444 19.3089 18.6672 19.5322L21.1679 22.033C21.2794 22.1443 21.4606 22.1444 21.5721 22.033L26.3274 17.2777Z" fill="#333333"/>
</svg>
