<svg width="30" height="30" viewBox="0 0 30 30" fill="none" xmlns="http://www.w3.org/2000/svg">
<g clip-path="url(#clip0_42_137)">
<path d="M15 13.3818L28.0467 0.335187C28.4935 -0.111669 29.218 -0.111669 29.6649 0.335187C30.1117 0.782044 30.1117 1.50651 29.6649 1.9534L16.6181 15L29.6648 28.0467C30.1117 28.4935 30.1117 29.218 29.6648 29.6649C29.218 30.1117 28.4935 30.1117 28.0466 29.6649L15 16.6181L1.95333 29.6648C1.50647 30.1117 0.782008 30.1117 0.335116 29.6648C-0.111705 29.218 -0.111705 28.4935 0.335116 28.0466L13.3819 15L0.335152 1.95333C-0.111705 1.50647 -0.111705 0.782008 0.335152 0.335116C0.782009 -0.111705 1.50647 -0.111705 1.95336 0.335116L15 13.3819V13.3818Z" fill="#333333"/>
</g>
<defs>
<clipPath id="clip0_42_137">
<rect width="30" height="30" fill="white"/>
</clipPath>
</defs>
</svg>
