<svg width="30" height="30" viewBox="0 0 30 30" fill="none" xmlns="http://www.w3.org/2000/svg">
<g clip-path="url(#clip0_3154_124)">
<path d="M14.9991 8.57141C21.0041 8.57141 26.0044 12.1428 30 19.2857L29.8798 19.4989C25.9043 26.4996 20.944 30 14.9991 30C9.05429 30 4.09464 26.4996 0.120152 19.4989L0 19.2857C3.99454 12.1428 8.99425 8.57141 14.9991 8.57141ZM14.9991 10.8571C10.3944 10.8571 6.25321 13.3688 2.64614 19.2856C6.25325 25.2017 10.3923 27.7143 14.9991 27.7143C19.6061 27.7143 23.7456 25.2016 27.3537 19.2856C23.7456 13.3689 19.604 10.8571 14.9991 10.8571ZM15 14.2857C17.7614 14.2857 20 16.5243 20 19.2857C20 22.0471 17.7614 24.2857 15 24.2857C12.2386 24.2857 10 22.0471 10 19.2857C10 16.5243 12.2386 14.2857 15 14.2857ZM15 16.5714C13.5009 16.5714 12.2857 17.7866 12.2857 19.2857C12.2857 20.7848 13.5009 22 15 22C16.4991 22 17.7143 20.7848 17.7143 19.2857C17.7143 17.7866 16.4991 16.5714 15 16.5714Z" fill="#333333"/>
<path d="M26.2224 3.53383C26.6687 3.08753 27.3923 3.08752 27.8386 3.53383C28.285 3.98014 28.2849 4.70375 27.8386 5.15007L24.6061 8.38257C24.1598 8.82889 23.4362 8.82889 22.9899 8.38257C22.5436 7.93625 22.5436 7.21264 22.9899 6.76632L26.2224 3.53383ZM2.19191 3.53383C2.63823 3.08752 3.36181 3.08752 3.80811 3.53383L7.04061 6.76628C7.48693 7.21261 7.48693 7.93621 7.04061 8.38253C6.59429 8.82886 5.87068 8.82886 5.42436 8.38253L2.19191 5.15004C1.7456 4.70371 1.7456 3.98014 2.19191 3.53383ZM15.0152 0C15.6464 0 16.1581 0.511675 16.1581 1.14286V5.71429C16.1581 6.34546 15.6464 6.85714 15.0152 6.85714C14.3841 6.85714 13.8724 6.34546 13.8724 5.71429V1.14286C13.8724 0.511675 14.3841 1.17807e-06 15.0152 0Z" fill="#333333"/>
</g>
<defs>
<clipPath id="clip0_3154_124">
<rect width="30" height="30" fill="white"/>
</clipPath>
</defs>
</svg>
