<svg width="30" height="30" viewBox="0 0 30 30" fill="none" xmlns="http://www.w3.org/2000/svg">
<g clip-path="url(#clip0_42_177)">
<path d="M15 30C6.71571 30 0 23.2843 0 15C0 6.71571 6.71571 0 15 0C23.2843 0 30 6.71571 30 15C30 23.2843 23.2843 30 15 30ZM15 27.7143C22.0219 27.7143 27.7143 22.0219 27.7143 15C27.7143 7.97811 22.0219 2.28571 15 2.28571C7.97811 2.28571 2.28571 7.97811 2.28571 15C2.28571 22.0219 7.97811 27.7143 15 27.7143ZM12.5471 20.9107L6.33479 14.6982C5.88846 14.2519 5.88846 13.5283 6.33479 13.082C6.78107 12.6357 7.50471 12.6357 7.951 13.082L13.3553 18.4863L22.0426 9.799C22.489 9.35268 23.2126 9.35268 23.6589 9.799C24.1052 10.2453 24.1052 10.9689 23.6589 11.4152L14.1634 20.9107C13.7171 21.357 12.9935 21.357 12.5472 20.9107H12.5471Z" fill="#333333"/>
</g>
<defs>
<clipPath id="clip0_42_177">
<rect width="30" height="30" fill="white"/>
</clipPath>
</defs>
</svg>
