<svg width="30" height="30" viewBox="0 0 30 30" fill="none" xmlns="http://www.w3.org/2000/svg">
<path d="M20 14.7143C20 11.9529 17.7614 9.71429 15 9.71429C12.2386 9.71429 10 11.9529 10 14.7143C10 17.4757 12.2386 19.7143 15 19.7143C17.7614 19.7143 20 17.4757 20 14.7143ZM17.7143 14.7143C17.7143 16.2134 16.4991 17.4286 15 17.4286C13.5009 17.4286 12.2857 16.2134 12.2857 14.7143C12.2857 13.2152 13.5009 12 15 12C16.4991 12 17.7143 13.2152 17.7143 14.7143Z" fill="#333333"/>
<path d="M14.9991 25.4286C20.944 25.4286 25.9043 21.9282 29.8798 14.9275L30 14.7143C26.0044 7.57143 21.0041 4 14.9991 4C8.99425 4 3.99454 7.57143 0 14.7143L0.120143 14.9275C4.09464 21.9282 9.05429 25.4286 14.9991 25.4286ZM14.9991 6.28571C19.604 6.28571 23.7456 8.79746 27.3537 14.7142C23.7456 20.6302 19.6061 23.1429 14.9991 23.1429C10.3923 23.1429 6.25325 20.6303 2.64614 14.7142C6.25321 8.79743 10.3944 6.28571 14.9991 6.28571Z" fill="#333333"/>
</svg>
