<svg width="30" height="30" viewBox="0 0 30 30" fill="none" xmlns="http://www.w3.org/2000/svg">
<g clip-path="url(#clip0_3102_490)">
<path d="M1.42857 0C2.21754 0 2.85714 0.639607 2.85714 1.42857V27.1429H28.5714C29.3604 27.1429 30 27.7825 30 28.5714C30 29.3604 29.3604 30 28.5714 30H1.42857C0.639607 30 0 29.3604 0 28.5714V1.42857C0 0.639607 0.639607 0 1.42857 0ZM16.3571 19.2857C16.9883 19.2857 17.5 19.7974 17.5 20.4286V21.5714C17.5 22.2026 16.9883 22.7143 16.3571 22.7143H9.35714C8.72596 22.7143 8.21429 22.2026 8.21429 21.5714V20.4286C8.21429 19.7974 8.72596 19.2857 9.35714 19.2857H16.3571ZM24.9286 11.75C25.5598 11.75 26.0714 12.2617 26.0714 12.8929V14.0357C26.0714 14.6669 25.5598 15.1786 24.9286 15.1786H9.35714C8.72596 15.1786 8.21429 14.6669 8.21429 14.0357V12.8929C8.21429 12.2617 8.72596 11.75 9.35714 11.75H24.9286ZM19.9286 4.21429C20.5597 4.21429 21.0714 4.72596 21.0714 5.35714V6.5C21.0714 7.13118 20.5597 7.64286 19.9286 7.64286H9.35714C8.72596 7.64286 8.21429 7.13118 8.21429 6.5V5.35714C8.21429 4.72596 8.72596 4.21429 9.35714 4.21429H19.9286Z" fill="#333333"/>
</g>
<defs>
<clipPath id="clip0_3102_490">
<rect width="30" height="30" fill="white"/>
</clipPath>
</defs>
</svg>
