<svg width="30" height="30" viewBox="0 0 30 30" fill="none" xmlns="http://www.w3.org/2000/svg">
<g clip-path="url(#clip0_42_217)">
<path fill-rule="evenodd" clip-rule="evenodd" d="M11.0604 6.41886C9.33438 6.41886 7.64943 6.58038 6.02257 6.88783C6.03785 6.51933 6.06258 6.20684 6.10154 5.87058C6.25529 4.54333 6.60968 3.58444 7.21575 2.93623C7.94711 2.15401 9.15096 1.70926 11.0669 1.71433C12.9894 1.71944 14.1978 2.17026 14.9308 2.95598C15.5372 3.60587 15.8903 4.56315 16.0428 5.88858C16.081 6.22037 16.1053 6.52882 16.1204 6.89202C14.4867 6.58184 12.7943 6.41886 11.0604 6.41886ZM11.0714 4.7024e-05C5.05814 -0.0158724 4.37364 4.01335 4.29572 7.27412L4.2955 7.27418C4.28571 7.68955 4.28571 8.09235 4.28571 8.4727V8.47275L4.28571 8.48244C4.28571 11.8478 6.50324 16.2763 11.064 16.2857H11.0635C5.14846 16.2857 0.0854598 19.502 0.000531215 25.4994C-0.0631831 29.9974 5.61539 30.02 11.1881 29.9974L11.3456 29.9967C12.7205 29.9913 14.0919 29.9858 15.3729 29.9087L15.3713 29.8916C15.3865 29.8925 15.4018 29.8929 15.4172 29.8929C15.8903 29.8929 16.2738 29.5091 16.2738 29.0357C16.2738 28.5623 15.8903 28.1786 15.4172 28.1786C15.3478 28.1785 15.2786 28.1869 15.2112 28.2035L15.2109 28.201C14.2047 28.2598 13.3332 28.2745 11.3425 28.2824L11.1811 28.2831C9.2181 28.2911 8.23417 28.2808 7.17007 28.2247C5.83528 28.1545 4.77046 28.0146 3.92385 27.7877C3.08785 27.5636 2.51089 27.266 2.17185 26.9137C1.85996 26.5897 1.70421 26.1703 1.71339 25.5237C1.74664 23.1751 2.68746 21.3148 4.39103 20.0017C6.06192 18.7138 8.42357 18 11.0635 18C12.1871 18 13.2616 18.1293 14.2544 18.3769C14.3682 18.4329 14.4962 18.4643 14.6315 18.4643C15.1046 18.4643 15.4881 18.0805 15.4881 17.6071C15.4881 17.1943 15.1964 16.8496 14.808 16.7682L14.8126 16.7504C13.6391 16.4438 12.3813 16.2874 11.0841 16.2857C15.6413 16.2822 17.8571 11.8466 17.8571 8.48244L17.8571 8.34651C17.857 8.0052 17.8561 7.64738 17.8475 7.27993L17.8472 7.27987C17.7698 4.0243 17.0875 0.0159738 11.0714 4.7024e-05ZM11.0604 8.13321C9.34139 8.13321 7.64835 8.304 6.00221 8.63875C6.03889 10.0115 6.52646 11.5044 7.34699 12.6191C8.26989 13.873 9.51642 14.5602 11.0732 14.5618C12.6278 14.5634 13.8728 13.8776 14.7955 12.6231C15.6152 11.5087 16.1029 10.0156 16.1405 8.64322C14.4875 8.3055 12.7871 8.13321 11.0604 8.13321ZM10.5 4.64286H9.64285V3.5H10.5V2.64286H11.6429V3.5H12.5V4.64286H11.6429V5.5H10.5V4.64286ZM25.657 23.1071H28.8285C28.5395 26.1572 26.0955 28.5796 23.0357 28.8349V25.6698C24.3578 25.448 25.4062 24.4192 25.657 23.1071ZM25.6698 21.9643H28.8349C28.5776 18.8806 26.1194 16.4224 23.0357 16.1651V19.3302C24.3817 19.556 25.444 20.6183 25.6698 21.9643ZM23.0357 20.4985C23.7492 20.689 24.311 21.2508 24.5015 21.9643H23.0357V20.4985ZM21.8929 19.343V16.1715C18.8428 16.4605 16.4204 18.9045 16.1651 21.9643H19.3302C19.552 20.6422 20.5808 19.5938 21.8929 19.343ZM20.4985 21.9643C20.6826 21.2748 21.2135 20.7269 21.8929 20.519V21.9643H20.4985ZM19.343 23.1071H16.1715C16.4582 26.1335 18.8665 28.5418 21.8929 28.8285V25.657C20.6045 25.4108 19.5892 24.3955 19.343 23.1071ZM21.8929 24.481C21.2371 24.2803 20.7197 23.7629 20.519 23.1071H21.8929V24.481ZM23.0357 24.5015V23.1071H24.481C24.2731 23.7865 23.7252 24.3174 23.0357 24.5015ZM23.0357 30H22.5054L22.5 30L22.4946 30H21.8929V29.9758C18.2349 29.6827 15.3173 26.7651 15.0242 23.1071H15V22.5V21.9643H15.0188C15.2935 18.0722 18.538 15 22.5 15C26.6421 15 30 18.3579 30 22.5C30 26.462 26.9278 29.7065 23.0357 29.9812V30Z" fill="#333333"/>
</g>
<defs>
<clipPath id="clip0_42_217">
<rect width="30" height="30" fill="white"/>
</clipPath>
</defs>
</svg>
