<svg width="30" height="30" viewBox="0 0 30 30" fill="none" xmlns="http://www.w3.org/2000/svg">
<path d="M8.64285 8.47467C8.64285 7.33296 8.64285 5.98824 8.90735 4.7101L7.28571 4.22364V7.35713C7.28571 7.67274 7.02988 7.92856 6.71428 7.92856C6.39867 7.92856 6.14285 7.67274 6.14285 7.35713V3.88078L5.27503 3.62042C4.52735 3.39614 4.52735 3.03246 5.27503 2.80814L14.0748 0.168214C14.8224 -0.0560714 16.0347 -0.0560714 16.7823 0.168214L25.5821 2.80814C26.3298 3.03243 26.3298 3.3961 25.5821 3.62042L21.9482 4.7106C22.2143 5.98696 22.2143 7.33067 22.2143 8.47463V8.48238C22.2143 11.8496 19.9943 16.2903 15.4286 16.2857C10.8628 16.281 8.64285 11.8496 8.64285 8.48238V8.47488V8.47467ZM10.379 6.89767C12.0061 6.59014 13.6913 6.42856 15.4176 6.42856C17.1517 6.42856 18.8443 6.5916 20.4782 6.90185C20.4632 6.53099 20.4387 6.21796 20.3999 5.88085C20.3727 5.64399 20.3391 5.41906 20.2987 5.20542L16.7823 6.26035C16.0347 6.48464 14.8224 6.48464 14.0748 6.26035L10.557 5.20499C10.518 5.41342 10.4853 5.63253 10.4587 5.86285C10.4191 6.20442 10.3942 6.52149 10.379 6.89767ZM16.2898 1.81021C15.8634 1.68232 14.9937 1.68232 14.5673 1.81021L9.88713 3.21428L14.5673 4.61835C14.9937 4.74624 15.8634 4.74624 16.2898 4.61835L20.97 3.21428L16.2898 1.81021ZM11.7041 12.6288C12.627 13.8826 13.8736 14.5698 15.4303 14.5714C16.9849 14.573 18.2299 13.8872 19.1526 12.6328C19.9723 11.5183 20.46 10.0252 20.4976 8.65288C18.8447 8.31517 17.1443 8.14285 15.4176 8.14285C13.6985 8.14285 12.0055 8.31363 10.3593 8.64842C10.396 10.0212 10.8836 11.514 11.7041 12.6288ZM26.1264 25.4994C26.1626 29.9974 20.6777 29.975 15.1881 29.9974C9.61538 30.02 3.93682 29.9974 4.00053 25.4994C4.08546 19.502 9.14845 16.2857 15.0634 16.2857C20.9784 16.2857 26.0781 19.5018 26.1264 25.4994V25.4994ZM24.4134 25.5132C24.3945 23.1722 23.4586 21.3159 21.7511 20.0028C20.0765 18.7149 17.7057 18 15.0634 18C12.4236 18 10.0619 18.7137 8.39103 20.0017C6.68746 21.3148 5.74664 23.1751 5.71339 25.5237C5.70421 26.1703 5.85996 26.5897 6.17185 26.9137C6.51089 27.266 7.08785 27.5636 7.92385 27.7876C8.77045 28.0146 9.83527 28.1544 11.1701 28.2247C12.2342 28.2807 13.2181 28.291 15.1811 28.283L15.3425 28.2824C17.3462 28.2744 18.216 28.2596 19.2306 28.1998C20.5131 28.1243 21.5267 27.9834 22.3284 27.7591C23.1137 27.5394 23.6507 27.2516 23.9673 26.9108C24.2653 26.59 24.4187 26.1656 24.4134 25.5132V25.5132Z" fill="#333333"/>
</svg>
