<svg width="30" height="30" viewBox="0 0 30 30" fill="none" xmlns="http://www.w3.org/2000/svg">
<g clip-path="url(#clip0_42_111)">
<path d="M16 27.7143C16.6312 27.7143 17.1429 28.226 17.1429 28.8571C17.1429 29.4883 16.6312 30 16 30H1.14286C0.511678 30 0 29.4883 0 28.8571C0 28.226 0.511678 27.7143 1.14286 27.7143H16ZM23.5 18.4643C24.1312 18.4643 24.6429 18.976 24.6429 19.6071C24.6429 20.2383 24.1312 20.75 23.5 20.75H1.14286C0.511678 20.75 0 20.2383 0 19.6071C0 18.976 0.511678 18.4643 1.14286 18.4643H23.5ZM16 9.25C16.6312 9.25 17.1429 9.76168 17.1429 10.3929C17.1429 11.024 16.6312 11.5357 16 11.5357H1.14286C0.511678 11.5357 0 11.024 0 10.3929C0 9.76168 0.511678 9.25 1.14286 9.25H16ZM28.8571 0C29.4883 0 30 0.511678 30 1.14286C30 1.77404 29.4883 2.28571 28.8571 2.28571H1.14286C0.511678 2.28571 0 1.77404 0 1.14286C0 0.511678 0.511678 0 1.14286 0H28.8571Z" fill="#333333"/>
</g>
<defs>
<clipPath id="clip0_42_111">
<rect width="30" height="30" fill="white"/>
</clipPath>
</defs>
</svg>
