<svg width="30" height="30" viewBox="0 0 30 30" fill="none" xmlns="http://www.w3.org/2000/svg">
<g clip-path="url(#clip0_1505_120)">
<path d="M16.0371 1.16036C16.5797 1.73314 16.5552 2.63732 15.9825 3.17993L5.01367 13.5714H28.5714C29.3604 13.5714 30 14.211 30 15C30 15.789 29.3604 16.4286 28.5714 16.4286H5.01367L15.9825 26.8201C16.5552 27.3627 16.5797 28.2669 16.0371 28.8396C15.4945 29.4124 14.5903 29.4368 14.0175 28.8942L0.446061 16.0371C0.305158 15.9036 0.192936 15.7428 0.116245 15.5645C0.0395529 15.3862 0 15.1941 0 15C0 14.8059 0.0395529 14.6138 0.116245 14.4355C0.192936 14.2572 0.305158 14.0964 0.446061 13.9629L14.0175 1.10578C14.5902 0.563177 15.4945 0.587606 16.0371 1.16036Z" fill="#333333"/>
</g>
<defs>
<clipPath id="clip0_1505_120">
<rect width="30" height="30" fill="white"/>
</clipPath>
</defs>
</svg>
