<svg width="30" height="30" viewBox="0 0 30 30" fill="none" xmlns="http://www.w3.org/2000/svg">
<path fill-rule="evenodd" clip-rule="evenodd" d="M17.0668 19.3131L16.2716 21.2747H13.0907L12.2954 19.3131C12.2226 19.0745 12.4853 18.889 12.7196 18.889H16.6427C16.877 18.889 17.1397 19.0745 17.0668 19.3131ZM13.68 21.7137H15.6975C15.9001 21.7137 16.0338 21.8819 16.0644 22.0806L17.44 28.4318L14.6888 29.9941L11.9223 28.4318L13.3132 22.0806C13.3437 21.8819 13.4774 21.7137 13.68 21.7137ZM13.2192 27.8517L14.6872 28.6808L16.1453 27.8528L15.0631 22.8565H14.3131L13.2192 27.8517ZM17.8437 24.6965L17.2705 25.6887L16.4209 22.0411L17.8437 24.6965ZM22.1951 7.52977C22.1951 11.6884 18.8239 15.0595 14.6653 15.0595C10.5068 15.0595 7.13554 11.6883 7.13554 7.52977C7.13554 3.37119 10.5068 0 14.6653 0C18.8239 0 22.1951 3.37119 22.1951 7.52977ZM14.6653 2.28554C13.2646 2.28554 11.9476 2.83105 10.9571 3.82156C9.96662 4.81203 9.42112 6.12899 9.42112 7.52973C9.42112 8.9305 9.96662 10.2474 10.9571 11.2379C11.9476 12.2284 13.2645 12.7739 14.6653 12.7739C16.0661 12.7739 17.383 12.2284 18.3735 11.2379C19.364 10.2474 19.9095 8.9305 19.9095 7.52973C19.9095 6.12896 19.364 4.81203 18.3735 3.82152C17.383 2.83101 16.0661 2.28554 14.6653 2.28554ZM23.621 18.9303C24.7838 20.0932 25.6969 21.4475 26.3348 22.9558C26.9956 24.518 27.3306 26.1768 27.3306 27.8861C27.3306 28.2419 27.3158 28.5976 27.2862 28.9522C27.2365 29.5487 26.7368 29.9999 26.1487 30C26.1168 30 26.0847 29.9987 26.0524 29.996C25.4234 29.9435 24.9561 29.3911 25.0086 28.7621C25.0328 28.4724 25.045 28.1777 25.045 27.8861C25.045 25.1136 23.9653 22.507 22.0048 20.5465C20.0443 18.586 17.4378 17.5063 14.6653 17.5063C11.8927 17.5063 9.28614 18.586 7.32568 20.5465C5.36523 22.507 4.28554 25.1136 4.28554 27.8861C4.28555 28.1785 4.29768 28.4707 4.3219 28.7621C4.37439 29.391 3.90703 29.9434 3.27807 29.9959C2.64918 30.048 2.09671 29.581 2.04425 28.9521C2.01489 28.5998 2 28.2411 2 27.886C2 26.1768 2.33502 24.518 2.99576 22.9558C3.63372 21.4475 4.54678 20.0932 5.70956 18.9303C6.87235 17.7676 8.22674 16.8545 9.73504 16.2165C11.2972 15.5558 12.956 15.2207 14.6653 15.2207C16.3746 15.2207 18.0334 15.5558 19.5956 16.2165C21.1039 16.8545 22.4582 17.7675 23.621 18.9303Z" fill="#333333"/>
</svg>
