<svg width="30" height="30" viewBox="0 0 30 30" fill="none" xmlns="http://www.w3.org/2000/svg">
<g clip-path="url(#clip0_42_244)">
<path d="M10.5 4.64286H9.64285V3.5H10.5V2.64286H11.6429V3.5H12.5V4.64286H11.6429V5.5H10.5V4.64286Z" fill="#333333"/>
<path fill-rule="evenodd" clip-rule="evenodd" d="M11.0714 4.70242e-05C5.05814 -0.0158724 4.37364 4.01335 4.29572 7.27412C4.28594 7.68949 4.28571 8.09235 4.28571 8.4727L4.28571 8.48244C4.28571 11.8476 6.50295 16.2757 11.0631 16.2857C5.14826 16.2858 0.0854581 19.5022 0.000531215 25.4994C-0.0631831 29.9974 5.61539 30.02 11.1881 29.9974L11.3456 29.9967C12.7205 29.9913 14.0919 29.9858 15.3729 29.9087L15.3713 29.8916C15.3865 29.8925 15.4019 29.8929 15.4172 29.8929C15.8903 29.8929 16.2738 29.5091 16.2738 29.0357C16.2738 28.5623 15.8903 28.1786 15.4172 28.1786C15.3478 28.1785 15.2786 28.1869 15.2112 28.2035L15.2109 28.201C14.2047 28.2598 13.3332 28.2745 11.3425 28.2824L11.1811 28.2831C9.2181 28.2911 8.23417 28.2808 7.17007 28.2247C5.83528 28.1545 4.77046 28.0146 3.92385 27.7877C3.08785 27.5636 2.51089 27.266 2.17185 26.9137C1.85996 26.5897 1.70421 26.1703 1.71339 25.5237C1.74664 23.1751 2.68746 21.3148 4.39103 20.0017C6.06192 18.7138 8.42357 18 11.0635 18C12.1872 18 13.2619 18.1293 14.2547 18.3771C14.372 18.4346 14.5009 18.4645 14.6315 18.4643C15.1046 18.4643 15.4881 18.0805 15.4881 17.6071C15.4881 17.1943 15.1964 16.8496 14.808 16.7682L14.8126 16.7504C13.6407 16.4442 12.3848 16.2878 11.0894 16.2857C15.643 16.2787 17.8571 11.8453 17.8571 8.48244L17.8571 8.34651C17.857 8.0052 17.8561 7.64738 17.8475 7.27993C17.7701 4.02436 17.0875 0.0159738 11.0714 4.70242e-05ZM11.0604 6.41886C9.33438 6.41886 7.64943 6.58038 6.02257 6.88783C6.03785 6.51933 6.06258 6.20684 6.10154 5.87058C6.25529 4.54333 6.60968 3.58444 7.21575 2.93623C7.94711 2.15401 9.15096 1.70926 11.0669 1.71433C12.9894 1.71944 14.1978 2.17026 14.9308 2.95598C15.5372 3.60587 15.8903 4.56315 16.0428 5.88858C16.081 6.22037 16.1053 6.52882 16.1204 6.89202C14.4867 6.58184 12.7943 6.41886 11.0604 6.41886ZM11.0604 8.13321C9.34139 8.13321 7.64835 8.304 6.00221 8.63875C6.03889 10.0115 6.52646 11.5044 7.347 12.6191C8.26989 13.873 9.51643 14.5602 11.0732 14.5618C12.6278 14.5634 13.8728 13.8776 14.7955 12.6231C15.6152 11.5087 16.1029 10.0156 16.1405 8.64322C14.4875 8.3055 12.7871 8.13321 11.0604 8.13321Z" fill="#333333"/>
<path d="M28.8571 17.8929H17.3929C16.631 17.8929 16.25 18.2738 16.25 19.0357C16.25 19.7976 16.631 20.1786 17.3929 20.1786H28.8571C29.619 20.1786 30 19.7976 30 19.0357C30 18.2738 29.619 17.8929 28.8571 17.8929Z" fill="#333333"/>
<path d="M17.3929 21.9286H26C26.7619 21.9286 27.1429 22.3095 27.1429 23.0714C27.1429 23.8333 26.7619 24.2143 26 24.2143H17.3929C16.631 24.2143 16.25 23.8333 16.25 23.0714C16.25 22.3095 16.631 21.9286 17.3929 21.9286Z" fill="#333333"/>
<path d="M23.1429 25.9286H17.3929C16.631 25.9286 16.25 26.3095 16.25 27.0714C16.25 27.8333 16.631 28.2143 17.3929 28.2143H23.1429C23.9048 28.2143 24.2857 27.8333 24.2857 27.0714C24.2857 26.3095 23.9048 25.9286 23.1429 25.9286Z" fill="#333333"/>
</g>
<defs>
<clipPath id="clip0_42_244">
<rect width="30" height="30" fill="white"/>
</clipPath>
</defs>
</svg>
