<svg width="30" height="30" viewBox="0 0 30 30" fill="none" xmlns="http://www.w3.org/2000/svg">
<g clip-path="url(#clip0_2293_11)">
<path d="M27.7714 0.000714287L27.7731 0V0.000714287C29.0082 0.0319996 29.9999 1.04306 29.9999 2.28569V15.9998H27.7142V2.58283L16.586 6.9636C16.4493 7.01792 16.3005 7.06445 16.1429 7.10317V29.9997H14.5474C14.5474 29.9991 14.095 29.9982 13.1902 29.997C13.1902 28.6243 12.469 27.6369 10.8465 26.9074C9.01353 26.0832 6.12321 25.6728 2.25022 25.7121V25.7092C1.00434 25.6901 0.000244141 24.6742 0.000244141 23.4238V2.28569C0.000244141 1.03527 1.00434 0.0193569 2.25022 0.000285703V0L2.25086 0.00024999C2.26254 7.14258e-05 2.27422 0 2.28593 0V0.0147141L13.9867 4.84002C14.3953 5.00248 15.3329 5.00248 15.7415 4.84002L27.7142 0.0236426V0C27.7333 0 27.7524 0.00024999 27.7714 0.000714287ZM2.28593 2.57411V23.4265C6.44281 23.3872 9.59946 23.8409 11.784 24.8231C12.6084 25.1939 13.3019 25.6455 13.8572 26.1731V7.16081C13.5981 7.11403 13.3553 7.04831 13.1422 6.9636L2.28593 2.57411ZM6.00039 15.9973C8.04922 16.4078 10.0569 16.9653 12.0036 17.6642V19.9977C10.0758 19.2532 8.06319 18.6944 6.00039 18.3309V15.9973ZM6.00039 9.99664C8.04922 10.4072 10.0569 10.9647 12.0036 11.6635V13.9971C10.0759 13.2525 8.06322 12.6937 6.00039 12.3302V9.99664ZM24.0101 12.3302C21.9473 12.6936 19.9346 13.2525 18.0069 13.9971V11.6634C19.9536 10.9646 21.9613 10.4072 24.0101 9.99664V12.3302ZM24.039 15.9998V18.3334C21.9762 18.6968 19.9635 19.2556 18.0358 20.0003V17.6666C19.9824 16.9678 21.9902 16.4103 24.039 15.9998Z" fill="#333333"/>
<path d="M29.3452 18.8076L17.2162 23.5634C16.5326 23.8314 16.5498 24.2209 17.251 24.4324L20.1816 25.316L21.3732 28.9187C21.5292 29.3903 21.9367 29.4898 22.2853 29.1389L23.8226 27.5915L26.857 29.8511C27.2513 30.1446 27.6566 29.9901 27.763 29.5029L29.9773 19.3641C30.0835 18.8782 29.8008 18.6289 29.3452 18.8076ZM27.4994 21.0999L22.3258 25.7838C22.2328 25.8681 22.1486 26.035 22.1357 26.1585L21.9073 28.3405C21.8816 28.5855 21.7985 28.5956 21.7218 28.3608L20.7207 25.2945C20.6816 25.1746 20.7352 25.0275 20.8398 24.9638L27.4009 20.9649C27.819 20.7101 27.8635 20.7703 27.4994 21.0999Z" fill="#333333"/>
</g>
<defs>
<clipPath id="clip0_2293_11">
<rect width="30" height="30" fill="white"/>
</clipPath>
</defs>
</svg>
