<svg width="30" height="30" viewBox="0 0 30 30" fill="none" xmlns="http://www.w3.org/2000/svg">
<g clip-path="url(#clip0_42_211)">
<path fill-rule="evenodd" clip-rule="evenodd" d="M3.25548 0H26.7445C28.5396 0 30 1.45882 30 3.25193V15.0357C30 15.6669 29.4878 16.1786 28.8559 16.1786C28.224 16.1786 27.7118 15.6669 27.7118 15.0357V3.25193C27.7118 2.71918 27.2779 2.28571 26.7445 2.28571H3.25548C2.72212 2.28571 2.28819 2.71918 2.28819 3.25193V20.7838C2.28819 21.3165 2.72212 21.75 3.25548 21.75H8.53197C9.16383 21.75 9.67607 22.2617 9.67607 22.8929C9.67607 23.524 9.16383 24.0357 8.53197 24.0357H3.25548C1.4604 24.0357 0 22.5769 0 20.7838V3.25193C0 1.45882 1.4604 0 3.25548 0ZM11.4637 28.0985L14.0301 5.2211L29.9618 21.8606L22.9095 21.5033L25.0921 27.9572L19.0381 30L16.8571 23.5505L11.4637 28.0985ZM22.4203 26.6361L20.4174 20.7134C20.2311 20.1624 20.5271 19.565 21.0786 19.3789C21.2067 19.3356 21.3419 19.3174 21.4769 19.3253L21.4771 19.3223L24.822 19.4917L15.6445 9.99506L14.1117 23.1099L16.6192 20.9954C16.7328 20.8833 16.8705 20.7986 17.0219 20.7478C17.5734 20.5617 18.1715 20.8574 18.3578 21.4084L20.3607 27.3311L22.4203 26.6361Z" fill="#333333"/>
</g>
<defs>
<clipPath id="clip0_42_211">
<rect width="30" height="30" fill="white"/>
</clipPath>
</defs>
</svg>
