<svg width="30" height="30" viewBox="0 0 30 30" fill="none" xmlns="http://www.w3.org/2000/svg">
<g clip-path="url(#clip0_42_255)">
<path d="M2.85714 2.28571C2.54154 2.28571 2.28571 2.54154 2.28571 2.85714V10C2.28571 10.3156 2.54154 10.5714 2.85714 10.5714H10C10.3156 10.5714 10.5714 10.3156 10.5714 10V2.85714C10.5714 2.54154 10.3156 2.28571 10 2.28571H2.85714ZM2.26539 19.8214C3.00018 24.3775 6.95089 27.8571 11.7143 27.8571C12.3455 27.8571 12.8571 27.3455 12.8571 26.7143C12.8571 26.0831 12.3455 25.5714 11.7143 25.5714C8.21732 25.5714 5.29579 23.1077 4.59071 19.8214H6.42857L3.21429 15L0 19.8214H2.26539ZM27.7346 10.1786C26.9998 5.6225 23.0491 2.14286 18.2857 2.14286C17.6545 2.14286 17.1429 2.65454 17.1429 3.28571C17.1429 3.91689 17.6545 4.42857 18.2857 4.42857C21.7827 4.42857 24.7042 6.89225 25.4093 10.1786H23.5714L26.7857 15L30 10.1786H27.7346H27.7346ZM2.85714 0H10C11.578 0 12.8571 1.27918 12.8571 2.85714V10C12.8571 11.578 11.578 12.8571 10 12.8571H2.85714C1.27918 12.8571 0 11.578 0 10V2.85714C0 1.27918 1.27918 0 2.85714 0ZM20 17.1429H27.1429C28.7208 17.1429 30 18.422 30 20V27.1429C30 28.7208 28.7208 30 27.1429 30H20C18.422 30 17.1429 28.7208 17.1429 27.1429V20C17.1429 18.422 18.422 17.1429 20 17.1429ZM20 19.4286C19.6844 19.4286 19.4286 19.6844 19.4286 20V27.1429C19.4286 27.4585 19.6844 27.7143 20 27.7143H27.1429C27.4585 27.7143 27.7143 27.4585 27.7143 27.1429V20C27.7143 19.6844 27.4585 19.4286 27.1429 19.4286H20Z" fill="#333333"/>
</g>
<defs>
<clipPath id="clip0_42_255">
<rect width="30" height="30" fill="white"/>
</clipPath>
</defs>
</svg>
