<svg width="30" height="30" viewBox="0 0 30 30" fill="none" xmlns="http://www.w3.org/2000/svg">
<g clip-path="url(#clip0_42_108)">
<path fill-rule="evenodd" clip-rule="evenodd" d="M19.2857 9.71428V22.4286C19.2857 23.0597 18.774 23.5714 18.1429 23.5714C17.5116 23.5714 17 23.0597 17 22.4286V9.71428C17 9.08311 17.5116 8.57143 18.1429 8.57143C18.774 8.57143 19.2857 9.08311 19.2857 9.71428ZM23.5714 4.14286H28.8571C29.4883 4.14286 30 4.65454 30 5.28571C30 5.91689 29.4883 6.42857 28.8571 6.42857H1.14286C0.511643 6.42857 0 5.91689 0 5.28571C0 4.65454 0.511643 4.14286 1.14286 4.14286H6.42857V3.42857C6.42857 1.535 7.96357 0 9.85714 0H20.1429C22.0364 0 23.5714 1.535 23.5714 3.42857V4.14286ZM8.71428 4.14286H21.2857V3.42857C21.2857 2.79739 20.774 2.28571 20.1429 2.28571H9.85714C9.22593 2.28571 8.71428 2.79739 8.71428 3.42857V4.14286ZM24.6429 8.57143C24.0116 8.57143 23.5 9.08311 23.5 9.71428V25.6217C23.5 26.7888 22.6159 27.7143 21.552 27.7143H8.448C7.38414 27.7143 6.5 26.7888 6.5 25.6217V9.71428C6.5 9.08311 5.98832 8.57143 5.35714 8.57143C4.72593 8.57143 4.21429 9.08311 4.21429 9.71428V25.6217C4.21429 28.0284 6.09782 30 8.448 30H21.552C23.9022 30 25.7857 28.0284 25.7857 25.6217V9.71428C25.7857 9.08311 25.274 8.57143 24.6429 8.57143ZM13 22.4286V9.71428C13 9.08311 12.4883 8.57143 11.8571 8.57143C11.2259 8.57143 10.7143 9.08311 10.7143 9.71428V22.4286C10.7143 23.0597 11.2259 23.5714 11.8571 23.5714C12.4883 23.5714 13 23.0597 13 22.4286Z" fill="#333333"/>
</g>
<defs>
<clipPath id="clip0_42_108">
<rect width="30" height="30" fill="white"/>
</clipPath>
</defs>
</svg>
