<svg width="30" height="30" viewBox="0 0 30 30" fill="none" xmlns="http://www.w3.org/2000/svg">
<path fill-rule="evenodd" clip-rule="evenodd" d="M27.8929 2.71429C27.8929 1.7675 27.0009 1 25.9005 1H1.99236L1.95939 1.00021C0.874286 1.01536 0 1.77696 0 2.71429C0 3.66107 0.892 4.42857 1.99236 4.42857H12.2634L12.25 26.8996L12.2502 26.9326C12.2646 28.0175 13.0226 28.8921 13.956 28.8929C14.8988 28.8936 15.6637 28.0025 15.6644 26.9024L15.6778 4.42857H25.9005L25.9335 4.42836C27.0186 4.41321 27.8929 3.65161 27.8929 2.71429ZM30 21.2857C30 20.6545 29.5888 20.1429 29.0816 20.1429H18.0612L18.0461 20.143C17.5459 20.1531 17.1429 20.6609 17.1429 21.2857C17.1429 21.9169 17.554 22.4286 18.0612 22.4286H29.0816L29.0968 22.4284C29.597 22.4183 30 21.9106 30 21.2857ZM30 27.7143C30 27.0831 29.5888 26.5714 29.0816 26.5714H18.0612L18.0461 26.5716C17.5459 26.5817 17.1429 27.0894 17.1429 27.7143C17.1429 28.3455 17.554 28.8571 18.0612 28.8571H29.0816L29.0968 28.857C29.597 28.8469 30 28.3391 30 27.7143Z" fill="#333333"/>
</svg>
