<svg width="30" height="30" viewBox="0 0 30 30" fill="none" xmlns="http://www.w3.org/2000/svg">
<path fill-rule="evenodd" clip-rule="evenodd" d="M27.742 19.0041V6.6998C27.742 4.18587 25.704 2.14796 23.1902 2.14796H17.018V0.565701C17.018 0.25328 16.7648 0 16.4523 0H13.3055C12.9931 0 12.7398 0.25328 12.7398 0.565701V2.14796H6.55185C4.03795 2.14796 2 4.18591 2 6.6998V19.0041C2 21.518 4.03795 23.5559 6.55185 23.5559H12.9898L2.53624 28.3599C2.10507 28.5581 1.91616 29.0682 2.11431 29.4994C2.25904 29.8143 2.57025 30 2.89556 30C3.01559 30 3.13756 29.9747 3.25376 29.9213L13.6693 25.1348L13.635 27.3327C13.6251 27.9653 14.1299 28.4862 14.7625 28.4961L14.7807 28.4962C15.4051 28.4962 15.916 27.9951 15.9258 27.3685L15.9617 25.0704L26.5173 29.9213C26.6296 29.9731 26.7518 30 26.8755 30C27.2008 30 27.512 29.8143 27.6568 29.4994C27.8549 29.0682 27.666 28.5581 27.2348 28.3599L16.7812 23.5559H23.1902C25.704 23.5559 27.742 21.518 27.742 19.0041ZM4.29116 19.0041V6.6998C4.29116 5.45327 5.30531 4.43911 6.55185 4.43911H10.5918V4.95641C10.5918 5.26887 10.8472 5.52222 11.1623 5.52222H18.5775C18.8925 5.52222 19.1479 5.26887 19.1479 4.95641V4.43911H23.1902C24.4368 4.43911 25.4509 5.45327 25.4509 6.6998V19.0041C25.4509 20.2506 24.4368 21.2648 23.1902 21.2648H6.55185C5.30531 21.2648 4.29116 20.2507 4.29116 19.0041ZM21.4748 10.2744H8.22908C7.75456 10.2744 7.3699 9.88974 7.3699 9.41522C7.3699 8.9407 7.75456 8.55604 8.22908 8.55604H21.4748C21.9493 8.55604 22.334 8.9407 22.334 9.41522C22.334 9.88974 21.9493 10.2744 21.4748 10.2744ZM21.4748 14.5703H8.22908C7.75456 14.5703 7.3699 14.1857 7.3699 13.7111C7.3699 13.2366 7.75456 12.852 8.22908 12.852H21.4748C21.9493 12.852 22.334 13.2366 22.334 13.7111C22.334 14.1857 21.9493 14.5703 21.4748 14.5703ZM8.22908 18.8662H16.5703C17.0448 18.8662 17.4295 18.4816 17.4295 18.0071C17.4295 17.5325 17.0448 17.1479 16.5703 17.1479H8.22908C7.75456 17.1479 7.3699 17.5325 7.3699 18.0071C7.3699 18.4816 7.75456 18.8662 8.22908 18.8662Z" fill="#333333"/>
</svg>
