<svg width="30" height="30" viewBox="0 0 30 30" fill="none" xmlns="http://www.w3.org/2000/svg">
<path d="M28.2857 2.4286C29.2325 2.4286 30 3.1961 30 4.14288V26.4286C30 27.3754 29.2325 28.1429 28.2857 28.1429H23.8571C22.9104 28.1429 22.1429 27.3754 22.1429 26.4286V4.14288C22.1429 3.1961 22.9104 2.4286 23.8571 2.4286H28.2857ZM27.7143 22.8572H24.4286V25.8572H27.7143V22.8572ZM27.7143 4.71431H24.4286V20.5714H27.7143V4.71431ZM19 2.4286C19.9468 2.4286 20.7143 3.1961 20.7143 4.14288V26.4286C20.7143 27.3754 19.9468 28.1429 19 28.1429H14.5714C13.6247 28.1429 12.8572 27.3754 12.8572 26.4286V4.14288C12.8572 3.1961 13.6247 2.4286 14.5714 2.4286H19ZM18.4286 22.8572H15.1429V25.8572H18.4286V22.8572ZM18.4286 4.71431H15.1429V20.5714H18.4286V4.71431ZM5.64412 28.0958C6.56662 28.3088 7.48712 27.7336 7.70008 26.8111L12.7133 5.09653C12.9263 4.17403 12.3511 3.25353 11.4286 3.04056L7.11351 2.04431C6.19101 1.83135 5.27051 2.40653 5.05751 3.32903L0.0442996 25.0436C-0.168629 25.9661 0.406549 26.8866 1.32905 27.0996L5.64412 28.0958ZM9.68276 8.06224L6.48126 7.32313L7.15608 4.40003L10.3576 5.13913L9.68272 8.06224H9.68276ZM5.60151 25.7401L2.40001 25.001L5.96708 9.55027L9.16858 10.2894L5.60151 25.7401Z" fill="#333333"/>
</svg>
