<svg width="30" height="30" viewBox="0 0 30 30" fill="none" xmlns="http://www.w3.org/2000/svg">
<path d="M28.6799 22.4817C28.256 22.4817 27.8853 22.7037 27.6721 23.0361C26.7577 24.3231 25.3957 25.4188 23.5792 26.3214C21.739 27.2359 19.4572 27.6935 16.7344 27.6935C14.1876 27.6935 11.8663 27.2542 9.77225 26.3764C7.67704 25.4979 6.07661 24.1383 4.96964 22.2987C3.86272 20.4591 3.30893 18.2659 3.30893 15.7185C3.30893 13.2862 3.86272 11.0073 4.96964 8.88145C6.07657 6.75556 7.63574 5.12377 9.64768 3.98495C11.6585 2.84673 13.8806 2.27761 16.3123 2.27761C18.443 2.27761 20.3906 2.72985 22.1528 3.63429C23.9151 4.53873 25.2399 5.74424 26.1283 7.25145C27.0175 8.75928 27.4614 10.381 27.4614 12.1161C27.4614 13.6038 27.1155 15.0455 26.4247 16.4434C25.7328 17.8414 24.7953 18.956 23.6099 19.7879C22.716 20.4219 21.9934 20.7384 21.442 20.7384C21.141 20.7384 20.8841 20.6374 20.6704 20.4349C20.4573 20.2318 20.351 19.9897 20.351 19.7093C20.351 19.5529 20.5069 18.7477 20.818 17.2924L22.9398 7.40906L22.9351 7.40849C22.9546 7.31639 22.9664 7.22192 22.9664 7.12391C22.9664 6.37358 22.3583 5.76551 21.6067 5.76551C20.9573 5.76551 20.4154 6.22247 20.282 6.83229L20.2725 6.82993L19.7424 9.24688C19.1508 8.27986 18.443 7.56081 17.6218 7.08733C16.8006 6.61443 15.938 6.3783 15.0342 6.3783C13.8487 6.3783 12.6267 6.79392 11.3698 7.62514C10.1117 8.45696 9.0591 9.70205 8.21133 11.3598C7.36474 13.0181 6.94086 14.673 6.94086 16.326C6.94086 17.6667 7.21421 18.8988 7.7597 20.0211C8.30641 21.1439 9.01545 21.9758 9.88796 22.5165C10.7605 23.0573 11.6603 23.3271 12.5859 23.3271C13.4278 23.3271 14.2673 23.0909 15.1033 22.6181C15.9404 22.1452 16.6966 21.5188 17.3726 20.7384C17.4346 21.3724 17.5338 21.8199 17.669 22.0791C17.8768 22.4853 18.2015 22.7964 18.6431 23.0148C19.0847 23.2333 19.6644 23.3425 20.3817 23.3425C22.6269 23.3425 24.6955 22.2928 26.5877 20.1929C28.7082 17.8544 29.768 15.1777 29.768 12.1627C29.768 10.0527 29.2638 8.09804 28.256 6.29978C27.0706 4.21046 25.4518 2.63831 23.3979 1.58277C21.3452 0.528327 19.0304 0 16.4516 0C13.1249 0 10.2953 0.749155 7.96162 2.24575C5.62787 3.74227 3.82667 5.89953 2.55917 8.71673C1.51953 11.0144 1 13.4308 1 15.967C1 18.2435 1.43629 20.3641 2.31002 22.3282C3.00608 23.8773 4.04039 25.2464 5.41241 26.4372C6.78443 27.6273 8.44511 28.5182 10.3945 29.1109C12.3433 29.7037 14.4716 30 16.7787 30C19.2842 30 21.4255 29.6694 23.2025 29.0094C24.9807 28.3493 26.5138 27.4526 27.8032 26.3197C28.5394 25.672 29.1522 25.0309 29.641 24.3969C29.6463 24.3898 29.6458 24.3833 29.6499 24.3762C29.7916 24.179 29.8772 23.9393 29.8772 23.6784C29.879 23.0189 29.3423 22.4817 28.6799 22.4817ZM18.2936 16.3348C17.9187 17.3898 17.4382 18.2606 16.8513 18.9466C16.2645 19.6326 15.6476 20.1504 15.0041 20.4986C14.3582 20.847 13.746 21.0211 13.1639 21.0211C12.2907 21.0211 11.5162 20.6256 10.8402 19.8357C10.1643 19.0458 9.82657 17.9389 9.82657 16.5149C9.82657 15.6205 9.99247 14.6381 10.326 13.5678C10.6578 12.4974 11.1 11.5877 11.6508 10.8391C12.2016 10.0905 12.7701 9.54737 13.3587 9.20969C13.9456 8.87201 14.5719 8.70317 15.2373 8.70317C16.2462 8.70317 17.1005 9.0928 17.803 9.87207C18.5044 10.6514 18.8557 11.7489 18.8557 13.1616C18.855 14.2225 18.6673 15.2798 18.2936 16.3348Z" fill="#333333"/>
</svg>
