<svg width="30" height="30" viewBox="0 0 30 30" fill="none" xmlns="http://www.w3.org/2000/svg">
<g clip-path="url(#clip0_42_138)">
<path d="M13.9289 15.0313C13.9218 14.7301 14.0327 14.4267 14.2615 14.1968L28.0598 0.334427C28.5037 -0.111466 29.2233 -0.111466 29.6671 0.334427C30.111 0.780321 30.111 1.50329 29.6671 1.94921L16.664 15.0127L29.6419 28.0508C30.0857 28.4967 30.0857 29.2197 29.6419 29.6656C29.198 30.1115 28.4784 30.1115 28.0346 29.6656L14.2617 15.8288C14.0423 15.6084 13.9314 15.3202 13.9289 15.0313H13.9289ZM0.000318022 15.0313C-0.00675341 14.7301 0.104104 14.4267 0.33289 14.1968L14.1312 0.334427C14.5751 -0.111466 15.2947 -0.111466 15.7385 0.334427C16.1824 0.780321 16.1824 1.50329 15.7385 1.94921L2.73543 15.0127L15.7133 28.0508C16.1571 28.4967 16.1571 29.2197 15.7133 29.6656C15.2695 30.1115 14.5498 30.1115 14.106 29.6656L0.33314 15.8288C0.113747 15.6084 0.00278227 15.3202 0.000282259 15.0313H0.000318022Z" fill="#333333"/>
</g>
<defs>
<clipPath id="clip0_42_138">
<rect width="30" height="30" fill="white"/>
</clipPath>
</defs>
</svg>
