<svg width="30" height="30" viewBox="0 0 30 30" fill="none" xmlns="http://www.w3.org/2000/svg">
<g clip-path="url(#clip0_42_278)">
<path fill-rule="evenodd" clip-rule="evenodd" d="M12.1743 15.0005C13.1932 15.0076 14.1414 15.0899 15.0214 15.236L15.0182 15.2551C15.5019 15.3882 15.8571 15.8312 15.8571 16.3571C15.8571 16.9883 15.3455 17.5 14.7143 17.5C14.5954 17.5 14.4808 17.4819 14.373 17.4482C13.6756 17.3464 12.9373 17.2916 12.1584 17.2861C9.82711 17.2699 7.86865 17.701 6.29615 18.4983C4.95018 19.1807 3.91579 20.1198 3.22218 21.2175C2.61133 22.1841 2.29386 23.2356 2.28586 24.192C2.27908 25.0005 2.49386 25.6439 2.83093 26.0158C2.84411 26.0303 2.87286 26.0562 2.91815 26.0905C2.98429 26.1406 3.06979 26.1959 3.17393 26.2544C3.42075 26.393 3.74497 26.5341 4.13704 26.6696C4.9759 26.9596 6.06593 27.2045 7.32576 27.3838C9.83379 27.7408 12.8235 27.8124 15.5035 27.5799C15.5286 27.5768 15.5537 27.5746 15.5789 27.5732L15.6178 27.5698L15.618 27.5717L15.6429 27.5714C16.274 27.5714 16.7857 28.0831 16.7857 28.7143C16.7857 29.2841 16.3686 29.7566 15.8231 29.843L15.8234 29.8462C10.0651 30.3662 2.95765 29.5594 1.13725 27.5507C-1.88267 24.2184 0.885219 14.9218 12.1743 15.0005ZM12.1429 0C16.1469 0 19.3929 3.24593 19.3929 7.25C19.3929 11.2541 16.1469 14.5 12.1429 14.5C8.13879 14.5 4.89286 11.2541 4.89286 7.25C4.89286 3.24593 8.13879 0 12.1429 0ZM12.1429 2.28571C9.40115 2.28571 7.17858 4.50829 7.17858 7.25C7.17858 9.99171 9.40115 12.2143 12.1429 12.2143C14.8846 12.2143 17.1071 9.99171 17.1071 7.25C17.1071 4.50829 14.8846 2.28571 12.1429 2.28571ZM22.5 15C26.6421 15 30 18.3579 30 22.5C30 26.6421 26.6421 30 22.5 30C18.3579 30 15 26.6421 15 22.5C15 18.3579 18.3579 15 22.5 15ZM22.5 17.2857C19.6202 17.2857 17.2857 19.6202 17.2857 22.5C17.2857 25.3798 19.6202 27.7143 22.5 27.7143C23.9422 27.7143 25.2477 27.1288 26.1917 26.1825H21.4129V25.6185C20.5176 25.7055 19.6711 25.8142 18.8731 25.9446L18.7119 24.8704C19.5457 24.809 20.4691 24.7016 21.4819 24.5481C21.464 24.7706 21.4537 25.0085 21.4512 25.2617H23.3465V23.8883H21.8118V22.9675H25.9706V23.8882H24.4437V25.2618H26.2929V26.0781C27.1741 25.1444 27.7143 23.8853 27.7143 22.5C27.7143 19.6202 25.3798 17.2857 22.5 17.2857ZM21.3207 23.9957C20.2363 24.0673 19.4665 24.1466 19.0112 24.2336L19.0111 24.2335L18.7733 23.3511C19.1109 23.034 19.4741 22.6056 19.8629 22.0659C19.5201 22.0915 19.2311 22.1235 18.9958 22.1618L18.6429 21.2871C19.1186 20.7142 19.5892 19.8804 20.0547 18.7857L21.0676 19.1464C20.643 19.9341 20.2261 20.6196 19.8169 21.2027L20.4614 21.1759C20.6506 20.8766 20.845 20.5531 21.0446 20.2052L21.9653 20.6656C21.1878 21.7808 20.5739 22.6145 20.1238 23.167C20.6353 23.1312 21.0548 23.0954 21.3822 23.0596C21.3412 23.4228 21.3207 23.7348 21.3207 23.9957ZM24.0447 21.6938C23.395 22.1772 22.6533 22.5762 21.8195 22.8908C21.6456 22.5531 21.4691 22.2437 21.2901 21.9623C22.6201 21.502 23.6661 20.8804 24.4283 20.0978H21.7888V19.177H25.6867V20.0288C25.4246 20.393 25.1305 20.7332 24.8081 21.0454C25.3351 21.3102 25.8582 21.5826 26.3773 21.8626L25.7634 22.7373C25.1598 22.3485 24.5869 22.0007 24.0447 21.6938Z" fill="#333333"/>
</g>
<defs>
<clipPath id="clip0_42_278">
<rect width="30" height="30" fill="white"/>
</clipPath>
</defs>
</svg>
