<svg width="30" height="30" viewBox="0 0 30 30" fill="none" xmlns="http://www.w3.org/2000/svg">
<g clip-path="url(#clip0_42_132)">
<path d="M29.4098 0.14301C29.957 0.445511 30.1586 1.13008 29.8659 1.67962L29.8569 1.69623L14.5574 29.3371C14.4974 29.4657 14.4141 29.5819 14.3115 29.6799C14.23 29.7581 14.1372 29.8238 14.0364 29.8749C13.7094 30.0414 13.3081 30.0479 12.9627 29.8571C12.8309 29.7844 12.7148 29.6864 12.6211 29.5686L0.317826 16.7354C-0.119103 16.2796 -0.103603 15.5562 0.352398 15.1195C0.803827 14.6872 1.51783 14.6981 1.95604 15.1405L1.96922 15.1541L13.2698 26.9414L27.8557 0.589869C28.1614 0.0375461 28.8572 -0.16249 29.4099 0.14301H29.4098Z" fill="#333333"/>
</g>
<defs>
<clipPath id="clip0_42_132">
<rect width="30" height="30" fill="white"/>
</clipPath>
</defs>
</svg>
