<svg width="30" height="30" viewBox="0 0 30 30" fill="none" xmlns="http://www.w3.org/2000/svg">
<path fill-rule="evenodd" clip-rule="evenodd" d="M25.4286 9.67857C25.4286 9.04739 25.9402 8.53571 26.5714 8.53571C27.2026 8.53571 27.7143 9.04739 27.7143 9.67857V28.103C27.7143 29.1667 26.997 30 26.0814 30H3.63289C2.71725 30 2 29.1667 2 28.103V1.89696C2 0.83325 2.71725 0 3.63289 0H21.9212C22.7865 0 23.4643 0.756429 23.4643 1.72204V21.4643C23.4643 22.4299 22.7865 23.1864 21.9212 23.1864H8.25336C7.62218 23.1864 7.1105 22.6747 7.1105 22.0435C7.1105 21.4123 7.62218 20.9006 8.25336 20.9006H21.1786V2.28571H12.75V8.96429L9.78571 7.203L6.82143 8.96429V2.28571H4.28575L4.28571 27.7143H25.4285L25.4286 9.67857ZM8.9375 24.9375H21.75C22.1642 24.9375 22.5 24.6017 22.5 24.1875C22.5 23.7733 22.1642 23.4375 21.75 23.4375H8.9375C8.52328 23.4375 8.1875 23.7733 8.1875 24.1875C8.1875 24.6017 8.52328 24.9375 8.9375 24.9375Z" fill="#333333"/>
</svg>
