<svg width="30" height="30" viewBox="0 0 30 30" fill="none" xmlns="http://www.w3.org/2000/svg">
<g clip-path="url(#clip0_42_223)">
<path fill-rule="evenodd" clip-rule="evenodd" d="M27.7563 13.6786H28.8571C29.4883 13.6786 30 14.1902 30 14.8214C30 15.4526 29.4883 15.9643 28.8571 15.9643H27.7845C27.6802 17.3506 27.3544 18.6975 26.8119 19.9801C26.1652 21.5091 25.2396 22.8821 24.0609 24.0609C22.8821 25.2396 21.5091 26.1652 19.9801 26.812C18.7526 27.3311 17.4662 27.651 16.1428 27.769V28.8571C16.1428 29.4883 15.6311 30 15 30C14.3688 30 13.8571 29.4883 13.8571 28.8571V27.7721C12.5212 27.6567 11.2226 27.3358 9.98414 26.812C8.45511 26.1652 7.08214 25.2396 5.90339 24.0609C4.72461 22.8821 3.799 21.5091 3.15229 19.9801C2.60979 18.6975 2.28404 17.3506 2.17975 15.9643H1.14286C0.511678 15.9643 0 15.4526 0 14.8214C0 14.1902 0.511678 13.6786 1.14286 13.6786H2.20804C2.33589 12.4054 2.65186 11.1674 3.15236 9.98418C3.79911 8.45514 4.72468 7.08218 5.90346 5.90343C7.08221 4.72464 8.45518 3.79904 9.98421 3.15232C11.2227 2.62846 12.5212 2.30757 13.8572 2.19214V1.14286C13.8572 0.511678 14.3689 0 15 0C15.6312 0 16.1429 0.511678 16.1429 1.14286V2.19525C17.4662 2.31329 18.7527 2.63314 19.9801 3.15232C21.5092 3.79907 22.8821 4.72464 24.0609 5.90343C25.2397 7.08218 26.1653 8.45514 26.812 9.98418C27.3125 11.1674 27.6284 12.4054 27.7563 13.6786ZM16.1429 25.4722C18.5228 25.2135 20.7276 24.1617 22.4446 22.4446C24.2046 20.6847 25.2658 18.4125 25.4903 15.9642H24.5714C23.9402 15.9642 23.4286 15.4526 23.4286 14.8214C23.4286 14.1902 23.9402 13.6785 24.5714 13.6785H25.4565C25.1718 11.3532 24.1274 9.20232 22.4446 7.51961C20.7276 5.80254 18.5228 4.75079 16.1429 4.49204V5.42857C16.1429 6.05975 15.6312 6.57143 15 6.57143C14.3688 6.57143 13.8571 6.05975 13.8571 5.42857V4.48811C11.4635 4.74014 9.24532 5.79396 7.51964 7.51964C5.83693 9.20236 4.79246 11.3532 4.50782 13.6786H5.42857C6.05975 13.6786 6.57143 14.1902 6.57143 14.8214C6.57143 15.4526 6.05975 15.9643 5.42857 15.9643H4.474C4.69846 18.4125 5.75968 20.6847 7.51964 22.4446C9.24532 24.1704 11.4635 25.2241 13.8571 25.4762V24.5714C13.8571 23.9402 14.3688 23.4286 15 23.4286C15.6312 23.4286 16.1429 23.9402 16.1429 24.5714V25.4722ZM10.1786 15C10.1786 12.3415 12.3415 10.1786 15 10.1786C17.6585 10.1786 19.8214 12.3415 19.8214 15C19.8214 17.6585 17.6585 19.8214 15 19.8214C12.3415 19.8214 10.1786 17.6585 10.1786 15ZM11.8929 15C11.8929 16.7133 13.2867 18.1071 15 18.1071C16.7133 18.1071 18.1071 16.7133 18.1071 15C18.1071 13.2867 16.7133 11.8929 15 11.8929C13.2867 11.8929 11.8929 13.2867 11.8929 15Z" fill="#333333"/>
</g>
<defs>
<clipPath id="clip0_42_223">
<rect width="30" height="30" fill="white"/>
</clipPath>
</defs>
</svg>
