<svg width="30" height="30" viewBox="0 0 30 30" fill="none" xmlns="http://www.w3.org/2000/svg">
<g clip-path="url(#clip0_42_285)">
<path d="M25.0654 14.3094C25.1341 13.8475 24.9452 13.3856 24.5672 13.1014L18.6579 8.78465L18.7437 1.30572C18.7437 0.843866 18.5032 0.399759 18.091 0.18658C17.6786 -0.0266339 17.1976 0.00893763 16.8369 0.293152L11.0477 4.78758L4.21057 2.37158C3.78111 2.22944 3.30011 2.33604 2.97372 2.67358C2.64729 3.01108 2.54425 3.50851 2.68168 3.95265L5.00079 11.0407L0.671789 17.0274C0.396932 17.4004 0.362575 17.9156 0.568717 18.3242C0.77486 18.7506 1.2215 19.0881 1.65097 18.9993L8.88318 18.9104L13.0576 25.0215C13.2809 25.359 13.6588 25.5366 14.0367 25.5366C14.1055 25.5366 14.157 25.5366 14.2257 25.5189C14.6724 25.4478 15.0503 25.1103 15.1877 24.6662L17.335 17.5248L24.2409 15.3042C24.6703 15.1621 24.9967 14.789 25.0654 14.3094ZM16.0295 15.3575C15.6515 15.4819 15.3595 15.7839 15.2392 16.1747L13.6245 21.5396L10.4808 16.9564C10.2536 16.6317 9.88914 16.44 9.50161 16.4412H9.48443L4.05597 16.5123L7.30275 12C7.54321 11.6803 7.61193 11.2539 7.47454 10.8631L5.72229 5.53369L10.8759 7.34569C11.2538 7.47004 11.6661 7.41676 11.9753 7.16804L16.3387 3.81054L16.27 9.42411C16.27 9.83272 16.4589 10.2235 16.7682 10.4545L21.2002 13.7054L16.0295 15.3575V15.3575ZM29.6006 27.5973L22.2481 19.9941C21.7156 19.4434 20.8567 19.4434 20.3241 19.9941C19.7916 20.5448 19.7916 21.433 20.3241 21.9837L27.6766 29.587C28.2091 30.1377 29.068 30.1377 29.6006 29.587C30.1331 29.0363 30.1331 28.148 29.6006 27.5973ZM7.59475 24.1688L5.67075 23.8845L4.81182 22.0725C4.55414 21.5396 3.69522 21.5396 3.43754 22.0725L2.57861 23.8845L0.65461 24.1688C0.362574 24.2043 0.122075 24.4175 0.0361818 24.7017C-0.049711 24.9859 0.019003 25.3057 0.22511 25.5189L1.61661 26.9223L1.29018 28.9119C1.23868 29.2139 1.35893 29.5159 1.59943 29.6758C1.82275 29.8534 2.14914 29.8712 2.40682 29.7291L4.12468 28.7876L5.84254 29.7291C5.94561 29.7824 6.08304 29.8179 6.20329 29.8179C6.35793 29.8179 6.5125 29.7646 6.64993 29.6758C6.89043 29.4981 6.9935 29.1961 6.95914 28.9119L6.61557 26.9045L8.00704 25.5011C8.21318 25.2879 8.28189 24.9859 8.196 24.684C8.11011 24.4175 7.88679 24.2043 7.59475 24.1688ZM5.27564 26.0696C5.10386 26.2472 5.01797 26.5137 5.05232 26.7624L5.18975 27.5796L4.48547 27.1888C4.38236 27.1355 4.24493 27.0999 4.12468 27.0999C4.00443 27.0999 3.88418 27.1355 3.76393 27.1888L3.05961 27.5796L3.19704 26.7624C3.23139 26.5137 3.16268 26.2472 2.97372 26.0696L2.40682 25.4834L3.19704 25.359C3.43754 25.3235 3.66086 25.1636 3.76393 24.9326L4.12468 24.1865L4.48543 24.9326C4.5885 25.1636 4.81186 25.3235 5.05232 25.359L5.84254 25.4834L5.27564 26.0696ZM23.2961 5.24944L22.9697 7.23908C22.9181 7.54108 23.0384 7.82533 23.2789 8.00297C23.5194 8.18061 23.8286 8.19836 24.0863 8.05626L25.8041 7.11472L27.522 8.05626C27.6423 8.10954 27.7625 8.14508 27.8828 8.14508C28.0374 8.14508 28.192 8.09179 28.3294 8.00294C28.5699 7.82533 28.673 7.52329 28.6386 7.23908L28.3122 5.24944L29.7037 3.84604C29.9098 3.63287 29.9786 3.33087 29.8926 3.04665C29.8068 2.7624 29.5663 2.54922 29.2742 2.51369L27.333 2.21169L26.4741 0.399723C26.2164 -0.133241 25.3575 -0.133241 25.117 0.399723L24.2581 2.21169L22.3341 2.49594C22.042 2.53147 21.8015 2.74465 21.7156 3.02887C21.6297 3.31312 21.6985 3.63287 21.9046 3.82829L23.2961 5.24944ZM24.8593 3.72169C25.0998 3.68615 25.3231 3.52629 25.4262 3.29533L25.787 2.54926L26.1477 3.29533C26.2508 3.52629 26.4741 3.68615 26.7146 3.72169L27.5048 3.84604L26.9379 4.43229C26.749 4.60994 26.6802 4.8764 26.7146 5.12511L26.852 5.94226L26.1477 5.55144C26.0446 5.49815 25.9072 5.46261 25.787 5.46261C25.6667 5.46261 25.5465 5.49815 25.4262 5.55144L24.7219 5.94226L24.8593 5.12511C24.8937 4.8764 24.825 4.60994 24.636 4.43226L24.0691 3.84604L24.8593 3.72169Z" fill="#333333"/>
</g>
<defs>
<clipPath id="clip0_42_285">
<rect width="30" height="30" fill="white"/>
</clipPath>
</defs>
</svg>
