<svg width="30" height="30" viewBox="0 0 30 30" fill="none" xmlns="http://www.w3.org/2000/svg">
<path d="M4.28571 17.2857C5.39029 17.2857 6.28571 16.3903 6.28571 15.2857C6.28571 14.1811 5.39029 13.2857 4.28571 13.2857C3.18114 13.2857 2.28571 14.1811 2.28571 15.2857C2.28571 16.3903 3.18114 17.2857 4.28571 17.2857ZM4.28571 19.5714C1.91879 19.5714 0 17.6526 0 15.2857C0 12.9188 1.91879 11 4.28571 11C6.65264 11 8.57143 12.9188 8.57143 15.2857C8.57143 17.6526 6.65264 19.5714 4.28571 19.5714ZM15 17.2857C16.1046 17.2857 17 16.3903 17 15.2857C17 14.1811 16.1046 13.2857 15 13.2857C13.8954 13.2857 13 14.1811 13 15.2857C13 16.3903 13.8954 17.2857 15 17.2857ZM15 19.5714C12.6331 19.5714 10.7143 17.6526 10.7143 15.2857C10.7143 12.9188 12.6331 11 15 11C17.3669 11 19.2857 12.9188 19.2857 15.2857C19.2857 17.6526 17.3669 19.5714 15 19.5714ZM25.7143 17.2857C26.8189 17.2857 27.7143 16.3903 27.7143 15.2857C27.7143 14.1811 26.8189 13.2857 25.7143 13.2857C24.6097 13.2857 23.7143 14.1811 23.7143 15.2857C23.7143 16.3903 24.6097 17.2857 25.7143 17.2857ZM25.7143 19.5714C23.3474 19.5714 21.4286 17.6526 21.4286 15.2857C21.4286 12.9188 23.3474 11 25.7143 11C28.0812 11 30 12.9188 30 15.2857C30 17.6526 28.0812 19.5714 25.7143 19.5714Z" fill="#333333"/>
</svg>
