<svg width="30" height="30" viewBox="0 0 30 30" fill="none" xmlns="http://www.w3.org/2000/svg">
<g clip-path="url(#clip0_42_192)">
<path fill-rule="evenodd" clip-rule="evenodd" d="M27.8566 4.3765C27.8202 1.95336 25.9882 3.57627e-05 23.7323 3.57627e-05L23.7322 0H4.12485L4.05664 0.0006072C1.80946 0.0398929 0 2.01753 0 4.45003V25.55L0.000535675 25.6236C0.0369642 28.0467 1.869 30 4.12489 30H23.7323L23.8005 29.9994C26.0477 29.9601 27.8571 27.9825 27.8571 25.55V24.6954C27.8476 24.0729 27.3761 23.5714 26.7959 23.5714C26.2098 23.5714 25.7347 24.0831 25.7347 24.7143V25.55L25.7344 25.5858C25.7167 26.7652 24.8265 27.7143 23.7323 27.7143H4.12492L4.09178 27.714C3.00171 27.6949 2.1225 26.734 2.1225 25.55V4.45007L2.12278 4.41428C2.14046 3.23489 3.03064 2.28575 4.12492 2.28575H23.7323L23.7654 2.28603C24.8555 2.30514 25.7347 3.2661 25.7347 4.45007V5.28574L25.7349 5.30467C25.7442 5.9271 26.2157 6.4286 26.7959 6.4286C27.382 6.4286 27.8571 5.91692 27.8571 5.28574V4.45007L27.8566 4.3765ZM29.621 14.0762L24.9238 9.37902C24.4775 8.9327 23.7539 8.9327 23.3076 9.37902C22.8613 9.82531 22.8613 10.549 23.3076 10.9952L26.1694 13.8572H7.57145C6.94028 13.8572 6.4286 14.3688 6.4286 15C6.4286 15.6312 6.94028 16.1429 7.57145 16.1429L26.1695 16.1428L23.3076 19.0048C22.8613 19.451 22.8613 20.1747 23.3076 20.621C23.7539 21.0673 24.4775 21.0673 24.9238 20.621L29.621 15.9238C29.7495 15.7957 29.8455 15.6387 29.901 15.466C29.9646 15.3237 30 15.166 30 15C30.0002 14.8395 29.9665 14.6807 29.901 14.5341C29.8455 14.3613 29.7495 14.2043 29.621 14.0762Z" fill="#333333"/>
</g>
<defs>
<clipPath id="clip0_42_192">
<rect width="30" height="30" fill="white"/>
</clipPath>
</defs>
</svg>
