<svg width="30" height="30" viewBox="0 0 30 30" fill="none" xmlns="http://www.w3.org/2000/svg">
<path d="M10.5 4.64286H9.64286V3.50001H10.5V2.64287H11.6429V3.50001H12.5V4.64286H11.6429V5.50001H10.5V4.64286Z" fill="#333333"/>
<path fill-rule="evenodd" clip-rule="evenodd" d="M11.0714 4.70778e-05C17.0875 0.0159756 17.7698 4.02433 17.8472 7.27987L17.8475 7.27994C17.8561 7.64683 17.857 8.00412 17.8571 8.34497V8.48244C17.8571 11.8465 15.6414 16.282 11.0843 16.2857C12.3815 16.2874 13.6392 16.4438 14.8126 16.7504L14.808 16.7682C15.1964 16.8496 15.4881 17.1943 15.4881 17.6071C15.4881 18.0805 15.1046 18.4643 14.6315 18.4643C14.5009 18.4645 14.372 18.4346 14.2547 18.3771C13.2619 18.1293 12.1872 18 11.0635 18C8.42356 18 6.06192 18.7138 4.39103 20.0017C2.68746 21.3148 1.74664 23.1751 1.71339 25.5237C1.70421 26.1703 1.85996 26.5897 2.17185 26.9138C2.51089 27.266 3.08785 27.5636 3.92385 27.7877C4.77046 28.0146 5.83528 28.1545 7.17006 28.2247C8.23417 28.2808 9.2181 28.2911 11.1811 28.2831L11.3425 28.2824C13.3332 28.2745 14.2047 28.2598 15.2109 28.201L15.2112 28.2035C15.2786 28.1869 15.3478 28.1785 15.4172 28.1786C15.8903 28.1786 16.2738 28.5623 16.2738 29.0357C16.2738 29.5091 15.8903 29.8929 15.4172 29.8929C15.4018 29.8929 15.3865 29.8925 15.3713 29.8916L15.3729 29.9087C14.0922 29.9858 12.7213 29.9912 11.3467 29.9967L11.3456 29.9967L11.1881 29.9974C5.61539 30.02 -0.0631831 29.9974 0.000531216 25.4994C0.0854598 19.502 5.14846 16.2857 11.0635 16.2857H11.0637C6.50314 16.2761 4.28571 11.8478 4.28571 8.48244V8.47272C4.28571 8.09237 4.28571 7.68957 4.29549 7.27419L4.29571 7.27412C4.37364 4.01337 5.05814 -0.0158815 11.0714 4.70778e-05ZM11.0604 6.41887C12.7943 6.41887 14.4867 6.58183 16.1204 6.89201C16.1053 6.52883 16.081 6.22037 16.0428 5.88858C15.8903 4.56315 15.5372 3.60587 14.9308 2.95597C14.1978 2.17026 12.9894 1.71944 11.0669 1.71433C9.15096 1.70926 7.9471 2.15401 7.21574 2.93622C6.60967 3.58444 6.25528 4.54333 6.10153 5.87058C6.06256 6.20687 6.03785 6.51933 6.02256 6.88783C7.64942 6.5804 9.33439 6.41887 11.0604 6.41887ZM11.0604 8.13322C9.34139 8.13322 7.64835 8.30401 6.00221 8.63876C6.03889 10.0115 6.52646 11.5044 7.34699 12.6192C8.26989 13.873 9.51642 14.5602 11.0732 14.5618C12.6278 14.5634 13.8728 13.8776 14.7955 12.6231C15.6152 11.5087 16.1029 10.0156 16.1405 8.64322C14.4875 8.30551 12.7871 8.13322 11.0604 8.13322Z" fill="#333333"/>
<path d="M18.2431 22.6298C17.919 22.3056 17.919 21.7801 18.2431 21.456C18.5672 21.132 19.0927 21.132 19.4168 21.456L21.7882 23.8275L25.723 19.8927C26.0471 19.5686 26.5726 19.5686 26.8967 19.8927C27.2208 20.2168 27.2208 20.7423 26.8967 21.0664L22.3751 25.5881C22.0818 25.8814 21.6236 25.9093 21.299 25.6718H21.285L18.2431 22.6298Z" fill="#333333"/>
<path fill-rule="evenodd" clip-rule="evenodd" d="M30 22.5714C30 26.6741 26.6741 30 22.5714 30C18.4688 30 15.1429 26.6741 15.1429 22.5714C15.1429 18.4688 18.4688 15.1429 22.5714 15.1429C26.6741 15.1429 30 18.4688 30 22.5714ZM16.8027 22.5714C16.8027 25.7574 19.3855 28.3401 22.5714 28.3401C25.7574 28.3401 28.3401 25.7574 28.3401 22.5714C28.3401 19.3855 25.7574 16.8027 22.5714 16.8027C19.3855 16.8027 16.8027 19.3855 16.8027 22.5714Z" fill="#333333"/>
</svg>
