<svg width="30" height="30" viewBox="0 0 30 30" fill="none" xmlns="http://www.w3.org/2000/svg">
<path fill-rule="evenodd" clip-rule="evenodd" d="M3.34914 11.647C3.34914 10.1456 3.63329 8.71064 4.15079 7.39279L5.47993 8.72157C5.19018 9.66379 5.04379 10.644 5.04379 11.647C5.04379 12.9022 5.45364 14.5704 6.22922 16.4714C6.67343 17.5604 7.83182 19.767 7.98754 20.0625C8.60118 17.8807 10.4105 16.4756 12.6852 15.9246L14.5672 17.8061L14.9534 18.3352L15.0173 18.256L15.5467 18.7853L15.3455 19.0346V21.4281C15.3455 22.0446 14.8456 22.5445 14.2289 22.5445H12.554C12.4795 22.5445 12.4066 22.5371 12.3361 22.5231C12.335 22.5229 12.3338 22.5227 12.3326 22.5225L12.3318 22.5223C12.3313 22.5223 12.3309 22.5222 12.3304 22.5221C12.3299 22.522 12.3294 22.5219 12.3289 22.5218C12.3278 22.5216 12.3266 22.5213 12.3255 22.521L12.3244 22.5208L12.3243 22.5208C12.3231 22.5205 12.3219 22.5202 12.3207 22.5199C11.816 22.4126 11.4374 21.9647 11.4374 21.4281V21.0885C10.932 20.8786 10.5768 20.3805 10.5768 19.7995C10.5768 19.0289 11.2015 18.4043 11.9723 18.4043C12.7431 18.4043 13.3678 19.0289 13.3678 19.7995C13.3678 20.4988 12.853 21.0781 12.1816 21.179V21.4281C12.1815 21.5013 12.2031 21.5729 12.2435 21.6339C12.284 21.695 12.3415 21.7427 12.409 21.7711C12.4549 21.7904 12.5042 21.8004 12.5539 21.8004H14.2288C14.2545 21.8004 14.2796 21.7978 14.3039 21.7928C14.3878 21.7755 14.4633 21.7298 14.5174 21.6634C14.5716 21.5969 14.6012 21.5138 14.6012 21.4281V19.143C14.5888 19.1209 14.5788 19.0976 14.5713 19.0738L13.0474 16.9861C12.2304 17.1726 11.4943 17.4801 10.8799 17.8954C10.7927 17.9543 10.7074 18.0159 10.6241 18.08C9.574 18.8885 8.9695 20.0163 8.88868 21.4299L10.8519 24.3939C10.8519 24.3939 12.1618 26.0017 12.7821 26.629C13.3346 27.1878 13.8411 27.6252 14.2875 27.9292C14.7318 28.2318 14.962 28.294 15.0128 28.3049C15.0653 28.2994 15.2781 28.2623 15.6894 28.017C16.1284 27.7551 16.6488 27.3386 17.1942 26.8125C17.8748 26.156 19.3168 24.3867 19.3367 24.3622L19.3368 24.3622L19.3369 24.362L20.0425 23.2796L21.3081 24.5449C19.0679 27.685 16.6138 30 14.9998 30C11.7184 30 3.34914 18.0796 3.34914 11.647ZM7.89636 4.67325L6.69804 3.47529C8.81122 1.33003 11.7501 0 14.9998 0C21.4343 0 26.6504 5.2145 26.6504 11.647C26.6504 14.1321 25.4581 17.4363 23.7837 20.5558L22.5122 19.2846C22.922 18.4676 23.4899 17.3061 23.7719 16.5985C24.5464 14.655 24.9558 12.9429 24.9558 11.647C24.9558 10.3026 24.6928 8.99936 24.174 7.77339C23.6726 6.58843 22.9546 5.52386 22.0397 4.60925C21.1248 3.69464 20.0599 2.97679 18.8746 2.47557C17.6483 1.95704 16.3446 1.69411 14.9998 1.69411C13.6549 1.69411 12.3513 1.95704 11.125 2.47557C9.93961 2.97679 8.87472 3.69464 7.95982 4.60925C7.93857 4.6305 7.91739 4.65182 7.89636 4.67325ZM19.4191 10.5801C19.4191 11.9183 18.8805 13.5167 17.7846 14.5585L16.9921 13.7662C17.1468 13.6218 17.2911 13.4581 17.4251 13.2761C17.9589 12.5505 18.2766 11.5784 18.3011 10.6849C17.2247 10.465 16.1172 10.3528 14.9927 10.3528C14.9893 10.3528 14.9859 10.3528 14.9824 10.3528C14.979 10.3529 14.9756 10.3529 14.9723 10.3529C14.8551 10.353 14.7382 10.3545 14.6214 10.3571C14.2914 10.3643 13.9618 10.3812 13.6329 10.408L12.6199 9.39536C13.3943 9.29086 14.1865 9.23661 14.9926 9.23661C15.7574 9.2365 16.5213 9.28572 17.2797 9.384C17.6173 9.42793 17.9535 9.48164 18.288 9.54507C18.2781 9.30843 18.2623 9.1075 18.2374 8.89136C18.2281 8.81046 18.2176 8.73164 18.206 8.65496C18.0935 7.91336 17.8711 7.36546 17.5132 6.98204C17.0358 6.47054 16.2488 6.177 14.9968 6.17368C14.0692 6.17118 13.3979 6.33061 12.9188 6.62179C12.8872 6.641 12.856 6.661 12.8255 6.68179C12.7576 6.72786 12.6927 6.77793 12.6309 6.83179C12.5812 6.87518 12.5338 6.92107 12.4887 6.96921C12.1411 7.34086 11.9206 7.86929 11.8046 8.58025L10.874 7.64996C11.3053 6.23093 12.3702 5.05057 14.9998 5.05757C18.9178 5.06796 19.3621 7.67768 19.4125 9.79729L19.4127 9.79732C19.4165 9.97093 19.4186 10.1445 19.4188 10.3182L19.4189 10.3315L19.419 10.4123C19.419 10.4177 19.419 10.4231 19.419 10.4286L19.419 10.4412C19.419 10.4518 19.419 10.4622 19.419 10.4727L19.4191 10.4992V10.5723V10.5739V10.5801ZM11.321 19.7996C11.321 20.1591 11.6125 20.4506 11.9722 20.4506C12.3319 20.4506 12.6235 20.1591 12.6235 19.7996C12.6235 19.44 12.3318 19.1485 11.9722 19.1485C11.6125 19.1485 11.321 19.44 11.321 19.7996ZM15.3719 8.63839V8.08036H15.9302V7.33629H15.3719V6.77821H14.6277V7.33629H14.0694V8.08036H14.6277V8.63839H15.3719ZM1.95129 0.334857C1.50489 -0.111389 0.781169 -0.111389 0.334787 0.334857C-0.111596 0.781104 -0.111596 1.50461 0.334787 1.95086L28.0486 29.6563C28.495 30.1025 29.2188 30.1025 29.6651 29.6563C30.1115 29.21 30.1115 28.4865 29.6651 28.0403L1.95129 0.334857Z" fill="#333333"/>
</svg>
