<svg width="30" height="30" viewBox="0 0 30 30" fill="none" xmlns="http://www.w3.org/2000/svg">
<g clip-path="url(#clip0_42_172)">
<path d="M25.7143 10.6999H23.4286V2.283H2.28571V27.717H12.9004V30H2.28571C1.02336 30 0 28.9779 0 27.717V2.283C0 1.02214 1.02336 0 2.28571 0H23.4286C24.6909 0 25.7143 1.02214 25.7143 2.283V10.6999ZM5.89286 7.92656C5.26168 7.92656 4.75 7.41549 4.75 6.78506C4.75 6.15464 5.26168 5.64357 5.89286 5.64357H19.8571C20.4883 5.64357 21 6.15464 21 6.78506C21 7.41549 20.4883 7.92656 19.8571 7.92656H5.89286ZM5.89286 15.9367C5.26168 15.9367 4.75 15.4256 4.75 14.7952C4.75 14.1647 5.26168 13.6537 5.89286 13.6537H13.8929C14.524 13.6537 15.0357 14.1647 15.0357 14.7952C15.0357 15.4256 14.524 15.9367 13.8929 15.9367H5.89286ZM5.89286 23.9786C5.26168 23.9786 4.75 23.4676 4.75 22.8371C4.75 22.2067 5.26168 21.6956 5.89286 21.6956H13.8929C14.524 21.6956 15.0357 22.2067 15.0357 22.8371C15.0357 23.4676 14.524 23.9786 13.8929 23.9786H5.89286ZM22.75 20.6897C20.261 20.6897 18.25 18.6417 18.25 16.1237C18.25 13.6056 20.261 11.5577 22.75 11.5577C25.239 11.5577 27.25 13.6056 27.25 16.1237C27.25 18.6417 25.239 20.6897 22.75 20.6897ZM22.75 18.9774C24.2848 18.9774 25.5357 17.7034 25.5357 16.1237C25.5357 14.5439 24.2848 13.2699 22.75 13.2699C21.2153 13.2699 19.9643 14.5439 19.9643 16.1237C19.9643 17.7034 21.2153 18.9774 22.75 18.9774ZM29.3601 28.4732C27.553 30.5115 17.9308 30.4107 16.213 28.4732C14.4144 26.4445 16.0629 20.7847 22.7866 20.8326C29.5102 20.8806 31.0694 26.5453 29.3601 28.4732ZM28.0767 27.338C28.196 27.2035 28.291 26.9043 28.2855 26.4959C28.2784 25.9713 28.1049 25.3839 27.7725 24.8401C27.3918 24.2173 26.8248 23.6815 26.0832 23.286C25.2055 22.8179 24.1029 22.5543 22.7744 22.5448C21.4462 22.5354 20.3407 22.7841 19.4596 23.2408C18.7146 23.6269 18.1446 24.1559 17.7626 24.7738C17.4279 25.3153 17.2544 25.9025 17.2501 26.4307C17.2466 26.854 17.3512 27.1741 17.4965 27.338C17.4921 27.3331 17.5109 27.3487 17.5543 27.3767C17.6314 27.4265 17.7379 27.4818 17.8714 27.5389C18.1826 27.6718 18.5989 27.7967 19.096 27.9027C20.1251 28.1223 21.4236 28.2459 22.7607 28.2519C24.1057 28.2578 25.4047 28.1444 26.4345 27.9295C26.9351 27.825 27.3547 27.7 27.6702 27.5646C27.8067 27.5061 27.9166 27.4486 27.9976 27.3958C28.0477 27.3632 28.0735 27.3417 28.0767 27.338Z" fill="#333333"/>
</g>
<defs>
<clipPath id="clip0_42_172">
<rect width="30" height="30" fill="white"/>
</clipPath>
</defs>
</svg>
