<svg width="30" height="30" viewBox="0 0 30 30" fill="none" xmlns="http://www.w3.org/2000/svg">
<g clip-path="url(#clip0_42_158)">
<path d="M27.7714 0.000714234L27.7731 0V0.000714234C29.0083 0.0319999 30 1.04307 30 2.28571V23.424C30 24.6667 29.0083 25.6778 27.7731 25.709V25.715C23.9001 25.6758 21.0097 26.0862 19.1767 26.9103C17.5542 27.6399 16.833 28.6273 16.833 30H14.5473C14.5473 29.9994 14.0949 29.9985 13.1901 29.9974C13.1901 28.6246 12.4689 27.6372 10.8464 26.9077C9.01339 26.0835 6.12304 25.6731 2.25 25.7124V25.7095C1.00411 25.6904 0 24.6745 0 23.424V2.28571C0 1.03529 1.00411 0.0193571 2.25 0.000285591V0L2.25064 0.000250084C2.26232 7.15238e-05 2.274 0 2.28571 0V0.0147143L13.9866 4.84007C14.3952 5.00254 15.3328 5.00254 15.7414 4.84007L27.7143 0.0236428V0C27.7334 0 27.7524 0.000249971 27.7714 0.000714234ZM27.7143 23.4292V2.58286L16.586 6.96368C16.4493 7.018 16.3004 7.06454 16.1429 7.10325V26.1982C16.702 25.6611 17.4034 25.2019 18.2393 24.8261C20.4197 23.8457 23.5688 23.3918 27.7143 23.4292ZM2.28571 2.57414V23.4268C6.44264 23.3875 9.59932 23.8412 11.7839 24.8234C12.6083 25.1941 13.3018 25.6458 13.8571 26.1734V7.16089C13.598 7.11411 13.3552 7.04839 13.1421 6.96368L2.28571 2.57414ZM6.00021 15.9975C8.04907 16.408 10.0568 16.9655 12.0035 17.6644V19.998C10.0757 19.2534 8.06304 18.6946 6.00021 18.3311V15.9975ZM6.00021 9.99675C8.04907 10.4073 10.0568 10.9648 12.0035 11.6636V13.9972C10.0758 13.2526 8.06307 12.6938 6.00021 12.3304V9.99679V9.99675ZM24.0101 9.99675V12.3304C21.9473 12.6938 19.9346 13.2526 18.0068 13.9972V11.6636C19.9535 10.9647 21.9613 10.4073 24.0101 9.99671V9.99675ZM24.0101 15.9975V18.3311C21.9473 18.6945 19.9346 19.2534 18.0068 19.998V17.6644C19.9535 16.9655 21.9613 16.408 24.0101 15.9975V15.9975Z" fill="#333333"/>
</g>
<defs>
<clipPath id="clip0_42_158">
<rect width="30" height="30" fill="white"/>
</clipPath>
</defs>
</svg>
