<svg xmlns="http://www.w3.org/2000/svg" width="30" height="30" viewBox="0 0 30 30" fill="none">
  <path d="M 9.286 16.429 C 11.653 16.429 13.571 18.347 13.571 20.714 L 13.571 25.714 C 13.571 28.081 11.653 30 9.286 30 L 4.286 30 C 1.919 30 0 28.081 0 25.714 L 0 20.714 C 0 18.347 1.919 16.429 4.286 16.429 L 9.286 16.429 L 9.286 16.429 Z M 9.209 18.714 L 4.363 18.714 C 3.216 18.714 2.286 19.644 2.286 20.791 L 2.286 25.637 C 2.286 26.784 3.216 27.714 4.363 27.714 L 9.209 27.714 C 10.356 27.714 11.286 26.784 11.286 25.637 L 11.286 20.791 C 11.286 19.644 10.356 18.714 9.209 18.714 Z M 28.857 24.75 C 29.488 24.75 30 25.262 30 25.893 C 30 26.524 29.488 27.036 28.857 27.036 L 18.286 27.036 C 17.655 27.036 17.143 26.524 17.143 25.893 C 17.143 25.262 17.655 24.75 18.286 24.75 L 28.857 24.75 Z M 28.857 19.393 C 29.488 19.393 30 19.905 30 20.536 C 30 21.167 29.488 21.679 28.857 21.679 L 18.286 21.679 C 17.655 21.679 17.143 21.167 17.143 20.536 C 17.143 19.905 17.655 19.393 18.286 19.393 L 28.857 19.393 Z M 9.286 0 C 11.653 0 13.571 1.919 13.571 4.286 L 13.571 9.286 C 13.571 11.653 11.653 13.571 9.286 13.571 L 4.286 13.571 C 1.919 13.571 0 11.653 0 9.286 L 0 4.286 C 0 1.919 1.919 0 4.286 0 L 9.286 0 L 9.286 0 Z M 9.209 2.286 L 4.363 2.286 C 3.216 2.286 2.286 3.216 2.286 4.363 L 2.286 9.209 C 2.286 10.356 3.216 11.286 4.363 11.286 L 9.209 11.286 C 10.356 11.286 11.286 10.356 11.286 9.209 L 11.286 4.363 C 11.286 3.216 10.356 2.286 9.209 2.286 L 9.209 2.286 Z M 28.857 8.321 C 29.488 8.321 30 8.833 30 9.464 C 30 10.095 29.488 10.607 28.857 10.607 L 18.286 10.607 C 17.655 10.607 17.143 10.095 17.143 9.464 C 17.143 8.833 17.655 8.321 18.286 8.321 L 28.857 8.321 Z M 28.857 2.964 C 29.488 2.964 30 3.476 30 4.107 C 30 4.738 29.488 5.25 28.857 5.25 L 18.286 5.25 C 17.655 5.25 17.143 4.738 17.143 4.107 C 17.143 3.476 17.655 2.964 18.286 2.964 L 28.857 2.964 Z" fill="currentColor" fill-rule="nonzero"/>
</svg>
