<svg width="30" height="30" viewBox="0 0 30 30" fill="none" xmlns="http://www.w3.org/2000/svg">
<path d="M28.8571 19.2857C29.482 19.2857 29.9897 19.7872 30 20.4096V26.5714C30 28.4269 28.5926 29.9689 26.8 29.9995L26.7456 30H3.25443C1.45411 30 0.02875 28.4766 0.000428643 26.6276L0 26.5714V20.4286C0 19.7974 0.511678 19.2857 1.14286 19.2857C1.76771 19.2857 2.27546 19.7872 2.28557 20.4096L2.28571 20.4286V26.5714C2.28571 27.2155 2.7315 27.7044 3.23904 27.7141L3.25439 27.7143H26.7456C27.2543 27.7143 27.7052 27.2317 27.7141 26.5909L27.7143 26.5714V20.4286C27.7143 19.7974 28.226 19.2857 28.8571 19.2857ZM15.0256 0C15.6568 0 16.1684 0.511643 16.1684 1.14279V19.6614L18.9063 16.9236C19.3481 16.4818 20.0617 16.4773 20.509 16.9103L20.5224 16.9236C20.9687 17.3699 20.9687 18.0934 20.5224 18.5397L15.905 23.1572C15.7335 23.3636 15.4906 23.5087 15.2142 23.5546C15.1581 23.5643 15.1014 23.5698 15.0445 23.5711L15.0327 23.5713C14.741 23.5752 14.4481 23.4681 14.2229 23.25L14.2094 23.2367C14.2007 23.228 14.1921 23.2192 14.1837 23.2102L9.51325 18.5398C9.06696 18.0935 9.06696 17.3699 9.51325 16.9236C9.95954 16.4773 10.6831 16.4773 11.1294 16.9236L13.8829 19.6771V1.14279C13.8829 0.511643 14.3946 0 15.0257 0H15.0256Z" fill="#333333"/>
</svg>
