<svg width="30" height="30" viewBox="0 0 30 30" fill="none" xmlns="http://www.w3.org/2000/svg">
<path d="M0 10.4956V25.8088C0 28.1268 1.9355 30 4.33064 30H25.6694C28.0645 30 30 28.1268 30 25.8088V10.4722C30 9.02051 29.2016 7.66244 27.9194 6.88976L17.2742 0.614652C15.8951 -0.204884 14.1532 -0.204884 12.7742 0.614652L2.08064 6.91319C0.798393 7.66244 0 9.02051 0 10.4956ZM16.1135 2.58372L26.7475 8.85222C27.379 9.23633 27.7143 9.87065 27.7143 10.4722V25.8088C27.7143 26.7945 26.8732 27.7143 25.6694 27.7143H4.33064C3.12675 27.7143 2.28571 26.7945 2.28571 25.8088V10.4956C2.28571 9.85604 2.63268 9.23794 3.23382 8.88669L3.23725 8.88465L3.24068 8.88265L13.9342 2.58412L13.9381 2.58187L13.9419 2.57958C14.6012 2.18776 15.4472 2.18776 16.1065 2.57958L16.11 2.58165L16.1135 2.58372ZM20.5432 24.4285C21.1744 24.4244 21.6827 23.9093 21.6785 23.2782C21.6744 22.647 21.1594 22.1387 20.5282 22.1429L15.1212 22.1786H9.46428C8.8331 22.1786 8.32143 22.6903 8.32143 23.3214C8.32143 23.9526 8.8331 24.4643 9.46428 24.4643H15.125L15.1325 24.4643L20.5432 24.4285Z" fill="#333333"/>
</svg>
