<svg width="30" height="30" viewBox="0 0 30 30" fill="none" xmlns="http://www.w3.org/2000/svg">
<path d="M1.875 30C1.37772 30 0.900806 29.8025 0.549175 29.4508C0.197544 29.0992 0 28.6223 0 28.125C0 27.6277 0.197544 27.1508 0.549175 26.7992C0.900806 26.4475 1.37772 26.25 1.875 26.25H28.125C28.6223 26.25 29.0992 26.4475 29.4508 26.7992C29.8025 27.1508 30 27.6277 30 28.125C30 28.6223 29.8025 29.0992 29.4508 29.4508C29.0992 29.8025 28.6223 30 28.125 30H1.875ZM3.75 1.875C3.75 1.37772 3.94754 0.900806 4.29917 0.549175C4.65081 0.197544 5.12772 0 5.625 0C6.12228 0 6.59919 0.197544 6.95082 0.549175C7.30246 0.900806 7.5 1.37772 7.5 1.875V13.125C7.5 15.1141 8.29018 17.0218 9.6967 18.4283C11.1032 19.8348 13.0109 20.625 15 20.625C16.9891 20.625 18.8968 19.8348 20.3033 18.4283C21.7098 17.0218 22.5 15.1141 22.5 13.125V1.875C22.5 1.37772 22.6975 0.900806 23.0492 0.549175C23.4008 0.197544 23.8777 0 24.375 0C24.8723 0 25.3492 0.197544 25.7008 0.549175C26.0525 0.900806 26.25 1.37772 26.25 1.875V13.125C26.25 16.1087 25.0647 18.9702 22.955 21.08C20.8452 23.1897 17.9837 24.375 15 24.375C12.0163 24.375 9.15483 23.1897 7.04505 21.08C4.93526 18.9702 3.75 16.1087 3.75 13.125V1.875Z" fill="#333333"/>
</svg>
