<svg width="30" height="30" viewBox="0 0 30 30" fill="none" xmlns="http://www.w3.org/2000/svg">
<path d="M0 28V26H2V6C2 4.93913 2.42143 3.92172 3.17157 3.17157C3.92172 2.42143 4.93913 2 6 2H16C16.5253 2 17.0454 2.10346 17.5307 2.30448C18.016 2.5055 18.457 2.80014 18.8284 3.17157C19.1999 3.54301 19.4945 3.98396 19.6955 4.46927C19.8965 4.95457 20 5.47471 20 6V12H24C25.0609 12 26.0783 12.4214 26.8284 13.1716C27.5786 13.9217 28 14.9391 28 16V26H30V28H0ZM18 6C18 5.46957 17.7893 4.96086 17.4142 4.58579C17.0391 4.21071 16.5304 4 16 4H6C5.46957 4 4.96086 4.21071 4.58579 4.58579C4.21071 4.96086 4 5.46957 4 6V26H18V6ZM26 16C26 15.4696 25.7893 14.9609 25.4142 14.5858C25.0391 14.2107 24.5304 14 24 14H20V26H26V16ZM6 16H14V18H6V16ZM6 12H14V14H6V12ZM6 8H14V10H6V8Z" fill="#333333"/>
</svg>
