<svg width="30" height="30" viewBox="0 0 30 30" fill="none" xmlns="http://www.w3.org/2000/svg">
<g clip-path="url(#clip0_42_153)">
<path fill-rule="evenodd" clip-rule="evenodd" d="M5.2035 21.2856H14.9339C15.5653 21.2856 16.0772 21.7973 16.0772 22.4284C16.0772 23.0596 15.5653 23.5713 14.9338 23.5713H13.751C13.7646 23.6426 13.7714 23.7151 13.7713 23.7878L13.7635 27.7878C13.7622 28.4182 13.2506 28.9284 12.6202 28.9284H12.6179C11.9864 28.9272 11.4755 28.4145 11.4767 27.7833L11.4833 24.4144L1.4421 29.895C1.31168 29.9662 1.17076 30 1.03192 30C0.728355 30 0.434298 29.8385 0.278551 29.5535C0.0515941 29.138 0.204554 28.6173 0.620201 28.3904L9.44943 23.5713H5.2035C2.33427 23.5713 -3.57068e-05 21.1073 0 18.0787V7.44988C0 4.42126 2.33427 1.95727 5.2035 1.95727H10.4838V0.565747C10.4838 0.25332 10.7372 0 11.0498 0H14.1983C14.5109 0 14.7643 0.253284 14.7643 0.565747V1.95731H20.0447C22.9139 1.95731 25.2482 4.4213 25.2482 7.44992V15.4157C25.2482 16.0469 24.7363 16.5585 24.1049 16.5585C23.4734 16.5585 22.9615 16.0469 22.9615 15.4157V7.44992C22.9615 5.68161 21.653 4.24301 20.0447 4.24301H16.9043V4.95676C16.9043 5.26922 16.6488 5.52257 16.3336 5.52257H8.91459C8.59938 5.52257 8.34387 5.26925 8.34387 4.95676V4.24301H5.2035C3.59518 4.24301 2.28672 5.68161 2.28672 7.44992V18.0787C2.28672 19.847 3.59518 21.2856 5.2035 21.2856ZM5.94639 8.24995H19.199C19.6726 8.24995 20.0565 8.6337 20.0565 9.10709C20.0565 9.58048 19.6726 9.96423 19.199 9.96423H5.94639C5.47279 9.96423 5.08887 9.58048 5.08887 9.10709C5.08887 8.6337 5.47279 8.24995 5.94639 8.24995ZM19.199 12.5462C19.6726 12.5462 20.0565 12.9299 20.0565 13.4033C20.0565 13.8767 19.6726 14.2605 19.199 14.2605H5.94639C5.47279 14.2605 5.08887 13.8767 5.08887 13.4033C5.08887 12.9299 5.47279 12.5462 5.94639 12.5462H19.199ZM5.08891 17.6995C5.08891 17.2261 5.47282 16.8424 5.94642 16.8424H14.292C14.7656 16.8424 15.1495 17.2261 15.1495 17.6995C15.1495 18.1729 14.7656 18.5567 14.292 18.5567H5.94642C5.47282 18.5567 5.08891 18.1729 5.08891 17.6995ZM27.8571 26.1011C27.965 25.8319 28.2286 25.6417 28.5365 25.6417C28.9407 25.6417 29.2683 25.9691 29.2683 26.3732C29.2685 26.5184 29.2253 26.6603 29.1442 26.7808C29.1487 26.7849 29.1505 26.7875 29.1498 26.7889C28.0443 28.7078 25.9716 29.9998 23.5973 29.9998C20.061 29.9998 17.1732 27.1344 17.1732 23.5999L17.1901 23.6038C17.1546 23.443 17.1959 23.275 17.2683 23.1271C17.4453 22.7639 17.8833 22.613 18.2466 22.7899L19.8913 23.5909C20.2546 23.7678 20.4056 24.2055 20.2286 24.5687C20.0516 24.9318 19.6136 25.0827 19.2502 24.9059L18.7752 24.6745C19.2659 26.8844 21.2385 28.5369 23.5972 28.5369C25.3738 28.5369 26.98 27.5915 27.8571 26.1011ZM29.9912 23.263C29.9981 23.3111 30.0001 23.3599 29.9973 23.4085C29.9991 23.4721 30 23.5359 30 23.5998L29.9623 23.5913C29.9519 23.6233 29.9392 23.6546 29.9244 23.6849C29.7474 24.048 29.3094 24.199 28.9461 24.0221L27.3014 23.2213C26.9381 23.0444 26.7871 22.6065 26.9641 22.2434C27.1412 21.8802 27.5792 21.7293 27.9425 21.9062L28.2978 22.0793C27.6563 20.0965 25.7943 18.6626 23.5972 18.6626C21.8299 18.6626 20.2323 19.5983 19.3529 21.0721C19.3342 21.1124 19.3119 21.151 19.2862 21.1873L19.281 21.1967L19.2799 21.1961C19.1469 21.3784 18.9314 21.4969 18.6884 21.4969C18.2842 21.4969 17.9567 21.1695 17.9567 20.7654C17.9564 20.6447 17.9863 20.5258 18.0436 20.4195C18.0439 20.4161 18.0447 20.4128 18.0459 20.4096C18.0466 20.4076 18.0476 20.4056 18.0487 20.4037C19.1552 18.4887 21.2045 17.1998 23.5761 17.1998C26.9992 17.1998 29.8161 19.8849 29.9912 23.263Z" fill="#333333"/>
</g>
<defs>
<clipPath id="clip0_42_153">
<rect width="30" height="30" fill="white"/>
</clipPath>
</defs>
</svg>
