<svg width="30" height="30" viewBox="0 0 30 30" fill="none" xmlns="http://www.w3.org/2000/svg">
<g clip-path="url(#clip0_42_120)">
<path d="M28.8604 27.7143C29.4898 27.7143 30 28.226 30 28.8572C30 29.482 29.4999 29.9898 28.8792 29.9999L28.8604 30H18.2825C17.6531 30 17.1429 29.4884 17.1429 28.8572C17.1429 28.2323 17.643 27.7246 18.2637 27.7145L18.2826 27.7144H28.8604L28.8604 27.7143ZM11.7548 0.941959C12.0844 2.52489 13.4308 3.67353 15 3.67353C16.5693 3.67353 17.9156 2.52489 18.2452 0.941959C18.3898 0.247815 19.0771 -0.162257 19.7214 0.0612079C21.9328 0.828245 23.9392 2.12739 25.5859 3.84432C26.0236 4.30075 26.0355 5.03861 25.6128 5.51029C25.0385 6.15107 24.7143 6.99154 24.7143 7.88833C24.7143 9.80844 26.2014 11.365 28.0358 11.365C28.1917 11.365 28.3474 11.3537 28.5016 11.3312C29.1136 11.2415 29.6829 11.6774 29.7866 12.3151C29.929 13.1923 30.0004 14.0796 30 14.9682C30 15.8577 29.9293 16.7379 29.7897 17.6021C29.0831 17.2828 28.3429 17.0437 27.5831 16.8892C27.6707 16.2526 27.7145 15.6108 27.7143 14.9683C27.7143 14.5576 27.6966 14.1494 27.6614 13.7446C24.7392 13.543 22.4286 10.998 22.4286 7.88833C22.4286 6.79282 22.7173 5.74311 23.245 4.83704C22.2848 3.97993 21.2083 3.27596 20.0503 2.75075C19.1352 4.73279 17.1976 6.06607 15 6.06607C12.8024 6.06607 10.8648 4.73279 9.94973 2.75071C8.88512 3.234 7.88876 3.8675 6.98837 4.63375C7.59344 5.58282 7.92858 6.7084 7.92858 7.88836C7.92858 11.1242 5.4269 13.7484 2.33754 13.7575C2.30298 14.1602 2.28569 14.5641 2.28572 14.9682C2.28572 15.7868 2.35618 16.5951 2.4949 17.3864C5.51136 17.4823 7.92858 20.072 7.92858 23.2528C7.92858 24.0974 7.75715 24.9165 7.43433 25.6652C8.23483 26.2869 9.10255 26.8078 10.0194 27.2171C10.9623 25.312 12.8604 24.0474 15 24.0474C15.1562 24.0474 15.311 24.0541 15.4643 24.0673C15.2302 24.8251 15.0801 25.6196 15.0244 26.4401C15.0163 26.44 15.0082 26.4399 15 26.4399C13.4747 26.4399 12.1556 27.5259 11.7824 29.0497C11.6183 29.7198 10.9469 30.1049 10.3189 29.8892C8.44087 29.2439 6.70744 28.2147 5.21376 26.8677C4.7664 26.4642 4.68633 25.7705 5.02894 25.2672C5.42644 24.6832 5.64287 23.9866 5.64287 23.2528C5.64287 21.3327 4.15579 19.7762 2.32143 19.7762C2.13715 19.7762 1.95529 19.7917 1.77679 19.8225C1.19422 19.9228 0.634537 19.5422 0.485429 18.9442C0.164214 17.6562 0 16.323 0 14.9682C0 14.0483 0.0757143 13.1379 0.225143 12.2442C0.337429 11.5727 0.962358 11.135 1.59825 11.2825C1.83538 11.3375 2.07802 11.3651 2.32143 11.365C4.15579 11.365 5.64287 9.80844 5.64287 7.88833C5.64287 6.92372 5.26722 6.02475 4.61322 5.37189C4.14226 4.90175 4.14093 4.11543 4.61029 3.6435C6.2199 2.02517 8.15505 0.797745 10.2787 0.0611721C10.9229 -0.162257 11.6102 0.247815 11.7548 0.941959ZM28.8604 23.8215C29.4898 23.8215 30 24.3331 30 24.9643C30 25.5892 29.4999 26.0969 28.8792 26.107L28.8604 26.1071H18.2825C17.6531 26.1072 17.1429 25.5955 17.1429 24.9643C17.1429 24.3395 17.643 23.8317 18.2637 23.8216L18.2826 23.8215H28.8604L28.8604 23.8215ZM28.8604 19.9286C29.4898 19.9286 30 20.4403 30 21.0715C30 21.6963 29.4999 22.204 28.8792 22.2141L28.8604 22.2143H18.2825C17.6531 22.2143 17.1429 21.7026 17.1429 21.0715C17.1429 20.4466 17.643 19.9389 18.2637 19.9288L18.2826 19.9286H28.8604L28.8604 19.9286ZM15 10.2911C17.4656 10.2911 19.4643 12.3833 19.4643 14.964C19.4643 17.5448 17.4656 19.637 15 19.637C12.5344 19.637 10.5357 17.5448 10.5357 14.964C10.5357 12.3832 12.5344 10.2912 15 10.2912V10.2911ZM15 12.0855C13.4812 12.0855 12.25 13.3743 12.25 14.964C12.25 16.5538 13.4812 17.8426 15 17.8426C16.5188 17.8426 17.75 16.5538 17.75 14.964C17.75 13.3743 16.5188 12.0855 15 12.0855Z" fill="#333333"/>
</g>
<defs>
<clipPath id="clip0_42_120">
<rect width="30" height="30" fill="white"/>
</clipPath>
</defs>
</svg>
