<svg width="30" height="30" viewBox="0 0 30 30" fill="none" xmlns="http://www.w3.org/2000/svg">
<g clip-path="url(#clip0_42_204)">
<path fill-rule="evenodd" clip-rule="evenodd" d="M6.02257 6.88783C7.64944 6.58038 9.33439 6.41886 11.0604 6.41886C12.7943 6.41886 14.4867 6.58184 16.1204 6.89202C16.1053 6.52882 16.081 6.22037 16.0428 5.88858C15.8903 4.56316 15.5372 3.60587 14.9308 2.95598C14.1978 2.17026 12.9894 1.71944 11.0669 1.71433C9.15097 1.70926 7.94711 2.15401 7.21575 2.93623C6.60968 3.58444 6.25529 4.54333 6.10154 5.87058C6.06258 6.20684 6.03786 6.51933 6.02257 6.88783ZM4.29572 7.27413C4.37364 4.01336 5.05814 -0.0158724 11.0714 4.7024e-05C17.0875 0.0159738 17.7699 4.0243 17.8472 7.27987L17.8475 7.27993C17.8572 7.69297 17.8572 8.09382 17.8572 8.47275L17.8571 8.4859C17.8556 11.8527 15.6357 16.2904 11.0714 16.2857C6.50564 16.2811 4.28572 11.8497 4.28572 8.48244L4.2858 8.24457C4.28611 7.9326 4.28766 7.60744 4.29551 7.27418L4.29572 7.27413ZM6.00223 8.63875C7.64837 8.304 9.34141 8.13322 11.0604 8.13322C12.7871 8.13322 14.4875 8.3055 16.1405 8.64322C16.1029 10.0156 15.6152 11.5087 14.7955 12.6231C13.8728 13.8776 12.6278 14.5634 11.0732 14.5618C9.51644 14.5602 8.2699 13.873 7.34701 12.6191C6.52648 11.5044 6.0389 10.0115 6.00223 8.63875ZM9.64287 4.64286H10.5V5.5H11.6429V4.64286H12.5V3.5H11.6429V2.64286H10.5V3.5H9.64287V4.64286ZM11.2359 29.9986C6.79561 29.9614 2.41054 29.1972 1.07036 27.7606C-1.77193 24.714 0.833142 16.2142 11.4582 16.2862C13.7062 16.3014 15.5889 16.6942 17.1346 17.3316C17.4718 17.4469 17.7143 17.7666 17.7143 18.1429C17.7143 18.6162 17.3305 19 16.8571 19C16.7124 19 16.5761 18.9641 16.4565 18.9008L16.4544 18.9054C15.0463 18.3295 13.3739 18.0135 11.4465 18.0004C9.17782 17.9851 7.25911 18.3953 5.71039 19.1581C4.37318 19.8167 3.34247 20.7257 2.65104 21.7886C2.04039 22.7274 1.7225 23.7502 1.71443 24.6871C1.70739 25.5064 1.93811 26.1778 2.32386 26.5912C2.45861 26.7356 2.77639 26.9314 3.25607 27.1275C3.80804 27.3531 4.51954 27.5577 5.35618 27.7294C7.03654 28.0743 9.1349 28.2693 11.2991 28.2847V28.2858C11.7663 28.293 12.1429 28.6739 12.1429 29.1429C12.1429 29.6162 11.7591 30 11.2857 30C11.269 30 11.2524 29.9995 11.2359 29.9986ZM14.8041 22.9062L19.1298 27.2409L28.0531 18.299C28.4985 17.8527 29.2206 17.8527 29.666 18.299C30.1113 18.7453 30.1113 19.469 29.666 19.9152L19.9362 29.6652C19.8305 29.7715 19.7049 29.8558 19.5665 29.9132C19.4281 29.9707 19.2796 30.0002 19.1298 30C18.9799 30.0002 18.8315 29.9707 18.6931 29.9132C18.5547 29.8558 18.4291 29.7715 18.3234 29.6652L13.1912 24.5224C12.7458 24.0761 12.7458 23.3525 13.1912 22.9062C13.6366 22.4599 14.3587 22.4599 14.8041 22.9062Z" fill="#333333"/>
</g>
<defs>
<clipPath id="clip0_42_204">
<rect width="30" height="30" fill="white"/>
</clipPath>
</defs>
</svg>
