<svg width="30" height="30" viewBox="0 0 30 30" fill="none" xmlns="http://www.w3.org/2000/svg">
<g clip-path="url(#clip0_42_162)">
<path fill-rule="evenodd" clip-rule="evenodd" d="M25.1567 2H29.7136C29.7512 2 29.7885 2.00741 29.8232 2.0218C29.858 2.03619 29.8895 2.05729 29.9161 2.08388C29.9427 2.11048 29.9638 2.14205 29.9782 2.1768C29.9926 2.21154 30 2.24879 30 2.2864V6.86872C30 6.92544 29.9832 6.98089 29.9516 7.02802C29.9201 7.07516 29.8752 7.11187 29.8228 7.13349C29.7704 7.15514 29.7127 7.16072 29.6571 7.14953C29.6015 7.13835 29.5505 7.1109 29.5105 7.07067L28.0243 5.57622L20.9107 12.8704L11.3737 5.58173L1.82782 12.6577C1.6309 12.8042 1.39198 12.8832 1.14656 12.8831C0.796049 12.8831 0.450083 12.7228 0.225334 12.4196C-0.151419 11.9113 -0.0448085 11.1939 0.463472 10.8171L11.3948 2.71416L20.6884 9.81688L26.4086 3.95143L24.9536 2.48834C24.9137 2.44822 24.8866 2.39719 24.8757 2.34168C24.8648 2.28616 24.8706 2.22866 24.8923 2.17642C24.914 2.12418 24.9507 2.07955 24.9978 2.04815C25.0448 2.01675 25.1002 2 25.1567 2ZM1.14567 27.704H28.8544C29.4871 27.704 30 27.1911 30 26.5584C30 25.9257 29.4871 25.4128 28.8544 25.4128H1.14567C0.512982 25.4128 8.40657e-05 25.9257 8.40657e-05 26.5584C8.40657e-05 27.1911 0.512982 27.704 1.14567 27.704ZM8.30309e-05 22.4415C8.30309e-05 23.2324 0.641215 23.8735 1.43206 23.8735C2.2229 23.8735 2.86404 23.2324 2.86404 22.4415V16.5344C2.86404 15.7435 2.2229 15.1024 1.43206 15.1024C0.641215 15.1024 8.30309e-05 15.7435 8.30309e-05 16.5344V22.4415ZM18.0907 22.4415C18.0907 23.2324 18.7318 23.8735 19.5227 23.8735C20.3136 23.8735 20.9547 23.2324 20.9547 22.4415V16.5344C20.9547 15.7435 20.3136 15.1024 19.5227 15.1024C18.7318 15.1024 18.0907 15.7435 18.0907 16.5344V22.4415ZM9.04542 22.4415C9.04542 23.2324 9.68655 23.8735 10.4774 23.8735C11.2682 23.8735 11.9094 23.2324 11.9094 22.4415V12.3994C11.9094 11.6086 11.2682 10.9674 10.4774 10.9674C9.68655 10.9674 9.04542 11.6086 9.04542 12.3994V22.4415ZM27.136 22.4415C27.136 23.2324 27.7771 23.8735 28.568 23.8735C29.3589 23.8735 30 23.2324 30 22.4415V12.3994C30 11.6086 29.3589 10.9674 28.568 10.9674C27.7771 10.9674 27.136 11.6086 27.136 12.3994V22.4415Z" fill="#333333"/>
</g>
<defs>
<clipPath id="clip0_42_162">
<rect width="30" height="30" fill="white"/>
</clipPath>
</defs>
</svg>
