<svg width="30" height="30" viewBox="0 0 30 30" fill="none" xmlns="http://www.w3.org/2000/svg">
<g clip-path="url(#clip0_42_268)">
<path d="M14.8879 0.212016L14.908 0.221424L27.2177 6.04241L27.2081 6.06276C27.5152 6.2639 27.7198 6.60906 27.7262 7.00243L27.7263 7.02136V17.1088H25.4396V8.8419L15.0065 13.8644V29.5712L14.3818 29.8757C14.2413 29.9475 14.0874 29.9891 13.9299 29.9981C13.9288 29.9981 13.9277 29.9982 13.9265 29.9983C13.9202 29.9986 13.9139 29.9989 13.9076 29.9992L13.9059 29.9992C13.8774 30.0003 13.8489 30.0003 13.8205 29.9992L13.8187 29.9992C13.8124 29.9989 13.8061 29.9986 13.7998 29.9983L13.7964 29.998C13.6389 29.9891 13.4851 29.9475 13.3446 29.8757L0.642958 23.6859C0.45018 23.592 0.287671 23.4457 0.173981 23.2637C0.0602916 23.0817 3.72661e-06 22.8714 0 22.6567V7.02136C0 6.49899 0.349509 6.05832 0.827181 5.92103C0.894846 5.88379 0.963446 5.84827 1.03291 5.81451L1.06625 5.79834C1.08854 5.78764 1.11127 5.77688 1.13578 5.76543L1.23768 5.71796L12.9398 0.219313C13.2444 0.0761205 13.5766 0.00127666 13.913 1.61902e-05C14.2495 -0.00124428 14.5823 0.0711091 14.8879 0.212016ZM29.6516 19.891L29.6651 19.9043C30.1072 20.3468 30.1116 21.0616 29.6784 21.5096L29.6651 21.5231L22.2271 28.9697C21.5792 29.6184 20.5272 29.6537 19.8632 29.0106L19.8432 28.9909L16.9064 26.0507C16.4599 25.6037 16.4599 24.8789 16.9064 24.4319C17.3484 23.9893 18.0624 23.9849 18.5099 24.4187L18.5233 24.4319L21.0245 26.936L28.0482 19.9043C28.4902 19.4617 29.2042 19.4573 29.6516 19.891ZM2.28671 8.8419V21.9408L12.7198 27.0251V13.8644L2.28671 8.8419ZM13.9196 2.31279L3.83928 7.04901L13.8632 11.8745L23.9109 7.03749L13.9196 2.31279Z" fill="#333333"/>
</g>
<defs>
<clipPath id="clip0_42_268">
<rect width="30" height="30" fill="white"/>
</clipPath>
</defs>
</svg>
