<svg width="30" height="30" viewBox="0 0 30 30" fill="none" xmlns="http://www.w3.org/2000/svg">
<g clip-path="url(#clip0_42_140)">
<path d="M19.2857 5.21429H10.2857C4.60507 5.21429 0 9.81936 0 15.5V19.7143C0 25.3949 4.60507 30 10.2857 30H26.7143C27.3455 30 27.8571 29.4883 27.8571 28.8571C27.8571 28.226 27.3455 27.7143 26.7143 27.7143H10.2857C5.86743 27.7143 2.28571 24.1326 2.28571 19.7143V15.5C2.28571 11.0817 5.86743 7.5 10.2857 7.5H19.2857V10.7053L19.2963 10.7112C19.3086 11.7012 20.1161 12.5 21.1104 12.5C21.512 12.5 21.8831 12.3697 22.1837 12.1491L28.9382 7.92914C29.5646 7.64368 30 7.01271 30 6.28021C30 5.54961 29.5669 4.92004 28.9431 4.6335L28.9403 4.53254L21.9755 0.181143L21.9438 0.202036C21.6943 0.0729286 21.4108 0 21.1104 0C20.1084 0 19.2961 0.811071 19.2961 1.81161C19.2961 1.85654 19.2978 1.90111 19.301 1.94525L19.2857 1.95536V5.21429Z" fill="#333333"/>
</g>
<defs>
<clipPath id="clip0_42_140">
<rect width="30" height="30" fill="white"/>
</clipPath>
</defs>
</svg>
