<svg width="30" height="30" viewBox="0 0 30 30" fill="none" xmlns="http://www.w3.org/2000/svg">
<path d="M0 27.6837H8.52556V21.2628H0V27.6837ZM1.71225 22.975H6.81332V25.9715H1.71225V22.975ZM10.7283 27.6837H19.2895V21.2628H10.7283V27.6837ZM12.4405 22.975H17.5773V25.9715H12.4405V22.975ZM21.5101 21.2628V27.6837H30V21.2628H21.5101ZM28.2878 25.9715H23.2224V22.975H28.2878V25.9715ZM4.67301 15.4126H14.4114V19.1225H15.5529V15.4126H25.2913V19.1225H26.4328V14.2711H15.5529V10.5969H21.4744V2H8.56124V10.5969H14.4114V14.2711H3.53151V19.1225H4.67301V15.4126ZM10.2735 8.88466V3.71225H19.7622V8.88466H10.2735Z" fill="#333333"/>
</svg>
