<svg width="30" height="30" viewBox="0 0 30 30" fill="none" xmlns="http://www.w3.org/2000/svg">
<g clip-path="url(#clip0_42_210)">
<path d="M30 27.1429V28.8571C30 29.4883 29.4883 30 28.8571 30H1.14286C0.511678 30 0 29.4883 0 28.8571V27.1429H30ZM22.5764 3.23162C26.7358 7.50554 26.7637 14.464 22.6387 18.7738L22.5764 18.8404L15.0017 26.6429L7.42528 18.8384C3.26575 14.5674 3.2355 7.61147 7.35757 3.30176C7.35893 3.30037 7.35982 3.29944 7.36114 3.29826L7.42532 3.23162C11.6195 -1.07721 18.3821 -1.07721 22.5764 3.23162ZM9.43907 5.51526C6.4036 8.63633 6.38107 13.7199 9.38864 16.8696C9.40503 16.8866 9.42107 16.9034 9.43742 16.9203L14.9825 22.6375L20.5259 16.9203C23.561 13.7986 23.5827 8.71519 20.5747 5.56572L20.5259 5.51526C17.4566 2.35769 12.5083 2.35769 9.43903 5.51526H9.43907ZM14.9642 6.29419C17.503 6.29419 19.5612 8.3594 19.5612 10.9075C19.5612 13.4553 17.503 15.5208 14.9642 15.5208C12.4255 15.5208 10.3673 13.4553 10.3673 10.9075C10.3673 8.3594 12.4255 6.29415 14.9642 6.29415V6.29419ZM15.0179 9.2624C14.109 9.2624 13.3723 9.9989 13.3723 10.9075C13.3723 11.8161 14.109 12.5525 15.0179 12.5525C15.9267 12.5525 16.6635 11.8161 16.6635 10.9075C16.6635 9.9989 15.9267 9.26244 15.0179 9.26244V9.2624Z" fill="#333333"/>
</g>
<defs>
<clipPath id="clip0_42_210">
<rect width="30" height="30" fill="white"/>
</clipPath>
</defs>
</svg>
