<svg width="30" height="30" viewBox="0 0 30 30" fill="none" xmlns="http://www.w3.org/2000/svg">
<path d="M22.1659 9.67852C21.9466 9.48271 21.663 9.37448 21.369 9.37448C21.075 9.37448 20.7914 9.48271 20.5721 9.67852L13.3964 16.2557L9.41193 12.6015C9.19158 12.4119 8.90986 12.3087 8.61914 12.3111C8.32841 12.3135 8.04845 12.4214 7.83128 12.6146C7.72865 12.7048 7.6462 12.8156 7.58931 12.9398C7.53242 13.064 7.50238 13.1988 7.50114 13.3354C7.4999 13.472 7.52749 13.6074 7.58212 13.7326C7.63675 13.8578 7.71718 13.9701 7.81815 14.0621L12.6014 18.4456C12.8197 18.6429 13.104 18.7512 13.3982 18.7494C13.6983 18.7494 13.987 18.6406 14.1951 18.4456L22.1678 11.1391C22.2709 11.0466 22.3536 10.9336 22.4108 10.8074C22.4679 10.6812 22.4982 10.5445 22.4996 10.406C22.4987 10.2672 22.4685 10.1301 22.411 10.0038C22.3535 9.87749 22.27 9.76473 22.1659 9.6729V9.67852Z" fill="#333333"/>
<path fill-rule="evenodd" clip-rule="evenodd" d="M10.7901 26.2528L14.2139 29.6764C14.4213 29.8836 14.7026 30 14.9958 30C15.289 30 15.5702 29.8836 15.7777 29.6764L19.1958 26.2528C19.4032 26.0453 19.6844 25.9286 19.9777 25.9284H24.8191C25.1125 25.9284 25.3938 25.8119 25.6013 25.6044C25.8088 25.397 25.9253 25.1156 25.9253 24.8222V19.9849C25.9255 19.6916 26.0422 19.4104 26.2497 19.2031L29.6754 15.7814C29.8822 15.5748 29.9989 15.2949 30 15.0026C30.001 14.7103 29.8864 14.4295 29.681 14.2214L26.2591 10.7978C26.052 10.591 25.9354 10.3105 25.9347 10.0179V5.17685C25.931 4.56376 25.4359 4.07066 24.8284 4.07066H19.9871C19.6927 4.06503 19.4115 3.95254 19.2052 3.74629L15.7814 0.322701C15.5741 0.116042 15.2932 0 15.0005 0C14.7077 0 14.4269 0.116042 14.2195 0.322701L10.7957 3.74629C10.5881 3.9531 10.3069 4.06909 10.0138 4.06878H5.17624C4.88284 4.06878 4.60145 4.18533 4.39399 4.39278C4.18652 4.60023 4.06997 4.8816 4.06997 5.17498V10.0104C4.06978 10.3037 3.9531 10.5849 3.74559 10.7922L0.323657 14.2139C0.116412 14.4214 0 14.7026 0 14.9958C0 15.289 0.116412 15.5702 0.323657 15.7776L3.74559 19.2012C3.95264 19.4081 4.06928 19.6885 4.06997 19.9812V24.8222C4.06997 25.1153 4.18626 25.3964 4.39332 25.6037C4.60038 25.8111 4.88129 25.9279 5.17436 25.9284H10.0101C10.3027 25.9291 10.5832 26.0457 10.7901 26.2528ZM24.6343 17.586C23.998 18.2217 23.6402 19.084 23.6396 19.9834L23.6396 23.6427H19.977C19.0776 23.6433 18.2146 24.001 17.5789 24.6372L14.9951 27.2251L12.4063 24.6365C11.7721 24.0021 10.9124 23.6448 10.0154 23.6427L10.0128 23.6427H6.35568V19.9785L6.35568 19.9758C6.35357 19.0789 5.99634 18.2195 5.36223 17.5854L2.77413 14.996L5.36178 12.4085C5.99759 11.7729 6.35509 10.9109 6.35568 10.0119L6.35568 6.35449H10.0127C10.9108 6.35509 11.7724 5.99954 12.4088 5.36571L12.4103 5.36415L15.0005 2.77419L17.589 5.36259C18.2415 6.01504 19.0993 6.33982 19.9434 6.35595L19.9653 6.35637H23.649V10.0206L23.649 10.0233C23.6511 10.9201 24.0083 11.7796 24.6424 12.4137L27.2254 14.9979L24.6343 17.586Z" fill="#333333"/>
</svg>
