<svg width="30" height="30" viewBox="0 0 30 30" fill="none" xmlns="http://www.w3.org/2000/svg">
<g clip-path="url(#clip0_42_271)">
<path d="M20.5079 0C23.0521 0 25.1015 2.10346 25.1422 4.69346L25.1429 4.77211V9.57143C25.1429 10.2026 24.6312 10.7143 24 10.7143C23.3751 10.7143 22.8674 10.2128 22.8573 9.59036L22.8571 9.57143V4.77211C22.8571 3.40311 21.8164 2.30782 20.5465 2.28604L20.5079 2.28571H4.63493C3.36043 2.28571 2.30696 3.36732 2.286 4.73071L2.28571 4.77211V25.2279C2.28571 26.5969 3.32643 27.6922 4.59636 27.714L4.63493 27.7143H12.5714C13.2026 27.7143 13.7143 28.226 13.7143 28.8571C13.7143 29.482 13.2128 29.9897 12.5904 30H4.63489C2.09071 30 0.0413215 27.8965 0.000607201 25.3065L0 25.2279V4.77211C0 2.17246 2.02396 0.0429644 4.55796 0.000642964L4.63493 0H20.5079ZM22.5 15C26.6421 15 30 18.3579 30 22.5C30 26.6421 26.6421 30 22.5 30C18.3579 30 15 26.6421 15 22.5C15 18.3579 18.3579 15 22.5 15ZM22.5 25.6429C22.0266 25.6429 21.6429 26.0266 21.6429 26.5C21.6429 26.9734 22.0266 27.3571 22.5 27.3571C22.9734 27.3571 23.3571 26.9734 23.3571 26.5C23.3571 26.0266 22.9734 25.6429 22.5 25.6429ZM22.5 17.5893C22.0314 17.5893 21.6505 17.9654 21.643 18.4323L21.6429 18.4464V24C21.6429 24.4734 22.0266 24.8571 22.5 24.8571C22.9686 24.8571 23.3495 24.481 23.357 24.0142L23.3571 24V18.4464C23.3571 17.973 22.9734 17.5893 22.5 17.5893ZM11.4286 21.2857C12.0597 21.2857 12.5714 21.7974 12.5714 22.4286C12.5714 23.0597 12.0597 23.5714 11.4286 23.5714H5.85714C5.22596 23.5714 4.71429 23.0597 4.71429 22.4286C4.71429 21.7974 5.22596 21.2857 5.85714 21.2857H11.4286ZM12.8571 13.8571C13.4883 13.8571 14 14.3688 14 15C14 15.6312 13.4883 16.1429 12.8571 16.1429H5.85714C5.22596 16.1429 4.71429 15.6312 4.71429 15C4.71429 14.3688 5.22596 13.8571 5.85714 13.8571H12.8571ZM19.2857 6.42857C19.9169 6.42857 20.4286 6.94025 20.4286 7.57143C20.4286 8.20261 19.9169 8.71428 19.2857 8.71428H5.85714C5.22596 8.71428 4.71429 8.20261 4.71429 7.57143C4.71429 6.94025 5.22596 6.42857 5.85714 6.42857H19.2857Z" fill="#333333"/>
</g>
<defs>
<clipPath id="clip0_42_271">
<rect width="30" height="30" fill="white"/>
</clipPath>
</defs>
</svg>
