<svg width="30" height="30" viewBox="0 0 30 30" fill="none" xmlns="http://www.w3.org/2000/svg">
<g clip-path="url(#clip0_42_173)">
<path fill-rule="evenodd" clip-rule="evenodd" d="M12.1743 15.0005C13.1932 15.0076 14.1414 15.0899 15.0214 15.236L15.0182 15.2551C15.5019 15.3882 15.8571 15.8312 15.8571 16.3571C15.8571 16.9883 15.3455 17.5 14.7143 17.5C14.5954 17.5 14.4808 17.4819 14.373 17.4482C13.6756 17.3464 12.9373 17.2916 12.1584 17.2861C9.82711 17.2699 7.86865 17.701 6.29615 18.4983C4.95018 19.1807 3.91579 20.1198 3.22218 21.2175C2.61133 22.1841 2.29386 23.2356 2.28586 24.192C2.27908 25.0005 2.49386 25.6439 2.83093 26.0158C2.84411 26.0303 2.87286 26.0562 2.91815 26.0905C2.98429 26.1406 3.06979 26.1959 3.17393 26.2544C3.42075 26.393 3.74497 26.5341 4.13704 26.6696C4.9759 26.9596 6.06593 27.2045 7.32576 27.3838C9.83379 27.7408 12.8235 27.8124 15.5035 27.5799C15.5286 27.5768 15.5537 27.5746 15.5789 27.5732L15.6178 27.5698L15.618 27.5717L15.6429 27.5714C16.274 27.5714 16.7857 28.0831 16.7857 28.7143C16.7857 29.2841 16.3686 29.7566 15.8231 29.843L15.8234 29.8462C10.0651 30.3662 2.95765 29.5594 1.13725 27.5507C-1.88267 24.2184 0.885219 14.9218 12.1743 15.0005ZM12.1429 0C16.1469 0 19.3929 3.24593 19.3929 7.25C19.3929 11.2541 16.1469 14.5 12.1429 14.5C8.13879 14.5 4.89286 11.2541 4.89286 7.25C4.89286 3.24593 8.13879 0 12.1429 0ZM12.1429 2.28571C9.40115 2.28571 7.17858 4.50829 7.17858 7.25C7.17858 9.99171 9.40115 12.2143 12.1429 12.2143C14.8846 12.2143 17.1071 9.99171 17.1071 7.25C17.1071 4.50829 14.8846 2.28571 12.1429 2.28571ZM20.7196 26.2568V20.7476C20.9881 20.2003 21.2209 19.6325 21.4178 19.0442L20.3743 18.7143C19.9549 19.9829 19.3896 21.0878 18.6786 22.029C18.7911 22.5252 18.8832 22.9984 18.9548 23.4485C19.2219 23.1282 19.4753 22.7966 19.7144 22.4549V26.2568H20.7196ZM25.1623 20.5405C25.3515 20.3461 25.5894 20.1108 25.8758 19.8345C25.4615 19.4611 25.019 19.1056 24.5484 18.768L23.9039 19.4202C24.3131 19.7271 24.7326 20.1006 25.1623 20.5405ZM25.0472 26.3029C25.4359 26.3028 25.7205 26.1289 25.9008 25.7811C26.0811 25.4332 26.2237 24.9396 26.3285 24.3002C26.0063 24.157 25.6917 23.9831 25.3848 23.7784C25.3541 24.0571 25.3073 24.3338 25.2448 24.6071C25.1821 24.8808 25.1309 25.0445 25.0913 25.0982C25.0516 25.1519 25.0075 25.1788 24.9589 25.1788C24.8055 25.1788 24.604 24.9486 24.3546 24.4882C24.1053 24.0279 23.886 23.1659 23.6967 21.9024L26.1674 21.5916L26.0753 20.6325L23.5893 20.9318C23.5305 20.2642 23.4998 19.5506 23.4972 18.791H22.4307C22.4537 19.6069 22.4959 20.3614 22.5573 21.0546L20.9958 21.2387L21.1186 22.2209L22.6647 22.029C23.01 24.8782 23.8041 26.3029 25.0472 26.3029ZM30 22.5C30 18.3579 26.6421 15 22.5 15C18.3579 15 15 18.3579 15 22.5C15 26.6421 18.3579 30 22.5 30C26.6421 30 30 26.6421 30 22.5ZM17.2857 22.5C17.2857 19.6202 19.6202 17.2857 22.5 17.2857C25.3798 17.2857 27.7143 19.6202 27.7143 22.5C27.7143 25.3798 25.3798 27.7143 22.5 27.7143C19.6202 27.7143 17.2857 25.3798 17.2857 22.5Z" fill="#333333"/>
</g>
<defs>
<clipPath id="clip0_42_173">
<rect width="30" height="30" fill="white"/>
</clipPath>
</defs>
</svg>
