<svg width="30" height="30" viewBox="0 0 30 30" fill="none" xmlns="http://www.w3.org/2000/svg">
<g clip-path="url(#clip0_42_118)">
<path d="M8.03688 19.821L8.07231 19.8213C9.23907 19.8402 10.1791 20.7919 10.1791 21.9632V25.9795L10.1789 25.9985C10.1688 26.6226 9.65974 27.1254 9.03324 27.1254L9.01431 27.1252C8.3902 27.1151 7.88742 26.606 7.88742 25.9795V23.7337L1.95583 29.6653C1.50951 30.1116 0.785897 30.1116 0.339574 29.6653L0.334788 29.6605C-0.111535 29.2142 -0.111535 28.4905 0.334788 28.0442L6.26638 22.1126H4.02051L4.00158 22.1125C3.37748 22.1023 2.87469 21.5933 2.87469 20.9668C2.87469 20.334 3.38769 19.821 4.02051 19.821H8.03688ZM25.9796 19.821C26.6124 19.821 27.1254 20.334 27.1254 20.9668C27.1254 21.5933 26.6226 22.1023 25.9985 22.1125L25.9796 22.1126H23.7337L29.6653 28.0442C30.1116 28.4905 30.1116 29.2142 29.6653 29.6605L29.6605 29.6653C29.2142 30.1116 28.4906 30.1116 28.0443 29.6653L22.1127 23.7337V25.9795C22.1127 26.606 21.6099 27.1151 20.9858 27.1252L20.9669 27.1254C20.3403 27.1254 19.8313 26.6226 19.8212 25.9985L19.821 25.9795V21.9632C19.821 20.7919 20.761 19.8402 21.9278 19.8213L21.9632 19.821H25.9796ZM1.95583 0.334742L7.88742 6.26633V4.02047C7.88742 3.39397 8.39021 2.88493 9.01428 2.87479L9.03324 2.87464C9.65974 2.87464 10.1688 3.37743 10.1789 4.00154L10.1791 4.02047V8.03684C10.1791 9.20809 9.23907 10.1598 8.07228 10.1787L8.03688 10.179H4.02051C3.38769 10.179 2.87469 9.66602 2.87469 9.0332C2.87469 8.40669 3.37748 7.89766 4.00158 7.88752L4.02051 7.88737H6.26638L0.334788 1.95578C-0.111535 1.50946 -0.111535 0.785851 0.334788 0.339528L0.339574 0.334742C0.785897 -0.111581 1.50951 -0.111581 1.95583 0.334742ZM28.0443 0.334742C28.4906 -0.111581 29.2142 -0.111581 29.6605 0.334742L29.6653 0.339528C30.1116 0.785851 30.1116 1.50946 29.6653 1.95578L23.7337 7.88737H25.9796L25.9985 7.88752C26.6226 7.89766 27.1254 8.40669 27.1254 9.0332C27.1254 9.66602 26.6124 10.179 25.9796 10.179H21.9632L21.9278 10.1787C20.761 10.1598 19.821 9.20809 19.821 8.03684V4.02047L19.8212 4.00154C19.8313 3.37743 20.3403 2.87464 20.9669 2.87464L20.9858 2.87479C21.6099 2.88493 22.1127 3.39397 22.1127 4.0205V6.26633L28.0443 0.334742Z" fill="#333333"/>
</g>
<defs>
<clipPath id="clip0_42_118">
<rect width="30" height="30" fill="white"/>
</clipPath>
</defs>
</svg>
