<svg width="30" height="30" viewBox="0 0 30 30" fill="none" xmlns="http://www.w3.org/2000/svg">
<g clip-path="url(#clip0_42_282)">
<path fill-rule="evenodd" clip-rule="evenodd" d="M10.6964 0C12.1264 0 13.2857 1.15929 13.2857 2.58929C13.2857 2.83057 13.2527 3.06414 13.191 3.28571H17.1429V4.28571H19.1429C20.4052 4.28571 21.4286 5.30907 21.4286 6.57143V12.8929H20.2857V6.57143C20.2857 5.94657 19.7842 5.43882 19.1618 5.42857H17.1429V6.42857H4.28571V5.42857H2.28571C1.66086 5.42857 1.15311 5.93007 1.14286 6.5525V27.7143C1.14286 28.3391 1.64436 28.8469 2.26679 28.8571H7.69864C8.08989 29.5335 8.81779 29.9908 9.65321 30H2.28571C1.02336 30 0 28.9766 0 27.7143V6.57143C0 5.30907 1.02336 4.28571 2.28571 4.28571H4.28571V3.28571H8.20189C8.13883 3.05895 8.10695 2.82465 8.10714 2.58929C8.10714 1.15929 9.26643 0 10.6964 0ZM7.39286 21.4821H4.85714C4.54154 21.4821 4.28571 21.2263 4.28571 20.9107C4.28571 20.5989 4.5355 20.3454 4.84589 20.3394L4.85714 20.3393H7.39286V21.4821ZM7.39286 14.9821V16.125H4.85714C4.54154 16.125 4.28571 15.8692 4.28571 15.5536C4.28571 15.2417 4.5355 14.9882 4.84589 14.9823L4.85714 14.9821H7.39286ZM16.5714 9.60714C16.887 9.60714 17.1429 9.86296 17.1429 10.1786C17.1429 10.4904 16.8931 10.7439 16.5827 10.7499L16.5714 10.75H4.85714C4.54154 10.75 4.28571 10.4942 4.28571 10.1786C4.28571 9.86675 4.5355 9.61321 4.84589 9.60725L4.85714 9.60714H16.5714ZM27.7143 15.0357C28.9766 15.0357 30 16.0591 30 17.3214V27.7143C30 28.9766 28.9766 30 27.7143 30H10.8571C9.59479 30 8.57143 28.9766 8.57143 27.7143V18.797V17.3214V13.4643C8.57143 13.1525 8.82121 12.8989 9.13161 12.893L9.14286 12.8929H15.5714C15.6686 12.8929 15.7643 12.9177 15.8492 12.9649L15.8633 12.973L19.2155 14.9643C19.2506 14.9851 19.2826 15.0091 19.3115 15.0357H27.7143ZM17.098 15.0357L15.4145 14.0357H9.71425L9.71426 15.3415C10.0505 15.147 10.4408 15.0357 10.8571 15.0357H17.098ZM9.71428 18.7868V27.7143C9.71428 28.3391 10.2158 28.8469 10.8382 28.857L10.8571 28.8571H27.7143C28.3391 28.8571 28.8469 28.3556 28.8571 27.7332V17.3214C28.8571 16.6966 28.3556 16.1888 27.7332 16.1787L27.7143 16.1786H10.8571C10.2323 16.1786 9.72453 16.6801 9.71428 17.3025L9.71429 18.7857C9.71429 18.7861 9.71428 18.7864 9.71428 18.7868ZM27.0714 18.7143C27.0714 18.3987 26.8156 18.1429 26.5 18.1429H14.7857L14.7745 18.143C14.4641 18.1489 14.2143 18.4025 14.2143 18.7143C14.2143 19.0299 14.4701 19.2857 14.7857 19.2857H26.5L26.5112 19.2856C26.8216 19.2796 27.0714 19.0261 27.0714 18.7143ZM27.0714 22.5179C27.0714 22.2022 26.8156 21.9464 26.5 21.9464H14.7857L14.7745 21.9465C14.4641 21.9525 14.2143 22.206 14.2143 22.5179C14.2143 22.8335 14.4701 23.0893 14.7857 23.0893H26.5L26.5112 23.0892C26.8216 23.0832 27.0714 22.8297 27.0714 22.5179ZM27.0714 26.3036C27.0714 25.988 26.8156 25.7321 26.5 25.7321H14.7857L14.7745 25.7323C14.4641 25.7382 14.2143 25.9917 14.2143 26.3036C14.2143 26.6192 14.4701 26.875 14.7857 26.875H26.5L26.5112 26.8749C26.8216 26.8689 27.0714 26.6154 27.0714 26.3036ZM12.0714 18.7321C12.0714 18.8142 12.0876 18.8955 12.119 18.9713C12.1504 19.0471 12.1965 19.116 12.2545 19.1741C12.3125 19.2321 12.3814 19.2782 12.4573 19.3096C12.5331 19.341 12.6144 19.3571 12.6964 19.3571C12.7785 19.3571 12.8598 19.341 12.9356 19.3096C13.0114 19.2782 13.0803 19.2321 13.1384 19.1741C13.1964 19.116 13.2424 19.0471 13.2739 18.9713C13.3053 18.8955 13.3214 18.8142 13.3214 18.7321C13.3214 18.6501 13.3053 18.5688 13.2739 18.493C13.2424 18.4171 13.1964 18.3482 13.1384 18.2902C13.0803 18.2322 13.0114 18.1861 12.9356 18.1547C12.8598 18.1233 12.7785 18.1071 12.6964 18.1071C12.6144 18.1071 12.5331 18.1233 12.4573 18.1547C12.3814 18.1861 12.3125 18.2322 12.2545 18.2902C12.1965 18.3482 12.1504 18.4171 12.119 18.493C12.0876 18.5688 12.0714 18.6501 12.0714 18.7321ZM12.119 22.7213C12.0876 22.6455 12.0714 22.5642 12.0714 22.4821C12.0714 22.4001 12.0876 22.3188 12.119 22.243C12.1504 22.1671 12.1965 22.0982 12.2545 22.0402C12.3125 21.9822 12.3814 21.9361 12.4573 21.9047C12.5331 21.8733 12.6144 21.8571 12.6964 21.8571C12.7785 21.8571 12.8598 21.8733 12.9356 21.9047C13.0114 21.9361 13.0803 21.9822 13.1384 22.0402C13.1964 22.0982 13.2424 22.1671 13.2739 22.243C13.3053 22.3188 13.3214 22.4001 13.3214 22.4821C13.3214 22.5642 13.3053 22.6455 13.2739 22.7213C13.2424 22.7971 13.1964 22.866 13.1384 22.9241C13.0803 22.9821 13.0114 23.0282 12.9356 23.0596C12.8598 23.091 12.7785 23.1071 12.6964 23.1071C12.6144 23.1071 12.5331 23.091 12.4573 23.0596C12.3814 23.0282 12.3125 22.9821 12.2545 22.9241C12.1965 22.866 12.1504 22.7971 12.119 22.7213ZM12.0714 26.3036C12.0714 26.3856 12.0876 26.4669 12.119 26.5427C12.1504 26.6186 12.1965 26.6875 12.2545 26.7455C12.3125 26.8035 12.3814 26.8496 12.4573 26.881C12.5331 26.9124 12.6144 26.9286 12.6964 26.9286C12.7785 26.9286 12.8598 26.9124 12.9356 26.881C13.0114 26.8496 13.0803 26.8035 13.1384 26.7455C13.1964 26.6875 13.2424 26.6186 13.2739 26.5427C13.3053 26.4669 13.3214 26.3856 13.3214 26.3036C13.3214 26.2215 13.3053 26.1402 13.2739 26.0644C13.2424 25.9886 13.1964 25.9197 13.1384 25.8616C13.0803 25.8036 13.0114 25.7576 12.9356 25.7261C12.8598 25.6947 12.7785 25.6786 12.6964 25.6786C12.6144 25.6786 12.5331 25.6947 12.4573 25.7261C12.3814 25.7576 12.3125 25.8036 12.2545 25.8616C12.1965 25.9197 12.1504 25.9886 12.119 26.0644C12.0876 26.1402 12.0714 26.2215 12.0714 26.3036Z" fill="#333333"/>
</g>
<defs>
<clipPath id="clip0_42_282">
<rect width="30" height="30" fill="white"/>
</clipPath>
</defs>
</svg>
