<svg width="30" height="30" viewBox="0 0 30 30" fill="none" xmlns="http://www.w3.org/2000/svg">
<g clip-path="url(#clip0_2293_15)">
<path d="M29.6652 0.37725L29.6228 0.33475C29.1765 -0.111571 28.4528 -0.111571 28.0065 0.33475L0.334714 28.0065C-0.111571 28.4528 -0.111571 29.1764 0.334714 29.6228L0.377214 29.6652C0.823571 30.1116 1.54721 30.1116 1.99354 29.6652L29.6652 1.9935C30.1115 1.54721 30.1115 0.823536 29.6652 0.37725H29.6652ZM23.4239 0C24.3482 0 25.1444 0.548214 25.5043 1.33689L23.4207 3.42046V2.28571H2.28843V24.5527L0 26.8412V2.283C0 1.02214 1.02314 0 2.28521 0H23.4239ZM25.7092 7.44957L23.4207 9.73804V11.0572H23.4209C23.4324 11.6785 23.9402 12.1786 24.565 12.1786C25.1897 12.1786 25.6975 11.6785 25.709 11.0572H25.7092V7.44957ZM20.2594 12.8994L12.8786 20.2802C12.8745 20.3834 12.8725 20.4866 12.8725 20.5899C12.8725 24.8409 16.3226 28.287 20.5787 28.287C22.294 28.287 23.8783 27.7273 25.1587 26.7807L28.0467 29.6652C28.4935 30.1116 29.218 30.1116 29.6649 29.6652C30.1117 29.219 30.1117 28.4953 29.6649 28.049L26.7769 25.1645C27.7246 23.8856 28.285 22.3031 28.285 20.5899C28.285 16.3389 24.8347 12.8929 20.5787 12.8929C20.4718 12.8929 20.3653 12.895 20.2594 12.8994ZM20.5787 26.0013C17.5865 26.0013 15.1609 23.5785 15.1609 20.5899C15.1609 17.6013 17.5865 15.1786 20.5787 15.1786C23.5709 15.1786 25.9965 17.6013 25.9965 20.5899C25.9965 23.5785 23.5709 26.0013 20.5787 26.0013ZM11.1405 22.0182L9.18732 23.9715H10.3337C10.9657 23.9715 11.478 23.4598 11.478 22.8286C11.478 22.5119 11.3489 22.2252 11.1405 22.0182ZM3.15879 30L5.4445 27.7143H12.8979V27.7146C13.5181 27.728 14.0167 28.2344 14.0167 28.8571C14.0167 29.4799 13.5181 29.9862 12.8979 29.9997V30H3.15879Z" fill="#333333"/>
<path d="M19.8809 5.6503C20.2392 5.6503 20.5591 5.81483 20.7689 6.07241L18.9053 7.93601H5.89995C5.26802 7.93601 4.75574 7.42433 4.75574 6.79316C4.75574 6.16198 5.26802 5.6503 5.89995 5.6503H19.8809ZM5.89995 15.936C5.26802 15.936 4.75574 15.4243 4.75574 14.7932C4.75574 14.162 5.26802 13.6503 5.89995 13.6503H10.4053C11.0372 13.6503 11.5495 14.162 11.5495 14.7932C11.5495 15.4243 11.0372 15.936 10.4053 15.936H5.89995Z" fill="#333333"/>
</g>
<defs>
<clipPath id="clip0_2293_15">
<rect width="30" height="30" fill="white"/>
</clipPath>
</defs>
</svg>
