<svg width="30" height="30" viewBox="0 0 30 30" fill="none" xmlns="http://www.w3.org/2000/svg">
<path fill-rule="evenodd" clip-rule="evenodd" d="M4.28571 4.48071C7.0125 1.75286 10.9093 0 15 0C19.0907 0 22.9875 1.55893 25.5193 4.28571C28.2471 7.0125 30 10.9093 30 15C30 19.0907 28.4411 22.9875 25.7143 25.5193C22.9875 28.2471 19.0907 30 15 30H3.89571C3.31179 30 2.72679 29.4161 2.72679 28.8321V23.5714C1.94786 22.4025 1.16893 21.0386 0.778929 19.6757C0.195 18.1179 0 16.5589 0 15C0 10.9093 1.55893 7.2075 4.28571 4.48071ZM10.2594 3.60227C8.76192 4.22082 7.40307 5.13217 6.2625 6.28286C3.98786 8.5575 2.66143 11.5907 2.66143 15.0021C2.66143 16.3296 2.85107 17.6561 3.23036 18.7939C3.60857 19.9307 4.1775 21.2582 4.93607 22.2054C5.12571 22.5846 5.12571 22.7743 5.12571 22.9639V27.3236H14.9829C18.3943 27.3236 21.4275 25.9971 23.7021 23.7225C25.9768 21.4479 27.3043 18.4146 27.3043 15.0021C27.3143 13.3822 27.0009 11.7765 26.3824 10.2793C25.7638 8.78207 24.8526 7.42337 23.7021 6.28286C21.4275 4.00821 18.3943 2.68071 14.9829 2.68071C13.3627 2.6704 11.7568 2.98371 10.2594 3.60227ZM17.0257 16.1345L14.1257 21.1457C13.9809 21.4273 13.95 21.7538 14.0393 22.0576C14.1237 22.3445 14.3092 22.5904 14.5605 22.7502C14.5845 22.7665 14.6091 22.782 14.6344 22.7966C14.8954 22.9472 15.2052 22.9891 15.4968 22.9134C15.511 22.9097 15.525 22.9058 15.5389 22.9016C15.8354 22.8228 16.0923 22.6363 16.2589 22.3779L20.1911 15.585C20.272 15.445 20.3246 15.2904 20.3457 15.1301C20.3669 14.9698 20.3563 14.8069 20.3145 14.6507C20.2914 14.5642 20.259 14.4807 20.2179 14.4016C20.0256 13.9723 19.5947 13.6725 19.0929 13.6725L13.3711 13.6663L16.2471 8.69786C16.3281 8.55787 16.3806 8.4033 16.4018 8.24299C16.423 8.08269 16.4124 7.91978 16.3706 7.76357C16.3288 7.60736 16.2567 7.46091 16.1583 7.33259C16.0599 7.20428 15.9372 7.0966 15.7971 7.01572C15.5142 6.85251 15.178 6.80822 14.8625 6.89259C14.5469 6.97696 14.2777 7.18308 14.1139 7.46572L10.1818 14.2586C10.041 14.5324 10.0078 14.8487 10.0883 15.1452C10.1348 15.371 10.2442 15.581 10.406 15.7497C10.6263 15.9793 10.9267 16.115 11.2446 16.1282L17.0257 16.1345Z" fill="#333333"/>
</svg>
