<svg width="30" height="30" viewBox="0 0 30 30" fill="none" xmlns="http://www.w3.org/2000/svg">
<g clip-path="url(#clip0_42_237)">
<path d="M17.9448 12.0552C20.0163 14.1267 20.0301 17.4783 17.9927 19.5826L17.9303 19.646L9.1556 28.4206C7.0558 30.5204 3.65729 30.5276 1.56484 28.4352C-0.50665 26.3636 -0.5204 23.0121 1.51702 20.9078L1.57937 20.8444L7.3528 15.071C7.80023 14.6236 8.52474 14.6227 8.97103 15.069C9.41293 15.5109 9.41646 16.2254 8.98235 16.6738L8.96907 16.6873L3.19561 22.4607C1.99002 23.6663 1.98591 25.6157 3.18507 26.8149C4.37226 28.0021 6.29479 28.0099 7.50294 26.8402L7.5393 26.8044L16.314 18.0297C17.5076 16.8361 17.5235 14.9135 16.3602 13.7116L16.3245 13.6754C15.8782 13.2291 15.8791 12.5046 16.3265 12.0572C16.774 11.6097 17.4985 11.6088 17.9448 12.0552V12.0552ZM28.4352 1.56479C30.5067 3.63632 30.5205 6.98789 28.483 9.0922L28.4207 9.15556L22.6473 14.9289C22.1998 15.3764 21.4753 15.3773 21.029 14.9309C20.5871 14.4891 20.5836 13.7746 21.0177 13.3262L21.031 13.3127L26.8044 7.53929C28.01 6.3337 28.0141 4.38425 26.815 3.18506C25.6278 1.9979 23.7053 1.99005 22.4971 3.15981L22.4608 3.1956L13.686 11.9703C12.4925 13.1639 12.4765 15.0864 13.6399 16.2884L13.6755 16.3245C14.1218 16.7709 14.1209 17.4954 13.6735 17.9428C13.2261 18.3902 12.5016 18.3911 12.0552 17.9448C9.98372 15.8733 9.97001 12.5217 12.0074 10.4174L12.0698 10.354L20.8445 1.57936C22.9443 -0.520446 26.3428 -0.527589 28.4352 1.56483V1.56479Z" fill="#333333"/>
</g>
<defs>
<clipPath id="clip0_42_237">
<rect width="30" height="30" fill="white"/>
</clipPath>
</defs>
</svg>
