<svg width="30" height="30" viewBox="0 0 30 30" fill="none" xmlns="http://www.w3.org/2000/svg">
<path fill-rule="evenodd" clip-rule="evenodd" d="M3 11.647C3 5.21451 8.21458 0 14.6471 0C21.0796 0 26.2942 5.21451 26.2942 11.647C26.2942 18.0796 18.3086 30 14.6471 30C11.3667 30 3 18.0796 3 11.647ZM15.3366 28.017C15.7754 27.7551 16.2956 27.3386 16.8409 26.8125C17.5217 26.1555 18.9648 24.3843 18.9828 24.3622L18.9829 24.362L20.7116 21.7093C20.7117 21.705 20.7117 21.7008 20.7118 21.6966C20.712 21.6887 20.7121 21.6809 20.7121 21.6728L20.7121 21.6682C20.712 21.6594 20.7118 21.6506 20.7116 21.6419C20.7114 21.6358 20.7113 21.6298 20.7112 21.6237C20.6897 20.2629 20.1891 19.1558 19.2771 18.3303C19.1806 18.243 19.0807 18.1597 18.9775 18.0805C18.374 17.6169 17.6316 17.2672 16.7972 17.0473C16.7416 17.0327 16.6856 17.0187 16.6292 17.0051L14.9928 19.0346V21.4281C14.9928 22.0446 14.493 22.5445 13.8764 22.5445H12.2021C12.1276 22.5445 12.0547 22.5371 11.9843 22.5231L11.9771 22.5218L11.9688 22.5199C11.4643 22.4126 11.0858 21.9647 11.0858 21.4281V21.0885C10.5806 20.8786 10.2254 20.3805 10.2254 19.7995C10.2254 19.0289 10.85 18.4043 11.6206 18.4043C12.3911 18.4043 13.0156 19.0289 13.0156 19.7995C13.0156 20.4988 12.501 21.0781 11.8298 21.179V21.4281C11.8297 21.5013 11.8512 21.5729 11.8917 21.6339C11.9321 21.6949 11.9897 21.7427 12.0571 21.7711C12.103 21.7904 12.1522 21.8004 12.202 21.8003H13.8764C13.9021 21.8003 13.9271 21.7978 13.9514 21.7928C14.0354 21.7755 14.1108 21.7298 14.1649 21.6633C14.2191 21.5969 14.2486 21.5138 14.2486 21.4281V19.143C14.2362 19.1208 14.2263 19.0977 14.2188 19.0738L12.6954 16.9861C11.8786 17.1726 11.1427 17.4801 10.5284 17.8954C10.4413 17.9543 10.3561 18.0158 10.2728 18.08C9.22297 18.8885 8.61866 20.0163 8.53787 21.4299L10.5005 24.3939C10.5005 24.3939 11.81 26.0017 12.4301 26.629C12.9825 27.1878 13.4888 27.6252 13.935 27.9292C14.3792 28.2318 14.6093 28.294 14.6601 28.3049C14.7126 28.2993 14.9254 28.2623 15.3366 28.017ZM14.0239 16.7957C13.853 16.8067 13.6823 16.8226 13.5123 16.8435L14.6008 18.3352L15.7964 16.8524C15.4164 16.8025 15.0231 16.7767 14.6202 16.7767C14.4213 16.7766 14.2224 16.7829 14.0239 16.7957ZM10.9694 19.7996C10.9694 20.1591 11.2609 20.4507 11.6204 20.4506C11.98 20.4506 12.2715 20.1591 12.2715 19.7996C12.2715 19.44 11.98 19.1486 11.6204 19.1486C11.2609 19.1486 10.9694 19.44 10.9694 19.7996ZM21.6602 20.2537L21.6802 20.223C21.6802 20.223 22.9462 17.7792 23.4166 16.5985C24.1908 14.655 24.6 12.9428 24.6 11.647C24.6 10.3026 24.3371 8.99935 23.8185 7.77341C23.3174 6.58844 22.5995 5.52386 21.6849 4.60925C20.7702 3.69463 19.7057 2.97678 18.5207 2.47557C17.2948 1.95703 15.9915 1.69412 14.6471 1.69412C13.3027 1.69412 11.9994 1.95703 10.7735 2.47557C9.58847 2.97678 8.5239 3.69463 7.60928 4.60925C6.69467 5.52386 5.97678 6.58844 5.47557 7.77341C4.95703 8.99935 4.69412 10.3026 4.69412 11.647C4.69412 12.9022 5.10389 14.5704 5.87919 16.4713C6.3233 17.5604 7.48134 19.767 7.63699 20.0625C8.44554 17.1869 11.3303 15.6606 14.6202 15.6606C17.9707 15.6606 20.9193 17.2437 21.6531 20.2229C21.6542 20.2272 21.6552 20.2317 21.6562 20.2361C21.6575 20.2419 21.6589 20.2478 21.6602 20.2537ZM19.0649 10.4122L19.0648 10.3315L19.0648 10.3182C19.0645 10.1445 19.0625 9.97091 19.0587 9.79731L19.0585 9.79727C19.0081 7.67768 18.5639 5.06796 14.6471 5.05754C10.7319 5.04717 10.2863 7.67048 10.2356 9.79353L10.2354 9.7936C10.2316 9.96808 10.2296 10.1426 10.2294 10.3171L10.2292 10.3535L10.2291 10.4114L10.2291 10.4713V10.5801C10.2291 12.7724 11.6744 15.6576 14.6471 15.6606C17.6197 15.6636 19.065 12.7724 19.065 10.5801V10.5739V10.5723V10.4992L19.065 10.4727L19.0649 10.4122ZM11.4113 8.87969C11.5115 8.01552 11.7421 7.39123 12.1368 6.96922C12.1818 6.92105 12.2293 6.87518 12.2789 6.83178C12.3407 6.77792 12.4056 6.72783 12.4734 6.68178C12.504 6.66099 12.5351 6.64099 12.5667 6.62178C13.0457 6.33061 13.7168 6.17118 14.6441 6.17365C15.8958 6.17697 16.6825 6.47051 17.1597 6.98203C17.5176 7.36547 17.7399 7.91334 17.8524 8.65494C17.864 8.73164 17.8744 8.81045 17.8837 8.89134C17.9086 9.10748 17.9244 9.30841 17.9343 9.54506C17.5999 9.48163 17.2638 9.42791 16.9263 9.38398C16.1681 9.28571 15.4044 9.23647 14.6399 9.23659C13.5161 9.23659 12.4191 9.34208 11.3599 9.54231C11.3698 9.30227 11.3859 9.0987 11.4113 8.87969ZM17.0716 13.2761C16.4709 14.0928 15.6604 14.5393 14.6483 14.5382H14.6482L14.6368 14.5381C14.3244 14.5367 14.0311 14.4929 13.7575 14.4089C13.7497 14.4065 13.742 14.404 13.7343 14.4014L13.7192 14.3964L13.701 14.3906L13.6749 14.3821C13.1016 14.186 12.6166 13.8092 12.2222 13.2734C11.688 12.5477 11.3706 11.5756 11.3467 10.6819C11.6789 10.6144 12.0131 10.5573 12.3489 10.5106C12.9853 10.4223 13.6264 10.371 14.2688 10.3571C14.3856 10.3545 14.5025 10.353 14.6196 10.3529L14.64 10.3528C15.7642 10.3528 16.8713 10.465 17.9475 10.6849C17.9229 11.5784 17.6053 12.5505 17.0716 13.2761ZM15.0191 8.63839V8.08035H15.5772V7.33628H15.0191V6.77821H14.2751V7.33628H13.717V8.08035H14.2751V8.63839H15.0191Z" fill="#333333"/>
</svg>
