<svg width="30" height="30" viewBox="0 0 30 30" fill="none" xmlns="http://www.w3.org/2000/svg">
<g clip-path="url(#clip0_42_277)">
<path fill-rule="evenodd" clip-rule="evenodd" d="M17.8572 8.48244C17.8572 11.8455 15.6427 16.2795 11.0883 16.2857C17.0006 16.2918 22.0944 19.5075 22.1427 25.4994C22.1786 29.9536 16.7962 29.975 11.3566 29.9967L11.1963 29.9974C5.6195 30.0201 -0.0632186 29.9974 0.000531424 25.4994C0.0854989 19.5043 5.14837 16.2882 11.0648 16.2857C6.50354 16.2767 4.28578 11.848 4.28585 8.48244V8.31515L4.28592 8.22312L4.28607 8.13437L4.28621 8.07837C4.28692 7.81765 4.2891 7.5488 4.29557 7.27422L4.29582 7.27415C4.37371 4.01337 5.05814 -0.0158815 11.0715 4.70778e-05C17.0876 0.0159756 17.7699 4.0243 17.8472 7.27987L17.8475 7.27994C17.8539 7.55297 17.856 7.82047 17.8568 8.08001L17.8569 8.10037L17.8571 8.22447L17.8572 8.3173L17.8572 8.35812V8.47033V8.47276V8.4728V8.48244ZM7.21582 2.93622C6.60975 3.58444 6.25535 4.54333 6.1016 5.87058C6.0626 6.20701 6.03792 6.51969 6.02264 6.88844C7.64957 6.58097 9.33439 6.4189 11.0605 6.4189C12.7945 6.4189 14.4867 6.58244 16.1205 6.89262C16.1054 6.52919 16.0811 6.22055 16.0429 5.88858C15.8904 4.56315 15.5373 3.60587 14.9309 2.95598C14.1979 2.1703 12.9895 1.71944 11.067 1.71433C9.15107 1.7093 7.94721 2.15401 7.21582 2.93622ZM16.1406 8.64322C14.4876 8.30551 12.7872 8.13319 11.0605 8.13319C9.3415 8.13319 7.64842 8.30401 6.00228 8.63872C6.03896 10.0115 6.5265 11.5044 7.34703 12.6191C8.26992 13.8729 9.51646 14.5602 11.0732 14.5618C12.6279 14.5633 13.8729 13.8776 14.7955 12.6232C15.6152 11.5087 16.1029 10.0155 16.1406 8.64322ZM20.6786 16.6667C20.6786 16.3511 20.9345 16.0953 21.2502 16.0953H26.5714C26.887 16.0953 27.1429 16.351 27.1429 16.6667C27.1429 16.9823 26.887 17.2381 26.5714 17.2381H21.2502C20.9345 17.2381 20.6786 16.9823 20.6786 16.6667ZM12.8783 18.1162C12.2945 18.0397 11.6906 18 11.0716 18C10.4894 18 9.92082 18.0348 9.3701 18.1026L11.042 20.3937L12.8783 18.1162ZM18.3419 27.7591C19.1277 27.5395 19.6652 27.2517 19.982 26.9109C20.2803 26.59 20.4337 26.1656 20.4284 25.5132C20.4095 23.1721 19.4729 21.3159 17.7642 20.0027C16.7754 19.2429 15.5439 18.6826 14.1572 18.3509L11.6437 21.468V25.1443C11.6437 26.0912 10.8761 26.8589 9.92914 26.8589H7.35742C6.41046 26.8589 5.64282 26.0915 5.64282 25.1444V24.6226C4.86696 24.3003 4.32139 23.5353 4.32139 22.6428C4.32139 21.4594 5.28078 20.5 6.46425 20.5C7.64771 20.5 8.6071 21.4594 8.6071 22.6428C8.6071 23.717 7.81667 24.6066 6.78567 24.7617V25.1444C6.78567 25.4602 7.04157 25.716 7.35742 25.716H9.92914C10.2449 25.716 10.5009 25.4601 10.5009 25.1443V21.6346C10.482 21.6008 10.4667 21.5651 10.455 21.5282L8.11525 18.3218C6.68157 18.6491 5.41014 19.2192 4.39425 20.0017C2.68942 21.3147 1.74792 23.1751 1.71464 25.5237C1.70546 26.1703 1.86132 26.5897 2.17342 26.9137C2.51275 27.266 3.0901 27.5636 3.92671 27.7877C4.774 28.0146 5.8396 28.1545 7.17532 28.2247C8.24025 28.2807 9.22489 28.2911 11.1893 28.2831L11.3508 28.2824C13.356 28.2745 14.2265 28.2596 15.2418 28.1999C16.5252 28.1244 17.5395 27.9834 18.3419 27.7591ZM5.46428 22.6429C5.46428 23.1951 5.912 23.6429 6.46428 23.6429C7.01657 23.6429 7.46428 23.1951 7.46428 22.6429C7.46428 22.0906 7.01657 21.6429 6.46428 21.6429C5.912 21.6429 5.46428 22.0906 5.46428 22.6429ZM11.6429 4.64286V5.5H10.5V4.64286H9.64285V3.5H10.5V2.64286H11.6429V3.5H12.5V4.64286H11.6429ZM25.7144 4.85714H19.9286C19.4552 4.85714 19.0714 5.24089 19.0714 5.71429C19.0714 6.18768 19.4552 6.57143 19.9286 6.57143H25.7144C27.1345 6.57143 28.2858 7.72282 28.2858 9.14303V20.857C28.2858 22.2772 27.1345 23.4286 25.7144 23.4286H24.1429C23.6695 23.4286 23.2857 23.8123 23.2857 24.2857C23.2857 24.7591 23.6695 25.1429 24.1429 25.1429H25.7144C28.0813 25.1429 30.0001 23.224 30.0001 20.857V9.14303C30.0001 6.77607 28.0813 4.85714 25.7144 4.85714ZM26.5713 13.9047H19.143C18.8273 13.9047 18.5714 13.649 18.5714 13.3333C18.5714 13.0177 18.8274 12.7619 19.143 12.7619H26.5713C26.887 12.7619 27.1429 13.0177 27.1429 13.3333C27.1429 13.6489 26.8869 13.9047 26.5713 13.9047ZM27.1429 20C27.1429 20.3156 26.8868 20.5714 26.5715 20.5714H23.4284C23.1129 20.5714 22.8571 20.3157 22.8571 20C22.8571 19.6844 23.1132 19.4286 23.4284 19.4286H26.5715C26.8871 19.4286 27.1429 19.6843 27.1429 20ZM27.1429 10C27.1429 10.3156 26.8873 10.5714 26.5717 10.5714H19.9997C19.6843 10.5714 19.4286 10.3156 19.4286 10C19.4286 9.68443 19.6841 9.42857 19.9997 9.42857H26.5717C26.8871 9.42857 27.1429 9.68436 27.1429 10Z" fill="#333333"/>
</g>
<defs>
<clipPath id="clip0_42_277">
<rect width="30" height="30" fill="white"/>
</clipPath>
</defs>
</svg>
