<svg width="30" height="30" viewBox="0 0 30 30" fill="none" xmlns="http://www.w3.org/2000/svg">
<g clip-path="url(#clip0_42_167)">
<path d="M26.0714 0C28.2411 0 30 1.75889 30 3.92857V26.0714C30 28.2411 28.2411 30 26.0714 30H3.92857C1.75889 30 0 28.2411 0 26.0714V3.92857C0 1.75889 1.75889 0 3.92857 0H26.0714ZM26.0986 2.28571H3.92857C3.03032 2.28571 2.30043 3.00661 2.28571 3.90143V26.0714C2.28571 26.9697 3.00661 27.6996 3.90143 27.7143H26.0714C26.9697 27.7143 27.6996 26.9934 27.7143 26.0986V3.92857C27.7143 3.03032 26.9934 2.30043 26.0986 2.28571ZM24.5714 18.9734C25.2026 18.9734 25.7143 19.4851 25.7143 20.1163C25.7147 20.3891 25.6171 20.6531 25.4392 20.86L25.434 20.8659C25.4138 20.8898 25.3926 20.9127 25.3705 20.9349L20.9258 25.3796C20.4795 25.8259 19.7559 25.8259 19.3095 25.3796C18.8632 24.9333 18.8632 24.2096 19.3095 23.7634L21.8137 21.2591H9.71428C9.08311 21.2591 8.57143 20.7475 8.57143 20.1163C8.57143 19.4851 9.08311 18.9734 9.71428 18.9734H24.5714V18.9734ZM14.9762 10.7367C15.4225 11.183 15.4225 11.9066 14.9762 12.3529L12.472 14.8571H24.5714C25.2026 14.8571 25.7143 15.3688 25.7143 16C25.7143 16.6312 25.2026 17.1429 24.5714 17.1429H9.71428C9.08311 17.1429 8.57143 16.6312 8.57143 16C8.57102 15.7271 8.66865 15.4632 8.84653 15.2562L8.85168 15.2503C8.87193 15.2265 8.89314 15.2035 8.91525 15.1814L13.3599 10.7367C13.8062 10.2904 14.5299 10.2904 14.9762 10.7367ZM13.8571 4.28571C14.4883 4.28571 15 4.79739 15 5.42857C15 6.05975 14.4883 6.57143 13.8571 6.57143H5.42857C4.79739 6.57143 4.28571 6.05975 4.28571 5.42857C4.28571 4.79739 4.79739 4.28571 5.42857 4.28571H13.8571Z" fill="#333333"/>
</g>
<defs>
<clipPath id="clip0_42_167">
<rect width="30" height="30" fill="white"/>
</clipPath>
</defs>
</svg>
