<svg width="30" height="30" viewBox="0 0 30 30" fill="none" xmlns="http://www.w3.org/2000/svg">
<path d="M22.8353 7.52567C22.8353 3.36938 19.2845 0 14.9045 0C10.5244 0 6.97363 3.36938 6.97363 7.52567C6.97363 11.5408 10.2874 14.8213 14.4613 15.0394C12.8741 15.1008 11.334 15.4666 9.87654 16.1291C8.3334 16.8306 6.94911 17.8331 5.76214 19.1088C4.58064 20.3786 3.65354 21.8559 3.00665 23.4997C2.33866 25.197 2 26.9986 2 28.8544C2 29.4871 2.5129 30 3.14558 30C3.77827 30 4.29117 29.4871 4.29117 28.8544C4.29117 25.7583 5.40926 22.8515 7.43952 20.6695C9.44852 18.5104 12.1131 17.3212 14.9425 17.3212C16.1911 17.3212 17.4134 17.5528 18.5755 18.0095C19.1643 18.2409 19.8293 17.9512 20.0608 17.3623C20.2922 16.7735 20.0024 16.1085 19.4135 15.8771C18.1157 15.3671 16.7566 15.086 15.3679 15.0382C19.5322 14.8105 22.8353 11.5343 22.8353 7.52567ZM14.9045 12.7602C11.7947 12.7602 9.2648 10.412 9.2648 7.52567C9.2648 4.63937 11.7947 2.29117 14.9045 2.29117C18.0142 2.29117 20.5442 4.63937 20.5442 7.52567C20.5442 10.412 18.0142 12.7602 14.9045 12.7602ZM27.2745 23.9943L23.2426 21.6664C23.112 21.591 22.9639 21.5513 22.8131 21.5513C22.6622 21.5513 22.5141 21.591 22.3834 21.6664C22.2528 21.7418 22.1444 21.8503 22.0689 21.9809C21.9935 22.1115 21.9538 22.2597 21.9539 22.4105V23.6143H14.8162C14.1835 23.6143 13.6706 24.1272 13.6706 24.7599C13.6706 25.3926 14.1835 25.9055 14.8162 25.9055H21.9539V27.0662C21.9538 27.217 21.9935 27.3652 22.0689 27.4958C22.1444 27.6264 22.2528 27.7349 22.3834 27.8103C22.5141 27.8857 22.6622 27.9254 22.8131 27.9254C22.9639 27.9254 23.112 27.8856 23.2426 27.8102L27.2745 25.4824C27.4051 25.407 27.5136 25.2986 27.589 25.168C27.6644 25.0373 27.7041 24.8892 27.7041 24.7383C27.7041 24.5875 27.6644 24.4394 27.589 24.3087C27.5136 24.1781 27.4051 24.0697 27.2745 23.9943Z" fill="#333333"/>
</svg>
