<svg width="30" height="30" viewBox="0 0 30 30" fill="none" xmlns="http://www.w3.org/2000/svg">
<path d="M2.25092 16.6722C2.1788 16.0938 2.14271 15.5115 2.14285 14.9286C2.14285 7.23604 8.37889 1 16.0714 1C23.764 1 30 7.23604 30 14.9286C30 22.6211 23.764 28.8572 16.0714 28.8572C14.1681 28.8572 12.354 28.4754 10.7014 27.7843C9.97103 27.4788 9.2681 27.1113 8.60031 26.686L8.60931 26.6719C8.22749 26.4869 7.96428 26.0956 7.96428 25.6429C7.96428 25.0117 8.47596 24.5 9.10714 24.5C9.37446 24.4996 9.6334 24.5933 9.83856 24.7647C10.3933 25.1172 10.977 25.4219 11.5833 25.6755C12.9912 26.2643 14.5079 26.5714 16.0714 26.5714C22.5016 26.5714 27.7143 21.3588 27.7143 14.9286C27.7143 8.4984 22.5016 3.28572 16.0714 3.28572C9.64124 3.28572 4.42856 8.4984 4.42856 14.9286C4.42856 15.3133 4.44713 15.6953 4.48403 16.0739L5.7236 15.7417C5.75533 15.7293 5.78772 15.7187 5.82063 15.7099C6.30449 15.5802 6.80131 15.8653 6.93028 16.3467C6.98054 16.5332 6.96907 16.7311 6.8976 16.9106L6.91603 16.929L5.56988 21.907L5.56756 21.9076C5.5347 22.0743 5.45574 22.2283 5.33964 22.3523C5.22354 22.4763 5.07498 22.5652 4.91085 22.609C4.74684 22.6532 4.57373 22.6504 4.41119 22.6011C4.24866 22.5518 4.10323 22.4578 3.99145 22.3299L3.9891 22.3305L0.32849 18.6867L0.334954 18.6625C0.18643 18.5431 0.0798793 18.3795 0.0308108 18.1954C-0.0981535 17.714 0.189525 17.2187 0.673418 17.0891C0.706704 17.0801 0.740061 17.0732 0.773382 17.0681L2.25092 16.6722ZM18.0754 16.6286C19.2054 17.7586 19.8277 19.2612 19.8277 20.8593C19.8277 21.0273 19.8207 21.1953 19.8068 21.3628C19.7796 21.6895 19.5059 21.9366 19.1838 21.9367C19.1664 21.9367 19.1488 21.9359 19.1311 21.9344C18.7867 21.9057 18.5307 21.6032 18.5595 21.2587C18.5705 21.1268 18.576 20.9924 18.576 20.8593C18.576 19.5955 18.0839 18.4074 17.1903 17.5137C16.2966 16.6201 15.1085 16.1279 13.8447 16.1279C12.5809 16.1279 11.3927 16.6201 10.4991 17.5136C9.60546 18.4073 9.11331 19.5955 9.11331 20.8593C9.11331 20.9926 9.11881 21.1258 9.12989 21.2587C9.15864 21.6032 8.90267 21.9057 8.55821 21.9344C8.21378 21.963 7.91124 21.7072 7.88249 21.3628C7.86863 21.1963 7.8616 21.0269 7.8616 20.8593C7.8616 19.2612 8.48396 17.7587 9.61399 16.6286C10.6743 15.5683 12.0627 14.955 13.5502 14.8834C11.7546 14.7338 10.3438 13.2292 10.3438 11.395C10.3438 9.4615 11.9112 7.89411 13.8447 7.89411C15.7782 7.89411 17.3455 9.4615 17.3455 11.395C17.3455 13.2293 15.9348 14.7338 14.1392 14.8834C15.6267 14.955 17.015 15.5683 18.0754 16.6286V16.6286ZM11.5955 11.3949C11.5955 11.9957 11.8295 12.5605 12.2543 12.9853C12.6791 13.4101 13.2439 13.644 13.8447 13.644C14.4455 13.644 15.0103 13.4101 15.4351 12.9853C15.8599 12.5605 16.0938 11.9956 16.0938 11.3949C16.0938 10.7941 15.8599 10.2293 15.4351 9.80454C15.0103 9.37968 14.4454 9.14575 13.8447 9.14575C13.2439 9.14575 12.6791 9.37972 12.2543 9.8045C11.8295 10.2293 11.5955 10.7941 11.5955 11.3949ZM20.3189 14.8941C22.6453 15.7671 24.2674 18.0138 24.2674 20.5985C24.2674 20.7697 24.2603 20.9408 24.2461 21.1113C24.2257 21.3564 24.0204 21.5418 23.7788 21.5418C23.7657 21.5418 23.7526 21.5413 23.7394 21.5401C23.481 21.5187 23.289 21.2918 23.3105 21.0334C23.3225 20.8894 23.3286 20.7431 23.3286 20.5985C23.3286 17.9935 21.3815 15.7941 18.7994 15.4827C18.5421 15.4516 18.3586 15.2179 18.3896 14.9605C18.4141 14.7578 18.5643 14.6011 18.7527 14.5587C18.7832 14.545 18.815 14.5345 18.8477 14.5274C19.4292 14.4025 19.9582 14.0783 20.3373 13.6146C20.7214 13.1448 20.9329 12.551 20.9329 11.9428C20.9329 10.485 19.7469 9.29911 18.2891 9.29911C18.0299 9.29911 17.8197 9.08897 17.8197 8.82972C17.8197 8.57047 18.0299 8.36032 18.2891 8.36032C20.2646 8.36032 21.8716 9.9674 21.8716 11.9428C21.8716 12.767 21.5849 13.5717 21.0641 14.2088C20.8493 14.4712 20.5984 14.702 20.3189 14.8941V14.8941Z" fill="#333333"/>
</svg>
