<svg width="30" height="30" viewBox="0 0 30 30" fill="none" xmlns="http://www.w3.org/2000/svg">
<g clip-path="url(#clip0_3102_485)">
<path d="M25.4286 0C27.9533 0 30 2.04671 30 4.57143V25.4286C30 27.9336 27.9851 29.968 25.4876 29.9996L25.4286 30H4.57143L4.51236 29.9996C2.0345 29.9682 0.0317857 27.9655 0.000392871 25.4876L0 25.4286V4.57143C0 2.04671 2.04671 0 4.57143 0H25.4286ZM2.28571 25.4286C2.28571 26.6909 3.30907 27.7143 4.57143 27.7143H9.5V20.6429H2.28571V25.4286ZM20.5 20.6429V27.7143H25.4286C26.6909 27.7143 27.7143 26.6909 27.7143 25.4286V20.6429H20.5ZM11.7857 27.7143H18.2143V20.6429H11.7857V27.7143ZM20.5 10.9286V18.3571H27.7143V10.9286H20.5ZM2.28571 18.3571H9.5V10.9286H2.28571V18.3571ZM11.7857 18.3571H18.2143V10.9286H11.7857V18.3571ZM4.57143 2.28571C3.30907 2.28571 2.28571 3.30907 2.28571 4.57143V8.64286H27.7143V4.57143C27.7143 3.30907 26.6909 2.28571 25.4286 2.28571H4.57143Z" fill="#333333"/>
</g>
<defs>
<clipPath id="clip0_3102_485">
<rect width="30" height="30" fill="white"/>
</clipPath>
</defs>
</svg>
