<svg width="30" height="30" viewBox="0 0 30 30" fill="none" xmlns="http://www.w3.org/2000/svg">
<g clip-path="url(#clip0_42_298)">
<path d="M24.2857 0C27.4416 0 30 2.55836 30 5.71429V24.2857C30 27.4416 27.4416 30 24.2857 30H5.71429C2.55836 30 0 27.4416 0 24.2857V5.71429C0 2.55836 2.55836 0 5.71429 0H24.2857ZM24.2857 2.28571H5.71429C3.83964 2.28571 2.31643 3.79018 2.28618 5.65757L2.28571 5.71429V24.2857C2.28571 26.1604 3.79018 27.6836 5.65757 27.7138L5.71429 27.7143H24.2857C26.1604 27.7143 27.6836 26.2098 27.7138 24.3424L27.7143 24.2857V5.71429C27.7143 3.83964 26.2098 2.31643 24.3424 2.28618L24.2857 2.28571ZM12.4017 22.5594L12.3985 22.561C12.3898 22.5653 12.3809 22.5695 12.3721 22.5736L12.3694 22.5748C12.3423 22.5872 12.3149 22.5985 12.287 22.6087L12.273 22.6137C12.2572 22.6193 12.2413 22.6245 12.2253 22.6294L12.222 22.6304C12.2053 22.6354 12.1884 22.6401 12.1714 22.6443L12.1685 22.645C12.0821 22.6664 11.9936 22.6776 11.9046 22.6785C11.8413 22.6791 11.778 22.6746 11.7154 22.6648L11.7121 22.6643C11.6884 22.6605 11.6648 22.656 11.6413 22.6507L11.6295 22.648L11.6257 22.6471C11.57 22.6338 11.5153 22.6162 11.4622 22.5946C11.4321 22.5824 11.4024 22.5688 11.3734 22.5541C11.338 22.536 11.3036 22.5161 11.2703 22.4944C11.2461 22.4787 11.2224 22.4619 11.1992 22.4442L11.196 22.4417L11.1904 22.4374C11.1526 22.4078 11.1166 22.3758 11.0826 22.3417L11.0913 22.3503L11.0848 22.3438L11.0826 22.3417L4.18979 15.4132L4.17657 15.3997C3.74471 14.9513 3.75096 14.2376 4.19396 13.7969C4.64146 13.3518 5.36504 13.3536 5.81021 13.8011L11.8949 19.9174L24.1919 7.62046C24.6382 7.17414 25.3618 7.17414 25.8081 7.62046C26.25 8.06229 26.2544 8.77593 25.8214 9.22321L25.8081 9.23668L12.701 22.3438C12.6523 22.3925 12.5994 22.4367 12.5429 22.476C12.5135 22.4963 12.4832 22.5152 12.452 22.5327L12.4495 22.5342C12.4346 22.5425 12.4196 22.5504 12.4044 22.5581L12.4017 22.5594Z" fill="#333333"/>
</g>
<defs>
<clipPath id="clip0_42_298">
<rect width="30" height="30" fill="white"/>
</clipPath>
</defs>
</svg>
