<svg width="30" height="30" viewBox="0 0 30 30" fill="none" xmlns="http://www.w3.org/2000/svg">
<g clip-path="url(#clip0_42_291)">
<path d="M22.5 15C26.6421 15 30 18.3579 30 22.5C30 26.6421 26.6421 30 22.5 30C18.3579 30 15 26.6421 15 22.5C15 18.3579 18.3579 15 22.5 15ZM18.1994 0C19.8475 0 21.1872 1.32186 21.2139 2.96314L21.2143 3.013V4.85714H24.6161C26.3929 4.85714 27.8282 6.301 27.8567 8.08304L27.8571 8.13714V13.9913C27.8571 14.6225 27.3455 15.1342 26.7143 15.1342C26.0894 15.1342 25.5817 14.6327 25.5716 14.0102L25.5714 13.9913V12.875H21.8571V13.8571C21.8571 14.4883 21.3455 15 20.7143 15C20.0894 15 19.5817 14.4985 19.5716 13.8761L19.5714 13.8571V12.875H8.28571V13.8571C8.28571 14.4883 7.77404 15 7.14286 15C6.518 15 6.01025 14.4985 6.00014 13.8761L6 13.8571V12.875H2.28571V24.6129C2.28571 25.1611 2.70957 25.5983 3.22536 25.607L3.24104 25.6071H13.9819C14.613 25.6071 15.1247 26.1188 15.1247 26.75C15.1247 27.3749 14.6232 27.8826 14.0007 27.8929H3.24104C1.46425 27.8929 0.0289643 26.449 0.000428643 24.667L0 24.6129V8.13714C0 6.34839 1.4175 4.88664 3.18729 4.85757L3.24104 4.85714H6.64286V3.013C6.64286 1.36532 7.96611 0.027 9.60796 0.00039288L9.65786 0H18.1994ZM22.5 17.2857C19.6202 17.2857 17.2857 19.6202 17.2857 22.5C17.2857 25.3798 19.6202 27.7143 22.5 27.7143C25.3798 27.7143 27.7143 25.3798 27.7143 22.5C27.7143 19.6202 25.3798 17.2857 22.5 17.2857ZM22.8376 18.9329L23.1829 19.6426H25.9337V20.5365H24.1113L24.4029 20.7015L24.4006 20.7053C24.3653 20.7639 24.2689 20.8994 24.1113 21.112H25.6114V25.0252L25.6113 25.0463C25.6086 25.4387 25.53 25.7028 25.3755 25.8385C25.2181 25.9766 24.9298 26.0457 24.5103 26.0457H23.5857L23.4131 25.3206H24.2456L24.2572 25.3205C24.541 25.3155 24.683 25.125 24.683 24.749V23.3026L24.284 23.6632L24.0883 23.4906V25.3129H20.9117V23.4983L20.6777 23.6709L20.34 23.3179V25.9037H19.4116V21.112H20.9347L20.9324 21.109C20.8917 21.0576 20.7749 20.9115 20.5817 20.6708L20.8042 20.5365H19.0663V19.6426H22.0127L21.7864 19.1707L22.8376 18.9328V18.9329ZM23.2059 23.8129H21.7941V24.4497H23.2059V23.8129ZM23.1829 22.0059H21.8555L22.266 22.3435L22.2325 22.3767C22.0412 22.5654 21.826 22.7564 21.5869 22.9496H23.4745C23.0985 22.6222 22.8657 22.4227 22.7762 22.3511L23.1829 22.0059ZM21.4488 22.0059H20.34V22.9496C20.7902 22.6095 21.1598 22.2949 21.4488 22.0059ZM24.683 22.0059H23.6317L23.6361 22.0095C23.765 22.1175 24.1139 22.4181 24.683 22.9112V22.0059V22.0059ZM23.3249 20.5365H21.6828L21.6996 20.5573C21.8553 20.7497 21.9776 20.9052 22.0665 21.0237L21.936 21.1119H22.876C23.009 20.9559 23.1586 20.7641 23.3249 20.5365ZM24.6161 7.14286H3.24107C2.72343 7.14286 2.29439 7.57457 2.28575 8.12057V10.5893H6.00004V9.57143C6.00004 8.94025 6.51171 8.42857 7.14289 8.42857C7.76775 8.42857 8.2755 8.93007 8.28561 9.5525L8.28575 9.57143V10.5893H19.5715V9.57143C19.5715 8.94025 20.0831 8.42857 20.7143 8.42857C21.3392 8.42857 21.8469 8.93007 21.857 9.5525L21.8572 9.57143V10.5893H25.5715V8.13714C25.5715 7.58889 25.1476 7.15168 24.6318 7.143L24.6161 7.14286ZM18.1993 2.28571H9.65782C9.25896 2.28571 8.93532 2.60493 8.92868 3.00061L8.92857 3.013V4.85714H18.9286V3.013C18.9286 2.61575 18.609 2.29243 18.2118 2.28582L18.1993 2.28571Z" fill="#333333"/>
</g>
<defs>
<clipPath id="clip0_42_291">
<rect width="30" height="30" fill="white"/>
</clipPath>
</defs>
</svg>
