<svg width="30" height="30" viewBox="0 0 30 30" fill="none" xmlns="http://www.w3.org/2000/svg">
<g clip-path="url(#clip0_42_168)">
<path fill-rule="evenodd" clip-rule="evenodd" d="M23.5638 4.1767H27.7116C28.9755 4.1767 30 5.30011 30 6.68594V25.2357C30 26.6215 28.9755 27.7449 27.7116 27.7449H2.28844C1.02458 27.7449 0 26.6215 0 25.2357V6.6859C0 5.30007 1.02458 4.17666 2.28844 4.17666H6.43623V3.03917C6.43623 2.46527 6.95321 2 7.54691 2C8.14062 2 8.68892 2.46527 8.68892 3.03917V4.17666H21.3111V3.03917C21.3111 2.46527 21.8594 2 22.4531 2C23.0468 2 23.5638 2.46527 23.5638 3.0392V4.1767ZM27.6485 25.4565C27.6742 25.4224 27.7116 25.3497 27.7116 25.2357V10.2911H2.28844V25.2357C2.28844 25.3498 2.3258 25.4224 2.35155 25.4565H27.6485ZM2.28844 9.00834H27.7116V6.68594C27.7116 6.57191 27.6742 6.49925 27.6485 6.46514H23.5638V7.11101C23.5638 7.68491 23.0468 8.15018 22.4531 8.15018C21.8594 8.15018 21.3111 7.68491 21.3111 7.11101V6.46514H8.68892V7.11101C8.68892 7.68491 8.14058 8.15018 7.54691 8.15018C6.95324 8.15018 6.43623 7.68491 6.43623 7.11101V6.46514H2.35155C2.3258 6.49925 2.28844 6.57191 2.28844 6.68594V9.00834ZM9.18951 11.9762H20.7747V23.5614H9.18951V11.9762ZM18.926 21.7126C19.2371 21.4015 19.2371 20.8969 18.926 20.5858L16.109 17.7688L18.926 14.9517C19.2371 14.6405 19.2371 14.1361 18.926 13.8249C18.6148 13.5137 18.1103 13.5137 17.7992 13.8249L14.9821 16.6419L12.1651 13.8249C11.8539 13.5138 11.3494 13.5138 11.0383 13.8249C10.7271 14.1361 10.7271 14.6406 11.0383 14.9517L13.8553 17.7688L11.0383 20.5858C10.7271 20.897 10.7271 21.4015 11.0383 21.7126C11.1939 21.8682 11.3977 21.946 11.6017 21.946C11.8056 21.946 12.0095 21.8682 12.1651 21.7126L14.9821 18.8956L17.7992 21.7126C17.9548 21.8682 18.1586 21.946 18.3625 21.946C18.5665 21.946 18.7704 21.8682 18.926 21.7126Z" fill="#333333"/>
</g>
<defs>
<clipPath id="clip0_42_168">
<rect width="30" height="30" fill="white"/>
</clipPath>
</defs>
</svg>
