<svg width="30" height="30" viewBox="0 0 30 30" fill="none" xmlns="http://www.w3.org/2000/svg">
<g clip-path="url(#clip0_42_254)">
<path d="M20.5079 0C23.0521 0 25.1015 2.10346 25.1422 4.69346L25.1429 4.77211V9.57143C25.1429 10.2026 24.6312 10.7143 24 10.7143C23.3751 10.7143 22.8674 10.2128 22.8573 9.59036L22.8571 9.57143V4.77211C22.8571 3.40311 21.8164 2.30782 20.5465 2.28604L20.5079 2.28571H4.63493C3.36043 2.28571 2.30696 3.36732 2.286 4.73071L2.28571 4.77211V25.2279C2.28571 26.5969 3.32643 27.6922 4.59636 27.714L4.63493 27.7143H16C16.6312 27.7143 17.1429 28.226 17.1429 28.8571C17.1429 29.482 16.6414 29.9897 16.0189 30H4.63489C2.09071 30 0.0413215 27.8965 0.000607201 25.3065L0 25.2279V4.77211C0 2.17246 2.02396 0.0429644 4.55796 0.000642964L4.63493 0H20.5079ZM22.8571 13.5714C26.802 13.5714 30 16.7694 30 20.7143C30 24.6592 26.802 27.8571 22.8571 27.8571C18.9123 27.8571 15.7143 24.6592 15.7143 20.7143C15.7143 16.7694 18.9123 13.5714 22.8571 13.5714ZM18.6309 18.3186C18.2293 19.0256 18 19.8431 18 20.7143C18 23.3968 20.1746 25.5714 22.8571 25.5714C23.7283 25.5714 24.5459 25.3421 25.2528 24.9405L18.6309 18.3186ZM10.7143 21.2857C11.3455 21.2857 11.8571 21.7974 11.8571 22.4286C11.8571 23.0597 11.3455 23.5714 10.7143 23.5714H5.85714C5.22596 23.5714 4.71429 23.0597 4.71429 22.4286C4.71429 21.7974 5.22596 21.2857 5.85714 21.2857H10.7143ZM22.8571 15.8571C21.8745 15.8571 20.9599 16.149 20.1955 16.6507L26.9207 23.3759C27.4225 22.6115 27.7143 21.697 27.7143 20.7143C27.7143 18.0318 25.5396 15.8571 22.8571 15.8571ZM14.2857 13.8571C14.9169 13.8571 15.4286 14.3688 15.4286 15C15.4286 15.6312 14.9169 16.1429 14.2857 16.1429H5.85714C5.22596 16.1429 4.71429 15.6312 4.71429 15C4.71429 14.3688 5.22596 13.8571 5.85714 13.8571H14.2857ZM19.2857 6.42857C19.9169 6.42857 20.4286 6.94025 20.4286 7.57143C20.4286 8.20261 19.9169 8.71428 19.2857 8.71428H5.85714C5.22596 8.71428 4.71429 8.20261 4.71429 7.57143C4.71429 6.94025 5.22596 6.42857 5.85714 6.42857H19.2857Z" fill="#333333"/>
</g>
<defs>
<clipPath id="clip0_42_254">
<rect width="30" height="30" fill="white"/>
</clipPath>
</defs>
</svg>
