<svg width="30" height="30" viewBox="0 0 30 30" fill="none" xmlns="http://www.w3.org/2000/svg">
<g clip-path="url(#clip0_3102_493)">
<path d="M12.8378 3.04266e-07C13.4694 3.04266e-07 13.9814 0.511536 13.9814 1.14254V14.8951C13.9814 15.5261 14.4934 16.0377 15.1249 16.0377H28.8369C29.4147 16.0377 29.8924 16.4659 29.9695 17.0221C30.0038 17.1672 30.0102 17.3214 29.9834 17.4776C28.7638 24.5885 22.5658 30 15.1005 30C6.76072 30 0 23.2451 0 14.9126C0 7.47418 5.38654 1.29511 12.4748 0.0527146C12.4877 0.0504646 12.5006 0.0484646 12.5135 0.0466432C12.6188 0.0156287 12.728 -7.97271e-05 12.8378 3.04266e-07ZM11.6943 2.56732C6.27111 4.05739 2.28711 9.02118 2.28711 14.9126C2.28711 21.9831 8.02386 27.7149 15.1005 27.7149C20.9946 27.7149 25.9609 23.7377 27.4545 18.3228H15.1249C13.2302 18.3228 11.6943 16.7881 11.6943 14.8951V2.56732ZM18.2099 1.424C18.4109 0.825857 19.0592 0.503786 19.6579 0.704715C21.8004 1.42364 23.8129 2.63571 25.5168 4.33811C27.4344 6.254 28.73 8.56 29.4004 11.0016C29.5675 11.6101 29.2092 12.2388 28.6002 12.4057C27.9911 12.5727 27.3619 12.2147 27.1948 11.6062C26.6266 9.53689 25.5292 7.58214 23.8996 5.95389C22.4511 4.50668 20.7449 3.47996 18.9298 2.87089C18.3311 2.66996 18.0087 2.02218 18.2099 1.424Z" fill="#333333"/>
</g>
<defs>
<clipPath id="clip0_3102_493">
<rect width="30" height="30" fill="white"/>
</clipPath>
</defs>
</svg>
