<svg width="30" height="30" viewBox="0 0 30 30" fill="none" xmlns="http://www.w3.org/2000/svg">
<path d="M15 2.39286C23.2933 2.39286 30 9.09957 30 17.3929C30 21.0931 28.6771 24.4878 26.4751 27.1302C26.0189 27.6776 25.2053 27.7516 24.6578 27.2954C24.1104 26.8392 24.0364 26.0255 24.4926 25.4781C26.3229 23.2818 27.4194 20.4668 27.4194 17.3929C27.4194 10.5248 21.868 4.9735 15 4.9735C8.13196 4.9735 2.58064 10.5248 2.58064 17.3929C2.58064 20.4668 3.67714 23.2818 5.50739 25.4781C5.96361 26.0255 5.88961 26.8392 5.34218 27.2954C4.79471 27.7516 3.98107 27.6776 3.52486 27.1302C1.32289 24.4878 0 21.0931 0 17.3929C0 9.09957 6.70671 2.39286 15 2.39286ZM22.1521 13.295C22.656 12.7911 23.473 12.7911 23.9769 13.295C24.4808 13.7989 24.4808 14.6158 23.9769 15.1198L18.0656 21.0309C18.2209 21.4141 18.3065 21.833 18.3065 22.2719C18.3065 24.098 16.8261 25.5783 15 25.5783C13.1739 25.5783 11.6935 24.098 11.6935 22.2719C11.6935 20.4458 13.1739 18.9654 15 18.9654C15.4389 18.9654 15.8577 19.051 16.2409 19.2062L22.1521 13.295ZM15 21.5461C14.5991 21.5461 14.2742 21.871 14.2742 22.2719C14.2742 22.6728 14.5991 22.9977 15 22.9977C15.4009 22.9977 15.7258 22.6728 15.7258 22.2719C15.7258 22.121 15.6797 21.9808 15.6009 21.8647C15.5297 21.8071 15.4648 21.7422 15.4071 21.671C15.2871 21.5894 15.1452 21.5458 15 21.5461Z" fill="#333333"/>
</svg>
