<svg width="30" height="30" viewBox="0 0 30 30" fill="none" xmlns="http://www.w3.org/2000/svg">
<path d="M10.8443 19.1557C11.29 19.6015 11.29 20.3242 10.8443 20.7699L3.89693 27.7172H9.70182C10.3322 27.7172 10.8433 28.2282 10.8433 28.8586C10.8433 29.4827 10.3424 29.9897 9.72071 29.9999L9.70182 30H2.56814C1.16396 30 0.0230357 28.8731 0.000357117 27.4743L0 27.4319V20.2981C0 19.6678 0.511036 19.1567 1.14143 19.1567C1.76546 19.1567 2.27257 19.6576 2.28264 20.2792L2.28279 20.2981V26.103L9.23007 19.1558C9.67582 18.71 10.3985 18.71 10.8442 19.1558L10.8443 19.1557ZM27.4318 0C28.836 0 29.9769 1.12693 29.9996 2.52568L30 2.56814V9.70186C30 10.3322 29.4889 10.8433 28.8585 10.8433C28.2345 10.8433 27.7274 10.3424 27.7173 9.72075L27.7172 9.70186V3.89696L20.7699 10.8442C20.3242 11.29 19.6015 11.29 19.1558 10.8442C18.71 10.3985 18.71 9.67582 19.1558 9.23007L26.103 2.28279H20.2981C19.6678 2.28279 19.1567 1.77179 19.1567 1.14139C19.1567 0.517321 19.6576 0.0102499 20.2792 0.000142796L20.2981 0H27.4319H27.4318Z" fill="#333333"/>
</svg>
