<svg width="30" height="30" viewBox="0 0 30 30" fill="none" xmlns="http://www.w3.org/2000/svg">
<path d="M28.8577 17.5031C29.4886 17.5031 30 18.0149 30 18.6461C30 18.9618 29.8721 19.2475 29.6654 19.4544L29.6606 19.4592L20.6748 28.451L20.6614 28.4642C20.2143 28.8973 19.501 28.8929 19.0594 28.451C18.6178 28.0091 18.6134 27.2953 19.0462 26.848L19.0594 26.8345L26.1 19.7891H1.15754C0.526679 19.7891 0.01525 19.2774 0.01525 18.6461C0.01525 18.0211 0.5165 17.5133 1.13864 17.5032L1.15757 17.5031H28.8577ZM10.9406 2.33485C11.3823 2.7766 11.3866 3.49046 10.9538 3.93781L10.9406 3.95128L3.89996 10.9966H28.8425C29.4733 10.9966 29.9848 11.5084 29.9848 12.1397C29.9848 12.7647 29.4835 13.2725 28.8614 13.2825L28.8424 13.2827H1.14232C0.511429 13.2827 0 12.7709 0 12.1397C0 11.8235 0.128286 11.5373 0.335571 11.3304L0.339393 11.3266L9.32518 2.33481L9.33864 2.32153C9.78568 1.88846 10.499 1.89285 10.9405 2.33481L10.9406 2.33485Z" fill="#333333"/>
</svg>
