<svg width="30" height="30" viewBox="0 0 30 30" fill="none" xmlns="http://www.w3.org/2000/svg">
<path fill-rule="evenodd" clip-rule="evenodd" d="M12.8296 0C17.1842 0 20.7144 3.36939 20.7144 7.52568C20.7144 11.5343 17.4305 14.8105 13.2903 15.0382C14.671 15.086 16.0221 15.367 17.3125 15.8771C17.8979 16.1085 18.186 16.7735 17.956 17.3623C17.7259 17.9512 17.0648 18.2409 16.4794 18.0095C15.324 17.5528 14.1088 17.3213 12.8674 17.3213C10.0544 17.3213 7.40529 18.5104 5.40796 20.6695C3.38946 22.8515 2.27789 25.7583 2.27789 28.8544C2.27789 29.4871 1.76796 30 1.13896 30C0.509893 30 0 29.4871 0 28.8544C0 26.9986 0.336714 25.197 1.00082 23.4997C1.64396 21.8559 2.56568 20.3786 3.74032 19.1088C4.92039 17.8331 6.29664 16.8306 7.83082 16.1291C9.27986 15.4666 10.811 15.1008 12.389 15.0394C8.23939 14.8213 4.94475 11.5409 4.94475 7.52568C4.94479 3.36939 8.47497 0 12.8296 0ZM12.8296 2.29118C9.73793 2.29118 7.22264 4.63939 7.22264 7.52568C7.22264 10.412 9.73793 12.7602 12.8296 12.7602C15.9213 12.7602 18.4366 10.412 18.4366 7.52568C18.4366 4.63936 15.9213 2.29118 12.8296 2.29118Z" fill="#333333"/>
<path d="M26.9492 18.1201C26.5033 17.6742 25.7803 17.6742 25.3344 18.1201C24.8885 18.566 24.8885 19.289 25.3344 19.7349L26.0995 20.5H13.2857C12.6545 20.5 12.1429 21.0117 12.1429 21.6429C12.1429 22.274 12.6545 22.7857 13.2857 22.7857H28.8577C29.1501 22.7858 29.4425 22.6744 29.6656 22.4513C29.8887 22.2282 30.0001 21.9358 30 21.6434V21.6429C30 21.3096 29.8574 21.0097 29.6299 20.8008L26.9492 18.1201Z" fill="#333333"/>
<path d="M16.8084 29.6656C16.3625 30.1115 15.6396 30.1115 15.1937 29.6656L12.4773 26.9492C12.2547 26.7266 12.1432 26.4349 12.1429 26.1432C12.1425 25.8505 12.254 25.5577 12.4773 25.3344C12.7004 25.1113 12.9928 24.9999 13.2852 25L28.8571 25C29.4883 25 30 25.5117 30 26.1429C30 26.774 29.4883 27.2857 28.8571 27.2857L16.0433 27.2857L16.8084 28.0508C17.2543 28.4967 17.2543 29.2197 16.8084 29.6656Z" fill="#333333"/>
</svg>
