<svg width="30" height="30" viewBox="0 0 30 30" fill="none" xmlns="http://www.w3.org/2000/svg">
<g clip-path="url(#clip0_42_252)">
<path fill-rule="evenodd" clip-rule="evenodd" d="M5.54876 11.55C5.32586 11.7737 5.03367 11.8855 4.74152 11.8855C4.44938 11.8855 4.15719 11.7737 3.93429 11.55C3.48845 11.1026 3.48845 10.3773 3.93429 9.92989L12.9939 0.838854C13.533 0.297924 14.2497 0 15.012 0C15.7744 0 16.4911 0.297888 17.0301 0.838854L26.0623 9.90236C26.5082 10.3497 26.5082 11.0751 26.0623 11.5225C25.6165 11.9699 24.8937 11.9699 24.4479 11.5225L16.1578 3.20363V21.6229C16.1578 22.2556 15.6466 22.7685 15.0161 22.7685C14.3856 22.7685 13.8745 22.2556 13.8745 21.6229V3.19532L5.54876 11.55ZM27.7168 15C27.7168 14.3673 28.2279 13.8544 28.8584 13.8544C29.4889 13.8544 30 14.3673 30 15V27.2689C30 28.7748 28.779 30 27.2783 30H2.72167C1.22093 30 0 28.7748 0 27.2689V15C0 14.3673 0.511127 13.8544 1.14162 13.8544C1.77212 13.8544 2.28325 14.3673 2.28325 15V27.2689C2.28325 27.5115 2.47993 27.7088 2.72167 27.7088H27.2783C27.52 27.7088 27.7168 27.5115 27.7168 27.2689V15Z" fill="#333333"/>
</g>
<defs>
<clipPath id="clip0_42_252">
<rect width="30" height="30" fill="white"/>
</clipPath>
</defs>
</svg>
