<svg width="30" height="30" viewBox="0 0 30 30" fill="none" xmlns="http://www.w3.org/2000/svg">
<g clip-path="url(#clip0_42_110)">
<path d="M9.28571 16.4286C11.6526 16.4286 13.5714 18.3474 13.5714 20.7143V25.7143C13.5714 28.0812 11.6526 30 9.28571 30H4.28571C1.91879 30 0 28.0812 0 25.7143V20.7143C0 18.3474 1.91879 16.4286 4.28571 16.4286H9.28571ZM9.20879 18.7143H4.36264C3.21557 18.7143 2.28571 19.6441 2.28571 20.7912V25.6374C2.28571 26.7844 3.21557 27.7143 4.36264 27.7143H9.20879C10.3559 27.7143 11.2857 26.7844 11.2857 25.6374V20.7912C11.2857 19.6441 10.3559 18.7143 9.20879 18.7143ZM28.8571 24.75C29.4883 24.75 30 25.2617 30 25.8929C30 26.524 29.4883 27.0357 28.8571 27.0357H18.2857C17.6545 27.0357 17.1429 26.524 17.1429 25.8929C17.1429 25.2617 17.6545 24.75 18.2857 24.75H28.8571ZM28.8571 19.3929C29.4883 19.3929 30 19.9045 30 20.5357C30 21.1669 29.4883 21.6786 28.8571 21.6786H18.2857C17.6545 21.6786 17.1429 21.1669 17.1429 20.5357C17.1429 19.9045 17.6545 19.3929 18.2857 19.3929H28.8571ZM9.28571 0C11.6526 0 13.5714 1.91879 13.5714 4.28571V9.28571C13.5714 11.6526 11.6526 13.5714 9.28571 13.5714H4.28571C1.91879 13.5714 0 11.6526 0 9.28571V4.28571C0 1.91879 1.91879 0 4.28571 0H9.28571ZM9.20879 2.28571H4.36264C3.21557 2.28571 2.28571 3.21557 2.28571 4.36264V9.20879C2.28571 10.3559 3.21557 11.2857 4.36264 11.2857H9.20879C10.3559 11.2857 11.2857 10.3559 11.2857 9.20879V4.36264C11.2857 3.21557 10.3559 2.28571 9.20879 2.28571ZM28.8571 8.32143C29.4883 8.32143 30 8.83311 30 9.46428C30 10.0955 29.4883 10.6071 28.8571 10.6071H18.2857C17.6545 10.6071 17.1429 10.0955 17.1429 9.46428C17.1429 8.83311 17.6545 8.32143 18.2857 8.32143H28.8571ZM28.8571 2.96429C29.4883 2.96429 30 3.47596 30 4.10714C30 4.73832 29.4883 5.25 28.8571 5.25H18.2857C17.6545 5.25 17.1429 4.73832 17.1429 4.10714C17.1429 3.47596 17.6545 2.96429 18.2857 2.96429H28.8571Z" fill="#333333"/>
</g>
<defs>
<clipPath id="clip0_42_110">
<rect width="30" height="30" fill="white"/>
</clipPath>
</defs>
</svg>
