<svg width="30" height="30" viewBox="0 0 30 30" fill="none" xmlns="http://www.w3.org/2000/svg">
<g clip-path="url(#clip0_42_161)">
<path d="M23.5714 17.1429C24.2026 17.1429 24.7143 17.6545 24.7143 18.2857V22.4286H28.8571C29.4883 22.4286 30 22.9402 30 23.5714C30 24.2026 29.4883 24.7143 28.8571 24.7143H24.7143V28.8571C24.7143 29.4883 24.2026 30 23.5714 30C22.9402 30 22.4286 29.4883 22.4286 28.8571V24.7143H18.2857C17.6545 24.7143 17.1429 24.2026 17.1429 23.5714C17.1429 22.9402 17.6545 22.4286 18.2857 22.4286H22.4286V18.2857C22.4286 17.6545 22.9402 17.1429 23.5714 17.1429ZM12.8296 0C17.1842 0 20.7144 3.36939 20.7144 7.52568C20.7144 11.5343 17.4305 14.8105 13.2903 15.0382C14.671 15.086 16.0221 15.367 17.3125 15.8771C17.8979 16.1085 18.186 16.7735 17.956 17.3623C17.7259 17.9512 17.0647 18.2409 16.4794 18.0095C15.324 17.5528 14.1088 17.3212 12.8674 17.3212C10.0544 17.3212 7.40529 18.5104 5.40796 20.6695C3.38946 22.8515 2.27789 25.7583 2.27789 28.8544C2.27789 29.4871 1.76796 30 1.13896 30C0.509893 30 0 29.4871 0 28.8544C0 26.9986 0.336714 25.197 1.00082 23.4997C1.64396 21.8559 2.56568 20.3786 3.74032 19.1088C4.92039 17.8331 6.29664 16.8306 7.83082 16.1291C9.27986 15.4666 10.811 15.1008 12.389 15.0394C8.23939 14.8212 4.94475 11.5409 4.94475 7.52568C4.94479 3.36939 8.47496 0 12.8296 0H12.8296ZM12.8296 2.29118C9.73793 2.29118 7.22264 4.63939 7.22264 7.52568C7.22264 10.412 9.73793 12.7602 12.8296 12.7602C15.9213 12.7602 18.4366 10.412 18.4366 7.52568C18.4366 4.63936 15.9213 2.29118 12.8296 2.29118Z" fill="#333333"/>
</g>
<defs>
<clipPath id="clip0_42_161">
<rect width="30" height="30" fill="white"/>
</clipPath>
</defs>
</svg>
