<svg width="30" height="30" viewBox="0 0 30 30" fill="none" xmlns="http://www.w3.org/2000/svg">
<g clip-path="url(#clip0_42_258)">
<path d="M14.2819 29.7463L0.735536 21.9253C0.3055 21.7612 0 21.3449 0 20.8571C0 20.226 0.511678 19.7143 1.14286 19.7143C1.32775 19.7143 1.50239 19.7582 1.65693 19.8361L1.66482 19.8225L3.21429 20.7171V5.71429C3.21429 2.58089 5.56575 0 8.52221 0H21.4778C24.4342 0 26.7857 2.58089 26.7857 5.71429V20.7206L28.2837 19.8557L28.2892 19.8651C28.462 19.766 28.6579 19.714 28.8571 19.7143C29.4883 19.7143 30 20.226 30 20.8571C30 21.3376 29.7035 21.7489 29.2834 21.9179L15.7018 29.7592C15.5013 29.9156 15.2543 30.0004 15 30C14.7386 30.0004 14.485 29.9108 14.2819 29.7463ZM24.5 22.0402V5.71429C24.5 3.79821 23.1219 2.28571 21.4778 2.28571H8.52221C6.87807 2.28571 5.5 3.79821 5.5 5.71429V22.0367L15.003 27.5233L24.5 22.0402V22.0402ZM15.0121 13.1541L18.8295 6.78536C18.9901 6.49993 19.222 6.39289 19.4539 6.39289C19.6144 6.39289 19.7928 6.44643 19.9534 6.55346C20.2209 6.714 20.3993 6.94593 20.3993 7.2135C20.3993 7.33839 20.3636 7.46329 20.2744 7.606L17.2419 12.3335H19.7393C20.1317 12.3335 20.3458 12.5119 20.3458 12.9222C20.3458 13.3504 20.1139 13.5466 19.7393 13.5466H16.4749L15.8149 14.617V15.4376H19.7214C20.1317 15.4376 20.328 15.5981 20.328 16.0263C20.328 16.4366 20.096 16.6329 19.7214 16.6329H15.8149V19.7905C15.8149 20.2721 15.4938 20.5219 15.0121 20.5219C14.5127 20.5219 14.2094 20.2721 14.2094 19.7905V16.6329H10.285C9.89257 16.6329 9.6785 16.4366 9.6785 16.0263C9.6785 15.616 9.87471 15.4376 10.285 15.4376H14.2094V14.5991L13.5316 13.5466H10.3028C9.91039 13.5466 9.69632 13.3504 9.69632 12.94C9.69632 12.5297 9.91039 12.3335 10.3028 12.3335H12.7824L9.732 7.606C9.64286 7.48107 9.60714 7.35621 9.60714 7.23132C9.60714 6.94589 9.80336 6.69614 10.0709 6.55343C10.2315 6.46421 10.392 6.41071 10.5526 6.41071C10.7845 6.41071 10.9985 6.51775 11.1591 6.78536L15.0121 13.154V13.1541Z" fill="#333333"/>
</g>
<defs>
<clipPath id="clip0_42_258">
<rect width="30" height="30" fill="white"/>
</clipPath>
</defs>
</svg>
