<svg width="30" height="30" viewBox="0 0 30 30" fill="none" xmlns="http://www.w3.org/2000/svg">
<g clip-path="url(#clip0_42_299)">
<path d="M28.0061 20.7181C27.2548 18.3946 25.0736 16.7143 22.5 16.7143C20.4299 16.7143 18.5586 17.8107 17.5285 19.5378C17.5066 19.5851 17.4804 19.6303 17.4503 19.6729L17.4442 19.6838L17.443 19.6832C17.2871 19.8969 17.0347 20.0357 16.75 20.0357C16.2766 20.0357 15.8929 19.652 15.8929 19.1786C15.8929 19.0319 15.9297 18.8937 15.9947 18.773C15.9954 18.7664 15.9974 18.7603 16.0007 18.7546C17.2968 16.5104 19.722 15 22.5 15C26.5097 15 29.7845 18.1466 29.9898 22.1052C29.9977 22.1614 30.0001 22.2185 29.9967 22.2758C29.9989 22.3503 30 22.425 30 22.5L29.9559 22.4901C29.9436 22.5277 29.9288 22.5643 29.9115 22.5998C29.7041 23.0254 29.1911 23.2023 28.7655 22.995L26.8391 22.0565C26.4135 21.8491 26.2366 21.3361 26.4439 20.9105C26.6512 20.4849 27.1643 20.308 27.5899 20.5154L28.0061 20.7181ZM15.0197 22.5046C14.9783 22.3162 15.0018 22.1193 15.0866 21.946C15.2939 21.5205 15.807 21.3435 16.2325 21.5509L18.159 22.4894C18.5845 22.6967 18.7615 23.2097 18.5541 23.6353C18.3468 24.0609 17.8337 24.2378 17.4081 24.0305L16.8517 23.7594C17.4266 26.3492 19.7372 28.2857 22.5 28.2857C24.5811 28.2857 26.4625 27.1778 27.4898 25.4312C27.6163 25.1157 27.925 24.8929 28.2857 24.8929C28.7591 24.8929 29.1429 25.2766 29.1429 25.75C29.1429 25.9269 29.0893 26.0912 28.9975 26.2277C29.0028 26.2324 29.0049 26.2356 29.004 26.2372C27.709 28.486 25.2813 30 22.5 30C18.3579 30 15 26.6421 15 22.5L15.0197 22.5046ZM13.9892 27.6879C14.6204 27.6879 15.132 28.1995 15.132 28.8307C15.132 29.4619 14.6204 29.9736 13.9892 29.9736H2.22346C0.997429 29.9736 0 28.9761 0 27.75V2.22346C0 0.997464 0.997429 0 2.22346 0H20.4716L25.7857 6.25886V11.6786C25.7857 12.3097 25.274 12.8214 24.6429 12.8214C24.0117 12.8214 23.5 12.3097 23.5 11.6786V7.09829L19.4139 2.28571H2.28571V27.6879H13.9892ZM6.25 6.35714H17.0357C17.5091 6.35714 17.8929 6.74089 17.8929 7.21429C17.8929 7.68768 17.5091 8.07143 17.0357 8.07143H6.25C5.77661 8.07143 5.39286 7.68768 5.39286 7.21429C5.39286 6.74089 5.77661 6.35714 6.25 6.35714ZM6.25 10.1786H19.5357C20.0091 10.1786 20.3929 10.5623 20.3929 11.0357C20.3929 11.5091 20.0091 11.8929 19.5357 11.8929H6.25C5.77661 11.8929 5.39286 11.5091 5.39286 11.0357C5.39286 10.5623 5.77661 10.1786 6.25 10.1786ZM6.25 14H15.9643C16.4377 14 16.8214 14.3837 16.8214 14.8571C16.8214 15.3305 16.4377 15.7143 15.9643 15.7143H6.25C5.77661 15.7143 5.39286 15.3305 5.39286 14.8571C5.39286 14.3837 5.77661 14 6.25 14ZM6.25 17.8214H12.75C13.2234 17.8214 13.6071 18.2052 13.6071 18.6786C13.6071 19.152 13.2234 19.5357 12.75 19.5357H6.25C5.77661 19.5357 5.39286 19.152 5.39286 18.6786C5.39286 18.2052 5.77661 17.8214 6.25 17.8214ZM6.25 21.6429H12.0357C12.5091 21.6429 12.8929 22.0266 12.8929 22.5C12.8929 22.9734 12.5091 23.3571 12.0357 23.3571H6.25C5.77661 23.3571 5.39286 22.9734 5.39286 22.5C5.39286 22.0266 5.77661 21.6429 6.25 21.6429Z" fill="#333333"/>
</g>
<defs>
<clipPath id="clip0_42_299">
<rect width="30" height="30" fill="white"/>
</clipPath>
</defs>
</svg>
