<svg width="30" height="30" viewBox="0 0 30 30" fill="none" xmlns="http://www.w3.org/2000/svg">
<g clip-path="url(#clip0_42_199)">
<path fill-rule="evenodd" clip-rule="evenodd" d="M14.8126 16.7504C13.6329 16.4421 12.368 16.2857 11.0635 16.2857C5.14846 16.2857 0.0854598 19.502 0.000531232 25.4994C-0.063183 29.9974 5.61539 30.02 11.1881 29.9974L11.3764 29.9966L11.4706 29.9962L11.6588 29.9954C14.6388 29.9827 17.5707 29.9445 19.57 29.1489C19.6421 29.1294 19.7114 29.1005 19.776 29.0629L19.7945 29.0548L19.7932 29.0525C20.0386 28.9018 20.2023 28.6307 20.2023 28.3214C20.2023 27.848 19.8189 27.4643 19.3458 27.4643C19.2239 27.4641 19.1033 27.4901 18.9922 27.5405L18.9894 27.5351C18.7925 27.616 18.5724 27.6909 18.3284 27.7591C17.5267 27.9834 16.5131 28.1243 15.2306 28.1999C15.0886 28.2082 14.9494 28.2157 14.8095 28.2224L14.7495 28.2253L14.699 28.2275C13.873 28.2646 12.992 28.2759 11.3425 28.2824L11.1811 28.2831C9.52274 28.2898 8.56317 28.2835 7.66367 28.2476L7.60753 28.2453L7.55153 28.243L7.48796 28.2402L7.45617 28.2388L7.39271 28.2358C7.31864 28.2324 7.24453 28.2286 7.17006 28.2247C5.83528 28.1545 4.77046 28.0146 3.92385 27.7877C3.08785 27.5636 2.51089 27.266 2.17185 26.9137C1.85996 26.5897 1.70421 26.1703 1.71339 25.5237C1.74664 23.1751 2.68746 21.3148 4.39103 20.0017C6.06192 18.7138 8.42356 18 11.0635 18C12.1872 18 13.2619 18.1293 14.2547 18.3771C14.372 18.4347 14.5009 18.4645 14.6315 18.4643C15.1046 18.4643 15.4881 18.0805 15.4881 17.6071C15.4881 17.1943 15.1964 16.8496 14.808 16.7682L14.8126 16.7504ZM11.0714 16.2857C15.6372 16.2904 17.8571 11.8497 17.8571 8.48244L17.8571 8.3809V8.32004C17.857 7.98672 17.8558 7.63794 17.8475 7.27994H17.8472C17.7698 4.02433 17.0875 0.0159754 11.0714 4.68675e-05C5.05806 -0.015846 4.37357 4.01344 4.29549 7.27422C4.28692 7.63769 4.28585 7.99158 4.28571 8.32911V8.48244C4.28571 11.8496 6.50564 16.2811 11.0714 16.2857ZM6.00221 8.63876C7.64835 8.30401 9.34139 8.13319 11.0604 8.13319V8.13322C12.7871 8.13322 14.4875 8.30551 16.1405 8.64322C16.1029 10.0156 15.6152 11.5087 14.7955 12.6231C13.8728 13.8776 12.6278 14.5634 11.0732 14.5618C9.51642 14.5602 8.26989 13.873 7.34699 12.6191C6.52646 11.5044 6.03889 10.0115 6.00221 8.63876ZM6.10153 5.87058C6.25528 4.54333 6.60967 3.58444 7.21574 2.93622C7.9471 2.15401 9.15096 1.70926 11.0669 1.71433C12.9894 1.71944 14.1978 2.17026 14.9308 2.95597C15.5372 3.60587 15.8903 4.56315 16.0428 5.88858C16.056 6.00279 16.0674 6.11419 16.0775 6.22601L16.0812 6.26797L16.083 6.28897L16.0865 6.33108L16.0898 6.37329C16.1032 6.54601 16.1134 6.71896 16.1204 6.89204C14.4867 6.5819 12.7943 6.4189 11.0604 6.4189C9.33435 6.4189 7.64942 6.5804 6.02256 6.8879C6.02999 6.70851 6.03967 6.5424 6.05214 6.3804L6.05546 6.33776C6.06803 6.18176 6.08321 6.02879 6.10153 5.87058ZM11.6428 3.50001V2.64287H10.5V3.50001H9.64285V4.64287H10.5V5.50001H11.6428V4.64287H12.5V3.50001H11.6428ZM18.7026 23.8479L16.7775 21.9204H16.7775C15.3601 20.5009 15.3598 18.1991 16.777 16.7793C18.1941 15.3595 20.4918 15.3593 21.9092 16.7788L23.8344 18.7073C23.9491 18.8198 24.0319 18.9606 24.0745 19.1155C24.1172 19.2704 24.118 19.4338 24.077 19.5891C24.0361 19.7444 23.9548 19.886 23.8413 19.9995C23.7278 20.1131 23.5863 20.1946 23.4311 20.2356C23.2759 20.2765 23.1127 20.2756 22.9581 20.2327C22.8034 20.1899 22.6629 20.1068 22.551 19.9919L20.6268 18.0645C20.4027 17.8348 20.1217 17.6686 19.8124 17.5831C19.5031 17.4976 19.1766 17.4958 18.8664 17.5778C18.2349 17.7447 17.7417 18.2388 17.5751 18.8713C17.4084 19.5039 17.594 20.1774 18.0609 20.6348L19.9861 22.5633C20.3335 22.9194 20.3301 23.4893 19.9784 23.8412C19.6268 24.1932 19.0579 24.1961 18.7026 23.8479ZM25.7349 24.4553C26.0883 24.809 26.0883 25.3822 25.7349 25.736V25.735C25.3812 26.0884 24.8081 26.0884 24.4544 25.735L19.9708 21.251C19.8507 21.1404 19.7627 20.9994 19.7162 20.8429C19.6696 20.6864 19.6662 20.5202 19.7064 20.3619C19.7465 20.2036 19.8287 20.0591 19.9442 19.9437C20.0596 19.8283 20.2042 19.7462 20.3625 19.7062C20.5208 19.6662 20.687 19.6697 20.8435 19.7164C20.9999 19.7631 21.1409 19.8512 21.2514 19.9714L25.7349 24.4553ZM28.1235 25.8981C28.0409 25.59 27.8788 25.3091 27.6533 25.0836V25.0836L25.7256 23.1596C25.6126 23.0469 25.5314 22.9064 25.49 22.7523C25.4485 22.5982 25.4484 22.4359 25.4896 22.2817C25.5307 22.1275 25.6117 21.9869 25.7245 21.8739C25.8372 21.761 25.9777 21.6797 26.1318 21.6383C26.2859 21.5969 26.4482 21.5967 26.6023 21.6379C26.7565 21.6791 26.8971 21.7602 27.01 21.8729L28.9367 23.7989C30.3544 25.218 30.3544 27.5175 28.9367 28.9366C27.5179 30.3545 25.2187 30.3545 23.7999 28.9366L21.8732 27.0096C21.5184 26.6548 21.5184 26.0796 21.8732 25.7249C22.2278 25.3701 22.8029 25.3701 23.1576 25.7249L25.0843 27.6529C25.3098 27.8784 25.5906 28.0406 25.8987 28.1231C26.2067 28.2057 26.531 28.2057 26.839 28.1231C27.147 28.0406 27.4278 27.8784 27.6533 27.6529C27.8788 27.4274 28.0409 27.1465 28.1234 26.8385C28.206 26.5305 28.206 26.2061 28.1235 25.8981Z" fill="#333333"/>
</g>
<defs>
<clipPath id="clip0_42_199">
<rect width="30" height="30" fill="white"/>
</clipPath>
</defs>
</svg>
