<svg width="30" height="30" viewBox="0 0 30 30" fill="none" xmlns="http://www.w3.org/2000/svg">
<g clip-path="url(#clip0_111_13)">
<path fill-rule="evenodd" clip-rule="evenodd" d="M10.124 25.5034L8.93543 26.1896V26.1897C12.7222 28.2112 17.4355 28.2907 21.4266 25.9864C25.4176 23.6821 27.7054 19.5605 27.8482 15.2704L26.6596 15.9565C26.3124 19.6004 24.2668 23.0273 20.8553 24.9969C17.4438 26.9666 13.4533 27.0246 10.124 25.5034ZM8.57344 3.72415C4.58233 6.02842 2.29455 10.1499 2.15184 14.4401L2.15181 14.4401L3.34036 13.754C3.68765 10.1101 5.73322 6.68318 9.14469 4.71359C12.5562 2.74395 16.5467 2.6859 19.876 4.20707L21.0646 3.52089C17.2778 1.49934 12.5645 1.41987 8.57344 3.72415ZM16.6635 21.7278L14.3829 23.0445C15.9749 23.1659 17.6188 22.8253 19.1059 21.9668C20.5929 21.1082 21.7098 19.8548 22.4007 18.4155L20.1201 19.7321C19.665 20.2096 19.1348 20.6308 18.5346 20.9774C17.9344 21.3239 17.3045 21.5724 16.6635 21.7278ZM10.8941 7.74367C9.40711 8.60223 8.29017 9.85562 7.59932 11.295L9.87989 9.97833C10.335 9.50087 10.8652 9.07965 11.4654 8.73311C12.0656 8.38658 12.6955 8.13809 13.3365 7.98263L15.6171 6.66594C14.0251 6.54455 12.3812 6.88512 10.8941 7.74367ZM9.3659 5.02774L9.44195 6.00172H9.44199C9.44199 6.00172 8.75539 6.61823 8.71329 6.64122L8.7115 6.64088C8.71089 6.64211 8.71152 6.64219 8.71329 6.64122L9.65503 6.8235L10.0355 7.72136L10.4921 6.89954L11.4965 6.8235L10.8573 6.0778L11.0855 5.13428L10.1877 5.54515L9.3659 5.02774ZM15.5596 3.501L15.1487 4.3989L15.1487 4.39893C15.1487 4.39893 14.1747 4.58156 14.2204 4.58156L14.966 5.22068L14.8139 6.19466L15.6357 5.67725L16.5335 6.08816L16.3509 5.11417L16.9901 4.39893L16.0161 4.32281L15.5596 3.501ZM20.6122 24.6553L20.5361 23.6814L21.297 23.0118L20.3535 22.8292L19.9731 21.9313L19.4556 22.753L18.4817 22.8292L19.1208 23.5749L18.8926 24.5184L19.7904 24.1379L20.6122 24.6553ZM14.8711 26.0741L15.3276 25.1763C15.3276 25.1763 16.0729 25.02 16.2281 25.06L16.256 25.0849C16.2577 25.0731 16.2475 25.065 16.2281 25.06L15.5407 24.4458L15.6929 23.4718L14.8711 23.9284L13.9732 23.5175L14.1558 24.461L13.4406 25.1763L14.4145 25.2523L14.8711 26.0741ZM5.04358 9.44546L5.60665 10.2368V10.2368C5.60665 10.2368 5.27183 11.1651 5.3327 11.1651L6.27623 10.9064L7.02192 11.4999V10.5259L7.81328 9.96287L6.86976 9.62808L6.61105 8.68456L6.01756 9.47588L5.04358 9.44546ZM24.0234 20.7901L24.4799 19.8922H24.4799C24.4799 19.8922 25.2251 19.736 25.3803 19.776L25.4082 19.8009C25.4099 19.789 25.3997 19.781 25.3803 19.776L24.693 19.1618L24.8451 18.1878L24.0234 18.6443L23.1255 18.2334L23.3081 19.177L22.5928 19.8922L23.5668 19.9683L24.0234 20.7901ZM26.0466 4.35484C25.2578 2.98873 23.511 2.52066 22.1449 3.30938L1.42857 15.2699C0.0624951 16.0587 -0.405573 17.8055 0.383109 19.1716L3.95342 25.3556C4.74217 26.7217 6.48902 27.1898 7.85513 26.4011L28.5714 14.4405C29.9375 13.6518 30.4056 11.9049 29.6169 10.5388L26.0466 4.35484ZM1.99982 16.2594L22.7161 4.29882L22.7408 4.28486C23.5567 3.83125 24.5886 4.11463 25.0571 4.92609L28.6275 11.1101L28.6416 11.1346C29.095 11.9506 28.8116 12.9826 28.0002 13.4511L7.28388 25.4116L7.25924 25.4256C6.44332 25.8792 5.41139 25.5958 4.94286 24.7844L1.37255 18.6004L1.35838 18.5759C0.904981 17.7598 1.18836 16.7279 1.99982 16.2594ZM3.77401 19.4481L4.1349 20.0731L3.71096 20.3179L3.12414 19.3016L5.49929 17.9302C5.3201 17.8332 5.12402 17.7363 4.91108 17.6394L5.15743 17.2C5.41475 17.3027 5.64874 17.4067 5.85939 17.5122L5.69494 17.8173L8.0973 16.4303L8.68408 17.4467L8.26014 17.6914L7.89929 17.0664L3.77401 19.4481ZM7.86594 21.2888L8.55001 22.4737L8.12604 22.7184L7.44197 21.5336L6.05605 22.3338L6.2035 22.5892L5.8013 22.8214L4.26371 20.1582L6.05187 19.1258L5.71297 18.5388L6.13691 18.2941L6.47581 18.881L8.26939 17.8455L9.80698 20.5087L9.40478 20.7409L9.25729 20.4855L7.86594 21.2888ZM7.06262 19.8974L8.45397 19.0941H8.45401L8.08684 18.4582L6.69545 19.2615L7.06262 19.8974ZM5.25269 20.9424L6.63865 20.1422V20.1422L6.27155 19.5063L4.88555 20.3065L5.25269 20.9424ZM7.64626 20.9084L9.03765 20.1051V20.105L8.66737 19.4637L7.27598 20.267L7.64626 20.9084ZM5.83636 21.9533L7.22232 21.1531L6.85205 20.5118L5.46609 21.312L5.83636 21.9533ZM11.8418 20.4934C11.701 20.5844 11.5336 20.6834 11.3395 20.7907V20.7907C11.238 20.65 11.1304 20.5139 11.0169 20.3827C11.194 20.3046 11.3496 20.2268 11.4837 20.1494C11.6214 20.0699 11.6474 19.9559 11.5616 19.8073L10.7112 18.3344C10.5216 18.5491 10.3311 18.763 10.1396 18.9761L9.81076 18.5571C10.0166 18.3489 10.23 18.1243 10.4507 17.8833L9.71961 16.6169L9.01847 17.0217L8.79255 16.6304L9.49368 16.2256L8.87548 15.1549L9.29942 14.9101L9.91762 15.9808L10.51 15.6388L10.736 16.0301L10.1436 16.3722L10.7978 17.5054C10.9471 17.3371 11.1001 17.1629 11.2571 16.9829C11.3304 17.1337 11.4068 17.2828 11.4864 17.4303C11.3484 17.597 11.2035 17.7688 11.052 17.9456L12.0106 19.606C12.2303 19.9865 12.174 20.2823 11.8418 20.4934ZM16.0928 17.1623C16.2514 17.5876 16.155 17.9017 15.8035 18.1047H15.8035L15.2763 18.4091C14.8451 18.658 14.5019 18.5614 14.2467 18.1194L11.6548 13.63L12.0787 13.3853L13.2429 15.4017C13.4419 14.8302 13.5933 14.2597 13.6969 13.6902L14.2096 13.8C14.0056 14.6014 13.7863 15.3138 13.5519 15.937L14.6267 17.7985C14.7523 18.0159 14.9074 18.0713 15.0922 17.9646L15.4129 17.7795C15.6303 17.6539 15.6977 17.4822 15.6153 17.264C15.5312 17.0179 15.3899 16.6937 15.1914 16.2913C15.3589 16.2719 15.5269 16.2449 15.6954 16.2104C15.8595 16.5698 15.9919 16.8871 16.0928 17.1623ZM13.4618 19.2828C13.4006 19.4195 13.3558 19.5469 13.3272 19.6648L12.8352 19.4778C12.8905 19.3058 12.8596 19.1183 12.7424 18.9154L10.1818 14.4804L10.6058 14.2356L11.566 15.8988L12.4628 15.381L12.695 15.7832L11.7982 16.301L13.2009 18.7305C13.362 18.449 13.5525 18.0927 13.7722 17.6614C13.8771 17.8182 13.9795 17.962 14.0792 18.0929C13.7807 18.6469 13.5749 19.0436 13.4618 19.2828ZM17.3178 17.2884C17.1786 17.3736 17.0148 17.4706 16.8264 17.5793V17.5793C16.7257 17.4376 16.6162 17.3023 16.4984 17.1744C16.6937 17.0859 16.8511 17.0071 16.9707 16.938C17.1337 16.8439 17.164 16.708 17.0615 16.5305L16.2503 15.1255L15.6443 15.7327L15.3566 15.2973C15.5732 15.0975 15.7874 14.8953 15.9993 14.6907L15.2572 13.4053L14.5669 13.8039L14.3567 13.4397L15.0469 13.0412L14.4319 11.9759L14.8504 11.7342L15.4654 12.7995L16.0904 12.4387L16.3007 12.8028L15.6756 13.1637L16.3582 14.3458C16.5227 14.1832 16.6948 14.0126 16.8743 13.8341C16.9717 14.0194 17.0499 14.1675 17.1091 14.2783C16.9417 14.4443 16.7741 14.6099 16.6061 14.7752L17.5176 16.3541C17.7478 16.7527 17.6812 17.0641 17.3178 17.2884ZM20.1486 11.4219L20.3746 11.8132L17.0048 13.7587L16.7788 13.3674L18.192 12.5515L17.6899 11.6819L16.4724 12.3848L16.2465 11.9935L17.464 11.2906L17.0027 10.4916L17.4266 10.2469L17.8879 11.0458L19.1162 10.3367L19.3422 10.728L18.1138 11.4372L18.6159 12.3068L20.1486 11.4219ZM21.7198 13.9425L21.9458 14.3338L18.2173 16.4864L17.9913 16.0951L19.6762 15.1223L19.1585 14.2255L17.8105 15.0038L17.5846 14.6124L18.9326 13.8342L18.5152 13.1114L18.9391 12.8666L19.3565 13.5895L20.6609 12.8364L20.8868 13.2277L19.5824 13.9808L20.1002 14.8776L21.7198 13.9425ZM22.362 12.9775C22.5346 13.5107 22.6116 13.9808 22.5929 14.3877H22.5929C22.4192 14.2573 22.2411 14.1329 22.0588 14.0149C22.0559 13.374 21.7851 12.5617 21.2461 11.5781L21.6609 11.3677C21.8522 11.7283 22.0142 12.0695 22.1469 12.3915C22.4512 12.6047 22.7659 12.7334 23.091 12.7776L21.922 10.7531L20.6393 11.4936L20.4103 11.0969L21.5245 10.4536L21.0758 9.67636L20.1518 10.2098L19.9227 9.81306L20.8467 9.27959L20.4011 8.5078L20.825 8.26305L21.2706 9.03484L22.1837 8.50765L22.4128 8.90442L21.4997 9.43158L21.9484 10.2088L22.9702 9.61888L23.1993 10.0156L22.3297 10.5177L22.816 11.3602L23.6422 10.8832L23.8681 11.2745L23.042 11.7515L23.6351 12.7787C23.9455 12.7348 24.2657 12.62 24.5957 12.4343C25.4876 11.929 26.4201 11.381 27.3931 10.7902C27.422 10.9909 27.4539 11.1633 27.4888 11.3075C27.2843 11.4264 27.0867 11.541 26.8958 11.6512L26.734 11.7447C25.9329 12.2066 25.2574 12.5888 24.7075 12.8915C23.8212 13.3814 23.0394 13.4101 22.362 12.9775ZM26.5824 9.83788C26.7038 10.1736 26.5706 10.4534 26.1829 10.6773L25.0904 11.308C24.6882 11.5402 24.3679 11.4498 24.1294 11.0367L23.1096 9.27031L24.8054 8.29126L24.2091 7.25858L22.4101 8.29722L22.1841 7.90591L24.3962 6.62878L25.5511 8.62886L25.138 8.86736L25.0312 8.6826L23.7486 9.42315L24.5048 10.733C24.6178 10.9287 24.7721 10.97 24.9678 10.8571L25.9026 10.3173C26.1056 10.2002 26.1684 10.0455 26.0913 9.8533C26.0189 9.67771 25.8986 9.42344 25.7305 9.09047C25.8722 9.07637 26.0402 9.04941 26.2347 9.0096C26.405 9.37992 26.5209 9.65601 26.5824 9.83788Z" fill="#333333"/>
</g>
<defs>
<clipPath id="clip0_111_13">
<rect width="30" height="30" fill="white"/>
</clipPath>
</defs>
</svg>
