<svg width="30" height="30" viewBox="0 0 30 30" fill="none" xmlns="http://www.w3.org/2000/svg">
<g clip-path="url(#clip0_2321_116)">
<path d="M18.8571 17.7143C18.8571 18.3455 18.3455 18.8571 17.7143 18.8571H14.4194C13.7882 18.8571 13.2765 19.3688 13.2765 20C13.2765 20.6312 13.7882 21.1429 14.4194 21.1429H17.7143C19.6078 21.1429 21.1429 19.6078 21.1429 17.7143V3.42857C21.1429 1.535 19.6078 0 17.7143 0H3.42857C1.535 0 0 1.535 0 3.42857V17.7143C0 19.6078 1.535 21.1429 3.42857 21.1429H5.69125C6.32243 21.1429 6.83411 20.6312 6.83411 20C6.83411 19.3688 6.32243 18.8571 5.69125 18.8571H3.42857C2.79739 18.8571 2.28571 18.3455 2.28571 17.7143V3.42857C2.28571 2.79739 2.79739 2.28571 3.42857 2.28571H17.7143C18.3455 2.28571 18.8571 2.79739 18.8571 3.42857V17.7143ZM11.1429 12.2857C11.1429 11.6545 11.6545 11.1429 12.2857 11.1429H15.5806C16.2118 11.1429 16.7235 10.6312 16.7235 10C16.7235 9.36882 16.2118 8.85714 15.5806 8.85714H12.2857C10.3922 8.85714 8.85714 10.3922 8.85714 12.2857V26.5714C8.85714 28.465 10.3922 30 12.2857 30H26.5714C28.465 30 30 28.465 30 26.5714V12.2857C30 10.3922 28.465 8.85714 26.5714 8.85714H24.3088C23.6776 8.85714 23.1659 9.36882 23.1659 10C23.1659 10.6312 23.6776 11.1429 24.3088 11.1429H26.5714C27.2026 11.1429 27.7143 11.6545 27.7143 12.2857V26.5714C27.7143 27.2026 27.2026 27.7143 26.5714 27.7143H12.2857C11.6545 27.7143 11.1429 27.2026 11.1429 26.5714V12.2857Z" fill="#333333"/>
</g>
<defs>
<clipPath id="clip0_2321_116">
<rect width="30" height="30" fill="white"/>
</clipPath>
</defs>
</svg>
