<svg width="30" height="30" viewBox="0 0 30 30" fill="none" xmlns="http://www.w3.org/2000/svg">
<path fill-rule="evenodd" clip-rule="evenodd" d="M0 1.14286C0 0.511675 0.511675 0 1.14286 0H28.8571C29.4883 0 30 0.511675 30 1.14286C30 1.77404 29.4883 2.28571 28.8571 2.28571H1.14286C0.511675 2.28571 0 1.77404 0 1.14286ZM30 9C30 7.02755 28.401 5.42857 26.4286 5.42857H3.57143C1.59898 5.42857 0 7.02755 0 9V20.7857C0 22.7582 1.59898 24.3571 3.57143 24.3571H26.4286C28.401 24.3571 30 22.7582 30 20.7857V9ZM3.57143 7.71429H26.4286L26.4498 7.71446C27.1501 7.72581 27.7143 8.29702 27.7143 9V20.7857L27.7141 20.807C27.7028 21.5072 27.1315 22.0714 26.4286 22.0714H3.57143L3.55017 22.0713C2.84989 22.0599 2.28571 21.4887 2.28571 20.7857V9L2.28589 8.97874C2.29724 8.27846 2.86845 7.71429 3.57143 7.71429ZM1.14286 27.7143C0.511675 27.7143 0 28.226 0 28.8571C0 29.4883 0.511675 30 1.14286 30H28.8571C29.4883 30 30 29.4883 30 28.8571C30 28.226 29.4883 27.7143 28.8571 27.7143H1.14286Z" fill="#333333"/>
</svg>
