<svg width="30" height="30" viewBox="0 0 30 30" fill="none" xmlns="http://www.w3.org/2000/svg">
<path d="M29.8088 16.3545L16.5546 1.70557C16.3586 1.48394 16.1179 1.30644 15.8482 1.18481C15.5786 1.06318 15.2861 1.00019 14.9903 1C14.3943 1 13.8389 1.2507 13.426 1.70557L0.171789 16.3545C0.0487621 16.5035 -0.0120587 16.6942 0.00198688 16.8869C0.0160325 17.0796 0.103862 17.2595 0.247194 17.3891C0.390526 17.5187 0.578317 17.588 0.771477 17.5827C0.964637 17.5773 1.14828 17.4976 1.28419 17.3603L4.48029 13.8279V25.8647C4.48029 27.1062 5.49061 28.1165 6.73211 28.1165H23.2455C24.487 28.1165 25.4973 27.1062 25.4973 25.8647V13.8279L28.6934 17.3603C28.7596 17.4333 28.8395 17.4926 28.9285 17.5348C29.0176 17.577 29.1141 17.6012 29.2125 17.6061C29.3109 17.6109 29.4093 17.5964 29.5021 17.5632C29.5949 17.5301 29.6803 17.479 29.7533 17.4128C29.8263 17.3467 29.8856 17.2668 29.9278 17.1777C29.97 17.0887 29.9942 16.9922 29.9991 16.8938C30.004 16.7954 29.9894 16.6969 29.9562 16.6042C29.9231 16.5114 29.872 16.426 29.8058 16.353L29.8088 16.3545ZM17.9928 26.6153H11.9879V19.8598C11.9879 19.6607 12.067 19.4698 12.2077 19.3291C12.3485 19.1883 12.5394 19.1092 12.7385 19.1092H17.2421C17.4412 19.1092 17.6321 19.1883 17.7729 19.3291C17.9137 19.4698 17.9928 19.6607 17.9928 19.8598V26.6153ZM23.9976 25.8647C23.9976 26.0638 23.9185 26.2547 23.7778 26.3954C23.637 26.5362 23.4461 26.6153 23.247 26.6153H19.494V19.8598C19.494 18.6183 18.4837 17.608 17.2421 17.608H12.7385C11.497 17.608 10.4867 18.6183 10.4867 19.8598V26.6153H6.73362C6.53454 26.6153 6.34362 26.5362 6.20285 26.3954C6.06209 26.2547 5.98301 26.0638 5.98301 25.8647V12.1691L14.54 2.71139C14.6631 2.57478 14.8237 2.49972 14.9903 2.49972C15.157 2.49972 15.3176 2.57478 15.4407 2.71139L23.9976 12.1691V25.8647Z" fill="#333333"/>
</svg>
