<svg width="30" height="30" viewBox="0 0 30 30" fill="none" xmlns="http://www.w3.org/2000/svg">
<path d="M14.8214 0C15.4526 0 15.9643 0.511678 15.9643 1.14286V23.5714H18.7896C19.2608 23.5714 19.6428 23.9561 19.6428 24.4306C19.6428 24.6585 19.5529 24.8771 19.3929 25.0382L15.4248 29.7483C15.0916 30.0839 14.5513 30.0839 14.2181 29.7483L10.2499 25.0382C9.9167 24.7027 9.9167 24.1586 10.2499 23.8231C10.3289 23.7434 10.4229 23.6802 10.5264 23.637C10.63 23.5938 10.7411 23.5715 10.8533 23.5714H13.6786V1.14286C13.6786 0.511678 14.1902 0 14.8214 0Z" fill="#333333"/>
</svg>
