<svg width="30" height="30" viewBox="0 0 30 30" fill="none" xmlns="http://www.w3.org/2000/svg">
<g clip-path="url(#clip0_42_241)">
<path fill-rule="evenodd" clip-rule="evenodd" d="M0.871321 24.7144L0.857143 24.7143C0.3885 24.7143 0.00767845 25.0904 0.000107033 25.5572L0 25.5714V29.1429C0 29.6115 0.376107 29.9923 0.842964 29.9999L0.857143 30H4.42857C4.90196 30 5.28571 29.6162 5.28571 29.1429C5.28571 28.6742 4.90961 28.2934 4.44275 28.2858L4.42857 28.2857H1.71429V25.5714C1.71429 25.1028 1.33818 24.722 0.871321 24.7144ZM29.9999 25.5572C29.9923 25.0904 29.6115 24.7143 29.1429 24.7143L29.1287 24.7144C28.6618 24.722 28.2857 25.1028 28.2857 25.5714V28.2857H25.5714L25.5572 28.2858C25.0904 28.2934 24.7143 28.6742 24.7143 29.1429C24.7143 29.6162 25.098 30 25.5714 30H29.1429L29.157 29.9999C29.6239 29.9923 30 29.6115 30 29.1429V25.5714L29.9999 25.5572ZM5.28571 0.857143C5.28571 0.38375 4.90196 0 4.42857 0H0.857143L0.842964 0.000107033C0.376107 0.00767845 0 0.3885 0 0.857143V4.42857L0.000107033 4.44275C0.00767845 4.90961 0.3885 5.28571 0.857143 5.28571L0.871321 5.28561C1.33818 5.27804 1.71429 4.89721 1.71429 4.42857V1.71429H4.42857L4.44275 1.71418C4.90961 1.70661 5.28571 1.32579 5.28571 0.857143ZM29.157 0.000107033L29.1429 0H25.5714C25.098 0 24.7143 0.38375 24.7143 0.857143C24.7143 1.32579 25.0904 1.70661 25.5572 1.71418L25.5714 1.71429H28.2857V4.42857C28.2857 4.89721 28.6618 5.27804 29.1287 5.28561L29.1429 5.28571C29.6115 5.28571 29.9923 4.90961 29.9999 4.44275L30 4.42857V0.857143C30 0.3885 29.6239 0.00767845 29.157 0.000107033ZM15.0112 16.148C19.075 16.1399 21.051 12.1826 21.051 9.18076V9.17215V9.06976L21.051 9.03333L21.0509 8.95043L21.0507 8.83961L21.0506 8.82143C21.0499 8.58972 21.0481 8.35086 21.0424 8.10708L21.0421 8.10701C20.9731 5.20026 20.3639 1.6214 14.9923 1.60718C9.62327 1.59297 9.01216 5.19051 8.94263 8.10193L8.94238 8.10197C8.93663 8.34715 8.93466 8.58718 8.93406 8.81997L8.93391 8.86997L8.93377 8.94922L8.93373 9.03136V9.18072C8.93366 12.1848 10.9126 16.1375 14.9825 16.148C9.70172 16.1516 5.18346 19.023 5.10762 24.3745C5.05072 28.3904 10.1246 28.4107 15.1038 28.3904L15.247 28.3899C20.1038 28.3705 24.9095 28.3514 24.8774 24.3745C24.8343 19.0258 20.2884 16.1547 15.0112 16.148ZM11.5498 4.22876C11.0086 4.80754 10.6922 5.66368 10.5549 6.84872C10.5201 7.14911 10.4981 7.42829 10.4844 7.75754C11.937 7.48301 13.4413 7.33829 14.9825 7.33829C16.5307 7.33829 18.0416 7.48433 19.5003 7.76126C19.4869 7.43676 19.4652 7.16122 19.4311 6.86479C19.2949 5.6814 18.9796 4.82665 18.4382 4.2464C17.7837 3.54493 16.7048 3.14236 14.9883 3.13779C13.2777 3.13329 12.2028 3.53036 11.5498 4.22876ZM19.5183 9.32429C18.0424 9.02276 16.5242 8.8689 14.9825 8.8689C13.4477 8.8689 11.936 9.02143 10.4662 9.32029C10.499 10.546 10.9343 11.8789 11.6669 12.8742C12.4909 13.9937 13.6039 14.6073 14.9939 14.6087C16.3819 14.6101 17.4936 13.9979 18.3174 12.8778C19.0492 11.8828 19.4847 10.5496 19.5183 9.32429ZM16.6057 17.7823C16.0844 17.714 15.5452 17.6786 14.9925 17.6786C14.4727 17.6786 13.965 17.7096 13.4733 17.7702L14.966 19.8158L16.6057 17.7823ZM21.4838 26.3921C22.1855 26.1959 22.6654 25.939 22.9482 25.6347C23.2145 25.3482 23.3515 24.9693 23.3468 24.3868C23.3299 22.2965 22.4937 20.6392 20.968 19.4667C20.0852 18.7883 18.9856 18.2881 17.7475 17.9918L15.5034 20.775V24.0574C15.5034 24.9029 14.818 25.5883 13.9725 25.5883H11.6763C10.8308 25.5883 10.1454 24.9031 10.1454 24.0574V23.5916C9.45269 23.3038 8.96555 22.6208 8.96555 21.8239C8.96555 20.7673 9.82215 19.9107 10.8788 19.9107C11.9355 19.9107 12.7921 20.7673 12.7921 21.8239C12.7921 22.7831 12.0863 23.5773 11.1658 23.7158V24.0574C11.1658 24.3394 11.3943 24.5679 11.6763 24.5679H13.9725C14.2544 24.5679 14.4829 24.3393 14.4829 24.0574V20.9237C14.466 20.8933 14.4524 20.8615 14.442 20.8287L12.3529 17.9659C11.0728 18.2581 9.93765 18.7671 9.03058 19.4658C7.50844 20.6382 6.6678 22.2992 6.63808 24.3962C6.62987 24.9734 6.76905 25.3479 7.04772 25.6372C7.35065 25.9518 7.86619 26.2175 8.61315 26.4176C9.36965 26.6202 10.3211 26.7451 11.5137 26.8078C12.4645 26.8578 13.3437 26.8671 15.0976 26.8599L15.2418 26.8593C17.0322 26.8522 17.8094 26.8389 18.7159 26.7856C19.8618 26.7182 20.7674 26.5923 21.4838 26.3921ZM9.98597 21.8239C9.98597 22.3171 10.3857 22.7168 10.8788 22.7168C11.3719 22.7168 11.7717 22.3171 11.7717 21.8239C11.7717 21.3308 11.3719 20.9311 10.8788 20.9311C10.3857 20.9311 9.98597 21.3308 9.98597 21.8239ZM15.5025 6.51787V5.75255H16.2678V4.73215H15.5025V3.96683H14.4821V4.73215H13.7168V5.75255H14.4821V6.51787H15.5025Z" fill="#333333"/>
</g>
<defs>
<clipPath id="clip0_42_241">
<rect width="30" height="30" fill="white"/>
</clipPath>
</defs>
</svg>
