<svg width="30" height="30" viewBox="0 0 30 30" fill="none" xmlns="http://www.w3.org/2000/svg">
<g clip-path="url(#clip0_42_175)">
<path d="M15 30C6.71571 30 0 23.2843 0 15C0 6.71571 6.71571 0 15 0C23.2843 0 30 6.71571 30 15C30 23.2843 23.2843 30 15 30ZM15 27.7143C22.0219 27.7143 27.7143 22.0219 27.7143 15C27.7143 7.97811 22.0219 2.28571 15 2.28571C7.97811 2.28571 2.28571 7.97811 2.28571 15C2.28571 22.0219 7.97811 27.7143 15 27.7143ZM15 6.42857C16.1786 6.42857 17.1429 7.39286 17.1429 8.57143V15C17.1429 16.1786 16.1786 17.1429 15 17.1429C13.8214 17.1429 12.8571 16.1786 12.8571 15V8.57143C12.8571 7.39286 13.8214 6.42857 15 6.42857ZM15 19.2857C16.1786 19.2857 17.1429 20.25 17.1429 21.4286C17.1429 22.6071 16.1786 23.5714 15 23.5714C13.8214 23.5714 12.8571 22.6071 12.8571 21.4286C12.8571 20.25 13.8214 19.2857 15 19.2857Z" fill="#333333"/>
</g>
<defs>
<clipPath id="clip0_42_175">
<rect width="30" height="30" fill="white"/>
</clipPath>
</defs>
</svg>
