<svg width="30" height="30" viewBox="0 0 30 30" fill="none" xmlns="http://www.w3.org/2000/svg">
<g clip-path="url(#clip0_42_212)">
<path d="M9.58038 2.64464C10.4752 1.77741 11.9028 1.78509 12.7862 2.66826C12.7969 2.67809 12.8034 2.68399 12.8141 2.69635L12.8154 2.69778L16.0411 5.92421L18.6715 3.29328C19.5546 2.41011 20.9817 2.40178 21.8769 3.26844L21.9039 3.295L29.3299 10.7227C30.214 11.6069 30.2233 13.0341 29.358 13.9282L29.3315 13.9551L16.7112 26.5781L16.6952 26.5622L16.1847 27.0728C15.3007 27.9577 13.8731 27.9678 12.9788 27.1023L12.9519 27.0758C12.9412 27.066 12.9347 27.0601 12.924 27.0477L12.9227 27.0463L0.667838 14.7887C-0.214511 13.9054 -0.222445 12.4788 0.643716 11.5833L0.670232 11.5563L9.5534 2.67119L9.58038 2.64464ZM11.169 4.28616L2.28602 13.1711L2.28566 13.1718L14.5691 25.4579L16.0858 23.9407L10.8418 18.7023L12.055 17.491L17.298 22.7283L18.3998 21.6263L13.157 16.3891L14.3702 15.1778L19.6119 20.4139L20.6953 19.3302L15.4539 14.0943L16.667 12.883L21.9075 18.1178L23.4521 16.5729L23.4524 16.5723L11.169 4.28616ZM20.2889 4.91057L17.6583 7.54175L25.0703 14.9554L25.0836 14.9688L27.7142 12.3377L20.2889 4.91057Z" fill="#333333"/>
</g>
<defs>
<clipPath id="clip0_42_212">
<rect width="30" height="30" fill="white"/>
</clipPath>
</defs>
</svg>
