<svg width="30" height="30" viewBox="0 0 30 30" fill="none" xmlns="http://www.w3.org/2000/svg">
<path fill-rule="evenodd" clip-rule="evenodd" d="M2.31867 5.42449C2.31867 4.79407 2.82974 4.283 3.46017 4.283H26.5755C27.2059 4.283 27.717 4.79407 27.717 5.42449V16.9975C25.7196 15.6371 23.3064 14.8419 20.7075 14.8419C16.1188 14.8419 12.1091 17.3209 9.94463 21.0128C8.69571 19.8614 7.02738 19.1581 5.19482 19.1581C4.16982 19.1581 3.19623 19.3781 2.31867 19.7735V5.42449ZM10.7274 25.2697C10.7219 25.3133 10.7167 25.3569 10.7119 25.4007H26.5755C26.6149 25.4007 26.6538 25.3987 26.6922 25.3948C27.2678 25.3364 27.717 24.8502 27.717 24.2592L27.717 19.9205C25.8448 18.1422 23.3603 17.1249 20.7075 17.1249C15.7813 17.1249 11.6721 20.6224 10.7274 25.2697ZM26.5755 27.6837L10.8348 27.6837H3.42449C1.53317 27.6837 0 26.1505 0 24.2592V21.4615L0.0356718 21.4224V5.42449C0.0356718 3.53317 1.56885 2 3.46017 2H26.5755C28.4668 2 30 3.53317 30 5.42449V18.9974V24.2592C30 26.0323 28.6525 27.4907 26.9256 27.666C26.8105 27.6777 26.6937 27.6837 26.5755 27.6837ZM8.87279 23.1976C8.68728 23.7482 8.55412 24.3146 8.47485 24.8894C8.44157 25.0586 8.4117 25.2291 8.38534 25.4007H3.46017C2.82974 25.4007 2.31867 24.8896 2.31867 24.2592V22.4161C3.13183 21.7909 4.13353 21.4411 5.19482 21.4411C6.65272 21.4411 7.99113 22.1062 8.87279 23.1976ZM5.53438 13.5881C4.73161 12.7853 4.28062 11.6965 4.28062 10.5612C4.28062 9.42595 4.73161 8.33715 5.53438 7.53438C6.33715 6.73161 7.42595 6.28062 8.56124 6.28062C9.69653 6.28062 10.7853 6.73161 11.5881 7.53438C12.3909 8.33715 12.8419 9.42595 12.8419 10.5612C12.8419 11.6965 12.3909 12.7853 11.5881 13.5881C10.7853 14.3909 9.69653 14.8419 8.56124 14.8419C7.42595 14.8419 6.33715 14.3909 5.53438 13.5881Z" fill="#333333"/>
</svg>
