<svg width="30" height="30" viewBox="0 0 30 30" fill="none" xmlns="http://www.w3.org/2000/svg">
<path d="M22.471 1.98278e-05C23.0958 0.00369841 23.6006 0.508198 23.6071 1.1307L23.6071 1.14963L23.6012 2.14284L26.5714 2.14288C28.465 2.14288 30 3.67787 30 5.57144V26.5714C30 28.465 28.465 30 26.5714 30H3.42857C1.535 30 0 28.465 0 26.5714V5.57144C0 3.67787 1.535 2.14288 3.42857 2.14288H6.42264L6.4286 1.13616C6.43232 0.504984 6.94696 -0.00365875 7.57814 1.98278e-05C8.20299 0.00369841 8.70778 0.508198 8.71421 1.1307L8.71424 1.14963L8.70839 2.14284H21.3155L21.3214 1.13616C21.3252 0.504984 21.8398 -0.00365875 22.471 1.98278e-05ZM27.7143 11.4822H2.28571V26.5714C2.28571 27.1963 2.78721 27.704 3.40964 27.7143H26.5714C27.1963 27.7143 27.704 27.2128 27.7143 26.5904V11.4822ZM23.7009 13.1919C24.1428 13.6337 24.1472 14.3474 23.7142 14.7947L23.7009 14.8081L13.3795 25.1295C13.1608 25.3483 12.8756 25.4598 12.589 25.4642L12.5714 25.4643C12.2849 25.4643 11.9984 25.3572 11.7771 25.1431L11.7633 25.1295L6.33475 19.701L6.32146 19.6875C5.88846 19.2402 5.89289 18.5266 6.33475 18.0848C6.77657 17.6429 7.49021 17.6385 7.93749 18.0714L7.95096 18.0847L12.5714 22.7052L22.0847 13.1919C22.531 12.7456 23.2547 12.7456 23.7009 13.1919ZM6.40921 4.42855L3.42857 4.42859C2.80371 4.42859 2.29596 4.93009 2.28571 5.55252V9.19644H27.7143V5.57144C27.7143 4.94659 27.2128 4.43884 26.5903 4.42859H23.5878L23.5714 7.22101C23.5677 7.85219 23.053 8.36084 22.4218 8.35716C21.797 8.35348 21.2922 7.84898 21.2858 7.22648L21.2857 7.20755L21.3021 4.42855H8.69496L8.67853 7.22105C8.67482 7.85219 8.16017 8.36084 7.52899 8.35716C6.90414 8.35348 6.39935 7.84898 6.39292 7.22648L6.39289 7.20755L6.40921 4.42855Z" fill="#333333"/>
</svg>
