<svg width="30" height="30" viewBox="0 0 30 30" fill="none" xmlns="http://www.w3.org/2000/svg">
<g clip-path="url(#clip0_167_10)">
<path d="M24.3929 0C27.4896 0 30 2.51039 30 5.60714V24.3929C30 27.4896 27.4896 30 24.3929 30H5.60714C2.51039 30 0 27.4896 0 24.3929V5.60714C0 2.51039 2.51039 0 5.60714 0H24.3929ZM24.3929 2.28571H5.60714C3.79111 2.28571 2.3155 3.74318 2.28614 5.55221L2.28571 5.60714V24.3929C2.28571 26.2089 3.74318 27.6845 5.55221 27.7139L5.60714 27.7143H24.3929C26.2089 27.7143 27.6845 26.2568 27.7139 24.4478L27.7143 24.3929V5.60714C27.7143 3.79111 26.2568 2.3155 24.4478 2.28614L24.3929 2.28571Z" fill="#333333"/>
</g>
<defs>
<clipPath id="clip0_167_10">
<rect width="30" height="30" fill="white"/>
</clipPath>
</defs>
</svg>
