<svg width="30" height="30" viewBox="0 0 30 30" fill="none" xmlns="http://www.w3.org/2000/svg">
<g clip-path="url(#clip0_42_147)">
<path d="M25.7143 0C28.0812 0 30 1.91879 30 4.28571V30L15 22.8571L0 30V4.28571C0 1.91879 1.91879 0 4.28571 0H25.7143ZM25.7143 2.28571H4.28571C3.18114 2.28571 2.28571 3.18114 2.28571 4.28571V26.0613L13.866 20.8726C14.2113 20.6752 14.6022 20.5714 15 20.5714C15.3978 20.5714 15.7887 20.6752 16.134 20.8726L27.7143 26.0613V4.28571C27.7143 3.18114 26.8189 2.28571 25.7143 2.28571ZM15 6.14286C15.6312 6.14286 16.1429 6.65454 16.1429 7.28571V10.3571H19.2143C19.8455 10.3571 20.3571 10.8688 20.3571 11.5C20.3571 12.1312 19.8455 12.6429 19.2143 12.6429H16.1429V15.7143C16.1429 16.3455 15.6312 16.8571 15 16.8571C14.3688 16.8571 13.8571 16.3455 13.8571 15.7143V12.6429H10.7857C10.1545 12.6429 9.64286 12.1312 9.64286 11.5C9.64286 10.8688 10.1545 10.3571 10.7857 10.3571H13.8571V7.28571C13.8571 6.65454 14.3688 6.14286 15 6.14286Z" fill="#333333"/>
</g>
<defs>
<clipPath id="clip0_42_147">
<rect width="30" height="30" fill="white"/>
</clipPath>
</defs>
</svg>
