<svg width="30" height="30" viewBox="0 0 30 30" fill="none" xmlns="http://www.w3.org/2000/svg">
<g clip-path="url(#clip0_42_256)">
<path fill-rule="evenodd" clip-rule="evenodd" d="M15.0348 0.857091C15.0348 0.383727 14.6511 0 14.1777 0H1.86939C0.838592 0 0 0.838592 0 1.86939V14.1769C0 14.6502 0.383727 15.034 0.857091 15.034C1.33045 15.034 1.71418 14.6502 1.71418 14.1769V1.86939C1.71423 1.82824 1.7306 1.78879 1.75969 1.75969C1.78879 1.7306 1.82824 1.71423 1.86939 1.71418H14.1777C14.6511 1.71418 15.0348 1.33045 15.0348 0.857091ZM28.8554 12.8581C28.2242 12.8581 27.7126 13.3698 27.7126 14.0009V27.7126H6.42818V6.46389H21.4273C22.0584 6.46389 22.5701 5.95224 22.5701 5.3211C22.5701 4.68996 22.0584 4.17832 21.4273 4.17832H6.42818C5.1679 4.17832 4.1426 5.20361 4.1426 6.46389V27.7483C4.1426 28.3711 4.40002 28.9715 4.84885 29.3956C5.28632 29.809 5.85554 30.0222 6.45489 29.9982H27.6858C27.7163 29.9994 27.7467 30 27.777 30C28.3429 30 28.8767 29.788 29.2919 29.3956C29.7408 28.9715 29.9982 28.3711 29.9982 27.7483V14.0009C29.9982 13.3698 29.4865 12.8581 28.8554 12.8581ZM15.6153 18.9312C15.6711 18.987 15.7354 18.9988 15.7793 18.9988C15.8233 18.9988 15.8875 18.987 15.9438 18.9307L28.041 6.8335C28.4872 6.38721 29.2108 6.38721 29.6571 6.8335C30.1034 7.2798 30.1034 8.00336 29.6571 8.44966L17.56 20.5468C17.0844 21.0225 16.452 21.2844 15.7793 21.2844C15.1067 21.2844 14.4743 21.0225 13.9986 20.5468L9.20216 15.744C8.75615 15.2974 8.75665 14.5738 9.20323 14.1278C9.64981 13.6818 10.3733 13.6823 10.8194 14.1289L15.6153 18.9312Z" fill="#333333"/>
</g>
<defs>
<clipPath id="clip0_42_256">
<rect width="30" height="30" fill="white"/>
</clipPath>
</defs>
</svg>
