<svg width="30" height="30" viewBox="0 0 30 30" fill="none" xmlns="http://www.w3.org/2000/svg">
<path fill-rule="evenodd" clip-rule="evenodd" d="M11.5918 15.5714C11.5918 13.599 9.99286 12 8.02039 12H5.57143C3.599 12 2 13.599 2 15.5714V30H11.5918V20.7215L14.2611 22.2639C14.7735 22.56 15.4285 22.3845 15.7241 21.8719L15.7883 21.7607L17.5867 20.7215V30H27.1786V15.5714C27.1786 13.599 25.5796 12 23.6071 12H21.1581C19.1857 12 17.5867 13.599 17.5867 15.5714V18L14.5893 19.732L11.5919 18L11.5918 15.5714ZM25.4643 28.2857V15.5714C25.4643 14.5458 24.6328 13.7143 23.6071 13.7143H21.1581C20.1325 13.7143 19.301 14.5458 19.301 15.5714V28.2857H25.4643ZM9.87757 17.7511L9.87754 17.7511V28.2857H3.71429V15.5714C3.71429 14.5458 4.54577 13.7143 5.57143 13.7143H8.02039C9.04607 13.7143 9.87754 14.5458 9.87754 15.5714L9.87757 17.7511ZM6.79593 7.88571C8.49648 7.88571 9.87754 6.50558 9.87754 4.8C9.87754 3.09442 8.49648 1.71429 6.79593 1.71429C5.09536 1.71429 3.71429 3.09444 3.71429 4.8C3.71429 6.50556 5.09536 7.88571 6.79593 7.88571ZM19.301 4.8C19.301 6.50558 20.6821 7.88571 22.3826 7.88571C24.0832 7.88571 25.4643 6.50556 25.4643 4.8C25.4643 3.09444 24.0832 1.71429 22.3826 1.71429C20.6821 1.71429 19.301 3.09442 19.301 4.8ZM11.5918 4.8C11.5918 7.45096 9.44464 9.6 6.79593 9.6C4.14721 9.6 2 7.45096 2 4.8C2 2.14904 4.14721 0 6.79593 0C9.44464 0 11.5918 2.14904 11.5918 4.8ZM17.5868 4.8C17.5868 7.45096 19.7339 9.6 22.3826 9.6C25.0314 9.6 27.1786 7.45096 27.1786 4.8C27.1786 2.14904 25.0314 0 22.3826 0C19.7339 0 17.5868 2.14904 17.5868 4.8Z" fill="#333333"/>
</svg>
