<svg width="30" height="30" viewBox="0 0 30 30" fill="none" xmlns="http://www.w3.org/2000/svg">
<g clip-path="url(#clip0_3410_33)">
<path d="M15 0C23.2843 0 30 6.71571 30 15C30 23.2843 23.2843 30 15 30C6.71571 30 0 23.2843 0 15C0 6.71571 6.71571 0 15 0ZM15 2.33011C8.00261 2.33011 2.33011 8.00261 2.33011 15C2.33011 21.9974 8.00261 27.6699 15 27.6699C21.9974 27.6699 27.6699 21.9974 27.6699 15C27.6699 8.00261 21.9974 2.33011 15 2.33011ZM20.8252 19.6602C21.4687 19.6602 21.9902 20.1818 21.9903 20.8252C21.9903 21.4687 21.4687 21.9903 20.8252 21.9903H9.17475C8.53129 21.9903 8.00968 21.4687 8.00968 20.8252C8.00971 20.1818 8.53132 19.6602 9.17475 19.6602H20.8252ZM9.17511 13.2524C10.1403 13.2524 10.9227 14.0349 10.9227 15C10.9227 15.9651 10.1403 16.7476 9.17511 16.7476H9.17479C8.20961 16.7476 7.42718 15.9651 7.42718 15C7.42718 14.0349 8.20961 13.2524 9.17479 13.2524H9.17511ZM15.0004 13.2524C15.9655 13.2524 16.7479 14.0349 16.7479 15C16.7479 15.9651 15.9655 16.7476 15.0004 16.7476H15C14.0349 16.7476 13.2524 15.9651 13.2524 15C13.2524 14.0349 14.0349 13.2524 15 13.2524H15.0004ZM20.8256 13.2524C21.7908 13.2525 22.5732 14.0349 22.5732 15C22.5732 15.9651 21.7908 16.7475 20.8256 16.7476H20.8252C19.8601 16.7475 19.0777 15.9651 19.0777 15C19.0777 14.0349 19.8601 13.2525 20.8252 13.2524H20.8256ZM9.17511 7.42718C10.1403 7.42718 10.9227 8.20961 10.9227 9.17479C10.9227 10.1399 10.1403 10.9223 9.17511 10.9223H9.17479C8.20961 10.9223 7.42718 10.1399 7.42718 9.17479C7.42718 8.20961 8.20961 7.42718 9.17479 7.42718H9.17511ZM15.0004 7.42718C15.9655 7.42718 16.7479 8.20961 16.7479 9.17479C16.7479 10.1399 15.9655 10.9223 15.0004 10.9223H15C14.0349 10.9223 13.2525 10.1399 13.2524 9.17479C13.2524 8.20961 14.0349 7.42718 15 7.42718H15.0004ZM20.8256 7.42718C21.7908 7.42718 22.5732 8.20961 22.5732 9.17479C22.5732 10.1399 21.7908 10.9223 20.8256 10.9223H20.8252C19.8601 10.9223 19.0777 10.1399 19.0777 9.17479C19.0777 8.20961 19.8601 7.42718 20.8252 7.42718H20.8256Z" fill="black"/>
</g>
<defs>
<clipPath id="clip0_3410_33">
<rect width="30" height="30" fill="white"/>
</clipPath>
</defs>
</svg>
