<svg width="30" height="30" viewBox="0 0 30 30" fill="none" xmlns="http://www.w3.org/2000/svg">
<path fill-rule="evenodd" clip-rule="evenodd" d="M3.85263 15.9585L7.87665 11.9294L10.892 14.9448L7.11156 18.7206C6.95919 18.8711 6.77993 18.9917 6.58309 19.0761L6.55734 19.0869L3.74476 19.9558C3.63344 20.0003 3.51194 20.0129 3.39384 19.9923C3.27575 19.9717 3.16572 19.9186 3.07607 19.839C2.98818 19.761 2.92306 19.6606 2.88764 19.5485C2.85221 19.4364 2.8478 19.3169 2.87487 19.2025L2.87855 19.1877L3.69276 16.2243C3.72499 16.1246 3.77969 16.0337 3.85263 15.9585ZM19.5132 25.174C19.813 24.8911 20.0684 24.6144 20.2808 24.3335L18.6296 22.6823L18.6238 22.6929L18.6042 22.7275L18.5903 22.7512L18.5826 22.7641L18.5667 22.7899L18.5502 22.8158L18.533 22.8419L18.5153 22.8681L18.5061 22.8813L18.4874 22.9078L18.468 22.9344L18.4479 22.9613L18.4272 22.9883L18.4058 23.0156L18.3836 23.043L18.3723 23.0569L18.3492 23.0847L18.3373 23.0987L18.3131 23.1268L18.3007 23.141L18.2754 23.1695L18.2494 23.1984L18.2226 23.2274L18.209 23.2421L18.1811 23.2716L18.1378 23.3165L18.108 23.3467L18.0774 23.3774L18.046 23.4082L17.9974 23.4553L17.964 23.4871L17.9298 23.5192L17.877 23.5681L17.8222 23.6179L17.7847 23.6516L17.7463 23.6857L17.7071 23.7202L17.6466 23.7727L17.6051 23.8083L17.5413 23.8625L17.4976 23.8992L17.453 23.9364L17.4075 23.974L17.361 24.0122L17.2896 24.0703L17.2161 24.1296L17.1403 24.19L17.0625 24.2517L16.9824 24.3146L16.9001 24.3788L16.8419 24.4238L16.2592 24.8723L16.1501 24.9569L16.0495 25.0354L15.974 25.0948L15.8847 25.1658L15.7992 25.2345L15.7373 25.2849L15.6812 25.3309L15.6264 25.3763L15.5598 25.4322L15.4951 25.4872C15.4618 25.5158 15.4287 25.5446 15.3957 25.5737L15.3478 25.6162C15.2869 25.6707 15.2268 25.7261 15.1676 25.7825L15.1254 25.8234C14.9861 25.9589 14.8644 26.0903 14.7561 26.2231C14.3685 26.6982 14.1515 27.1935 14.197 27.76C14.2496 28.4142 14.6424 28.9246 15.2544 29.2913C15.6987 29.5576 16.2097 29.6823 16.7794 29.6949C17.2362 29.7049 17.7316 29.6433 18.2895 29.519L18.3062 29.5152L18.3904 29.496L18.4583 29.4799L18.5269 29.4633L18.5963 29.446L18.6312 29.4371L18.7016 29.419L18.7728 29.4001L18.8449 29.3807L18.9178 29.3606L18.9917 29.3399L19.1042 29.3075L19.1805 29.2851L19.2579 29.262L19.3364 29.2382L19.416 29.2137L19.4968 29.1886L19.5789 29.1627L19.6622 29.1361L19.7896 29.0949L19.8613 29.0714L20.0062 29.0234L20.1874 28.9624L20.3465 28.9081L20.5151 28.85L20.6945 28.7876L21.5668 28.4816L21.6809 28.4419L21.8931 28.3684L22.0407 28.3177L22.1809 28.2701L22.3601 28.21L22.5188 28.1577L22.6638 28.1107L22.7589 28.0803L22.8529 28.0507L22.9686 28.0148L23.0825 27.9801L23.1723 27.9532L23.2609 27.9272L23.3484 27.9018C23.4063 27.8852 23.4635 27.8691 23.5199 27.8535L23.6041 27.8306L23.6871 27.8083L23.7414 27.7941L21.8982 25.951L21.8025 25.9821L21.7187 26.0097L21.6358 26.0372L21.5126 26.0783L21.335 26.1385L21.1473 26.2028L20.915 26.2833L20.3122 26.4942L19.9293 26.6277L19.6582 26.7215L19.4441 26.795L19.3031 26.8429L19.146 26.8957L19.0243 26.9362L18.888 26.9807L18.8025 27.0081L18.701 27.0401L18.6427 27.0582L18.5676 27.0811L18.5131 27.0974L18.4425 27.118L18.3909 27.1328L18.3236 27.1517L18.2741 27.1653L18.209 27.1826L18.1606 27.1953L18.1125 27.2075L18.0427 27.2249C17.9609 27.2449 17.8784 27.264 17.7916 27.2833L17.7404 27.2945L17.6866 27.3059L17.6339 27.3167L17.5695 27.3292L17.5068 27.3407L17.4578 27.3492L17.4099 27.3571L17.3863 27.3608L17.34 27.3678L17.2947 27.3742C17.2656 27.3782 17.2365 27.3819 17.2074 27.3852L17.1653 27.3899C17.1318 27.3934 17.0983 27.3965 17.0647 27.399L17.0263 27.4017L16.989 27.4038L16.9527 27.4054L16.9349 27.406L16.9002 27.4068C16.8604 27.4074 16.8226 27.407 16.787 27.4055L16.7852 27.4054L16.8299 27.3642C16.8475 27.348 16.8657 27.3316 16.8845 27.3149L16.9228 27.2809L16.9627 27.2462L17.0041 27.2105L17.0581 27.1648L17.1145 27.1176L17.1616 27.0788L17.2101 27.0391L17.2533 27.0041L17.2976 26.9685L17.3589 26.9196L17.4401 26.8555L17.5096 26.8011L17.643 26.6975L18.3363 26.1633L18.4285 26.0912L18.5178 26.021L18.6041 25.9526L18.6601 25.9079L18.715 25.8638L18.7687 25.8204L18.8213 25.7775L18.8729 25.7352L18.9235 25.6934L18.9732 25.652L19.022 25.611L19.0699 25.5703L19.1404 25.5099L19.1864 25.47L19.2318 25.4303L19.2986 25.371L19.3425 25.3315L19.3858 25.2922L19.4287 25.2529L19.4711 25.2135L19.5132 25.174ZM14.0918 19.7218C14.5442 19.6077 14.978 19.515 15.3922 19.4449L17.5457 21.5985L17.5348 21.5974L17.4926 21.5934L17.4496 21.5899L17.4059 21.5868L17.3613 21.5842L17.3159 21.582L17.2929 21.581L17.2463 21.5795C17.2228 21.5788 17.199 21.5783 17.1749 21.578L17.1263 21.5775C17.0609 21.5772 16.9934 21.5782 16.9237 21.5804L16.871 21.5822L16.8175 21.5846L16.7632 21.5874L16.7358 21.589C16.6828 21.5922 16.6291 21.596 16.5746 21.6005L16.5088 21.6062L16.4423 21.6125L16.4164 21.6151L16.4018 21.6166L16.3751 21.6195L16.3072 21.627L16.2385 21.6352C16.0085 21.6635 15.7667 21.7021 15.5137 21.7505L15.4375 21.7654L15.3991 21.7731L15.3219 21.7888C15.2831 21.7968 15.2441 21.805 15.2048 21.8134L15.126 21.8307L15.0465 21.8484L14.9663 21.8668L14.926 21.8762L14.8449 21.8955L14.8041 21.9053L14.7221 21.9254L14.6394 21.9461L14.5561 21.9673L14.5142 21.9781L14.4301 22.0002L14.3452 22.0229L14.3026 22.0345L14.2169 22.058L14.1305 22.0821L14.0872 22.0943L14 22.1193L13.868 22.1577L13.7794 22.184L13.6901 22.2108L13.6003 22.2383L13.5099 22.2662L13.4189 22.2947L13.3274 22.3238L13.1891 22.3683C12.3138 22.6531 11.3854 23.003 10.4185 23.406C9.5999 23.7472 8.7908 24.1105 7.97766 24.4954C7.85798 24.552 7.74089 24.6079 7.62417 24.664L7.44905 24.7484L7.33176 24.8052L7.30197 24.8197L7.27279 24.8339L6.51219 25.2067C5.12598 25.881 3.91056 26.1714 2.84441 26.0348C1.65321 25.8821 0.720921 25.202 0.132732 24.0879C-0.162577 23.5287 0.0514042 22.8358 0.610626 22.5405C1.16988 22.2452 1.86258 22.4591 2.15789 23.0185C2.40719 23.4907 2.70468 23.7077 3.1355 23.7629C3.3912 23.7957 3.69833 23.773 4.05475 23.6906L4.10154 23.6795L4.12511 23.6737L4.17272 23.6616C4.19669 23.6554 4.22084 23.6489 4.24519 23.6422L4.2942 23.6284C4.31884 23.6213 4.34367 23.6139 4.36874 23.6064L4.4191 23.5908L4.44453 23.5828L4.49571 23.5662L4.5475 23.549L4.59979 23.531L4.62615 23.5218L4.6793 23.5027C4.70598 23.493 4.73291 23.4831 4.76002 23.4729L4.81449 23.4521L4.84195 23.4415L4.89728 23.4196L4.95311 23.3971L5.0095 23.3738L5.0379 23.3619L5.09512 23.3376L5.16737 23.3061L5.24049 23.2736L5.29956 23.2467C5.32924 23.2331 5.35914 23.2192 5.38921 23.2051L5.44961 23.1764L5.48004 23.1618L6.08723 22.8639C6.38981 22.7156 6.69337 22.5694 6.99787 22.4251C7.84162 22.0257 8.6829 21.648 9.53764 21.2918C10.5578 20.8666 11.5424 20.4955 12.4808 20.1902L12.5856 20.1564L12.6898 20.1231L12.7935 20.0904L12.8967 20.0583L12.9481 20.0425L13.0504 20.0113L13.1522 19.9808L13.2535 19.9509L13.3542 19.9216L13.4044 19.9072L13.5042 19.8788L13.6036 19.851L13.7023 19.8239L13.8005 19.7974L13.8982 19.7716L13.9952 19.7464L14.0918 19.7218ZM29.611 29.719C29.6475 29.6832 29.6837 29.647 29.7194 29.6104C29.6857 29.649 29.6495 29.6853 29.611 29.719ZM11.9151 7.88597L14.9353 10.9062V10.9062L22.2862 3.56428L22.3724 3.47656L22.3891 3.45874C22.7083 3.11142 22.8768 2.65164 22.8574 2.18028C22.8478 1.94281 22.7907 1.70966 22.6896 1.4946C22.5884 1.27954 22.4452 1.08691 22.2684 0.928075L21.7827 0.474111H21.7792L21.7577 0.454931C21.0446 -0.170653 19.9713 -0.149402 19.2834 0.508506L11.9151 7.88597ZM0.347238 0.347172C-0.0991186 0.793528 -0.0991186 1.51719 0.347238 1.96355L28.0489 29.6652C28.4952 30.1116 29.2189 30.1116 29.6653 29.6652C30.1116 29.2189 30.1116 28.4952 29.6653 28.0489L1.96361 0.347172C1.51726 -0.0991838 0.793558 -0.0991838 0.347238 0.347172Z" fill="#333333"/>
</svg>
