<svg width="30" height="30" viewBox="0 0 30 30" fill="none" xmlns="http://www.w3.org/2000/svg">
<g clip-path="url(#clip0_42_152)">
<path fill-rule="evenodd" clip-rule="evenodd" d="M28.049 0.334741C28.4953 -0.11158 29.219 -0.11158 29.6653 0.334741C30.1116 0.781027 30.1116 1.50467 29.6653 1.95096L16.5938 15.0224C16.3707 15.2456 16.0782 15.3571 15.7857 15.3571C15.4932 15.3571 15.2007 15.2456 14.9776 15.0224C14.5313 14.5761 14.5313 13.8525 14.9776 13.4062L28.049 0.334741ZM25.5714 14C25.5714 13.3688 26.0831 12.8571 26.7143 12.8571C27.3455 12.8571 27.8572 13.3688 27.8572 14V27.3959C27.8572 28.8318 26.6889 30 25.253 30H2.60407C1.16818 30 0 28.8318 0 27.3959V4.74691C0 3.31102 1.16818 2.14284 2.60407 2.14284H16C16.6312 2.14284 17.1429 2.65452 17.1429 3.2857C17.1429 3.91688 16.6312 4.42856 16 4.42856H2.60407C2.42854 4.42856 2.28572 4.57138 2.28572 4.74691V27.3959C2.28572 27.5715 2.42854 27.7143 2.60407 27.7143H25.253C25.4286 27.7143 25.5714 27.5715 25.5714 27.3959V14Z" fill="#333333"/>
</g>
<defs>
<clipPath id="clip0_42_152">
<rect width="30" height="30" fill="white"/>
</clipPath>
</defs>
</svg>
