<svg width="30" height="30" viewBox="0 0 30 30" fill="none" xmlns="http://www.w3.org/2000/svg">
<path fill-rule="evenodd" clip-rule="evenodd" d="M17.0992 6.84001H17.7053C20.0502 6.84001 21.9512 8.74096 21.9512 11.0859V15.0057H19.6664V11.0859C19.6664 10.0046 18.7867 9.12485 17.7053 9.12485H6.24585C5.16455 9.12485 4.28485 10.0046 4.28485 11.0859V12.4068H11.6782C12.2524 12.4068 12.7179 12.8722 12.7179 13.4464V21.1787C12.7179 21.7528 12.2524 22.2183 11.6782 22.2183H4.28485V23.6055C4.28485 24.6868 5.16455 25.5665 6.24585 25.5665H12.7102V27.8514H6.24585C3.90096 27.8514 2 25.9505 2 23.6055V11.0859C2 8.74096 3.90096 6.84001 6.24585 6.84004H6.85344V5.18635H5.09368C4.50615 5.18635 4.02984 4.71003 4.02984 4.12247V1.06385C4.02984 0.476283 4.50612 0 5.09368 0H18.8574C19.445 0 19.9213 0.476283 19.9213 1.06385V4.12243C19.9213 4.71 19.445 5.18631 18.8574 5.18631H17.0992V6.84001ZM7.22494 16.1755H5.11317V17.7349H7.22494V19.8141H8.78438V17.7349H10.8961V16.1755H8.78438V14.0312H7.22494V16.1755ZM18.2077 1.71363H5.74343V3.47272H18.2077V1.71363ZM14.8144 5.18635H9.13829V6.84004H14.8144V5.18635ZM20.7786 17.8618C22.1708 17.8618 23.4798 18.4039 24.4642 19.3884C25.4487 20.3729 25.9909 21.6818 25.9909 23.0741C25.9909 24.4663 25.4487 25.7752 24.4642 26.7597C23.4798 27.7442 22.1708 28.2864 20.7786 28.2864C19.3863 28.2864 18.0774 27.7442 17.0929 26.7597C16.1085 25.7752 15.5663 24.4663 15.5663 23.0741C15.5663 21.6818 16.1085 20.3729 17.0929 19.3884C18.0774 18.4039 19.3863 17.8618 20.7786 17.8618ZM20.7786 16.1481C16.9535 16.1481 13.8526 19.249 13.8526 23.0741C13.8526 26.8992 16.9535 30 20.7786 30C24.6037 30 27.7045 26.8992 27.7045 23.0741C27.7045 19.249 24.6037 16.1481 20.7786 16.1481ZM17.5373 19.7283H19.6819L20.7582 22.0699L21.8205 19.7283H23.9722L22.3329 22.6967H23.728V23.7347H21.7505V24.3031H23.728V25.3552H21.7505V26.614H19.7966V25.3552H17.7863V24.3031H19.7966V23.7347H17.7863V22.6967H19.2236L17.5373 19.7283Z" fill="#333333"/>
</svg>
