<svg width="30" height="30" viewBox="0 0 30 30" fill="none" xmlns="http://www.w3.org/2000/svg">
<g clip-path="url(#clip0_42_220)">
<path d="M15 0C23.2843 0 30 6.71571 30 15C30 23.2843 23.2843 30 15 30C6.71571 30 0 23.2843 0 15C0 6.71571 6.71571 0 15 0ZM15 2.28571C7.97811 2.28571 2.28571 7.97811 2.28571 15C2.28571 22.0219 7.97811 27.7143 15 27.7143C22.0219 27.7143 27.7143 22.0219 27.7143 15C27.7143 7.97811 22.0219 2.28571 15 2.28571ZM12.9247 8.00643L21.1924 12.8919C23.1627 14.0562 23.1629 15.9437 21.1924 17.1081L12.9247 21.9936C10.9544 23.1579 9.35714 22.2466 9.35714 19.9579V10.0421C9.35714 7.75357 10.9543 6.84214 12.9247 8.0065V8.00643Z" fill="#333333"/>
</g>
<defs>
<clipPath id="clip0_42_220">
<rect width="30" height="30" fill="white"/>
</clipPath>
</defs>
</svg>
