<svg width="30" height="30" viewBox="0 0 30 30" fill="none" xmlns="http://www.w3.org/2000/svg">
<path d="M5.5 18.25V4.25H3.77143C3.3 4.74018 2.71071 5.19118 2.00357 5.62254C1.29643 6.01468 0.628571 6.28921 0 6.44611V8.72057C1.29643 8.34807 2.35714 7.77943 3.20179 7.01471V18.25H5.5ZM18 18.25V16.2339H11.1084C11.4217 15.5292 12.2831 14.7071 13.7124 13.7675C15.0828 12.8475 16.0617 12.1037 16.6099 11.5165C17.5105 10.5182 17.9804 9.42204 17.9804 8.20846C17.9804 6.95571 17.5497 5.95739 16.6883 5.17446C15.8072 4.3915 14.6912 4 13.3404 4C11.8329 4 10.619 4.50893 9.69879 5.52679C8.79818 6.48593 8.34789 7.73868 8.32832 9.30461H10.619C10.6581 8.20846 10.8931 7.36675 11.3238 6.81868C11.7545 6.23146 12.4006 5.93786 13.262 5.93786C14.0647 5.93786 14.6717 6.114 15.0828 6.48593C15.4744 6.85782 15.6897 7.42546 15.6897 8.18886C15.6897 8.97186 15.3765 9.71564 14.7696 10.4007C14.378 10.8118 13.7515 11.3403 12.8509 11.9667C11.2259 13.0824 10.1491 13.9437 9.64007 14.5309C8.70029 15.5879 8.25 16.8211 8.25 18.25H18ZM24.9419 18.5357C26.4711 18.5357 27.7062 18.1047 28.6472 17.2624C29.5491 16.4396 30 15.3818 30 14.0888C30 13.266 29.7647 12.5804 29.2942 12.0515C28.8629 11.5421 28.2159 11.1699 27.3925 10.9152C28.9413 10.4059 29.7255 9.38721 29.7255 7.85921C29.7255 6.64464 29.2942 5.70432 28.4512 5.01868C27.5886 4.33304 26.4319 4 25.0203 4C23.6479 4 22.5108 4.37221 21.6286 5.15582C20.6875 5.93939 20.1778 7.03643 20.0602 8.44689H22.3148C22.3932 7.60454 22.6676 6.97768 23.1382 6.56629C23.5891 6.15486 24.2165 5.959 25.0399 5.959C25.8437 5.959 26.4515 6.13529 26.8632 6.48793C27.2357 6.84054 27.4317 7.34986 27.4317 8.03554C27.4317 8.72118 27.216 9.25011 26.8044 9.60271C26.373 9.95532 25.7457 10.1316 24.9222 10.1316H23.942V11.8556H24.9222C25.8241 11.8556 26.5103 12.0319 26.9808 12.4237C27.4513 12.7959 27.7062 13.3836 27.7062 14.1867C27.7062 14.8528 27.4709 15.4013 27.02 15.8519C26.5103 16.3416 25.8045 16.5963 24.9222 16.5963C24.1185 16.5963 23.4715 16.3612 22.9814 15.9107C22.4324 15.4209 22.1579 14.7157 22.1187 13.8145H19.7857C19.9034 15.3818 20.4523 16.5963 21.4325 17.4191C22.3148 18.1635 23.4911 18.5357 24.9419 18.5357ZM28.8571 23.1429C29.4883 23.1429 30 23.6545 30 24.2857C30 24.9106 29.4985 25.4183 28.8761 25.4284L28.8571 25.4286H1.17857C0.547393 25.4286 0.0357143 24.9169 0.0357143 24.2857C0.0357143 23.6609 0.537214 23.1531 1.15964 23.143L1.17857 23.1429H28.8571Z" fill="#333333"/>
</svg>
