<svg width="30" height="30" viewBox="0 0 30 30" fill="none" xmlns="http://www.w3.org/2000/svg">
<path d="M8.097 18.3674C9.1075 17.4393 9.71429 16.2503 9.71429 14.9541C9.71429 13.897 9.31071 12.9113 8.61382 12.0802C7.72604 10.8305 7.20407 9.30271 7.20407 7.65307C7.20407 3.42639 10.6305 0 14.8571 0C19.0838 0 22.5102 3.42639 22.5102 7.65307C22.5102 9.26918 22.0092 10.7683 21.1541 12.0036C20.4261 12.8571 20 13.8679 20 14.9541C20 16.2503 20.6068 17.4393 21.6173 18.3674H24.1253C24.9202 18.3674 25.5461 18.5165 26.07 18.7966C26.5937 19.0768 27.0048 19.4879 27.285 20.0117C27.5651 20.5355 27.7143 21.1614 27.7143 21.9563V22.1253C27.7143 22.9202 27.5651 23.5461 27.285 24.07C27.0048 24.5937 26.5937 25.0048 26.07 25.285C25.5461 25.5651 24.9202 25.7143 24.1253 25.7143H5.58896C4.79404 25.7143 4.16818 25.5651 3.64432 25.285C3.12054 25.0048 2.70946 24.5937 2.42932 24.07C2.14918 23.5461 2 22.9202 2 22.1253V21.9563C2 21.1614 2.14918 20.5355 2.42932 20.0116C2.70946 19.4879 3.12054 19.0768 3.64432 18.7966C4.16818 18.5165 4.79404 18.3673 5.58896 18.3673H8.097V18.3674ZM5.58896 20.6531C5.17164 20.6531 4.90968 20.712 4.72229 20.8123C4.59682 20.8794 4.512 20.9641 4.44489 21.0896C4.34468 21.277 4.28571 21.539 4.28571 21.9563V22.1253C4.28571 22.5426 4.34464 22.8046 4.44489 22.992C4.512 23.1175 4.59682 23.2023 4.72229 23.2694C4.90971 23.3696 5.17164 23.4286 5.58896 23.4286H24.1253C24.5426 23.4286 24.8046 23.3696 24.992 23.2694C25.1175 23.2023 25.2023 23.1175 25.2694 22.992C25.3696 22.8046 25.4286 22.5426 25.4286 22.1253V21.9563C25.4286 21.539 25.3696 21.277 25.2694 21.0896C25.2023 20.9641 25.1175 20.8794 24.992 20.8123C24.8046 20.712 24.5426 20.6531 24.1253 20.6531H5.58896ZM17.7143 14.9541C17.7143 13.873 17.9854 12.8322 18.4886 11.8837L18.615 11.6559C18.8082 11.3223 19.0306 11.001 19.2805 10.6944C19.8926 9.80668 20.2245 8.75764 20.2245 7.65307C20.2245 4.68879 17.8214 2.28571 14.8571 2.28571C11.8929 2.28571 9.48979 4.68875 9.48979 7.65307C9.48979 8.75793 9.82193 9.80714 10.4338 10.6945C11.4399 11.9289 12 13.4004 12 14.9541C12 16.1714 11.6572 17.3325 11.0315 18.3673H18.6828C18.0571 17.3326 17.7143 16.1715 17.7143 14.9541V14.9541ZM3.14286 27.7143H26.5714C27.2026 27.7143 27.7143 28.226 27.7143 28.8571C27.7143 29.4883 27.2026 30 26.5714 30H3.14286C2.51168 30 2 29.4883 2 28.8571C2 28.226 2.51168 27.7143 3.14286 27.7143Z" fill="#333333"/>
</svg>
