<svg width="30" height="30" viewBox="0 0 30 30" fill="none" xmlns="http://www.w3.org/2000/svg">
<g clip-path="url(#clip0_42_253)">
<path fill-rule="evenodd" clip-rule="evenodd" d="M13.8929 13.6429C13.8929 14.274 14.4045 14.7857 15.0357 14.7857C15.6669 14.7857 16.1786 14.274 16.1786 13.6429V1.14286C16.1786 0.511678 15.6669 0 15.0357 0C14.4045 0 13.8929 0.511678 13.8929 1.14286V13.6429ZM9.16096 28.8207C11.011 29.6033 12.9755 30 15 30C17.0245 30 18.989 29.6033 20.839 28.8207C22.6254 28.0652 24.2294 26.9838 25.6066 25.6066C26.9838 24.2294 28.0652 22.6254 28.8207 20.839C29.6032 18.989 30 17.0245 30 15C30 9.97318 27.5001 5.3049 23.3128 2.51233C22.7877 2.16215 22.0782 2.30393 21.7279 2.82904C21.3777 3.35415 21.5195 4.06372 22.0446 4.41393C25.5948 6.78158 27.7143 10.739 27.7143 15C27.7143 18.3961 26.3917 21.5889 23.9904 23.9904C21.589 26.3918 18.3961 27.7143 15 27.7143C11.6039 27.7143 8.41103 26.3918 6.00964 23.9904C3.60821 21.589 2.28571 18.3961 2.28571 15C2.28571 10.7548 4.393 6.80561 7.92275 4.43583C8.44678 4.084 8.58639 3.37397 8.23457 2.84993C7.88271 2.3259 7.17268 2.18633 6.64868 2.53811C2.4855 5.33322 0 9.99183 0 15C0 17.0245 0.39675 18.989 1.17921 20.839C1.93479 22.6254 3.01618 24.2294 4.39339 25.6066C5.77061 26.9838 7.37464 28.0652 9.16096 28.8207Z" fill="#333333"/>
</g>
<defs>
<clipPath id="clip0_42_253">
<rect width="30" height="30" fill="white"/>
</clipPath>
</defs>
</svg>
