<svg width="30" height="30" viewBox="0 0 30 30" fill="none" xmlns="http://www.w3.org/2000/svg">
<path d="M24.2857 2.28571H5.71429C3.82075 2.28571 2.28571 3.82075 2.28571 5.71429V7.85714H27.7143V5.71429C27.7143 3.82075 26.1793 2.28571 24.2857 2.28571ZM7.14286 10.1429H2.28571V24.2857C2.28571 26.1793 3.82075 27.7143 5.71429 27.7143H7.14286V10.1429ZM9.42857 27.7143H24.2857C26.1793 27.7143 27.7143 26.1793 27.7143 24.2857V10.1429H9.42857V27.7143ZM9.42857 30H5.71429C2.55836 30 0 27.4416 0 24.2857V5.71429C0 2.55836 2.55836 0 5.71429 0H24.2857C27.4416 0 30 2.55836 30 5.71429V24.2857C30 27.4416 27.4416 30 24.2857 30H9.42857Z" fill="#333333"/>
</svg>
