<svg width="30" height="30" viewBox="0 0 30 30" fill="none" xmlns="http://www.w3.org/2000/svg">
<g clip-path="url(#clip0_42_246)">
<path d="M11.0275 19.7811C11.0148 19.8514 11.0085 19.9227 11.0085 19.9941V28.8033C11.0085 29.2801 11.2912 29.7118 11.727 29.9011C11.8767 29.9665 12.0383 30.0002 12.2016 30C12.4984 30 12.792 29.8886 13.0173 29.6767L17.4653 25.4968C17.9461 25.045 17.971 24.2877 17.5205 23.8054C17.0684 23.3224 16.3141 23.2998 15.834 23.7501L13.3948 26.0422V21.5102L25.4471 24.3991C25.7741 24.4762 26.119 24.4139 26.3964 24.2238C26.5339 24.1297 26.6503 24.008 26.7381 23.8663C26.8258 23.7246 26.883 23.5661 26.9059 23.4011L29.9883 1.36204C30.052 0.909393 29.8516 0.459072 29.4733 0.203536C29.0942 -0.0520351 28.6041 -0.0676065 28.2095 0.160679L0.596075 16.1874C0.176611 16.4305 -0.0548891 16.9042 0.0111466 17.3856C0.077218 17.8671 0.426754 18.2606 0.895932 18.3821L7.85304 20.1771C8.49393 20.3415 9.14179 19.9567 9.30647 19.3162C9.4704 18.6758 9.08586 18.0237 8.44811 17.8586L4.31622 16.7927L27.285 3.46168L24.7254 21.765L14.4251 19.2966L19.4299 13.6866C19.8688 13.1942 19.8268 12.4376 19.3359 11.9967C18.8441 11.5558 18.0906 11.5986 17.651 12.091L11.3242 19.1829C11.2941 19.2156 11.2659 19.25 11.2397 19.2859C11.1321 19.4326 11.0595 19.602 11.0275 19.7811Z" fill="#333333"/>
</g>
<defs>
<clipPath id="clip0_42_246">
<rect width="30" height="30" fill="white"/>
</clipPath>
</defs>
</svg>
