<svg width="30" height="30" viewBox="0 0 30 30" fill="none" xmlns="http://www.w3.org/2000/svg">
<path d="M9 24C10.6569 24 12 25.3431 12 27C12 28.6569 10.6569 30 9 30C7.34314 30 6 28.6569 6 27C6 25.3431 7.34314 24 9 24ZM21 24C22.6569 24 24 25.3431 24 27C24 28.6569 22.6569 30 21 30C19.3431 30 18 28.6569 18 27C18 25.3431 19.3431 24 21 24ZM9 12.0357C10.6569 12.0357 12 13.3789 12 15.0357C12 16.6926 10.6569 18.0357 9 18.0357C7.34314 18.0357 6 16.6926 6 15.0357C6 13.3789 7.34314 12.0357 9 12.0357ZM21 12.0357C22.6569 12.0357 24 13.3789 24 15.0357C24 16.6926 22.6569 18.0357 21 18.0357C19.3431 18.0357 18 16.6926 18 15.0357C18 13.3789 19.3431 12.0357 21 12.0357ZM9 0C10.6569 0 12 1.34314 12 3C12 4.65686 10.6569 6 9 6C7.34314 6 6 4.65686 6 3C6 1.34314 7.34314 0 9 0ZM21 0C22.6569 0 24 1.34314 24 3C24 4.65686 22.6569 6 21 6C19.3431 6 18 4.65686 18 3C18 1.34314 19.3431 0 21 0Z" fill="#333333"/>
</svg>
