<svg width="30" height="30" viewBox="0 0 30 30" fill="none" xmlns="http://www.w3.org/2000/svg">
<path fill-rule="evenodd" clip-rule="evenodd" d="M18.5275 27.146C18.2833 27.1451 18.0451 27.0699 17.8447 26.9303C17.6442 26.7907 17.4911 26.5934 17.4056 26.3646L14.6409 19.1323H5.0846L2.33992 26.3646C2.22332 26.663 1.99424 26.9036 1.70198 27.0348C1.40972 27.1659 1.07765 27.1771 0.777258 27.0658C0.478898 26.9492 0.238247 26.7201 0.107105 26.4279C-0.0240368 26.1356 -0.035184 25.8035 0.0760632 25.5031L8.75084 2.80447C8.85382 2.59767 9.01243 2.42368 9.20885 2.30207C9.40527 2.18045 9.63172 2.11602 9.86274 2.11602C10.0938 2.11602 10.3202 2.18045 10.5166 2.30207C10.713 2.42368 10.8717 2.59767 10.9746 2.80447L16.5842 17.4695L19.6294 25.4831C19.6877 25.6304 19.7164 25.7878 19.7137 25.9462C19.711 26.1046 19.677 26.2609 19.6137 26.4061C19.5504 26.5513 19.459 26.6826 19.3448 26.7924C19.2306 26.9021 19.0958 26.9883 18.9482 27.0458C18.8128 27.0969 18.6714 27.1306 18.5275 27.146ZM6.00617 16.7282H13.7193L9.87276 6.57089L6.00617 16.7282Z" fill="#333333"/>
<path d="M28.7449 7.65273C28.4194 7.64175 28.1107 7.50537 27.8834 7.27208L26.8417 6.2024V22.906L27.8634 21.8569C28.0839 21.6258 28.3872 21.4917 28.7066 21.4842C29.0259 21.4767 29.3352 21.5964 29.5663 21.8169C29.7974 22.0374 29.9315 22.3407 29.939 22.66C29.9465 22.9794 29.8269 23.2886 29.6064 23.5198L26.7105 26.4899C26.6538 26.6012 26.5796 26.7039 26.4896 26.7939C26.2642 27.0193 25.9585 27.1459 25.6397 27.1459H25.6395C25.3208 27.1459 25.015 27.0193 24.7896 26.7939C24.7451 26.7494 24.7045 26.7017 24.6679 26.6515L21.6729 23.5598C21.4513 23.3318 21.3274 23.0263 21.3274 22.7084C21.3274 22.3904 21.4513 22.085 21.6729 21.8569C21.7845 21.7449 21.9172 21.656 22.0633 21.5953C22.2095 21.5346 22.3661 21.5034 22.5243 21.5034C22.6825 21.5034 22.8392 21.5346 22.9853 21.5953C23.1314 21.656 23.2641 21.7449 23.3758 21.8569L24.4376 22.9472V6.20241L23.3958 7.27208C23.2841 7.38415 23.1514 7.47306 23.0053 7.53373C22.8592 7.5944 22.7026 7.62563 22.5443 7.62563C22.3861 7.62563 22.2295 7.5944 22.0834 7.53373C21.9373 7.47306 21.8046 7.38415 21.6929 7.27208C21.4714 7.04401 21.3475 6.73858 21.3475 6.42063C21.3475 6.10269 21.4714 5.79726 21.6929 5.56918L24.7982 2.36372C24.9102 2.24862 25.0441 2.15713 25.1921 2.09466C25.3401 2.03219 25.499 2 25.6597 2C25.8203 2 25.9792 2.03219 26.1272 2.09466C26.2752 2.15713 26.4091 2.24862 26.5211 2.36372L29.6464 5.56918C29.7585 5.68086 29.8474 5.81356 29.9081 5.95967C29.9688 6.10578 30 6.26243 30 6.42063C30 6.57884 29.9688 6.73549 29.9081 6.8816C29.8474 7.02771 29.7585 7.16041 29.6464 7.27208C29.5321 7.39623 29.3924 7.49443 29.2369 7.56009C29.0814 7.62575 28.9137 7.65734 28.7449 7.65273Z" fill="#333333"/>
</svg>
