<svg width="30" height="30" viewBox="0 0 30 30" fill="none" xmlns="http://www.w3.org/2000/svg">
<g clip-path="url(#clip0_42_300)">
<path fill-rule="evenodd" clip-rule="evenodd" d="M2.73411 0H27.2659C28.7735 0 30 1.22146 30 2.72279V7.81325C30 8.44443 29.4884 8.95611 28.8572 8.95611C28.226 8.95611 27.7143 8.44443 27.7143 7.81325V2.72279C27.7143 2.48182 27.5132 2.28575 27.2659 2.28575H2.73411C2.48686 2.28575 2.28571 2.48179 2.28571 2.72279V27.2772C2.28571 27.5182 2.48686 27.7143 2.73411 27.7143H11.0714C11.7026 27.7143 12.2143 28.226 12.2143 28.8571C12.2143 29.4883 11.7026 30 11.0714 30H2.73411C1.2265 30 0 28.7786 0 27.2772V2.72279C0 1.22146 1.2265 0 2.73411 0ZM11.4799 13.849H27.1429C28.7184 13.849 30.0001 15.1307 30.0001 16.7061V27.1347C30.0001 28.7101 28.7184 29.9918 27.1429 29.9918H19.0358C18.4046 29.9918 17.8929 29.4801 17.8929 28.849C17.8929 28.2178 18.4046 27.7061 19.0358 27.7061H27.1429C27.458 27.7061 27.7144 27.4497 27.7144 27.1347V16.7061C27.7144 16.391 27.458 16.1347 27.1429 16.1347H11.4734L15.7725 20.4337C16.2188 20.88 16.2188 21.6036 15.7725 22.0499C15.5493 22.2731 15.2568 22.3847 14.9644 22.3847C14.6719 22.3847 14.3794 22.2731 14.1562 22.05L8.86436 16.7581C8.39343 16.2872 8.13407 15.6611 8.13407 14.995C8.13407 14.329 8.39343 13.7029 8.86439 13.232L14.1562 7.94014C14.6025 7.49382 15.3262 7.49382 15.7725 7.94014C16.2188 8.38646 16.2188 9.11007 15.7725 9.55639L11.4799 13.849Z" fill="#333333"/>
</g>
<defs>
<clipPath id="clip0_42_300">
<rect width="30" height="30" fill="white"/>
</clipPath>
</defs>
</svg>
