<svg width="30" height="30" viewBox="0 0 30 30" fill="none" xmlns="http://www.w3.org/2000/svg">
<g clip-path="url(#clip0_42_215)">
<path fill-rule="evenodd" clip-rule="evenodd" d="M19.2857 5.67857H10.4286C9.79739 5.67857 9.28571 5.16689 9.28571 4.53571V1.14286C9.28571 0.511679 9.79739 0 10.4286 0H19.2857C19.9169 0 20.4286 0.511679 20.4286 1.14286V4.53571C20.4286 5.16689 19.9169 5.67857 19.2857 5.67857ZM18.7143 1.71429H11V3.96429H18.7143V1.71429ZM8.5 23.4286C7.86882 23.4286 7.35714 22.9169 7.35714 22.2857C7.35714 21.6545 7.86882 21.1429 8.5 21.1429H21.2143C21.8455 21.1429 22.3571 21.6545 22.3571 22.2857C22.3571 22.9169 21.8455 23.4286 21.2143 23.4286H8.5ZM8.5 24.25H21.2143C21.8455 24.25 22.3571 24.7617 22.3571 25.3929C22.3571 26.024 21.8455 26.5357 21.2143 26.5357H8.5C7.86882 26.5357 7.35714 26.024 7.35714 25.3929C7.35714 24.7617 7.86882 24.25 8.5 24.25ZM13.7143 10.1438L10.4981 13.3599C10.0518 13.8062 9.32818 13.8062 8.88186 13.3599C8.43554 12.9136 8.43554 12.19 8.88186 11.7436L13.2424 7.38307C14.1327 6.49279 15.5815 6.49275 16.4718 7.38307L20.8324 11.7436C21.2787 12.19 21.2787 12.9136 20.8324 13.3599C20.6092 13.583 20.3167 13.6946 20.0243 13.6946C19.7318 13.6947 19.4393 13.5831 19.2161 13.3599L16 10.1438V18.6786C16 19.3098 15.4883 19.8214 14.8571 19.8214C14.226 19.8214 13.7143 19.3098 13.7143 18.6786V10.1438ZM21.5714 1.46429H24.4613C26.255 1.46429 27.7143 2.92204 27.7143 4.71386V26.7505C27.7143 28.5423 26.255 30 24.4613 30H5.25296C3.45929 30 2 28.5423 2 26.7505V4.71386C2 2.92204 3.45929 1.46429 5.25296 1.46429H8.14286V3.75H5.25296C4.71964 3.75 4.28571 4.18236 4.28571 4.71386V26.7505C4.28571 27.2819 4.71964 27.7143 5.25296 27.7143H24.4613C24.9947 27.7143 25.4286 27.2819 25.4286 26.7505V4.71386C25.4286 4.18236 24.9947 3.75 24.4613 3.75H21.5714V1.46429Z" fill="#333333"/>
</g>
<defs>
<clipPath id="clip0_42_215">
<rect width="30" height="30" fill="white"/>
</clipPath>
</defs>
</svg>
