<svg width="30" height="30" viewBox="0 0 30 30" fill="none" xmlns="http://www.w3.org/2000/svg">
<g clip-path="url(#clip0_42_266)">
<path d="M4.64286 8.47468C4.64286 7.33297 4.64286 5.98825 4.90736 4.71011L3.28571 4.22364V7.35714C3.28571 7.67275 3.02989 7.92857 2.71429 7.92857C2.39868 7.92857 2.14286 7.67275 2.14286 7.35714V3.88079L1.27504 3.62043C0.527357 3.39614 0.527357 3.03246 1.27504 2.80814L10.0748 0.168214C10.8225 -0.0560714 12.0347 -0.0560714 12.7824 0.168214L21.5821 2.80814C22.3298 3.03243 22.3298 3.39611 21.5821 3.62043L17.9482 4.71061C18.2143 5.98697 18.2143 7.33068 18.2143 8.47464V8.48239C18.2143 11.8496 15.9944 16.2904 11.4286 16.2857C6.86279 16.281 4.64286 11.8496 4.64286 8.48239V8.47489V8.47468ZM6.379 6.89768C8.00607 6.59014 9.69129 6.42857 11.4176 6.42857C13.1517 6.42857 14.8443 6.59161 16.4783 6.90186C16.4632 6.531 16.4388 6.21797 16.4 5.88086C16.3727 5.644 16.3391 5.41907 16.2988 5.20543L12.7824 6.26036C12.0347 6.48464 10.8225 6.48464 10.0748 6.26036L6.55704 5.205C6.518 5.41343 6.48536 5.63254 6.45868 5.86286C6.41911 6.20443 6.39422 6.5215 6.379 6.89768ZM22.0714 6.57143C21.598 6.57143 21.2143 6.18768 21.2143 5.71429C21.2143 5.24089 21.598 4.85714 22.0714 4.85714H25.7144C28.0813 4.85714 30.0001 6.77607 30.0001 9.14304V20.857C30.0001 23.2239 28.0813 25.1429 25.7144 25.1429H24.8571C24.3838 25.1429 24 24.7591 24 24.2857C24 23.8123 24.3838 23.4286 24.8571 23.4286H25.7144C27.1345 23.4286 28.2858 22.2772 28.2858 20.857V9.14304C28.2858 7.72282 27.1345 6.57143 25.7144 6.57143H22.0714ZM19.4286 10C19.4286 9.68439 19.6841 9.42857 19.9998 9.42857H26.5717C26.8871 9.42857 27.1429 9.68436 27.1429 10C27.1429 10.3156 26.8873 10.5714 26.5717 10.5714H19.9998C19.6843 10.5714 19.4286 10.3156 19.4286 10ZM22.8571 20C22.8571 19.6844 23.1132 19.4286 23.4284 19.4286H26.5715C26.8871 19.4286 27.1429 19.6844 27.1429 20C27.1429 20.3156 26.8868 20.5714 26.5715 20.5714H23.4284C23.1129 20.5714 22.8571 20.3156 22.8571 20H22.8571ZM20.6786 16.6667C20.6786 16.3511 20.9345 16.0953 21.2501 16.0953H26.5713C26.887 16.0953 27.1429 16.351 27.1429 16.6667C27.1429 16.9823 26.887 17.2381 26.5713 17.2381H21.2501C20.9345 17.2381 20.6786 16.9823 20.6786 16.6667ZM18.5714 13.3333C18.5714 13.0178 18.8274 12.7619 19.143 12.7619H26.5713C26.887 12.7619 27.1429 13.0177 27.1429 13.3333C27.1429 13.6489 26.8869 13.9048 26.5713 13.9048H19.143C18.8273 13.9048 18.5714 13.649 18.5714 13.3333ZM21.846 27.7606C18.9903 30.8216 3.78482 30.6703 1.07036 27.7606C-1.77193 24.714 0.833142 16.2142 11.4582 16.2862C22.0832 16.3581 24.5471 24.8653 21.846 27.7606ZM21.1424 24.7808C21.1292 23.8521 20.8122 22.832 20.2075 21.892C19.5202 20.8233 18.4974 19.9048 17.1686 19.2314C15.6275 18.4503 13.7149 18.0158 11.4465 18.0004C9.17782 17.9851 7.25911 18.3953 5.71039 19.1581C4.37318 19.8168 3.34246 20.7257 2.65104 21.7886C2.04039 22.7274 1.7225 23.7502 1.71443 24.6871C1.70739 25.5064 1.93811 26.1778 2.32386 26.5912C2.46018 26.7374 2.783 26.9354 3.27029 27.1333C3.83043 27.3608 4.55236 27.5665 5.40082 27.7385C7.10429 28.084 9.22911 28.2762 11.4124 28.2854C13.6096 28.2946 15.7367 28.1181 17.4433 27.7796C19.0873 27.4536 20.2182 26.9924 20.5925 26.5912C20.9396 26.2192 21.1538 25.5781 21.1425 24.7808H21.1424ZM12.2898 1.81021C11.8634 1.68232 10.9937 1.68232 10.5674 1.81021L5.88714 3.21429L10.5674 4.61836C10.9937 4.74625 11.8634 4.74625 12.2898 4.61836L16.97 3.21429L12.2898 1.81021ZM7.70414 12.6288C8.62704 13.8826 9.87357 14.5699 11.4303 14.5714C12.985 14.573 14.23 13.8873 15.1526 12.6328C15.9723 11.5184 16.46 10.0252 16.4976 8.65289C14.8447 8.31518 13.1443 8.14286 11.4176 8.14286C9.69854 8.14286 8.0055 8.31364 6.35936 8.64843C6.39604 10.0212 6.88361 11.514 7.70414 12.6288Z" fill="#333333"/>
</g>
<defs>
<clipPath id="clip0_42_266">
<rect width="30" height="30" fill="white"/>
</clipPath>
</defs>
</svg>
