<svg width="30" height="30" viewBox="0 0 30 30" fill="none" xmlns="http://www.w3.org/2000/svg">
<path d="M20.4716 0L25.7857 6.26439V11.6889C25.7857 12.3206 25.274 12.8327 24.6429 12.8327C24.0117 12.8327 23.5 12.3206 23.5 11.6889V7.10457L19.4139 2.28768H2.28571V27.7122H13.9892C14.6204 27.7122 15.132 28.2244 15.132 28.8561C15.132 29.4878 14.6204 30 13.9892 30H2.22346C0.997429 30 0 29.0016 0 27.7745V2.22543C0 0.998357 0.997429 0 2.22346 0H20.4716ZM22.4996 17.1429C25.502 17.1429 28.0022 18.9286 30 22.5L29.9399 22.6066C27.9521 26.107 25.472 27.8571 22.4996 27.8571C19.5271 27.8571 17.0473 26.107 15.0601 22.6066L15 22.5C16.9972 18.9286 19.4971 17.1429 22.4996 17.1429ZM22.5 18.9286C20.5275 18.9286 18.9286 20.5275 18.9286 22.5C18.9286 24.4725 20.5275 26.0714 22.5 26.0714C24.4725 26.0714 26.0714 24.4725 26.0714 22.5C26.0714 20.5275 24.4725 18.9286 22.5 18.9286ZM22.5 20.3571C23.6835 20.3571 24.6429 21.3165 24.6429 22.5C24.6429 23.6835 23.6835 24.6429 22.5 24.6429C21.3165 24.6429 20.3571 23.6835 20.3571 22.5C20.3571 21.3165 21.3165 20.3571 22.5 20.3571ZM12.0357 21.6619C12.5091 21.6619 12.8929 22.046 12.8929 22.5198C12.8929 22.9936 12.5091 23.3777 12.0357 23.3777H6.25C5.77661 23.3777 5.39286 22.9936 5.39286 22.5198C5.39286 22.046 5.77661 21.662 6.25 21.662H12.0357V21.6619ZM12.75 17.8371C13.2234 17.8371 13.6071 18.2212 13.6071 18.695C13.6071 19.1689 13.2234 19.5529 12.75 19.5529H6.25C5.77661 19.5529 5.39286 19.1689 5.39286 18.6951C5.39286 18.2212 5.77661 17.8371 6.25 17.8371H12.75ZM15.9643 14.0124C16.4377 14.0124 16.8214 14.3964 16.8214 14.8702C16.8214 15.344 16.4377 15.7281 15.9643 15.7281H6.25C5.77661 15.7281 5.39286 15.344 5.39286 14.8702C5.39286 14.3964 5.77661 14.0124 6.25 14.0124H15.9643ZM19.5357 10.1875C20.0091 10.1875 20.3929 10.5716 20.3929 11.0454C20.3929 11.5192 20.0091 11.9033 19.5357 11.9033H6.25C5.77661 11.9033 5.39286 11.5192 5.39286 11.0454C5.39286 10.5716 5.77661 10.1875 6.25 10.1875H19.5357V10.1875ZM17.0357 6.36271C17.5091 6.36271 17.8929 6.74679 17.8929 7.22061C17.8929 7.69443 17.5091 8.0785 17.0357 8.0785H6.25C5.77661 8.0785 5.39286 7.69443 5.39286 7.22064C5.39286 6.74679 5.77661 6.36271 6.25 6.36271H17.0357Z" fill="#333333"/>
</svg>
