<svg width="30" height="30" viewBox="0 0 30 30" fill="none" xmlns="http://www.w3.org/2000/svg">
<g clip-path="url(#clip0_42_230)">
<path d="M27.194 8.80964C28.5822 9.29654 29.5221 10.1158 29.8659 11.2645V11.2643C30.1992 12.3779 29.9015 13.562 29.0809 14.7425L29.0705 14.7575L25.1664 20.0079C25.1817 20.2742 25.1969 20.5405 25.2121 20.8069C25.3445 23.1182 25.4186 24.4155 25.4994 25.8431C25.5033 25.9069 25.5036 25.9685 25.5011 26.0308L25.5009 26.0358C25.4393 27.4365 25.0136 28.4829 24.2525 29.1551C23.6329 29.7024 22.8891 29.9273 22.121 29.9273C21.6475 29.9273 21.1432 29.8384 20.6167 29.6689L20.5931 29.6612L20.5697 29.6526C18.5762 28.9132 16.5832 28.1723 14.5909 27.4298L9.36143 29.5584L9.34121 29.5658C8.53678 29.8584 7.89921 30 7.31014 30C6.42189 30 5.65071 29.6709 5.10157 29.0278C4.44496 28.2593 4.22232 27.1936 4.33685 25.819C4.39793 23.7133 4.45982 21.5444 4.52357 19.2777C3.2275 17.6341 2.06985 16.1675 0.959818 14.7628C0.911616 14.7018 0.867393 14.6377 0.827426 14.571C0.0427826 13.2706 -0.205789 12.0745 0.176426 10.9665C0.550068 9.88482 1.45846 9.12886 2.76368 8.70486L2.77385 8.70157L2.7841 8.69843L4.91307 8.05079L5.3696 7.91193L6.15171 7.67407C7.0573 7.39847 7.96302 7.12327 8.86886 6.84846L11.8981 1.92732L11.9029 1.91986C12.7381 0.609036 13.8282 0 14.9705 0C16.1459 0 17.229 0.66975 18.037 1.79964L18.0416 1.80611L18.0461 1.81261C18.0549 1.82524 18.0635 1.83797 18.0719 1.85082L18.0682 1.84536L18.0766 1.8575L18.0847 1.86986L18.5516 2.58104L19.067 3.36604L19.5824 4.15111C20.4089 5.41011 21.0438 6.37768 21.6482 7.29936L27.0667 8.76982C27.1092 8.78129 27.1514 8.79436 27.194 8.80961V8.80964ZM27.6816 11.9184C27.5735 11.5572 27.1997 11.2301 26.4511 10.9655L20.2161 9.27343L19.9788 8.91161C19.2117 7.7417 18.4442 6.57203 17.6764 5.40257C17.5046 5.1409 17.3328 4.87924 17.161 4.61757L16.6457 3.83257L16.1846 3.13032L16.1738 3.11414C15.7646 2.54654 15.3315 2.28029 14.9705 2.28029C14.8328 2.28029 14.6923 2.31454 14.5402 2.3995C14.3106 2.52782 14.0714 2.76146 13.8302 3.13832L10.3574 8.77996L9.94382 8.90532C9.69053 8.98207 9.43043 9.06096 9.16028 9.14293C8.3785 9.38021 7.59681 9.6178 6.81521 9.85568C6.77418 9.86814 6.20114 10.0425 6.03307 10.0935C5.866 10.1444 5.71796 10.1894 5.57653 10.2324L3.45846 10.8767C2.78685 11.0966 2.44525 11.382 2.33171 11.7106C2.20325 12.0831 2.31103 12.6102 2.7676 13.3728C3.94503 14.8628 5.17646 16.4231 6.57 18.1904L6.826 18.5151L6.81439 18.9284C6.74618 21.3574 6.68021 23.673 6.6151 25.9169L6.61414 25.9499L6.61128 25.9827C6.53821 26.8224 6.63985 27.318 6.83525 27.5467C6.935 27.6635 7.06668 27.7197 7.31018 27.7197C7.58932 27.7197 7.97693 27.6344 8.54221 27.43L14.5547 24.9825L14.9712 25.1379C16.8928 25.8546 18.8952 26.5991 21.3381 27.5055C21.6411 27.6012 21.9059 27.647 22.1211 27.647C22.3765 27.647 22.5881 27.583 22.7433 27.4459C22.9971 27.2217 23.1837 26.7665 23.2221 25.9567C23.118 24.1189 23.0132 22.2812 22.9076 20.4435L22.8682 19.7545L22.842 19.3126L27.2186 13.4268C27.6674 12.7764 27.7904 12.2818 27.6816 11.9184ZM16.1823 3.12607L16.3038 3.03918L16.1789 3.12121L16.1823 3.12607Z" fill="#333333"/>
</g>
<defs>
<clipPath id="clip0_42_230">
<rect width="30" height="30" fill="white"/>
</clipPath>
</defs>
</svg>
