<svg width="30" height="30" viewBox="0 0 30 30" fill="none" xmlns="http://www.w3.org/2000/svg">
<path fill-rule="evenodd" clip-rule="evenodd" d="M10.165 16.6244C11.9057 14.8837 14.1847 13.8769 16.6267 13.7594C13.6789 13.5138 11.3631 11.0439 11.3631 8.03274C11.3631 4.85874 13.9361 2.28571 17.1101 2.28571C20.2841 2.28571 22.8571 4.85874 22.8571 8.03274C22.8571 11.0439 20.5413 13.5138 17.5935 13.7594C18.4902 13.8025 19.3649 13.9656 20.199 14.2408C20.199 14.2408 21.6952 14.8486 21.4334 15.8025C21.265 16.2513 20.6292 16.425 20.199 16.3315C19.2368 15.9145 18.1903 15.8025 17.1101 15.8025C15.0354 15.8025 13.085 16.6104 11.6179 18.0773C10.1509 19.5444 9.34304 21.4949 9.34304 23.5695C9.34305 23.7884 9.35214 24.0071 9.37029 24.2252C9.41743 24.7907 8.99726 25.2873 8.43183 25.3345C8.40279 25.3369 8.37394 25.3381 8.34529 25.3381C7.81654 25.3381 7.36733 24.9325 7.32258 24.3961C7.29972 24.1211 7.28826 23.8454 7.28826 23.5695C7.28822 20.946 8.30986 18.4795 10.165 16.6244ZM20.8023 8.03271C20.8023 7.04646 20.4183 6.11928 19.7209 5.42192C19.0235 4.72456 18.0963 4.34049 17.1101 4.34049C16.1239 4.34049 15.1966 4.72453 14.4993 5.42192C13.8019 6.11931 13.4179 7.04649 13.4179 8.03271C13.4179 9.01892 13.8019 9.94617 14.4993 10.6435C15.1966 11.3409 16.1238 11.725 17.1101 11.725C18.0963 11.725 19.0235 11.3409 19.7209 10.6435C20.4182 9.94617 20.8023 9.01896 20.8023 8.03271ZM6.48196 13.7778C6.02589 13.464 5.61261 13.0859 5.25857 12.6528C4.40368 11.607 3.93286 10.2859 3.93286 8.93295C3.93286 5.69013 6.57111 3.05192 9.814 3.05192C10.2396 3.05192 10.5845 3.39692 10.5845 3.82249C10.5845 4.24806 10.2396 4.59303 9.814 4.59303C7.42089 4.59303 5.47396 6.53992 5.47396 8.93295C5.47396 9.93138 5.82121 10.9061 6.45175 11.6774C7.07404 12.4386 7.94246 12.9708 8.89707 13.176C8.95068 13.1875 9.00292 13.2047 9.05289 13.2273C9.36232 13.2968 9.60889 13.5541 9.649 13.8868C9.69996 14.3093 9.39875 14.6932 8.97629 14.7441C4.73754 15.2554 1.54114 18.8658 1.54114 23.1423C1.54114 23.3797 1.55111 23.6198 1.57082 23.8563C1.60614 24.2803 1.29096 24.6528 0.866821 24.6881C0.845071 24.6899 0.823464 24.6908 0.802036 24.6908C0.405429 24.6908 0.0685 24.3864 0.035 23.9841C0.0117143 23.7041 3.57129e-05 23.4233 0 23.1423C3.57129e-05 18.8991 2.66282 15.211 6.48196 13.7778ZM28.9801 20.6944H25.0199V16.7342C25.0199 16.1709 24.5633 15.7143 24 15.7143C23.4367 15.7143 22.9801 16.1709 22.9801 16.7342V20.6944H19.0199C18.4566 20.6944 18 21.151 18 21.7143C18 22.2776 18.4566 22.7342 19.0199 22.7342H22.9801V26.6944C22.9801 27.2576 23.4367 27.7143 24 27.7143C24.5633 27.7143 25.0199 27.2577 25.0199 26.6944V22.7342H28.9801C29.5434 22.7342 30 22.2776 30 21.7143C30 21.151 29.5434 20.6944 28.9801 20.6944Z" fill="#333333"/>
</svg>
