<svg width="30" height="30" viewBox="0 0 30 30" fill="none" xmlns="http://www.w3.org/2000/svg">
<path fill-rule="evenodd" clip-rule="evenodd" d="M2.28571 1.14286C2.28571 0.511675 1.77404 0 1.14286 0C0.511675 0 0 0.511675 0 1.14286V8.85714C0 10.7507 1.53504 12.2857 3.42857 12.2857H26.5714C28.465 12.2857 30 10.7507 30 8.85714V1.14286C30 0.511675 29.4883 0 28.8571 0C28.226 0 27.7143 0.511675 27.7143 1.14286V8.85714C27.7143 9.48832 27.2026 10 26.5714 10H3.42857C2.79739 10 2.28571 9.48832 2.28571 8.85714V1.14286ZM2.28571 28.8571C2.28571 29.4883 1.77404 30 1.14286 30C0.511675 30 0 29.4883 0 28.8571V21.1429C0 19.2493 1.53504 17.7143 3.42857 17.7143H26.5714C28.465 17.7143 30 19.2493 30 21.1429V28.8571C30 29.4883 29.4883 30 28.8571 30C28.226 30 27.7143 29.4883 27.7143 28.8571V21.1429C27.7143 20.5117 27.2026 20 26.5714 20H3.42857C2.79739 20 2.28571 20.5117 2.28571 21.1429V28.8571Z" fill="#333333"/>
</svg>
