<svg width="30" height="30" viewBox="0 0 30 30" fill="none" xmlns="http://www.w3.org/2000/svg">
<path d="M15.6786 26.0094V27.7143H19.7857C20.4169 27.7143 20.9286 28.226 20.9286 28.8571C20.9286 29.4883 20.4169 30 19.7857 30H9.21429C8.58311 30 8.07143 29.4883 8.07143 28.8571C8.07143 28.226 8.58311 27.7143 9.21429 27.7143H13.3929V26.0168C9.06993 25.5876 5.4785 22.6718 4.06904 18.72L4.07118 18.7193C4.02395 18.592 3.99985 18.4572 4 18.3214C4 17.6903 4.51168 17.1786 5.14286 17.1786C5.66857 17.1786 6.11132 17.5335 6.24464 18.0168C7.48479 21.416 10.7486 23.7857 14.5 23.7857C18.2514 23.7857 21.5153 21.416 22.7554 18.0168C22.8886 17.5335 23.3314 17.1786 23.8571 17.1786C24.4883 17.1786 25 17.6903 25 18.3214C25 18.4614 24.9749 18.5954 24.9288 18.7193L24.931 18.72C23.5293 22.65 19.9696 25.5554 15.6786 26.0094V26.0094ZM14.5 2.28571C12.212 2.28571 10.3571 4.14054 10.3571 6.42857V15C10.3571 17.288 12.212 19.1429 14.5 19.1429C16.788 19.1429 18.6429 17.288 18.6429 15V6.42857C18.6429 4.14054 16.788 2.28571 14.5 2.28571ZM14.5 0C18.0504 0 20.9286 2.87818 20.9286 6.42857V15C20.9286 18.5504 18.0504 21.4286 14.5 21.4286C10.9496 21.4286 8.07143 18.5504 8.07143 15V6.42857C8.07143 2.87818 10.9496 0 14.5 0Z" fill="#333333"/>
</svg>
