<svg width="30" height="30" viewBox="0 0 30 30" fill="none" xmlns="http://www.w3.org/2000/svg">
<path d="M4.038 2.99837C1.977 2.70973 0 4.2898 0 6.45466V23.5466C0.0015 25.7114 1.977 27.2915 4.0365 27.0013C6.402 26.6691 10.215 26.2752 15 26.2752C18.6673 26.2649 22.331 26.5076 25.965 27.0013C28.023 27.29 30 25.7114 30 23.5466V6.45616C30 4.28827 28.023 2.70973 25.962 2.99837C23.598 3.33062 19.7865 3.72452 15 3.72452C10.2135 3.72452 6.402 3.33062 4.038 2.99837ZM2.25 6.45466C2.25 5.73905 2.9385 5.12116 3.7245 5.23241C6.174 5.5767 10.092 5.97959 15 5.97959C19.908 5.97959 23.826 5.5767 26.2755 5.23241C27.0615 5.12116 27.75 5.73905 27.75 6.45466V23.5466C27.75 24.2622 27.063 24.8786 26.2755 24.7688C26.1835 24.7558 26.0914 24.743 25.9994 24.7305C25.7141 24.6918 25.5 24.4493 25.5 24.1615V20.5134C25.5001 20.1148 25.3421 19.7325 25.0606 19.4503C24.9215 19.3108 24.7562 19.2001 24.5742 19.1245C24.3922 19.049 24.1971 19.0101 24 19.01H20.75C20.4344 19.01 20.1786 19.2658 20.1786 19.5814V23.5704C20.1786 23.8992 19.9018 24.1599 19.5735 24.1413C19.2608 24.1236 18.9534 24.1073 18.6231 24.0928C18.3155 24.0794 18.0714 23.8271 18.0714 23.5192V18.7957C18.0715 18.3972 17.9135 18.0149 17.6321 17.7327C17.4929 17.5931 17.3276 17.4824 17.1456 17.4068C16.9636 17.3313 16.7685 17.2924 16.5714 17.2923H13.4286C13.2315 17.2924 13.0364 17.3313 12.8544 17.4068C12.6724 17.4824 12.507 17.5931 12.3679 17.7327C12.0865 18.0149 11.9285 18.3972 11.9286 18.7957V23.5187C11.9286 23.8268 11.6842 24.0791 11.3764 24.0925C11.0544 24.1065 10.7474 24.1226 10.4271 24.1409C10.0986 24.1596 9.82143 23.8988 9.82143 23.5698V19.5814C9.82143 19.2658 9.56561 19.01 9.25 19.01H6C5.80293 19.0101 5.60781 19.049 5.4258 19.1245C5.24379 19.2001 5.07848 19.3108 4.93932 19.4503C4.65792 19.7325 4.49993 20.1148 4.5 20.5134V24.1645C4.5 24.3027 4.44988 24.4363 4.35894 24.5404C4.26799 24.6445 4.14238 24.7121 4.00539 24.7307L3.7245 24.7688C2.937 24.8786 2.25 24.2622 2.25 23.5466V6.45466ZM16.6059 15.6624C17.0273 15.2402 17.2638 14.668 17.2638 14.0714C17.2638 13.4749 17.0273 12.9027 16.6059 12.4804C16.3975 12.2716 16.15 12.1059 15.8775 11.9928C15.605 11.8797 15.3129 11.8215 15.0179 11.8214C14.7228 11.8215 14.4307 11.8797 14.1582 11.9928C13.8857 12.1059 13.6382 12.2716 13.4298 12.4804C13.0085 12.9027 12.7719 13.4749 12.772 14.0714C12.7719 14.668 13.0085 15.2402 13.4298 15.6624C13.6382 15.8713 13.8857 16.037 14.1582 16.1501C14.4307 16.2632 14.7228 16.3214 15.0179 16.3214C15.3129 16.3214 15.605 16.2632 15.8775 16.1501C16.15 16.037 16.3975 15.8713 16.6059 15.6624ZM9.11968 17.1624C8.9113 17.3713 8.66377 17.537 8.39127 17.6501C8.11877 17.7632 7.82664 17.8214 7.53161 17.8214C7.23657 17.8214 6.94444 17.7632 6.67193 17.6501C6.39942 17.537 6.15189 17.3713 5.9435 17.1624C5.52219 16.7402 5.28562 16.168 5.28571 15.5714C5.28562 14.9749 5.52219 14.4027 5.9435 13.9804C6.15189 13.7716 6.39942 13.6059 6.67193 13.4928C6.94444 13.3797 7.23657 13.3215 7.53161 13.3214C7.82664 13.3215 8.11877 13.3797 8.39127 13.4928C8.66377 13.6059 8.9113 13.7716 9.11968 13.9804C9.54099 14.4027 9.77756 14.9749 9.77746 15.5714C9.77756 16.168 9.54099 16.7402 9.11968 17.1624ZM24.0922 17.1624C23.8838 17.3713 23.6363 17.537 23.3638 17.6501C23.0913 17.7632 22.7991 17.8214 22.5041 17.8214C22.2091 17.8214 21.9169 17.7632 21.6444 17.6501C21.3719 17.537 21.1244 17.3713 20.916 17.1624C20.4947 16.7402 20.2582 16.168 20.2583 15.5714C20.2582 14.9749 20.4947 14.4027 20.916 13.9804C21.1244 13.7716 21.3719 13.6059 21.6444 13.4928C21.9169 13.3797 22.2091 13.3215 22.5041 13.3214C22.7991 13.3215 23.0913 13.3797 23.3638 13.4928C23.6363 13.6059 23.8838 13.7716 24.0922 13.9804C24.5135 14.4027 24.7501 14.9749 24.75 15.5714C24.7501 16.168 24.5135 16.7402 24.0922 17.1624Z" fill="#333333"/>
</svg>
