<svg width="30" height="30" viewBox="0 0 30 30" fill="none" xmlns="http://www.w3.org/2000/svg">
<g clip-path="url(#clip0_42_259)">
<path d="M28.8571 27.7143H21.6191C23.0347 26.665 24.168 25.312 24.9456 23.75H28.0714C28.7026 23.75 29.2143 23.2384 29.2143 22.6072C29.2143 21.976 28.7026 21.4643 28.0714 21.4643H18.7143C18.0831 21.4643 17.5714 21.976 17.5714 22.6072C17.5714 23.2384 18.0831 23.75 18.7143 23.75H22.3034C21.7089 24.6249 20.9579 25.3897 20.0762 26.0099C19.3358 26.5307 18.5298 26.9291 17.6817 27.1978C17.406 25.9806 16.3185 25.0715 15.0179 25.0715C13.7171 25.0715 12.6294 25.9808 12.3539 27.1983C11.0247 26.7781 9.80675 26.0427 8.79282 25.0287C7.13004 23.3659 6.21429 21.1551 6.21429 18.8036C6.21429 17.1626 6.66846 15.562 7.52775 14.1749C8.3245 12.8888 9.43785 11.8286 10.7614 11.0957C11.189 11.4378 11.7311 11.6429 12.3214 11.6429C12.478 11.6429 12.631 11.6278 12.7796 11.6003L17.1289 17.4859C17.5699 18.0828 18.217 18.4722 18.951 18.5824C19.0894 18.6033 19.2293 18.6137 19.3693 18.6138C19.9591 18.6138 20.5315 18.4263 21.0146 18.0693L21.1493 17.9698L21.7224 18.7453L24.2262 16.895L23.6532 16.1195L23.6734 16.1045C24.9055 15.1941 25.1671 13.451 24.2567 12.2189L18.029 3.79122C17.588 3.19436 16.9409 2.80501 16.207 2.69483C15.4729 2.58454 14.7402 2.7669 14.1434 3.20793L11.4846 5.17268C10.972 5.55143 10.6026 6.09965 10.4446 6.71626C10.3714 7.0013 10.3439 7.29616 10.3631 7.58983C10.0513 7.98236 9.85482 8.4704 9.82546 9.00326C8.08558 9.92725 6.62213 11.2965 5.58461 12.9712C4.50125 14.7201 3.92857 16.7369 3.92857 18.8036C3.92857 21.7656 5.08204 24.5504 7.17654 26.6449C7.56237 27.0309 7.97578 27.3883 8.4135 27.7143H1.14286C0.511678 27.7143 0 28.226 0 28.8572C0 29.4884 0.511678 30 1.14286 30H28.8571C29.4883 30 30 29.4884 30 28.8572C30 28.226 29.4883 27.7143 28.8571 27.7143ZM10.9643 9.1429C10.9643 8.58365 11.3044 8.10243 11.7885 7.8949L11.9308 7.84329C12.0575 7.80512 12.1891 7.78574 12.3214 7.78576C13.0697 7.78576 13.6786 8.39458 13.6786 9.1429C13.6786 9.89122 13.0697 10.5 12.3214 10.5C11.5731 10.5 10.9643 9.89122 10.9643 9.1429ZM15.5018 5.04618C15.6446 4.94065 15.7924 4.94393 15.8677 4.95518C15.9431 4.96651 16.0853 5.00679 16.1908 5.14961L22.4185 13.5773C22.5799 13.7958 22.5335 14.1048 22.315 14.2663L19.6562 16.231C19.5135 16.3365 19.3658 16.3334 19.2903 16.322C19.215 16.3107 19.0727 16.2704 18.9672 16.1275L14.587 10.2C14.7417 9.86914 14.8218 9.50822 14.8214 9.1429C14.8214 8.05268 14.1233 7.12601 13.15 6.78411L15.5018 5.04618ZM9.64375 5.27851C9.888 5.27864 10.1258 5.20018 10.322 5.05472L14.372 2.06204C14.8796 1.68693 14.987 0.971327 14.6119 0.463719C14.2368 -0.0438878 13.5212 -0.151316 13.0136 0.223791L8.96364 3.21647C8.45604 3.59158 8.34861 4.30718 8.72371 4.81479C8.94786 5.11811 9.2935 5.27851 9.64375 5.27851Z" fill="#333333"/>
</g>
<defs>
<clipPath id="clip0_42_259">
<rect width="30" height="30" fill="white"/>
</clipPath>
</defs>
</svg>
