<svg width="30" height="30" viewBox="0 0 30 30" fill="none" xmlns="http://www.w3.org/2000/svg">
<g clip-path="url(#clip0_42_117)">
<path d="M8.32848 24.2022C8.32848 24.8156 8.10309 25.3393 7.65232 25.7733C7.20155 26.2074 6.65771 26.4244 6.02078 26.4244C5.39617 26.4244 4.8554 26.2044 4.39848 25.7644C3.94155 25.3244 3.71309 24.8037 3.71309 24.2022C3.71309 23.5889 3.93848 23.0652 4.38925 22.6311C4.84002 22.197 5.38386 21.98 6.02078 21.98C6.65771 21.98 7.20155 22.197 7.65232 22.6311C8.10309 23.0652 8.32848 23.5889 8.32848 24.2022ZM17.3077 27.7778C17.3077 28.3911 17.0823 28.9148 16.6316 29.3489C16.1808 29.783 15.6369 30 15 30C14.3631 30 13.8192 29.783 13.3685 29.3489C12.9177 28.9148 12.6923 28.3911 12.6923 27.7778C12.6923 27.1644 12.9177 26.6407 13.3685 26.2067C13.8192 25.7726 14.3631 25.5556 15 25.5556C15.6369 25.5556 16.1808 25.7726 16.6316 26.2067C17.0823 26.6407 17.3077 27.1644 17.3077 27.7778ZM4.6154 15.5556C4.6154 16.1689 4.39002 16.6926 3.93925 17.1267C3.48848 17.5607 2.94463 17.7778 2.30771 17.7778C1.67078 17.7778 1.12694 17.5607 0.676169 17.1267C0.2254 16.6926 1.52588e-05 16.1689 1.52588e-05 15.5556C1.52588e-05 14.9422 0.2254 14.4185 0.676169 13.9844C1.12694 13.5504 1.67078 13.3333 2.30771 13.3333C2.94463 13.3333 3.48848 13.5504 3.93925 13.9844C4.39002 14.4185 4.6154 14.9422 4.6154 15.5556ZM26.2869 24.2022C26.2869 24.8037 26.0585 25.3244 25.6016 25.7644C25.1446 26.2044 24.6039 26.4244 23.9792 26.4244C23.3423 26.4244 22.7985 26.2074 22.3477 25.7733C21.8969 25.3393 21.6716 24.8156 21.6716 24.2022C21.6716 23.5889 21.8969 23.0652 22.3477 22.6311C22.7985 22.197 23.3423 21.98 23.9792 21.98C24.6162 21.98 25.16 22.197 25.6108 22.6311C26.0616 23.0652 26.2869 23.5889 26.2869 24.2022ZM8.9054 6.90889C8.9054 7.67334 8.62309 8.32741 8.05848 8.87111C7.49386 9.41482 6.81463 9.68667 6.02078 9.68667C5.22694 9.68667 4.54771 9.41482 3.98309 8.87111C3.41848 8.32741 3.13617 7.67334 3.13617 6.90889C3.13617 6.14445 3.41848 5.49037 3.98309 4.94667C4.54771 4.40297 5.22694 4.13112 6.02078 4.13112C6.81463 4.13112 7.49386 4.40297 8.05848 4.94667C8.62309 5.49037 8.9054 6.14445 8.9054 6.90889ZM30 15.5556C30 16.1689 29.7746 16.6926 29.3239 17.1267C28.8731 17.5607 28.3292 17.7778 27.6923 17.7778C27.0554 17.7778 26.5116 17.5607 26.0608 17.1267C25.61 16.6926 25.3846 16.1689 25.3846 15.5556C25.3846 14.9422 25.61 14.4185 26.0608 13.9844C26.5116 13.5504 27.0554 13.3333 27.6923 13.3333C28.3292 13.3333 28.8731 13.5504 29.3239 13.9844C29.7746 14.4185 30 14.9422 30 15.5556ZM18.4616 3.33334C18.4616 4.25926 18.1246 5.04593 17.4508 5.69334C16.7769 6.34074 15.96 6.66519 15 6.66667C14.04 6.66815 13.2231 6.34371 12.5492 5.69334C11.8754 5.04297 11.5385 4.2563 11.5385 3.33334C11.5385 2.41037 11.8754 1.62371 12.5492 0.973338C13.2231 0.322968 14.04 -0.00147641 15 5.05039e-06C15.96 0.00148651 16.7769 0.325931 17.4508 0.973338C18.1246 1.62075 18.4616 2.40741 18.4616 3.33334ZM28.0177 6.90889C28.0177 7.98593 27.6208 8.90297 26.8269 9.66C26.0331 10.417 25.0839 10.7963 23.9792 10.7978C22.8608 10.7978 21.9085 10.4185 21.1223 9.66C20.3362 8.90149 19.9423 7.98445 19.9408 6.90889C19.9408 5.84371 20.3346 4.92963 21.1223 4.16667C21.91 3.40371 22.8623 3.02149 23.9792 3.02C25.0854 3.02 26.0346 3.40223 26.8269 4.16667C27.6192 4.93112 28.0162 5.84519 28.0177 6.90889Z" fill="#333333"/>
</g>
<defs>
<clipPath id="clip0_42_117">
<rect width="30" height="30" fill="white"/>
</clipPath>
</defs>
</svg>
