<svg width="30" height="30" viewBox="0 0 30 30" fill="none" xmlns="http://www.w3.org/2000/svg">
<g clip-path="url(#clip0_42_148)">
<path d="M25.7143 0C28.0812 0 30 1.91879 30 4.28571V30L15 22.8571L0 30V4.28571C0 1.91879 1.91879 0 4.28571 0H25.7143ZM25.7143 2.28571H4.28571C3.18114 2.28571 2.28571 3.18114 2.28571 4.28571V26.0613L13.866 20.8726C14.2113 20.6752 14.6022 20.5714 15 20.5714C15.3978 20.5714 15.7887 20.6752 16.134 20.8726L27.7143 26.0613V4.28571C27.7143 3.18114 26.8189 2.28571 25.7143 2.28571ZM14.9862 5C15.3431 5 15.6956 5.21793 15.9785 5.6135L15.9888 5.62868C16.3806 6.22557 16.7726 6.82239 17.1643 7.41925L17.7517 8.31461L20.4595 9.04939C20.4662 9.05118 20.4726 9.05318 20.4792 9.05561C20.9779 9.23003 21.284 9.4965 21.3891 9.84754C21.4903 10.1854 21.3966 10.5692 21.1107 10.988L21.0974 11.0073L19.1769 13.5899L19.2602 15.0454C19.2877 15.5264 19.3151 16.0076 19.3424 16.4894C19.3431 16.5009 19.3431 16.5124 19.3427 16.524C19.2964 17.5755 18.7544 17.7951 18.3837 17.8206L18.36 17.822L18.3369 17.8229L18.3142 17.8233L18.3032 17.8234C18.1422 17.8234 17.9621 17.7916 17.7675 17.729L16.7742 17.3602L16.1152 17.1154L15.458 16.8708L14.8017 16.6262L12.1942 17.6876C11.8724 17.8046 11.6339 17.8571 11.4328 17.8571C11.1704 17.8571 10.961 17.7678 10.8104 17.5915C10.6116 17.3589 10.5368 16.9942 10.5818 16.4768C10.6132 15.3961 10.6439 14.3154 10.6742 13.2358C10.0839 12.4871 9.4932 11.7387 8.90207 10.9907C8.89365 10.98 8.88593 10.9688 8.87896 10.9571C8.58832 10.4757 8.50489 10.0745 8.62361 9.73039C8.735 9.40789 9.01839 9.16854 9.46614 9.01861L9.48725 9.01168L10.4747 8.71132C10.9252 8.57432 11.3755 8.43729 11.8258 8.3005L12.5011 8.09557L14.0092 5.64586C14.1216 5.46954 14.238 5.33929 14.3529 5.24389L14.3751 5.22586C14.4712 5.14954 14.566 5.09729 14.6561 5.06239L14.6769 5.05464C14.6871 5.05093 14.6974 5.04743 14.7076 5.04414L14.7278 5.03786L14.7478 5.03214L14.7677 5.02696L14.7873 5.02229L14.797 5.02014L14.8163 5.01621L14.8354 5.01275L14.8448 5.01121L14.8635 5.00843L14.8727 5.00721L14.891 5.00507L14.9089 5.00332L14.9266 5.00196L14.944 5.001L14.9612 5.00036L14.9862 5ZM15.0191 7.27536L13.6202 9.54771L10.9736 10.3514L10.6577 10.4475L11.8843 12.0017L12.4053 12.6625L12.3435 14.8536L12.3167 15.7869L14.7746 14.7865L16.6605 15.4892L17.5881 15.8339L17.4655 13.6905L17.4289 13.0676L19.325 10.5179L16.6748 9.79871L15.0191 7.27536Z" fill="#333333"/>
</g>
<defs>
<clipPath id="clip0_42_148">
<rect width="30" height="30" fill="white"/>
</clipPath>
</defs>
</svg>
