<svg width="30" height="30" viewBox="0 0 30 30" fill="none" xmlns="http://www.w3.org/2000/svg">
<g clip-path="url(#clip0_42_260)">
<path d="M10.8393 10.7143C14.3768 10.7143 17.2443 13.5844 17.2443 17.1249C17.2443 20.4838 14.6633 23.2389 11.378 23.5128C14.0996 23.6439 16.6395 24.767 18.5796 26.7087C19.5445 27.6744 20.3071 28.7886 20.846 30H18.2672C17.9059 29.399 17.4686 28.8381 16.9603 28.3294C15.3253 26.693 13.1515 25.7918 10.8393 25.7918C8.52712 25.7918 6.35331 26.693 4.71827 28.3293C4.20999 28.8381 3.77267 29.399 3.41135 30L0.832569 29.9999C1.3715 28.7886 2.1341 27.6744 3.09899 26.7087C5.03899 24.767 7.57898 23.6439 10.3005 23.5128C7.01531 23.2389 4.43424 20.4838 4.43424 17.125C4.43428 13.5844 7.30188 10.7143 10.8393 10.7143H10.8393ZM18.9677 11.5714C22.5895 11.5714 25.536 14.5149 25.536 18.133C25.536 19.6425 25.0102 21.1164 24.0554 22.2832C23.66 22.7664 23.1984 23.1883 22.6891 23.5385C25.6937 24.6649 28.0575 27.0396 29.1924 29.9999H27.3241C25.982 27.1259 23.2301 25.0174 19.9033 24.6166C19.4315 24.5597 19.0951 24.1315 19.152 23.6601C19.1968 23.2889 19.4721 23.0019 19.8177 22.9243C19.8735 22.8991 19.9319 22.8798 19.9918 22.8669C21.0579 22.6381 22.0278 22.0443 22.7228 21.195C23.4271 20.3344 23.8149 19.247 23.8149 18.133C23.8149 15.463 21.6404 13.2909 18.9677 13.2909C18.4924 13.2909 18.1071 12.906 18.1071 12.4311C18.1071 11.9563 18.4924 11.5714 18.9677 11.5714ZM10.8393 13.0063C9.74019 13.0063 8.70684 13.4348 7.92959 14.2126C7.15238 14.9905 6.72434 16.0248 6.72434 17.1249C6.72434 18.225 7.15241 19.2593 7.92959 20.0372C8.7068 20.8151 9.74016 21.2435 10.8393 21.2435C11.9385 21.2435 12.9718 20.8151 13.749 20.0372C14.5262 19.2593 14.9543 18.225 14.9543 17.1249C14.9543 16.0248 14.5262 14.9905 13.749 14.2126C12.9718 13.4347 11.9384 13.0063 10.8393 13.0063ZM25.5578 3.57627e-05C27.9866 3.57627e-05 29.9601 1.94932 29.9993 4.36874L29.9999 4.4422V15C29.9999 15.6312 29.4883 16.1429 28.8571 16.1429C28.2322 16.1429 27.7245 15.6414 27.7144 15.0189L27.7142 15V4.4422C27.7142 3.26314 26.7679 2.30507 25.5934 2.28603L25.5578 2.28574H4.44217C3.2631 2.28574 2.30503 3.23203 2.28599 4.40653L2.28571 4.4422V15C2.28571 15.6312 1.77403 16.1429 1.14285 16.1429C0.517999 16.1429 0.01025 15.6414 0 15.0189V4.44217C0 2.01335 1.94928 0.0398214 4.3687 0.0006072L4.44217 0H25.5578V3.57627e-05ZM11.641 3.31564L18.0175 5.63645C18.9442 5.97377 19.3673 7.14873 18.9626 8.26084C18.5619 9.3618 17.5 9.9884 16.5795 9.67355L16.5517 9.66373L10.1752 7.34288C9.06312 6.93809 8.48973 5.70845 8.89448 4.59635C9.29926 3.48424 10.5289 2.91085 11.641 3.31564ZM14.2706 5.48892L13.5865 7.36827L16.9426 8.58977L16.9556 8.59437C17.3808 8.73984 17.8707 8.45473 18.062 7.95045L18.0677 7.93509L18.0732 7.91952C18.2508 7.41034 18.0587 6.87702 17.6394 6.7152L17.6266 6.71041L14.2705 5.48892H14.2706Z" fill="#333333"/>
</g>
<defs>
<clipPath id="clip0_42_260">
<rect width="30" height="30" fill="white"/>
</clipPath>
</defs>
</svg>
