<svg width="30" height="30" viewBox="0 0 30 30" fill="none" xmlns="http://www.w3.org/2000/svg">
<g clip-path="url(#clip0_42_283)">
<path d="M15.8572 14.5H23.5C24.1312 14.5 24.6429 15.0117 24.6429 15.6429C24.6429 16.274 24.1312 16.7857 23.5 16.7857H14.7143C14.0831 16.7857 13.5714 16.274 13.5714 15.6429V6.85716C13.5714 6.22598 14.0831 5.7143 14.7143 5.7143C15.3455 5.7143 15.8572 6.22598 15.8572 6.85716V14.5ZM15 30C6.91298 30 0.35716 23.4442 0.35716 15.3572C0.35716 7.27012 6.91298 0.714303 15 0.714303C23.087 0.714303 29.6429 7.27012 29.6429 15.3572C29.6429 23.4442 23.087 30 15 30ZM15 27.7143C21.8246 27.7143 27.3571 22.1818 27.3571 15.3572C27.3571 8.53251 21.8246 3.00002 15 3.00002C8.17537 3.00002 2.64287 8.53251 2.64287 15.3572C2.64287 22.1818 8.17537 27.7143 15 27.7143ZM28.9583 6.07144L23.9286 1.0417C25.3175 -0.347232 27.5694 -0.347232 28.9583 1.0417C30.3473 2.43062 30.3473 4.68252 28.9583 6.07144ZM1.0417 6.07144C-0.347232 4.68252 -0.347232 2.43062 1.0417 1.0417C2.43062 -0.347232 4.68252 -0.347232 6.07144 1.0417L1.0417 6.07144Z" fill="#333333"/>
</g>
<defs>
<clipPath id="clip0_42_283">
<rect width="30" height="30" fill="white"/>
</clipPath>
</defs>
</svg>
