<svg width="30" height="30" viewBox="0 0 30 30" fill="none" xmlns="http://www.w3.org/2000/svg">
<path d="M3.60933 11.2187H1.99216L1.96872 5.57565H0V4.42831H0.234372C0.867176 4.42831 1.59373 4.28782 1.92185 4.03026C2.21035 3.81889 2.23053 3.54445 2.25439 3.21987C2.25961 3.14893 2.265 3.07559 2.27341 3H3.60933V11.2187Z" fill="#333333"/>
<path d="M29.2968 25.2134C29.3896 25.215 29.4818 25.1975 29.5675 25.162C29.6533 25.1266 29.7309 25.0739 29.7955 25.0074C29.8616 24.9429 29.9138 24.8656 29.949 24.7802C29.9841 24.6949 30.0014 24.6032 29.9999 24.511V22.6378C30.0012 22.5453 29.9836 22.4536 29.9481 22.3683C29.9126 22.2829 29.8601 22.2057 29.7937 22.1414C29.7293 22.075 29.652 22.0225 29.5665 21.9871C29.4811 21.9516 29.3893 21.934 29.2968 21.9353H8.20331C8.1105 21.9338 8.01835 21.9512 7.93256 21.9867C7.84678 22.0221 7.76918 22.0748 7.70457 22.1414C7.6384 22.2058 7.58612 22.2831 7.55098 22.3684C7.51583 22.4538 7.49855 22.5455 7.5002 22.6378V24.511C7.5002 24.7058 7.5677 24.8725 7.70645 25.0092C7.84144 25.146 8.00644 25.2153 8.20331 25.2153H29.2968V25.2134Z" fill="#333333"/>
<path d="M29.2968 8.85414C29.3896 8.85569 29.4818 8.83821 29.5675 8.80277C29.6533 8.76733 29.7309 8.71468 29.7955 8.64809C29.8616 8.5836 29.9138 8.50631 29.949 8.42095C29.9841 8.33559 30.0014 8.24397 29.9999 8.15169V6.27849C30.0012 6.18607 29.9836 6.09437 29.9481 6.009C29.9126 5.92364 29.8601 5.84642 29.7937 5.78209C29.7293 5.71573 29.652 5.66322 29.5665 5.62779C29.4811 5.59235 29.3893 5.57474 29.2968 5.57604H8.20331C8.1105 5.57449 8.01835 5.59197 7.93256 5.62741C7.84678 5.66285 7.76918 5.7155 7.70457 5.78209C7.63849 5.84658 7.58627 5.92387 7.55113 6.00923C7.51599 6.09458 7.49866 6.18621 7.5002 6.27849V8.15169C7.5002 8.3465 7.5677 8.51322 7.70645 8.64996C7.84144 8.7867 8.00644 8.85601 8.20331 8.85601H29.2968V8.85414Z" fill="#333333"/>
<path d="M1.78123 25.9935L3.77339 24.5184C4.45307 24.0501 4.89837 23.6052 5.10931 23.2071C5.32024 22.8091 5.43743 22.3642 5.43743 21.9193C5.43743 21.17 5.17962 20.5612 4.68744 20.0929C4.17182 19.6246 3.51558 19.3905 2.69528 19.3905C1.89841 19.3905 1.26561 19.6246 0.796865 20.0929C0.328121 20.5612 0.0937491 21.2637 0.0937491 22.2237H1.61717C1.61717 21.6617 1.71092 21.2637 1.92185 21.053C2.13278 20.8422 2.39059 20.7251 2.74215 20.7251C3.09371 20.7251 3.37496 20.8422 3.56245 21.053C3.74995 21.2637 3.86714 21.5447 3.86714 21.8725C3.86714 22.2003 3.77339 22.5047 3.58589 22.7622C3.39839 23.0198 2.88278 23.4647 2.0156 24.0969C1.88638 24.1927 1.749 24.2922 1.60888 24.3936C0.961142 24.8627 0.254663 25.3744 0.0234373 25.7594L0 27.375H5.46087V25.9701L1.78123 25.9935Z" fill="#333333"/>
</svg>
