<svg width="30" height="30" viewBox="0 0 30 30" fill="none" xmlns="http://www.w3.org/2000/svg">
<g clip-path="url(#clip0_42_250)">
<path fill-rule="evenodd" clip-rule="evenodd" d="M19.801 0.948151C21.276 1.57385 22.6101 2.49 23.7237 3.64204C26.0019 5.99823 27.2754 9.14745 27.2754 12.4249C27.2754 15.7024 26.0019 18.8516 23.7237 21.2078L15.1377 30L6.55167 21.2078C4.2735 18.8516 3 15.7024 3 12.4249C3 9.14745 4.2735 5.99823 6.55167 3.64204C7.66529 2.49 8.99936 1.57385 10.4744 0.948151C11.9495 0.322451 13.5354 0 15.1377 0C16.74 0 18.3259 0.322451 19.801 0.948151ZM15.1377 27.4692L22.4302 19.9705C24.3669 17.9733 25.4499 15.3006 25.4499 12.5186C25.4499 9.73666 24.3669 7.06397 22.4302 5.06679C21.4831 4.09058 20.3495 3.31447 19.0969 2.78447C17.8442 2.25447 16.4979 1.98138 15.1377 1.98138C13.7775 1.98138 12.4312 2.25447 11.1785 2.78447C9.92585 3.31447 8.79235 4.09058 7.8452 5.06679C5.90854 7.06397 4.82548 9.73666 4.82548 12.5186C4.82548 15.3006 5.90854 17.9733 7.8452 19.9705L15.1377 27.4692ZM17.1095 10.0867C16.5538 9.62982 15.857 9.3796 15.1377 9.37855C14.7266 9.37795 14.3194 9.45883 13.9397 9.61649C13.56 9.77416 13.2153 10.0055 12.9256 10.2971C12.4186 10.8074 12.104 11.4776 12.0354 12.1937C11.9668 12.9097 12.1484 13.6275 12.5492 14.2248C12.9501 14.822 13.5455 15.262 14.2342 15.4698C14.9229 15.6776 15.6623 15.6404 16.3266 15.3645C16.991 15.0887 17.5392 14.5912 17.8781 13.9567C18.217 13.3221 18.3256 12.5898 18.1855 11.8843C18.0454 11.1787 17.6651 10.5435 17.1095 10.0867ZM11.9643 8.64468C12.8583 7.9088 13.9798 7.50563 15.1377 7.50388C15.7957 7.50082 16.4477 7.62851 17.056 7.87952C17.6642 8.13054 18.2165 8.49989 18.6808 8.96612C19.5005 9.78403 20.0112 10.8608 20.126 12.013C20.2408 13.1653 19.9526 14.3216 19.3104 15.2852C18.6682 16.2487 17.7119 16.9598 16.6042 17.2973C15.4966 17.6348 14.3062 17.5778 13.2358 17.1361C12.1654 16.6944 11.2813 15.8952 10.7341 14.8747C10.1869 13.8543 10.0104 12.6756 10.2347 11.5397C10.459 10.4037 11.0702 9.38057 11.9643 8.64468Z" fill="#333333"/>
</g>
<defs>
<clipPath id="clip0_42_250">
<rect width="30" height="30" fill="white"/>
</clipPath>
</defs>
</svg>
