<svg width="30" height="30" viewBox="0 0 30 30" fill="none" xmlns="http://www.w3.org/2000/svg">
<g clip-path="url(#clip0_42_203)">
<path d="M15.8234 29.8462L15.6178 27.5698C12.9087 27.8144 9.8695 27.7459 7.32575 27.3838C6.06593 27.2045 4.97589 26.9597 4.13704 26.6696C3.74496 26.5341 3.42075 26.393 3.17393 26.2544C3.06979 26.1959 2.98429 26.1406 2.91814 26.0905C2.87286 26.0562 2.84411 26.0303 2.83093 26.0158C2.49386 25.6439 2.27911 25.0005 2.28586 24.192C2.29386 23.2356 2.61132 22.1841 3.22218 21.2175C3.91579 20.1198 4.95018 19.1807 6.29614 18.4983C7.86864 17.701 9.82711 17.2699 12.1584 17.2861C13.0401 17.2923 13.8698 17.3617 14.647 17.4908L15.0214 15.236C14.1414 15.0899 13.1932 15.0076 12.1743 15.0005C0.885215 14.9218 -1.88268 24.2184 1.13725 27.5507C2.95761 29.5594 10.0651 30.3662 15.8233 29.8462H15.8234ZM15.6178 27.5698C12.9087 27.8144 9.8695 27.7459 7.32575 27.3838C6.06593 27.2045 4.97589 26.9597 4.13704 26.6696C3.74496 26.5341 3.42075 26.393 3.17393 26.2544C3.06979 26.1959 2.98429 26.1406 2.91814 26.0905C2.87286 26.0562 2.84411 26.0303 2.83093 26.0158C2.49386 25.6439 2.27911 25.0005 2.28586 24.192C2.29386 23.2356 2.61132 22.1841 3.22218 21.2175C3.91579 20.1198 4.95018 19.1807 6.29614 18.4983C7.86864 17.701 9.82711 17.2699 12.1584 17.2861C13.0401 17.2923 13.8698 17.3617 14.647 17.4908L15.0214 15.236C14.1414 15.0899 13.1932 15.0076 12.1743 15.0005C0.885215 14.9218 -1.88268 24.2184 1.13725 27.5507C2.95761 29.5594 10.0651 30.3662 15.8233 29.8462L15.6178 27.5698ZM14.7143 17.5C15.3455 17.5 15.8571 16.9883 15.8571 16.3571C15.8571 15.726 15.3455 15.2143 14.7143 15.2143C14.0831 15.2143 13.5714 15.726 13.5714 16.3571C13.5714 16.9883 14.0831 17.5 14.7143 17.5ZM21.3571 23.6429H16.1429C15.5117 23.6429 15 23.1312 15 22.5C15 21.8688 15.5117 21.3571 16.1429 21.3571H21.3571V16.1429C21.3571 15.5117 21.8688 15 22.5 15C23.1312 15 23.6429 15.5117 23.6429 16.1429V21.3571H28.8571C29.4883 21.3571 30 21.8688 30 22.5C30 23.1312 29.4883 23.6429 28.8571 23.6429H23.6429V28.8571C23.6429 29.4883 23.1312 30 22.5 30C21.8688 30 21.3571 29.4883 21.3571 28.8571V23.6429ZM15.6429 29.8571C15.0117 29.8571 14.5 29.3455 14.5 28.7143C14.5 28.0831 15.0117 27.5714 15.6429 27.5714C16.274 27.5714 16.7857 28.0831 16.7857 28.7143C16.7857 29.3455 16.274 29.8571 15.6429 29.8571ZM12.1429 14.5C8.13879 14.5 4.89286 11.2541 4.89286 7.25C4.89286 3.24593 8.13879 0 12.1429 0C16.1469 0 19.3929 3.24593 19.3929 7.25C19.3929 11.2541 16.1469 14.5 12.1429 14.5ZM12.1429 12.2143C14.8846 12.2143 17.1071 9.99171 17.1071 7.25C17.1071 4.50829 14.8846 2.28571 12.1429 2.28571C9.40114 2.28571 7.17857 4.50829 7.17857 7.25C7.17857 9.99171 9.40114 12.2143 12.1429 12.2143Z" fill="#333333"/>
</g>
<defs>
<clipPath id="clip0_42_203">
<rect width="30" height="30" fill="white"/>
</clipPath>
</defs>
</svg>
