<svg width="30" height="30" viewBox="0 0 30 30" fill="none" xmlns="http://www.w3.org/2000/svg">
<g clip-path="url(#clip0_42_234)">
<path fill-rule="evenodd" clip-rule="evenodd" d="M18.7411 18.8147C18.8836 18.886 18.9549 18.886 19.0974 18.886V18.886C19.3112 18.886 19.525 18.8147 19.7387 18.601L27.6485 10.5487C28.0048 10.1924 28.0048 9.69359 27.6485 9.33729L19.5962 1.28503C19.3824 1 18.9549 0.928734 18.6699 1.07127C18.3848 1.21377 18.171 1.49884 18.171 1.8551V5.63183C15.1782 5.7031 5.62944 6.84323 4.27551 17.5321C4.27551 17.8884 4.41804 18.2447 4.77434 18.3872C5.13064 18.5297 5.48694 18.4584 5.77198 18.1734C8.19477 15.6794 12.3991 14.3254 18.2423 14.3254V18.0309C18.2423 18.3872 18.4561 18.6723 18.7411 18.8147ZM19.9525 15.9644V13.5416C19.9525 12.9715 19.5962 12.6152 19.0974 12.6865C13.6817 12.6152 9.40617 13.5416 6.48457 15.4656C8.89205 7.07383 17.9392 7.31364 18.949 7.34041C18.9854 7.34138 19.0113 7.34206 19.0261 7.34206C19.2399 7.34206 19.525 7.27079 19.6675 7.12826C19.8813 6.91449 19.9525 6.70073 19.9525 6.48696V3.9929L25.9383 9.97866L19.9525 15.9644ZM2.85033 28.0784H27.1496H27.1497C28.7173 28.0784 29.9287 26.7957 30 25.2993V14.9668C30 14.3967 29.5012 13.8979 28.9311 13.8979C28.3611 13.8979 27.8622 14.3967 27.8622 14.9668V25.2993C27.8622 25.7269 27.5059 26.0119 27.1496 26.0119H2.85033C2.4228 26.0119 2.13773 25.6556 2.13773 25.2993V14.9668C2.13773 14.3967 1.63893 13.8979 1.06883 13.8979C0.498799 13.8979 0 14.3967 0 14.9668V25.2281C0 26.7957 1.28267 28.0784 2.85033 28.0784Z" fill="#333333"/>
</g>
<defs>
<clipPath id="clip0_42_234">
<rect width="30" height="30" fill="white"/>
</clipPath>
</defs>
</svg>
