<svg width="30" height="30" viewBox="0 0 30 30" fill="none" xmlns="http://www.w3.org/2000/svg">
<g clip-path="url(#clip0_42_239)">
<path d="M2.28844 2.28571H23.4207V11.0572H25.7092V2.283C25.7092 1.02214 24.686 0 23.4239 0H2.28522C1.02315 0 0 1.02214 0 2.283V27.717C0 28.9779 1.02315 30 2.28526 30H12.8979V27.7143H2.28844V2.28571ZM23.4207 2.28571V11.0572H25.7092V2.283C25.7092 1.02214 24.686 0 23.4239 0H2.28522C1.02315 0 0 1.02214 0 2.283V27.717C0 28.9779 1.02315 30 2.28526 30H12.8979V27.7143H2.28844V2.28571H23.4207ZM26.7769 25.1645L29.6649 28.049C30.1117 28.4953 30.1117 29.219 29.6649 29.6652C29.218 30.1116 28.4935 30.1116 28.0467 29.6652L25.1587 26.7807C23.8783 27.7273 22.294 28.287 20.5787 28.287C16.3227 28.287 12.8725 24.8409 12.8725 20.5899C12.8725 16.3389 16.3227 12.8929 20.5787 12.8929C24.8348 12.8929 28.285 16.3389 28.285 20.5899C28.285 22.3031 27.7246 23.8856 26.7769 25.1645ZM2.28844 2.28571H2.28526C2.28712 2.28571 2.28844 2.28439 2.28844 2.283V2.28571ZM24.565 12.1786C23.933 12.1786 23.4207 11.6669 23.4207 11.0357C23.4207 10.4045 23.933 9.89286 24.565 9.89286C25.1969 9.89286 25.7092 10.4045 25.7092 11.0357C25.7092 11.6669 25.1969 12.1786 24.565 12.1786ZM12.8725 30C12.2405 30 11.7283 29.4883 11.7283 28.8571C11.7283 28.226 12.2405 27.7143 12.8725 27.7143C13.5044 27.7143 14.0167 28.226 14.0167 28.8571C14.0167 29.4883 13.5044 30 12.8725 30ZM5.89988 7.936C5.26795 7.936 4.75566 7.42432 4.75566 6.79314C4.75566 6.16196 5.26795 5.65029 5.89988 5.65029H19.8808C20.5128 5.65029 21.025 6.16196 21.025 6.79314C21.025 7.42432 20.5128 7.936 19.8808 7.936H5.89988ZM5.89988 15.936C5.26795 15.936 4.75566 15.4243 4.75566 14.7931C4.75566 14.162 5.26795 13.6503 5.89988 13.6503H10.4052C11.0372 13.6503 11.5495 14.162 11.5495 14.7931C11.5495 15.4243 11.0372 15.936 10.4052 15.936H5.89988ZM5.89988 23.9715C5.26795 23.9715 4.75566 23.4598 4.75566 22.8286C4.75566 22.1974 5.26795 21.6858 5.89988 21.6858H10.3337C10.9657 21.6858 11.478 22.1974 11.478 22.8286C11.478 23.4598 10.9657 23.9715 10.3337 23.9715H5.89988ZM20.5787 26.0013C23.5709 26.0013 25.9965 23.5785 25.9965 20.5899C25.9965 17.6013 23.5709 15.1786 20.5787 15.1786C17.5865 15.1786 15.1609 17.6013 15.1609 20.5899C15.1609 23.5785 17.5865 26.0013 20.5787 26.0013Z" fill="#333333"/>
</g>
<defs>
<clipPath id="clip0_42_239">
<rect width="30" height="30" fill="white"/>
</clipPath>
</defs>
</svg>
