<svg width="30" height="30" viewBox="0 0 30 30" fill="none" xmlns="http://www.w3.org/2000/svg">
<path d="M29.6652 17.3222C30.1115 17.7685 30.1115 18.4921 29.6652 18.9384L25.1099 23.4937L29.6652 28.049C30.1115 28.4953 30.1115 29.2189 29.6652 29.6653C29.2189 30.1116 28.4953 30.1116 28.049 29.6653L23.4937 25.11L18.9383 29.6653C18.4921 30.1116 17.7684 30.1116 17.3221 29.6653C16.8758 29.2189 16.8758 28.4953 17.3221 28.049L21.8774 23.4937L17.3221 18.9384C16.8758 18.4921 16.8758 17.7685 17.3221 17.3222C17.7684 16.8759 18.4921 16.8759 18.9383 17.3222L23.4937 21.8775L28.049 17.3222C28.4953 16.8759 29.2189 16.8759 29.6652 17.3222V17.3222ZM11.0634 16.2857C12.3679 16.2857 13.6327 16.4421 14.8125 16.7503L14.8079 16.7682C15.1963 16.8496 15.4879 17.1942 15.4879 17.6071C15.4879 18.0805 15.1045 18.4642 14.6314 18.4642C14.496 18.4642 14.3681 18.4328 14.2543 18.3769C13.2615 18.1292 12.1871 17.9999 11.0634 17.9999C8.42348 17.9999 6.06189 18.7137 4.391 20.0016C2.68744 21.3147 1.74663 23.175 1.71338 25.5236C1.7042 26.1701 1.85995 26.5896 2.17184 26.9136C2.51087 27.2658 3.08783 27.5635 3.92383 27.7875C4.77043 28.0145 5.83525 28.1543 7.16999 28.2245L7.23377 28.2279L7.29738 28.2311L7.39266 28.2357L7.45613 28.2386C8.19691 28.2722 8.94512 28.2847 10.064 28.2853H10.2596C10.5419 28.2851 10.8473 28.2843 11.181 28.2829L11.3424 28.2823C13.0146 28.2756 13.8971 28.2642 14.733 28.2258L14.7927 28.223L14.8224 28.2216L14.882 28.2187C14.991 28.2132 15.1001 28.2073 15.2108 28.2008L15.211 28.2034C15.2785 28.1867 15.3477 28.1784 15.4171 28.1784C15.8902 28.1784 16.2736 28.5622 16.2736 29.0355C16.2736 29.5089 15.8902 29.8927 15.4171 29.8927C15.4017 29.8927 15.3864 29.8923 15.3712 29.8915L15.3728 29.9085C14.1507 29.9821 12.8463 29.9904 11.5352 29.9958L11.3037 29.9967L11.188 29.9972C5.61535 30.0199 -0.0631827 29.9972 0.000531213 25.4992C0.0854592 19.502 5.14843 16.2857 11.0634 16.2857ZM11.0714 4.6657e-05C17.0874 0.0160108 17.7697 4.02438 17.8471 7.27993H17.8473C17.8557 7.63789 17.8568 7.98671 17.857 8.32003V8.48242C17.857 11.8497 15.6371 16.2903 11.0714 16.2857C6.50563 16.281 4.28568 11.8496 4.28568 8.48242C4.28568 8.42421 4.28568 8.36549 4.28575 8.30628C4.2859 7.97557 4.28711 7.62946 4.2955 7.27418C4.37361 4.01341 5.05807 -0.0158104 11.0714 4.6657e-05ZM11.0604 8.13321C9.34133 8.13321 7.6483 8.304 6.00217 8.63874C6.03889 10.0115 6.52645 11.5044 7.34695 12.6191C8.26984 13.8729 9.51637 14.5601 11.0731 14.5617C12.6277 14.5633 13.8727 13.8776 14.7954 12.6231C15.6151 11.5087 16.1028 10.0156 16.1404 8.64321C14.4874 8.3055 12.787 8.13321 11.0604 8.13321ZM7.21574 2.93624C6.60967 3.58445 6.25528 4.54338 6.10153 5.87058C6.08567 6.00722 6.07221 6.13994 6.06074 6.27411L6.05717 6.31651C6.04175 6.50669 6.0302 6.69717 6.02253 6.88783C7.64938 6.5804 9.33433 6.4189 11.0604 6.4189C12.7942 6.4189 14.4866 6.58186 16.1203 6.89204C16.1125 6.6978 16.1006 6.50375 16.0846 6.31001L16.0811 6.26797L16.0793 6.24697L16.0755 6.20504C16.0716 6.16312 16.0676 6.12122 16.0634 6.07922L16.059 6.03712C16.0539 5.98797 16.0485 5.93854 16.0427 5.88858C15.8902 4.56316 15.5371 3.60588 14.9307 2.95599C14.1977 2.17028 12.9893 1.7195 11.0668 1.71432C9.1509 1.70932 7.94705 2.15407 7.2157 2.93624H7.21574ZM11.6428 2.64289V3.50003H12.4999V4.64287H11.6428V5.50001H10.4999V4.64287H9.64279V3.50003H10.4999V2.64289H11.6428Z" fill="#333333"/>
</svg>
