<svg width="30" height="30" viewBox="0 0 30 30" fill="none" xmlns="http://www.w3.org/2000/svg">
<path d="M12.8296 0C17.1842 0 20.7144 3.36939 20.7144 7.52568C20.7144 11.5343 17.4305 14.8105 13.2903 15.0382C14.671 15.086 16.0221 15.367 17.3125 15.8771C17.8979 16.1085 18.186 16.7735 17.956 17.3623C17.7259 17.9512 17.0647 18.2409 16.4794 18.0095C15.324 17.5528 14.1088 17.3212 12.8674 17.3212C10.0544 17.3212 7.40529 18.5104 5.40796 20.6695C3.38946 22.8515 2.27789 25.7583 2.27789 28.8544C2.27789 29.4871 1.76796 30 1.13896 30C0.509893 30 0 29.4871 0 28.8544C0 26.9986 0.336714 25.197 1.00082 23.4997C1.64396 21.8559 2.56568 20.3786 3.74032 19.1088C4.92039 17.8331 6.29664 16.8306 7.83082 16.1291C9.27986 15.4666 10.811 15.1008 12.389 15.0394C8.23939 14.8212 4.94475 11.5409 4.94475 7.52568C4.94479 3.36939 8.47496 0 12.8296 0H12.8296ZM22.4286 27.7143C23.0597 27.7143 23.5714 28.226 23.5714 28.8571C23.5714 29.4883 23.0597 30 22.4286 30H18.2857C17.6545 30 17.1429 29.4883 17.1429 28.8571C17.1429 28.226 17.6545 27.7143 18.2857 27.7143H22.4286ZM24.5714 23.5C25.2026 23.5 25.7143 24.0117 25.7143 24.6429C25.7143 25.274 25.2026 25.7857 24.5714 25.7857H18.2857C17.6545 25.7857 17.1429 25.274 17.1429 24.6429C17.1429 24.0117 17.6545 23.5 18.2857 23.5H24.5714ZM28.8571 19.2857C29.4883 19.2857 30 19.7974 30 20.4286C30 21.0597 29.4883 21.5714 28.8571 21.5714H18.2857C17.6545 21.5714 17.1429 21.0597 17.1429 20.4286C17.1429 19.7974 17.6545 19.2857 18.2857 19.2857H28.8571ZM12.8296 2.29118C9.73793 2.29118 7.22264 4.63939 7.22264 7.52568C7.22264 10.412 9.73793 12.7602 12.8296 12.7602C15.9213 12.7602 18.4366 10.412 18.4366 7.52568C18.4366 4.63936 15.9213 2.29118 12.8296 2.29118Z" fill="#333333"/>
</svg>
