<svg width="30" height="30" viewBox="0 0 30 30" fill="none" xmlns="http://www.w3.org/2000/svg">
<g clip-path="url(#clip0_42_292)">
<path fill-rule="evenodd" clip-rule="evenodd" d="M15.8231 29.843L15.8234 29.8462H15.8233C10.0651 30.3662 2.95761 29.5594 1.13725 27.5507C-1.88267 24.2184 0.885219 14.9218 12.1743 15.0005C13.1932 15.0076 14.1414 15.0899 15.0214 15.236L15.0182 15.2551C15.5019 15.3882 15.8571 15.8312 15.8571 16.3571C15.8571 16.9883 15.3455 17.5 14.7143 17.5C14.5952 17.5 14.4804 17.4818 14.3725 17.448C13.6753 17.3464 12.9371 17.2916 12.1584 17.2861C9.82711 17.2699 7.86865 17.701 6.29615 18.4983C4.95018 19.1807 3.91579 20.1198 3.22218 21.2175C2.61133 22.1841 2.29386 23.2356 2.28586 24.192C2.27911 25.0005 2.49386 25.6439 2.83093 26.0158C2.84411 26.0303 2.87286 26.0562 2.91815 26.0905C2.98429 26.1406 3.06979 26.1959 3.17393 26.2544C3.42075 26.393 3.74497 26.5341 4.13704 26.6696C4.9759 26.9597 6.06593 27.2045 7.32576 27.3838C9.83324 27.7407 12.8222 27.8124 15.5017 27.5801C15.528 27.5768 15.5546 27.5745 15.5814 27.5731C15.5935 27.572 15.6057 27.5709 15.6178 27.5698L15.618 27.5717L15.823 29.843C15.823 29.843 15.8231 29.843 15.8231 29.843ZM15.8231 29.843L15.618 27.5717C15.6262 27.5715 15.6345 27.5714 15.6429 27.5714C16.274 27.5714 16.7857 28.0831 16.7857 28.7143C16.7857 29.2842 16.3686 29.7566 15.8231 29.843ZM19.3929 7.25C19.3929 3.24593 16.1469 0 12.1429 0C8.13879 0 4.89286 3.24593 4.89286 7.25C4.89286 11.2541 8.13879 14.5 12.1429 14.5C16.1469 14.5 19.3929 11.2541 19.3929 7.25ZM7.17858 7.25C7.17858 4.50829 9.40115 2.28571 12.1429 2.28571C14.8846 2.28571 17.1071 4.50829 17.1071 7.25C17.1071 9.99172 14.8846 12.2143 12.1429 12.2143C9.40115 12.2143 7.17858 9.99172 7.17858 7.25ZM20.7907 14.3515L17.6676 20.9006L16.043 20.9007L16.024 20.9008C15.4016 20.9109 14.9001 21.4186 14.9001 22.0435C14.9001 22.6747 15.4118 23.1864 16.043 23.1864H19.11L20.3655 20.5533L23.1731 29.3761L26.8693 23.2857H28.8572L28.8761 23.2856C29.4985 23.2755 30 22.7677 30 22.1429C30 21.5117 29.4883 21 28.8572 21H25.5828L23.8269 23.8931L20.7907 14.3515Z" fill="#333333"/>
</g>
<defs>
<clipPath id="clip0_42_292">
<rect width="30" height="30" fill="white"/>
</clipPath>
</defs>
</svg>
