<svg width="30" height="30" viewBox="0 0 30 30" fill="none" xmlns="http://www.w3.org/2000/svg">
<path d="M4.41176 20.1579V23.1053C4.41153 23.8488 4.69177 24.565 5.19632 25.1103C5.70086 25.6555 6.39242 25.9895 7.13235 26.0453L7.35294 26.0526H11.7647V29H7.35294C5.79284 29 4.29664 28.3789 3.19349 27.2735C2.09033 26.168 1.47059 24.6686 1.47059 23.1053V20.1579H4.41176ZM23.5294 12.7895L30 29H26.8309L25.0647 24.5789H19.05L17.2868 29H14.1191L20.5882 12.7895H23.5294ZM22.0588 17.0411L20.225 21.6316H23.8897L22.0588 17.0411ZM8.82353 1V3.94737H14.7059V14.2632H8.82353V18.6842H5.88235V14.2632H0V3.94737H5.88235V1H8.82353ZM22.0588 2.47368C23.6189 2.47368 25.1151 3.09473 26.2183 4.20021C27.3214 5.30569 27.9412 6.80504 27.9412 8.36842V11.3158H25V8.36842C25 7.98137 24.9239 7.5981 24.7761 7.24051C24.6283 6.88292 24.4117 6.55801 24.1385 6.28432C23.8654 6.01063 23.5412 5.79353 23.1844 5.64541C22.8275 5.49729 22.4451 5.42105 22.0588 5.42105H17.6471V2.47368H22.0588ZM5.88235 6.89474H2.94118V11.3158H5.88235V6.89474ZM11.7647 6.89474H8.82353V11.3158H11.7647V6.89474Z" fill="#333333"/>
</svg>
