<svg width="30" height="30" viewBox="0 0 30 30" fill="none" xmlns="http://www.w3.org/2000/svg">
<g clip-path="url(#clip0_42_273)">
<path fill-rule="evenodd" clip-rule="evenodd" d="M29.4286 13.8571H0.571429C0.255821 13.8571 0 14.113 0 14.4286V15.5714C0 15.887 0.255821 16.1429 0.571429 16.1429H29.4286C29.7442 16.1429 30 15.887 30 15.5714V14.4286C30 14.113 29.7442 13.8571 29.4286 13.8571ZM15.5714 0H14.4286C14.113 0 13.8571 0.255821 13.8571 0.571429V10.8571C13.8571 11.1727 14.113 11.4286 14.4286 11.4286H15.5714C15.887 11.4286 16.1429 11.1727 16.1429 10.8571V0.571429C16.1429 0.255821 15.887 0 15.5714 0ZM15.5714 18.5714H14.4286C14.113 18.5714 13.8571 18.8272 13.8571 19.1429V25.1429C13.8571 25.4585 14.113 25.7143 14.4286 25.7143H15.5714C15.887 25.7143 16.1429 25.4585 16.1429 25.1429V19.1429C16.1429 18.8272 15.887 18.5714 15.5714 18.5714ZM20.4286 21.4286H19.8571C19.5415 21.4286 19.2857 21.6844 19.2857 22V29.4286C19.2857 29.7442 19.5415 30 19.8571 30H20.4286C20.7442 30 21 29.7442 21 29.4286V22C21 21.6844 20.7442 21.4286 20.4286 21.4286ZM24.9286 21.4286H24.3571C24.0415 21.4286 23.7857 21.6844 23.7857 22V29.4286C23.7857 29.7442 24.0415 30 24.3571 30H24.9286C25.2442 30 25.5 29.7442 25.5 29.4286V22C25.5 21.6844 25.2442 21.4286 24.9286 21.4286ZM29.4286 19.2857H28.8571C28.5415 19.2857 28.2857 19.5415 28.2857 19.8571V29.4286C28.2857 29.7442 28.5415 30 28.8571 30H29.4286C29.7442 30 30 29.7442 30 29.4286V19.8571C30 19.5415 29.7442 19.2857 29.4286 19.2857ZM1.71429 9.71428V1.71429H9.71428V9.71428H1.71429ZM10.2857 0H1.14286C0.511678 0 0 0.511678 0 1.14286V10.2857C0 10.9169 0.511678 11.4286 1.14286 11.4286H10.2857C10.9169 11.4286 11.4286 10.9169 11.4286 10.2857V1.14286C11.4286 0.511678 10.9169 0 10.2857 0ZM28.2857 9.71428H20.2857V1.71429H28.2857V9.71428ZM28.8571 0H19.7143C19.0831 0 18.5714 0.511678 18.5714 1.14286V10.2857C18.5714 10.9169 19.0831 11.4286 19.7143 11.4286H28.8571C29.4883 11.4286 30 10.9169 30 10.2857V1.14286C30 0.511678 29.4883 0 28.8571 0ZM1.71429 28.2857V20.2857H9.71428V28.2857H1.71429ZM10.2857 18.5714H1.14286C0.511678 18.5714 0 19.0831 0 19.7143V28.8571C0 29.4883 0.511678 30 1.14286 30H10.2857C10.9169 30 11.4286 29.4883 11.4286 28.8571V19.7143C11.4286 19.0831 10.9169 18.5714 10.2857 18.5714Z" fill="#333333"/>
</g>
<defs>
<clipPath id="clip0_42_273">
<rect width="30" height="30" fill="white"/>
</clipPath>
</defs>
</svg>
