<svg width="30" height="30" viewBox="0 0 30 30" fill="none" xmlns="http://www.w3.org/2000/svg">
<g clip-path="url(#clip0_42_197)">
<path d="M22.9389 24.5506C20.51 26.613 17.3646 27.8572 13.9286 27.8572C6.23604 27.8572 0 21.6211 0 13.9286C0 6.23604 6.23604 0 13.9286 0C21.6211 0 27.8572 6.23604 27.8572 13.9286C27.8572 17.3646 26.613 20.51 24.5506 22.9389L29.6662 28.0545C30.1113 28.4995 30.1113 29.2212 29.6662 29.6662C29.2212 30.1113 28.4995 30.1113 28.0545 29.6662L22.9389 24.5506ZM13.9286 25.5714C20.3588 25.5714 25.5714 20.3588 25.5714 13.9286C25.5714 7.49839 20.3588 2.28571 13.9286 2.28571C7.49839 2.28571 2.28571 7.49839 2.28571 13.9286C2.28571 20.3588 7.49839 25.5714 13.9286 25.5714ZM13.9407 13.6184L17.7581 7.24965C17.9186 6.96422 18.1505 6.85718 18.3824 6.85718C18.543 6.85718 18.7214 6.91072 18.8819 7.01775C19.1495 7.17829 19.3279 7.41022 19.3279 7.67779C19.3279 7.80268 19.2922 7.92757 19.203 8.07029L16.1705 12.7978H18.6679C19.0603 12.7978 19.2744 12.9762 19.2744 13.3865C19.2744 13.8146 19.0425 14.0109 18.6679 14.0109H15.4035L14.7435 15.0813V15.9019H18.65C19.0603 15.9019 19.2565 16.0624 19.2565 16.4906C19.2565 16.9009 19.0246 17.0971 18.65 17.0971H14.7434V20.2548C14.7434 20.7364 14.4224 20.9862 13.9407 20.9862C13.4413 20.9862 13.138 20.7364 13.138 20.2548V17.0971H9.21357C8.82115 17.0971 8.60707 16.9009 8.60707 16.4906C8.60707 16.0803 8.80329 15.9019 9.21357 15.9019H13.138V15.0634L12.4601 14.0109H9.2314C8.83897 14.0109 8.6249 13.8146 8.6249 13.4043C8.6249 12.994 8.83897 12.7978 9.2314 12.7978H11.7109L8.66057 8.07029C8.57143 7.94536 8.53572 7.8205 8.53572 7.69561C8.53572 7.41018 8.73193 7.16043 8.9995 7.01772C9.16007 6.9285 9.32057 6.875 9.48115 6.875C9.71304 6.875 9.92711 6.98204 10.0876 7.24965L13.9407 13.6183V13.6184Z" fill="#333333"/>
</g>
<defs>
<clipPath id="clip0_42_197">
<rect width="30" height="30" fill="white"/>
</clipPath>
</defs>
</svg>
