<svg width="30" height="30" viewBox="0 0 30 30" fill="none" xmlns="http://www.w3.org/2000/svg">
<g clip-path="url(#clip0_42_169)">
<path fill-rule="evenodd" clip-rule="evenodd" d="M20.3856 1.53743L29.6579 12.7203C29.911 13.0251 30.0303 13.411 29.9934 13.8062C29.9566 14.2011 29.7681 14.5581 29.4627 14.8113L15.2931 26.5602H26.7047C27.3356 26.5602 27.847 27.0717 27.847 27.7026C27.847 28.3334 27.3356 28.8449 26.7047 28.8449H3.28655C2.65565 28.8449 2.1442 28.3334 2.1442 27.7026C2.1442 27.0717 2.65565 26.5602 3.28655 26.5602H7.30836L0.341147 18.1574C-0.181442 17.5267 -0.0937667 16.5888 0.536452 16.0662L18.2945 1.34201C18.5999 1.0888 18.9854 0.969572 19.3807 1.00663C19.7756 1.04357 20.1325 1.23206 20.3856 1.53743ZM10.2763 26.5602H11.7137L27.3887 13.5631L19.1372 3.61122L2.61024 17.3146L10.2763 26.5602ZM18.3149 16.4249C18.1806 17.8089 17.0107 18.8493 15.6457 18.8493C15.5656 18.8493 15.4851 18.8457 15.4038 18.8385L4.9467 18.0207C4.31773 17.9716 3.84773 17.4218 3.89688 16.7928C3.94608 16.1638 4.49597 15.6937 5.12484 15.743L15.598 16.562L15.6065 16.5628C15.8258 16.5832 16.0206 16.4216 16.041 16.2025L16.0428 16.1854L17.1799 5.71888C17.2481 5.0917 17.8117 4.63833 18.439 4.70658C19.0662 4.77473 19.5194 5.33841 19.4512 5.96563L18.3149 16.4249Z" fill="#333333"/>
</g>
<defs>
<clipPath id="clip0_42_169">
<rect width="30" height="30" fill="white"/>
</clipPath>
</defs>
</svg>
