<svg width="30" height="30" viewBox="0 0 30 30" fill="none" xmlns="http://www.w3.org/2000/svg">
<path fill-rule="evenodd" clip-rule="evenodd" d="M6.57527 0H23.1606C25.6875 0 27.7359 2.04844 27.7359 4.57531V19.016C27.7359 21.5428 25.6875 23.5912 23.1606 23.5912H20.0383V27.7086H22.4729C23.1056 27.7086 23.6186 28.2216 23.6186 28.8543C23.6186 29.487 23.1056 30 22.4729 30H7.29237C6.65963 30 6.14668 29.487 6.14668 28.8543C6.14668 28.2216 6.65963 27.7086 7.29237 27.7086H9.72698V23.5912H6.57527C4.04844 23.5912 2 21.5428 2 19.016V4.57527C2 2.0484 4.04844 0 6.57527 0ZM23.1606 2.2914H6.57527C5.3159 2.2914 4.2914 3.31597 4.2914 4.57531V17.6658H25.4445V4.57527C25.4445 3.31594 24.42 2.2914 23.1606 2.2914ZM11.4455 27.7086H18.3197V23.5912H11.4455V27.7086ZM6.57527 21.2999H23.1606C24.2568 21.2999 25.1748 20.5235 25.3943 19.4918H4.34159C4.56117 20.5235 5.47909 21.2999 6.57527 21.2999ZM20.7214 11.5883C20.9373 11.4995 21.1685 11.4538 21.402 11.454C22.3907 11.454 23.1922 12.2555 23.1922 13.2442C23.1922 14.2328 22.3908 15.0343 21.402 15.0343C20.4134 15.0343 19.6119 14.2328 19.6119 13.2442C19.6115 12.9291 19.6948 12.6196 19.853 12.3473L18.1074 9.81452C17.6109 10.1272 17.023 10.3083 16.3928 10.3083C15.6377 10.3083 14.9434 10.0485 14.394 9.61352L10.9175 13.1737C11.0965 13.5033 11.1981 13.881 11.1981 14.2825C11.1981 15.5677 10.1562 16.6097 8.87094 16.6097C7.58568 16.6097 6.54374 15.5677 6.54374 14.2825C6.54374 12.9972 7.58568 11.9553 8.87094 11.9553C9.32112 11.9547 9.76171 12.0854 10.1388 12.3313L13.6341 8.75185C13.3399 8.26575 13.1705 7.69565 13.1705 7.086C13.1705 5.30637 14.6132 3.86372 16.3928 3.86372C18.1724 3.86372 19.6151 5.30637 19.6151 7.086C19.6151 7.81764 19.3711 8.49217 18.9603 9.03304L20.7214 11.5883Z" fill="#333333"/>
</svg>
