<svg width="30" height="30" viewBox="0 0 30 30" fill="none" xmlns="http://www.w3.org/2000/svg">
<path d="M15.4249 30C5.93189 30 1 24.0874 1 17.114C1 10.1407 6.71062 4.37636 14.8316 4.45054C22.9525 4.52469 28.7002 10.2353 28.7744 17.114C28.8485 23.9927 24.9179 30 15.4249 30ZM23.9361 24.5348C25.5815 22.7357 26.4338 20.1598 26.4013 17.1396C26.3717 14.4014 25.2274 11.8562 23.2014 9.96566C21.0887 7.99419 18.1534 6.85417 14.8099 6.82363C11.4894 6.79331 8.58326 7.9003 6.49861 9.86605C4.49511 11.7553 3.37323 14.33 3.37323 17.114C3.37323 20.0378 4.40003 22.6185 6.30597 24.4695C8.38415 26.4877 11.4706 27.6267 15.4249 27.6267C19.308 27.6267 22.1222 26.518 23.9361 24.5348ZM22.8402 4.70937C22.1107 4.72887 21.285 4.88523 20.6796 4.66762C20.2826 4.52497 20.4379 3.63981 20.8102 3.23573C21.2937 2.71087 21.7384 2.37643 22.7517 2.20093C23.765 2.02542 26.4413 2.9258 25.8031 3.4656C25.145 4.02211 24.0476 4.67712 22.8402 4.70937H22.8402ZM16.871 2.85065C16.0022 2.15885 15.5588 1.07062 15.3836 0.297816C15.2136 -0.451699 17.6771 0.368067 18.324 1.05762C18.971 1.7472 19.1125 2.23886 19.1771 2.89183C19.2269 3.39456 18.8511 4.13047 18.4807 4.01561C17.9157 3.84035 17.3959 3.26866 16.871 2.85065ZM9.25213 19.8197C7.70289 19.2692 6.87405 17.9764 6.76566 15.941L12.8514 19.282C12.0012 20.1909 10.8014 20.3701 9.25213 19.8197ZM19.5548 19.6957C17.3887 20.4653 15.7113 20.2147 14.5226 18.9439L23.0312 14.2728C22.8797 17.1185 21.7209 18.9261 19.5548 19.6956V19.6957Z" fill="#333333"/>
</svg>
