<svg width="30" height="30" viewBox="0 0 30 30" fill="none" xmlns="http://www.w3.org/2000/svg">
<g clip-path="url(#clip0_42_196)">
<path fill-rule="evenodd" clip-rule="evenodd" d="M16.1786 11.25H19C19.6312 11.25 20.1429 11.7617 20.1429 12.3929C20.1429 13.024 19.6312 13.5357 19 13.5357H16.1786V16.3571C16.1786 16.9883 15.6669 17.5 15.0357 17.5C14.4045 17.5 13.8929 16.9883 13.8929 16.3571V13.5357H11.0714C10.4402 13.5357 9.92857 13.024 9.92857 12.3929C9.92857 11.7617 10.4402 11.25 11.0714 11.25H13.8929V8.42857C13.8929 7.79739 14.4045 7.28572 15.0357 7.28572C15.6669 7.28572 16.1786 7.79739 16.1786 8.42857V11.25ZM23.9643 2.85714H6.17857C5.38961 2.85714 4.75 2.21754 4.75 1.42857C4.75 0.639607 5.38961 0 6.17857 0H23.9643C24.7533 0 25.3929 0.639607 25.3929 1.42857C25.3929 2.21754 24.7533 2.85714 23.9643 2.85714ZM29.8684 15.6681L29.8615 15.6706C29.9775 16.182 30 16.6926 30 17.1581C30 20.2006 27.4205 22.6759 24.25 22.6759C22.3561 22.6759 20.6733 21.7925 19.625 20.4326C18.5767 21.7925 16.8939 22.6759 15 22.6759C13.106 22.6759 11.4233 21.7925 10.375 20.4326C9.32671 21.7925 7.64396 22.6759 5.75 22.6759C2.57943 22.6759 0 20.2006 0 17.1581C0 16.6967 0.0146071 16.1853 0.138786 15.6676L0.129214 15.664L0.161607 15.5785C0.219143 15.3609 0.296321 15.1427 0.401643 14.927L0.407322 14.9298L3.52554 6.69793C4.09321 4.87843 5.59889 3.75 7.46428 3.75H22.5357C23.3784 3.75 24.2443 4.03589 24.9741 4.55496C25.7465 5.10436 26.2933 5.87289 26.5204 6.72561L29.5072 14.7032C29.6659 15.0003 29.7745 15.3072 29.8483 15.6144L29.8684 15.6681ZM20.7857 17.1581C20.7857 18.9403 22.3398 20.3902 24.25 20.3902C26.1602 20.3902 27.7143 18.9403 27.7143 17.1581C27.7143 16.8526 27.7037 16.543 27.6511 16.2646L24.3344 7.40561L24.3182 7.33939C24.1647 6.70982 23.4119 6.03571 22.5357 6.03571H7.46428C6.96003 6.03571 6.06043 6.21296 5.70093 7.40007L5.68964 7.43729L2.34882 16.2569C2.29854 16.4999 2.28571 16.7959 2.28571 17.1581C2.28571 18.9403 3.83979 20.3902 5.75 20.3902C7.66021 20.3902 9.21429 18.9403 9.21429 17.1581H11.5357C11.5357 18.9403 13.0898 20.3902 15 20.3902C16.9102 20.3902 18.4643 18.9403 18.4643 17.1581H20.7857ZM25.5714 23.9286C25.5714 23.2974 26.0831 22.7857 26.7143 22.7857C27.3455 22.7857 27.8571 23.2974 27.8571 23.9286V27.1429C27.8571 28.7183 26.5754 30 25 30H5C3.42457 30 2.14286 28.7183 2.14286 27.1429V23.9286C2.14286 23.2974 2.65454 22.7857 3.28571 22.7857C3.91689 22.7857 4.42857 23.2974 4.42857 23.9286V27.1429C4.42857 27.4579 4.68493 27.7143 5 27.7143H25C25.3151 27.7143 25.5714 27.4579 25.5714 27.1429V23.9286Z" fill="#333333"/>
</g>
<defs>
<clipPath id="clip0_42_196">
<rect width="30" height="30" fill="white"/>
</clipPath>
</defs>
</svg>
