<svg width="30" height="30" viewBox="0 0 30 30" fill="none" xmlns="http://www.w3.org/2000/svg">
<g clip-path="url(#clip0_42_251)">
<path fill-rule="evenodd" clip-rule="evenodd" d="M15.0097 0H27.8571C29.0406 0 30 0.895428 30 2C30 3.09354 29.0597 3.98207 27.8926 3.99971L27.8571 4H16.9988L16.9834 27.851C16.9826 29.0387 16.0903 30.0008 14.9903 30C13.9013 29.9992 13.0171 29.0549 13.0003 27.8835L13 27.848L13.0154 4H2.14286C0.959393 4 0 3.10457 0 2C0 0.906464 0.940286 0.0179286 2.10743 0.000250084L2.14286 0H15.0069C15.0078 -6.99838e-07 15.0087 -6.9999e-07 15.0097 0Z" fill="#333333"/>
</g>
<defs>
<clipPath id="clip0_42_251">
<rect width="30" height="30" fill="white"/>
</clipPath>
</defs>
</svg>
