<svg width="30" height="30" viewBox="0 0 30 30" fill="none" xmlns="http://www.w3.org/2000/svg">
<path d="M27.0846 30H2.91539C1.31082 29.999 0.00828572 28.7018 0 27.0965V2.90351C0.00828572 1.29823 1.31086 0.00101475 2.91539 1.47408e-05H27.0847C27.4668 -0.00120244 27.8454 0.0729711 28.1988 0.218288C28.5522 0.363605 28.8735 0.57721 29.1442 0.846871C29.415 1.11661 29.63 1.4371 29.7769 1.79C29.9237 2.14289 29.9995 2.52128 30 2.90351V27.0908C30.0003 27.4736 29.925 27.8525 29.7785 28.2061C29.632 28.5596 29.4171 28.8808 29.1462 29.1511C28.8754 29.4214 28.5539 29.6355 28.2001 29.7812C27.8463 29.9268 27.4673 30.0012 27.0847 30H27.0846ZM3.10553 2.14287C2.97969 2.14167 2.85486 2.1654 2.73824 2.21269C2.62162 2.25997 2.51551 2.32988 2.42603 2.41837C2.33654 2.50689 2.26545 2.61224 2.21686 2.72836C2.16826 2.84448 2.14312 2.96906 2.14289 3.09494V26.9032C2.14313 27.0292 2.16826 27.1539 2.21684 27.2701C2.26542 27.3863 2.33649 27.4918 2.42596 27.5805C2.51541 27.6691 2.62149 27.7392 2.73812 27.7866C2.85475 27.8341 2.97961 27.8581 3.10553 27.8571H26.8945C27.0204 27.8581 27.1453 27.8341 27.2619 27.7866C27.3785 27.7392 27.4846 27.6691 27.5741 27.5805C27.6636 27.4918 27.7346 27.3863 27.7832 27.2701C27.8318 27.1539 27.8569 27.0292 27.8572 26.9032V3.09494C27.8569 2.96906 27.8318 2.84448 27.7832 2.72836C27.7346 2.61224 27.6635 2.50689 27.574 2.41837C27.4845 2.32988 27.3784 2.25997 27.2618 2.21269C27.1452 2.1654 27.0203 2.14167 26.8945 2.14287H3.1055H3.10553ZM10.1383 23.1071C9.97975 23.1078 9.82388 23.0662 9.68671 22.9867C9.53283 22.9053 9.40414 22.7835 9.31458 22.6342C9.22501 22.485 9.17799 22.3141 9.1786 22.14V7.89408C9.18021 7.72135 9.22771 7.55216 9.31622 7.40382C9.40473 7.25549 9.53107 7.13335 9.68231 7.0499C9.83358 6.96644 10.0043 6.92468 10.177 6.92888C10.3497 6.93309 10.5182 6.98311 10.6652 7.07383L22.0125 14.1968C22.1509 14.2841 22.2649 14.405 22.3439 14.5483C22.4229 14.6916 22.4643 14.8525 22.4643 15.0161C22.4643 15.1797 22.4229 15.3407 22.3439 15.4839C22.2649 15.6272 22.1509 15.7481 22.0125 15.8355L10.6652 22.966C10.5059 23.0606 10.3236 23.1094 10.1383 23.1071H10.1383ZM11.1072 9.64286V20.3929L19.6786 15.0188L11.1072 9.64286Z" fill="#333333"/>
</svg>
