<svg width="30" height="30" viewBox="0 0 30 30" fill="none" xmlns="http://www.w3.org/2000/svg">
<path d="M0 23.424V4.04061L2.28571 6.32632V23.4268C6.44264 23.3875 9.59932 23.8412 11.7839 24.8234C12.6083 25.1941 13.3018 25.6458 13.8571 26.1734V17.8977L16.1429 20.1835V26.1982C16.702 25.6611 17.4034 25.2019 18.2393 24.8261C18.8041 24.5721 19.4338 24.3535 20.129 24.1696L22.0511 26.0916C20.909 26.2893 19.949 26.5631 19.1767 26.9103C17.5542 27.6399 16.833 28.6273 16.833 30H14.5473C14.5473 29.9994 14.0949 29.9985 13.1901 29.9974C13.1901 28.6246 12.4689 27.6372 10.8464 26.9077C9.01339 26.0835 6.12304 25.6731 2.25 25.7124V25.7095C1.00411 25.6904 0 24.6745 0 23.424ZM13.8571 7.16089V9.81653L16.1429 12.1022V7.10325C16.3004 7.06454 16.4493 7.018 16.586 6.96368L27.7143 2.58286V23.4292C27.6319 23.4285 27.5498 23.4279 27.4682 23.4276L29.2009 25.1603C29.6901 24.7411 30 24.1187 30 23.424V2.28571C30 1.04307 29.0083 0.032 27.7731 0.000714287V0L27.7714 0.000714287C27.7524 0.000243435 27.7333 5.32114e-06 27.7143 0V0.0236429L15.7414 4.84007C15.3328 5.00254 14.3952 5.00254 13.9866 4.84007L5.29729 1.25668L9.55321 5.51261L13.1421 6.96368C13.3552 7.04839 13.598 7.11411 13.8571 7.16089ZM18.0068 13.9662L18.0292 13.9886C19.9502 13.2483 21.9553 12.6924 24.0101 12.3304V9.99671C21.9613 10.4073 19.9535 10.9647 18.0068 11.6636V13.9662ZM20.8086 16.768L22.6428 18.6022C23.0966 18.5021 23.5525 18.4117 24.0101 18.3311V15.9975C22.9335 16.2131 21.8655 16.4702 20.8086 16.768ZM6.00021 12.3304V10.0408L8.95275 12.9934C7.9794 12.7266 6.99416 12.5054 6.00021 12.3304ZM6.00021 15.9975C8.04907 16.408 10.0568 16.9655 12.0035 17.6644V19.998C10.0757 19.2534 8.06304 18.6946 6.00021 18.3311V15.9975ZM0.347214 0.347143C-0.0991071 0.793464 -0.0991071 1.51707 0.347214 1.96339L28.0467 29.6629C28.493 30.1092 29.2166 30.1092 29.663 29.6629C30.1093 29.2166 30.1093 28.493 29.663 28.0467L1.96343 0.347143C1.51714 -0.0991786 0.7935 -0.0991786 0.347214 0.347143Z" fill="#333333"/>
</svg>
