<svg width="30" height="30" viewBox="0 0 30 30" fill="none" xmlns="http://www.w3.org/2000/svg">
<g clip-path="url(#clip0_42_297)">
<path fill-rule="evenodd" clip-rule="evenodd" d="M29.3287 8.72503C30.2224 7.83128 30.2235 6.38331 29.3311 5.49089H29.3311L24.5087 0.668593C23.6164 -0.223798 22.1683 -0.222727 21.2746 0.670985L3.64827 18.2974C3.39328 18.5524 3.20207 18.8639 3.09019 19.2067L0.0564603 28.503C-0.0186386 28.733 -0.0188138 28.981 0.0559603 29.2111C0.251056 29.8115 0.896114 30.1392 1.49668 29.9432L10.793 26.9095C11.1358 26.7976 11.4473 26.6064 11.7023 26.3514L29.3287 8.72503ZM17.2902 7.88713L22.1125 12.7095L10.0864 24.7356L2.92809 27.0716L5.26413 19.9132L17.2902 7.88713ZM22.8905 2.28684L27.7128 7.10917V7.10921L23.7284 11.0936L18.9061 6.27134L22.8905 2.28684ZM28.125 25.625H15V27.125C15 27.6773 15.4477 28.125 16 28.125H27.125C27.6773 28.125 28.125 27.6773 28.125 27.125V25.625Z" fill="#333333"/>
</g>
<defs>
<clipPath id="clip0_42_297">
<rect width="30" height="30" fill="white"/>
</clipPath>
</defs>
</svg>
