<svg width="30" height="30" viewBox="0 0 30 30" fill="none" xmlns="http://www.w3.org/2000/svg">
<path fill-rule="evenodd" clip-rule="evenodd" d="M16.0015 27.7123H7.67968C7.68218 27.6857 7.68358 27.6588 7.68358 27.6315V18.838C7.68358 18.6803 7.81187 18.5521 7.96954 18.5521H15.4047C15.5367 18.5521 15.6617 18.5222 15.7734 18.469C15.2799 19.3907 15 20.4439 15 21.5625C15 25.1869 17.9381 28.125 21.5625 28.125C25.1869 28.125 28.125 25.1869 28.125 21.5625C28.125 17.9381 25.1869 15 21.5625 15C19.3857 15 17.4564 16.0599 16.2626 17.6917C16.2612 17.219 15.8777 16.8363 15.4047 16.8363H7.96954C6.86579 16.8363 5.96778 17.7342 5.96778 18.838V27.6315C5.96778 27.6588 5.96921 27.6857 5.97168 27.7123H4.28773V2.28773H5.93204V11.7246C5.93204 12.3563 6.44416 12.8685 7.0759 12.8685H19.7657C20.3974 12.8685 20.9095 12.3563 20.9095 11.7246V2.28773H21.431L25.5207 7.10454V11.6889C25.5207 12.3206 26.0329 12.8327 26.6646 12.8327C27.2963 12.8327 27.8085 12.3206 27.8085 11.6889V6.26438L22.4897 0H4.22543C2.99831 0 2 0.998344 2 2.22543V27.7745C2 29.0016 2.99831 30 4.22543 30H16.0015C16.6332 30 17.1454 29.4879 17.1454 28.8561C17.1454 28.2244 16.6333 27.7123 16.0015 27.7123ZM15.5834 2.28773H18.586V8.75772H15.5834V2.28773ZM25.1423 25.1423C24.1861 26.0984 22.9147 26.625 21.5625 26.625C20.2103 26.625 18.9389 26.0984 17.9827 25.1423C17.0266 24.1861 16.5 22.9147 16.5 21.5625C16.5 20.2103 17.0266 18.9389 17.9827 17.9827C18.9389 17.0266 20.2103 16.5 21.5625 16.5C22.9147 16.5 24.1861 17.0266 25.1423 17.9827C26.0984 18.9389 26.625 20.2103 26.625 21.5625C26.625 22.9147 26.0984 24.1861 25.1423 25.1423ZM19.282 21.0625H24.8644C25.1405 21.0625 25.3644 21.2863 25.3644 21.5625C25.3644 21.8387 25.1405 22.0625 24.8644 22.0625H19.282L21.2747 24.0552C21.47 24.2505 21.47 24.5671 21.2747 24.7623C21.1771 24.86 21.0491 24.9088 20.9212 24.9088C20.7933 24.9088 20.6653 24.8599 20.5677 24.7623L18.0376 22.2322C17.6683 21.863 17.6683 21.262 18.0376 20.8927L20.5677 18.3627C20.7629 18.1674 21.0795 18.1674 21.2748 18.3627C21.47 18.5579 21.47 18.8745 21.2748 19.0697L19.282 21.0625Z" fill="#333333"/>
</svg>
