<svg width="30" height="30" viewBox="0 0 30 30" fill="none" xmlns="http://www.w3.org/2000/svg">
<path d="M20.5448 2.33868L24.0778 5.89529L24.0807 5.89821L24.0837 5.90114L24.1043 5.92175L24.1072 5.92468L24.1102 5.92764L27.6608 9.45479H26.2605C25.431 9.45479 24.6455 9.81664 24.1102 10.4491L18.3915 17.174C17.6031 18.1006 17.1295 19.2773 17.056 20.4923L16.8971 23.1193L6.88064 13.0996L9.50757 12.9408C10.7195 12.8672 11.8992 12.3936 12.8258 11.6052L19.5505 5.88646C20.183 5.34811 20.5448 4.56561 20.5448 3.73604V2.33868ZM20.1801 0C19.9088 2.35046e-05 19.6419 0.0677751 19.4035 0.197107C18.9534 0.444214 18.5886 0.917821 18.6621 1.82096V3.73604C18.6623 3.87266 18.6326 4.00767 18.5752 4.13164C18.5178 4.25562 18.434 4.36557 18.3297 4.45382L11.605 10.1726C10.9843 10.7021 10.2077 11.0139 9.39286 11.0639L6.11875 11.261C5.65982 11.2875 5.21857 11.467 4.88321 11.7817C4.65375 11.9994 4.45371 12.2906 4.41843 12.6731C4.38314 13.0496 4.52729 13.4203 4.79496 13.688L4.80086 13.6939L8.84207 17.6811C8.94131 17.7791 9.00134 17.9099 9.01084 18.0489C9.02035 18.188 8.97868 18.3258 8.89368 18.4363L0.0676429 29.9118L0 30L0.08825 29.9324L11.5635 21.1061C11.7921 20.9303 12.116 20.9524 12.3186 21.1578L16.3058 25.1991L16.3117 25.2049C16.5529 25.4462 16.8765 25.5874 17.2148 25.5874C17.2531 25.5874 17.2913 25.5844 17.3266 25.5815C17.7061 25.5462 18.0002 25.3461 18.2179 25.1167C18.5327 24.7813 18.7121 24.3401 18.7386 23.8811L18.9357 20.607C18.9857 19.7921 19.2975 19.0155 19.827 18.3948L25.5457 11.6699C25.634 11.5656 25.7439 11.4818 25.8679 11.4244C25.9919 11.367 26.1269 11.3374 26.2635 11.3375H28.1785C28.258 11.3434 28.3344 11.3464 28.408 11.3464C29.164 11.3464 29.5788 11.008 29.8024 10.5962C30.1554 9.95196 30.023 9.14886 29.5053 8.63111L29.5023 8.62818L25.4339 4.58618L25.4133 4.56561L21.3714 0.500107L21.3685 0.497143C21.0449 0.173571 20.6154 0 20.1801 0Z" fill="#333333"/>
</svg>
