<svg width="30" height="30" viewBox="0 0 30 30" fill="none" xmlns="http://www.w3.org/2000/svg">
<g clip-path="url(#clip0_42_265)">
<path d="M11.8205 0H2.10804C0.945679 0 0 0.945679 0 2.10804V11.8205C0 12.9829 0.945679 13.9286 2.10804 13.9286H11.8205C12.9829 13.9286 13.9286 12.9829 13.9286 11.8205V2.10804C13.9286 0.945679 12.9829 0 11.8205 0ZM11.6429 11.6429H2.28571V2.28571H11.6429V11.6429ZM11.8205 16.0714H2.10804C0.945679 16.0714 0 17.0171 0 18.1795V27.8919C0 29.0543 0.945679 30 2.10804 30H11.8205C12.9829 30 13.9286 29.0543 13.9286 27.892V18.1795C13.9286 17.0171 12.9829 16.0714 11.8205 16.0714ZM11.6429 27.7143H2.28571V18.3571H11.6429V27.7143ZM27.892 16.0714H18.1795C17.0171 16.0714 16.0714 17.0171 16.0714 18.1795V27.8919C16.0714 29.0543 17.0171 30 18.1795 30H27.8919C29.0543 30 30 29.0543 30 27.892V18.1795C30 17.0171 29.0543 16.0714 27.892 16.0714ZM27.7143 27.7143H18.3571V18.3571H27.7143V27.7143ZM23.0357 13.9286C26.8758 13.9286 30 10.8044 30 6.96429C30 3.12418 26.8758 0 23.0357 0C19.1956 0 16.0714 3.12418 16.0714 6.96429C16.0714 10.8044 19.1956 13.9286 23.0357 13.9286ZM23.0357 2.28571C25.6155 2.28571 27.7143 4.3845 27.7143 6.96429C27.7143 9.54407 25.6155 11.6429 23.0357 11.6429C20.456 11.6429 18.3571 9.54407 18.3571 6.96429C18.3571 4.3845 20.456 2.28571 23.0357 2.28571Z" fill="#333333"/>
</g>
<defs>
<clipPath id="clip0_42_265">
<rect width="30" height="30" fill="white"/>
</clipPath>
</defs>
</svg>
