<svg width="30" height="30" viewBox="0 0 30 30" fill="none" xmlns="http://www.w3.org/2000/svg">
<path d="M23.5074 0C24.4701 0 25.324 0.524286 25.908 1.37204C26.4226 2.11904 26.708 3.08743 26.7143 4.10543L26.7144 12.8601C28.5416 12.935 30 14.4401 30 16.2857V26.5714C30 28.465 28.465 30 26.5714 30H3.42857C1.535 30 0 28.465 0 26.5714V16.2857C0 14.4884 1.383 13.0141 3.14286 12.8689V4.139C3.14286 3.10875 3.42886 2.12725 3.94911 1.37204C4.52732 0.53275 5.37004 0.0104999 6.32093 0.000142796L6.34979 0H23.5074ZM5.93875 15.1429H3.42857C2.80371 15.1429 2.29596 15.6444 2.28571 16.2668V26.5714C2.28571 27.2026 2.79739 27.7143 3.42857 27.7143H26.5714C27.2026 27.7143 27.7143 27.2026 27.7143 26.5714V16.2857C27.7143 15.6545 27.2026 15.1429 26.5714 15.1429H24.0612V20C24.0612 21.4202 22.91 22.5714 21.4898 22.5714H8.51021C7.09003 22.5714 5.93879 21.4202 5.93879 20L5.93875 15.1429ZM23.5074 2.28571H6.34979C6.20275 2.28571 6.01657 2.4 5.83139 2.66879C5.58646 3.02432 5.43346 3.54164 5.42868 4.11139L5.42857 4.139V12.8571H6.7245C7.54464 12.8571 8.21103 13.5154 8.22429 14.3323L8.2245 14.3571V20C8.2245 20.0375 8.23189 20.0747 8.24625 20.1093C8.26061 20.144 8.28165 20.1755 8.30818 20.202C8.33471 20.2286 8.36621 20.2496 8.40088 20.264C8.43554 20.2783 8.47269 20.2857 8.51021 20.2857H21.4898C21.5273 20.2857 21.5645 20.2783 21.5991 20.264C21.6338 20.2496 21.6653 20.2286 21.6918 20.202C21.7183 20.1755 21.7394 20.144 21.7537 20.1093C21.7681 20.0747 21.7755 20.0375 21.7755 20V14.3571C21.7755 13.5287 22.4471 12.8571 23.2755 12.8571H24.4286V4.139C24.4286 3.55836 24.2746 3.03007 24.0257 2.66879C23.844 2.40493 23.6612 2.28993 23.5154 2.28582L23.5074 2.28571ZM18.2143 12.7143C18.806 12.7143 19.2857 13.194 19.2857 13.7857V13.9286C19.2857 14.5203 18.806 15 18.2143 15H11.7857C11.194 15 10.7143 14.5203 10.7143 13.9286V13.7857C10.7143 13.194 11.194 12.7143 11.7857 12.7143H18.2143ZM20.3571 6.42857C20.9489 6.42857 21.4286 6.90825 21.4286 7.5V7.64286C21.4286 8.23461 20.9489 8.71428 20.3571 8.71428H9.64286C9.05111 8.71428 8.57143 8.23461 8.57143 7.64286V7.5C8.57143 6.90825 9.05111 6.42857 9.64286 6.42857H20.3571Z" fill="#333333"/>
</svg>
