<svg width="30" height="30" viewBox="0 0 30 30" fill="none" xmlns="http://www.w3.org/2000/svg">
<path d="M24.5177 26.0158C24.8125 25.6904 25.0104 25.0808 24.9996 24.2964C24.9865 23.3477 24.6695 22.2979 24.064 21.3287C23.3737 20.2239 22.3463 19.2741 21.0078 18.5759C19.4423 17.7591 17.4896 17.3024 15.1584 17.2861C12.8271 17.2699 10.8686 17.701 9.29615 18.4983C7.95018 19.1807 6.91579 20.1198 6.22218 21.2175C5.61133 22.1841 5.29386 23.2356 5.28586 24.192C5.27908 25.0005 5.49386 25.6439 5.83093 26.0158C5.86022 26.0481 5.93197 26.1063 6.0474 26.1792C6.20725 26.2801 6.41658 26.3865 6.67097 26.4929C7.23418 26.7283 7.97133 26.9446 8.84347 27.1266C10.6174 27.497 12.841 27.704 15.1279 27.7139C17.429 27.7239 19.6544 27.5338 21.4306 27.1711C22.3099 26.9916 23.0537 26.7748 23.6254 26.5349C23.8854 26.4258 24.1007 26.3155 24.2675 26.2094C24.3935 26.1291 24.4764 26.0614 24.5177 26.0158ZM26.2114 27.5507C23.1772 30.8987 7.02136 30.7331 4.13725 27.5507C1.11733 24.2184 3.88522 14.9218 15.1743 15.0005C26.4634 15.0792 29.0813 24.3839 26.2114 27.5507ZM15.1429 14.5C11.1388 14.5 7.89286 11.2541 7.89286 7.25C7.89286 3.24593 11.1388 0 15.1429 0C19.1469 0 22.3929 3.24593 22.3929 7.25C22.3929 11.2541 19.1469 14.5 15.1429 14.5ZM15.1429 12.2143C17.8846 12.2143 20.1071 9.99172 20.1071 7.25C20.1071 4.50829 17.8846 2.28571 15.1429 2.28571C12.4011 2.28571 10.1786 4.50829 10.1786 7.25C10.1786 9.99172 12.4011 12.2143 15.1429 12.2143Z" fill="#333333"/>
</svg>
