<svg width="30" height="30" viewBox="0 0 30 30" fill="none" xmlns="http://www.w3.org/2000/svg">
<g clip-path="url(#clip0_42_151)">
<path fill-rule="evenodd" clip-rule="evenodd" d="M18.1993 0C19.8475 0 21.1872 1.32186 21.2139 2.96314L21.2143 3.013V4.85714H24.6161C26.3929 4.85714 27.8282 6.301 27.8567 8.08304L27.8571 8.13714V13.9913C27.8571 14.6225 27.3455 15.1342 26.7143 15.1342C26.0894 15.1342 25.5817 14.6327 25.5716 14.0102L25.5714 13.9913V12.875H21.8571V13.8571C21.8571 14.4883 21.3455 15 20.7143 15C20.0894 15 19.5817 14.4985 19.5716 13.8761L19.5714 13.8571V12.875H8.28571V13.8571C8.28571 14.4883 7.77404 15 7.14286 15C6.518 15 6.01025 14.4985 6.00014 13.8761L6 13.8571V12.875H2.28571V24.6129C2.28571 25.1611 2.70957 25.5983 3.22536 25.607L3.24104 25.6071H13.9819C14.613 25.6071 15.1247 26.1188 15.1247 26.75C15.1247 27.3749 14.6232 27.8826 14.0007 27.8929H3.24104C1.46425 27.8929 0.0289643 26.449 0.000428643 24.667L0 24.6129V8.13714C0 6.34839 1.4175 4.88664 3.18729 4.85757L3.24104 4.85714H6.64286V3.013C6.64286 1.36532 7.96611 0.027 9.60796 0.00039288L9.65786 0H18.1993ZM24.6161 7.14286H3.24107C2.72343 7.14286 2.29439 7.57457 2.28589 8.12057L2.28575 8.13714V10.5893H6.00004V9.57143C6.00004 8.94025 6.51171 8.42857 7.14289 8.42857C7.76775 8.42857 8.2755 8.93007 8.28561 9.5525L8.28575 9.57143V10.5893H19.5715V9.57143C19.5715 8.94025 20.0831 8.42857 20.7143 8.42857C21.3392 8.42857 21.8469 8.93007 21.857 9.5525L21.8572 9.57143V10.5893H25.5715V8.13714C25.5715 7.58889 25.1476 7.15168 24.6318 7.143L24.6161 7.14286H24.6161ZM18.1993 2.28571H9.65782C9.25896 2.28571 8.93532 2.60493 8.92868 3.00061L8.92857 3.013V4.85714H18.9286V3.013C18.9286 2.61575 18.609 2.29243 18.2118 2.28582L18.1993 2.28571ZM22.5 15C26.6421 15 30 18.3579 30 22.5C30 26.6421 26.6421 30 22.5 30C18.3579 30 15 26.6421 15 22.5C15 18.3579 18.3579 15 22.5 15ZM22.5 17.2857C19.6202 17.2857 17.2857 19.6202 17.2857 22.5C17.2857 25.3798 19.6202 27.7143 22.5 27.7143C25.3798 27.7143 27.7143 25.3798 27.7143 22.5C27.7143 19.6202 25.3798 17.2857 22.5 17.2857ZM20.7196 20.7476V26.2568H19.7144V22.4549C19.4753 22.7966 19.2219 23.1282 18.9548 23.4485C18.8832 22.9984 18.7911 22.5252 18.6786 22.029C19.3896 21.0878 19.9549 19.9829 20.3743 18.7143L21.4178 19.0442C21.2209 19.6325 20.9881 20.2003 20.7196 20.7476ZM25.8758 19.8345C25.5894 20.1108 25.3515 20.3461 25.1623 20.5405C24.7326 20.1006 24.3131 19.7271 23.9039 19.4202L24.5484 18.768C25.019 19.1056 25.4615 19.4611 25.8758 19.8345ZM25.9008 25.7811C25.7205 26.1289 25.4359 26.3028 25.0472 26.3029C23.8041 26.3029 23.01 24.8782 22.6647 22.029L21.1186 22.2209L20.9958 21.2387L22.5573 21.0546C22.4959 20.3614 22.4537 19.6069 22.4307 18.791H23.4972C23.4998 19.5506 23.5305 20.2642 23.5893 20.9318L26.0753 20.6325L26.1674 21.5916L23.6967 21.9024C23.886 23.1659 24.1053 24.0279 24.3546 24.4882C24.604 24.9486 24.8055 25.1788 24.9589 25.1788C25.0075 25.1788 25.0516 25.1519 25.0913 25.0982C25.1309 25.0445 25.1821 24.8808 25.2448 24.6071C25.3073 24.3338 25.3541 24.0571 25.3848 23.7784C25.6917 23.9831 26.0063 24.157 26.3285 24.3002C26.2237 24.9396 26.0811 25.4332 25.9008 25.7811Z" fill="#333333"/>
</g>
<defs>
<clipPath id="clip0_42_151">
<rect width="30" height="30" fill="white"/>
</clipPath>
</defs>
</svg>
