<svg width="30" height="30" viewBox="0 0 30 30" fill="none" xmlns="http://www.w3.org/2000/svg">
<path d="M14.9904 0C15.0007 0 15.011 0.000142852 15.0212 0.000357129L15.0275 0.000535723C15.0708 0.00170038 15.114 0.00493024 15.157 0.0102143L15.1601 0.0105714C15.1701 0.0118571 15.1802 0.0132143 15.1902 0.0147143L15.192 0.015C15.2028 0.0166071 15.2135 0.0183571 15.2242 0.0202143L15.2252 0.0203929C15.2466 0.0241429 15.2679 0.0283929 15.2891 0.0331429L15.2917 0.0337143C15.3127 0.0385 15.3337 0.04375 15.3545 0.0495357L15.3553 0.0497857C15.4697 0.0815332 15.5794 0.128081 15.6818 0.18825L21.4772 3.59732L27.2726 7.00639C27.4773 7.12679 27.647 7.29858 27.7649 7.50475C27.8829 7.71091 27.9449 7.94431 27.9448 8.18182V21.818C27.9448 21.9043 27.9366 21.9904 27.9203 22.0751C27.9143 22.1064 27.9072 22.1375 27.8991 22.1684L27.8967 22.1772C27.8915 22.1962 27.8859 22.215 27.88 22.2337L27.8777 22.2405C27.8755 22.2472 27.8733 22.2539 27.871 22.2605L27.867 22.2723C27.8643 22.2797 27.8617 22.2872 27.8589 22.2946C27.8572 22.2993 27.8553 22.304 27.8535 22.3087L27.8483 22.3218C27.8438 22.3333 27.8391 22.3448 27.8342 22.3562L27.8284 22.3695C27.8265 22.3736 27.8247 22.3777 27.8228 22.3818C27.803 22.4256 27.7808 22.4684 27.7565 22.5099C27.6657 22.6642 27.5454 22.7992 27.4025 22.907C27.3549 22.9429 27.3051 22.9755 27.2533 23.0048L21.4772 26.4025L15.6818 29.8116C15.6468 29.8322 15.611 29.8511 15.5743 29.8684L15.5709 29.87C15.5419 29.8837 15.5126 29.8963 15.4828 29.9078L15.4804 29.9087C15.4708 29.9125 15.4611 29.9161 15.4513 29.9196L15.4477 29.9208C15.4374 29.9245 15.4271 29.9281 15.4167 29.9315C15.4075 29.9345 15.3982 29.9375 15.389 29.9403L15.3824 29.9423C15.3743 29.9447 15.3662 29.947 15.3581 29.9493L15.3529 29.9507C15.3433 29.9534 15.3336 29.956 15.3239 29.9584L15.3194 29.9595C15.311 29.9616 15.3026 29.9636 15.2942 29.9655L15.2873 29.9671C15.2778 29.9693 15.2682 29.9713 15.2586 29.9732L15.2534 29.9742C15.2462 29.9756 15.2391 29.977 15.2319 29.9783L15.2181 29.9807C15.2099 29.9821 15.2018 29.9834 15.1937 29.9846C15.1903 29.9852 15.1869 29.9856 15.1836 29.9861C15.1732 29.9875 15.1629 29.9889 15.1525 29.9902C15.1297 29.9928 15.1068 29.995 15.0838 29.9966C15.08 29.9969 15.0761 29.9971 15.0722 29.9974C15.0621 29.998 15.0519 29.9985 15.0418 29.9989L15.0339 29.9992C15.0272 29.9994 15.0205 29.9995 15.0137 29.9996L15.0113 29.9997C15.0043 29.9998 14.9972 30 14.9902 30C14.9525 29.9998 14.9149 29.9982 14.8773 29.9951L14.8758 29.995C14.6661 29.9774 14.4632 29.9114 14.2832 29.8023L2.72545 23.0036C2.51792 22.8857 2.34498 22.7153 2.22391 22.5096C2.09651 22.2929 2.03148 22.0452 2.03599 21.7939V8.20307C2.03468 8.12059 2.04086 8.03815 2.05445 7.95679C2.08403 7.78016 2.14811 7.61108 2.24302 7.45921L2.24941 7.44921L2.25249 7.44446C2.25856 7.435 2.26477 7.42557 2.27109 7.41625L2.27574 7.40943C2.27913 7.40454 2.28252 7.39964 2.28595 7.39482L2.29045 7.38854C2.2967 7.37979 2.30306 7.37107 2.30952 7.36246L2.31502 7.35514C2.31834 7.35079 2.3217 7.34646 2.32509 7.34214L2.33206 7.33336C2.33777 7.32618 2.34356 7.31904 2.34941 7.31196L2.35684 7.30304L2.36691 7.29125L2.37513 7.28186C2.38684 7.26854 2.39874 7.25543 2.41095 7.24257C2.41488 7.23843 2.41888 7.23436 2.42284 7.23025C2.43132 7.22158 2.43989 7.21299 2.44856 7.2045L2.45745 7.19593C2.47072 7.18333 2.48422 7.17096 2.49791 7.15882L2.50606 7.15168C2.52099 7.13874 2.53619 7.12613 2.55166 7.11386L2.55566 7.11071C2.5722 7.09768 2.58902 7.085 2.6062 7.07271L2.60759 7.07175L2.60849 7.07107C2.64078 7.04808 2.67406 7.0265 2.70824 7.00639L14.2861 0.195857C14.3289 0.170081 14.3731 0.146676 14.4185 0.12575C14.42 0.125036 14.4214 0.124429 14.4229 0.12375C14.4621 0.105792 14.5022 0.0897025 14.543 0.0755357L14.5489 0.0735C14.5684 0.0668214 14.588 0.0606071 14.6077 0.0548214L14.6127 0.0533929C14.6322 0.0477734 14.6518 0.0425935 14.6716 0.0378571L14.6794 0.0359643C14.6854 0.0345357 14.6915 0.0331786 14.6975 0.0318571L14.7043 0.0303929C14.7185 0.0273486 14.7327 0.0245268 14.747 0.0219286C14.7519 0.0210357 14.7567 0.0201429 14.7616 0.0193214C14.7998 0.0128012 14.8383 0.00793948 14.8769 0.00474999L14.889 0.00375L14.8939 0.0034643C14.9025 0.00282144 14.9112 0.00225 14.9198 0.00182142L14.9267 0.0015C14.9479 0.000506778 14.9692 6.64296e-06 14.9904 0ZM6.08916 21.818L13.6265 26.252L13.6265 21.8182C13.6265 21.5485 13.7065 21.2849 13.8564 21.0606C14.0062 20.8364 14.2192 20.6616 14.4683 20.5584C14.7175 20.4552 14.9917 20.4282 15.2562 20.4808C15.5207 20.5334 15.7637 20.6633 15.9544 20.854C16.2101 21.1097 16.3538 21.4566 16.3538 21.8182L16.3537 26.2523L23.8912 21.8183L14.99 16.5823L6.08916 21.818ZM16.3538 14.2204L25.2176 19.4343V10.6421L21.8492 12.7474C21.5426 12.9353 21.1742 12.9945 20.8241 12.9121C20.4741 12.8297 20.1708 12.6124 19.9802 12.3075C19.7896 12.0025 19.7272 11.6346 19.8065 11.2839C19.8858 10.9331 20.1005 10.6279 20.4038 10.4347L23.9517 8.21718L20.0945 5.94821L16.3538 3.74757V14.2204ZM6.02881 8.21729L9.57659 10.4347C9.8802 10.6278 10.0952 10.933 10.1747 11.2839C10.2542 11.6349 10.1918 12.003 10.0011 12.3081C9.81044 12.6132 9.50688 12.8306 9.15661 12.9129C8.80634 12.9952 8.43774 12.9357 8.13113 12.7474L4.76324 10.6424V19.4338L13.6266 14.22V3.74779L6.02881 8.21729Z" fill="black"/>
</svg>
