<svg width="30" height="30" viewBox="0 0 30 30" fill="none" xmlns="http://www.w3.org/2000/svg">
<path d="M13.2143 28.9286C11.4391 28.9286 10 27.4895 10 25.7143V20.3571H12.2857V25.7143C12.2857 26.2271 12.7015 26.6428 13.2143 26.6428H26.7857C27.2985 26.6428 27.7143 26.2271 27.7143 25.7143V4.2857C27.7143 3.77288 27.2985 3.35713 26.7857 3.35713H13.2143C12.7015 3.35713 12.2857 3.77288 12.2857 4.2857V9.64284H10V4.2857C10 2.51048 11.4391 1.07141 13.2143 1.07141H26.7857C28.5609 1.07141 30 2.51048 30 4.2857V25.7143C30 27.4895 28.5609 28.9286 26.7857 28.9286H13.2143Z" fill="#333333"/>
<path d="M20.2857 17.6786H7.71429V20.8156L7.71111 20.8171C7.71321 20.842 7.71429 20.8673 7.71429 20.8929C7.71429 21.386 7.31454 21.7857 6.82143 21.7857C6.7039 21.7859 6.58751 21.7627 6.47897 21.7177C6.37043 21.6726 6.27189 21.6065 6.18904 21.5232L6.14893 21.5418L0.357429 15.7503C0.140393 15.5874 0 15.328 0 15.0357C0 14.7592 0.125714 14.512 0.323107 14.3483L0.323071 14.3359L6.16454 8.49447L6.17004 8.49651C6.33293 8.32279 6.56454 8.21429 6.82143 8.21429C7.29846 8.21429 7.68814 8.5884 7.71304 9.05922L7.71429 9.05969V12.3214H20.2857C20.9169 12.3214 21.4286 12.8331 21.4286 13.4643V16.5357C21.4286 17.1669 20.9169 17.6786 20.2857 17.6786Z" fill="#333333"/>
</svg>
