<svg width="30" height="30" viewBox="0 0 30 30" fill="none" xmlns="http://www.w3.org/2000/svg">
<g clip-path="url(#clip0_42_119)">
<path d="M25.6409 16.5947C25.7396 16.7575 25.7961 16.9423 25.8053 17.1324L26.3691 28.802C26.3996 29.4324 25.9131 29.9682 25.2826 29.9987C25.2643 29.9996 25.2459 30 25.2275 30H4.76724C4.13599 30 3.62429 29.4883 3.62429 28.8572C3.62429 28.8388 3.62472 28.8204 3.62561 28.802L4.18942 17.1323C4.21989 16.5019 4.7557 16.0155 5.38619 16.046C5.57632 16.0551 5.76115 16.1117 5.9239 16.2104L14.4045 21.3548C14.5833 21.4632 14.7883 21.5205 14.9974 21.5205C15.2064 21.5205 15.4115 21.4632 15.5902 21.3548L24.0708 16.2104C24.6105 15.883 25.3135 16.0551 25.6409 16.5947V16.5947ZM23.6147 19.1605L16.7758 23.309C15.6938 23.9653 14.3392 23.9719 13.2518 23.3287L13.2189 23.309L6.38007 19.1605L5.96672 27.7143H24.0279L23.6146 19.1605H23.6147ZM28.8558 20.8216C29.4871 20.8216 29.9988 21.3332 29.9988 21.9644C29.9988 22.5956 29.4871 23.1072 28.8558 23.1072C28.2246 23.1072 27.7128 22.5956 27.7128 21.9644C27.7128 21.3332 28.2246 20.8216 28.8558 20.8216ZM15.5229 0.131796L29.3852 7.44587C29.7509 7.63886 29.9682 8.00257 29.9911 8.38757C29.9962 8.42278 29.9988 8.45839 29.9988 8.49421V18.6093C29.9988 19.2403 29.4869 19.752 28.8555 19.752C28.224 19.752 27.7121 19.2404 27.7121 18.6093L27.7121 10.5249L15.5791 18.1819C15.2062 18.4173 14.7315 18.4176 14.3593 18.1826L0.531369 9.45309C-0.0017656 9.11652 -0.160192 8.41092 0.177517 7.87704C0.284142 7.70849 0.432896 7.57068 0.609083 7.47722L14.4542 0.133475C14.6187 0.0461151 14.802 0.000293963 14.9883 1.40975e-06C15.1746 -0.000291143 15.3581 0.0449537 15.5229 0.131796ZM14.9598 2.43462L3.39836 8.55139L14.971 15.8703L26.559 8.57039L14.9598 2.43462Z" fill="#333333"/>
</g>
<defs>
<clipPath id="clip0_42_119">
<rect width="30" height="30" fill="white"/>
</clipPath>
</defs>
</svg>
