<svg width="30" height="30" viewBox="0 0 30 30" fill="none" xmlns="http://www.w3.org/2000/svg">
<g clip-path="url(#clip0_42_160)">
<path fill-rule="evenodd" clip-rule="evenodd" d="M8.88008 24.8505C11.7902 24.8762 13.9853 24.8269 15.0318 24.6952C18.1652 24.2971 20.9889 22.6289 22.8493 20.0001C26.383 14.8936 25.1303 7.87328 20.0483 4.32378C14.9478 0.756711 7.93997 1.99443 4.36397 7.08603L4.36366 7.08649C1.28457 11.4805 1.67367 17.3501 5.22719 21.1683C5.4739 21.4334 5.64369 21.7347 5.74805 22.0501C5.82233 22.2747 5.85947 22.4929 5.87076 22.7077C5.88497 22.9783 5.85851 23.2233 5.80619 23.4695C5.74501 23.7573 5.64769 24.0432 5.51547 24.3611C5.45505 24.5057 5.39141 24.649 5.32462 24.7907C6.54783 24.8197 7.74619 24.8405 8.88008 24.8505ZM3.55394 22.7255C-0.703489 18.1509 -1.23303 11.0888 2.4928 5.77332C6.78872 -0.344431 15.2182 -1.84347 21.3582 2.45071C27.478 6.725 28.9777 15.1724 24.722 21.3107C22.4324 24.5519 18.9875 26.4967 15.3199 26.9627C12.0984 27.368 1.4868 26.9629 1.48355 26.9627C1.48355 26.9627 3.90455 23.1022 3.55397 22.7255H3.55394ZM11.8571 11.8571V8.85714C11.8571 7.91036 12.6246 7.14286 13.5714 7.14286C14.5182 7.14286 15.2857 7.91036 15.2857 8.85714V11.8571H18.2857C19.2325 11.8571 20 12.6246 20 13.5714C20 14.5182 19.2325 15.2857 18.2857 15.2857H15.2857V18.2857C15.2857 19.2325 14.5182 20 13.5714 20C12.6246 20 11.8571 19.2325 11.8571 18.2857V15.2857H8.85714C7.91036 15.2857 7.14286 14.5182 7.14286 13.5714C7.14286 12.6246 7.91036 11.8571 8.85714 11.8571H11.8571ZM17.3214 28.7857C17.3214 29.1756 17.5817 29.5046 17.938 29.6086L17.937 29.612C18.369 29.7298 18.8088 29.8172 19.253 29.8736C21.501 30.1564 28.8789 29.8767 28.9586 29.8737L28.9593 29.8736C28.9586 29.8726 27.261 27.1654 27.5069 26.9012C29.769 24.4706 30.5309 21.039 29.6317 17.8969C29.5654 17.4895 29.2119 17.1786 28.7857 17.1786C28.3123 17.1786 27.9286 17.5623 27.9286 18.0357C27.9285 18.134 27.9453 18.2315 27.9783 18.3241C27.9767 18.3264 27.9756 18.329 27.9751 18.3317C27.9746 18.3345 27.9748 18.3373 27.9755 18.34C28.7217 20.9117 28.1167 23.7313 26.2527 25.734C25.9244 26.0868 25.7929 26.4843 25.772 26.883C25.7614 27.0837 25.781 27.2646 25.8195 27.4459C25.8641 27.6557 25.9344 27.862 26.0295 28.0907C26.0502 28.1405 26.0722 28.1916 26.0956 28.2441C25.2958 28.2624 24.5129 28.2756 23.7696 28.2821C21.7332 28.3002 20.1963 28.2656 19.4669 28.1738C19.1363 28.1318 18.8087 28.0689 18.4861 27.9854C18.3906 27.9487 18.287 27.9286 18.1786 27.9286C17.7052 27.9286 17.3214 28.3123 17.3214 28.7857Z" fill="#333333"/>
</g>
<defs>
<clipPath id="clip0_42_160">
<rect width="30" height="30" fill="white"/>
</clipPath>
</defs>
</svg>
