<svg width="30" height="30" viewBox="0 0 30 30" fill="none" xmlns="http://www.w3.org/2000/svg">
<path d="M10.2857 7.14286C10.9169 7.14286 11.4286 6.63118 11.4286 6V5.5H18.5714V6C18.5714 6.63118 19.0831 7.14286 19.7143 7.14286C20.3455 7.14286 20.8571 6.63118 20.8571 6V5.5H25.7143C26.8189 5.5 27.7143 6.39543 27.7143 7.5V11.0714H2.28571V7.5C2.28571 6.39543 3.18114 5.5 4.28571 5.5H9.14286V6C9.14286 6.63118 9.65454 7.14286 10.2857 7.14286ZM18.5714 3.21429H11.4286V1.14286C11.4286 0.511678 10.9169 0 10.2857 0C9.65454 0 9.14286 0.511678 9.14286 1.14286V3.21429H4.28571C1.91879 3.21429 0 5.13307 0 7.5V25.7143C0 28.0812 1.91879 30 4.28571 30H25.7143C28.0812 30 30 28.0812 30 25.7143V7.5C30 5.13307 28.0812 3.21429 25.7143 3.21429H20.8571V1.14286C20.8571 0.511678 20.3455 0 19.7143 0C19.0831 0 18.5714 0.511678 18.5714 1.14286V3.21429ZM2.28571 25.7143V13.3571H27.7143V25.7143C27.7143 26.8189 26.8189 27.7143 25.7143 27.7143H4.28571C3.18114 27.7143 2.28571 26.8189 2.28571 25.7143ZM17.5714 22C16.9402 22 16.4286 22.5117 16.4286 23.1429C16.4286 23.774 16.9402 24.2857 17.5714 24.2857H23.8571C24.4883 24.2857 25 23.774 25 23.1429C25 22.5117 24.4883 22 23.8571 22H17.5714Z" fill="#333333"/>
</svg>
