<svg width="30" height="30" viewBox="0 0 30 30" fill="none" xmlns="http://www.w3.org/2000/svg">
<g clip-path="url(#clip0_3410_37)">
<path d="M0 25.439V20.621C0 19.8759 0.603974 19.2719 1.34902 19.2719C2.09407 19.2719 2.69805 19.8759 2.69808 20.621V25.439C2.69811 25.933 2.8944 26.4069 3.24375 26.7562C3.59311 27.1056 4.06694 27.3019 4.56101 27.3019H9.379C10.1241 27.3019 10.7281 27.9059 10.7281 28.6509C10.7281 29.396 10.1241 30 9.379 30H4.56101C3.35136 29.9999 2.19126 29.5194 1.33591 28.6641C0.48056 27.8087 1.98906e-05 26.6486 0 25.439ZM27.3019 25.439V20.621C27.3019 19.8759 27.9059 19.2719 28.6509 19.2719C29.396 19.2719 30 19.8759 30 20.621V25.439C29.9999 26.6486 29.5194 27.8087 28.664 28.664C27.8087 29.5194 26.6486 29.9999 25.439 30H20.621C19.8759 30 19.2719 29.396 19.2719 28.6509C19.2719 27.9059 19.8759 27.3019 20.621 27.3019H25.439C25.933 27.3019 26.4069 27.1056 26.7563 26.7563C27.1056 26.4069 27.3019 25.933 27.3019 25.439ZM18.9543 20.3876C19.5267 19.9106 20.3774 19.9879 20.8543 20.5603C21.3313 21.1327 21.254 21.9833 20.6816 22.4603C18.9074 23.9388 17.0063 24.7805 15 24.7805C12.9937 24.7805 11.0926 23.9388 9.31836 22.4603C8.746 21.9833 8.66868 21.1327 9.14564 20.5603C9.6226 19.9879 10.4733 19.9106 11.0456 20.3876C12.4834 21.5858 13.7943 22.0824 15 22.0824C16.2056 22.0824 17.5166 21.5858 18.9543 20.3876ZM13.651 16.606V10.985C13.651 10.2399 14.2549 9.63595 15 9.63595C15.745 9.63595 16.349 10.2399 16.349 10.985V16.606C16.349 17.3897 16.0377 18.1413 15.4835 18.6955C14.9293 19.2496 14.1777 19.561 13.394 19.561H12.591C11.8459 19.561 11.242 18.957 11.242 18.212C11.242 17.4669 11.8459 16.8629 12.591 16.8629H13.394C13.4621 16.8629 13.5275 16.8358 13.5757 16.7877C13.6239 16.7395 13.6509 16.6741 13.651 16.606ZM8.83296 14.197V10.985C8.83296 10.24 9.43694 9.63595 10.182 9.63595C10.927 9.63595 11.531 10.2399 11.531 10.985V14.197C11.531 14.942 10.927 15.546 10.182 15.546C9.43694 15.546 8.83296 14.942 8.83296 14.197ZM18.469 14.197V10.985C18.469 10.2399 19.0729 9.63595 19.818 9.63595C20.563 9.63595 21.167 10.24 21.167 10.985V14.197C21.167 14.942 20.563 15.546 19.818 15.546C19.0729 15.546 18.469 14.942 18.469 14.197ZM0 9.379V4.56101C0 3.35135 0.480533 2.19124 1.33589 1.33589C2.19124 0.480533 3.35135 0 4.56101 0L9.379 0C10.1241 0 10.7281 0.603974 10.7281 1.34902C10.7281 2.09407 10.1241 2.69805 9.379 2.69808H4.56101C4.06693 2.69809 3.5931 2.89437 3.24373 3.24373C2.89437 3.5931 2.69809 4.06693 2.69808 4.56101V9.379C2.69808 10.1241 2.09407 10.7281 1.34902 10.7281C0.603974 10.7281 0 10.1241 0 9.379ZM27.3019 9.379V4.56101C27.3019 4.06694 27.1056 3.59311 26.7562 3.24374C26.4069 2.89438 25.933 2.6981 25.439 2.69808H20.621C19.8759 2.69808 19.2719 2.09407 19.2719 1.34902C19.2719 0.603974 19.8759 0 20.621 0H25.439C26.6486 1.98906e-05 27.8087 0.48056 28.6641 1.33591C29.5194 2.19126 29.9999 3.35136 30 4.56101V9.379C30 10.1241 29.396 10.7281 28.6509 10.7281C27.9059 10.7281 27.3019 10.1241 27.3019 9.379Z" fill="black"/>
</g>
<defs>
<clipPath id="clip0_3410_37">
<rect width="30" height="30" fill="white"/>
</clipPath>
</defs>
</svg>
