<svg width="30" height="30" viewBox="0 0 30 30" fill="none" xmlns="http://www.w3.org/2000/svg">
<path d="M4.41175 20.1447V23.0846C4.41155 23.8263 4.69181 24.5407 5.19632 25.0845C5.70097 25.6284 6.3925 25.9615 7.13236 26.0171L7.35293 26.0244H11.7647V28.9643H7.35293C5.79298 28.9643 4.29687 28.3449 3.1935 27.2422C2.64732 26.6963 2.21403 26.0482 1.91841 25.3348C1.62278 24.6214 1.47061 23.8568 1.47057 23.0846V20.1447H4.41175ZM23.5294 12.7951L30 28.9643H26.8309L25.0647 24.5545H19.05L17.2867 28.9643H14.1191L20.5883 12.7951H23.5294ZM22.0588 17.0358L20.225 21.6147H23.8897L22.0588 17.0358ZM8.82354 1.03571V3.97556H14.7059V14.265H8.82354V18.6748H5.88236V14.265H0V3.97556H5.88236V1.03571H8.82354ZM22.0588 2.50563C23.6188 2.50558 25.1149 3.12501 26.2183 4.22774C26.7645 4.77362 27.1977 5.42175 27.4934 6.13512C27.789 6.84849 27.9411 7.61312 27.9412 8.38531V11.3252H25V8.38531C25 7.99921 24.9239 7.6169 24.7761 7.26021C24.6283 6.90353 24.4116 6.57946 24.1385 6.30653C23.5868 5.75518 22.8388 5.44548 22.0588 5.44549H17.6471V2.50563H22.0588ZM5.88236 6.91542H2.94118V11.3252H5.88236V6.91542ZM11.7647 6.91542H8.82354V11.3252H11.7647V6.91542Z" fill="black"/>
</svg>
