<svg width="30" height="30" viewBox="0 0 30 30" fill="none" xmlns="http://www.w3.org/2000/svg">
<g clip-path="url(#clip0_42_174)">
<path d="M15 30C6.71571 30 0 23.2843 0 15C0 6.71571 6.71571 0 15 0C23.2843 0 30 6.71571 30 15C30 23.2843 23.2843 30 15 30ZM15 27.7143C22.0219 27.7143 27.7143 22.0219 27.7143 15C27.7143 7.97811 22.0219 2.28571 15 2.28571C7.97811 2.28571 2.28571 7.97811 2.28571 15C2.28571 22.0219 7.97811 27.7143 15 27.7143ZM15 13.3837L19.6972 8.68654C20.1435 8.24025 20.8671 8.24025 21.3135 8.68654C21.7597 9.13286 21.7597 9.85646 21.3135 10.3028L16.6162 15L21.3135 19.6972C21.7597 20.1435 21.7597 20.8671 21.3135 21.3135C20.8671 21.7597 20.1435 21.7597 19.6972 21.3135L15 16.6162L10.3028 21.3135C9.85646 21.7597 9.13286 21.7597 8.68654 21.3135C8.24025 20.8671 8.24025 20.1435 8.68654 19.6972L13.3837 15L8.68654 10.3028C8.24025 9.85646 8.24025 9.13286 8.68654 8.68654C9.13286 8.24025 9.85646 8.24025 10.3028 8.68654L15 13.3837Z" fill="#333333"/>
</g>
<defs>
<clipPath id="clip0_42_174">
<rect width="30" height="30" fill="white"/>
</clipPath>
</defs>
</svg>
