<svg width="30" height="30" viewBox="0 0 30 30" fill="none" xmlns="http://www.w3.org/2000/svg">
<g clip-path="url(#clip0_42_279)">
<path fill-rule="evenodd" clip-rule="evenodd" d="M25.6066 4.39338C26.9838 5.77059 28.0652 7.37461 28.8207 9.16095C29.6033 11.011 30 12.9755 30 15C30 17.0245 29.6033 18.989 28.8208 20.839C28.0652 22.6253 26.9838 24.2294 25.6066 25.6066C24.2294 26.9838 22.6253 28.0652 20.839 28.8207C18.989 29.6033 17.0245 30 15 30C12.6911 30 10.476 29.4891 8.41619 28.4814C7.84987 28.2044 7.61536 27.5207 7.89243 26.9544C8.16949 26.3881 8.85314 26.1536 9.41943 26.4306C11.1642 27.2842 13.0418 27.717 15 27.717C18.3968 27.717 21.5903 26.3942 23.9923 23.9923C26.3942 21.5903 27.717 18.3968 27.717 15C27.717 11.6032 26.3942 8.40967 23.9923 6.00774C21.5903 3.60581 18.3968 2.283 15 2.283C11.6032 2.283 8.40967 3.60585 6.00774 6.00774C3.60581 8.40963 2.283 11.6032 2.283 15C2.283 17.4276 2.96904 19.7874 4.26699 21.8241C4.60577 22.3558 4.44942 23.0614 3.91776 23.4002C3.38611 23.739 2.68049 23.5826 2.34168 23.051C0.809715 20.6471 0 17.8631 0 15C0 12.9755 0.396778 11.011 1.1792 9.16099C1.93477 7.37465 3.01616 5.77063 4.39338 4.39341C5.77059 3.0162 7.37461 1.9348 9.16095 1.17924C11.011 0.396778 12.9755 0 15 0C17.0245 0 18.989 0.396778 20.839 1.1792C22.6253 1.93477 24.2294 3.01619 25.6066 4.39338ZM16.1834 22.014H13.5917V24.7392H16.1834V22.014ZM18.6548 14.6531C17.7552 15.5173 17.1586 16.1318 16.8647 16.4967C16.5708 16.862 16.3479 17.2982 16.1969 17.8058C16.0453 18.3135 15.9785 18.9948 15.9964 19.8498H13.6452C13.6452 18.8524 13.7254 18.0555 13.8857 17.4585C14.046 16.862 14.2865 16.341 14.6071 15.8955C14.9277 15.4505 15.5063 14.7959 16.3438 13.9317C17.1808 13.068 17.7197 12.4401 17.9602 12.0481C18.2007 11.6565 18.3209 11.0729 18.3209 10.2981C18.3209 9.52323 18.0445 8.83773 17.4927 8.24076C16.9403 7.64419 16.1388 7.34568 15.088 7.34568C12.7188 7.34568 11.5345 8.75297 11.5345 11.5672H9.18326C9.21876 10.2847 9.37029 9.30949 9.63747 8.64153C9.90466 7.97358 10.3321 7.377 10.9199 6.85141C11.5077 6.32622 12.1623 5.93882 12.8837 5.68916C13.6051 5.43992 14.3666 5.3151 15.1681 5.3151C16.7887 5.3151 18.138 5.79185 19.216 6.74454C20.2934 7.69762 20.8324 8.96672 20.8324 10.5519C20.8324 11.2645 20.6942 11.9103 20.4183 12.4889C20.1419 13.0679 19.5541 13.7893 18.6548 14.6531Z" fill="#333333"/>
</g>
<defs>
<clipPath id="clip0_42_279">
<rect width="30" height="30" fill="white"/>
</clipPath>
</defs>
</svg>
