<svg width="30" height="30" viewBox="0 0 30 30" fill="none" xmlns="http://www.w3.org/2000/svg">
<g clip-path="url(#clip0_42_186)">
<path fill-rule="evenodd" clip-rule="evenodd" d="M29.0507 6.06099L13.9187 21.1874L13.7142 26.6937L12.3911 30L7.52206 22.4778L0 17.574L3.14573 16.1327L8.77382 16.1063L12.0932 12.7882L3.12748 7.48209L7.08821 5.72795L18.2246 6.65903L23.9368 0.948954C25.2025 -0.316318 27.2621 -0.316318 28.5278 0.948954L29.0507 1.47172C30.3164 2.73699 30.3164 4.79572 29.0507 6.06099ZM7.40131 7.58693L7.10943 7.7162L13.4269 11.455L16.5326 8.35036L7.40131 7.58693ZM3.9298 17.9555L8.84519 21.1599L11.9152 25.9029L12.1174 20.4608L12.0895 20.433L27.7589 4.76946C28.3122 4.21631 28.3122 3.31625 27.7589 2.76311L27.2358 2.24038C26.6825 1.68723 25.7822 1.68723 25.2288 2.24038L9.55951 17.9039L9.53664 17.881L9.53686 17.9292L3.9298 17.9555ZM18.6811 17.4937L21.2461 21.832L21.3433 21.5936L20.7766 14.3874L22.3646 14.2626L22.9609 21.8449L21.5093 25.4067L17.3098 18.3039L18.6811 17.4937Z" fill="#333333"/>
</g>
<defs>
<clipPath id="clip0_42_186">
<rect width="30" height="30" fill="white"/>
</clipPath>
</defs>
</svg>
