<svg width="30" height="30" viewBox="0 0 30 30" fill="none" xmlns="http://www.w3.org/2000/svg">
<g clip-path="url(#clip0_42_294)">
<path fill-rule="evenodd" clip-rule="evenodd" d="M19.2857 5.67857H10.4286C9.79739 5.67857 9.28571 5.16689 9.28571 4.53571V1.14286C9.28571 0.511678 9.79739 0 10.4286 0H19.2857C19.9169 0 20.4286 0.511678 20.4286 1.14286V4.53571C20.4286 5.16689 19.9169 5.67857 19.2857 5.67857ZM18.7143 1.71429H11V3.96429H18.7143V1.71429ZM6.30439 11.9232C5.96964 11.5885 5.96964 11.0458 6.30439 10.711C6.63914 10.3763 7.18182 10.3763 7.51661 10.711L8.91143 12.1058L11.8582 9.15896C12.1929 8.82421 12.7357 8.82421 13.0704 9.15896C13.4051 9.49371 13.4051 10.0364 13.0704 10.3711L10.0064 13.4353C9.7045 13.7371 9.30796 13.8881 8.91143 13.8881C8.51489 13.8881 8.11839 13.7372 7.8165 13.4353L6.30439 11.9232ZM15.1429 10.5412H22.75C23.2234 10.5412 23.6071 10.925 23.6071 11.3984C23.6071 11.8718 23.2234 12.2555 22.75 12.2555H15.1429C14.6695 12.2555 14.2857 11.8718 14.2857 11.3984C14.2857 10.925 14.6695 10.5412 15.1429 10.5412ZM15.1429 19.375H22.75C23.2234 19.375 23.6071 19.7587 23.6071 20.2321C23.6071 20.7055 23.2234 21.0893 22.75 21.0893H15.1429C14.6695 21.0893 14.2857 20.7055 14.2857 20.2321C14.2857 19.7587 14.6695 19.375 15.1429 19.375ZM9.68739 23.5714C7.84611 23.5714 6.34811 22.0734 6.34811 20.2321C6.34811 18.3909 7.84611 16.8929 9.68739 16.8929C11.5287 16.8929 13.0267 18.3909 13.0267 20.2321C13.0267 22.0734 11.5287 23.5714 9.68739 23.5714ZM9.68739 21.8571C10.5834 21.8571 11.3124 21.1282 11.3124 20.2321C11.3124 19.3361 10.5834 18.6071 9.68739 18.6071C8.79136 18.6071 8.06239 19.3361 8.06239 20.2321C8.06239 21.1282 8.79136 21.8571 9.68739 21.8571ZM21.5714 1.46429H24.4613C26.255 1.46429 27.7143 2.92204 27.7143 4.71386V26.7505C27.7143 28.5423 26.255 30 24.4613 30H5.25296C3.45929 30 2 28.5423 2 26.7505V4.71386C2 2.92204 3.45929 1.46429 5.25296 1.46429H8.14286V3.75H5.25296C4.71964 3.75 4.28571 4.18236 4.28571 4.71386V26.7505C4.28571 27.2819 4.71964 27.7143 5.25296 27.7143H24.4613C24.9947 27.7143 25.4286 27.2819 25.4286 26.7505V4.71386C25.4286 4.18236 24.9947 3.75 24.4613 3.75H21.5714V1.46429Z" fill="#333333"/>
</g>
<defs>
<clipPath id="clip0_42_294">
<rect width="30" height="30" fill="white"/>
</clipPath>
</defs>
</svg>
