<svg width="30" height="30" viewBox="0 0 30 30" fill="none" xmlns="http://www.w3.org/2000/svg">
<g clip-path="url(#clip0_42_286)">
<path fill-rule="evenodd" clip-rule="evenodd" d="M18.1993 0C19.8475 0 21.1872 1.32186 21.2139 2.96314L21.2143 3.013V4.85714H24.6161C26.3929 4.85714 27.8282 6.301 27.8567 8.08304L27.8571 8.13714V13.9913C27.8571 14.6225 27.3455 15.1342 26.7143 15.1342C26.0894 15.1342 25.5817 14.6327 25.5716 14.0102L25.5714 13.9913V12.875H21.8571V13.8571C21.8571 14.4883 21.3455 15 20.7143 15C20.0894 15 19.5817 14.4985 19.5716 13.8761L19.5714 13.8571V12.875H8.28571V13.8571C8.28571 14.4883 7.77404 15 7.14286 15C6.518 15 6.01025 14.4985 6.00014 13.8761L6 13.8571V12.875H2.28571V24.6129C2.28571 25.1611 2.70957 25.5983 3.22536 25.607L3.24104 25.6071H13.9819C14.613 25.6071 15.1247 26.1188 15.1247 26.75C15.1247 27.3749 14.6232 27.8826 14.0007 27.8929H3.24104C1.46425 27.8929 0.0289643 26.449 0.000428643 24.667L0 24.6129V8.13714C0 6.34839 1.4175 4.88664 3.18729 4.85757L3.24104 4.85714H6.64286V3.013C6.64286 1.36532 7.96611 0.027 9.60796 0.00039288L9.65786 0H18.1993ZM24.6161 7.14286H3.24107C2.72343 7.14286 2.29439 7.57457 2.28589 8.12057L2.28575 8.13714V10.5893H6.00004V9.57143C6.00004 8.94025 6.51171 8.42857 7.14289 8.42857C7.76775 8.42857 8.2755 8.93007 8.28561 9.5525L8.28575 9.57143V10.5893H19.5715V9.57143C19.5715 8.94025 20.0831 8.42857 20.7143 8.42857C21.3392 8.42857 21.8469 8.93007 21.857 9.5525L21.8572 9.57143V10.5893H25.5715V8.13714C25.5715 7.58889 25.1476 7.15168 24.6318 7.143L24.6161 7.14286H24.6161ZM18.1993 2.28571H9.65782C9.25896 2.28571 8.93532 2.60493 8.92868 3.00061L8.92857 3.013V4.85714H18.9286V3.013C18.9286 2.61575 18.609 2.29243 18.2118 2.28582L18.1993 2.28571ZM22.5 15C26.6421 15 30 18.3579 30 22.5C30 26.6421 26.6421 30 22.5 30C18.3579 30 15 26.6421 15 22.5C15 18.3579 18.3579 15 22.5 15ZM22.5 17.2857C19.6202 17.2857 17.2857 19.6202 17.2857 22.5C17.2857 25.3798 19.6202 27.7143 22.5 27.7143C23.9422 27.7143 25.2477 27.1288 26.1917 26.1825H21.4129V25.6185C20.5176 25.7055 19.6711 25.8142 18.8731 25.9446L18.7119 24.8704C19.5457 24.809 20.4691 24.7016 21.4819 24.5481C21.464 24.7706 21.4537 25.0085 21.4512 25.2617H23.3465V23.8883H21.8118V22.9675H25.9706V23.8882H24.4437V25.2618H26.2929V26.0781C27.1741 25.1444 27.7143 23.8853 27.7143 22.5C27.7143 19.6202 25.3798 17.2857 22.5 17.2857ZM21.3207 23.9957C20.2363 24.0673 19.4665 24.1466 19.0112 24.2336L19.0111 24.2335L18.7733 23.3511C19.1109 23.034 19.4741 22.6056 19.8629 22.0659C19.5201 22.0915 19.2311 22.1235 18.9958 22.1618L18.6429 21.2871C19.1186 20.7142 19.5892 19.8804 20.0547 18.7857L21.0676 19.1464C20.643 19.9341 20.2261 20.6196 19.8169 21.2027L20.4614 21.1759C20.6506 20.8766 20.845 20.5531 21.0446 20.2052L21.9653 20.6656C21.1878 21.7808 20.5739 22.6145 20.1238 23.167C20.6353 23.1312 21.0548 23.0954 21.3822 23.0596C21.3412 23.4228 21.3207 23.7348 21.3207 23.9957ZM24.0447 21.6938C23.395 22.1772 22.6533 22.5762 21.8195 22.8908C21.6456 22.5531 21.4691 22.2437 21.2901 21.9623C22.6201 21.502 23.6661 20.8804 24.4283 20.0978H21.7888V19.177H25.6867V20.0288C25.4246 20.393 25.1305 20.7332 24.8081 21.0454C25.3351 21.3102 25.8582 21.5826 26.3773 21.8626L25.7634 22.7373C25.1598 22.3485 24.5869 22.0007 24.0447 21.6938Z" fill="#333333"/>
</g>
<defs>
<clipPath id="clip0_42_286">
<rect width="30" height="30" fill="white"/>
</clipPath>
</defs>
</svg>
