<svg width="30" height="30" viewBox="0 0 30 30" fill="none" xmlns="http://www.w3.org/2000/svg">
<path d="M29.6579 12.8503L20.3856 1.73421C20.1325 1.43064 19.7756 1.24332 19.3807 1.20657C18.9854 1.16978 18.5999 1.28828 18.2945 1.53996L0.536465 16.1762C-0.0937854 16.6956 -0.181428 17.628 0.341143 18.2549L7.30836 26.6075H3.28654C2.65564 26.6075 2.14421 27.1159 2.14421 27.743C2.14421 28.3702 2.65564 28.8786 3.28654 28.8786H26.7047C27.3356 28.8786 27.847 28.3702 27.847 27.743C27.847 27.1159 27.3356 26.6075 26.7047 26.6075H15.2931L29.4627 14.9288C29.7681 14.6771 29.9566 14.3222 29.9934 13.9297C30.0303 13.5368 29.911 13.1532 29.6579 12.8503ZM11.7136 26.6075H10.2762L2.61021 17.4172L4.05746 16.2244C4.02877 16.3096 4.01066 16.398 4.00354 16.4877C3.95432 17.1029 4.42471 17.6406 5.05418 17.6887L15.5195 18.4885C15.6009 18.4956 15.6815 18.4991 15.7616 18.4991C17.1276 18.4991 18.2985 17.4815 18.4329 16.1278L19.5701 5.89793C19.6383 5.28446 19.1848 4.73314 18.5571 4.66646C18.3588 4.64503 18.1583 4.67501 17.975 4.75353L19.1372 3.79564L27.3887 13.688L11.7136 26.6075ZM17.4785 5.16271C17.3789 5.31018 17.3166 5.47967 17.297 5.65657L16.159 15.8936L16.1572 15.9103C16.1367 16.1247 15.9419 16.2827 15.7224 16.2628L15.7138 16.262L5.23246 15.4609C5.14595 15.4542 5.05897 15.4572 4.97311 15.4697L17.4785 5.16271Z" fill="#333333"/>
</svg>
