<svg width="30" height="30" viewBox="0 0 30 30" fill="none" xmlns="http://www.w3.org/2000/svg">
<path d="M30 22.8571C30 23.8858 29.5651 24.8129 28.8691 25.4646C28.8534 25.4794 28.8375 25.494 28.8214 25.5085C28.1882 26.0804 27.349 26.4286 26.4286 26.4286H3.57143C2.62749 26.4286 1.76909 26.0624 1.13053 25.4643C0.43476 24.8126 0 23.8857 0 22.8571C0 20.8847 1.59898 19.2857 3.57143 19.2857H9.96429V15.5084C7.82155 13.9502 6.42857 11.4235 6.42857 8.57143C6.42857 3.83756 10.2661 0 15 0C19.7339 0 23.5714 3.83756 23.5714 8.57143C23.5714 11.4551 22.1474 14.0061 19.9643 15.5598V19.2857H26.4286C28.401 19.2857 30 20.8847 30 22.8571ZM17.6786 21.5714V14.381L18.639 13.6975C20.2455 12.5543 21.2857 10.6843 21.2857 8.57143C21.2857 5.09993 18.4715 2.28571 15 2.28571C11.5285 2.28571 8.71429 5.09993 8.71429 8.57143C8.71429 10.6613 9.73187 12.5132 11.3086 13.6598L12.25 14.3444V21.5714H3.57143C2.86135 21.5714 2.28571 22.1471 2.28571 22.8571C2.28571 23.5672 2.86135 24.1429 3.57143 24.1429H26.4286C27.1387 24.1429 27.7143 23.5672 27.7143 22.8571C27.7143 22.1471 27.1387 21.5714 26.4286 21.5714H17.6786Z" fill="#333333"/>
<path d="M3.96433 27.7143C3.33315 27.7143 2.82147 28.226 2.82147 28.8571C2.82147 29.4883 3.33315 30 3.96433 30H25.9643C26.5955 30 27.1072 29.4883 27.1072 28.8571C27.1072 28.226 26.5955 27.7143 25.9643 27.7143H3.96433Z" fill="#333333"/>
</svg>
