<svg width="30" height="30" viewBox="0 0 30 30" fill="none" xmlns="http://www.w3.org/2000/svg">
<path fill-rule="evenodd" clip-rule="evenodd" d="M24.3929 0C27.4896 0 30 2.51039 30 5.60714V24.3929C30 27.4896 27.4896 30 24.3929 30H5.60714C2.51039 30 0 27.4896 0 24.3929V5.60714C0 2.51039 2.51039 0 5.60714 0H24.3929ZM24.3929 2.28571H5.60714C3.79111 2.28571 2.3155 3.74318 2.28614 5.55221L2.28571 5.60714V24.3929C2.28571 26.2089 3.74318 27.6845 5.55221 27.7139L5.60714 27.7143H24.3929C26.2089 27.7143 27.6845 26.2568 27.7139 24.4478L27.7143 24.3929V5.60714C27.7143 3.79111 26.2568 2.3155 24.4478 2.28614L24.3929 2.28571ZM22.4286 13.8571C23.0597 13.8571 23.5714 14.3688 23.5714 15C23.5714 15.6249 23.0699 16.1326 22.4475 16.1427L22.4286 16.1429H16.1429V22.4286C16.1429 23.0598 15.6312 23.5714 15 23.5714C14.3751 23.5714 13.8674 23.0699 13.8573 22.4475L13.8571 22.4286V16.1429H7.57143C6.94025 16.1429 6.42857 15.6312 6.42857 15C6.42857 14.3751 6.93007 13.8674 7.5525 13.8573L7.57143 13.8571H13.8571V7.57143C13.8571 6.94025 14.3688 6.42858 15 6.42858C15.6249 6.42858 16.1326 6.93008 16.1427 7.5525L16.1429 7.57143V13.8571H22.4286Z" fill="#333333"/>
</svg>
