<svg width="30" height="30" viewBox="0 0 30 30" fill="none" xmlns="http://www.w3.org/2000/svg">
<g clip-path="url(#clip0_42_139)">
<path d="M26 0C28.187 0 29.9641 1.75521 29.9995 3.93386L30 4V26C30 28.187 28.2448 29.9641 26.0661 29.9995L26 30H6.5C4.31296 30 2.53586 28.2448 2.50054 26.0661L2.5 26V24.8375C2.5 24.2063 3.01168 23.6946 3.64286 23.6946C4.26771 23.6946 4.77546 24.1961 4.78557 24.8186L4.78571 24.8375V26C4.78571 26.9373 5.53796 27.6989 6.47164 27.7141L6.5 27.7143H26C26.9373 27.7143 27.6989 26.962 27.7141 26.0284L27.7143 26V4C27.7143 3.06268 26.962 2.30107 26.0284 2.28593L26 2.28571H6.5C5.56268 2.28571 4.80107 3.03796 4.78593 3.97164L4.78571 4V4.74039C4.78571 5.37157 4.27404 5.88325 3.64286 5.88325C3.018 5.88325 2.51025 5.38175 2.5 4.75932V4C2.5 1.81296 4.25521 0.0358571 6.43386 0.000535675L6.5 0H26ZM16.25 5.32143C19.2087 5.32143 21.6071 7.71989 21.6071 10.6786C21.6071 12.6602 20.5312 14.3905 18.9316 15.3173C22.3923 16.4454 24.8929 19.6985 24.8929 23.5357C24.8929 24.1669 24.3812 24.6786 23.75 24.6786C23.1251 24.6786 22.6174 24.1771 22.6073 23.5546L22.6071 23.5357C22.6071 20.0247 19.761 17.1786 16.25 17.1786C12.7741 17.1786 9.94986 19.9681 9.89371 23.4306L9.89286 23.5357C9.89286 24.1669 9.38118 24.6786 8.75 24.6786C8.11882 24.6786 7.60714 24.1669 7.60714 23.5357C7.60714 19.6986 10.1077 16.4454 13.5682 15.317C11.9688 14.3905 10.8929 12.6602 10.8929 10.6786C10.8929 7.71989 13.2913 5.32143 16.25 5.32143ZM5.28571 19.8929C5.91689 19.8929 6.42857 20.4045 6.42857 21.0357C6.42857 21.6669 5.91689 22.1786 5.28571 22.1786H1.14286C0.511678 22.1786 0 21.6669 0 21.0357C0 20.4045 0.511678 19.8929 1.14286 19.8929H5.28571ZM5.28571 13.8571C5.91689 13.8571 6.42857 14.3688 6.42857 15C6.42857 15.6312 5.91689 16.1429 5.28571 16.1429H1.14286C0.511678 16.1429 0 15.6312 0 15C0 14.3688 0.511678 13.8571 1.14286 13.8571H5.28571ZM16.25 7.60714C14.5537 7.60714 13.1786 8.98228 13.1786 10.6786C13.1786 12.3749 14.5537 13.75 16.25 13.75C17.9463 13.75 19.3214 12.3749 19.3214 10.6786C19.3214 8.98228 17.9463 7.60714 16.25 7.60714ZM5.28571 7.82143C5.91689 7.82143 6.42857 8.33311 6.42857 8.96429C6.42857 9.59546 5.91689 10.1071 5.28571 10.1071H1.14286C0.511678 10.1071 0 9.59546 0 8.96429C0 8.33311 0.511678 7.82143 1.14286 7.82143H5.28571Z" fill="#333333"/>
</g>
<defs>
<clipPath id="clip0_42_139">
<rect width="30" height="30" fill="white"/>
</clipPath>
</defs>
</svg>
