<svg width="30" height="30" viewBox="0 0 30 30" fill="none" xmlns="http://www.w3.org/2000/svg">
<g clip-path="url(#clip0_42_235)">
<path fill-rule="evenodd" clip-rule="evenodd" d="M19.2857 5.67857H10.4286C9.79739 5.67857 9.28571 5.16689 9.28571 4.53571V1.14286C9.28571 0.511678 9.79739 0 10.4286 0H19.2857C19.9169 0 20.4286 0.511678 20.4286 1.14286V4.53571C20.4286 5.16689 19.9169 5.67857 19.2857 5.67857ZM18.7143 1.71429H11V3.96429H18.7143V1.71429ZM15.6844 14.3983L19.1634 8.68539H21.8969L16.8746 16.0829H20.8506V17.7151H16.1814V19.9856H20.8506V21.6284H16.1814V24.8929H13.631V21.6283H8.81796V19.9856H13.631V17.7151H8.81796V16.0829H12.8725L7.91554 8.68539H10.8321L14.298 14.4506C14.4897 14.7715 14.7078 15.1796 14.952 15.6748H15.0043C15.1786 15.2772 15.4053 14.8518 15.6844 14.3983ZM21.5714 1.46429H24.4613C26.255 1.46429 27.7143 2.92204 27.7143 4.71386V26.7505C27.7143 28.5423 26.255 30 24.4613 30H5.25296C3.45929 30 2 28.5423 2 26.7505V4.71386C2 2.92204 3.45929 1.46429 5.25296 1.46429H8.14286V3.75H5.25296C4.71964 3.75 4.28571 4.18236 4.28571 4.71386V26.7505C4.28571 27.2819 4.71964 27.7143 5.25296 27.7143H24.4613C24.9947 27.7143 25.4286 27.2819 25.4286 26.7505V4.71386C25.4286 4.18236 24.9947 3.75 24.4613 3.75H21.5714V1.46429Z" fill="#333333"/>
</g>
<defs>
<clipPath id="clip0_42_235">
<rect width="30" height="30" fill="white"/>
</clipPath>
</defs>
</svg>
