<svg width="30" height="30" viewBox="0 0 30 30" fill="none" xmlns="http://www.w3.org/2000/svg">
<g clip-path="url(#clip0_42_178)">
<path fill-rule="evenodd" clip-rule="evenodd" d="M23.5638 4.1767H27.7116C28.9755 4.1767 30 5.30011 30 6.68594V25.2357C30 26.6215 28.9755 27.7449 27.7116 27.7449H2.28844C1.02458 27.7449 0 26.6215 0 25.2357V6.6859C0 5.30007 1.02458 4.17666 2.28844 4.17666H6.43623V3.03917C6.43623 2.46527 6.95321 2 7.54691 2C8.14062 2 8.68892 2.46527 8.68892 3.03917V4.17666H21.3111V3.03917C21.3111 2.46527 21.8594 2 22.4531 2C23.0468 2 23.5638 2.46527 23.5638 3.0392V4.1767ZM27.6485 25.4565C27.6742 25.4224 27.7116 25.3497 27.7116 25.2357V10.2911H2.28844V25.2357C2.28844 25.3498 2.3258 25.4224 2.35155 25.4565H27.6485ZM2.28844 9.00834H27.7116V6.68594C27.7116 6.57191 27.6742 6.49925 27.6485 6.46514H23.5638V7.11101C23.5638 7.68491 23.0468 8.15018 22.4531 8.15018C21.8594 8.15018 21.3111 7.68491 21.3111 7.11101V6.46514H8.68892V7.11101C8.68892 7.68491 8.14058 8.15018 7.54691 8.15018C6.95324 8.15018 6.43623 7.68491 6.43623 7.11101V6.46514H2.35155C2.3258 6.49925 2.28844 6.57191 2.28844 6.68594V9.00834ZM10.7025 20.652C10.9679 20.908 11.2891 21.0361 11.6663 21.0361C12.0713 21.0361 12.4123 20.8824 12.6894 20.5751C12.9663 20.2678 13.1049 19.8535 13.1049 19.332C13.1049 18.8386 12.9722 18.4475 12.7068 18.1587C12.4415 17.8701 12.1178 17.7258 11.7361 17.7258C11.4847 17.7258 11.1844 17.7747 10.8352 17.8724L11.0517 16.2731C11.5824 16.2871 11.9875 16.1719 12.2669 15.9274C12.5462 15.683 12.6859 15.3583 12.6859 14.9532C12.6859 14.6087 12.5834 14.334 12.3786 14.1291C12.1736 13.9243 11.9013 13.8218 11.5615 13.8218C11.2263 13.8218 10.94 13.9383 10.7025 14.171C10.4651 14.4039 10.3207 14.7437 10.2695 15.1907L8.46072 14.8834C8.58644 14.2642 8.77606 13.7695 9.0299 13.3993C9.28363 13.0292 9.63751 12.7383 10.0914 12.5264C10.5454 12.3145 11.054 12.2086 11.6174 12.2086C12.5812 12.2086 13.354 12.5158 13.936 13.1304C14.4155 13.6332 14.6553 14.2013 14.6553 14.8345C14.6553 15.7331 14.1641 16.4501 13.1818 16.9854C13.7684 17.1112 14.2374 17.3929 14.589 17.8305C14.9405 18.2682 15.1162 18.7967 15.1162 19.4158C15.1162 20.3144 14.788 21.0804 14.1315 21.7135C13.475 22.3467 12.658 22.6632 11.6802 22.6632C10.7537 22.6632 9.98546 22.3968 9.3756 21.8636C8.76558 21.3305 8.4118 20.6334 8.31404 19.772L10.2136 19.5415C10.2741 20.0258 10.4371 20.396 10.7025 20.652ZM20.6446 22.4887H18.6821V15.0929C17.9651 15.7633 17.1201 16.2592 16.147 16.5804V14.7996C16.6592 14.632 17.2156 14.3142 17.8162 13.8463C18.4168 13.3784 18.8288 12.8325 19.0523 12.2086H20.6446V22.4887Z" fill="#333333"/>
</g>
<defs>
<clipPath id="clip0_42_178">
<rect width="30" height="30" fill="white"/>
</clipPath>
</defs>
</svg>
