<svg width="30" height="30" viewBox="0 0 30 30" fill="none" xmlns="http://www.w3.org/2000/svg">
<path d="M15 0C19.135 0 22.8792 1.67314 25.5926 4.37936C25.5972 4.38407 25.6019 4.38871 25.6066 4.39339C25.6113 4.39807 25.6159 4.40279 25.6205 4.40754C28.3268 7.12079 30 10.865 30 15C30 23.2843 23.2843 30 15 30C10.865 30 7.12079 28.3269 4.40743 25.6206C4.40279 25.6159 4.39807 25.6113 4.39339 25.6066C4.38871 25.6019 4.38407 25.5972 4.37946 25.5925C1.67318 22.8792 0 19.135 0 15C0 6.71571 6.71571 0 15 0ZM24.7623 6.85393L6.85393 24.7623C9.06014 26.6052 11.9005 27.7143 15 27.7143C22.0219 27.7143 27.7143 22.0219 27.7143 15C27.7143 11.9005 26.6052 9.06014 24.7623 6.85393ZM15 2.28571C7.97811 2.28571 2.28571 7.97811 2.28571 15C2.28571 18.0995 3.39479 20.9399 5.23768 23.1461L23.1461 5.23768C20.9399 3.39479 18.0995 2.28571 15 2.28571Z" fill="#333333"/>
</svg>
