<svg width="30" height="30" viewBox="0 0 30 30" fill="none" xmlns="http://www.w3.org/2000/svg">
<path fill-rule="evenodd" clip-rule="evenodd" d="M15.9957 25.1708C15.9957 25.8018 15.4841 26.3133 14.8532 26.3133C14.2222 26.3133 13.7107 25.8018 13.7107 25.1708V1.1425C13.7107 0.51152 14.2222 0 14.8532 0C15.4841 0 15.9957 0.51152 15.9957 1.1425V1.49472L27.7063 6.75866L15.9957 12.0226V25.1708ZM23.5263 6.75866L15.9957 3.37363V10.1436L23.5263 6.75866ZM19.3758 19.7883C21.6926 20.1223 23.6846 20.7043 25.1364 21.4715C27.2796 22.6042 27.7295 23.8731 27.7295 24.7381C27.7295 25.802 27.0557 26.6098 26.4905 27.1C25.8069 27.6929 24.8515 28.2169 23.6508 28.6573C21.2906 29.5232 18.1704 30 14.8648 30C11.5592 30 8.43894 29.5232 6.07877 28.6573C4.87807 28.2169 3.92265 27.6929 3.23908 27.1C2.67383 26.6098 2 25.802 2 24.7381C2 23.8735 2.4495 22.6051 4.59105 21.4726C6.04157 20.7056 8.03199 20.1235 10.3472 19.7893C10.8154 19.7215 11.2501 20.0465 11.3177 20.5149C11.3853 20.9833 11.0604 21.4178 10.592 21.4855C6.12444 22.1304 3.71376 23.6426 3.71376 24.7381C3.71376 25.4944 4.84616 26.3797 6.66902 27.0485C8.84488 27.8467 11.7555 28.2863 14.8648 28.2863C17.9741 28.2863 20.8847 27.8467 23.0605 27.0485C24.8833 26.3797 26.0157 25.4945 26.0157 24.7381C26.0157 23.6418 23.6029 22.129 19.1313 21.4846C18.6629 21.4171 18.3379 20.9826 18.4054 20.5142C18.4729 20.0458 18.9073 19.7209 19.3758 19.7883Z" fill="#333333"/>
</svg>
