<svg width="30" height="30" viewBox="0 0 30 30" fill="none" xmlns="http://www.w3.org/2000/svg">
<path fill-rule="evenodd" clip-rule="evenodd" d="M16.5976 19.3017C18.1311 19.2097 19.3512 19.5174 20.1572 20.3847C21.1663 21.4705 21.2604 22.7384 20.5566 23.9209C20.3031 24.3466 19.9561 24.7526 19.5117 25.1719L19.4697 25.2119L19.4267 25.251L19.3847 25.29L19.3408 25.3301L19.2969 25.3691L19.2304 25.4287L19.1845 25.4678L19.1386 25.5078L19.0683 25.5683L19.0205 25.6094L18.9717 25.6504L18.9219 25.6914L18.8203 25.7754L18.7676 25.8183L18.7138 25.8623L18.6025 25.9502L18.5166 26.0195L18.4267 26.0889L18.3349 26.1611L17.6416 26.6953L17.5078 26.7988L17.4385 26.8535L17.3574 26.918L17.2959 26.9668L17.2519 27.0019L17.209 27.0371L17.1601 27.0771L17.1133 27.1152L17.0566 27.1631L17.0029 27.208L16.9609 27.2441L16.9219 27.2793L16.8828 27.3125C16.864 27.3292 16.8457 27.3462 16.8281 27.3623L16.7842 27.4033H16.7861C16.8214 27.4047 16.8589 27.4049 16.8984 27.4043H16.9336L16.9511 27.4033L16.9873 27.4014L17.0254 27.3994L17.0635 27.3965C17.0958 27.394 17.1295 27.3913 17.164 27.3877L17.206 27.3828C17.2343 27.3795 17.2633 27.3761 17.2929 27.3721L17.3388 27.3662L17.3847 27.3584L17.4082 27.3555L17.456 27.3467L17.5058 27.3389L17.5683 27.3271L17.6328 27.3144L17.6855 27.3037L17.7392 27.292L17.79 27.2812C17.8767 27.2619 17.9593 27.2426 18.041 27.2226L18.1113 27.2051L18.1592 27.1933L18.208 27.1806L18.2724 27.1631L18.3222 27.1494L18.3896 27.1308L18.4414 27.1162L18.5117 27.0957L18.5664 27.0791L18.6416 27.0566L18.6992 27.0381L18.8008 27.0058L18.8867 26.9785L19.0224 26.9346L19.1445 26.8935L19.3017 26.8408L19.4424 26.793L19.6562 26.7197L19.9277 26.626L20.3105 26.4922L20.9131 26.2812L21.1455 26.2012L21.333 26.1367L21.5107 26.0762L21.6338 26.0351L21.7168 26.0078L21.8008 25.9805L21.8965 25.9492L21.9912 25.918L22.0849 25.8887L22.1777 25.8594L22.2685 25.831L22.3594 25.8037L22.4482 25.7764L22.5371 25.75L22.624 25.7236L22.7109 25.6992L22.8808 25.6504L22.9648 25.6279L23.1308 25.583L23.2119 25.5625L23.2929 25.541L23.4531 25.5019L23.4931 25.4931L23.5722 25.4746C23.6114 25.4656 23.6506 25.4558 23.6894 25.4472L23.8437 25.414C23.9078 25.4007 23.9718 25.3881 24.0351 25.376C24.8876 25.2124 25.6519 25.1646 26.3554 25.2549C28.1224 25.4817 29.3802 26.5783 29.9531 28.5322C30.131 29.1391 29.7835 29.7752 29.1767 29.9531C28.5761 30.1292 27.947 29.7907 27.7617 29.1953L27.7558 29.1767C27.4363 28.0868 26.92 27.6362 26.0644 27.5264C25.6352 27.4713 25.1342 27.5004 24.5293 27.6133L24.457 27.6269C24.3368 27.6504 24.2125 27.6771 24.084 27.707L24.0068 27.7256L23.9277 27.7441C23.875 27.7571 23.8217 27.7711 23.7676 27.7851L23.6855 27.8066C23.6582 27.8139 23.6302 27.8206 23.6025 27.8281L23.5185 27.8515C23.4622 27.8671 23.4045 27.8828 23.3467 27.8994L23.2588 27.9248L23.1709 27.9512L23.081 27.9775L22.9668 28.0127L22.8506 28.0488L22.7568 28.0781L22.6621 28.1084L22.5166 28.1553L22.3584 28.208L22.1787 28.2676L22.039 28.3154L21.8916 28.3662L21.6797 28.4394L21.5654 28.4795L20.6933 28.7851L20.5136 28.8476L20.3447 28.9062L20.1855 28.9599L20.0049 29.0215L19.8594 29.0693L19.7881 29.0928L19.6611 29.1338L19.5771 29.1601L19.4951 29.1865L19.414 29.2119L19.3349 29.2363L19.1787 29.2832L19.1025 29.3056L18.9902 29.3379L18.916 29.3584L18.7715 29.3974L18.7002 29.417L18.5947 29.4433L18.5254 29.4609L18.3886 29.4941L18.3047 29.5127L18.2881 29.5166C17.7303 29.6409 17.235 29.7024 16.7783 29.6924C16.2086 29.6798 15.6972 29.5553 15.2529 29.289C14.6411 28.9224 14.2488 28.4119 14.1963 27.7578C14.1507 27.1913 14.3673 26.6957 14.7549 26.2207C14.8631 26.088 14.9849 25.9567 15.124 25.8213L15.166 25.7803C15.2231 25.7257 15.2836 25.6707 15.3467 25.6142L15.3945 25.5713C15.4268 25.5428 15.4603 25.5144 15.4941 25.4853L15.5586 25.4306L15.625 25.374L15.6797 25.3291L15.7363 25.2832L15.7978 25.2324L15.8838 25.164L15.9726 25.0928L16.0478 25.0332L16.1484 24.9551L16.2578 24.8701L16.8408 24.4219L16.8984 24.3769L16.9814 24.3125L17.0615 24.25L17.1386 24.1885L17.2148 24.1279L17.2881 24.0683L17.3594 24.0107L17.4062 23.9726L17.4511 23.9346L17.4961 23.8974L17.54 23.8603L17.6035 23.8066L17.6455 23.7705L17.706 23.7187L17.7451 23.6836L17.7832 23.6494L17.8213 23.6162L17.876 23.5664L17.9287 23.5176L17.9629 23.4853L17.9961 23.4531L18.0449 23.4062L18.0761 23.376L18.1064 23.3447L18.1367 23.3144L18.1797 23.2695L18.208 23.2402L18.2207 23.2256L18.248 23.1963L18.2744 23.168L18.2988 23.1396L18.3115 23.125L18.3359 23.0967L18.3711 23.0556L18.3818 23.041L18.4043 23.0137L18.4258 22.9863L18.4463 22.9599L18.4668 22.9326L18.4863 22.9062L18.5049 22.8799L18.5136 22.8662L18.5312 22.8398L18.5488 22.8144L18.5654 22.7881L18.5888 22.75C18.5936 22.742 18.598 22.7334 18.6025 22.7256L18.622 22.6914L18.6347 22.6689L18.6562 22.626L18.666 22.6055C18.7416 22.4404 18.7432 22.3166 18.6562 22.1689L18.6455 22.1504C18.6258 22.1192 18.6017 22.0869 18.5742 22.0527L18.5488 22.0215L18.5303 22L18.501 21.9668L18.4795 21.9443C18.3661 21.8224 18.1818 21.7248 17.9267 21.6611L17.8935 21.6533C17.8312 21.6388 17.7648 21.6258 17.6943 21.6152L17.6553 21.6103L17.6347 21.6074L17.5947 21.6025L17.5537 21.5976L17.5332 21.5957L17.4912 21.5918L17.4482 21.5889L17.4043 21.5849L17.3603 21.583L17.3144 21.5801L17.292 21.5791L17.2451 21.5781C17.2217 21.5774 17.1978 21.5765 17.1738 21.5762H17.125C17.0596 21.5759 16.9915 21.5769 16.9219 21.5791L16.8701 21.581L16.8164 21.583L16.7617 21.5859L16.7344 21.5879C16.6814 21.5911 16.6277 21.5941 16.5732 21.5986L16.5078 21.6045L16.4414 21.6113C16.4192 21.6135 16.3965 21.6157 16.374 21.6181L16.2373 21.6338C16.0074 21.6621 15.7656 21.7006 15.5127 21.749L15.4365 21.7637L15.3974 21.7715L15.3203 21.7871C15.2818 21.795 15.243 21.8031 15.2041 21.8115L15.125 21.8291C15.0986 21.8349 15.0715 21.8406 15.0449 21.8467L14.9648 21.8652L14.9248 21.875L14.8437 21.8935L14.8027 21.9033L14.6386 21.9443L14.5127 21.9765L14.4287 21.999L14.3437 22.0215L14.3017 22.0332L14.1299 22.0801L14.0859 22.0928L13.999 22.1172L13.8672 22.1562L13.6894 22.209L13.5996 22.2363L13.4179 22.293L13.3261 22.3222L13.1885 22.3672C12.3133 22.6519 11.3847 23.0014 10.4179 23.4043C9.59937 23.7454 8.78961 24.1082 7.97654 24.4931C7.85708 24.5497 7.74052 24.6061 7.624 24.6621L7.44822 24.7461L7.33103 24.8037C7.31157 24.8131 7.292 24.8225 7.27244 24.832L6.51169 25.2051C5.12561 25.8792 3.90979 26.1698 2.84373 26.0332C1.65278 25.8804 0.720878 25.1998 0.132789 24.0859C-0.162315 23.5268 0.051383 22.8344 0.610328 22.539C1.1694 22.2438 1.86183 22.4576 2.1572 23.0166C2.40639 23.4886 2.70426 23.7054 3.13474 23.7607C3.39042 23.7935 3.69825 23.7708 4.05466 23.6885L4.10154 23.6777L4.12498 23.6719L4.17283 23.6601C4.19665 23.6539 4.22085 23.6473 4.24509 23.6406L4.29392 23.6269C4.3185 23.6199 4.34314 23.6121 4.36814 23.6045L4.44431 23.581L4.49509 23.5644C4.51222 23.5588 4.52955 23.5527 4.54685 23.5469L4.62595 23.5205L4.67869 23.501C4.70539 23.4913 4.73263 23.4809 4.75974 23.4707L4.81443 23.4502L4.89646 23.418L4.9531 23.3955L5.00877 23.3721L5.03709 23.3603L5.0947 23.3359L5.16697 23.3047L5.24021 23.2715L5.2988 23.2451C5.32848 23.2315 5.35857 23.2173 5.38865 23.2031L5.44919 23.1748L5.47947 23.1601L6.08689 22.8623C6.39673 22.7107 6.68827 22.57 6.99705 22.4238C7.84073 22.0244 8.68241 21.6462 9.53709 21.29C10.557 20.865 11.5413 20.4937 12.4795 20.1885C12.5145 20.1771 12.5501 20.1664 12.5849 20.1553L12.6885 20.1221L12.7929 20.0889L12.8955 20.0566L12.9472 20.041L13.0498 20.0097L13.2529 19.9492L13.3535 19.9199L13.4033 19.9062L13.5029 19.8769L13.6025 19.8496L13.7011 19.8222L13.7998 19.7959L13.8974 19.7705C13.9298 19.762 13.962 19.7534 13.9941 19.7451L14.0908 19.7207C15.0049 19.4903 15.8429 19.3471 16.5976 19.3017ZM19.2822 0.508771C19.9701 -0.149032 21.0428 -0.170493 21.7558 0.455061L21.7773 0.473615H21.7812L22.2666 0.927717C22.6234 1.24802 22.8358 1.69978 22.8554 2.17967C22.8747 2.65138 22.7063 3.11143 22.3877 3.45799L22.3711 3.47654L22.2842 3.56346L7.1113 18.7187C6.95889 18.8692 6.77949 18.9899 6.58298 19.0742L6.55662 19.0849L3.74412 19.9541C3.51726 20.0446 3.25911 19.9991 3.07615 19.8369C2.89689 19.6779 2.81994 19.4329 2.87498 19.2002L2.87791 19.1855L3.69236 16.2226C3.72465 16.1229 3.77971 16.0321 3.85252 15.957L19.2822 0.508771Z" fill="#333333"/>
</svg>
