<svg width="30" height="30" viewBox="0 0 30 30" fill="none" xmlns="http://www.w3.org/2000/svg">
<path d="M10.8073 1.57327L14.9843 1.58719H15.0224L19.1924 1.57334L18.3674 2.39904C17.8787 2.88825 17.6291 3.56474 17.6863 4.25344L18.2791 11.5912C18.3606 12.6025 18.7748 13.5756 19.4473 14.3355L20.9014 15.9782L9.09682 15.9764L10.5509 14.3336C11.2216 13.5756 11.6376 12.6007 11.7191 11.5893L12.3117 4.25166C12.3672 3.56124 12.1193 2.88643 11.6306 2.39725L10.8073 1.57327ZM9.21453 0.40928C9.05472 0.569276 8.93736 0.766631 8.87311 0.983451C8.7535 1.39459 8.81764 1.88898 9.39306 2.37815L10.5214 3.50742C10.602 3.58793 10.664 3.68505 10.7033 3.79201C10.7425 3.89897 10.7579 4.0132 10.7484 4.12673L10.1557 11.4645C10.102 12.1427 9.82817 12.7845 9.37756 13.2945L7.5647 15.3414C7.30991 15.6277 7.15566 15.9937 7.14352 16.377C7.13659 16.6407 7.19034 16.9304 7.39484 17.1767C7.59591 17.4196 7.89919 17.5532 8.21465 17.5532H8.22158L12.9517 17.5214C13.192 17.5197 13.3959 17.6977 13.427 17.9362L14.988 29.9077L15.0001 29.9996L15.0122 29.9077L16.573 17.9363C16.6041 17.6977 16.808 17.5198 17.0483 17.5214L21.7784 17.5533H21.7854C22.0696 17.5533 22.3435 17.4458 22.5428 17.2463C22.5653 17.2237 22.5861 17.1994 22.6052 17.1769C22.808 16.9323 22.8634 16.6409 22.8565 16.3772C22.8443 15.9938 22.6901 15.6278 22.4353 15.3416L20.6224 13.2946C20.1717 12.7847 19.8979 12.1428 19.8442 11.4645L19.2514 4.1268C19.2419 4.01328 19.2573 3.89906 19.2965 3.7921C19.3357 3.68515 19.3978 3.58803 19.4784 3.50753L20.6067 2.37825C20.6551 2.33664 20.7019 2.29324 20.7471 2.24815C21.1925 1.80237 21.2376 1.35827 21.1266 0.983594C20.955 0.395531 20.4039 0 19.7938 0H19.7903L15.012 0.0155712H14.9877L10.2111 0.00164282H10.2076C9.82634 0.00164282 9.47103 0.152569 9.21453 0.40928Z" fill="#333333"/>
</svg>
