<svg width="30" height="30" viewBox="0 0 30 30" fill="none" xmlns="http://www.w3.org/2000/svg">
<path d="M17.9607 2.29151L17.2059 4.15336H11.7L10.9452 2.29151H17.9607ZM19.752 0H9.15381C8.52099 0 7.81112 0.501268 8.00805 1.14576L10.1563 6.44488H18.7495L20.8978 1.14576C21.0947 0.501268 20.3848 0 19.752 0ZM16.1267 9.92242L19.3097 24.6185L14.4704 27.3666L9.60047 24.6164L12.8184 9.92239H16.1267V9.92242ZM17.1987 7.63091H11.7484C11.2011 7.63091 10.84 8.0851 10.7574 8.62188L7 25.7795L14.4735 30L21.9058 25.7795L18.1897 8.62188C18.1071 8.0851 17.746 7.63091 17.1987 7.63091ZM19.1528 8.51533L21.4481 18.3692L22.9964 15.6888L19.1528 8.51533Z" fill="#333333"/>
</svg>
