<svg width="30" height="30" viewBox="0 0 30 30" fill="none" xmlns="http://www.w3.org/2000/svg">
<path d="M8.61042 18.8214C10.0146 18.8214 11.1555 19.9484 11.1782 21.3471L11.1786 21.3896V28.5233C11.1786 29.1537 10.6675 29.6647 10.0371 29.6647C9.4131 29.6647 8.906 29.1639 8.89592 28.5422L8.89578 28.5233V22.7184L1.94849 29.6657C1.50274 30.1114 0.780027 30.1114 0.334313 29.6657C-0.111438 29.22 -0.111438 28.4973 0.334313 28.0515L7.2816 21.1042H1.47671C0.846349 21.1042 0.335277 20.5932 0.335277 19.9628C0.335277 19.3388 0.836134 18.8317 1.45781 18.8216L1.47671 18.8214H8.61042ZM29.6657 0.334277C30.1114 0.780027 30.1114 1.50274 29.6657 1.94849L22.7184 8.89578H28.5233C29.1537 8.89578 29.6647 9.40678 29.6647 10.0372C29.6647 10.6612 29.1639 11.1683 28.5422 11.1784L28.5233 11.1786H21.3896C19.9854 11.1786 18.8445 10.0516 18.8218 8.65289L18.8214 8.61042V1.47671C18.8214 0.846349 19.3325 0.335277 19.9629 0.335277C20.5869 0.335277 21.094 0.836134 21.1041 1.45781L21.1042 1.47671V7.2816L28.0515 0.334313C28.4973 -0.111438 29.22 -0.111438 29.6657 0.334313V0.334277Z" fill="#333333"/>
</svg>
