<svg width="30" height="30" viewBox="0 0 30 30" fill="none" xmlns="http://www.w3.org/2000/svg">
<g clip-path="url(#clip0_42_243)">
<path d="M10.7143 5.21429H19.7143C25.3949 5.21429 30 9.81936 30 15.5V19.7143C30 25.3949 25.3949 30 19.7143 30H3.28571C2.65454 30 2.14286 29.4883 2.14286 28.8571C2.14286 28.226 2.65454 27.7143 3.28571 27.7143H19.7143C24.1326 27.7143 27.7143 24.1326 27.7143 19.7143V15.5C27.7143 11.0817 24.1326 7.5 19.7143 7.5H10.7143V10.7053L10.7037 10.7112C10.6914 11.7012 9.88393 12.5 8.88964 12.5C8.488 12.5 8.11686 12.3697 7.81629 12.1491L1.06182 7.92914C0.435393 7.64368 0 7.01271 0 6.28021C0 5.54961 0.433071 4.92004 1.05689 4.6335L1.05968 4.53254L8.02454 0.181143L8.05621 0.202036C8.30571 0.0729286 8.58918 0 8.88964 0C9.89161 0 10.7039 0.811071 10.7039 1.81161C10.7039 1.85654 10.7022 1.90111 10.699 1.94525L10.7143 1.95536V5.21429Z" fill="#333333"/>
</g>
<defs>
<clipPath id="clip0_42_243">
<rect width="30" height="30" fill="white"/>
</clipPath>
</defs>
</svg>
