<svg width="30" height="30" viewBox="0 0 30 30" fill="none" xmlns="http://www.w3.org/2000/svg">
<path fill-rule="evenodd" clip-rule="evenodd" d="M15.8934 9.74068C15.8934 6.5702 13.1848 4 9.84366 4C6.50251 4 3.79397 6.5702 3.79397 9.74068C3.79397 12.8035 6.32176 15.3058 9.50565 15.4722C8.29489 15.5191 7.1201 15.7981 6.00828 16.3035C4.83117 16.8386 3.77524 17.6033 2.8698 18.5764C1.96855 19.545 1.26136 20.6719 0.767877 21.9258C0.258343 23.2206 0 24.5948 0 26.0105C0 26.4931 0.391251 26.8843 0.873896 26.8843C1.35647 26.8843 1.74772 26.4931 1.74772 26.0104C1.74772 23.6487 2.60063 21.4314 4.14932 19.7669C5.68182 18.1199 7.71438 17.2128 9.87269 17.2128C10.8251 17.2128 11.7575 17.3895 12.644 17.7379C13.0931 17.9143 13.6004 17.6933 13.7769 17.2442C13.9535 16.795 13.7324 16.2878 13.2832 16.1112C12.2932 15.7221 11.2565 15.5077 10.1972 15.4713C13.3738 15.2976 15.8934 12.7985 15.8934 9.74068ZM9.84366 13.7336C7.47156 13.7336 5.54166 11.9424 5.54166 9.74064C5.54166 7.53895 7.47156 5.74772 9.84366 5.74772C12.2158 5.74772 14.1457 7.53895 14.1457 9.74068C14.1457 11.9424 12.2158 13.7336 9.84366 13.7336ZM19.2797 22.3031L16.2041 20.5274C16.1045 20.4698 15.9915 20.4395 15.8764 20.4395C15.7614 20.4395 15.6483 20.4698 15.5487 20.5273C15.449 20.5849 15.3663 20.6676 15.3088 20.7672C15.2513 20.8669 15.221 20.9799 15.221 21.095V22.0133H9.77633C9.29376 22.0133 8.90251 22.4045 8.90251 22.8872C8.90251 23.3698 9.29376 23.761 9.77637 23.761H15.2211V24.6463C15.221 24.7614 15.2513 24.8744 15.3088 24.9741C15.3663 25.0737 15.4491 25.1565 15.5487 25.214C15.6484 25.2715 15.7614 25.3018 15.8764 25.3018C15.9915 25.3018 16.1045 25.2715 16.2041 25.214L19.2797 23.4383C19.3793 23.3808 19.462 23.298 19.5196 23.1984C19.5771 23.0988 19.6074 22.9857 19.6074 22.8707C19.6074 22.7556 19.5771 22.6426 19.5196 22.543C19.462 22.4433 19.3793 22.3606 19.2797 22.3031V22.3031ZM21.2396 16.5387C20.9236 16.5387 20.6674 16.7948 20.6674 17.1108C20.6674 17.4268 20.9236 17.6829 21.2396 17.6829H26.5672C26.8832 17.6829 27.1394 17.4268 27.1394 17.1108C27.1394 16.7948 26.8832 16.5387 26.5672 16.5387H21.2396ZM25.7093 5.28724H19.9165C19.4426 5.28724 19.0584 5.67145 19.0584 6.14541C19.0584 6.61936 19.4426 7.00357 19.9165 7.00357H25.7093C27.131 7.00357 28.2837 8.15633 28.2837 9.57823V21.3061C28.2837 22.728 27.131 23.8808 25.7093 23.8808H24.1358C23.6619 23.8808 23.2777 24.265 23.2777 24.7389C23.2777 25.2129 23.6619 25.5971 24.1358 25.5971H25.7093C28.0789 25.5971 30 23.6759 30 21.3061V9.57823C30 7.20845 28.0789 5.28724 25.7093 5.28724ZM26.5672 14.3456H19.13C18.814 14.3456 18.5578 14.0896 18.5578 13.7735C18.5578 13.4576 18.814 13.2014 19.13 13.2014H26.5672C26.8832 13.2014 27.1394 13.4575 27.1394 13.7735C27.1394 14.0895 26.8832 14.3456 26.5672 14.3456ZM27.1394 20.4481C27.1394 20.7641 26.883 21.0202 26.5674 21.0202H23.4205C23.1046 21.0202 22.8485 20.7642 22.8485 20.4481C22.8485 20.1321 23.1049 19.876 23.4205 19.876H26.5674C26.8833 19.876 27.1394 20.1321 27.1394 20.4481ZM27.1394 10.4362C27.1394 10.7522 26.8835 11.0083 26.5676 11.0083H19.9877C19.6719 11.0083 19.4159 10.7522 19.4159 10.4362C19.4159 10.1203 19.6718 9.86411 19.9877 9.86411H26.5676C26.8834 9.86411 27.1394 10.1202 27.1394 10.4362Z" fill="#333333"/>
</svg>
