<svg width="30" height="30" viewBox="0 0 30 30" fill="none" xmlns="http://www.w3.org/2000/svg">
<g clip-path="url(#clip0_42_247)">
<path d="M27.0816 7H23V2.91836C23 1.30918 21.6909 0 20.0816 0H2.91836C1.30918 0 0 1.30918 0 2.91836V20.0816C0 21.6909 1.30918 23 2.91836 23H7V27.0816C7 28.6909 8.30918 30 9.91836 30H27.0816C28.6908 30 30 28.6909 30 27.0816V9.91836C30 8.30918 28.6908 7 27.0816 7ZM2.91836 20.7143C2.5695 20.7143 2.28571 20.4305 2.28571 20.0816V2.91836C2.28571 2.5695 2.56954 2.28571 2.91836 2.28571H20.0816C20.4305 2.28571 20.7143 2.56954 20.7143 2.91836V7H9.91836C8.30918 7 7 8.30918 7 9.91836V20.7143H2.91836ZM20.7143 9.28571V20.0816C20.7143 20.4305 20.4305 20.7143 20.0816 20.7143H9.28571V9.91836C9.28571 9.5695 9.56954 9.28571 9.91836 9.28571H20.7143ZM27.7143 27.0816C27.7143 27.4305 27.4305 27.7143 27.0816 27.7143H9.91836C9.5695 27.7143 9.28571 27.4305 9.28571 27.0816V23H20.0816C21.6909 23 23 21.6909 23 20.0816V9.28571H27.0816C27.4305 9.28571 27.7143 9.56954 27.7143 9.91836V27.0816Z" fill="#333333"/>
</g>
<defs>
<clipPath id="clip0_42_247">
<rect width="30" height="30" fill="white"/>
</clipPath>
</defs>
</svg>
