<svg width="30" height="30" viewBox="0 0 30 30" fill="none" xmlns="http://www.w3.org/2000/svg">
<g clip-path="url(#clip0_42_269)">
<path d="M15 0C23.2843 0 30 6.71571 30 15C30 23.2843 23.2843 30 15 30C6.71571 30 0 23.2843 0 15C0 6.71571 6.71571 0 15 0ZM15 2.28571C7.97811 2.28571 2.28571 7.97811 2.28571 15C2.28571 22.0219 7.97811 27.7143 15 27.7143C22.0219 27.7143 27.7143 22.0219 27.7143 15C27.7143 7.97811 22.0219 2.28571 15 2.28571ZM15 6.42857C15.5917 6.42857 16.0714 6.90825 16.0714 7.5V15H23.5714C24.1632 15 24.6429 15.4797 24.6429 16.0714C24.6429 16.6632 24.1632 17.1429 23.5714 17.1429H15C14.4082 17.1429 13.9286 16.6632 13.9286 16.0714V7.5C13.9286 6.90825 14.4082 6.42857 15 6.42857Z" fill="#333333"/>
</g>
<defs>
<clipPath id="clip0_42_269">
<rect width="30" height="30" fill="white"/>
</clipPath>
</defs>
</svg>
