<svg width="30" height="30" viewBox="0 0 30 30" fill="none" xmlns="http://www.w3.org/2000/svg">
<path d="M24.6154 0H14.2308C13.9248 0 13.6313 0.121566 13.4149 0.337954C13.1985 0.554342 13.0769 0.847827 13.0769 1.15385C13.0769 1.45987 13.1985 1.75335 13.4149 1.96974C13.6313 2.18613 13.9248 2.30769 14.2308 2.30769H17.7038L9.39846 27.6923H6.15385C5.84783 27.6923 5.55434 27.8139 5.33795 28.0303C5.12157 28.2467 5 28.5401 5 28.8462C5 29.1522 5.12157 29.4457 5.33795 29.662C5.55434 29.8784 5.84783 30 6.15385 30H16.5385C16.8445 30 17.138 29.8784 17.3544 29.662C17.5707 29.4457 17.6923 29.1522 17.6923 28.8462C17.6923 28.5401 17.5707 28.2467 17.3544 28.0303C17.138 27.8139 16.8445 27.6923 16.5385 27.6923H13.1588L21.4712 2.30769H24.6154C24.9214 2.30769 25.2149 2.18613 25.4313 1.96974C25.6477 1.75335 25.7692 1.45987 25.7692 1.15385C25.7692 0.847827 25.6477 0.554342 25.4313 0.337954C25.2149 0.121566 24.9214 0 24.6154 0Z" fill="#333333"/>
</svg>
