<svg xmlns="http://www.w3.org/2000/svg" width="30" height="30" viewBox="0 0 30 30" fill="none">
  <path d="M 0 10.496 L 0 25.809 C 0 28.127 1.935 30 4.331 30 L 25.669 30 C 28.064 30 30 28.127 30 25.809 L 30 10.472 C 30 9.021 29.202 7.662 27.919 6.89 L 17.274 0.615 C 15.895 -0.205 14.153 -0.205 12.774 0.615 L 2.081 6.913 C 0.798 7.662 0 9.021 0 10.496 Z M 16.113 2.584 L 26.747 8.852 C 27.379 9.236 27.714 9.871 27.714 10.472 L 27.714 25.809 C 27.714 26.795 26.873 27.714 25.669 27.714 L 4.331 27.714 C 3.127 27.714 2.286 26.795 2.286 25.809 L 2.286 10.496 C 2.286 9.856 2.633 9.238 3.234 8.887 L 3.237 8.885 L 3.241 8.883 L 13.934 2.584 L 13.938 2.582 L 13.942 2.58 C 14.601 2.188 15.447 2.188 16.106 2.58 L 16.11 2.582 L 16.113 2.584 Z M 20.543 24.429 C 21.174 24.424 21.683 23.909 21.679 23.278 C 21.674 22.647 21.159 22.139 20.528 22.143 L 15.121 22.179 L 9.464 22.179 C 8.833 22.179 8.321 22.69 8.321 23.321 C 8.321 23.953 8.833 24.464 9.464 24.464 L 15.125 24.464 L 15.133 24.464 L 20.543 24.429 Z" fill="currentColor" fill-rule="nonzero"/>
</svg>
