<svg width="30" height="30" viewBox="0 0 30 30" fill="none" xmlns="http://www.w3.org/2000/svg">
<g clip-path="url(#clip0_42_194)">
<path d="M22.3223 15C26.4448 15 29.7867 18.3579 29.7867 22.5C29.7867 26.6421 26.4448 30 22.3223 30C18.1998 30 14.8578 26.6421 14.8578 22.5C14.8578 18.3579 18.1998 15 22.3223 15ZM22.3223 0C22.9505 0 23.4597 0.511678 23.4597 1.14286V2.14286H26.6288C28.4147 2.14286 29.8293 3.65989 29.8574 5.50168L29.8578 5.55757V7.14286H30V9.28571H29.8578V14.0036C29.8578 14.6349 29.3486 15.1465 28.7204 15.1465C28.0985 15.1465 27.5931 14.645 27.5831 14.0226L27.5829 14.0036V9.28571H2.27488V24.4424C2.27488 25.0786 2.71383 25.5617 3.21387 25.5713L3.22905 25.5714H12.7962C13.4244 25.5714 13.9336 26.0831 13.9336 26.7143C13.9336 27.3391 13.4345 27.8469 12.815 27.8571H3.22902C1.44306 27.8571 0.0285072 26.3401 0.000391018 24.4983L0 24.4424V5.55757C0 3.70936 1.39667 2.17386 3.17502 2.14332L3.22905 2.14286H6.3981V1.14286C6.3981 0.511678 6.90736 0 7.53554 0C8.16373 0 8.67299 0.511678 8.67299 1.14286V2.14286H21.1848V1.14286C21.1848 0.511678 21.6941 0 22.3223 0ZM22.3223 17.2857C19.4561 17.2857 17.1327 19.6202 17.1327 22.5C17.1327 25.3798 19.4561 27.7143 22.3223 27.7143C25.1884 27.7143 27.5118 25.3798 27.5118 22.5C27.5118 19.6202 25.1884 17.2857 22.3223 17.2857ZM22.3223 18.3571C22.7934 18.3571 23.1754 18.7409 23.1754 19.2143V21.6429H25.5924C26.0636 21.6429 26.4455 22.0266 26.4455 22.5C26.4455 22.9734 26.0636 23.3571 25.5924 23.3571H22.3223C21.8511 23.3571 21.4692 22.9734 21.4692 22.5V19.2143C21.4692 18.7409 21.8511 18.3571 22.3223 18.3571ZM5.40284 18.1429C6.03103 18.1429 6.54028 18.6545 6.54028 19.2857C6.54028 19.9169 6.03103 20.4286 5.40284 20.4286C4.77466 20.4286 4.2654 19.9169 4.2654 19.2857C4.2654 18.6545 4.77466 18.1429 5.40284 18.1429ZM13.0806 18.1429C13.7088 18.1429 14.218 18.6545 14.218 19.2857C14.218 19.9169 13.7088 20.4286 13.0806 20.4286H9.66825C9.04006 20.4286 8.53081 19.9169 8.53081 19.2857C8.53081 18.6545 9.04006 18.1429 9.66825 18.1429H13.0806ZM5.40284 11.4286C6.03103 11.4286 6.54028 11.9402 6.54028 12.5714C6.54028 13.2026 6.03103 13.7143 5.40284 13.7143C4.77466 13.7143 4.2654 13.2026 4.2654 12.5714C4.2654 11.9402 4.77466 11.4286 5.40284 11.4286ZM21.6114 11.4286C22.2396 11.4286 22.7488 11.9402 22.7488 12.5714C22.7488 13.2026 22.2396 13.7143 21.6114 13.7143H9.66825C9.04006 13.7143 8.53081 13.2026 8.53081 12.5714C8.53081 11.9402 9.04006 11.4286 9.66825 11.4286H21.6114ZM6.3981 4.42857H3.22905C2.7278 4.42857 2.28384 4.90536 2.27502 5.53836L2.27488 5.55757V7.14286H27.5829V5.55757C27.5829 4.92143 27.144 4.43829 26.6439 4.42871L26.6288 4.42857H23.4597V5.28571C23.4597 5.91689 22.9505 6.42857 22.3223 6.42857C21.6941 6.42857 21.1848 5.91689 21.1848 5.28571V4.42857H8.67299V5.28571C8.67299 5.91689 8.16373 6.42857 7.53554 6.42857C6.90736 6.42857 6.3981 5.91689 6.3981 5.28571V4.42857Z" fill="#333333"/>
</g>
<defs>
<clipPath id="clip0_42_194">
<rect width="30" height="30" fill="white"/>
</clipPath>
</defs>
</svg>
