<svg width="30" height="30" viewBox="0 0 30 30" fill="none" xmlns="http://www.w3.org/2000/svg">
<g clip-path="url(#clip0_42_238)">
<path d="M20.5196 0C23.0652 0 25.1158 2.10346 25.1565 4.69346L25.1572 4.77211V9.57143C25.1572 10.2026 24.6452 10.7143 24.0137 10.7143C23.3885 10.7143 22.8804 10.2128 22.8703 9.59036L22.8702 9.57143V4.77211C22.8702 3.40311 21.8289 2.30782 20.5582 2.28604L20.5196 2.28571H4.63757C3.36234 2.28571 2.30828 3.36732 2.2873 4.73071L2.28702 4.77211V25.2279C2.28702 26.5969 3.32832 27.6922 4.59898 27.714L4.63757 27.7143H16.0091C16.6407 27.7143 17.1526 28.226 17.1526 28.8571C17.1526 29.482 16.6508 29.9897 16.0281 30H4.63753C2.09191 30 0.041345 27.8965 0.000607547 25.3065L0 25.2279V4.77211C0 2.17246 2.02512 0.0429644 4.56056 0.000642964L4.63757 0H20.5196ZM24.0409 12.8571C24.2069 12.8571 24.3647 12.8925 24.5071 12.9561C24.68 13.0116 24.837 13.1076 24.9652 13.2361L29.6651 17.9334C30.1116 18.3796 30.1116 19.1033 29.6651 19.5496C29.2185 19.9959 28.4945 19.9959 28.0479 19.5496L25.1843 16.6877V28.8571C25.1843 29.4883 24.6724 30 24.0408 30C23.4093 30 22.8973 29.4883 22.8973 28.8571V16.6877L20.0338 19.5496C19.5873 19.9959 18.8632 19.9959 18.4167 19.5496C17.9701 19.1033 17.9701 18.3796 18.4167 17.9334L23.1165 13.2361C23.2447 13.1076 23.4018 13.0116 23.5747 12.9561C23.7214 12.8907 23.8802 12.8569 24.0408 12.8571H24.0409ZM13.865 21.2857C14.4966 21.2857 15.0085 21.7974 15.0085 22.4286C15.0085 23.0597 14.4966 23.5714 13.865 23.5714H5.86048C5.22894 23.5714 4.71697 23.0597 4.71697 22.4286C4.71697 21.7974 5.22894 21.2857 5.86048 21.2857H13.865ZM16.0091 13.8571C16.6407 13.8571 17.1526 14.3688 17.1526 15C17.1526 15.6312 16.6407 16.1429 16.0091 16.1429H5.86048C5.22894 16.1429 4.71697 15.6312 4.71697 15C4.71697 14.3688 5.22894 13.8571 5.86048 13.8571H16.0091ZM19.2967 6.42857C19.9282 6.42857 20.4402 6.94025 20.4402 7.57143C20.4402 8.20261 19.9282 8.71428 19.2967 8.71428H5.86048C5.22894 8.71428 4.71697 8.20261 4.71697 7.57143C4.71697 6.94025 5.22894 6.42857 5.86048 6.42857H19.2967Z" fill="#333333"/>
</g>
<defs>
<clipPath id="clip0_42_238">
<rect width="30" height="30" fill="white"/>
</clipPath>
</defs>
</svg>
