<svg width="30" height="30" viewBox="0 0 30 30" fill="none" xmlns="http://www.w3.org/2000/svg">
<path d="M28.8571 23.1429C29.4883 23.1429 30 23.6545 30 24.2857C30 24.9169 29.4883 25.4286 28.8571 25.4286H1.14286C0.511678 25.4286 0 24.9169 0 24.2857C0 23.6545 0.511678 23.1429 1.14286 23.1429H28.8571ZM28.8571 13.5714C29.4883 13.5714 30 14.0831 30 14.7143C30 15.3455 29.4883 15.8571 28.8571 15.8571H1.14286C0.511678 15.8571 0 15.3455 0 14.7143C0 14.0831 0.511678 13.5714 1.14286 13.5714H28.8571ZM28.8571 4C29.4883 4 30 4.51168 30 5.14286C30 5.77404 29.4883 6.28571 28.8571 6.28571H1.14286C0.511678 6.28571 0 5.77404 0 5.14286C0 4.51168 0.511678 4 1.14286 4H28.8571Z" fill="#333333"/>
</svg>
