<svg width="30" height="30" viewBox="0 0 30 30" fill="none" xmlns="http://www.w3.org/2000/svg">
<g clip-path="url(#clip0_42_275)">
<path d="M7.07143 0C7.70261 0 8.21429 0.511678 8.21429 1.14286C8.21429 1.76771 7.71279 2.27546 7.09036 2.28557L7.07143 2.28571H2.28571V7.07143C2.28571 7.70261 1.77404 8.21429 1.14286 8.21429C0.518 8.21429 0.0102499 7.71279 0.000142796 7.09036L0 7.07143V2.28571C0 1.03596 1.003 0.0204999 2.24793 0.000321354L2.28571 0H7.07143ZM22.9286 0C22.2974 0 21.7857 0.511678 21.7857 1.14286C21.7857 1.76771 22.2872 2.27546 22.9096 2.28557L22.9286 2.28571H27.7143V7.07143C27.7143 7.70261 28.226 8.21429 28.8571 8.21429C29.482 8.21429 29.9897 7.71279 29.9999 7.09036L30 7.07143V2.28571C30 1.03596 28.997 0.0204999 27.7521 0.000321354L27.7143 0H22.9286ZM7.07143 30C7.70261 30 8.21429 29.4883 8.21429 28.8571C8.21429 28.2323 7.71279 27.7245 7.09036 27.7144L7.07143 27.7143H2.28571V22.9286C2.28571 22.2974 1.77404 21.7857 1.14286 21.7857C0.518 21.7857 0.0102499 22.2872 0.000142796 22.9096L0 22.9286V27.7143C0 28.964 1.003 29.9795 2.24793 29.9997L2.28571 30H7.07143ZM22.9286 30C22.2974 30 21.7857 29.4883 21.7857 28.8571C21.7857 28.2323 22.2872 27.7245 22.9096 27.7144L22.9286 27.7143H27.7143V22.9286C27.7143 22.2974 28.226 21.7857 28.8571 21.7857C29.482 21.7857 29.9897 22.2872 29.9999 22.9096L30 22.9286V27.7143C30 28.964 28.997 29.9795 27.7521 29.9997L27.7143 30H22.9286ZM14.1078 5C19.1379 5 23.2155 9.07768 23.2155 14.1078C23.2155 16.2196 22.4968 18.1635 21.2906 19.7083L24.6723 23.09C25.1092 23.5269 25.1092 24.2353 24.6723 24.6723C24.2397 25.1049 23.541 25.1092 23.1031 24.6852L23.0899 24.6723L19.7083 21.2906C18.1635 22.4968 16.2196 23.2155 14.1078 23.2155C9.07768 23.2155 5 19.1379 5 14.1078C5 9.07768 9.07768 5 14.1078 5ZM14.1078 7.23775C10.3136 7.23775 7.23778 10.3136 7.23778 14.1077C7.23778 17.902 10.3136 20.9778 14.1078 20.9778C17.902 20.9778 20.9778 17.902 20.9778 14.1078C20.9778 10.3136 17.902 7.23778 14.1078 7.23778V7.23775Z" fill="#333333"/>
</g>
<defs>
<clipPath id="clip0_42_275">
<rect width="30" height="30" fill="white"/>
</clipPath>
</defs>
</svg>
