<svg width="30" height="30" viewBox="0 0 30 30" fill="none" xmlns="http://www.w3.org/2000/svg">
<g clip-path="url(#clip0_3393_86)">
<path d="M18.2857 4.28571C20.0215 4.28571 21.4286 5.69282 21.4286 7.42857V23.4286H26.8571C27.3258 23.4286 27.7066 23.0525 27.7142 22.5856L27.7143 22.5714V3.14286C27.7143 2.67421 27.3382 2.29339 26.8713 2.28582L26.8571 2.28571H13.8571C13.3885 2.28571 13.0077 2.66182 13.0001 3.12868L13 3.14286V4.28571H18.2857ZM18.2999 6.57143H3.14286C2.67421 6.57143 2.29339 6.94754 2.28571 7.41439V26.8571C2.28571 27.3258 2.66182 27.7066 3.12868 27.7143H18.2857C18.7544 27.7143 19.1352 27.3382 19.1429 26.8713V7.42857C19.1429 6.95993 18.7668 6.57911 18.2999 6.57143ZM10.7143 3.14286C10.7143 1.42446 12.0934 0.0281786 13.8052 0.000428643L13.8571 0H26.8571C28.5755 0 29.9718 1.37911 29.9996 3.09089L30 3.14286V22.5714C30 24.2898 28.6209 25.6861 26.9091 25.7139L26.8571 25.7143H21.4286V26.8571C21.4286 28.5929 20.0215 30 18.2857 30H3.14286C1.40711 30 0 28.5929 0 26.8571V7.42857C0 5.69282 1.40711 4.28571 3.14286 4.28571H10.7143V3.14286Z" fill="#333333"/>
</g>
<defs>
<clipPath id="clip0_3393_86">
<rect width="30" height="30" fill="white"/>
</clipPath>
</defs>
</svg>
