<svg width="30" height="30" viewBox="0 0 30 30" fill="none" xmlns="http://www.w3.org/2000/svg">
<path d="M17.8363 0.861508C17.8502 0.9307 17.8571 1.00109 17.8571 1.07165V14.4019C14.9708 16.1124 13.0357 19.2588 13.0357 22.8571C13.0357 25.5978 14.1582 28.0762 15.9686 29.8578L1.72261 27.0086C0.721 26.8082 0 25.9288 0 24.9074V5.09286C0 4.0714 0.721 3.19194 1.72261 2.99161L16.5756 0.0210082C17.1558 -0.0950275 17.7203 0.281294 17.8363 0.861508ZM10.75 18.3571H3.89286C3.41946 18.3571 3.03571 18.7409 3.03571 19.2143C3.03571 19.6829 3.41182 20.0638 3.87868 20.0713L3.89286 20.0714H10.75C11.2234 20.0714 11.6071 19.6877 11.6071 19.2143C11.6071 18.7409 11.2234 18.3571 10.75 18.3571ZM13.9643 14.1429H3.89286C3.41946 14.1429 3.03571 14.5266 3.03571 15C3.03571 15.4686 3.41182 15.8495 3.87868 15.857L3.89286 15.8571H13.9643C14.4377 15.8571 14.8214 15.4734 14.8214 15C14.8214 14.5266 14.4377 14.1429 13.9643 14.1429ZM12.1786 9.92858H3.89286C3.41946 9.92858 3.03571 10.3123 3.03571 10.7857C3.03571 11.2544 3.41182 11.6352 3.87868 11.6428L3.89286 11.6429H12.1786C12.652 11.6429 13.0357 11.2591 13.0357 10.7857C13.0357 10.3123 12.652 9.92858 12.1786 9.92858ZM27.7143 14.3189C28.5608 14.8018 29.3311 15.4075 30 16.1162V7.21429L29.9996 7.15997C29.9705 5.37036 28.5108 3.92858 26.7143 3.92858H21.1239C20.5015 3.93883 20 4.44658 20 5.07144C20 5.70261 20.5117 6.21429 21.1429 6.21429H26.7143L26.7308 6.21444C27.2755 6.22326 27.7143 6.66751 27.7143 7.21429V14.3189ZM30 22.8571C30 26.802 26.802 30 22.8571 30C18.9122 30 15.7143 26.802 15.7143 22.8571C15.7143 18.9123 18.9122 15.7143 22.8571 15.7143C26.802 15.7143 30 18.9123 30 22.8571ZM21.8829 26.8813C21.9021 26.862 21.9203 26.8417 21.9374 26.8205L27.9267 20.8311C28.2149 20.5429 28.2149 20.0757 27.9267 19.7876C27.6386 19.4994 27.1713 19.4994 26.8832 19.7876L21.3579 25.3129L18.6882 22.6432C18.4001 22.355 17.9329 22.355 17.6447 22.6432C17.3565 22.9313 17.3565 23.3985 17.6447 23.6867L20.7832 26.8252C20.8459 26.9023 20.9235 26.9658 21.0114 27.0121C21.0993 27.0584 21.1956 27.0864 21.2946 27.0945C21.4023 27.1043 21.5108 27.0902 21.6125 27.0534C21.7141 27.0166 21.8064 26.9578 21.8829 26.8813Z" fill="#333333"/>
</svg>
