<svg width="30" height="30" viewBox="0 0 30 30" fill="none" xmlns="http://www.w3.org/2000/svg">
<g clip-path="url(#clip0_42_116)">
<path d="M7.57143 14.4762L0.826107 5.48243C0.299428 4.87243 0 4.10143 0 3.28571C0 1.47107 1.47107 0 3.28571 0C3.33314 0 3.38054 0.00100004 3.42779 0.00303575L22.4764 0C22.4845 0 22.4926 7.14174e-05 22.5714 0C24.3861 0 25.8571 1.47107 25.8571 3.28571C25.8571 4.09679 25.5607 4.86436 25.0354 5.45943L18.2857 14.4752V28.8571C18.2857 29.4883 17.774 30 17.1429 30C16.5117 30 16 29.4883 16 28.8571V14.1786C15.9997 13.9801 16.0513 13.7851 16.1497 13.6127C16.1885 13.4956 16.2461 13.3855 16.3201 13.2868L23.2361 4.04882C23.2589 4.01844 23.2831 3.98922 23.3088 3.96125C23.4773 3.7775 23.5714 3.54046 23.5714 3.28571C23.5714 2.73343 23.1237 2.28571 22.5482 2.28582C22.5208 2.28613 22.4934 2.2861 22.466 2.28571L3.401 2.28875C3.38082 2.28875 3.36061 2.28821 3.28571 2.28571C2.73343 2.28571 2.28571 2.73343 2.28571 3.28571C2.28571 3.54661 2.385 3.79643 2.56832 4.0025C2.58951 4.02631 2.6097 4.051 2.62882 4.0765L9.55986 13.3179C9.65761 13.4479 9.72639 13.5973 9.76157 13.7561C9.82481 13.9005 9.85735 14.0566 9.85714 14.2143V24.5714C9.85714 25.2026 9.34546 25.7143 8.71428 25.7143C8.08311 25.7143 7.57143 25.2026 7.57143 24.5714V14.4762ZM28.8524 13.8571C29.4862 13.8571 30 14.3688 30 15C30 15.6312 29.4862 16.1429 28.8524 16.1429H22.5762C21.9424 16.1429 21.4286 15.6312 21.4286 15C21.4286 14.3688 21.9424 13.8571 22.5762 13.8571H28.8524ZM28.8524 18.6429C29.4862 18.6429 30 19.1545 30 19.7857C30 20.4169 29.4862 20.9286 28.8524 20.9286H22.5762C21.9424 20.9286 21.4286 20.4169 21.4286 19.7857C21.4286 19.1545 21.9424 18.6429 22.5762 18.6429H28.8524ZM28.8524 23.4286C29.4862 23.4286 30 23.9402 30 24.5714C30 25.2026 29.4862 25.7143 28.8524 25.7143H22.5762C21.9424 25.7143 21.4286 25.2026 21.4286 24.5714C21.4286 23.9402 21.9424 23.4286 22.5762 23.4286H28.8524Z" fill="#333333"/>
</g>
<defs>
<clipPath id="clip0_42_116">
<rect width="30" height="30" fill="white"/>
</clipPath>
</defs>
</svg>
