<svg width="30" height="30" viewBox="0 0 30 30" fill="none" xmlns="http://www.w3.org/2000/svg">
<g clip-path="url(#clip0_42_202)">
<path d="M21.3571 21.3571V16.1429C21.3571 15.5117 21.8688 15 22.5 15C23.1312 15 23.6429 15.5117 23.6429 16.1429V21.3571H28.8571C29.4883 21.3571 30 21.8688 30 22.5C30 23.1312 29.4883 23.6429 28.8571 23.6429H23.6429V28.8571C23.6429 29.4883 23.1312 30 22.5 30C21.8688 30 21.3571 29.4883 21.3571 28.8571V23.6429H16.1429C15.5117 23.6429 15 23.1312 15 22.5C15 21.8688 15.5117 21.3571 16.1429 21.3571H21.3571ZM15.3713 29.8916L15.3729 29.9087C14.043 29.9888 12.6157 29.9916 11.1881 29.9974C5.61539 30.02 -0.0631831 29.9974 0.000531215 25.4994C0.0854598 19.502 5.14846 16.2857 11.0635 16.2857C12.368 16.2857 13.6329 16.4421 14.8126 16.7504L14.808 16.7682C15.1964 16.8496 15.4881 17.1943 15.4881 17.6071C15.4881 18.0805 15.1046 18.4643 14.6315 18.4643C14.4962 18.4643 14.3682 18.4329 14.2544 18.3769C13.2616 18.1293 12.1871 18 11.0635 18C8.42357 18 6.06192 18.7138 4.39103 20.0017C2.68746 21.3148 1.74664 23.1751 1.71339 25.5237C1.70421 26.1703 1.85996 26.5897 2.17185 26.9137C2.51089 27.266 3.08785 27.5636 3.92385 27.7877C4.77046 28.0146 5.83528 28.1545 7.17007 28.2247C8.23417 28.2808 9.2181 28.2911 11.1811 28.2831L11.3425 28.2824C13.3332 28.2745 14.2047 28.2598 15.2109 28.201L15.2112 28.2035C15.2786 28.1869 15.3478 28.1785 15.4172 28.1786C15.8903 28.1786 16.2738 28.5623 16.2738 29.0357C16.2738 29.5091 15.8903 29.8929 15.4172 29.8929C15.4018 29.8929 15.3865 29.8925 15.3713 29.8916ZM4.64285 8.47468C4.64285 7.33296 4.64285 5.98825 4.90735 4.71011L3.28571 4.22364V7.35714C3.28571 7.67275 3.02989 7.92857 2.71428 7.92857C2.39867 7.92857 2.14285 7.67275 2.14285 7.35714V3.88079L1.27503 3.62043C0.527353 3.39614 0.527353 3.03246 1.27503 2.80814L10.0748 0.168214C10.8225 -0.0560714 12.0347 -0.0560714 12.7824 0.168214L21.5821 2.80814C22.3298 3.03243 22.3298 3.39611 21.5821 3.62043L17.9482 4.71061C18.2143 5.98696 18.2143 7.33068 18.2143 8.47464V8.48239C18.2143 11.8496 15.9944 16.2904 11.4286 16.2857C6.86278 16.281 4.64285 11.8496 4.64285 8.48239V8.47489V8.47468ZM6.379 6.89768C8.00607 6.59014 9.69128 6.42857 11.4176 6.42857C13.1517 6.42857 14.8443 6.59161 16.4782 6.90186C16.4632 6.531 16.4387 6.21796 16.4 5.88086C16.3727 5.644 16.3391 5.41907 16.2987 5.20543L12.7824 6.26036C12.0347 6.48464 10.8225 6.48464 10.0748 6.26036L6.55703 5.205C6.51799 5.41343 6.48535 5.63254 6.45867 5.86286C6.4191 6.20443 6.39421 6.5215 6.379 6.89768ZM12.2898 1.81021C11.8634 1.68232 10.9937 1.68232 10.5674 1.81021L5.88714 3.21429L10.5674 4.61836C10.9937 4.74625 11.8634 4.74625 12.2898 4.61836L16.97 3.21429L12.2898 1.81021ZM7.70414 12.6288C8.62703 13.8826 9.87357 14.5699 11.4303 14.5714C12.985 14.573 14.23 13.8872 15.1526 12.6328C15.9723 11.5184 16.46 10.0252 16.4976 8.65289C14.8447 8.31518 13.1443 8.14286 11.4176 8.14286C9.69853 8.14286 8.0055 8.31364 6.35935 8.64843C6.39603 10.0212 6.8836 11.514 7.70414 12.6288Z" fill="#333333"/>
</g>
<defs>
<clipPath id="clip0_42_202">
<rect width="30" height="30" fill="white"/>
</clipPath>
</defs>
</svg>
