<svg width="30" height="30" viewBox="0 0 30 30" fill="none" xmlns="http://www.w3.org/2000/svg">
<path d="M24.9913 22.0131C26.263 22.0129 27.4871 22.4947 28.4154 23.361C29.3436 24.2271 29.9066 25.4128 29.99 26.6775L30 27.0049V30H15.9757V27.0049C15.9755 25.7376 16.459 24.5176 17.3281 23.5924C18.1973 22.6672 19.3869 22.1062 20.6558 22.0231L20.9844 22.0131H24.9913ZM15.6351 0.829677L15.6471 0.997391V22.0131C15.6472 22.2469 15.565 22.4732 15.4149 22.6525C15.2646 22.8322 15.0562 22.9535 14.8257 22.9955L14.6454 23.0115H4.62804V21.0147L13.6436 21.0127V2.61075L2.0015 8.41728V28.0013H14.6454V29.998H1.00175C0.767419 29.9982 0.540428 29.9163 0.360107 29.7666C0.180125 29.6173 0.0583436 29.4094 0.0160359 29.1794L1.46257e-07 28.9997V7.80028C-8.32397e-05 7.64643 0.0354903 7.49465 0.103929 7.35686C0.17247 7.21891 0.271978 7.09869 0.394679 7.00557L0.554964 6.90575L14.1966 0.104855C14.3367 0.03529 14.491 -0.000612138 14.6474 7.89645e-06C14.8038 0.000627931 14.9579 0.037753 15.0974 0.108427C15.2367 0.179007 15.3576 0.281221 15.4504 0.406891C15.5431 0.532398 15.6049 0.677895 15.6311 0.831677L15.6351 0.829677ZM24.9913 24.0098H20.9844C20.2378 24.0097 19.5177 24.2869 18.964 24.7878C18.4114 25.2876 18.0652 25.9757 17.9932 26.7174L17.9792 27.0049L17.9772 28.0033H27.9945V27.0049C27.9946 26.3091 27.752 25.6351 27.3084 25.099C26.864 24.562 26.2467 24.196 25.5623 24.0637L25.2818 24.0238L24.9913 24.0098ZM22.9879 10.0326C24.3162 10.0326 25.5902 10.5586 26.5295 11.4947C27.4688 12.4309 27.9965 13.7006 27.9965 15.0245C27.9965 16.3484 27.4688 17.6181 26.5295 18.5542C25.5902 19.4904 24.3162 20.0163 22.9879 20.0163C21.6595 20.0163 20.3855 19.4904 19.4462 18.5542C18.5069 17.6181 17.9792 16.3484 17.9792 15.0245C17.9792 13.7006 18.5069 12.4309 19.4462 11.4947C20.3855 10.5586 21.6595 10.0326 22.9879 10.0326ZM22.9879 12.0294C22.1908 12.0294 21.4264 12.3449 20.8629 12.9066C20.584 13.1843 20.3627 13.5144 20.2116 13.8778C20.0606 14.2412 19.9827 14.6309 19.9826 15.0245C19.9827 15.4181 20.0606 15.8077 20.2116 16.1712C20.3627 16.5346 20.584 16.8646 20.8629 17.1424C21.4264 17.704 22.1908 18.0196 22.9879 18.0196C23.7849 18.0196 24.5493 17.704 25.1129 17.1424C25.3917 16.8646 25.6131 16.5346 25.7641 16.1712C25.9151 15.8077 25.993 15.4181 25.9931 15.0245C25.993 14.6309 25.9151 14.2413 25.7641 13.8778C25.6131 13.5144 25.3917 13.1844 25.1129 12.9066C24.5493 12.3449 23.7849 12.0294 22.9879 12.0294ZM10.6384 15.0365V17.0332H4.62804V15.0365H10.6384ZM10.6384 10.0306V12.0274H4.62804V10.0306H10.6384Z" fill="#333333"/>
</svg>
