<svg width="30" height="30" viewBox="0 0 30 30" fill="none" xmlns="http://www.w3.org/2000/svg">
<path d="M15 0C6.72855 0 0 6.72935 0 15C0 23.2707 6.72855 30 15 30C23.2715 30 30 23.2707 30 15C30 6.72935 23.2715 0 15 0ZM25.6244 8.07634H22.1883C21.6958 6.28115 21.0185 4.70187 20.194 3.43084C22.4096 4.43076 24.2936 6.04259 25.6244 8.07674V8.07634ZM20.7694 15C20.7721 16.5482 20.631 18.0934 20.348 19.6155H9.65202C9.09014 16.5642 9.09014 13.4358 9.65202 10.3845H20.348C20.631 11.9066 20.7721 13.4518 20.7694 15ZM15 27.6922C13.2328 27.6922 11.3393 25.4964 10.2214 21.9233H19.777C18.6607 25.4964 16.7672 27.6922 15 27.6922ZM10.2214 8.07674C11.3409 4.50356 13.2328 2.30775 15 2.30775C16.7672 2.30775 18.6607 4.50356 19.7786 8.07674H10.2214ZM9.80595 3.43124C8.98153 4.70227 8.30424 6.28155 7.81166 8.07674H4.37562C5.70644 6.04273 7.59041 4.43105 9.80595 3.43124ZM3.18895 10.3845H7.30109C6.79678 13.4408 6.79678 16.5592 7.30109 19.6155H3.18895C2.01401 16.6507 2.01401 13.3493 3.18895 10.3845ZM4.37562 21.9233H7.81166C8.30424 23.7184 8.98153 25.2977 9.80595 26.5688C7.59041 25.5689 5.70644 23.9573 4.37562 21.9233ZM20.194 26.5688C21.0185 25.2977 21.6958 23.7184 22.1883 21.9233H25.6244C24.2936 23.9573 22.4096 25.5689 20.194 26.5688ZM26.811 19.6155H22.6989C23.2032 16.5592 23.2032 13.4408 22.6989 10.3845H26.811C27.986 13.3493 27.986 16.6507 26.811 19.6155Z" fill="#333333"/>
</svg>
