<svg width="30" height="30" viewBox="0 0 30 30" fill="none" xmlns="http://www.w3.org/2000/svg">
<path d="M23.1607 0H6.57529C4.04844 0 2 2.04837 2 4.57529V19.016C2 21.5428 4.04844 23.5913 6.57529 23.5913H9.727V27.7086H7.29239C6.65966 27.7086 6.14671 28.2216 6.14671 28.8543C6.14671 29.487 6.65966 30 7.29239 30H22.4729C23.1057 30 23.6186 29.487 23.6186 28.8543C23.6186 28.2216 23.1057 27.7086 22.4729 27.7086H20.0383V23.5913H23.1607C25.6875 23.5913 27.736 21.5429 27.736 19.016V4.57532C27.736 2.04844 25.6875 0 23.1607 0ZM6.57529 2.29139H23.1607C24.42 2.29139 25.4446 3.31594 25.4446 4.57529V17.6659H4.29143V4.57532C4.29143 3.31597 5.31594 2.29139 6.57529 2.29139ZM18.3198 27.7086H11.4455V23.5913H18.3198V27.7086ZM20.2006 9.10156L17.1855 12.094L12.274 8.20819L6.62605 12.4445C6.24656 12.7291 6.16729 13.2707 6.44897 13.6541C6.73068 14.0375 7.26667 14.1176 7.64612 13.833L12.2463 10.3826L17.3131 14.3912L21.4171 10.3181L22.9101 11.811L23.4406 7.2466L18.8762 7.77716L20.2006 9.10156H20.2006ZM23.1607 21.2999H6.57529C5.47912 21.2999 4.56121 20.5235 4.34162 19.4918H25.3944C25.1748 20.5235 24.2568 21.2999 23.1607 21.2999Z" fill="#333333"/>
</svg>
