<svg width="30" height="30" viewBox="0 0 30 30" fill="none" xmlns="http://www.w3.org/2000/svg">
<path d="M28.8571 0C29.4883 0 30 0.511678 30 1.14286C30 1.76771 29.4985 2.27546 28.8761 2.28557L28.8571 2.28571H3.42857C2.80371 2.28571 2.29596 2.78721 2.28586 3.40964L2.28571 3.42857V28.8571C2.28571 29.4883 1.77404 30 1.14286 30C0.518 30 0.01025 29.4985 0 28.8761V3.42857C0 1.55393 1.50446 0.0307144 3.37186 0.000464405L3.42857 0H28.8571ZM29.9708 15.2524L29.9648 15.2776L27.8194 23.8448C27.6662 24.4569 27.045 24.829 26.4319 24.676C25.825 24.5245 25.4536 23.9151 25.595 23.3091L25.5994 23.2907L26.7436 18.7212C24.726 19.8716 23.2737 21.1999 22.3694 22.698C21.3137 24.4469 20.8376 26.4728 20.9463 28.8046C20.9757 29.4347 20.4878 29.9694 19.8566 29.9987C19.2254 30.0281 18.6898 29.541 18.6605 28.9108C18.5313 26.1408 19.1126 23.6671 20.4095 21.5187C21.3876 19.8984 22.8372 18.4801 24.7466 17.2581L20.564 18.3543C19.9589 18.5129 19.3397 18.1569 19.1717 17.5577L19.1668 17.5395C19.008 16.9354 19.3645 16.3172 19.9647 16.1495L19.983 16.1446L28.5642 13.8957C29.397 13.6775 30.1603 14.4202 29.9708 15.2524Z" fill="#333333"/>
<path d="M5.42862 7.46429H28.8572C29.6191 7.46429 30 7.84525 30 8.60715C30 9.36906 29.6191 9.75001 28.8572 9.75001H5.42862C4.66672 9.75001 4.28577 9.36906 4.28577 8.60715C4.28577 7.84525 4.66672 7.46429 5.42862 7.46429Z" fill="#333333"/>
<path d="M5.42862 15.1071H16C16.762 15.1071 17.1429 15.4881 17.1429 16.25C17.1429 17.0119 16.762 17.3929 16 17.3929H5.42862C4.66672 17.3929 4.28577 17.0119 4.28577 16.25C4.28577 15.4881 4.66672 15.1071 5.42862 15.1071Z" fill="#333333"/>
<path d="M5.42862 22.75H11.7143C12.4762 22.75 12.8572 23.131 12.8572 23.8929C12.8572 24.6548 12.4762 25.0357 11.7143 25.0357H5.42862C4.66672 25.0357 4.28577 24.6548 4.28577 23.8929C4.28577 23.131 4.66672 22.75 5.42862 22.75Z" fill="#333333"/>
</svg>
