<svg width="30" height="30" viewBox="0 0 30 30" fill="none" xmlns="http://www.w3.org/2000/svg">
<g clip-path="url(#clip0_42_124)">
<path d="M10.1463 0.251221L4.4899 5.91256L1.46302 2.88303C1.12827 2.54799 0.585662 2.54802 0.250988 2.88303C-0.0836855 3.21803 -0.0837212 3.76112 0.250988 4.09612L3.88372 7.73204C4.0043 7.85319 4.15845 7.9353 4.32621 7.96775C4.38015 7.9782 4.43496 7.98345 4.4899 7.98344C4.60247 7.98358 4.71396 7.96146 4.81796 7.91835C4.92196 7.87523 5.01643 7.81198 5.09593 7.73222L11.3583 1.46435C11.6931 1.12935 11.6931 0.586223 11.3583 0.251256C11.0236 -0.0837461 10.481 -0.0837462 10.1463 0.251221ZM10.1463 11.2595L4.4899 16.9209L1.46302 13.8913C1.12827 13.5563 0.585662 13.5563 0.250988 13.8913C-0.0836855 14.2263 -0.0837212 14.7694 0.250988 15.1044L3.88387 18.7405C3.96336 18.8203 4.05783 18.8836 4.16183 18.9267C4.26584 18.9698 4.37733 18.9919 4.4899 18.9917C4.60247 18.9919 4.71396 18.9698 4.81796 18.9266C4.92196 18.8835 5.01643 18.8203 5.09593 18.7405L11.3583 12.4726C11.6931 12.1376 11.6931 11.5945 11.3583 11.2596C11.0236 10.9246 10.481 10.9246 10.1463 11.2595ZM10.1463 22.2678L4.4899 27.9292L1.46302 24.8996C1.12827 24.5646 0.585662 24.5646 0.250988 24.8996C-0.0836855 25.2346 -0.0837212 25.7777 0.250988 26.1127L3.88387 29.7488C3.9449 29.81 4.01485 29.8616 4.09134 29.9019C4.21428 29.9664 4.35106 30.0001 4.4899 30C4.60247 30.0001 4.71396 29.978 4.81796 29.9349C4.92196 29.8918 5.01643 29.8285 5.09593 29.7488L11.3583 23.4809C11.6931 23.1459 11.6931 22.6028 11.3583 22.2678C11.0236 21.9328 10.481 21.9328 10.1463 22.2678ZM14.0376 5.1354H28.8573C29.4884 5.1354 30 4.62334 30 3.99168C30 3.36003 29.4884 2.84796 28.8573 2.84796H14.0376C13.4065 2.84796 12.8949 3.36003 12.8949 3.99168C12.8949 4.62334 13.4065 5.1354 14.0376 5.1354ZM28.8573 24.8646H14.0376C13.4065 24.8646 12.8949 25.3766 12.8949 26.0083C12.8949 26.6399 13.4065 27.152 14.0376 27.152H28.8573C29.4884 27.152 30 26.6399 30 26.0083C30 25.3766 29.4884 24.8646 28.8573 24.8646ZM28.8573 13.8563H14.0376C13.4065 13.8563 12.8949 14.3683 12.8949 15C12.8949 15.6316 13.4065 16.1437 14.0376 16.1437H28.8573C29.4884 16.1437 30 15.6316 30 15C30 14.3683 29.4884 13.8563 28.8573 13.8563Z" fill="#333333"/>
</g>
<defs>
<clipPath id="clip0_42_124">
<rect width="30" height="30" fill="white"/>
</clipPath>
</defs>
</svg>
