<svg width="30" height="30" viewBox="0 0 30 30" fill="none" xmlns="http://www.w3.org/2000/svg">
<path d="M11.9681 27.1875C12.7499 27.1875 13.4362 26.5312 13.4362 25.7812C13.4362 25.0312 12.7499 24.375 11.9681 24.375C11.1862 24.375 10.4999 25.0312 10.4999 25.7812C10.4999 26.5312 11.1862 27.1875 11.9681 27.1875Z" fill="#333333"/>
<path fill-rule="evenodd" clip-rule="evenodd" d="M3.91312 0C1.7606 0 0 1.6875 0 3.75V26.25C0 28.3125 1.76063 30 3.91308 30H20.051C22.2016 30 23.9641 28.3125 23.9641 26.25V19.8571C23.9641 19.3838 23.5804 19 23.107 19H22.8638C22.3904 19 22.0066 19.3838 22.0066 19.8571V21.5625H1.95563V6.5625H22.0066V8.71428C22.0066 9.18767 22.3904 9.57143 22.8638 9.57143H23.107C23.5804 9.57143 23.9641 9.18767 23.9641 8.71428V3.75C23.9641 1.6875 22.2016 0 20.0511 0H3.91312ZM20.0529 28.125H3.91308C2.83309 28.1213 1.95749 27.2831 1.95559 26.25V23.4375H22.0066V26.25C22.0048 27.285 21.131 28.1213 20.0529 28.125ZM1.95563 4.68561V3.75C1.95749 2.715 2.83313 1.87686 3.91312 1.875H20.0511C21.1292 1.87686 22.0048 2.715 22.0066 3.75V4.68561H1.95563Z" fill="#333333"/>
<path d="M28.5135 6.57263C28.848 6.23769 29.3904 6.23769 29.7249 6.57263L29.7491 6.59683C30.0836 6.93177 30.0836 7.4748 29.7491 7.80974L17.5747 19.9988C17.3343 20.2396 16.9864 20.3073 16.6856 20.202C16.6725 20.1974 16.6595 20.1925 16.6466 20.1872C16.5435 20.1454 16.4468 20.0826 16.3631 19.9988L8.82227 12.4489C8.48774 12.1139 8.48774 11.5709 8.82227 11.236L8.84644 11.2118C9.18097 10.8768 9.72336 10.8768 10.0579 11.2118L16.9689 18.1311L28.5135 6.57263Z" fill="#333333"/>
</svg>
