<svg width="30" height="30" viewBox="0 0 30 30" fill="none" xmlns="http://www.w3.org/2000/svg">
<g clip-path="url(#clip0_42_208)">
<path fill-rule="evenodd" clip-rule="evenodd" d="M2.28571 4.57143C2.28571 3.30907 3.30907 2.28571 4.57143 2.28571H25.4286C26.6909 2.28571 27.7143 3.30907 27.7143 4.57143V21.1429C27.7143 22.4052 26.6909 23.4286 25.4286 23.4286H4.57143C3.30907 23.4286 2.28571 22.4052 2.28571 21.1429V4.57143ZM25.4286 0H4.57143C2.04671 0 0 2.04671 0 4.57143V21.1429C0 23.6676 2.04671 25.7143 4.57143 25.7143H25.4286C27.9533 25.7143 30 23.6676 30 21.1429V4.57143C30 2.04671 27.9533 0 25.4286 0ZM22.5714 27.8571H7.57143C6.97968 27.8571 6.5 28.3368 6.5 28.9286C6.5 29.5203 6.97968 30 7.57143 30H22.5714C23.1632 30 23.6429 29.5203 23.6429 28.9286C23.6429 28.3368 23.1632 27.8571 22.5714 27.8571ZM8.94375 12.7811C8.72061 12.5579 8.35879 12.5579 8.13565 12.7811L6.05561 14.8611C5.83247 15.0842 5.83247 15.446 6.05561 15.6692L8.91979 18.5334C9.14297 18.7565 9.50479 18.7565 9.72793 18.5334L11.8079 16.4534C12.0311 16.2302 12.0311 15.8684 11.8079 15.6453L8.94375 12.781V12.7811ZM19.3085 7.37601C20.4777 7.37599 21.4256 6.39885 21.4256 5.19343C21.4256 3.98808 20.4777 3.0109 19.3084 3.0109C18.1392 3.0109 17.1913 3.98804 17.1913 5.19343C17.1913 6.39883 18.1392 7.37601 19.3085 7.37601ZM24.2307 11.9348C24.1099 11.7555 23.7629 11.7106 23.383 11.6615C22.9847 11.61 22.5502 11.5539 22.3023 11.3331C21.539 10.6538 20.8031 9.73443 20.4846 9.04611C19.9638 7.92086 18.2233 7.63539 17.1753 7.63539C16.1272 7.63539 12.9152 9.88264 12.9152 9.88264C12.2025 10.5309 10.271 12.9093 10.4894 13.3624C10.6929 13.7845 11.0481 13.6722 11.2396 13.6117L11.2397 13.6116C11.2537 13.6072 11.2668 13.6031 11.279 13.5994C11.9897 13.3858 12.6842 12.4978 13.362 11.4814C13.8659 10.7256 16.2271 9.88264 16.2271 9.88264C16.2271 9.88264 16.3529 11.4817 15.9756 12.3893C15.7369 12.9635 15.1303 15.9947 15.0533 16.7885C14.9093 18.2722 14.4887 18.66 13.7914 19.3029C13.4732 19.5963 13.0972 19.9429 12.6636 20.4712C11.2802 22.1567 12.2863 22.434 12.9152 22.3476C13.5441 22.2611 16.4535 19.4092 16.7889 18.5016C16.9644 18.0265 17.0667 17.3331 17.1482 16.7802V16.7801C17.2224 16.2769 17.2795 15.89 17.359 15.89C17.4481 15.89 17.5495 15.9877 17.8349 16.2627L17.8349 16.2627C18.0844 16.5031 18.4744 16.879 19.1198 17.4435C20.0897 18.2919 20.1644 19.0989 20.2668 20.2055V20.2056C20.3105 20.6774 20.3592 21.2037 20.4846 21.8109C20.6506 22.6154 20.9372 22.7769 21.2237 22.801C21.6606 22.8379 22.0963 22.3591 22.0963 21.8109C22.0963 21.6962 22.099 21.5539 22.1021 21.3907C22.1233 20.2625 22.1633 18.1359 21.4675 17.2298C21.2427 16.9371 20.9579 16.6306 20.6647 16.3153L20.6647 16.3153C19.919 15.513 19.1198 14.6531 19.1198 13.8155C19.1198 12.6486 19.9638 11.0615 19.9638 11.0615C20.4846 12.1531 21.7277 12.8585 22.5676 13.0769C23.4075 13.2952 24.8186 12.8081 24.2307 11.9348Z" fill="#333333"/>
</g>
<defs>
<clipPath id="clip0_42_208">
<rect width="30" height="30" fill="white"/>
</clipPath>
</defs>
</svg>
