<svg width="30" height="30" viewBox="0 0 30 30" fill="none" xmlns="http://www.w3.org/2000/svg">
<g clip-path="url(#clip0_42_200)">
<path d="M12.8296 0C17.1843 0 20.7144 3.36939 20.7144 7.52568C20.7144 11.5343 17.4305 14.8105 13.2903 15.0382C14.671 15.086 16.0221 15.367 17.3125 15.8771C17.8979 16.1085 18.186 16.7735 17.956 17.3623C17.7259 17.9512 17.0648 18.2409 16.4794 18.0095C15.324 17.5528 14.1088 17.3212 12.8674 17.3212C10.0544 17.3212 7.40529 18.5104 5.40796 20.6695C3.38946 22.8515 2.27789 25.7583 2.27789 28.8544C2.27789 29.4871 1.76796 30 1.13896 30C0.509893 30 0 29.4871 0 28.8544C0 26.9986 0.336714 25.197 1.00082 23.4997C1.64396 21.8559 2.56568 20.3786 3.74032 19.1088C4.92039 17.8331 6.29664 16.8306 7.83082 16.1291C9.27986 15.4666 10.811 15.1008 12.389 15.0394C8.23939 14.8212 4.94475 11.5409 4.94475 7.52568C4.94479 3.36939 8.47497 0 12.8296 0H12.8296ZM16.7066 23.5053L16.7198 23.5087L19.6473 24.2929C20.0284 24.3949 20.2545 24.7866 20.1524 25.1677C20.0514 25.5444 19.6675 25.7697 19.2906 25.6763L19.2774 25.6728L18.1369 25.3674C18.8517 27.1118 20.5621 28.2857 22.4973 28.2857C24.4901 28.2857 26.2451 27.0408 26.9194 25.2102L26.9396 25.1545C27.0976 24.7083 27.5876 24.4746 28.0341 24.6325C28.4805 24.7905 28.7144 25.2803 28.5564 25.7266C27.6565 28.2675 25.2419 30 22.4973 30C19.9838 30 17.7474 28.547 16.6976 26.3505L16.4402 27.3109C16.3393 27.6876 15.9553 27.9129 15.5784 27.8194L15.5653 27.816C15.1886 27.7151 14.9633 27.3312 15.0568 26.9544L15.0602 26.9412L15.8448 24.0139C15.9458 23.6372 16.3297 23.4118 16.7066 23.5053L16.7066 23.5053ZM22.4977 17.1429C25.028 17.1429 27.2769 18.6145 28.3179 20.8351L28.5955 19.7994C28.6965 19.4227 29.0804 19.1974 29.4573 19.2908L29.4705 19.2943C29.8471 19.3951 30.0725 19.779 29.9789 20.1559L29.9755 20.1691L29.1909 23.0964C29.0899 23.4731 28.706 23.6984 28.3291 23.605L28.3159 23.6016L25.3884 22.8174C25.0074 22.7153 24.7812 22.3237 24.8834 21.9426C24.9843 21.5659 25.3683 21.3406 25.7451 21.434L25.7583 21.4374L26.838 21.7266C26.1116 20.0089 24.4153 18.8571 22.4978 18.8571C20.5052 18.8571 18.7504 20.1021 18.0757 21.9328L18.0556 21.9884C17.8975 22.4346 17.4074 22.6683 16.961 22.5103C16.5146 22.3522 16.2808 21.8624 16.4389 21.4162C17.3391 18.8754 19.7534 17.1429 22.4978 17.1429H22.4977ZM12.8296 2.29118C9.73797 2.29118 7.22268 4.63939 7.22268 7.52568C7.22268 10.412 9.73797 12.7602 12.8296 12.7602C15.9213 12.7602 18.4366 10.412 18.4366 7.52568C18.4366 4.63936 15.9213 2.29118 12.8296 2.29118Z" fill="#333333"/>
</g>
<defs>
<clipPath id="clip0_42_200">
<rect width="30" height="30" fill="white"/>
</clipPath>
</defs>
</svg>
