<svg width="30" height="30" viewBox="0 0 30 30" fill="none" xmlns="http://www.w3.org/2000/svg">
<g clip-path="url(#clip0_42_245)">
<path fill-rule="evenodd" clip-rule="evenodd" d="M28.8207 9.16096C28.0652 7.37464 26.9838 5.77061 25.6066 4.39339C24.2294 3.01618 22.6253 1.93479 20.839 1.17925C18.989 0.39675 17.0245 0 15 0C12.9755 0 11.011 0.39675 9.16096 1.17925C7.37464 1.93479 5.77061 3.01621 4.39339 4.39339C3.01618 5.77061 1.93479 7.37464 1.17925 9.16096C0.39675 11.011 0 12.9755 0 15C0 17.0245 0.39675 18.989 1.17925 20.839C1.93479 22.6254 3.01621 24.2294 4.39339 25.6066C5.77061 26.9838 7.37464 28.0652 9.16096 28.8207C11.011 29.6032 12.9755 30 15 30C17.0245 30 18.989 29.6032 20.839 28.8207C22.6254 28.0652 24.2294 26.9838 25.6066 25.6066C26.9838 24.2294 28.0652 22.6253 28.8207 20.839C29.6032 18.989 30 17.0245 30 15C30 12.9755 29.6032 11.011 28.8207 9.16096ZM23.9904 23.9904C21.8604 26.1203 19.1076 27.4006 16.1429 27.663V25.2857C16.1429 24.6545 15.6312 24.1429 15 24.1429C14.3688 24.1429 13.8571 24.6545 13.8571 25.2857V27.663C10.8924 27.4006 8.13961 26.1203 6.00964 23.9904C3.83696 21.8177 2.54761 18.9971 2.32168 15.9643H4.71429C5.34546 15.9643 5.85714 15.4526 5.85714 14.8214C5.85714 14.1902 5.34546 13.6786 4.71429 13.6786H2.35368C2.65089 10.7819 3.9225 8.09679 6.00964 6.00964C8.13961 3.87968 10.8924 2.59939 13.8571 2.33696V4.71429C13.8571 5.34546 14.3688 5.85714 15 5.85714C15.6312 5.85714 16.1429 5.34546 16.1429 4.71429V2.33696C19.1076 2.59943 21.8604 3.87971 23.9904 6.00964C26.0775 8.09679 27.3491 10.7819 27.6463 13.6786H25.2857C24.6545 13.6786 24.1429 14.1902 24.1429 14.8214C24.1429 15.4526 24.6545 15.9643 25.2857 15.9643H27.6783C27.4524 18.9971 26.163 21.8177 23.9904 23.9904ZM7.17243 22.8275L18.2574 18.2574L22.8274 7.1725L11.7425 11.7426L7.17243 22.8275ZM19.6724 10.3275L16.9444 16.9444L10.3274 19.6725L13.0555 13.0555L19.6724 10.3275ZM15.6366 16.1902C15.4904 16.1902 15.3441 16.1343 15.2326 16.0228L13.9951 14.7853C13.7719 14.5622 13.7719 14.2004 13.9951 13.9772C14.2182 13.7541 14.5801 13.7541 14.8032 13.9772L16.0406 15.2147C16.2638 15.4378 16.2638 15.7996 16.0406 16.0228C15.9291 16.1344 15.7828 16.1902 15.6366 16.1902Z" fill="#333333"/>
</g>
<defs>
<clipPath id="clip0_42_245">
<rect width="30" height="30" fill="white"/>
</clipPath>
</defs>
</svg>
