<svg width="30" height="30" viewBox="0 0 30 30" fill="none" xmlns="http://www.w3.org/2000/svg">
<path d="M10.7143 2.28571C11.4244 2.28571 12 2.86136 12 3.57143V10.7143C12 11.4244 11.4244 12 10.7143 12H3.57143C2.86136 12 2.28571 11.4244 2.28571 10.7143V3.57143C2.28571 2.86136 2.86136 2.28571 3.57143 2.28571H10.7143ZM3.57143 0C1.599 0 0 1.599 0 3.57143V10.7143C0 12.6867 1.599 14.2857 3.57143 14.2857H10.7143C12.6867 14.2857 14.2857 12.6867 14.2857 10.7143V3.57143C14.2857 1.599 12.6867 0 10.7143 0H3.57143ZM22.8571 12C20.1746 12 18 9.82539 18 7.14286C18 4.46032 20.1746 2.28571 22.8571 2.28571C25.5397 2.28571 27.7143 4.46032 27.7143 7.14286C27.7143 9.82539 25.5397 12 22.8571 12ZM22.8571 14.2857C26.802 14.2857 30 11.0878 30 7.14286C30 3.19796 26.802 0 22.8571 0C18.9123 0 15.7143 3.19796 15.7143 7.14286C15.7143 11.0878 18.9123 14.2857 22.8571 14.2857ZM10.7143 18C11.4244 18 12 18.5756 12 19.2857V26.4286C12 27.1386 11.4244 27.7143 10.7143 27.7143H3.57143C2.86136 27.7143 2.28571 27.1386 2.28571 26.4286V19.2857C2.28571 18.5756 2.86136 18 3.57143 18H10.7143ZM3.57143 15.7143C1.599 15.7143 0 17.3133 0 19.2857V26.4286C0 28.401 1.599 30 3.57143 30H10.7143C12.6867 30 14.2857 28.401 14.2857 26.4286V19.2857C14.2857 17.3133 12.6867 15.7143 10.7143 15.7143H3.57143ZM26.4286 18C27.1386 18 27.7143 18.5756 27.7143 19.2857V26.4286C27.7143 27.1386 27.1386 27.7143 26.4286 27.7143H19.2857C18.5756 27.7143 18 27.1386 18 26.4286V19.2857C18 18.5756 18.5756 18 19.2857 18H26.4286ZM19.2857 15.7143C17.3133 15.7143 15.7143 17.3133 15.7143 19.2857V26.4286C15.7143 28.401 17.3133 30 19.2857 30H26.4286C28.401 30 30 28.401 30 26.4286V19.2857C30 17.3133 28.401 15.7143 26.4286 15.7143H19.2857Z" fill="#333333"/>
</svg>
