<svg width="30" height="30" viewBox="0 0 30 30" fill="none" xmlns="http://www.w3.org/2000/svg">
<g clip-path="url(#clip0_42_182)">
<path d="M8.2241 20.1547C8.67042 19.7084 9.39402 19.7084 9.84035 20.1547L9.84527 20.1597C10.2916 20.606 10.2916 21.3296 9.84527 21.7759L3.91303 27.7081H6.1591L6.17806 27.7083C6.80221 27.7184 7.30506 28.2275 7.30506 28.8541C7.30506 29.4869 6.79199 30 6.1591 30H2.14239L2.10696 29.9997C0.940106 29.9808 0 29.029 0 27.8576V23.8409L0.000142796 23.8219C0.0102856 23.1978 0.519392 22.6949 1.14593 22.6949L1.16486 22.6951C1.78903 22.7052 2.29185 23.2143 2.29185 23.8409V26.087L8.2241 20.1547ZM21.7759 20.1547L27.7081 26.087V23.8409C27.7081 23.2143 28.211 22.7052 28.8351 22.6951L28.854 22.6949C29.4806 22.6949 29.9897 23.1978 29.9998 23.8219L30 23.8409V27.8576C30 29.029 29.0599 29.9808 27.893 29.9997L27.8576 30H23.8409C23.208 30 22.6949 29.487 22.6949 28.8541C22.6949 28.2275 23.1978 27.7184 23.8219 27.7083L23.8408 27.7081H26.0869L20.1547 21.7759C19.7084 21.3296 19.7084 20.606 20.1547 20.1597L20.1596 20.1547C20.6059 19.7084 21.3295 19.7084 21.7759 20.1547ZM6.1591 3.57627e-05C6.79199 3.57627e-05 7.30506 0.513071 7.30506 1.14596C7.30506 1.77253 6.80221 2.28164 6.17806 2.29175L6.15913 2.29189H3.91303L9.84527 8.22413C10.2916 8.67045 10.2916 9.39406 9.84527 9.84038L9.84035 9.84531C9.39402 10.2916 8.67042 10.2916 8.2241 9.84531L2.29185 3.91307V6.15913C2.29185 6.78571 1.789 7.29481 1.16489 7.30492L1.14596 7.3051C0.519392 7.3051 0.0102499 6.80224 0.000142796 6.1781L0 6.15917V2.14239C0 0.970999 0.940106 0.0191787 2.10696 0.000285847L2.14239 0H6.1591V3.57627e-05ZM27.8576 3.57627e-05L27.893 0.000321354C29.0599 0.0192499 30 0.971034 30 2.14243V6.15913L29.9998 6.1781C29.9897 6.80224 29.4806 7.3051 28.854 7.3051L28.8351 7.30492C28.2109 7.29481 27.7081 6.78571 27.7081 6.15913V3.91307L21.7759 9.84531C21.3295 10.2916 20.6059 10.2916 20.1596 9.84531L20.1547 9.84038C19.7084 9.39406 19.7084 8.67045 20.1547 8.22413L26.0869 2.29189H23.8409L23.8219 2.29175C23.1978 2.28164 22.6949 1.77253 22.6949 1.14596C22.6949 0.513107 23.208 3.57627e-05 23.8409 3.57627e-05H27.8576Z" fill="#333333"/>
</g>
<defs>
<clipPath id="clip0_42_182">
<rect width="30" height="30" fill="white"/>
</clipPath>
</defs>
</svg>
