<svg width="30" height="30" viewBox="0 0 30 30" fill="none" xmlns="http://www.w3.org/2000/svg">
<path d="M8.41027 5.65832C9.28834 4.78056 10.7119 4.78056 11.59 5.65832L19.3419 13.4103C20.2197 14.2883 20.2197 15.7119 19.3419 16.59L11.59 24.3419C10.7119 25.2197 9.28834 25.2197 8.41027 24.3419L0.658317 16.59C-0.21944 15.7119 -0.219437 14.2883 0.658317 13.4103L8.41027 5.65832ZM21.3077 7.99426C21.9663 7.33565 23.0339 7.33565 23.6925 7.99426L29.506 13.8077C30.1646 14.4663 30.1646 15.5339 29.506 16.1925L23.6925 22.006C23.0339 22.6646 21.9663 22.6646 21.3077 22.006L19.003 19.7023C18.6684 19.3675 18.6683 18.8241 19.003 18.4894C19.3378 18.1547 19.8812 18.1547 20.2159 18.4894L22.5001 20.7745L28.2745 15.0001L22.5001 9.2257L20.2159 11.5109C19.8812 11.8455 19.3378 11.8455 19.003 11.5109C18.6683 11.1761 18.6684 10.6327 19.003 10.298L21.3077 7.99426Z" fill="#333333"/>
</svg>
