<svg width="30" height="30" viewBox="0 0 30 30" fill="none" xmlns="http://www.w3.org/2000/svg">
<path fill-rule="evenodd" clip-rule="evenodd" d="M14.9349 21.2856H5.20385C3.59542 21.2856 2.28689 19.847 2.28689 18.0787V7.44996C2.28689 5.68164 3.59546 4.24303 5.20385 4.24303H8.34445V4.95678C8.34445 5.26928 8.59999 5.5226 8.9152 5.5226H16.3348C16.65 5.5226 16.9055 5.26924 16.9055 4.95678V4.24303H20.0461C21.6545 4.24303 22.9631 5.68164 22.9631 7.44996V15.4157C22.9631 16.0469 23.475 16.5586 24.1065 16.5586C24.738 16.5586 25.25 16.0469 25.25 15.4157V7.44996C25.25 4.42132 22.9155 1.95735 20.046 1.95735H14.7653V0.565749C14.7653 0.253286 14.5119 0 14.1993 0H11.0506C10.738 0 10.4846 0.253321 10.4846 0.565714V1.95728H5.20385C2.33443 1.95732 0 4.42128 0 7.44992V18.0787C0 21.1073 2.33443 23.5713 5.20385 23.5713H9.4501L0.620249 28.3904C0.204536 28.6173 0.0516071 29.138 0.278571 29.5535C0.434321 29.8386 0.728392 30 1.032 30C1.17538 30 1.31645 29.9639 1.44221 29.895L11.4841 24.4144L11.4776 27.7833C11.4763 28.4145 11.9873 28.9272 12.6188 28.9284H12.6211C13.2515 28.9284 13.7632 28.4182 13.7644 27.7878L13.7722 23.7878C13.7723 23.7151 13.7655 23.6427 13.7519 23.5713H14.9349C15.5664 23.5713 16.0783 23.0596 16.0783 22.4284C16.0783 21.7973 15.5664 21.2856 14.9349 21.2856ZM19.2069 8.25003H5.96402C5.49077 8.25003 5.10713 8.63378 5.10713 9.10717C5.10713 9.58056 5.49077 9.96431 5.96402 9.96431H19.2069C19.6801 9.96431 20.0638 9.58056 20.0638 9.10717C20.0638 8.63378 19.6801 8.25003 19.2069 8.25003ZM20.0638 13.4034C20.0638 12.93 19.6801 12.5463 19.2069 12.5463H5.96402C5.49077 12.5463 5.10713 12.93 5.10713 13.4034C5.10713 13.8768 5.49077 14.2606 5.96402 14.2606H19.2069C19.6801 14.2606 20.0638 13.8768 20.0638 13.4034ZM5.96406 16.8425C5.49081 16.8425 5.10716 17.2263 5.10716 17.6997C5.10716 18.173 5.49081 18.5568 5.96406 18.5568H14.3035C14.7767 18.5568 15.1604 18.173 15.1604 17.6997C15.1604 17.2263 14.7767 16.8425 14.3035 16.8425H5.96406ZM30 23.5714C30 20.021 27.1218 17.1429 23.5714 17.1429C20.021 17.1429 17.1428 20.021 17.1428 23.5714C17.1428 27.1218 20.021 30 23.5714 30C27.1218 30 30 27.1218 30 23.5714ZM18.8571 23.5714C18.8571 20.9678 20.9678 18.8572 23.5714 18.8572C26.175 18.8572 28.2857 20.9678 28.2857 23.5714C28.2857 26.1751 26.175 28.2857 23.5714 28.2857C20.9678 28.2857 18.8571 26.1751 18.8571 23.5714ZM27.1071 23.6072C27.1071 23.1338 26.7234 22.75 26.25 22.75H20.9285L20.9144 22.7501C20.4475 22.7577 20.0714 23.1385 20.0714 23.6072C20.0714 24.0805 20.4552 24.4643 20.9285 24.4643H26.25L26.2641 24.4642C26.731 24.4566 27.1071 24.0758 27.1071 23.6072Z" fill="#333333"/>
</svg>
