<svg width="30" height="30" viewBox="0 0 30 30" fill="none" xmlns="http://www.w3.org/2000/svg">
<g clip-path="url(#clip0_42_222)">
<path fill-rule="evenodd" clip-rule="evenodd" d="M7.4801 16.9183C8.88424 15.4575 9.15355 13.2798 8.29999 11.5659L15.8077 3.75481C17.0869 2.43315 19.153 2.44039 20.423 3.7705C21.7016 5.09215 21.7083 7.24204 20.4382 8.57275L11.1031 18.2846L11.1451 18.3283L9.70298 19.8289C7.59131 22.0246 7.85625 25.7012 10.1253 28.0616C12.3932 30.4214 15.9268 30.6965 18.0373 28.5008L25.4339 20.8061L23.5808 18.8785L23.5811 18.8782H23.5805L23.5808 18.8785L16.1851 26.5735C15.2134 27.5851 13.346 27.4397 12.0346 26.0746C10.7227 24.7101 10.5829 22.7671 11.5546 21.7561L21.7854 11.1105L21.7446 11.068L22.2904 10.5C24.6215 8.07449 24.63 4.17224 22.3336 1.78288C20.0365 -0.605882 16.2866 -0.597437 13.9555 1.82752L6.44778 9.63918C4.80086 8.75191 2.70871 9.03301 1.30549 10.4934C-0.425777 12.2958 -0.431854 15.1883 1.26782 16.9569C2.96688 18.7256 5.74822 18.7195 7.4801 16.9183ZM3.17714 14.9705C3.86442 15.6853 4.96189 15.6823 5.62729 14.9898C6.29331 14.2979 6.29574 13.156 5.60906 12.4412C4.92056 11.7258 3.82371 11.7282 3.15769 12.4207C2.4929 13.1126 2.48986 14.2551 3.17714 14.9693V14.9705ZM28.6267 22.293L30 13.264L21.5977 15.9351L26.1394 17.6844L28.6267 22.293Z" fill="#333333"/>
</g>
<defs>
<clipPath id="clip0_42_222">
<rect width="30" height="30" fill="white"/>
</clipPath>
</defs>
</svg>
