<svg width="30" height="30" viewBox="0 0 30 30" fill="none" xmlns="http://www.w3.org/2000/svg">
<path fill-rule="evenodd" clip-rule="evenodd" d="M26.7785 30H14.607L3.22148 30C1.44496 30 0 28.3701 0 26.367V6.9767C0 4.97323 1.44496 3.3437 3.22148 3.3437H6.37044V2.93431C6.37044 1.87909 6.85534 0.932566 7.66811 0.401998C8.48689 -0.132379 9.46575 -0.134107 10.2855 0.397486L14.8322 3.34368H26.7785C28.555 3.34368 30 4.9732 30 6.97667V26.367C30 28.3701 28.5547 30 26.7785 30ZM8.2114 25.8555L10.8697 27.5781H3.22148C2.62919 27.5781 2.14765 27.0347 2.14765 26.367V6.9767C2.14765 6.30896 2.62919 5.76556 3.22148 5.76556H6.37044V22.2791C6.37044 23.7493 7.07582 25.1198 8.2114 25.8555ZM16.0742 27.5781H26.7785C27.3708 27.5781 27.8523 27.0347 27.8523 26.367V6.9767C27.8523 6.30903 27.3708 5.7656 26.7785 5.7656H16.0742V27.5781ZM13.9265 26.7656L9.28352 23.7556C8.81238 23.4507 8.52013 22.8847 8.52013 22.2785V2.93325C8.51761 2.84648 8.53714 2.76053 8.57677 2.68401C8.6164 2.60749 8.67474 2.54306 8.74596 2.49717C8.81616 2.44975 8.89819 2.4245 8.98203 2.4245C9.06586 2.4245 9.14789 2.44975 9.21809 2.49717L13.9265 5.54837V26.7656Z" fill="#333333"/>
</svg>
