<svg width="30" height="30" viewBox="0 0 30 30" fill="none" xmlns="http://www.w3.org/2000/svg">
<g clip-path="url(#clip0_42_185)">
<path d="M27.3371 9.81643C26.1654 9.50882 23.4089 9.51178 19.3809 9.40632C19.5713 8.5275 19.6153 7.73361 19.6153 6.32457C19.6153 2.96161 17.1663 0 14.9985 0C13.4665 0 12.2068 1.25086 12.1863 2.79171C12.1658 4.67825 11.5829 7.93868 8.43668 9.59379C8.20525 9.71682 7.54614 10.042 7.44946 10.083L7.49925 10.124C7.00711 9.69925 6.32461 9.37407 5.62446 9.37407H2.81221C1.26257 9.37407 0 10.6366 0 12.1863V27.1849C0 28.7345 1.26257 29.9971 2.81221 29.9971H5.62446C6.74054 29.9971 7.67211 29.3233 8.12614 28.38C8.13789 28.383 8.15839 28.3888 8.17007 28.3917C8.23161 28.4093 8.30486 28.4269 8.39568 28.4503C8.41325 28.4533 8.42204 28.4562 8.43961 28.4621C8.97861 28.5968 10.0185 28.8458 12.239 29.3555C12.7165 29.4639 15.23 30 17.8401 30H22.9636C24.525 30 25.685 29.417 26.3207 28.1926C26.9446 27.1028 30.0029 21.2645 30 13.0387C29.9971 11.8524 29.1768 10.3408 27.3371 9.81643ZM6.56189 27.1849C6.56189 27.7034 6.14296 28.1222 5.6245 28.1222H2.81225C2.29375 28.1222 1.87486 27.7033 1.87486 27.1849V12.1863C1.87486 11.6678 2.29379 11.2489 2.81225 11.2489H5.6245C6.143 11.2489 6.56189 11.6678 6.56189 12.1863V27.1849ZM28.1018 13.6246C27.7121 23.0456 24.6685 27.302 24.6685 27.302C24.3844 27.8117 23.9274 28.1193 22.9607 28.1193H17.8371C15.2622 28.1193 12.7077 27.5364 12.6433 27.5217C8.75011 26.6253 8.54507 26.555 8.299 26.4847L8.43668 12.7136C8.43668 11.2899 8.46889 11.6473 8.43668 11.6678C12.7195 9.89257 14.023 6.00529 14.0611 2.81221C14.067 2.364 14.4126 1.87482 14.9985 1.87482C15.9887 1.87482 17.7405 3.86389 17.7405 6.32457C17.7405 8.548 17.6526 8.93171 16.8733 11.2489C26.2474 11.2489 26.1801 11.3836 27.0091 11.6004C28.0344 11.8934 28.1223 12.7429 28.1223 13.0358C28.1223 13.3581 28.1135 13.3112 28.1017 13.6246H28.1018Z" fill="#333333"/>
</g>
<defs>
<clipPath id="clip0_42_185">
<rect width="30" height="30" fill="white"/>
</clipPath>
</defs>
</svg>
