<svg width="30" height="30" viewBox="0 0 30 30" fill="none" xmlns="http://www.w3.org/2000/svg">
<path d="M11.0756 13.6114C10.9241 13.8684 10.7484 14.1103 10.5509 14.3338L9.09675 15.9766L13.4415 15.9772L16.4378 18.9735L15.0122 29.9081L15.0001 30L14.988 29.9081L13.427 17.9365C13.3959 17.6979 13.192 17.52 12.9517 17.5216L8.2215 17.5534H8.21453C7.8991 17.5534 7.59578 17.4198 7.39471 17.177C7.19021 16.9306 7.13649 16.6409 7.14342 16.3773C7.15557 15.9939 7.30982 15.6279 7.56457 15.3416L9.37749 13.2947C9.59993 13.043 9.78066 12.7574 9.91285 12.4486L11.0756 13.6114ZM4.91528 4.90614C5.3616 4.45986 6.08521 4.45986 6.53149 4.90614L25.1183 23.493C25.5646 23.9393 25.5646 24.6629 25.1183 25.1092C24.672 25.5555 23.9484 25.5555 23.5021 25.1092L4.91528 6.52239C4.46899 6.07607 4.46899 5.35246 4.91528 4.90614ZM19.7939 0C20.4039 0 20.9551 0.395536 21.1267 0.983607C21.2376 1.35829 21.1925 1.80239 20.7471 2.24818C20.7019 2.29326 20.6551 2.33666 20.6067 2.37829L19.4785 3.50757C19.3979 3.58808 19.3358 3.68521 19.2966 3.79217C19.2574 3.89913 19.242 4.01336 19.2514 4.12689L19.8442 11.4647C19.898 12.143 20.1718 12.7848 20.6224 13.2948L22.4354 15.3418C22.6902 15.628 22.8444 15.994 22.8566 16.3774C22.8635 16.6411 22.8081 16.9325 22.6053 17.1771C22.5862 17.1996 22.5654 17.224 22.5429 17.2465C22.3436 17.446 22.0697 17.5535 21.7855 17.5535H21.7785L20.0569 17.5419L18.493 15.978L20.9015 15.9784L19.4474 14.3356C18.7749 13.5758 18.3606 12.6026 18.2791 11.5913L17.6863 4.2535C17.6291 3.56482 17.8787 2.88829 18.3675 2.39911L19.1925 1.57339L15.0224 1.58721H14.9842L10.8072 1.57329L11.6305 2.39729C12.1193 2.88646 12.3671 3.56129 12.3117 4.25171L11.8973 9.38221L10.4414 7.92639L10.7484 4.12679C10.7578 4.01326 10.7424 3.89904 10.7032 3.79208C10.6639 3.68513 10.6019 3.58801 10.5213 3.5075L9.39296 2.37818C8.81757 1.889 8.75339 1.39461 8.873 0.983464C8.93726 0.766646 9.05462 0.569292 9.21442 0.409286C9.47096 0.152571 9.82628 0.00164285 10.2076 0.00164285H10.211L14.9877 0.0155714H15.012L19.7904 0H19.7939Z" fill="#333333"/>
</svg>
