<svg width="30" height="30" viewBox="0 0 30 30" fill="none" xmlns="http://www.w3.org/2000/svg">
<g clip-path="url(#clip0_42_262)">
<path d="M18.7674 21.1868C19.2137 20.7406 19.9372 20.7406 20.3835 21.1868C20.8298 21.6331 20.8298 22.3566 20.3835 22.8029L18.9031 24.2833H28.8573C29.4884 24.2833 30 24.7949 30 25.4261C30 26.0572 29.4884 26.5688 28.8573 26.5688H18.9031L20.3835 28.0492C20.8298 28.4955 20.8298 29.219 20.3835 29.6653C19.9372 30.1116 19.2137 30.1116 18.7674 29.6653L15.4057 26.3036C15.3806 26.2825 15.3564 26.2603 15.3332 26.2371C15.1093 26.0132 14.9978 25.7195 14.9985 25.4261C14.9978 25.1326 15.1093 24.8389 15.3332 24.6151C15.3565 24.5918 15.3807 24.5696 15.4058 24.5484L18.7674 21.1868ZM20.5059 0C23.0498 0 25.099 2.10326 25.1397 4.693L25.1403 4.77164V9.57048C25.1403 10.2016 24.6287 10.7132 23.9976 10.7132C23.3728 10.7132 22.8651 10.2118 22.855 9.58941L22.8549 9.57048V4.77164C22.8549 3.40277 21.8143 2.30759 20.5445 2.28581L20.5059 2.28549H4.63447C3.3601 2.28549 2.30674 3.36699 2.28577 4.73025L2.28549 4.77164V25.2254C2.28549 26.5943 3.3261 27.6894 4.5959 27.7112L4.63447 27.7115H12.5702C13.2013 27.7115 13.7129 28.2232 13.7129 28.8543C13.7129 29.4791 13.2115 29.9868 12.5891 29.997H4.63443C2.09051 29.997 0.0413174 27.8938 0.000607141 25.304L0 25.2254V4.77164C0 2.17225 2.02376 0.0429601 4.55751 0.0006429L4.63447 0H20.5059H20.5059ZM11.4274 21.2836C12.0586 21.2836 12.5702 21.7952 12.5702 22.4264C12.5702 23.0575 12.0586 23.5691 11.4274 23.5691H5.85656C5.22545 23.5691 4.71382 23.0575 4.71382 22.4264C4.71382 21.7952 5.22545 21.2836 5.85656 21.2836H11.4274ZM26.2311 13.1876L29.5927 16.5491C29.6178 16.5703 29.6421 16.5926 29.6653 16.6158C29.8892 16.8397 30.0007 17.1334 30 17.4268C30.0007 17.7203 29.8892 18.014 29.6653 18.2379C29.6421 18.2611 29.6179 18.2833 29.5929 18.3044L26.2311 21.6661C25.7848 22.1124 25.0613 22.1124 24.615 21.6661C24.1688 21.2198 24.1688 20.4963 24.615 20.05L26.0955 18.5696H16.1413C15.5101 18.5696 14.9985 18.058 14.9985 17.4268C14.9985 16.7957 15.5101 16.2841 16.1413 16.2841H26.0955L24.615 14.8037C24.1688 14.3574 24.1688 13.6339 24.615 13.1876C25.0613 12.7413 25.7848 12.7413 26.2311 13.1876V13.1876ZM12.8559 13.8558C13.487 13.8558 13.9986 14.3674 13.9986 14.9985C13.9986 15.6296 13.487 16.1413 12.8559 16.1413H5.85656C5.22545 16.1413 4.71382 15.6296 4.71382 14.9985C4.71382 14.3674 5.22545 13.8558 5.85656 13.8558H12.8559ZM19.2838 6.42794C19.9149 6.42794 20.4266 6.93956 20.4266 7.57068C20.4266 8.2018 19.9149 8.71342 19.2838 8.71342H5.85656C5.22545 8.71342 4.71382 8.2018 4.71382 7.57068C4.71382 6.93956 5.22545 6.42794 5.85656 6.42794H19.2838Z" fill="#333333"/>
</g>
<defs>
<clipPath id="clip0_42_262">
<rect width="30" height="30" fill="white"/>
</clipPath>
</defs>
</svg>
