<svg width="30" height="30" viewBox="0 0 30 30" fill="none" xmlns="http://www.w3.org/2000/svg">
<g clip-path="url(#clip0_42_274)">
<path d="M28.7211 8.68621C28.8593 8.60612 29.0172 8.56652 29.1768 8.57193C29.3365 8.57735 29.4913 8.62756 29.6238 8.71682C29.7564 8.80653 29.8611 8.93163 29.9262 9.07791C29.9912 9.2242 30.0139 9.38579 29.9916 9.54432L27.79 25.2864C27.7736 25.4043 27.7328 25.5175 27.6701 25.6187C27.6074 25.7199 27.5243 25.8069 27.426 25.8741C27.2279 26.0099 26.9815 26.0544 26.7479 25.9993L18.1392 23.9358V27.173L19.8815 25.5357C20.2244 25.2141 20.7632 25.2302 21.0861 25.5753C21.4079 25.9197 21.3901 26.4606 21.0467 26.7834L17.8695 29.769C17.7118 29.9174 17.5034 30 17.2869 30C17.1702 30 17.0548 29.9761 16.9479 29.9293C16.6366 29.7941 16.4346 29.4858 16.4346 29.1452V22.8529C16.4346 22.8019 16.4392 22.751 16.4482 22.7008C16.4711 22.5728 16.5229 22.4518 16.5998 22.347C16.6185 22.3214 16.6387 22.2968 16.6601 22.2735L21.1793 17.2079C21.4933 16.8561 22.0316 16.8255 22.3828 17.1405C22.7335 17.4555 22.7634 17.9959 22.4499 18.3475L18.8751 22.3547L26.2324 24.1179L28.0607 11.0441L11.6544 20.5662L14.6058 21.3275C15.0613 21.4455 15.336 21.9113 15.2189 22.3687C15.1013 22.8262 14.6385 23.1011 14.1807 22.9837L9.21139 21.7015C8.87625 21.6147 8.62657 21.3337 8.57939 20.9897C8.53225 20.6459 8.69761 20.3075 8.99721 20.1339L28.7211 8.68621ZM11.7143 27.7143C12.3455 27.7143 12.8571 28.226 12.8571 28.8571C12.8571 29.4883 12.3455 30 11.7143 30H1.14286C0.511678 30 0 29.4883 0 28.8571C0 28.226 0.511678 27.7143 1.14286 27.7143H11.7143ZM5.28571 18.4643C5.91689 18.4643 6.42857 18.976 6.42857 19.6071C6.42857 20.2383 5.91689 20.75 5.28571 20.75H1.14286C0.511678 20.75 0 20.2383 0 19.6071C0 18.976 0.511678 18.4643 1.14286 18.4643H5.28571ZM18.1429 9.25C18.774 9.25 19.2857 9.76168 19.2857 10.3929C19.2857 11.024 18.774 11.5357 18.1429 11.5357H1.14286C0.511678 11.5357 0 11.024 0 10.3929C0 9.76168 0.511678 9.25 1.14286 9.25H18.1429ZM28.8571 0C29.4883 0 30 0.511678 30 1.14286C30 1.77404 29.4883 2.28571 28.8571 2.28571H1.14286C0.511678 2.28571 0 1.77404 0 1.14286C0 0.511678 0.511678 0 1.14286 0H28.8571Z" fill="#333333"/>
</g>
<defs>
<clipPath id="clip0_42_274">
<rect width="30" height="30" fill="white"/>
</clipPath>
</defs>
</svg>
