<svg width="30" height="30" viewBox="0 0 30 30" fill="none" xmlns="http://www.w3.org/2000/svg">
<g clip-path="url(#clip0_42_115)">
<path fill-rule="evenodd" clip-rule="evenodd" d="M30 5.60714C30 2.51039 27.4896 0 24.3929 0H5.60714C2.51039 0 0 2.51039 0 5.60714V24.3929C0 27.4896 2.51039 30 5.60714 30H24.3929C27.4896 30 30 27.4896 30 24.3929V5.60714ZM5.60714 2.28571H24.3929L24.4478 2.28614C26.2568 2.3155 27.7143 3.79111 27.7143 5.60714V24.3929L27.7139 24.4478C27.6845 26.2568 26.2089 27.7143 24.3929 27.7143H5.60714L5.55221 27.7139C3.74318 27.6845 2.28571 26.2089 2.28571 24.3929V5.60714L2.28614 5.55221C2.3155 3.74318 3.79111 2.28571 5.60714 2.28571ZM23.5714 15C23.5714 14.3688 23.0597 13.8571 22.4286 13.8571H7.57143L7.5525 13.8573C6.93007 13.8674 6.42857 14.3751 6.42857 15C6.42857 15.6312 6.94025 16.1429 7.57143 16.1429H22.4286L22.4475 16.1427C23.0699 16.1326 23.5714 15.6249 23.5714 15Z" fill="#333333"/>
</g>
<defs>
<clipPath id="clip0_42_115">
<rect width="30" height="30" fill="white"/>
</clipPath>
</defs>
</svg>
