<svg width="30" height="30" viewBox="0 0 30 30" fill="none" xmlns="http://www.w3.org/2000/svg">
<g clip-path="url(#clip0_42_214)">
<path fill-rule="evenodd" clip-rule="evenodd" d="M3.27729 0H26.7227C28.5299 0 30 1.46332 30 3.26204V26.7381C30 28.5367 28.5299 30 26.7227 30H3.27729C1.47018 30 0 28.5367 0 26.7381V3.26204C0 1.46332 1.47018 0 3.27729 0ZM26.7227 2.28571H3.27729C2.73054 2.28571 2.28571 2.72368 2.28571 3.26204V21.4581L5.02371 18.2613L5.05489 18.2301C6.26693 17.0181 8.23904 17.0181 9.45107 18.2301L9.48454 18.2636L11.7035 20.8837L18.1666 13.3377L18.1977 13.3065C18.7849 12.7194 19.5655 12.396 20.3958 12.396C21.2262 12.396 22.0068 12.7194 22.5939 13.3065L22.6274 13.34L22.658 13.376L27.7143 19.3465V3.262C27.7143 2.72368 27.2695 2.28571 26.7227 2.28571ZM3.27729 27.7143H26.7227C27.2695 27.7143 27.7143 27.2764 27.7143 26.7381V22.8834L20.9507 14.897C20.7987 14.7579 20.6031 14.6818 20.3958 14.6818C20.1877 14.6818 19.9914 14.7585 19.8391 14.8986L12.7414 23.1856C12.739 23.1839 12.7364 23.1824 12.7339 23.1809C12.7322 23.1799 12.7304 23.1788 12.7288 23.1778C12.6538 23.2588 12.5753 23.3332 12.5057 23.399L12.5 23.4045C12.3963 23.5028 12.2752 23.5807 12.1428 23.6344C12.0105 23.688 11.8658 23.7174 11.7142 23.7174C11.4545 23.7178 11.2024 23.6294 10.9999 23.4667C10.8966 23.3839 10.7804 23.2833 10.6772 23.1699C10.6752 23.1711 10.6732 23.1723 10.6712 23.1735C10.6659 23.1766 10.6606 23.1797 10.6555 23.1831L7.80789 19.8206C7.49393 19.5335 7.0095 19.5341 6.69621 19.8223L2.28571 24.9719V26.7381C2.28571 27.2764 2.73054 27.7143 3.27729 27.7143ZM12.0178 8.0567C12.0178 10.2524 10.2314 12.0388 8.03568 12.0388C5.83993 12.0388 4.05353 10.2524 4.05353 8.0567C4.05353 5.86095 5.83993 4.07455 8.03568 4.07455C10.2314 4.07455 12.0178 5.86095 12.0178 8.0567ZM10.3035 8.0567C10.3035 6.8062 9.28617 5.78884 8.03568 5.78884C6.78518 5.78884 5.76782 6.8062 5.76782 8.0567C5.76782 9.3072 6.78518 10.3246 8.03568 10.3246C9.28617 10.3246 10.3035 9.3072 10.3035 8.0567ZM11.7047 24.396L11.6936 24.4089L11.6827 24.396H11.7047Z" fill="#333333"/>
</g>
<defs>
<clipPath id="clip0_42_214">
<rect width="30" height="30" fill="white"/>
</clipPath>
</defs>
</svg>
