<svg width="30" height="30" viewBox="0 0 30 30" fill="none" xmlns="http://www.w3.org/2000/svg">
<path d="M25.7143 2.28571C26.8189 2.28571 27.7143 3.18114 27.7143 4.28571V21.4286C27.7143 22.5331 26.8189 23.4286 25.7143 23.4286H4.28571C3.18114 23.4286 2.28571 22.5331 2.28571 21.4286V4.28571C2.28571 3.18114 3.18114 2.28571 4.28571 2.28571H25.7143ZM4.28571 0C1.91879 0 0 1.91879 0 4.28571V21.4286C0 23.7955 1.91879 25.7143 4.28571 25.7143H25.7143C28.0812 25.7143 30 23.7955 30 21.4286V4.28571C30 1.91879 28.0812 0 25.7143 0H4.28571ZM2.85714 28.8571C2.85714 28.226 3.36882 27.7143 4 27.7143H26C26.6312 27.7143 27.1429 28.226 27.1429 28.8571C27.1429 29.4883 26.6312 30 26 30H4C3.36882 30 2.85714 29.4883 2.85714 28.8571ZM24.4917 10.3182C24.9633 9.89868 25.0056 9.17629 24.586 8.70471C24.1665 8.23311 23.4441 8.19089 22.9726 8.61039L17.6595 13.3366L12.1117 9.52254C11.9131 9.38598 11.6764 9.31571 11.4355 9.32179C11.1945 9.32788 10.9616 9.40999 10.7701 9.55639C9.54579 10.4925 7.96446 11.9229 6.68011 13.115C6.18664 13.573 5.72986 14.0026 5.34889 14.3609L5.34882 14.361C5.23079 14.4719 5.12007 14.5761 5.01779 14.6721C4.79971 14.8768 4.62275 15.042 4.49257 15.1609C4.44418 15.2054 4.39524 15.2493 4.34575 15.2925C4.33846 15.2989 4.33264 15.3038 4.32818 15.3076C3.83896 15.6624 3.70864 16.3425 4.04179 16.855C4.38575 17.3842 5.09364 17.5344 5.62286 17.1904C5.715 17.1305 5.80261 17.0546 5.83932 17.0228L5.84196 17.0205C5.90675 16.964 5.97082 16.9067 6.03414 16.8485C6.17714 16.7179 6.36443 16.5429 6.58211 16.3386C6.68682 16.2404 6.79918 16.1347 6.91832 16.0226C7.29861 15.665 7.74764 15.2427 8.23507 14.7903C9.29057 13.8106 10.4932 12.7205 11.5131 11.8847L17.1025 15.7275C17.5359 16.0254 18.1166 15.9891 18.5096 15.6396L24.4917 10.3182Z" fill="#333333"/>
</svg>
