<svg width="30" height="30" viewBox="0 0 30 30" fill="none" xmlns="http://www.w3.org/2000/svg">
<g clip-path="url(#clip0_42_113)">
<path d="M10.4285 5.72103e-05C11.0597 5.72103e-05 11.5714 0.511734 11.5714 1.14291V28.8571C11.5714 29.4883 11.0597 29.9999 10.4285 29.9999C9.79736 29.9999 9.28568 29.4883 9.28568 28.8571V3.51558L1.8775 9.73184C1.394 10.1376 0.673107 10.0745 0.267394 9.59099C-0.138318 9.10745 -0.0752473 8.3866 0.408287 7.98088L9.60075 0.267449C9.81872 0.0840246 10.0975 -0.0110375 10.3821 0.00102152C10.3975 0.00037867 10.413 5.72103e-05 10.4285 5.72103e-05ZM19.5714 5.72103e-05C20.2025 5.72103e-05 20.7142 0.511734 20.7142 1.14291V26.4844L28.1224 20.2682C28.6059 19.8624 29.3268 19.9255 29.7325 20.409C30.1382 20.8925 30.0751 21.6134 29.5916 22.0191L20.3991 29.7325C20.1812 29.916 19.9024 30.011 19.6178 29.999C19.6024 29.9996 19.5869 29.9999 19.5714 29.9999C18.9402 29.9999 18.4285 29.4883 18.4285 28.8571V1.14291C18.4285 0.511734 18.9402 5.72103e-05 19.5714 5.72103e-05Z" fill="#333333"/>
</g>
<defs>
<clipPath id="clip0_42_113">
<rect width="30" height="30" fill="white"/>
</clipPath>
</defs>
</svg>
