<svg width="30" height="30" viewBox="0 0 30 30" fill="none" xmlns="http://www.w3.org/2000/svg">
<g clip-path="url(#clip0_42_189)">
<path d="M18.249 21.8252C18.6896 22.2658 18.694 22.9775 18.2622 23.4236L18.249 23.437L14.4711 27.2148L14.3659 27.3185C10.8733 30.7086 5.49407 30.9311 2.28149 27.7185C-0.931083 24.5059 -0.708583 19.1267 2.68149 15.6341L2.78517 15.5289L6.57629 11.7378C7.02247 11.306 7.73415 11.3104 8.17483 11.7511C8.61547 12.1917 8.6199 12.9034 8.18804 13.3495L8.17483 13.3629L4.39703 17.1407L4.31882 17.2201C1.76228 19.8521 1.59778 23.8111 3.89335 26.1066C6.18889 28.4022 10.1479 28.2377 12.7799 25.6811L12.8593 25.6029L16.6371 21.8252L16.6505 21.812C17.0966 21.3801 17.8083 21.3845 18.2489 21.8252H18.249ZM19.5082 10.4918C20.1758 11.1595 20.1758 12.2419 19.5082 12.9096L12.8593 19.5585C12.1917 20.2262 11.1092 20.2262 10.4415 19.5585C9.77387 18.8908 9.77387 17.8084 10.4415 17.1407L17.0904 10.4918C17.7581 9.82415 18.8406 9.82415 19.5082 10.4918L19.5082 10.4918ZM27.7186 2.28146C30.9312 5.49404 30.7087 10.8733 27.3186 14.3658L27.2149 14.4711L23.4371 18.2489C22.992 18.694 22.2703 18.694 21.8252 18.2489C21.3846 17.8083 21.3802 17.0966 21.812 16.6505L21.8252 16.6371L25.603 12.8593C28.2342 10.2281 28.4255 6.21207 26.1067 3.89335C23.8112 1.59778 19.8521 1.76228 17.2201 4.31885L17.1408 4.39707L13.363 8.17483C12.9179 8.61993 12.1963 8.61993 11.7512 8.17483C11.3105 7.73418 11.3061 7.02247 11.7378 6.57629L15.5289 2.78521C19.0179 -0.703726 24.4736 -0.963548 27.7186 2.28149L27.7186 2.28146Z" fill="#333333"/>
</g>
<defs>
<clipPath id="clip0_42_189">
<rect width="30" height="30" fill="white"/>
</clipPath>
</defs>
</svg>
