<svg width="30" height="30" viewBox="0 0 30 30" fill="none" xmlns="http://www.w3.org/2000/svg">
<path d="M14.167 18.689L0.334178 5.81286C-0.111393 5.39814 -0.111393 4.72575 0.334178 4.31104C0.779678 3.89632 1.50204 3.89632 1.94757 4.31104L15 16.4607L28.0524 4.31104C28.498 3.89632 29.2203 3.89632 29.6658 4.31104C30.1114 4.72575 30.1114 5.39814 29.6658 5.81282L15.9042 18.6226C15.8153 18.7053 15.7137 18.7732 15.6034 18.8239C15.1604 19.0974 14.5574 19.0524 14.167 18.689V18.689ZM14.167 26.189L0.334178 13.3129C-0.111393 12.8981 -0.111393 12.2257 0.334178 11.811C0.779678 11.3963 1.50204 11.3963 1.94757 11.811L15 23.9607L28.0524 11.811C28.498 11.3963 29.2203 11.3963 29.6658 11.811C30.1114 12.2257 30.1114 12.8981 29.6658 13.3128L15.9042 26.1226C15.8153 26.2053 15.7137 26.2732 15.6034 26.3239C15.1604 26.5974 14.5574 26.5524 14.167 26.189V26.189Z" fill="#333333"/>
</svg>
