<svg width="30" height="30" viewBox="0 0 30 30" fill="none" xmlns="http://www.w3.org/2000/svg">
<path d="M29.6373 8.25397C30.0787 8.62725 30.1234 9.27561 29.7372 9.70218C28.2749 11.3174 26.8049 12.6923 25.3274 13.8243L27.4081 17.4279C27.7236 17.9745 27.5364 18.6735 26.9897 18.9891C26.4431 19.3047 25.7442 19.1174 25.4286 18.5708L23.4438 15.1331C22.2881 15.854 21.1277 16.4269 19.9629 16.8506L21.225 21.561C21.3884 22.1706 21.0266 22.7973 20.4169 22.9606C19.8072 23.124 19.1806 22.7622 19.0172 22.1525L17.763 17.4722C16.8448 17.6572 15.9238 17.75 15 17.75C14.073 17.75 13.1488 17.6566 12.2274 17.4703L10.9727 22.1525C10.8094 22.7622 10.1827 23.124 9.57303 22.9606C8.96335 22.7973 8.60153 22.1706 8.76489 21.561L10.0279 16.8473C8.86364 16.423 7.70392 15.8497 6.54878 15.1285L4.56135 18.5708C4.24578 19.1174 3.54681 19.3047 3.00017 18.9891C2.45356 18.6735 2.26628 17.9745 2.58189 17.4279L4.66556 13.8189C3.19042 12.6879 1.72285 11.3149 0.262742 9.70218C-0.123436 9.27557 -0.0787221 8.62718 0.362671 8.25397C0.804028 7.88068 1.47492 7.92393 1.86114 8.3505C6.32314 13.2788 10.7026 15.6974 15 15.6974C19.2974 15.6974 23.6769 13.2788 28.1389 8.35054C28.5251 7.92397 29.196 7.88072 29.6373 8.254V8.25397Z" fill="#333333"/>
</svg>
