<svg width="30" height="30" viewBox="0 0 30 30" fill="none" xmlns="http://www.w3.org/2000/svg">
<g clip-path="url(#clip0_42_267)">
<path d="M23.2564 24.0821V22.0614C23.2564 21.3128 23.8634 20.7059 24.6122 20.7059C24.9247 20.7059 25.2276 20.8139 25.4697 21.0115L29.5016 24.303C30.0816 24.7765 30.1679 25.6304 29.6944 26.2102C29.6368 26.2808 29.5722 26.3453 29.5016 26.4029L25.4697 29.6944C24.8897 30.1679 24.0356 30.0816 23.562 29.5018C23.3644 29.2597 23.2564 28.9569 23.2564 28.6445V26.6238H16.0538C15.3518 26.6238 14.7828 26.0548 14.7828 25.353C14.7828 24.6511 15.3518 24.0822 16.0538 24.0822H23.2565L23.2564 24.0821ZM5.71315 4.28398H19.639C20.2306 4.28398 20.7102 4.76346 20.7102 5.35497C20.7102 5.94648 20.2306 6.42597 19.639 6.42597H5.71315C5.12152 6.42597 4.64194 5.94648 4.64194 5.35497C4.64194 4.76346 5.12152 4.28398 5.71315 4.28398ZM5.71315 9.99595H19.639C20.2306 9.99595 20.7102 10.4754 20.7102 11.0669C20.7102 11.6585 20.2306 12.1379 19.639 12.1379H5.71315C5.12152 12.1379 4.64194 11.6585 4.64194 11.0669C4.64194 10.4754 5.12152 9.99595 5.71315 9.99595ZM5.71315 15.7079H16.7824C17.374 15.7079 17.8536 16.1874 17.8536 16.7789C17.8536 17.3704 17.374 17.8499 16.7824 17.8499H5.71315C5.12152 17.8499 4.64194 17.3704 4.64194 16.7789C4.64194 16.1874 5.12152 15.7079 5.71315 15.7079ZM5.71315 21.4199H12.1404C12.7321 21.4199 13.2117 21.8994 13.2117 22.4909C13.2117 23.0824 12.7321 23.5619 12.1404 23.5619H5.71315C5.12152 23.5619 4.64194 23.0824 4.64194 22.4909C4.64194 21.8994 5.12152 21.4199 5.71315 21.4199ZM2.28526 2.28479V27.7031H14.1V29.9879H1.90437C0.852617 29.9879 0 29.2207 0 28.2743V1.71359C0 0.767189 0.852617 0 1.90437 0H23.8048C24.8566 0 25.7092 0.767189 25.7092 1.71359V19.2843H23.4239V2.28479H2.28526Z" fill="#333333"/>
</g>
<defs>
<clipPath id="clip0_42_267">
<rect width="30" height="30" fill="white"/>
</clipPath>
</defs>
</svg>
