<svg width="30" height="30" viewBox="0 0 30 30" fill="none" xmlns="http://www.w3.org/2000/svg">
<g clip-path="url(#clip0_42_284)">
<path d="M22.8468 3.57627e-05C24.6297 3.57627e-05 26.0779 1.43207 26.1067 3.20885L26.1071 3.26278V11.2674C26.0977 11.8906 25.5896 12.3929 24.9643 12.3929C24.3331 12.3929 23.8214 11.8812 23.8214 11.25L23.8216 11.2674H23.8214V3.26278C23.8214 2.72828 23.3935 2.2945 22.8629 2.28589L22.8469 2.28575H3.26031C2.72774 2.28575 2.29445 2.71421 2.28584 3.24664L2.2857 3.26282V26.7372C2.2857 27.2717 2.71367 27.7055 3.2442 27.7141L3.26027 27.7143H13.0936C13.7145 27.7263 14.2143 28.2334 14.2143 28.8571C14.2143 29.4809 13.7145 29.988 13.0936 29.9998V30H3.26038C1.47745 30 0.0293111 28.568 0.000489677 26.7912L6.10352e-05 26.7373V3.26278C6.10352e-05 1.47911 1.43042 0.0292501 3.20645 0.000428642L3.26038 0H22.8468L22.8468 3.57627e-05ZM21.7857 13.5714C26.3223 13.5714 30 17.2491 30 21.7857C30 26.3223 26.3223 30 21.7857 30C17.2491 30 13.5714 26.3223 13.5714 21.7857C13.5714 17.2491 17.2491 13.5714 21.7857 13.5714ZM21.7857 15.8572C18.5114 15.8572 15.8571 18.5114 15.8571 21.7857C15.8571 25.06 18.5114 27.7143 21.7857 27.7143C25.06 27.7143 27.7143 25.06 27.7143 21.7857C27.7143 18.5114 25.06 15.8572 21.7857 15.8572ZM21.5 16.75C22.1312 16.75 22.6429 17.2617 22.6429 17.8929V21.2961L24.9491 23.6842C25.3875 24.1383 25.3749 24.8618 24.9209 25.3002C24.4668 25.7387 23.7433 25.726 23.3049 25.272L20.6751 22.5488C20.4408 22.3062 20.3353 21.9867 20.3571 21.6749L20.3571 17.8929C20.3571 17.2617 20.8688 16.75 21.5 16.75ZM11.0091 21C11.7142 21 12.2857 21.5117 12.2857 22.1429C12.2857 22.7677 11.7255 23.2755 11.0302 23.2856L11.0092 23.2857H6.0623C5.35727 23.2857 4.78573 22.774 4.78573 22.1429C4.78573 21.518 5.34591 21.0103 6.04123 21.0002L6.0623 21H11.0091ZM11.0226 13.8572C11.7202 13.8572 12.2857 14.3688 12.2857 15C12.2857 15.6249 11.7314 16.1326 11.0434 16.1427L11.0226 16.1429H6.04887C5.35127 16.1429 4.78573 15.6312 4.78573 15C4.78573 14.3752 5.34002 13.8674 6.02802 13.8573L6.04887 13.8572H11.0226ZM19.8929 6.71431C20.524 6.71431 21.0357 7.22599 21.0357 7.85717C21.0357 8.48203 20.5342 8.98977 19.9118 8.99988L19.8929 9.00002H5.92859C5.29741 9.00002 4.78573 8.48835 4.78573 7.85717C4.78573 7.23231 5.28723 6.72456 5.90966 6.71446L5.92859 6.71431H19.8929Z" fill="#333333"/>
</g>
<defs>
<clipPath id="clip0_42_284">
<rect width="30" height="30" fill="white"/>
</clipPath>
</defs>
</svg>
