<svg width="30" height="30" viewBox="0 0 30 30" fill="none" xmlns="http://www.w3.org/2000/svg">
<path fill-rule="evenodd" clip-rule="evenodd" d="M29.9999 20.3025C29.9897 19.6801 29.482 19.1786 28.8571 19.1786L28.8382 19.1787C28.2158 19.1888 27.7143 19.6966 27.7143 20.3214V27.7143H20.2857L20.2668 27.7144C19.6444 27.7245 19.1429 28.2323 19.1429 28.8571C19.1429 29.4883 19.6545 30 20.2857 30H28.8571L28.8761 29.9999C29.4985 29.9897 30 29.482 30 28.8571V20.3214L29.9999 20.3025ZM1.16179 19.1787L1.14286 19.1786C0.518 19.1786 0.0102499 19.6801 0.000142796 20.3025L0 20.3214V28.8571C0 29.482 0.501536 29.9897 1.12393 29.9999L1.14286 30H9.71428C10.3455 30 10.8571 29.4883 10.8571 28.8571C10.8571 28.2323 10.3556 27.7245 9.73321 27.7144L9.71428 27.7143H2.28571V20.3214C2.28571 19.6966 1.78421 19.1888 1.16179 19.1787ZM10.8571 1.14286C10.8571 0.511678 10.3455 0 9.71428 0H1.14286L1.12393 0.000142796C0.5015 0.0102499 0 0.518 0 1.14286V9.67857L0.000142796 9.6975C0.0102499 10.3199 0.518 10.8214 1.14286 10.8214L1.16179 10.8213C1.78421 10.8112 2.28571 10.3034 2.28571 9.67857V2.28571H9.71428L9.73321 2.28557C10.3556 2.27546 10.8571 1.76771 10.8571 1.14286ZM29.9999 1.12393C29.9897 0.5015 29.482 0 28.8571 0H20.3214L20.3025 0.000142796C19.6801 0.0102499 19.1786 0.518 19.1786 1.14286L19.1787 1.16179C19.1888 1.78421 19.6966 2.28571 20.3214 2.28571H27.7143V9.67857L27.7144 9.6975C27.7245 10.3199 28.2323 10.8214 28.8571 10.8214C29.4883 10.8214 30 10.3098 30 9.67857V1.14286L29.9999 1.12393ZM22.8498 9.61489L22.847 9.60789C22.8425 9.59632 22.8379 9.58489 22.833 9.57354L22.1163 7.85764L22.0797 7.79425L22.0406 7.72739C20.7415 5.52879 18.441 4.14664 15.7027 3.7135C13.1704 3.31286 10.4634 3.76964 8.40411 4.95857C4.17714 7.39893 2.96472 13.1094 5.61282 17.696L5.63697 17.7376C6.32418 18.9157 7.21589 19.93 8.25636 20.7339L8.27822 20.7506V25.263L8.27839 25.2819C8.28847 25.9044 8.79622 26.4059 9.42107 26.4059C9.4779 26.4059 9.53465 26.4017 9.59086 26.3934C9.64629 26.4016 9.70296 26.4059 9.76068 26.4059H18.6329C19.2554 26.3956 19.7568 25.8879 19.7568 25.263V21.1945L22.0046 20.7492L22.0206 20.7459C22.5474 20.6338 22.9253 20.1682 22.9253 19.6281V17.0038L25.2675 15.5128L25.2846 15.5016C25.8477 15.1292 25.9676 14.3498 25.5383 13.8251L23.4245 11.2413L22.8601 9.64304L22.8596 9.64168L22.8546 9.62761L22.8537 9.62529L22.8525 9.62221L22.8498 9.61489ZM7.59232 16.5531C5.55011 13.016 6.4625 8.71882 9.54696 6.938C11.141 6.01768 13.318 5.65036 15.3456 5.97111L15.4093 5.98139C17.4629 6.32111 19.1209 7.31764 20.044 8.84211L20.0651 8.87729L20.7156 10.4347L21.3357 12.1908L21.3437 12.2127C21.3875 12.3291 21.45 12.4376 21.5288 12.5339L22.954 14.276L21.1687 15.4125L21.154 15.422C20.9959 15.5261 20.8662 15.6678 20.7764 15.8344C20.6866 16.001 20.6396 16.1873 20.6396 16.3766V18.6895L18.3919 19.1348L18.3759 19.1381C17.849 19.2502 17.4711 19.7158 17.4711 20.2559V24.1201H10.5639V19.5581L10.0598 19.2183L10.0261 19.1955C9.04868 18.5291 8.21411 17.6301 7.59232 16.5531Z" fill="#333333"/>
</svg>
