<svg xmlns="http://www.w3.org/2000/svg" width="30" height="30" viewBox="0 0 30 30" fill="none">
  <path d="M 7.571 14.476 L 0.826 5.482 C 0.299 4.872 0 4.101 0 3.286 C 0 1.471 1.471 0 3.286 0 C 3.333 0 3.381 0.001 3.428 0.003 L 22.476 0 C 22.484 0 22.493 0 22.571 0 C 24.386 0 25.857 1.471 25.857 3.286 C 25.857 4.097 25.561 4.864 25.035 5.459 L 18.286 14.475 L 18.286 28.857 C 18.286 29.488 17.774 30 17.143 30 C 16.512 30 16 29.488 16 28.857 L 16 14.179 C 16 13.98 16.051 13.785 16.15 13.613 C 16.189 13.496 16.246 13.385 16.32 13.287 L 23.236 4.049 C 23.259 4.018 23.283 3.989 23.309 3.961 C 23.477 3.777 23.571 3.54 23.571 3.286 C 23.571 2.733 23.124 2.286 22.548 2.286 C 22.521 2.286 22.493 2.286 22.466 2.286 L 3.401 2.289 C 3.381 2.289 3.361 2.288 3.286 2.286 C 2.733 2.286 2.286 2.733 2.286 3.286 C 2.286 3.547 2.385 3.796 2.568 4.003 C 2.59 4.026 2.61 4.051 2.629 4.076 L 9.56 13.318 C 9.658 13.448 9.726 13.597 9.762 13.756 C 9.825 13.901 9.857 14.057 9.857 14.214 L 9.857 24.571 C 9.857 25.203 9.345 25.714 8.714 25.714 C 8.083 25.714 7.571 25.203 7.571 24.571 L 7.571 14.476 Z M 28.852 13.857 C 29.486 13.857 30 14.369 30 15 C 30 15.631 29.486 16.143 28.852 16.143 L 22.576 16.143 C 21.942 16.143 21.429 15.631 21.429 15 C 21.429 14.369 21.942 13.857 22.576 13.857 L 28.852 13.857 L 28.852 13.857 Z M 28.852 18.643 C 29.486 18.643 30 19.155 30 19.786 C 30 20.417 29.486 20.929 28.852 20.929 L 22.576 20.929 C 21.942 20.929 21.429 20.417 21.429 19.786 C 21.429 19.155 21.942 18.643 22.576 18.643 L 28.852 18.643 L 28.852 18.643 Z M 28.852 23.429 C 29.486 23.429 30 23.94 30 24.571 C 30 25.203 29.486 25.714 28.852 25.714 L 22.576 25.714 C 21.942 25.714 21.429 25.203 21.429 24.571 C 21.429 23.94 21.942 23.429 22.576 23.429 L 28.852 23.429 L 28.852 23.429 Z" fill="currentColor" fill-rule="nonzero"/>
</svg>
