<svg width="30" height="30" viewBox="0 0 30 30" fill="none" xmlns="http://www.w3.org/2000/svg">
<path d="M10.7166 22.6681L1.94991 13.9014C1.50387 13.4553 0.78061 13.4553 0.334562 13.9014C-0.111521 14.3475 -0.111521 15.0707 0.334562 15.5168L9.79465 24.9769C9.82715 25.0201 9.86265 25.0609 9.90088 25.0991C10.0929 25.2917 10.3475 25.4091 10.6186 25.4301C10.9456 25.4609 11.2834 25.3511 11.5338 25.1006C11.5755 25.059 11.6139 25.0142 11.6487 24.9666L29.6655 6.94991C30.1115 6.50387 30.1115 5.78061 29.6655 5.33456C29.2194 4.88848 28.4962 4.88848 28.0501 5.33456L10.7166 22.6681Z" fill="#333333"/>
</svg>
