<svg width="30" height="30" viewBox="0 0 30 30" fill="none" xmlns="http://www.w3.org/2000/svg">
<g clip-path="url(#clip0_1552_124)">
<path d="M1.14286 0C0.511679 0 0 0.511679 0 1.14286C0 1.77404 0.511679 2.28571 1.14286 2.28571H28.8571C29.4883 2.28571 30 1.77404 30 1.14286C30 0.511679 29.4883 0 28.8571 0H1.14286ZM1.14286 27.7143C0.511679 27.7143 0 28.226 0 28.8571C0 29.4883 0.511679 30 1.14286 30H28.8571C29.4883 30 30 29.4883 30 28.8571C30 28.226 29.4883 27.7143 28.8571 27.7143H1.14286ZM0 15C0 14.3688 0.511679 13.8571 1.14286 13.8571H13.8571C14.4883 13.8571 15 14.3688 15 15C15 15.6312 14.4883 16.1429 13.8571 16.1429H1.14286C0.511679 16.1429 0 15.6312 0 15ZM19.2857 23.9286L30 15L19.2857 6.07143V23.9286Z" fill="#333333"/>
</g>
<defs>
<clipPath id="clip0_1552_124">
<rect width="30" height="30" fill="white"/>
</clipPath>
</defs>
</svg>
