<svg width="30" height="30" viewBox="0 0 30 30" fill="none" xmlns="http://www.w3.org/2000/svg">
<g clip-path="url(#clip0_2965_5)">
<path d="M24.1668 18.3332C25.3205 18.3332 26.4483 18.6754 27.4076 19.3164C28.3668 19.9573 29.1145 20.8684 29.556 21.9342C29.9975 23.0001 30.113 24.173 29.8879 25.3046C29.6629 26.4361 29.1073 27.4755 28.2915 28.2913C27.6132 28.9696 26.7781 29.4702 25.8601 29.7487C24.9421 30.0271 23.9696 30.0749 23.0287 29.8878C22.0879 29.7006 21.2077 29.2843 20.4661 28.6758C19.7246 28.0672 19.1446 27.2851 18.7775 26.3988C18.4103 25.5126 18.2675 24.5494 18.3615 23.5948C18.4555 22.6401 18.7836 21.7233 19.3165 20.9257C19.8495 20.1281 20.5709 19.4742 21.417 19.022C22.263 18.5698 23.2075 18.3332 24.1668 18.3332ZM28.1668 1.83331C28.3217 1.98809 28.4447 2.1719 28.5285 2.37424C28.6124 2.57657 28.6556 2.79346 28.6555 3.01248C28.6556 3.23151 28.6124 3.44839 28.5285 3.65072C28.4447 3.85306 28.3217 4.03687 28.1668 4.19165L4.59354 27.7615C4.27919 28.0651 3.85819 28.233 3.42121 28.2292C2.98423 28.2254 2.56622 28.0502 2.2572 27.7412C1.94818 27.4322 1.7729 27.0142 1.76911 26.5772C1.76532 26.1402 1.93331 25.7192 2.23691 25.4049L25.8084 1.83331C26.121 1.52087 26.5448 1.34535 26.9868 1.34535C27.4287 1.34535 27.8525 1.52087 28.1651 1.83331H28.1668ZM24.1668 21.6666C23.5037 21.6666 22.8679 21.9299 22.399 22.3988C21.9302 22.8676 21.6668 23.5035 21.6668 24.1665C21.6668 24.8295 21.9302 25.4654 22.399 25.9343C22.6897 26.225 23.0476 26.4395 23.4411 26.5589C23.8345 26.6782 24.2513 26.6987 24.6545 26.6185C25.0577 26.5383 25.4349 26.3599 25.7527 26.0991C26.0706 25.8383 26.3191 25.5031 26.4765 25.1233C26.6338 24.7434 26.695 24.3307 26.6547 23.9215C26.6144 23.5124 26.4739 23.1195 26.2454 22.7776C26.017 22.4358 25.7079 22.1556 25.3453 21.9618C24.9827 21.7679 24.5779 21.6666 24.1668 21.6666ZM5.83353 6.74597e-10C6.59958 -4.28063e-06 7.35812 0.150879 8.06585 0.444035C8.77358 0.737191 9.41663 1.16688 9.9583 1.70856C10.7741 2.52438 11.3296 3.56377 11.5547 4.69531C11.7798 5.82685 11.6643 6.99973 11.2228 8.06563C10.9297 8.77336 10.5 9.41642 9.95832 9.95809C9.41664 10.4998 8.77358 10.9294 8.06584 11.2226C7.26896 11.5527 6.40879 11.7019 5.54728 11.6596C4.68578 11.6173 3.84437 11.3845 3.08367 10.9779C2.32297 10.5713 1.66191 10.001 1.14809 9.30825C0.634269 8.61545 0.280482 7.81732 0.112208 6.97135C-0.0560664 6.12538 -0.0346396 5.25261 0.174945 4.41592C0.38453 3.57922 0.777056 2.79942 1.32425 2.13267C1.87145 1.46592 2.5597 0.92881 3.33944 0.560033C4.11917 0.191256 4.97099 -1.31162e-05 5.83353 6.74597e-10ZM5.83353 3.3333C5.50523 3.33328 5.18013 3.39793 4.87681 3.52356C4.57349 3.64919 4.29788 3.83334 4.06574 4.06549C3.83359 4.29764 3.64944 4.57324 3.52381 4.87656C3.39818 5.17988 3.33353 5.50498 3.33355 5.83329C3.33355 6.32774 3.48017 6.81108 3.75487 7.22221C4.02957 7.63333 4.42002 7.95376 4.87683 8.14297C5.33364 8.33219 5.83631 8.3817 6.32126 8.28524C6.80621 8.18878 7.25166 7.95067 7.60129 7.60105C7.95092 7.25142 8.18902 6.80596 8.28548 6.32101C8.38195 5.83606 8.33244 5.3334 8.14322 4.87659C7.954 4.41977 7.63357 4.02933 7.22245 3.75463C6.81133 3.47992 6.32798 3.3333 5.83353 3.3333Z" fill="#333333"/>
</g>
<defs>
<clipPath id="clip0_2965_5">
<rect width="30" height="30" fill="white"/>
</clipPath>
</defs>
</svg>
