<svg width="30" height="30" viewBox="0 0 30 30" fill="none" xmlns="http://www.w3.org/2000/svg">
<path d="M7.61479 0C3.40857 0 0 3.41536 0 7.62536V7.67186C0.00557143 8.55511 0.165821 9.41686 0.467964 10.2359L0.478786 10.2651L0.532179 10.447C3.25461 19.5578 10.4139 26.7295 19.5136 29.4656L19.6959 29.5194L19.7251 29.5303C20.5579 29.8385 21.4408 30 22.3408 30C26.5595 30 30 26.7175 30 22.517C30 22.1624 29.9175 21.8127 29.759 21.4954C29.6005 21.1782 29.3704 20.9022 29.0868 20.6892L29.0257 20.6444L28.9326 20.5771L28.8348 20.5071L28.7241 20.4285L28.6366 20.3667L28.514 20.2809L28.4177 20.2139L28.3514 20.168L28.2616 20.1061L28.1482 20.0283L28.091 19.9893L27.9754 19.9107L27.8583 19.8315L27.7992 19.7918L27.6799 19.7119L27.5592 19.6315L27.4371 19.5508L27.3137 19.4696L27.1889 19.388C27.1471 19.3608 27.105 19.3334 27.0627 19.3061L26.9354 19.2238C26.8926 19.1963 26.8497 19.1688 26.8066 19.1412L26.6767 19.0584L26.5456 18.9753L26.4132 18.8919L26.2749 18.8054C26.2058 18.7623 26.1367 18.7195 26.0675 18.6767L25.9293 18.5917C25.8371 18.5352 25.7451 18.4791 25.653 18.4235L25.515 18.3404L25.4461 18.2991L25.3082 18.217C25.2623 18.1898 25.2164 18.1626 25.1705 18.1355L25.0328 18.0548C24.9642 18.0147 24.8954 17.9747 24.8266 17.9349L24.6892 17.8559C23.2936 17.0562 21.919 16.3675 20.6025 15.8374C20.5174 15.8031 20.4304 15.774 20.3418 15.7502C19.7872 15.6012 19.2557 15.6403 18.7592 15.7982C18.4489 15.8968 18.1703 16.0364 17.9041 16.2077C17.5898 16.4099 17.317 16.6396 17.0684 16.8836L17.0349 16.9168L17.0015 16.9504L16.9738 16.9786L16.9479 17.0054L16.9237 17.0306L16.9002 17.0556L16.8938 17.0622C16.7526 17.2084 16.6246 17.3636 16.5056 17.5306L16.494 17.547L16.4465 17.5101C14.9757 16.3647 13.5739 14.9558 12.4382 13.4817L12.4151 13.4516L12.4453 13.4355C12.5295 13.3896 12.6107 13.3386 12.6885 13.2826L12.7176 13.2613L12.736 13.2493C13.8554 12.5068 14.4145 11.1144 14.0549 9.76921C14.0332 9.68817 14.0071 9.60839 13.9767 9.53021L13.9531 9.47182L13.844 9.20725L13.78 9.05332L13.7097 8.88521L13.6364 8.71071L13.5406 8.48407L13.4608 8.29629L13.4199 8.20036C13.3868 8.123 13.3537 8.04561 13.3205 7.96825L13.2205 7.73632C13.2039 7.69768 13.1871 7.65907 13.1704 7.62046L13.0698 7.38911L12.9688 7.15839C12.6991 6.54411 12.4262 5.93846 12.1555 5.35739L12.088 5.21289L12.0209 5.07018L11.9875 4.99946L11.9211 4.85939C11.899 4.813 11.877 4.76689 11.855 4.72114L11.7895 4.58471L11.7244 4.45014L11.6597 4.3175L11.5931 4.18193L11.5491 4.09286L11.5053 4.00479L11.4619 3.91779L11.4186 3.83182L11.3758 3.74689L11.3331 3.66304L11.2908 3.58018L11.2487 3.49846L11.2069 3.41775L11.1447 3.29871L11.1036 3.22068L11.0425 3.10564L11.0021 3.03029L10.9619 2.956L10.922 2.88282L10.8825 2.81071L10.8431 2.73971L10.8041 2.66979L10.7653 2.60096L10.7268 2.53325L10.7076 2.49979L10.6695 2.43371L10.6317 2.36871L10.5942 2.30489L10.5569 2.24214L10.5199 2.1805L10.4831 2.11996C10.477 2.10996 10.4709 2.10004 10.4649 2.09014L10.4285 2.03132L10.3924 1.97361C10.1468 1.58325 9.91421 1.26118 9.67039 0.992893C9.48668 0.79075 9.29329 0.614214 9.06675 0.459929C8.65818 0.181643 8.18818 0 7.61479 0ZM7.61479 2.28571C8.25464 2.28571 9.98114 6.01907 11.0206 8.40839L11.1105 8.61561L11.1965 8.81507L11.2785 9.006L11.3178 9.09803L11.3931 9.27471L11.4636 9.44093L11.529 9.59593L11.6171 9.80564L11.6923 9.98571L11.7536 10.1335L11.8313 10.3219L11.8467 10.3596C11.9609 10.7864 11.7454 11.2251 11.3598 11.4081L11.3474 11.4139L11.3517 11.4284L11.0508 11.5854L10.6899 11.7716L10.4323 11.903L10.3477 11.9459L10.2447 11.9978C9.61471 12.3149 9.39107 13.1171 9.78364 13.7039C11.4183 16.1472 13.7745 18.5144 16.2119 20.1649C16.8105 20.5702 17.6376 20.3253 17.9327 19.6646L17.9559 19.613L17.9676 19.5874L17.9912 19.5363L18.015 19.4856L18.0391 19.4354L18.0635 19.3857L18.088 19.3366C18.228 19.06 18.3799 18.8136 18.5424 18.6455L18.5581 18.6295L18.5809 18.605L18.6177 18.5667L18.6354 18.5487L18.6578 18.5265L18.6793 18.5054L18.7105 18.4753L18.7359 18.4514L18.7628 18.4266L18.7911 18.4009L18.8108 18.3834L18.831 18.3657L18.8518 18.3478L18.8731 18.3297L18.8949 18.3115L18.9171 18.2933L18.9399 18.275L18.963 18.2568L18.9865 18.2386L19.0105 18.2206C19.0145 18.2176 19.0185 18.2146 19.0225 18.2117L19.0469 18.1939L19.0716 18.1764L19.0966 18.1592L19.1219 18.1423C19.1388 18.1311 19.1559 18.1202 19.173 18.1096L19.1989 18.094C19.3848 17.9837 19.5823 17.9129 19.7488 17.9576C22.3692 19.0128 25.054 20.7008 26.5405 21.6999L26.6704 21.7875L26.7937 21.8712L26.9102 21.9508L27.0197 22.0261L27.1219 22.0968L27.2167 22.1629L27.304 22.224L27.4201 22.3058L27.4874 22.3536L27.5969 22.4319L27.6714 22.4858L27.7143 22.517C27.7143 25.4657 25.2836 27.7143 22.3408 27.7143C21.6658 27.7143 21.0204 27.5838 20.4283 27.3524C11.8603 24.8724 5.116 18.1207 2.64686 9.53575C2.41596 8.94243 2.28571 8.30171 2.28571 7.62536C2.28571 4.67668 4.67196 2.28571 7.61479 2.28571Z" fill="#333333"/>
</svg>
