<svg width="30" height="30" viewBox="0 0 30 30" fill="none" xmlns="http://www.w3.org/2000/svg">
<g clip-path="url(#clip0_42_176)">
<path fill-rule="evenodd" clip-rule="evenodd" d="M13.4792 26.6298L11.5607 27.1458L2.54942 18.1555L5.83577 5.85766L18.1345 2.5502L27.1458 11.5407L26.2645 14.8387C26.1015 15.4485 26.4637 16.075 27.0736 16.238C27.6833 16.4009 28.3099 16.0387 28.4729 15.4289L29.6952 10.8551L18.815 0L3.96792 3.99278L0 18.8411L10.8802 29.6959L14.0728 28.8374C14.6824 28.6735 15.0437 28.0464 14.8798 27.4368C14.7159 26.8272 14.0888 26.466 13.4792 26.6298ZM13.9427 22.1591L12.8036 22.4663L7.22889 16.9045L9.27111 9.28507L16.8915 7.22967L22.4663 12.7915L21.9944 14.5521C21.831 15.1618 22.1928 15.7886 22.8025 15.952C23.4123 16.1154 24.039 15.7536 24.2024 15.1439L25.0165 12.1067L17.5712 4.67869L7.40412 7.42102L4.67872 17.5893L12.1239 25.0173L14.5381 24.3661C15.1476 24.2017 15.5083 23.5744 15.3439 22.9649C15.1795 22.3555 14.5522 21.9946 13.9427 22.1591ZM17.0192 30L14.2525 13.3685L29.9987 19.2725L22.0665 23.1109L17.0192 30ZM18.3834 24.27L20.5587 21.301L24.1992 19.5393L17.1572 16.899L18.3834 24.27Z" fill="#333333"/>
</g>
<defs>
<clipPath id="clip0_42_176">
<rect width="30" height="30" fill="white"/>
</clipPath>
</defs>
</svg>
