<svg width="30" height="30" viewBox="0 0 30 30" fill="none" xmlns="http://www.w3.org/2000/svg">
<path d="M12.2134 3.22589C12.1205 3.57089 11.7324 3.7466 11.3876 3.636C10.8741 3.47128 10.3389 3.38151 9.79901 3.36953C7.97244 3.36953 7.07984 4.55543 7.07984 7.03539V9.63003H10.6357C10.9564 9.63003 11.2163 9.88589 11.2163 10.2015V12.467C11.2163 12.7825 10.9564 13.0384 10.6357 13.0384H7.07984V29.4286C7.07984 29.7442 6.81994 30 6.49929 30H3.37592C3.05527 30 2.79536 29.7442 2.79536 29.4286V13.0362H0.580553C0.259906 13.0362 0 12.7804 0 12.4648V10.2015C0 9.88589 0.259906 9.63003 0.580553 9.63003H2.79536V7.07432C2.79536 2.8891 4.69595 0.000140113 9.27869 0.000140113C10.3489 -0.00570831 11.412 0.171573 12.4205 0.524069C12.6938 0.619533 12.8373 0.909069 12.7629 1.18507L12.2134 3.22589ZM18.6684 19.3703L13.0714 10.503C12.8311 10.1224 13.1092 9.63003 13.5645 9.63003H16.8081C16.9092 9.63003 17.0085 9.65602 17.0963 9.70542C17.1841 9.75482 17.2572 9.82591 17.3085 9.91168L19.598 13.7417C20.1945 14.854 20.8651 16.0009 21.5356 17.15H21.6858C22.2453 16.0031 22.8397 14.854 23.3992 13.7417L25.3986 9.93882C25.4476 9.84577 25.5215 9.76776 25.6125 9.7133C25.7034 9.65884 25.8078 9.63004 25.9143 9.63003H29.0144C29.4642 9.63003 29.7431 10.1116 29.514 10.4926L23.8847 19.8529L29.9075 29.1206C30.1548 29.501 29.8772 30 29.4185 30H26.1468C26.0476 30 25.9501 29.975 25.8635 29.9274C25.777 29.8798 25.7042 29.8111 25.6523 29.728L23.1379 25.7044C22.4751 24.4699 21.767 23.2595 21.0153 22.0754H20.8281C20.1713 23.2731 19.5376 24.483 18.9275 25.7044L16.7087 29.7025C16.6587 29.7925 16.585 29.8677 16.4954 29.92C16.4057 29.9724 16.3034 30 16.1992 30H13.0728C12.6188 30 12.3405 29.5102 12.5781 29.1295L18.6684 19.3703Z" fill="#333333"/>
</svg>
