<svg width="30" height="30" viewBox="0 0 30 30" fill="none" xmlns="http://www.w3.org/2000/svg">
<path d="M1.4918 20.7734C1.67199 20.7893 1.84718 20.8409 2.00743 20.9248L13.7926 26.9648C14.1681 27.1568 14.5838 27.2568 15.0055 27.2568C15.4273 27.2568 15.8437 27.157 16.2193 26.9648L28.0035 20.9248C28.3065 20.7696 28.6563 20.7329 28.985 20.8213C29.3136 20.9097 29.5976 21.1171 29.7818 21.4033C29.9163 21.6122 29.9917 21.8543 29.9996 22.1025C30.0074 22.3507 29.9476 22.5966 29.8268 22.8135C29.6949 23.0503 29.4957 23.2426 29.2545 23.3662L17.4693 29.4062C16.7067 29.7965 15.8621 29.9996 15.0055 29.999C14.1489 29.9996 13.3042 29.7965 12.5416 29.4062L0.757426 23.3662C0.595483 23.2851 0.450881 23.1724 0.332621 23.0352C0.214482 22.898 0.124299 22.7385 0.0679729 22.5664C0.0117028 22.3943 -0.00970109 22.2127 0.0044963 22.0322C0.0187018 21.8517 0.0684727 21.6758 0.150981 21.5146C0.233575 21.3534 0.34768 21.2098 0.485942 21.0928C0.624161 20.9758 0.784083 20.8868 0.956645 20.832C1.12924 20.7773 1.31142 20.7576 1.4918 20.7734ZM0.961528 14.165C1.30749 14.0535 1.68387 14.0843 2.00743 14.25L13.7926 20.5752C14.1682 20.767 14.5837 20.8671 15.0055 20.8672C15.4273 20.8672 15.8436 20.767 16.2193 20.5752L28.0035 14.5361C28.3263 14.3777 28.6984 14.3525 29.0397 14.4658C29.3808 14.5791 29.6637 14.8217 29.8277 15.1416C29.9917 15.4616 30.0238 15.8336 29.9166 16.1768C29.8093 16.52 29.5715 16.808 29.2545 16.9775L17.4693 23.0176C16.7067 23.4075 15.862 23.6107 15.0055 23.6104C14.1491 23.6114 13.3044 23.409 12.5416 23.0195L0.757426 16.9775C0.597125 16.8955 0.454154 16.7827 0.337504 16.6455C0.220894 16.5083 0.132936 16.3491 0.0777385 16.1777C0.0224745 16.0063 0.00167892 15.825 0.0162151 15.6455C0.0308041 15.4662 0.079678 15.291 0.161723 15.1309C0.327541 14.8071 0.615425 14.2767 0.961528 14.165ZM15.0055 0C15.8888 0 16.7599 0.209329 17.5465 0.611328L28.5865 6.62695C28.9285 6.80179 29.2152 7.06784 29.4156 7.39551C29.616 7.72309 29.7223 8.09938 29.7223 8.4834C29.7223 8.86753 29.616 9.2446 29.4156 9.57227C29.2152 9.89983 28.9284 10.166 28.5865 10.3408L17.5465 16.3545C16.76 16.7569 15.8889 16.9664 15.0055 16.9658C14.122 16.9663 13.251 16.7569 12.4645 16.3545L1.42442 10.3398C1.08263 10.165 0.795688 9.89885 0.595317 9.57129C0.394929 9.24363 0.288676 8.86653 0.288676 8.48242C0.288694 8.0985 0.3951 7.72207 0.595317 7.39453C0.795631 7.06699 1.08271 6.80087 1.42442 6.62598L12.4645 0.611328C13.2511 0.209235 14.1221 3.93861e-05 15.0055 0ZM15.0055 2.74219C14.5568 2.74223 14.1149 2.84942 13.7154 3.05371L3.817 8.4834L13.7154 13.9131C14.1149 14.1171 14.557 14.2236 15.0055 14.2236C15.4541 14.2236 15.8969 14.1172 16.2965 13.9131L26.1949 8.4834L16.2965 3.05371C15.897 2.84937 15.4542 2.74219 15.0055 2.74219Z" fill="#333333"/>
</svg>
