<svg width="30" height="30" viewBox="0 0 30 30" fill="none" xmlns="http://www.w3.org/2000/svg">
<path fill-rule="evenodd" clip-rule="evenodd" d="M30 3.57143C30 1.59898 28.401 0 26.4286 0H3.57143C1.59898 0 0 1.59898 0 3.57143V26.4286C0 28.401 1.59898 30 3.57143 30H26.4286C28.401 30 30 28.401 30 26.4286V3.57143ZM3.57143 2.28571H9.57143V27.7143H3.57143L3.55017 27.7141C2.84989 27.7028 2.28571 27.1315 2.28571 26.4286V3.57143L2.28589 3.55017C2.29724 2.84989 2.86845 2.28571 3.57143 2.28571ZM11.8571 27.7143V2.28571H18.1429V27.7143H11.8571ZM20.4286 27.7143H26.4286C27.1315 27.7143 27.7028 27.1501 27.7141 26.4498L27.7143 26.4286V3.57143C27.7143 2.86845 27.1501 2.29724 26.4498 2.28589L26.4286 2.28571H20.4286V27.7143Z" fill="#333333"/>
</svg>
