<svg width="30" height="30" viewBox="0 0 30 30" fill="none" xmlns="http://www.w3.org/2000/svg">
<path fill-rule="evenodd" clip-rule="evenodd" d="M28.5309 0H1.46295C1.07269 0.00256648 0.699402 0.159943 0.425096 0.437558C0.15079 0.715173 -0.00209979 1.09032 1.3184e-05 1.48059V28.5194C-0.00186609 28.9096 0.151099 29.2846 0.425355 29.5622C0.699611 29.8398 1.07276 29.9972 1.46295 30H15.6221C15.7933 30.0002 15.9629 29.9663 16.1209 29.9003C16.2789 29.8342 16.4222 29.7373 16.5424 29.6153C16.7262 29.4309 16.8516 29.1964 16.9028 28.9411C16.954 28.6858 16.9288 28.4211 16.8302 28.18C16.7317 27.939 16.5643 27.7324 16.3489 27.5861C16.1335 27.4397 15.8798 27.3602 15.6194 27.3574H2.60737V11.3338H27.3838V12.9132C27.3895 13.2627 27.5332 13.5958 27.7835 13.8397C27.9062 13.9602 28.0518 14.055 28.2117 14.1185C28.3715 14.182 28.5425 14.2129 28.7144 14.2094C29.055 14.2014 29.3792 14.0612 29.6183 13.8185C29.8574 13.5758 29.9927 13.2495 29.9956 12.9088V1.48235C29.9972 1.09176 29.844 0.716431 29.5695 0.438587C29.2949 0.160742 28.9215 0.00303168 28.5309 0ZM27.3838 2.64265V8.68941H2.60737V2.64265H27.3838ZM7.37878 7.33007C7.05232 7.55389 6.66752 7.67737 6.27178 7.68528C5.8746 7.67867 5.4881 7.55564 5.16018 7.33145C4.83227 7.10726 4.57735 6.79176 4.42704 6.42407C4.27673 6.05637 4.23764 5.65265 4.3146 5.26295C4.39157 4.87325 4.58121 4.5147 4.86001 4.23175C5.04367 4.0453 5.26263 3.8973 5.50412 3.79641C5.7456 3.69551 6.00477 3.64374 6.26648 3.64411H6.27178C6.53485 3.6442 6.79524 3.69686 7.03768 3.79898C7.28011 3.90111 7.4997 4.05064 7.68354 4.23881C7.96001 4.52208 8.1476 4.88002 8.22323 5.26855C8.29885 5.65709 8.2592 6.05925 8.10916 6.42554C7.95912 6.79182 7.70524 7.10624 7.37878 7.33007ZM13.5096 7.35869C13.1749 7.57649 12.7831 7.69015 12.3838 7.6853C11.852 7.6811 11.3435 7.46627 10.9697 7.08786C10.5959 6.70946 10.3874 6.19834 10.3897 5.66647V5.64265C10.3945 5.24337 10.5175 4.85446 10.7433 4.52511C10.9691 4.19576 11.2875 3.94076 11.6582 3.79237C12.0289 3.64398 12.4353 3.60886 12.826 3.69145C13.2166 3.77404 13.574 3.97063 13.853 4.25636C14.1319 4.54209 14.3199 4.90412 14.393 5.29667C14.4662 5.68922 14.4213 6.09465 14.2641 6.46169C14.1068 6.82873 13.8442 7.14089 13.5096 7.35869ZM28.0262 23.2191L29.3453 23.9877C29.4525 24.0518 29.533 24.1523 29.5722 24.2709C29.6114 24.3895 29.6066 24.5182 29.5588 24.6335C29.3349 25.1728 29.0441 25.6818 28.6933 26.1485C28.6177 26.2466 28.509 26.3137 28.3874 26.3372C28.2659 26.3608 28.14 26.3392 28.0333 26.2765L26.7159 25.508C26.11 26.1182 25.355 26.5592 24.5259 26.7874V28.3271C24.5271 28.4515 24.483 28.5721 24.4019 28.6665C24.3207 28.7608 24.208 28.8224 24.0847 28.8397C23.5091 28.9129 22.9265 28.9129 22.3509 28.8397C22.2278 28.8222 22.1151 28.7606 22.034 28.6663C21.9529 28.572 21.9087 28.4515 21.9097 28.3271V26.7874C21.0834 26.557 20.3312 26.1158 19.7268 25.5071L18.4033 26.28C18.2971 26.3419 18.1721 26.3632 18.0514 26.34C17.9307 26.3168 17.8225 26.2507 17.7468 26.1538C17.395 25.6853 17.1034 25.1746 16.8786 24.6335C16.832 24.5178 16.8286 24.3892 16.8689 24.2711C16.9093 24.1531 16.9906 24.0534 17.0983 23.9903L18.4218 23.2209C18.3176 22.8268 18.2622 22.4214 18.2568 22.0138C18.2497 21.5583 18.3043 21.1039 18.4191 20.663L17.1 19.8935C16.9928 19.8309 16.9117 19.7319 16.8713 19.6145C16.831 19.4971 16.8342 19.3691 16.8803 19.2538C17.1044 18.7127 17.3961 18.2022 17.7486 17.7344C17.824 17.6362 17.9327 17.569 18.0542 17.5453C18.1757 17.5215 18.3017 17.543 18.4086 17.6056L19.7259 18.375C20.3314 17.7647 21.0861 17.3236 21.915 17.0956V15.5559C21.9136 15.4314 21.9576 15.3107 22.0389 15.2163C22.1201 15.1219 22.2329 15.0604 22.3562 15.0432C22.9318 14.9691 23.5145 14.9691 24.09 15.0432C24.2132 15.0608 24.3258 15.1224 24.4069 15.2167C24.4881 15.311 24.5322 15.4315 24.5312 15.5559V17.0956C25.3604 17.3236 26.1154 17.7647 26.7212 18.375L28.0403 17.6047C28.1465 17.5425 28.2717 17.5211 28.3925 17.5445C28.5133 17.5679 28.6215 17.6345 28.6968 17.7318C29.0485 18.2 29.3402 18.7104 29.565 19.2512C29.6108 19.3667 29.6137 19.4948 29.5732 19.6123C29.5327 19.7298 29.4516 19.8289 29.3444 19.8918L28.0262 20.6603C28.2442 21.4993 28.2442 22.3801 28.0262 23.2191ZM24.8901 23.6232C25.321 23.1871 25.5637 22.5995 25.5662 21.9865C25.5787 21.3621 25.343 20.7582 24.9107 20.3074C24.4785 19.8566 23.885 19.5957 23.2606 19.5821H23.2262C22.5981 19.5776 21.994 19.8229 21.5467 20.2639C21.0994 20.7048 20.8456 21.3054 20.8412 21.9335C20.8368 22.5616 21.082 23.1658 21.523 23.613C21.964 24.0603 22.5646 24.3141 23.1927 24.3185H23.2615C23.8745 24.3088 24.4592 24.0592 24.8901 23.6232Z" fill="#333333"/>
</svg>
