<svg width="30" height="30" viewBox="0 0 30 30" fill="none" xmlns="http://www.w3.org/2000/svg">
<path d="M27.7116 4.17411H23.5637V3.03796C23.5637 2.46471 23.0467 2 22.4531 2C21.8594 2 21.3111 2.46471 21.3111 3.03793V4.17407H8.68893V3.03793C8.68893 2.46471 8.14061 2 7.54693 2C6.95321 2 6.43621 2.46471 6.43621 3.03793V4.17407H2.28846C1.02457 4.17407 0 5.29614 0 6.68032V25.208C0 26.5922 1.02457 27.7143 2.28843 27.7143H27.7116C28.9755 27.7143 30 26.5922 30 25.208V6.68036C30 5.29618 28.9755 4.17411 27.7116 4.17411ZM27.7116 25.208C27.7116 25.3219 27.6742 25.3945 27.6485 25.4286H2.35154C2.32582 25.3945 2.28843 25.322 2.28843 25.208V10.2812H27.7116V25.208ZM15.8561 17.059H17.8919C18.3654 17.059 18.7491 17.4424 18.7491 17.9152C18.7491 18.3881 18.3654 18.7714 17.8919 18.7714H15.0346C15.0286 18.7714 15.0226 18.7714 15.0167 18.7712C15.0107 18.7714 15.0048 18.7714 14.9989 18.7714C14.5254 18.7714 14.1416 18.3881 14.1416 17.9152V15.0613C14.1416 14.5884 14.5254 14.2051 14.9989 14.2051C15.4723 14.2051 15.8561 14.5884 15.8561 15.0612V17.059ZM27.7115 9H2.28843V6.68036C2.28843 6.56646 2.32582 6.49389 2.35154 6.45982H6.43625V7.10493C6.43625 7.67814 6.95325 8.14286 7.54693 8.14286C8.14057 8.14286 8.68893 7.67814 8.68893 7.10493V6.45982H21.3111V7.10493C21.3111 7.67814 21.8594 8.14286 22.4531 8.14286C23.0468 8.14286 23.5638 7.67814 23.5638 7.10493V6.45982H27.6484C27.6742 6.49389 27.7116 6.56646 27.7116 6.68036V9H27.7115ZM14.9989 24.3723C11.4482 24.3723 8.56982 21.4973 8.56982 17.9509C8.56982 14.4045 11.4482 11.5295 14.9989 11.5295C18.5495 11.5295 21.4279 14.4045 21.4279 17.9509C21.4279 21.4973 18.5495 24.3723 14.9989 24.3723V24.3723ZM14.9989 22.6599C17.6027 22.6599 19.7135 20.5516 19.7135 17.9509C19.7135 15.3502 17.6027 13.2419 14.9989 13.2419C12.3951 13.2419 10.2843 15.3502 10.2843 17.9509C10.2843 20.5516 12.3951 22.6599 14.9989 22.6599Z" fill="#333333"/>
</svg>
