<svg width="30" height="30" viewBox="0 0 30 30" fill="none" xmlns="http://www.w3.org/2000/svg">
<g clip-path="url(#clip0_42_107)">
<path d="M28.8571 13.8571H16.1429V1.14286C16.1429 0.511678 15.6312 0 15 0C14.3688 0 13.8571 0.511678 13.8571 1.14286V13.8571H1.14286C0.511678 13.8571 0 14.3688 0 15C0 15.6312 0.511678 16.1429 1.14286 16.1429H13.8571V28.8571C13.8571 29.4883 14.3688 30 15 30C15.6312 30 16.1429 29.4883 16.1429 28.8571V16.1429H28.8571C29.4883 16.1429 30 15.6312 30 15C30 14.3688 29.4883 13.8571 28.8571 13.8571Z" fill="#333333"/>
</g>
<defs>
<clipPath id="clip0_42_107">
<rect width="30" height="30" fill="white"/>
</clipPath>
</defs>
</svg>
