<svg width="30" height="30" viewBox="0 0 30 30" fill="none" xmlns="http://www.w3.org/2000/svg">
<path fill-rule="evenodd" clip-rule="evenodd" d="M14.1749 29.5112C14.4044 29.7408 14.696 29.8524 14.9937 29.8524H14.9938C15.2915 29.8524 15.5893 29.7346 15.8126 29.5112L18.933 26.3847H26.5385C28.4491 26.3847 30 24.8338 30 22.9231V4.46159C30 2.55091 28.4491 1 26.5385 1H3.46152C1.55087 1 0 2.55091 0 4.46159V22.9231C0 24.8338 1.55087 26.3847 3.46152 26.3847H6.92305C7.56204 26.3847 8.0769 25.8698 8.0769 25.2308C8.0769 24.5919 7.562 24.077 6.92308 24.077H3.46149C2.82871 24.077 2.30763 23.562 2.30763 22.9231V4.46152C2.30763 3.82875 2.82875 3.30763 3.46149 3.30763H26.5384C27.1774 3.30763 27.6923 3.82875 27.6923 4.46152V22.9231C27.6923 23.5621 27.1774 24.077 26.5384 24.077H18.4615C18.1513 24.077 17.8597 24.2011 17.6426 24.4182L14.9937 27.0671L12.3448 24.4182C12.238 24.3106 12.1109 24.2251 11.9709 24.1668C11.8309 24.1085 11.6807 24.0785 11.5291 24.0785C11.3774 24.0785 11.2272 24.1085 11.0872 24.1668C10.9472 24.2251 10.8201 24.3106 10.7133 24.4182C10.6057 24.525 10.5202 24.6521 10.462 24.7921C10.4037 24.9321 10.3737 25.0823 10.3737 25.2339C10.3737 25.3856 10.4037 25.5357 10.462 25.6757C10.5202 25.8158 10.6057 25.9428 10.7133 26.0497L14.1749 29.5112ZM6.91688 13.1155C6.91688 14.0708 7.6923 14.8462 8.64764 14.8462V14.8462C9.60298 14.8462 10.3784 14.0708 10.3784 13.1155C10.3784 12.1601 9.60298 11.3847 8.64764 11.3847C7.6923 11.3847 6.91688 12.1601 6.91688 13.1155ZM13.84 13.1155C13.84 14.0708 14.6153 14.8462 15.5707 14.8462V14.8462C16.526 14.8462 17.3015 14.0708 17.3015 13.1155C17.3015 12.1601 16.526 11.3847 15.5707 11.3847C14.6154 11.3847 13.84 12.1601 13.84 13.1155ZM20.7692 13.1155C20.7692 14.0708 21.5447 14.8462 22.5 14.8462V14.8462C23.4491 14.8462 24.2308 14.0708 24.2308 13.1155C24.2308 12.1601 23.4553 11.3847 22.5 11.3847C21.5447 11.3847 20.7692 12.1601 20.7692 13.1155Z" fill="#333333"/>
</svg>
