<svg width="30" height="30" viewBox="0 0 30 30" fill="none" xmlns="http://www.w3.org/2000/svg">
<g clip-path="url(#clip0_42_164)">
<path fill-rule="evenodd" clip-rule="evenodd" d="M24.5507 22.9388L29.6661 28.0542C30.1113 28.4994 30.1113 29.221 29.6661 29.6661C29.2209 30.1113 28.4995 30.1113 28.0542 29.6661L22.9388 24.5507C20.5098 26.613 17.3646 27.857 13.9285 27.857C6.23599 27.857 0 21.621 0 13.9285C0 6.23599 6.23599 0 13.9285 0C21.621 0 27.857 6.23599 27.857 13.9285C27.857 17.3646 26.613 20.5098 24.5507 22.9388ZM2.28568 13.9285C2.28568 20.3587 7.49842 25.5714 13.9285 25.5714C20.3587 25.5714 25.5714 20.3587 25.5714 13.9285C25.5714 7.49839 20.3587 2.28568 13.9285 2.28568C7.49839 2.28568 2.28568 7.49842 2.28568 13.9285ZM20.3855 11.7937L23.4868 15.5182C23.8906 16.0032 23.8249 16.7238 23.3398 17.1276C22.8547 17.5315 22.1342 17.4657 21.7303 16.9807L19.7581 14.6123L16.4038 21.4666C16.2999 21.679 16.1325 21.854 15.9248 21.9674C15.7172 22.0807 15.4795 22.1268 15.2445 22.0993C15.0096 22.0718 14.7889 21.9721 14.613 21.8139C14.4371 21.6557 14.3147 21.4468 14.2626 21.2161L11.859 10.5769L10.2211 14.6501C10.1362 14.8611 9.9904 15.042 9.80222 15.1696C9.61405 15.2972 9.39208 15.3658 9.1647 15.3666L5.21824 15.3804H5.21417C4.58485 15.3804 4.07364 14.8714 4.07142 14.2416C4.06921 13.6104 4.5791 13.097 5.21028 13.0947L8.38742 13.0836L11.1057 6.3236C11.2923 5.85957 11.759 5.57071 12.2575 5.61078C12.5004 5.63027 12.7307 5.72689 12.9148 5.88652C13.0989 6.04616 13.2271 6.26046 13.2808 6.49814L15.7771 17.5475L18.4807 12.0227C18.5646 11.8514 18.6899 11.7038 18.8454 11.5934C19.0009 11.4829 19.1816 11.4131 19.3709 11.3903C19.5603 11.3676 19.7523 11.3926 19.9295 11.4631C20.1067 11.5335 20.2635 11.6472 20.3855 11.7937Z" fill="#333333"/>
</g>
<defs>
<clipPath id="clip0_42_164">
<rect width="30" height="30" fill="white"/>
</clipPath>
</defs>
</svg>
