<svg width="30" height="30" viewBox="0 0 30 30" fill="none" xmlns="http://www.w3.org/2000/svg">
<g clip-path="url(#clip0_42_270)">
<path d="M12.7857 12.7857V7.92857C12.7857 7.29739 13.2974 6.78572 13.9286 6.78572C14.5598 6.78572 15.0714 7.29739 15.0714 7.92857V12.7857H19.9286C20.5598 12.7857 21.0714 13.2974 21.0714 13.9286C21.0714 14.5598 20.5598 15.0714 19.9286 15.0714H15.0714V19.9286C15.0714 20.5598 14.5598 21.0714 13.9286 21.0714C13.2974 21.0714 12.7857 20.5598 12.7857 19.9286V15.0714H7.92857C7.29739 15.0714 6.78572 14.5598 6.78572 13.9286C6.78572 13.2974 7.29739 12.7857 7.92857 12.7857H12.7857ZM22.9389 24.5506C20.51 26.613 17.3646 27.8572 13.9286 27.8572C6.23604 27.8572 0 21.6211 0 13.9286C0 6.23604 6.23604 0 13.9286 0C21.6211 0 27.8572 6.23604 27.8572 13.9286C27.8572 17.3646 26.613 20.51 24.5506 22.9389L29.6662 28.0545C30.1113 28.4995 30.1113 29.2212 29.6662 29.6662C29.2212 30.1113 28.4995 30.1113 28.0545 29.6662L22.9389 24.5506ZM13.9286 25.5714C20.3588 25.5714 25.5714 20.3588 25.5714 13.9286C25.5714 7.49839 20.3588 2.28571 13.9286 2.28571C7.49839 2.28571 2.28571 7.49839 2.28571 13.9286C2.28571 20.3588 7.49839 25.5714 13.9286 25.5714Z" fill="#333333"/>
</g>
<defs>
<clipPath id="clip0_42_270">
<rect width="30" height="30" fill="white"/>
</clipPath>
</defs>
</svg>
