<svg width="30" height="30" viewBox="0 0 30 30" fill="none" xmlns="http://www.w3.org/2000/svg">
<path fill-rule="evenodd" clip-rule="evenodd" d="M20 25.7143C20 27.4895 18.5609 28.9286 16.7857 28.9286H3.21428C1.43907 28.9286 0 27.4895 0 25.7143V4.28571C0 2.5105 1.43907 1.07143 3.21428 1.07143H16.7857C18.5609 1.07143 20 2.5105 20 4.28571V9.64285H17.7143V4.28571C17.7143 3.77289 17.2985 3.35714 16.7857 3.35714H3.21428C2.70146 3.35714 2.28572 3.77289 2.28572 4.28571V25.7143C2.28572 26.2271 2.70146 26.6429 3.21428 26.6429H16.7857C17.2985 26.6429 17.7143 26.2271 17.7143 25.7143V20.3571H20V25.7143ZM22.2857 17.6786H9.71428C9.08311 17.6786 8.57143 17.1669 8.57143 16.5357V13.4643C8.57143 12.8331 9.08311 12.3214 9.71428 12.3214H22.2857V9.05968L22.287 9.05922C22.3119 8.58839 22.7015 8.21429 23.1786 8.21429C23.4355 8.21429 23.6671 8.32279 23.83 8.4965L23.8355 8.49446L29.6769 14.3359L29.6769 14.3483C29.8743 14.512 30 14.7592 30 15.0357C30 15.328 29.8596 15.5874 29.6426 15.7503L23.8511 21.5418L23.811 21.5231C23.7281 21.6065 23.6296 21.6726 23.521 21.7177C23.4125 21.7627 23.2961 21.7859 23.1786 21.7857C22.6855 21.7857 22.2857 21.386 22.2857 20.8929C22.2857 20.8673 22.2868 20.842 22.2889 20.8171L22.2857 20.8156V17.6786Z" fill="#333333"/>
</svg>
