<svg width="30" height="30" viewBox="0 0 30 30" fill="none" xmlns="http://www.w3.org/2000/svg">
<path d="M15 0C23.2843 0 30 5.57286 30 13.8571C30 14.4883 29.4883 15 28.8571 15C28.2323 15 27.7245 14.4985 27.7144 13.8761L27.7143 13.8571C27.7143 6.83525 22.0219 2.28571 15 2.28571C7.97811 2.28571 2.28571 7.97811 2.28571 15C2.28571 21.9517 6.72196 27.6003 13.6469 27.7126L13.8571 27.7143C14.4883 27.7143 15 28.226 15 28.8571C15 29.4883 14.4883 30 13.8571 30C5.57286 30 0 23.2843 0 15C0 6.71571 6.71571 0 15 0ZM22.8312 14.112C23.0679 13.702 23.5921 13.5615 24.0021 13.7982L29.5694 17.0125C29.9794 17.2492 30.1198 17.7734 29.8831 18.1834L24.526 27.4622C24.4332 27.6228 24.2909 27.749 24.1204 27.8219L19.1939 29.9263C18.6684 30.1507 18.0745 29.8079 18.0061 29.2406L17.3654 23.9219C17.3432 23.7378 17.3813 23.5514 17.474 23.3908L22.8312 14.112ZM23.8873 15.7114L19.1015 24.0005L19.5714 27.9009L23.1842 26.3576L27.9699 18.0685L23.8872 15.7114H23.8873ZM15.0714 5C15.6237 5 16.0714 5.44771 16.0714 6V14C16.0714 14.5523 15.6237 15 15.0714 15H7.07143C6.51914 15 6.07143 14.5523 6.07143 14C6.07143 13.4477 6.51914 13 7.07143 13H14.0714V6C14.0714 5.44771 14.5191 5 15.0714 5Z" fill="#333333"/>
</svg>
