<svg width="30" height="30" viewBox="0 0 30 30" fill="none" xmlns="http://www.w3.org/2000/svg">
<path d="M27.4894 5H2.51256C1.84155 5.00496 1.19997 5.27615 0.728831 5.75396C0.257695 6.23178 -0.00443502 6.87711 5.67899e-05 7.54813V23.0788C5.67899e-05 24.485 1.12506 25.625 2.51068 25.625H27.4876C28.8769 25.625 29.9982 24.4869 29.9982 23.0788V7.55C29.9982 6.14375 28.8769 5.00187 27.4876 5.00187L27.4894 5ZM26.8894 6.82438L16.9276 15.7812C16.0594 16.5669 15.4144 16.9569 15.0001 16.9569C14.5857 16.9569 13.9407 16.5669 13.0726 15.7812L3.11068 6.82438H26.8876H26.8894ZM1.86756 22.5125V8.47813L9.64693 15.3969L1.86568 22.5125H1.86756ZM3.17443 23.8006L10.9838 16.7694L12.2644 17.9075C13.0069 18.5656 13.9238 18.905 15.0001 18.905C16.0819 18.905 16.9932 18.5675 17.7376 17.9075L19.0182 16.7694L26.8276 23.8006H3.17443ZM28.1344 22.5125L20.3532 15.3987L28.1344 8.48V22.5125Z" fill="#333333"/>
</svg>
