<svg width="30" height="30" viewBox="0 0 30 30" fill="none" xmlns="http://www.w3.org/2000/svg">
<g clip-path="url(#clip0_42_184)">
<path d="M24.5712 25.5715H21.607V13.0359C21.607 10.6573 20.7035 8.48486 19.0629 6.91873C17.7212 5.63788 15.967 4.83724 14.0356 4.60607V2.85737C14.0356 2.22619 13.5239 1.71452 12.8928 1.71452C12.2616 1.71452 11.7499 2.22619 11.7499 2.85737V4.598C9.79424 4.81892 8.01979 5.62438 6.66919 6.92094C5.04003 8.485 4.14282 10.6567 4.14282 13.0359V25.5715H1.14285C0.511674 25.5715 0 26.0831 0 26.7143C0 27.3455 0.511674 27.8572 1.14285 27.8572H10.0213C10.3484 29.0895 11.502 30 12.8749 30C14.2478 30 15.4014 29.0895 15.7284 27.8572H24.5712C25.2024 27.8572 25.7141 27.3455 25.7141 26.7143C25.7141 26.0831 25.2024 25.5715 24.5712 25.5715ZM6.42852 13.0359C6.42852 11.2849 7.07616 9.69881 8.25215 8.56979C9.42642 7.44247 11.0627 6.82162 12.8595 6.82162C14.6597 6.82162 16.3022 7.44326 17.4846 8.57203C18.669 9.70267 19.3213 11.288 19.3213 13.0359V25.5715H6.42852V13.0359ZM24.2717 5.70602C23.4878 4.90478 22.5012 4.33896 21.4185 4.06972C20.8058 3.9175 20.1859 4.29046 20.0336 4.90296C19.8813 5.51545 20.2543 6.13552 20.8668 6.28784C22.2275 6.62623 23.3064 7.72861 23.6156 9.09632C23.7356 9.62713 24.207 9.98738 24.7293 9.98738C24.8127 9.98738 24.8975 9.97817 24.9824 9.95902C25.598 9.81985 25.9842 9.20792 25.845 8.59229C25.5992 7.50479 25.0552 6.50677 24.2717 5.70602ZM29.9705 7.79747C29.0956 4.00822 26.0733 0.960419 22.2707 0.0327841C21.6575 -0.116679 21.0391 0.259032 20.8895 0.872241C20.7399 1.48545 21.1158 2.10377 21.729 2.25337C24.7002 2.97815 27.061 5.3562 27.7433 8.31164C27.8653 8.84014 28.3357 9.19767 28.8559 9.19767C28.941 9.19767 29.0275 9.18806 29.114 9.1681C29.729 9.02614 30.1124 8.41247 29.9705 7.79747Z" fill="#333333"/>
</g>
<defs>
<clipPath id="clip0_42_184">
<rect width="30" height="30" fill="white"/>
</clipPath>
</defs>
</svg>
