<svg width="30" height="30" viewBox="0 0 30 30" fill="none" xmlns="http://www.w3.org/2000/svg">
<g clip-path="url(#clip0_42_170)">
<path fill-rule="evenodd" clip-rule="evenodd" d="M15.5565 15.2805C18.9684 14.9963 21.649 12.1374 21.649 8.65206C21.649 4.97823 18.6708 2 14.9969 2C11.3231 2 8.34487 4.97823 8.34487 8.65206C8.34487 12.1374 11.0255 14.9963 14.4374 15.2805C11.6109 15.4165 8.97295 16.5819 6.95812 18.5967C4.81088 20.7439 3.62834 23.5989 3.62834 26.6354C3.62834 26.954 3.64168 27.2759 3.66806 27.5921C3.72265 28.2466 4.29752 28.7327 4.95198 28.6784C5.60649 28.6237 6.09283 28.0489 6.0382 27.3944C6.01722 27.142 6.00672 26.8887 6.00672 26.6354C6.00672 24.2341 6.94188 21.9765 8.63986 20.2784C10.338 18.5805 12.5956 17.6453 14.997 17.6453C17.3983 17.6453 19.6559 18.5805 21.354 20.2784C23.052 21.9765 23.9871 24.2341 23.9871 26.6355C23.9871 26.8884 23.9765 27.1437 23.9556 27.3945C23.901 28.049 24.3873 28.6238 25.0418 28.6784C25.0754 28.6812 25.1088 28.6826 25.142 28.6826C25.754 28.6826 26.2739 28.213 26.3257 27.5922C26.3522 27.274 26.3655 26.9548 26.3655 26.6355C26.3655 23.5988 25.183 20.7439 23.0357 18.5967C21.0209 16.5819 18.383 15.4165 15.5565 15.2805ZM10.7233 8.65202C10.7233 7.51047 11.1678 6.43726 11.975 5.63009C12.7822 4.82293 13.8554 4.37835 14.997 4.37835C16.1385 4.37835 17.2117 4.82289 18.0189 5.63009C18.8261 6.43729 19.2706 7.5105 19.2706 8.65202C19.2706 9.79354 18.8261 10.8668 18.0189 11.674C17.2117 12.4812 16.1385 12.9257 14.997 12.9257C13.8554 12.9257 12.7822 12.4812 11.975 11.674C11.1679 10.8668 10.7233 9.79357 10.7233 8.65202ZM25.6111 15.1954C25.9852 14.9845 26.3276 14.7217 26.628 14.4148C27.356 13.6702 27.807 12.6887 27.8977 11.651C28.1154 9.16368 26.2623 6.96255 23.767 6.74423C23.4395 6.71557 23.1509 6.95694 23.1223 7.28338C23.0938 7.60977 23.3361 7.8976 23.6636 7.92629C25.505 8.08735 26.8725 9.71171 26.7119 11.5472C26.6449 12.313 26.3123 13.0372 25.7754 13.5864C25.2454 14.1283 24.5415 14.4781 23.7932 14.5712C23.7502 14.5765 23.709 14.5864 23.6698 14.6001C23.427 14.6326 23.22 14.8133 23.1669 15.0658C23.0993 15.3864 23.3053 15.7011 23.627 15.7686C26.8543 16.4461 29.0716 19.4306 28.7846 22.7107C28.7686 22.8934 28.745 23.0755 28.7139 23.2563C28.6582 23.5792 28.8758 23.8861 29.1998 23.9417C29.2164 23.9445 29.2329 23.9467 29.2494 23.9481C29.5546 23.9748 29.8344 23.7641 29.8871 23.4577C29.9238 23.2445 29.9516 23.0299 29.9705 22.8144C30.2553 19.5598 28.4537 16.5518 25.6111 15.1954ZM4.38885 15.1954C4.01477 14.9845 3.67241 14.7217 3.37198 14.4148C2.64397 13.6702 2.19304 12.6887 2.10225 11.651C1.88463 9.16368 3.73769 6.96255 6.23303 6.74423C6.56047 6.71557 6.84911 6.95694 6.87765 7.28338C6.90619 7.60977 6.66389 7.8976 6.33642 7.92629C4.49503 8.08735 3.12753 9.71171 3.2881 11.5472C3.35511 12.313 3.68771 13.0372 4.22463 13.5864C4.75457 14.1283 5.45853 14.4781 6.20683 14.5712C6.24976 14.5765 6.29097 14.5864 6.33021 14.6001C6.57296 14.6326 6.77995 14.8133 6.83313 15.0658C6.90069 15.3864 6.6947 15.7011 6.37302 15.7686C3.1457 16.4461 0.92837 19.4306 1.21537 22.7107C1.23139 22.8934 1.25499 23.0755 1.28609 23.2563C1.34176 23.5792 1.12422 23.8861 0.800234 23.9417C0.783623 23.9445 0.767085 23.9467 0.750585 23.9481C0.445371 23.9748 0.16565 23.7641 0.112917 23.4577C0.0761944 23.2445 0.0483604 23.0299 0.0294873 22.8144C-0.255251 19.5598 1.54627 16.5518 4.38885 15.1954ZM15.7195 20.3954H14.2805C14.236 20.3954 14.193 20.4113 14.1593 20.4403C14.1256 20.4693 14.1034 20.5095 14.0968 20.5535L13.3037 25.8188C13.2996 25.8462 13.3017 25.8742 13.3098 25.9007C13.3179 25.9272 13.3318 25.9516 13.3506 25.972L14.8798 27.6397C14.8973 27.6588 14.9186 27.6741 14.9424 27.6844C14.9661 27.6948 14.9918 27.7001 15.0177 27.7C15.0436 27.6998 15.0692 27.6943 15.0929 27.6836C15.1165 27.673 15.1377 27.6575 15.155 27.6383L16.651 25.9717C16.6693 25.9514 16.6828 25.9272 16.6907 25.9009C16.6986 25.8747 16.7005 25.847 16.6964 25.8199L15.9033 20.5535C15.8966 20.5095 15.8744 20.4693 15.8407 20.4403C15.807 20.4113 15.764 20.3953 15.7195 20.3954ZM16.0009 20.1352H14.0363C14.0061 20.1352 13.9764 20.1279 13.9497 20.1138C13.923 20.0997 13.9001 20.0794 13.8831 20.0545L13.1184 18.9396C13.0993 18.9117 13.0881 18.8791 13.0862 18.8453C13.0842 18.8116 13.0915 18.7779 13.1073 18.7479C13.123 18.718 13.1467 18.6929 13.1757 18.6755C13.2046 18.658 13.2378 18.6487 13.2717 18.6487H16.7655C16.7993 18.6487 16.8325 18.658 16.8615 18.6755C16.8905 18.6929 16.9141 18.718 16.9299 18.7479C16.9457 18.7779 16.953 18.8116 16.951 18.8453C16.949 18.8791 16.9379 18.9117 16.9187 18.9396L16.1541 20.0545C16.137 20.0794 16.1142 20.0997 16.0875 20.1138C16.0608 20.1279 16.0311 20.1352 16.0009 20.1352Z" fill="#333333"/>
</g>
<defs>
<clipPath id="clip0_42_170">
<rect width="30" height="30" fill="white"/>
</clipPath>
</defs>
</svg>
