<svg width="30" height="30" viewBox="0 0 30 30" fill="none" xmlns="http://www.w3.org/2000/svg">
<path d="M15.0306 3.90921C9.48571 3.90921 4.84949 7.80911 3.71931 13.0164C3.60749 13.5316 3.09917 13.8586 2.58396 13.7468C2.06874 13.635 1.74174 13.1266 1.85356 12.6114C3.17028 6.54471 8.56856 2 15.0306 2C21.3947 2 26.7271 6.40807 28.1449 12.3369L28.7153 11.1216C28.8735 10.7845 29.275 10.6395 29.6121 10.7977C29.9492 10.9559 30.0942 11.3574 29.936 11.6945L28.5037 14.746C28.3455 15.0831 27.944 15.2281 27.607 15.0699L24.5554 13.6376C24.2183 13.4794 24.0733 13.0779 24.2315 12.7409C24.3897 12.4038 24.7912 12.2588 25.1283 12.417L26.3345 12.9831C25.1919 7.79253 20.5636 3.90921 15.0306 3.90921ZM27.4771 17.2208C27.9924 17.3326 28.3194 17.841 28.2076 18.3562C26.8908 24.4229 21.4925 28.9676 15.0306 28.9676C8.65028 28.9676 3.30696 24.5371 1.90546 18.5856L1.23967 19.6107C1.03689 19.923 0.619315 20.0117 0.307065 19.8089C-0.00522044 19.6061 -0.0939349 19.1886 0.108851 18.8763L1.94485 16.0492C2.14764 15.737 2.56521 15.6482 2.87746 15.851L5.70456 17.687C6.01681 17.8898 6.10556 18.3074 5.90278 18.6196C5.69996 18.9319 5.28242 19.0206 4.97014 18.8179L3.73324 18.0146C4.88714 23.1901 9.50821 27.0584 15.0306 27.0584C20.5754 27.0584 25.2116 23.1585 26.3418 17.9512C26.4536 17.436 26.9619 17.109 27.4771 17.2208Z" fill="#333333"/>
</svg>
