<svg width="30" height="30" viewBox="0 0 30 30" fill="none" xmlns="http://www.w3.org/2000/svg">
<g clip-path="url(#clip0_3410_45)">
<path d="M26.4474 18.2143L30 15L14.2105 0.7143C13.2237 -0.178575 11.6448 -0.178575 10.6579 0.7143C9.67102 1.60718 9.67102 3.0357 10.6579 3.92858L22.8948 15L10.6579 26.0714C9.67102 26.9643 9.67102 28.3929 10.6579 29.2857C11.6448 30.1786 13.2237 30.1786 14.2105 29.2857L26.4474 18.2143ZM2.56579 0C1.18421 0 0 1.07141 0 2.32144V27.6786C0 28.9286 1.18425 30 2.56579 30C3.94736 30 5.13158 28.9286 5.13158 27.6786V2.32144C5.13158 1.07138 3.94736 0 2.56579 0Z" fill="black"/>
</g>
<defs>
<clipPath id="clip0_3410_45">
<rect width="30" height="30" fill="white"/>
</clipPath>
</defs>
</svg>
