<svg width="30" height="30" viewBox="0 0 30 30" fill="none" xmlns="http://www.w3.org/2000/svg">
<path d="M2.28571 30C1.02336 30 0 28.9766 0 27.7143V2.28571C0 1.02336 1.02336 0 2.28571 0H23.9212L30 7.81193V27.7143C30 28.9766 28.9766 30 27.7143 30H2.28571ZM4.28571 2.28571H2.28571V27.7143H4.28571V18.2857C4.28571 17.6545 4.85425 17.1429 5.55557 17.1429H24.4444C25.1458 17.1429 25.7143 17.6545 25.7143 18.2857V27.7143H27.7143V8.59646L22.8036 2.28571H22.1429V11.7143C22.1429 12.3455 21.6312 12.8571 21 12.8571H5.42857C4.79739 12.8571 4.28571 12.3455 4.28571 11.7143V2.28571ZM23.1786 19.4286H6.82143V27.7143H23.1786V19.4286ZM19.2857 2.28571H15.8929V9.75H19.2857V2.28571Z" fill="#333333"/>
</svg>
