<svg width="30" height="30" viewBox="0 0 30 30" fill="none" xmlns="http://www.w3.org/2000/svg">
<path fill-rule="evenodd" clip-rule="evenodd" d="M16.1284 0.221424L16.1066 0.212016C15.776 0.0711091 15.416 -0.00124428 15.052 1.61902e-05C15.0346 7.62362e-05 15.0173 0.000303269 15 0.000696722C14.9827 0.000303269 14.9654 7.62362e-05 14.948 1.61902e-05C14.584 -0.00124428 14.224 0.0711091 13.8934 0.212016L13.8716 0.221424L0.554263 6.04241L0.563695 6.06094C0.224389 6.26504 0 6.61895 0 7.02136V22.6567C4.03168e-06 22.8714 0.0652272 23.0817 0.188224 23.2637C0.31122 23.4457 0.487033 23.592 0.695592 23.6859L14.437 29.8757C14.589 29.9475 14.7555 29.9891 14.9258 29.9981L14.9295 29.9983L14.9499 29.9992L14.9518 29.9992C14.9679 29.9998 14.9839 30 15 30C15.0161 30 15.0321 29.9998 15.0482 29.9992L15.0501 29.9992L15.0705 29.9983L15.0742 29.9981C15.2445 29.9891 15.411 29.9475 15.563 29.8757L29.3044 23.6859C29.513 23.592 29.6888 23.4457 29.8118 23.2637C29.9348 23.0817 30 22.8714 30 22.6567V7.02136C30 6.61895 29.7756 6.26504 29.4363 6.06094L29.4457 6.04241L16.1284 0.221424ZM27.5222 8.84365V17.1088H27.5261V21.9408L16.2389 27.0251V13.8644L27.5222 8.84365ZM2.4739 17.1088H2.47784V8.84365L13.7611 13.8644V27.0251L2.4739 21.9408V17.1088ZM25.8444 7.04813L15 2.33843L4.15559 7.04813L15 11.8736L25.8444 7.04813Z" fill="#333333"/>
</svg>
