<svg width="30" height="30" viewBox="0 0 30 30" fill="none" xmlns="http://www.w3.org/2000/svg">
<g clip-path="url(#clip0_42_231)">
<path d="M22.8868 21.4286H26.1744C27.2533 21.4286 27.8318 21.5777 28.3556 21.8579C28.8795 22.138 29.2905 22.5491 29.5707 23.0729C29.8508 23.5968 30 24.1753 30 25.2542V26.1744C30 27.2533 29.8508 27.8319 29.5707 28.3557C29.2905 28.8795 28.8795 29.2906 28.3557 29.5707C27.8318 29.8508 27.2532 30 26.1744 30H3.82561C2.74671 30 2.16818 29.8508 1.64436 29.5707C1.12054 29.2905 0.709464 28.8795 0.429322 28.3557C0.149179 27.8318 0 27.2532 0 26.1744V25.2541C0 24.1752 0.149179 23.5967 0.429322 23.0729C0.709464 22.5491 1.12054 22.138 1.64432 21.8579C2.16821 21.5777 2.74675 21.4286 3.82564 21.4286H7.11321C8.29204 20.3458 9 18.9587 9 17.4464C9 16.2132 8.52918 15.0632 7.71611 14.0936C6.68039 12.6356 6.07143 10.8532 6.07143 8.92857C6.07143 3.99746 10.0689 0 15 0C19.9311 0 23.9286 3.99746 23.9286 8.92857C23.9286 10.8141 23.3441 12.563 22.3465 14.0042C21.4971 15 21 16.1792 21 17.4464C21 18.9587 21.708 20.3458 22.8868 21.4286ZM19.9124 21.4286C19.1391 20.2295 18.7143 18.8719 18.7143 17.4464C18.7143 16.1817 19.0495 14.9657 19.6706 13.8651L19.7064 13.8024C19.9257 13.422 20.1794 13.0555 20.4653 12.706C21.2292 11.6024 21.6429 10.2994 21.6429 8.92857C21.6429 5.25982 18.6687 2.28571 15 2.28571C11.3312 2.28571 8.35714 5.25982 8.35714 8.92857C8.35714 10.3009 8.77175 11.605 9.53471 12.706C10.6608 14.0827 11.2857 15.7198 11.2857 17.4464C11.2857 18.8717 10.8609 20.2294 10.0876 21.4286H19.9124ZM3.82561 23.7143C3.16439 23.7143 2.92682 23.7641 2.72229 23.8735C2.59682 23.9406 2.512 24.0254 2.44489 24.1509C2.33554 24.3554 2.28571 24.593 2.28571 25.2542V26.1744C2.28571 26.8356 2.33554 27.0732 2.44489 27.2777C2.512 27.4032 2.59682 27.488 2.72229 27.5551C2.92682 27.6645 3.16443 27.7143 3.82561 27.7143H26.1744C26.8356 27.7143 27.0732 27.6645 27.2777 27.5551C27.4032 27.488 27.488 27.4032 27.5551 27.2777C27.6645 27.0732 27.7143 26.8356 27.7143 26.1744V25.2542C27.7143 24.593 27.6645 24.3554 27.5551 24.1509C27.488 24.0254 27.4032 23.9406 27.2777 23.8735C27.0732 23.7641 26.8356 23.7143 26.1744 23.7143H3.82561Z" fill="#333333"/>
</g>
<defs>
<clipPath id="clip0_42_231">
<rect width="30" height="30" fill="white"/>
</clipPath>
</defs>
</svg>
