<svg width="30" height="30" viewBox="0 0 30 30" fill="none" xmlns="http://www.w3.org/2000/svg">
<path d="M14.7181 27.1875C15.5 27.1875 16.1862 26.5312 16.1862 25.7812C16.1862 25.0312 15.5 24.375 14.7181 24.375C13.9362 24.375 13.25 25.0312 13.25 25.7812C13.25 26.5312 13.9362 27.1875 14.7181 27.1875ZM5.91314 0C3.76061 0 2 1.6875 2 3.75V26.25C2 28.3125 3.76064 30 5.91311 30H24.3369C26.4875 30 28.25 28.3125 28.25 26.25V3.75C28.25 1.6875 26.4875 0 24.3369 0H5.91311H5.91314ZM24.3388 28.125H5.91311C4.83311 28.1212 3.9575 27.2831 3.95561 26.25V23.4375H26.2925V26.25C26.2906 27.285 25.4169 28.1212 24.3388 28.125ZM3.95564 21.5625V6.5625H26.2925V21.5625H3.95561H3.95564ZM3.95564 4.68561V3.75C3.9575 2.715 4.83314 1.87686 5.91314 1.875H24.3369C25.415 1.87686 26.2906 2.715 26.2925 3.75V4.68561H3.95561H3.95564Z" fill="#333333"/>
</svg>
