<svg width="30" height="30" viewBox="0 0 30 30" fill="none" xmlns="http://www.w3.org/2000/svg">
<path fill-rule="evenodd" clip-rule="evenodd" d="M3.99998 2C3.99998 0.666667 4.66665 0 5.99998 0C6.11344 0 6.22207 0.00482713 6.32587 0.0144814C6.41651 0.00487481 6.50799 0 6.59998 0H16.5C18.7543 0 20.9163 0.895533 22.5104 2.48959C24.1044 4.08365 25 6.24566 25 8.5C25 10.7543 24.1044 12.9163 22.5104 14.5104C22.4865 14.5343 22.4625 14.5581 22.4383 14.5816C22.8177 14.8524 23.1765 15.1557 23.5104 15.4896C25.1044 17.0837 26 19.2457 26 21.5C26 23.7543 25.1044 25.9163 23.5104 27.5104C21.9163 29.1045 19.7543 30 17.5 30H6.15998C6.13722 30 6.11447 29.9996 6.09175 29.9989C6.06152 29.9996 6.03093 30 5.99998 30C4.66665 30 3.99998 29.3333 3.99998 28V16.8834C3.99773 16.8691 3.99772 16.8544 3.99998 16.84V2ZM16.5 4C17.6935 4 18.838 4.47411 19.682 5.31802C20.5259 6.16193 21 7.30653 21 8.5C21 9.69347 20.5259 10.8381 19.682 11.682C18.838 12.5259 17.6935 13 16.5 13H7.99998V4H16.5ZM7.99998 26H17.5C18.6935 26 19.838 25.5259 20.682 24.682C21.5259 23.8381 22 22.6935 22 21.5C22 20.3065 21.5259 19.1619 20.682 18.318C19.838 17.4741 18.6935 17 17.5 17H7.99998V26Z" fill="#333333"/>
</svg>
