<svg width="30" height="30" viewBox="0 0 30 30" fill="none" xmlns="http://www.w3.org/2000/svg">
<g clip-path="url(#clip0_42_133)">
<path d="M16.0711 15.0313C16.0782 14.7301 15.9673 14.4266 15.7385 14.1968L1.94022 0.334412C1.49636 -0.111481 0.77675 -0.111481 0.332893 0.334412C-0.110964 0.780305 -0.110964 1.50327 0.332893 1.9492L13.336 15.0127L0.358143 28.0508C-0.0857143 28.4967 -0.0857143 29.2197 0.358143 29.6656C0.801965 30.1115 1.52161 30.1115 1.96543 29.6656L15.7383 15.8288C15.9577 15.6083 16.0687 15.3202 16.0712 15.0313H16.0711ZM29.9997 15.0313C30.0068 14.7301 29.8959 14.4266 29.6671 14.1968L15.8688 0.334412C15.4249 -0.111481 14.7053 -0.111481 14.2615 0.334412C13.8176 0.780305 13.8176 1.50327 14.2615 1.9492L27.2646 15.0127L14.2867 28.0508C13.8429 28.4967 13.8429 29.2197 14.2867 29.6656C14.7305 30.1115 15.4502 30.1115 15.894 29.6656L29.6669 15.8288C29.8863 15.6083 29.9972 15.3202 29.9997 15.0313H29.9997Z" fill="#333333"/>
</g>
<defs>
<clipPath id="clip0_42_133">
<rect width="30" height="30" fill="white"/>
</clipPath>
</defs>
</svg>
