<svg width="30" height="30" viewBox="0 0 30 30" fill="none" xmlns="http://www.w3.org/2000/svg">
<g clip-path="url(#clip0_42_216)">
<path d="M15 0C20.9004 0 24.2109 2.91529 24.6034 8.42839L26.2857 8.42857C28.3371 8.42857 30 10.0915 30 12.1429V26.2857C30 28.3371 28.3371 30 26.2857 30H3.71429C1.66293 30 0 28.3371 0 26.2857V12.1429C0 10.0915 1.66293 8.42857 3.71429 8.42857L5.39664 8.42839C5.78914 2.91529 9.09961 0 15 0ZM26.2857 10.7143H3.71429C2.92532 10.7143 2.28571 11.3539 2.28571 12.1429V26.2857C2.28571 27.0747 2.92532 27.7143 3.71429 27.7143H26.2857C27.0747 27.7143 27.7143 27.0747 27.7143 26.2857V12.1429C27.7143 11.3539 27.0747 10.7143 26.2857 10.7143ZM15.0179 14.5C15.6427 14.5 16.1505 15.0015 16.1606 15.6239L16.1607 15.6429V22.7857C16.1607 23.4169 15.649 23.9286 15.0179 23.9286C14.393 23.9286 13.8852 23.4271 13.8751 22.8046L13.875 22.7857V15.6429C13.875 15.0117 14.3867 14.5 15.0179 14.5ZM15 2.28571C10.3645 2.28571 8.0305 4.23318 7.68739 8.42857H22.3126C21.9695 4.23318 19.6355 2.28571 15 2.28571Z" fill="#333333"/>
</g>
<defs>
<clipPath id="clip0_42_216">
<rect width="30" height="30" fill="white"/>
</clipPath>
</defs>
</svg>
