<svg width="30" height="30" viewBox="0 0 30 30" fill="none" xmlns="http://www.w3.org/2000/svg">
<g clip-path="url(#clip0_1553_127)">
<path d="M1.14286 0C0.511679 0 0 0.511679 0 1.14286C0 1.77404 0.511679 2.28571 1.14286 2.28571H28.8571C29.4883 2.28571 30 1.77404 30 1.14286C30 0.511679 29.4883 0 28.8571 0H1.14286ZM1.14286 27.7143C0.511679 27.7143 0 28.226 0 28.8571C0 29.4883 0.511679 30 1.14286 30H28.8571C29.4883 30 30 29.4883 30 28.8571C30 28.226 29.4883 27.7143 28.8571 27.7143H1.14286ZM0 15C0 14.3688 0.511679 13.8571 1.14286 13.8571H9.57143C10.2026 13.8571 10.7143 14.3688 10.7143 15C10.7143 15.6312 10.2026 16.1429 9.57143 16.1429H1.14286C0.511679 16.1429 0 15.6312 0 15ZM21.0714 20.3571L30 9.64286H12.1429L21.0714 20.3571Z" fill="#333333"/>
</g>
<defs>
<clipPath id="clip0_1553_127">
<rect width="30" height="30" fill="white"/>
</clipPath>
</defs>
</svg>
