<svg width="30" height="30" viewBox="0 0 30 30" fill="none" xmlns="http://www.w3.org/2000/svg">
<path d="M28.7143 4.57143H1.28571C0.582857 4.57143 0 3.98857 0 3.28571C0 2.58286 0.582857 2 1.28571 2H28.7143C29.4171 2 30 2.58286 30 3.28571C30 3.98857 29.4171 4.57143 28.7143 4.57143ZM28.7143 16.2286H1.28571C0.582857 16.2286 0 15.6457 0 14.9429C0 14.24 0.582857 13.6571 1.28571 13.6571H28.7143C29.4171 13.6571 30 14.24 30 14.9429C30 15.6457 29.4171 16.2286 28.7143 16.2286ZM28.7143 27.8857H1.28571C0.582857 27.8857 0 27.3029 0 26.6C0 25.8971 0.582857 25.3143 1.28571 25.3143H28.7143C29.4171 25.3143 30 25.8971 30 26.6C30 27.3029 29.4171 27.8857 28.7143 27.8857Z" fill="#333333"/>
</svg>
