<svg width="30" height="30" viewBox="0 0 30 30" fill="none" xmlns="http://www.w3.org/2000/svg">
<g clip-path="url(#clip0_42_206)">
<path fill-rule="evenodd" clip-rule="evenodd" d="M21.8572 8.48245C21.8572 11.8456 19.6427 16.2795 15.0883 16.2857C21.0006 16.2918 26.0944 19.5075 26.1427 25.4994C26.1786 29.9536 20.7962 29.975 15.3566 29.9967L15.1963 29.9974C9.61954 30.0201 3.93678 29.9974 4.00053 25.4994C4.0855 19.5044 9.14838 16.2882 15.0648 16.2857C10.5035 16.2767 8.28572 11.8481 8.28579 8.48245V8.31516L8.28586 8.22313L8.286 8.13438L8.28615 8.07838C8.28686 7.81766 8.28904 7.54881 8.2955 7.27423L8.29575 7.27416C8.37365 4.01337 9.05807 -0.0158815 15.0714 4.70779e-05C21.0876 0.0159757 21.7698 4.0243 21.8472 7.27988L21.8475 7.27995C21.8539 7.55298 21.856 7.82048 21.8567 8.08002L21.8568 8.10038L21.8571 8.22449L21.8571 8.31731L21.8572 8.35813V8.47034V8.47277V8.47281V8.48245ZM11.2158 2.93623C10.6097 3.58444 10.2553 4.54334 10.1015 5.87059C10.0625 6.20702 10.0378 6.5197 10.0225 6.88845C11.6495 6.58098 13.3343 6.41891 15.0604 6.41891C16.7944 6.41891 18.4866 6.58245 20.1204 6.89263C20.1053 6.5292 20.081 6.22055 20.0428 5.88859C19.8903 4.56316 19.5372 3.60587 18.9308 2.95598C18.1978 2.1703 16.9894 1.71944 15.0669 1.71433C13.151 1.7093 11.9471 2.15401 11.2158 2.93623ZM20.1405 8.64324C18.4875 8.30552 16.7871 8.1332 15.0604 8.1332C13.3414 8.1332 11.6484 8.30402 10.0022 8.63874C10.0389 10.0115 10.5264 11.5044 11.347 12.6191C12.2699 13.873 13.5164 14.5602 15.0732 14.5618C16.6278 14.5633 17.8728 13.8776 18.7955 12.6232C19.6152 11.5087 20.1029 10.0156 20.1405 8.64324ZM16.8784 18.1162C16.2945 18.0397 15.6907 18 15.0716 18C14.4894 18 13.9208 18.0348 13.3701 18.1026L15.042 20.3937L16.8784 18.1162ZM22.3419 27.7592C23.1278 27.5395 23.6652 27.2517 23.982 26.9109C24.2803 26.5901 24.4337 26.1657 24.4284 25.5132C24.4096 23.1721 23.4729 21.316 21.7642 20.0028C20.7754 19.2429 19.5439 18.6827 18.1572 18.3509L15.6438 21.468V25.1444C15.6438 26.0913 14.8761 26.8589 13.9291 26.8589H11.3574C10.4105 26.8589 9.64282 26.0915 9.64282 25.1444V24.6226C8.86697 24.3004 8.32139 23.5353 8.32139 22.6428C8.32139 21.4594 9.28079 20.5 10.4643 20.5C11.6477 20.5 12.6071 21.4594 12.6071 22.6428C12.6071 23.7171 11.8166 24.6067 10.7857 24.7617V25.1444C10.7857 25.4602 11.0416 25.7161 11.3574 25.7161H13.9291C14.2449 25.7161 14.5009 25.4601 14.5009 25.1444V21.6346C14.482 21.6008 14.4667 21.5651 14.455 21.5282L12.1153 18.3218C10.6816 18.6491 9.41014 19.2192 8.39425 20.0017C6.68943 21.3148 5.74793 23.1751 5.71464 25.5237C5.70546 26.1703 5.86132 26.5897 6.17343 26.9138C6.51275 27.2661 7.09011 27.5637 7.92671 27.7877C8.774 28.0146 9.83961 28.1545 11.1753 28.2247C12.2403 28.2808 13.2249 28.2911 15.1893 28.2831L15.3508 28.2825C17.356 28.2745 18.2265 28.2597 19.2418 28.1999C20.5253 28.1244 21.5396 27.9834 22.3419 27.7592ZM9.46429 22.6429C9.46429 23.1952 9.912 23.6429 10.4643 23.6429C11.0166 23.6429 11.4643 23.1952 11.4643 22.6429C11.4643 22.0906 11.0166 21.6429 10.4643 21.6429C9.912 21.6429 9.46429 22.0906 9.46429 22.6429ZM15.6429 4.64286V5.50001H14.5V4.64286H13.6429V3.5H14.5V2.64286H15.6429V3.5H16.5V4.64286H15.6429Z" fill="#333333"/>
</g>
<defs>
<clipPath id="clip0_42_206">
<rect width="30" height="30" fill="white"/>
</clipPath>
</defs>
</svg>
