<svg width="30" height="30" viewBox="0 0 30 30" fill="none" xmlns="http://www.w3.org/2000/svg">
<path d="M28.7917 1.19492C28.0247 0.429826 26.9846 0 25.9 0H4.08947C3.00487 0 1.9647 0.429826 1.19778 1.19492C0.430853 1.96002 0 2.99771 0 4.07972V21.6837C0 22.7657 0.430853 23.8034 1.19778 24.5685C1.9647 25.3336 3.00487 25.7634 4.08947 25.7634H13.5271C14.2783 25.7634 14.8872 25.1546 14.8872 24.4035C14.8872 23.6524 14.2783 23.0436 13.5271 23.0436H4.08947C3.72794 23.0436 3.38121 22.9003 3.12557 22.6453C2.86993 22.3903 2.72631 22.0444 2.72631 21.6837V4.07972C2.72631 3.71905 2.86993 3.37315 3.12557 3.11812C3.38121 2.86309 3.72794 2.71981 4.08947 2.71981H25.9C26.2615 2.71981 26.6082 2.86309 26.8639 3.11812C27.1195 3.37315 27.2631 3.71905 27.2631 4.07972V12.2735C27.2631 13.0262 27.8734 13.6364 28.6263 13.6364C29.3791 13.6364 29.9894 13.0262 29.9894 12.2735V4.07972C29.9894 2.99771 29.5586 1.96002 28.7917 1.19492Z" fill="#333333"/>
<path fill-rule="evenodd" clip-rule="evenodd" d="M28.4252 24.3272L29.7439 25.0953C29.851 25.1595 29.9314 25.2599 29.9706 25.3784C30.0098 25.497 30.0051 25.6256 29.9573 25.7409C29.7334 26.2799 29.4427 26.7887 29.092 27.2552C29.0165 27.3532 28.9078 27.4203 28.7863 27.4438C28.6648 27.4674 28.5389 27.4458 28.4323 27.3831L27.1154 26.6149C26.5097 27.2248 25.755 27.6657 24.9261 27.8937V29.4327C24.9273 29.5571 24.8833 29.6777 24.8021 29.772C24.721 29.8662 24.6083 29.9278 24.4851 29.9451C23.9097 30.0183 23.3273 30.0183 22.7519 29.9451C22.6288 29.9276 22.5162 29.866 22.4351 29.7718C22.354 29.6775 22.3099 29.557 22.3109 29.4327V27.8937C21.4849 27.6634 20.7329 27.2225 20.1287 26.614L18.8056 27.3866C18.6995 27.4485 18.5745 27.4698 18.4539 27.4466C18.3332 27.4234 18.225 27.3573 18.1494 27.2605C17.7978 26.7922 17.5062 26.2817 17.2815 25.7409C17.235 25.6252 17.2316 25.4967 17.2719 25.3787C17.3122 25.2607 17.3935 25.1611 17.5011 25.098L18.8242 24.3289C18.72 23.935 18.6646 23.5298 18.6592 23.1224C18.6521 22.6671 18.7067 22.2129 18.8215 21.7722L17.5029 21.0031C17.3957 20.9406 17.3146 20.8416 17.2743 20.7242C17.2339 20.6069 17.2371 20.4789 17.2832 20.3637C17.5072 19.8229 17.7988 19.3126 18.1512 18.845C18.2266 18.7469 18.3352 18.6797 18.4567 18.656C18.5782 18.6323 18.7042 18.6537 18.8109 18.7163L20.1278 19.4853C20.7331 18.8753 21.4876 18.4344 22.3162 18.2065V16.6675C22.3148 16.5431 22.3588 16.4224 22.44 16.3281C22.5211 16.2338 22.6339 16.1723 22.7572 16.1551C23.3326 16.0811 23.915 16.0811 24.4904 16.1551C24.6135 16.1726 24.7261 16.2342 24.8072 16.3285C24.8883 16.4227 24.9325 16.5432 24.9314 16.6675V18.2065C25.7603 18.4344 26.5151 18.8753 27.1207 19.4853L28.4393 18.7154C28.5455 18.6532 28.6706 18.6319 28.7914 18.6552C28.9121 18.6786 29.0203 18.7451 29.0955 18.8424C29.4472 19.3104 29.7388 19.8206 29.9635 20.3611C30.0092 20.4766 30.0121 20.6046 29.9716 20.722C29.9312 20.8394 29.8501 20.9385 29.743 21.0014L28.4252 21.7696C28.6431 22.6082 28.6431 23.4885 28.4252 24.3272ZM25.2902 24.731C25.7209 24.2952 25.9636 23.7078 25.9661 23.0951C25.9786 22.471 25.7429 21.8674 25.3108 21.4168C24.8787 20.9662 24.2855 20.7055 23.6613 20.6918H23.6269C22.999 20.6874 22.3951 20.9325 21.948 21.3733C21.5009 21.8141 21.2472 22.4144 21.2427 23.0422C21.2383 23.67 21.4834 24.2738 21.9243 24.7209C22.3651 25.168 22.9655 25.4216 23.5934 25.4261H23.6622C24.2749 25.4164 24.8594 25.1668 25.2902 24.731Z" fill="#333333"/>
<path d="M14.504 27.6713C14.2484 27.4163 13.9018 27.273 13.5403 27.2729H5.45262C5.09113 27.273 4.74446 27.4163 4.48886 27.6713C4.23327 27.9263 4.08968 28.2722 4.08968 28.6328C4.08968 28.9934 4.23327 29.3393 4.48886 29.5943C4.74446 29.8494 5.09113 29.9927 5.45262 29.9927H13.5403C13.9018 29.9927 14.2484 29.8494 14.504 29.5943C14.7596 29.3393 14.9032 28.9934 14.9032 28.6328C14.9032 28.2722 14.7596 27.9263 14.504 27.6713Z" fill="#333333"/>
<path d="M15 6.78571C15.3124 6.78571 15.612 6.908 15.8329 7.12568C16.0538 7.34336 16.1779 7.63859 16.1779 7.94643V14.9107C16.1779 15.2186 16.0538 15.5138 15.8329 15.7315C15.612 15.9491 15.3124 16.0714 15 16.0714C14.6876 16.0714 14.388 15.9491 14.1671 15.7315C13.9462 15.5138 13.8221 15.2186 13.8221 14.9107V7.94643C13.8221 7.63859 13.9462 7.34336 14.1671 7.12568C14.388 6.908 14.6876 6.78571 15 6.78571Z" fill="#333333"/>
<path d="M9.54492 8.28652C9.74773 8.48638 9.86956 8.75231 9.88756 9.03439C9.90556 9.31647 9.81849 9.59534 9.64269 9.81866L9.54492 9.92777L8.02306 11.4286L9.54492 12.9294C9.74773 13.1292 9.86956 13.3952 9.88756 13.6772C9.90556 13.9593 9.81849 14.2382 9.64269 14.4615L9.54492 14.5706C9.3421 14.7705 9.07224 14.8905 8.78597 14.9083C8.49971 14.926 8.21672 14.8402 7.99008 14.667L7.87936 14.5706L5.52354 12.2492C5.32073 12.0493 5.19889 11.7834 5.18089 11.5013C5.16289 11.2192 5.24996 10.9404 5.42577 10.7171L5.52354 10.6079L7.87936 8.28652C8.10025 8.06892 8.3998 7.94668 8.71214 7.94668C9.02448 7.94668 9.32403 8.06892 9.54492 8.28652Z" fill="#333333"/>
<path d="M20.4551 8.28652C20.676 8.06892 20.9755 7.94668 21.2879 7.94668C21.6002 7.94668 21.8998 8.06892 22.1206 8.28652L24.4765 10.6079L24.5742 10.7171C24.75 10.9404 24.8371 11.2192 24.8191 11.5013C24.8011 11.7834 24.6793 12.0493 24.4765 12.2492L22.1206 14.5706L22.0099 14.667C21.7833 14.8402 21.5003 14.926 21.214 14.9083C20.9278 14.8905 20.6579 14.7705 20.4551 14.5706L20.3573 14.4615C20.1815 14.2382 20.0944 13.9593 20.1124 13.6772C20.1304 13.3952 20.2523 13.1292 20.4551 12.9294L21.9769 11.4286L20.4551 9.92777L20.3573 9.81866C20.1815 9.59534 20.0944 9.31647 20.1124 9.03439C20.1304 8.75231 20.2523 8.48638 20.4551 8.28652Z" fill="#333333"/>
</svg>
