<svg width="30" height="30" viewBox="0 0 30 30" fill="none" xmlns="http://www.w3.org/2000/svg">
<path d="M29.2968 24.7098C29.3896 24.7114 29.4818 24.694 29.5675 24.6587C29.6533 24.6234 29.7309 24.571 29.7955 24.5047C29.8616 24.4405 29.9138 24.3636 29.949 24.2787C29.9841 24.1937 30.0014 24.1025 29.9999 24.0107V22.1464C30.0012 22.0544 29.9836 21.9631 29.9481 21.8782C29.9126 21.7932 29.8601 21.7164 29.7937 21.6523C29.7293 21.5863 29.652 21.534 29.5665 21.4988C29.4811 21.4635 29.3893 21.446 29.2968 21.4473H8.20341C8.11059 21.4457 8.01844 21.4631 7.93266 21.4984C7.84687 21.5337 7.76927 21.5861 7.70467 21.6523C7.63849 21.7164 7.58622 21.7934 7.55107 21.8783C7.51592 21.9633 7.49864 22.0545 7.50029 22.1464V24.0107C7.50029 24.2046 7.56779 24.3705 7.70654 24.5066C7.84154 24.6427 8.00654 24.7117 8.20341 24.7117H29.2968V24.7098ZM2.81288 25.875C3.59474 25.875 4.2566 25.6028 4.80409 25.0603C5.35158 24.5159 5.62533 23.8559 5.62533 23.0785C5.62533 22.303 5.35158 21.643 4.80409 21.0986C4.5459 20.8345 4.23601 20.6257 3.89354 20.4853C3.55106 20.3448 3.18328 20.2757 2.81288 20.2821C2.03101 20.2821 1.36915 20.5543 0.819785 21.0986C0.55455 21.3556 0.345023 21.6638 0.20411 22.0043C0.0631958 22.3448 -0.00612237 22.7104 0.000424011 23.0785C0.000424011 23.8559 0.274169 24.5159 0.819785 25.0603C1.36728 25.6028 2.03101 25.875 2.81288 25.875ZM29.2968 8.42813C29.3896 8.42968 29.4818 8.41228 29.5675 8.37701C29.6533 8.34173 29.7309 8.28934 29.7955 8.22306C29.8616 8.15888 29.9138 8.08195 29.949 7.997C29.9841 7.91205 30.0014 7.82086 29.9999 7.72902V5.8647C30.0012 5.77273 29.9836 5.68146 29.9481 5.5965C29.9126 5.51154 29.8601 5.43469 29.7937 5.37066C29.7293 5.30461 29.652 5.25235 29.5665 5.21709C29.4811 5.18182 29.3893 5.1643 29.2968 5.16559H8.20341C8.11059 5.16404 8.01844 5.18144 7.93266 5.21671C7.84687 5.25199 7.76927 5.30438 7.70467 5.37066C7.63858 5.43485 7.58637 5.51177 7.55123 5.59672C7.51608 5.68167 7.49875 5.77286 7.50029 5.8647V7.72902C7.50029 7.92291 7.56779 8.08883 7.70654 8.22493C7.84154 8.36102 8.00654 8.43 8.20341 8.43H29.2968V8.42813ZM2.81288 9.59333C3.59474 9.59333 4.2566 9.32114 4.80409 8.77863C5.35158 8.23425 5.62533 7.57428 5.62533 6.79686C5.62533 6.02131 5.35158 5.36134 4.80409 4.81696C4.54583 4.5529 4.23593 4.34421 3.89347 4.20378C3.55101 4.06334 3.18326 3.99412 2.81288 4.00039C2.03101 4.00039 1.36915 4.27258 0.819785 4.81696C0.55455 5.07391 0.345023 5.38212 0.20411 5.72263C0.0631958 6.06313 -0.00612237 6.42871 0.000424011 6.79686C0.000424011 7.57428 0.274169 8.23425 0.819785 8.77863C1.36728 9.32114 2.03101 9.59333 2.81288 9.59333Z" fill="#333333"/>
</svg>
