<svg width="30" height="30" viewBox="0 0 30 30" fill="none" xmlns="http://www.w3.org/2000/svg">
<g clip-path="url(#clip0_42_257)">
<path fill-rule="evenodd" clip-rule="evenodd" d="M20.1421 5.27725C20.0947 2.35404 17.7058 0 14.7672 0H14.7671H5.37568L5.28679 0.000714234C2.35943 0.0481071 0 2.4315 0 5.366V24.634L0.000714234 24.7227C0.0481785 27.646 2.43704 30 5.37568 30H15.2147C15.8371 29.9897 16.3386 29.482 16.3386 28.8571C16.3386 28.226 15.827 27.7143 15.1957 27.7143H13.6429V24.7143C13.6429 24.0831 13.1312 23.5714 12.5 23.5714H7.64286C7.01168 23.5714 6.5 24.0831 6.5 24.7143V27.7143H5.37571L5.32457 27.7139C3.64107 27.6866 2.28575 26.3176 2.28575 24.634V5.366L2.28618 5.31507C2.31343 3.63793 3.68564 2.28571 5.37571 2.28571H14.7671L14.8183 2.28614C16.5018 2.31336 17.8571 3.68239 17.8571 5.366V12.8648L17.8573 12.8837C17.8674 13.5062 18.3751 14.0077 19 14.0077C19.6312 14.0077 20.1429 13.496 20.1429 12.8648V5.366L20.1421 5.27725ZM13.6429 19.5714C13.6429 18.9402 13.1312 18.4286 12.5 18.4286H7.64286C7.01168 18.4286 6.5 18.9402 6.5 19.5714C6.5 20.2026 7.01168 20.7143 7.64286 20.7143H12.5C13.1312 20.7143 13.6429 20.2026 13.6429 19.5714ZM13.6429 15C13.6429 14.3688 13.1312 13.8571 12.5 13.8571H7.64286C7.01168 13.8571 6.5 14.3688 6.5 15C6.5 15.6312 7.01168 16.1429 7.64286 16.1429H12.5C13.1312 16.1429 13.6429 15.6312 13.6429 15ZM11.2143 5.60714C11.2143 4.97596 10.7026 4.46429 10.0714 4.46429C9.44025 4.46429 8.92857 4.97596 8.92857 5.60714V6.89286H7.64286C7.01168 6.89286 6.5 7.40454 6.5 8.03571C6.5 8.66689 7.01168 9.17857 7.64286 9.17857H8.92857V10.4643C8.92857 11.0955 9.44025 11.6071 10.0714 11.6071C10.7026 11.6071 11.2143 11.0955 11.2143 10.4643V9.17857H12.5C13.1312 9.17857 13.6429 8.66689 13.6429 8.03571C13.6429 7.40454 13.1312 6.89286 12.5 6.89286H11.2143V5.60714ZM21.8929 28.8285V25.657C20.6045 25.4108 19.5892 24.3955 19.343 23.1071H16.1715C16.4582 26.1335 18.8665 28.5418 21.8929 28.8285ZM23.0357 28.8349V25.6698C24.3578 25.448 25.4062 24.4192 25.657 23.1071H28.8285C28.5395 26.1572 26.0955 28.5796 23.0357 28.8349ZM23.0357 24.5015C23.7252 24.3174 24.2731 23.7865 24.481 23.1071H23.0357V24.5015ZM28.8349 21.9643H25.6698C25.444 20.6183 24.3817 19.556 23.0357 19.3302V16.1651C26.1194 16.4224 28.5776 18.8806 28.8349 21.9643ZM24.5015 21.9643C24.311 21.2508 23.7492 20.689 23.0357 20.4985V21.9643H24.5015ZM21.8929 16.1715V19.343C20.5808 19.5938 19.552 20.6422 19.3302 21.9643H16.1651C16.4204 18.9045 18.8428 16.4605 21.8929 16.1715ZM21.8929 20.519C21.2135 20.7269 20.6826 21.2748 20.4985 21.9643H21.8929V20.519ZM21.8929 23.1071H20.519C20.7197 23.7629 21.2371 24.2803 21.8929 24.481V23.1071ZM15.0188 21.9643H15V22.5V23.1071H15.0242C15.3173 26.7651 18.2349 29.6827 21.8929 29.9758V30H22.4946L22.5 30L22.5054 30H23.0357V29.9812C26.9278 29.7065 30 26.462 30 22.5C30 18.3579 26.6421 15 22.5 15C18.538 15 15.2935 18.0722 15.0188 21.9643Z" fill="#333333"/>
</g>
<defs>
<clipPath id="clip0_42_257">
<rect width="30" height="30" fill="white"/>
</clipPath>
</defs>
</svg>
