<svg width="30" height="30" viewBox="0 0 30 30" fill="none" xmlns="http://www.w3.org/2000/svg">
<g clip-path="url(#clip0_3410_24)">
<path d="M14.9997 0.000244141C15.7124 0.000244141 16.2901 0.577922 16.2901 1.29056C16.2901 2.00317 15.7124 2.58088 14.9997 2.58088C12.5434 2.58088 10.1423 3.30927 8.09993 4.67392C6.05758 6.03858 4.46576 7.97821 3.52577 10.2475C2.58578 12.5169 2.33983 15.014 2.81904 17.4231C3.29824 19.8322 4.48107 22.0452 6.21794 23.782C7.95482 25.5189 10.1677 26.7017 12.5769 27.1809C14.986 27.6601 17.4831 27.4142 19.7524 26.4742C22.0218 25.5342 23.9614 23.9424 25.3261 21.9C26.6907 19.8577 27.4191 17.4565 27.4191 15.0002C27.4191 14.2876 27.9968 13.7099 28.7094 13.7099C29.4221 13.7099 29.9997 14.2876 29.9997 15.0002C29.9997 17.9669 29.12 20.867 27.4718 23.3338C25.8236 25.8005 23.4809 27.7231 20.74 28.8584C17.9991 29.9937 14.9831 30.2908 12.0734 29.712C9.16368 29.1332 6.49094 27.7046 4.39316 25.6068C2.29537 23.509 0.866761 20.8363 0.287983 17.9266C-0.290795 15.0169 0.00625519 12.0009 1.14157 9.25998C2.27688 6.51909 4.19947 4.17642 6.6662 2.5282C9.13294 0.879978 12.033 0.000244146 14.9997 0.000244141Z" fill="black"/>
<path d="M15 10.4839C17.4942 10.4839 19.5161 12.5058 19.5161 15C19.5161 17.4942 17.4942 19.5161 15 19.5161C12.5058 19.5161 10.4839 17.4942 10.4839 15C10.4839 12.5058 12.5058 10.4839 15 10.4839ZM15 13.0646C13.9311 13.0646 13.0645 13.9311 13.0645 15C13.0645 16.069 13.9311 16.9355 15 16.9355C16.0689 16.9355 16.9355 16.069 16.9355 15C16.9355 13.9311 16.0689 13.0646 15 13.0646Z" fill="black"/>
<path d="M28.7096 3.05176e-05C28.72 3.05176e-05 28.7304 0.000173369 28.7408 0.000387676C28.7467 0.00056624 28.7527 0.00081626 28.7586 0.00103051L28.7732 0.00160194C28.7794 0.00188765 28.7856 0.00231623 28.7917 0.00267336C28.7959 0.00295906 28.8002 0.00317337 28.8044 0.00349481C28.8118 0.00403054 28.8191 0.0046734 28.8265 0.00531623L28.835 0.00610194C28.8757 0.0100305 28.9159 0.0158877 28.9555 0.0235305L28.9564 0.0237091C28.9868 0.0296019 29.0168 0.0365305 29.0464 0.0444948L29.0475 0.0448162C29.0669 0.0500662 29.086 0.0557447 29.105 0.0618162L29.1094 0.0632447C29.1175 0.0658876 29.1255 0.0686019 29.1335 0.0713519L29.1404 0.0737447C29.1478 0.0763875 29.1552 0.0791018 29.1626 0.0818519L29.1698 0.0846018C29.186 0.0908084 29.2021 0.0973215 29.2181 0.104138C29.2366 0.112048 29.2549 0.12042 29.273 0.129245C29.2796 0.132459 29.2861 0.135673 29.2926 0.138995L29.3004 0.142995C29.3074 0.146602 29.3144 0.15028 29.3214 0.154066L29.3269 0.15703C29.3441 0.166387 29.3611 0.176173 29.3779 0.186387L29.3794 0.18728C29.3877 0.192316 29.3959 0.197423 29.4041 0.202637L29.4062 0.203995C29.4142 0.209173 29.4222 0.214459 29.4302 0.219816L29.4322 0.221173C29.4486 0.232316 29.4648 0.243816 29.4808 0.255816L29.4831 0.257495C29.4986 0.269173 29.514 0.281209 29.5291 0.293673L29.5339 0.297673C29.5404 0.303102 29.5469 0.308602 29.5534 0.314209L29.5609 0.320816C29.5656 0.324887 29.5702 0.328923 29.5748 0.333066C29.5803 0.338137 29.5858 0.34328 29.5913 0.348423C29.5939 0.350852 29.5966 0.35328 29.5992 0.355744C29.6221 0.377608 29.6443 0.400302 29.6656 0.42378C29.6695 0.428066 29.6733 0.432423 29.6771 0.43678C29.6805 0.440566 29.6838 0.44428 29.6871 0.448137C29.6909 0.45253 29.6946 0.456959 29.6983 0.461387C29.7013 0.464923 29.7043 0.468387 29.7072 0.471959C29.7112 0.47678 29.7151 0.481673 29.719 0.486566L29.7269 0.496459C29.7313 0.502137 29.7356 0.507851 29.7399 0.513566L29.7448 0.52003C29.7564 0.535566 29.7676 0.551316 29.7784 0.567244L29.7804 0.57028C29.8087 0.612097 29.8344 0.655555 29.8574 0.700423L29.8608 0.706958C29.8641 0.713423 29.8673 0.719923 29.8704 0.726458L29.8754 0.736815C29.8782 0.742601 29.8809 0.748387 29.8835 0.754208C29.8856 0.75878 29.8876 0.763351 29.8897 0.767922C29.8916 0.77228 29.8936 0.776637 29.8954 0.78103C29.902 0.796262 29.9082 0.811622 29.9142 0.827101L29.9186 0.83878C29.9211 0.845422 29.9234 0.852065 29.9258 0.858744L29.9286 0.866458C29.9759 1.00276 30 1.14605 29.9999 1.29035V11.7742C29.9999 12.4868 29.4222 13.0645 28.7096 13.0645C27.997 13.0645 27.4193 12.4868 27.4193 11.7742V4.40538L20.751 11.0737C20.2471 11.5776 19.4302 11.5776 18.9263 11.0737C18.4224 10.5697 18.4224 9.7528 18.9263 9.24891L25.5945 2.58067H18.2257C17.5131 2.58067 16.9354 2.00296 16.9354 1.29031C16.9354 0.577744 17.5131 3.05176e-05 18.2257 3.05176e-05H28.7096Z" fill="black"/>
</g>
<defs>
<clipPath id="clip0_3410_24">
<rect width="30" height="30" fill="white"/>
</clipPath>
</defs>
</svg>
