<svg width="30" height="30" viewBox="0 0 30 30" fill="none" xmlns="http://www.w3.org/2000/svg">
<path d="M14.8214 30C15.4526 30 15.9643 29.4883 15.9643 28.8571V6.42857H18.7896C19.2608 6.42857 19.6428 6.04389 19.6428 5.56936C19.6428 5.34146 19.5529 5.12293 19.3929 4.96179L15.4248 0.251679C15.0916 -0.0838929 14.5513 -0.0838929 14.2181 0.251679L10.2499 4.96179C9.9167 5.29732 9.9167 5.84136 10.2499 6.17689C10.3289 6.25658 10.4229 6.31984 10.5264 6.36304C10.63 6.40623 10.7411 6.4285 10.8533 6.42857H13.6786V28.8571C13.6786 29.4883 14.1902 30 14.8214 30Z" fill="#333333"/>
</svg>
