<svg width="30" height="30" viewBox="0 0 30 30" fill="none" xmlns="http://www.w3.org/2000/svg">
<g clip-path="url(#clip0_42_141)">
<path fill-rule="evenodd" clip-rule="evenodd" d="M11.4793 14.7807C14.1994 14.9117 16.738 16.0332 18.6771 17.9721C20.7435 20.0386 21.8816 22.786 21.8815 25.7084C21.8815 26.0157 21.8688 26.3229 21.8433 26.6291C21.7934 27.2266 21.293 27.6785 20.7041 27.6785C20.6722 27.6785 20.64 27.6772 20.6077 27.6745C19.9778 27.6219 19.5098 27.0687 19.5623 26.4389C19.5825 26.1975 19.5927 25.9518 19.5927 25.7084C19.5927 23.3974 18.6927 21.2248 17.0586 19.5906C15.4245 17.9565 13.2518 17.0566 10.9408 17.0566C8.62982 17.0566 6.45713 17.9565 4.82294 19.5906C3.18885 21.2247 2.28889 23.3974 2.28889 25.7084C2.28889 25.9522 2.29899 26.1958 2.31918 26.4388C2.37175 27.0687 1.90371 27.6219 1.27384 27.6744C0.644 27.7267 0.0907687 27.2589 0.0382316 26.6291C0.0128392 26.3248 0 26.015 0 25.7083C0 22.7861 1.13804 20.0386 3.20448 17.9721C5.14349 16.0332 7.68215 14.9117 10.4023 14.7807C7.11876 14.5072 4.53905 11.7559 4.53905 8.40174C4.53905 4.86615 7.4052 2 10.9408 2C14.4764 2 17.3425 4.86615 17.3425 8.40174C17.3425 11.7559 14.7628 14.5072 11.4793 14.7807ZM8.0326 5.49349C7.25578 6.27028 6.82797 7.3031 6.82797 8.4017C6.82797 9.50029 7.25581 10.5331 8.0326 11.3099C8.8094 12.0867 9.84222 12.5145 10.9408 12.5145C12.0394 12.5145 13.0722 12.0867 13.849 11.3099C14.6258 10.5331 15.0536 9.50026 15.0536 8.4017C15.0536 7.30314 14.6258 6.27032 13.849 5.49349C13.0722 4.71666 12.0394 4.28885 10.9408 4.28885C9.84226 4.28885 8.80943 4.7167 8.0326 5.49349ZM24.1424 13.5472C23.748 14.0296 23.2877 14.4508 22.7796 14.8004C27.0338 16.3969 30 20.5051 30 25.2316C30 25.5446 29.987 25.8574 29.961 26.1693C29.9237 26.6175 29.5484 26.9565 29.1066 26.9565C29.0827 26.9565 29.0587 26.9555 29.0344 26.9535C28.562 26.9142 28.2109 26.4993 28.2503 26.0269C28.2722 25.7636 28.2833 25.496 28.2833 25.2317C28.2833 20.468 24.7228 16.4462 20.0012 15.8767C19.5306 15.82 19.1951 15.3925 19.2518 14.9218C19.2965 14.5512 19.5711 14.2646 19.9158 14.1871C19.9704 14.1625 20.0284 14.1431 20.0894 14.1299C21.1527 13.9015 22.1201 13.3086 22.8133 12.4606C23.5157 11.6015 23.9024 10.5158 23.9024 9.40358C23.9024 6.73792 21.7337 4.56927 19.068 4.56927C18.594 4.56927 18.2097 4.18499 18.2097 3.71094C18.2097 3.23689 18.594 2.85261 19.068 2.85261C22.6803 2.85261 25.6191 5.79136 25.6191 9.40358C25.6191 10.9107 25.0947 12.3822 24.1424 13.5472Z" fill="#333333"/>
</g>
<defs>
<clipPath id="clip0_42_141">
<rect width="30" height="30" fill="white"/>
</clipPath>
</defs>
</svg>
