<svg width="30" height="30" viewBox="0 0 30 30" fill="none" xmlns="http://www.w3.org/2000/svg">
<g clip-path="url(#clip0_42_142)">
<path d="M2.71428 2.28571H27.2857C27.9169 2.28571 28.4286 1.77404 28.4286 1.14286C28.4286 0.511678 27.9169 0 27.2857 0H2.71428C2.0831 0 1.57142 0.511678 1.57142 1.14286C1.57142 1.77404 2.0831 2.28571 2.71428 2.28571ZM29.6565 16.9959L15.7994 3.43325C15.3552 2.99843 14.6448 2.99843 14.2006 3.43325L0.343457 16.9959C0.181173 17.1547 0.069885 17.3583 0.0237919 17.5806C-0.0223012 17.803 -0.00111011 18.034 0.0846617 18.2443C0.170433 18.4545 0.316897 18.6345 0.505367 18.7611C0.693838 18.8878 0.91577 18.9555 1.14285 18.9555H7.76021V26.6514C7.76021 28.4978 9.29367 30 11.1786 30H18.8214C20.7063 30 22.2398 28.494 22.2398 26.6429V18.9555H28.8571C29.0842 18.9555 29.3061 18.8878 29.4946 18.7611C29.6831 18.6345 29.8295 18.4545 29.9153 18.2443C30.0011 18.034 30.0223 17.803 29.9762 17.5806C29.9301 17.3583 29.8188 17.1547 29.6565 16.9959ZM21.1428 16.6698C20.5995 16.6698 20.145 17.0491 20.029 17.5573C19.9794 17.6873 19.954 17.8252 19.9541 17.9643V26.6429C19.9541 27.2337 19.446 27.7143 18.8214 27.7143H11.1786C10.554 27.7143 10.0459 27.2375 10.0459 26.6515V17.9729C10.0459 17.834 10.0211 17.7009 9.97574 17.5778C9.86742 17.0593 9.40781 16.6698 8.85713 16.6698H3.94442L15 5.84914L26.0556 16.6698H21.1428Z" fill="#333333"/>
</g>
<defs>
<clipPath id="clip0_42_142">
<rect width="30" height="30" fill="white"/>
</clipPath>
</defs>
</svg>
