<svg width="30" height="30" viewBox="0 0 30 30" fill="none" xmlns="http://www.w3.org/2000/svg">
<g clip-path="url(#clip0_42_301)">
<path d="M27.0846 30H2.91533C1.31076 29.999 0.00822468 28.7018 -6.10352e-05 27.0965V2.90351C0.00822468 1.29823 1.3108 0.00101475 2.91533 1.47408e-05H27.0846C27.4667 -0.00120244 27.8453 0.0729711 28.1987 0.218288C28.5521 0.363605 28.8734 0.57721 29.1442 0.846871C29.415 1.11661 29.63 1.4371 29.7768 1.79C29.9236 2.14289 29.9995 2.52128 29.9999 2.90351V27.0908C30.0002 27.4736 29.9249 27.8525 29.7784 28.2061C29.6319 28.5596 29.417 28.8808 29.1462 29.1511C28.8753 29.4214 28.5538 29.6355 28.2 29.7812C27.8463 29.9268 27.4672 30.0012 27.0846 30H27.0846ZM3.10547 2.14287C2.97963 2.14167 2.8548 2.1654 2.73818 2.21269C2.62156 2.25997 2.51545 2.32988 2.42597 2.41837C2.33648 2.50689 2.26539 2.61224 2.21679 2.72836C2.1682 2.84448 2.14306 2.96906 2.14283 3.09494V26.9032C2.14307 27.0292 2.1682 27.1539 2.21678 27.2701C2.26536 27.3863 2.33643 27.4918 2.4259 27.5805C2.51535 27.6691 2.62143 27.7392 2.73806 27.7866C2.85469 27.8341 2.97955 27.8581 3.10547 27.8571H26.8944C27.0204 27.8581 27.1452 27.8341 27.2619 27.7866C27.3785 27.7392 27.4846 27.6691 27.574 27.5805C27.6635 27.4918 27.7346 27.3863 27.7831 27.2701C27.8317 27.1539 27.8569 27.0292 27.8571 26.9032V3.09494C27.8569 2.96906 27.8317 2.84448 27.7831 2.72836C27.7345 2.61224 27.6634 2.50689 27.5739 2.41837C27.4845 2.32988 27.3784 2.25997 27.2617 2.21269C27.1451 2.1654 27.0203 2.14167 26.8944 2.14287H3.10544H3.10547ZM10.1383 23.1071C9.97969 23.1078 9.82382 23.0662 9.68664 22.9867C9.53277 22.9053 9.40408 22.7835 9.31452 22.6342C9.22495 22.485 9.17793 22.3141 9.17854 22.14V7.89408C9.18015 7.72135 9.22764 7.55216 9.31615 7.40382C9.40466 7.25549 9.53101 7.13335 9.68225 7.0499C9.83352 6.96644 10.0042 6.92468 10.177 6.92888C10.3497 6.93309 10.5182 6.98311 10.6652 7.07383L22.0125 14.1968C22.1508 14.2841 22.2648 14.405 22.3438 14.5483C22.4228 14.6916 22.4642 14.8525 22.4642 15.0161C22.4642 15.1797 22.4228 15.3407 22.3438 15.4839C22.2648 15.6272 22.1508 15.7481 22.0125 15.8355L10.6651 22.966C10.5058 23.0606 10.3235 23.1094 10.1382 23.1071H10.1383ZM11.1071 9.64286V20.3929L19.6785 15.0188L11.1071 9.64286Z" fill="#333333"/>
</g>
<defs>
<clipPath id="clip0_42_301">
<rect width="30" height="30" fill="white"/>
</clipPath>
</defs>
</svg>
