<svg width="30" height="30" viewBox="0 0 30 30" fill="none" xmlns="http://www.w3.org/2000/svg">
<g clip-path="url(#clip0_42_181)">
<path fill-rule="evenodd" clip-rule="evenodd" d="M27.753 6.70438e-06H1.15129H1.13137H1.0992V0.000720813C0.864956 0.00933941 0.6391 0.0901163 0.452523 0.232001L0.437562 0.243535C-0.0523521 0.627503 -0.1453 1.33495 0.232062 1.83286L4.99372 8.11547L0.232062 14.3981L0.222064 14.4115C-0.0772406 14.8185 -0.0739197 15.3748 0.232062 15.7785L4.98694 22.0521L0.240703 28.1558L0.229205 28.1708C-0.144872 28.6683 -0.0519234 29.3757 0.441275 29.7592C0.67102 29.9384 0.960699 30.0227 1.2507 29.9948H27.753L27.7903 29.9944C29.0196 29.9742 29.9947 28.9532 29.9947 27.7153V2.2795L29.9944 2.24204C29.9748 1.00854 28.9874 6.70438e-06 27.753 6.70438e-06ZM7.34813 8.79232C7.64743 8.38531 7.64411 7.82899 7.33817 7.42531L3.4425 2.28532H27.7094V27.7094H3.4827L7.32953 22.7625L7.33967 22.7493C7.64715 22.3418 7.64729 21.7788 7.33813 21.3709L2.57647 15.0883L7.33813 8.80567L7.34813 8.79232ZM14.911 7.85572H10.4624L13.9602 14.0132H10.9788V16.1665H15.1488V17.3453H10.9788V19.5278H15.1489V22.1389H19.202V19.5278H23.3038V17.3453H19.202V16.1665H23.3038V14.0132H20.4101L23.8104 7.85572H19.3472L17.1434 12.7131L14.911 7.85572Z" fill="#333333"/>
</g>
<defs>
<clipPath id="clip0_42_181">
<rect width="30" height="30" fill="white"/>
</clipPath>
</defs>
</svg>
