<svg width="30" height="30" viewBox="0 0 30 30" fill="none" xmlns="http://www.w3.org/2000/svg">
<g clip-path="url(#clip0_3410_29)">
<path d="M15 0C23.2843 0 30 6.71571 30 15C30 23.2843 23.2843 30 15 30C6.71571 30 0 23.2843 0 15C0 6.71571 6.71571 0 15 0ZM15 2.33011C8.00261 2.33011 2.33011 8.00261 2.33011 15C2.33011 21.9974 8.00261 27.6699 15 27.6699C21.9974 27.6699 27.6699 21.9974 27.6699 15C27.6699 8.00261 21.9974 2.33011 15 2.33011ZM15.2363 4.31214C15.6055 3.78518 16.332 3.65718 16.859 4.02632C18.6228 5.26183 20.0627 6.90428 21.0569 8.81453C22.0511 10.7248 22.5702 12.8465 22.5702 15C22.5702 17.1535 22.0511 19.2752 21.0569 21.1854C20.0627 23.0957 18.6228 24.7381 16.859 25.9736C16.332 26.3428 15.6055 26.2148 15.2363 25.6878C14.8672 25.1608 14.9951 24.4344 15.5221 24.0652C16.9791 23.0445 18.1687 21.6877 18.99 20.1097C19.8112 18.5317 20.2401 16.7789 20.2401 15C20.2401 13.2211 19.8112 11.4683 18.99 9.89029C18.1687 8.31227 16.9791 6.95546 15.5221 5.93482C14.9951 5.56564 14.8672 4.83914 15.2363 4.31214ZM11.8937 9.08204C12.2627 8.55486 12.9891 8.42654 13.5163 8.79543C14.514 9.49366 15.3286 10.4222 15.8911 11.5023C16.4536 12.5824 16.7473 13.7822 16.7473 15C16.7473 16.2178 16.4536 17.4176 15.8911 18.4977C15.3287 19.5778 14.514 20.5063 13.5163 21.2045C12.9891 21.5734 12.2627 21.4451 11.8937 20.918C11.5249 20.3908 11.6532 19.6644 12.1804 19.2954C12.8711 18.8121 13.4351 18.1692 13.8245 17.4215C14.2139 16.6737 14.4172 15.8431 14.4172 15C14.4172 14.1569 14.2138 13.3263 13.8245 12.5785C13.4351 11.8308 12.8711 11.1879 12.1804 10.7045C11.6532 10.3356 11.5249 9.60921 11.8937 9.08204ZM9.17511 13.2524C10.1403 13.2524 10.9227 14.0349 10.9227 15C10.9227 15.9651 10.1403 16.7476 9.17511 16.7476H9.17479C8.20961 16.7476 7.42718 15.9651 7.42718 15C7.42718 14.0349 8.20961 13.2524 9.17479 13.2524H9.17511Z" fill="black"/>
</g>
<defs>
<clipPath id="clip0_3410_29">
<rect width="30" height="30" fill="white"/>
</clipPath>
</defs>
</svg>
