<svg width="30" height="30" viewBox="0 0 30 30" fill="none" xmlns="http://www.w3.org/2000/svg">
<g clip-path="url(#clip0_42_236)">
<path d="M5.71429 4.28571H19.6429C20.2346 4.28571 20.7143 4.76539 20.7143 5.35714C20.7143 5.94889 20.2346 6.42857 19.6429 6.42857H5.71429C5.12254 6.42857 4.64286 5.94889 4.64286 5.35714C4.64286 4.76539 5.12254 4.28571 5.71429 4.28571ZM5.71429 10H19.6429C20.2346 10 20.7143 10.4797 20.7143 11.0714C20.7143 11.6632 20.2346 12.1429 19.6429 12.1429H5.71429C5.12254 12.1429 4.64286 11.6632 4.64286 11.0714C4.64286 10.4797 5.12254 10 5.71429 10ZM5.71429 15.7143H12.1429C12.7346 15.7143 13.2143 16.194 13.2143 16.7857C13.2143 17.3775 12.7346 17.8571 12.1429 17.8571H5.71429C5.12254 17.8571 4.64286 17.3775 4.64286 16.7857C4.64286 16.194 5.12254 15.7143 5.71429 15.7143ZM5.71429 21.4286H12.1429C12.7346 21.4286 13.2143 21.9082 13.2143 22.5C13.2143 23.0917 12.7346 23.5714 12.1429 23.5714H5.71429C5.12254 23.5714 4.64286 23.0917 4.64286 22.5C4.64286 21.9082 5.12254 21.4286 5.71429 21.4286ZM2.28571 2.28571V27.7143H13.0314V30H1.90475C0.852786 30 0 29.2325 0 28.2857V1.71429C0 0.7675 0.852786 0 1.90475 0H23.8095C24.8615 0 25.7143 0.7675 25.7143 1.71429V13.2207H23.4286V2.28571H2.28571ZM22.5 27.8571C25.4587 27.8571 27.8571 25.4587 27.8571 22.5C27.8571 19.5413 25.4587 17.1429 22.5 17.1429C19.5413 17.1429 17.1429 19.5413 17.1429 22.5C17.1429 25.4587 19.5413 27.8571 22.5 27.8571ZM22.5 30C18.3579 30 15 26.6421 15 22.5C15 18.3579 18.3579 15 22.5 15C26.6421 15 30 18.3579 30 22.5C30 26.6421 26.6421 30 22.5 30ZM23.3571 22.0337V25.5714C23.3571 26.0448 22.9734 26.4286 22.5 26.4286C22.0266 26.4286 21.6429 26.0448 21.6429 25.5714V22.0337H19.8571C19.6599 22.0337 19.5 21.8738 19.5 21.6765C19.5 21.5831 19.5366 21.4934 19.602 21.4267L22.2576 18.7144C22.2908 18.6805 22.3305 18.6535 22.3743 18.6351C22.4182 18.6166 22.4652 18.6072 22.5127 18.6072C22.5603 18.6072 22.6073 18.6166 22.6512 18.6351C22.695 18.6535 22.7347 18.6805 22.7679 18.7144L25.4236 21.4267C25.5616 21.5676 25.5592 21.7937 25.4182 21.9317C25.3515 21.9971 25.2618 22.0337 25.1684 22.0337H23.3571Z" fill="#333333"/>
</g>
<defs>
<clipPath id="clip0_42_236">
<rect width="30" height="30" fill="white"/>
</clipPath>
</defs>
</svg>
