<svg width="30" height="30" viewBox="0 0 30 30" fill="none" xmlns="http://www.w3.org/2000/svg">
<path d="M20.9169 7.36771H20.1769V5.58644H22.158C22.7908 5.58644 23.3039 5.0734 23.3039 4.44049V1.14592C23.3039 0.513043 22.7908 3.34966e-08 22.158 0H7.33233C6.69945 0 6.18641 0.513043 6.18641 1.14592V4.44049C6.18641 5.07337 6.69945 5.58644 7.33233 5.58644H9.31504V7.36771H8.5734C6.0476 7.36771 4 9.41531 4 11.9411V25.4266C4 27.9524 6.0476 30 8.5734 30H20.9169C23.4427 30 25.4903 27.9524 25.4903 25.4266V11.9411C25.4903 9.41527 23.4427 7.36771 20.9169 7.36771ZM7.90143 1.71499H21.5889V3.87142H7.90143V1.71499ZM11.6017 5.58644H17.8902V7.36771H11.6017V5.58644ZM23.2036 25.4266C23.2036 26.6875 22.1778 27.7133 20.9169 27.7133H8.5734C7.3125 27.7133 6.2867 26.6875 6.2867 25.4266V24.7899H15.3427C16.0616 24.7899 16.6443 24.2071 16.6443 23.4884V13.8079C16.6443 13.0891 16.0616 12.5064 15.3427 12.5064H6.2867V11.9411C6.2867 10.6802 7.3125 9.65441 8.5734 9.65441H20.9169C22.1778 9.65441 23.2036 10.6802 23.2036 11.9411V25.4266ZM14.3636 17.2245V19.1769H11.7198V21.78H9.76741V19.1769H7.1236V17.2245H9.76741V14.5401H11.7198V17.2245H14.3636Z" fill="#333333"/>
</svg>
