<svg width="30" height="30" viewBox="0 0 30 30" fill="none" xmlns="http://www.w3.org/2000/svg">
<g clip-path="url(#clip0_42_276)">
<path d="M15 30C6.91298 30 0.35716 23.4442 0.35716 15.3572C0.35716 7.27012 6.91298 0.714303 15 0.714303C23.087 0.714303 29.6429 7.27012 29.6429 15.3572C29.6429 23.4442 23.087 30 15 30ZM15 27.7143C21.8246 27.7143 27.3571 22.1818 27.3571 15.3572C27.3571 8.53251 21.8246 3.00002 15 3.00002C8.17537 3.00002 2.64287 8.53251 2.64287 15.3572C2.64287 22.1818 8.17537 27.7143 15 27.7143ZM28.9583 6.07144L23.9286 1.0417C25.3175 -0.347232 27.5694 -0.347232 28.9583 1.0417C30.3473 2.43062 30.3473 4.68252 28.9583 6.07144ZM1.0417 6.07144C-0.347232 4.68252 -0.347232 2.43062 1.0417 1.0417C2.43062 -0.347232 4.68252 -0.347232 6.07144 1.0417L1.0417 6.07144ZM12.5472 20.9107L6.33476 14.6982C5.88844 14.2519 5.88844 13.5283 6.33476 13.082C6.78105 12.6357 7.50469 12.6357 7.95098 13.082L13.3553 18.4863L22.0426 9.79901C22.4889 9.35269 23.2125 9.35269 23.6589 9.79901C24.1052 10.2453 24.1052 10.9689 23.6589 11.4152L14.1634 20.9107C13.7171 21.357 12.9935 21.357 12.5472 20.9107Z" fill="#333333"/>
</g>
<defs>
<clipPath id="clip0_42_276">
<rect width="30" height="30" fill="white"/>
</clipPath>
</defs>
</svg>
