<svg width="30" height="30" viewBox="0 0 30 30" fill="none" xmlns="http://www.w3.org/2000/svg">
<path fill-rule="evenodd" clip-rule="evenodd" d="M7.10967 25.993H22.553C26.4338 26.0099 29.6713 23.0663 29.9763 19.2435C30.2813 15.4215 27.5505 12.0134 23.7155 11.4295C23.1197 6.962 19.1155 3.71965 14.5655 4.01918C10.0155 4.31955 6.483 8.05942 6.493 12.565C2.7405 12.7334 -0.163667 15.8759 0.00716651 19.5836C0.176333 23.2922 3.35717 26.1606 7.10967 25.993ZM22.553 23.5511H8.01133L8.01217 23.552C7.87717 23.5291 7.73883 23.5291 7.60383 23.552H7.12217C4.73383 23.552 2.798 21.638 2.798 19.279C2.798 16.9192 4.73383 15.0061 7.12217 15.0061C8.57903 15.0061 8.963 13.786 8.963 12.8214V12.565C8.963 9.19407 11.7288 6.46109 15.1405 6.46109C18.5522 6.46109 21.3172 9.19407 21.3172 12.565C21.3176 12.7262 21.3499 12.8856 21.4122 13.0339C21.4745 13.1821 21.5654 13.3162 21.6797 13.4281C21.9113 13.6574 22.2255 13.786 22.553 13.786C24.3188 13.7851 25.9497 14.7159 26.833 16.2271C27.2663 16.9654 27.4951 17.809 27.4951 18.6685C27.4951 19.5281 27.2663 20.3716 26.833 21.11C25.9505 22.6204 24.3188 23.5511 22.553 23.5511ZM15 21C17.2091 21 19 19.2091 19 17C19 14.7909 17.2091 13 15 13C12.7909 13 11 14.7909 11 17C11 19.2091 12.7909 21 15 21Z" fill="#333333"/>
</svg>
