<svg width="30" height="30" viewBox="0 0 30 30" fill="none" xmlns="http://www.w3.org/2000/svg">
<g clip-path="url(#clip0_42_218)">
<path d="M23.6674 0C27.1298 0 29.9432 2.78139 29.9991 6.23346L30 6.33829V23.6617C30 27.1272 27.2212 29.9432 23.7721 29.9991L23.6674 30H21.3452C20.6457 30 20.0787 29.4325 20.0787 28.7324C20.0787 28.0393 20.6344 27.4761 21.3242 27.465L21.3452 27.4648H23.6674C25.7448 27.4648 27.4329 25.796 27.4664 23.7246L27.4669 23.6617V6.33829C27.4669 4.259 25.7996 2.56932 23.7302 2.53571L23.6674 2.53521H15.118C14.4185 2.53521 13.8515 1.96771 13.8515 1.26761C13.8515 0.574536 14.4073 0.0113571 15.0971 0.000178558L15.118 0H23.6674ZM12.765 5.4425L15.7429 22.3249C16.3597 25.8214 14.0242 29.1556 10.5265 29.7721C7.02881 30.3886 3.69336 28.054 3.07664 24.5575L0.0987775 7.67511C-0.517974 4.17864 1.81752 0.844393 5.31521 0.227857C8.81287 -0.388679 12.1483 1.94596 12.765 5.44243L12.765 5.4425ZM11.8161 13.2255L3.65338 14.6642L5.32843 24.1606C5.72589 26.4139 7.87536 27.9185 10.1294 27.5211C12.361 27.1278 13.8584 25.0179 13.5025 22.7894L13.4911 22.7218L11.8161 13.2255H11.8161ZM24.8555 21.8571C25.329 21.8571 25.7128 22.2407 25.7128 22.7143C25.7128 23.183 25.3362 23.5637 24.8697 23.5713L24.8555 23.5714H20.1392C19.6658 23.5714 19.282 23.1878 19.282 22.7143C19.282 22.2456 19.6585 21.8648 20.1251 21.8573L20.1392 21.8571H24.8555ZM24.9547 16.7143C25.3733 16.7143 25.7128 17.0979 25.7128 17.5714C25.7128 18.04 25.3801 18.4209 24.9672 18.4285L24.9547 18.4286H17.8964C17.4778 18.4286 17.1384 18.0449 17.1384 17.5714C17.1384 17.1027 17.471 16.722 17.8839 16.7144L17.8964 16.7143H24.9547ZM24.9981 11.5714C25.3928 11.5714 25.7128 11.9551 25.7128 12.4286C25.7128 12.8973 25.3991 13.278 25.0099 13.2856L24.9981 13.2857H15.7094C15.3147 13.2857 14.9947 12.9021 14.9947 12.4286C14.9947 11.96 15.3084 11.5791 15.6976 11.5715L15.7094 11.5714H24.9981H24.9981ZM24.9193 6.42857C25.3575 6.42857 25.7128 6.81225 25.7128 7.28571C25.7128 7.75432 25.3648 8.13518 24.9324 8.14275L24.9193 8.14286H15.7883C15.35 8.14286 14.9947 7.75918 14.9947 7.28571C14.9947 6.81711 15.3428 6.43625 15.7752 6.42868L15.7883 6.42857H24.9193Z" fill="#333333"/>
</g>
<defs>
<clipPath id="clip0_42_218">
<rect width="30" height="30" fill="white"/>
</clipPath>
</defs>
</svg>
