<svg width="30" height="30" viewBox="0 0 30 30" fill="none" xmlns="http://www.w3.org/2000/svg">
<path d="M26.8571 0C28.5755 0 29.9718 1.37911 29.9996 3.09089L30 3.14286V22.5714C30 24.2898 28.6209 25.6861 26.9091 25.7139L26.8571 25.7143H21.5V26.5714C21.5 28.4461 19.9955 29.9693 18.1281 29.9995L18.0714 30H3.42857C1.55393 30 0.0307144 28.4955 0.000464405 26.6281L0 26.5714V7.75C0 5.87536 1.50446 4.35214 3.37186 4.32189L3.42857 4.32143H18.0714C19.9461 4.32143 21.4693 5.82589 21.4995 7.69329L21.4999 7.73621L21.5358 10.7005C21.5432 11.3316 21.0377 11.8494 20.4066 11.8571C19.7818 11.8646 19.2681 11.3693 19.2505 10.747L19.2501 10.728L19.2143 7.75693V7.75C19.2143 7.12514 18.7128 6.61739 18.0904 6.60729L18.0714 6.60714H3.42857C2.80371 6.60714 2.29596 7.10864 2.28586 7.73107L2.28571 7.75V26.5714C2.28571 27.1963 2.78721 27.704 3.40964 27.7141L3.42857 27.7143H18.0714C18.6963 27.7143 19.204 27.2128 19.2141 26.5904L19.2143 26.5714V21.3897C19.2143 20.7585 19.726 20.2469 20.3571 20.2469C20.982 20.2469 21.4897 20.7483 21.4999 21.3708L21.5 21.3897V23.4286H26.8571C27.3258 23.4286 27.7066 23.0525 27.7142 22.5856L27.7143 22.5714V3.14286C27.7143 2.67421 27.3382 2.29339 26.8713 2.28582L26.8571 2.28571H13.8571C13.3885 2.28571 13.0077 2.66182 13.0001 3.12868L13 3.14286V4.28571H10.7143V3.14286C10.7143 1.42446 12.0934 0.0281786 13.8052 0.000428643L13.8571 0H26.8571ZM8.57143 11.4286C8.98539 11.4286 9.32179 11.7629 9.32846 12.1779L9.32857 12.1905V14.9571H12.0953C12.516 14.9571 12.8571 15.2961 12.8571 15.7143C12.8571 16.1282 12.5228 16.4646 12.1079 16.4713L12.0953 16.4714H9.32857V19.2381C9.32857 19.6589 8.98957 20 8.57143 20C8.15746 20 7.82107 19.6657 7.81439 19.2507L7.81429 19.2381V16.4714H5.04761C4.62682 16.4714 4.28571 16.1324 4.28571 15.7143C4.28571 15.3003 4.62004 14.9639 5.035 14.9572L5.04761 14.9571H7.81429V12.1905C7.81429 11.7697 8.15329 11.4286 8.57143 11.4286ZM23.8571 14.5714C24.4883 14.5714 25 15.0831 25 15.7143C25 16.3455 24.4883 16.8571 23.8571 16.8571C23.226 16.8571 22.7143 16.3455 22.7143 15.7143C22.7143 15.0831 23.226 14.5714 23.8571 14.5714ZM19.7857 14.5714C20.4169 14.5714 20.9286 15.0831 20.9286 15.7143C20.9286 16.3455 20.4169 16.8571 19.7857 16.8571C19.1545 16.8571 18.6429 16.3455 18.6429 15.7143C18.6429 15.0831 19.1545 14.5714 19.7857 14.5714ZM15.7143 14.5714C16.3455 14.5714 16.8571 15.0831 16.8571 15.7143C16.8571 16.3455 16.3455 16.8571 15.7143 16.8571C15.0831 16.8571 14.5714 16.3455 14.5714 15.7143C14.5714 15.0831 15.0831 14.5714 15.7143 14.5714Z" fill="#333333"/>
</svg>
