<svg width="30" height="30" viewBox="0 0 30 30" fill="none" xmlns="http://www.w3.org/2000/svg">
<path d="M28.8571 27.7103C29.4883 27.7103 30 28.2219 30 28.8531V28.8542C30 29.4854 29.4883 29.9971 28.8571 29.9971H1.14286C0.511678 29.9971 0 29.4854 0 28.8542V28.8531C0 28.2219 0.511678 27.7103 1.14286 27.7103H28.8571ZM17.7314 0.589304L28.2275 11.0854C29.0135 11.8714 29.0132 13.1461 28.2268 13.9324L15.0561 27.1032C14.2697 27.8896 12.995 27.8898 12.209 27.1038L1.71296 16.6078C0.926964 15.8218 0.92725 14.5471 1.71368 13.7607L14.8844 0.590018C15.6708 -0.196411 16.9455 -0.196696 17.7315 0.589304H17.7314ZM6.96354 11.3573L3.13686 15.1839L13.6329 25.68L17.4595 21.8533L6.96346 11.3573H6.96354ZM16.3076 2.0132L8.38736 9.93345L18.8834 20.4295L26.8036 12.5092L16.3076 2.01312L16.3076 2.0132Z" fill="#333333"/>
</svg>
