<svg xmlns="http://www.w3.org/2000/svg" width="30" height="30" viewBox="0 0 30 30" fill="none">
  <path d="M 22.939 24.551 C 20.51 26.613 17.365 27.857 13.929 27.857 C 6.236 27.857 0 21.621 0 13.929 C 0 6.236 6.236 0 13.929 0 C 21.621 0 27.857 6.236 27.857 13.929 C 27.857 17.365 26.613 20.51 24.551 22.939 L 29.666 28.055 C 30.111 28.5 30.111 29.221 29.666 29.666 C 29.221 30.111 28.5 30.111 28.055 29.666 L 22.939 24.551 Z M 13.929 25.571 C 20.359 25.571 25.571 20.359 25.571 13.929 C 25.571 7.498 20.359 2.286 13.929 2.286 C 7.498 2.286 2.286 7.498 2.286 13.929 C 2.286 20.359 7.498 25.571 13.929 25.571 Z" fill="currentColor" fill-rule="nonzero"/>
</svg>
