<svg width="30" height="30" viewBox="0 0 30 30" fill="none" xmlns="http://www.w3.org/2000/svg">
<path fill-rule="evenodd" clip-rule="evenodd" d="M13.41 5.65861L5.65861 13.41C4.78046 14.2881 4.78046 15.7119 5.65861 16.59L13.41 24.3414C14.2881 25.2195 15.7119 25.2195 16.59 24.3414L24.3414 16.59C25.2195 15.7119 25.2195 14.2881 24.3414 13.41L16.59 5.65861C15.7119 4.78046 14.2881 4.78046 13.41 5.65861ZM7.67489 20.5993C8.00963 20.2646 8.55234 20.2646 8.88707 20.5993C9.22181 20.934 9.22181 21.4768 8.88707 21.8115L8.69252 22.006C8.03391 22.6647 6.96609 22.6647 6.30748 22.006L0.493957 16.1925C-0.164652 15.5339 -0.164652 14.4661 0.493957 13.8075L6.30748 7.99396C6.96609 7.33535 8.03391 7.33535 8.69252 7.99396L8.88707 8.18851C9.22181 8.52325 9.22181 9.06596 8.88707 9.4007C8.55234 9.73543 8.00963 9.73543 7.67489 9.4007L7.5 9.22581L1.72581 15L7.5 20.7742L7.67489 20.5993ZM21.1129 21.8115C20.7782 21.4768 20.7782 20.934 21.1129 20.5993C21.4477 20.2646 21.9904 20.2646 22.3251 20.5993L22.5 20.7742L28.2742 15L22.5 9.22581L22.3251 9.4007C21.9904 9.73543 21.4477 9.73543 21.1129 9.4007C20.7782 9.06596 20.7782 8.52325 21.1129 8.18851L21.3075 7.99396C21.9661 7.33535 23.0339 7.33535 23.6925 7.99396L29.506 13.8075C30.1647 14.4661 30.1647 15.5339 29.506 16.1925L23.6925 22.006C23.0339 22.6647 21.9661 22.6647 21.3075 22.006L21.1129 21.8115Z" fill="#333333"/>
</svg>
