<svg width="30" height="30" viewBox="0 0 30 30" fill="none" xmlns="http://www.w3.org/2000/svg">
<g clip-path="url(#clip0_42_213)">
<path d="M13.0782 0C13.6591 2.79854e-07 14.2291 0.157412 14.7277 0.455498C15.2262 0.753585 15.6347 1.1812 15.9096 1.69289L16.1503 2.07179C16.1534 2.07168 16.1565 2.07164 16.1597 2.07157L16.1786 2.07143H23.5714C25.9537 2.07143 27.8895 3.98336 27.928 6.35654L27.9286 6.42857L27.9286 7.51664C29.1396 7.97743 30 9.14914 30 10.5218V26.7857C30 28.5609 28.5609 30 26.7857 30H3.21429C1.43907 30 0 28.5609 0 26.7857V3.21429C0 1.43907 1.43907 0 3.21429 0H13.0782ZM13.0939 2.28571H3.21429C2.70657 2.28571 2.29404 2.69318 2.28571 3.19893V26.7857C2.28571 27.2934 2.69318 27.706 3.19893 27.7143H26.7857C27.2934 27.7143 27.706 27.3068 27.7143 26.8011V10.5218C27.7143 10.0141 27.3068 9.60154 26.8011 9.59336L26.7857 9.59321H21.2321C19.2272 9.59321 17.383 8.5025 16.4162 6.74982L16.3872 6.6965L13.8961 2.77479C13.818 2.62933 13.7024 2.50734 13.5615 2.42137C13.4205 2.33541 13.2591 2.28858 13.094 2.28571H13.0939ZM14.8276 12.6442C14.9556 12.6542 15.0676 12.7357 15.12 12.8559L15.1244 12.8663L19.4018 23.4647C19.4238 23.5196 19.4325 23.5789 19.4269 23.6378C19.4214 23.6966 19.4018 23.7533 19.3699 23.8031C19.3073 23.9001 19.2033 23.9599 19.0908 23.9641L19.0795 23.9643H4.63618C4.50625 23.9644 4.38696 23.8904 4.32625 23.7719C4.29739 23.7153 4.28353 23.6523 4.28599 23.5889C4.28846 23.5254 4.30716 23.4637 4.34032 23.4095L4.34682 23.3994L7.47379 18.6757C7.54071 18.5749 7.65239 18.5264 7.772 18.5184C7.88714 18.5209 7.99339 18.582 8.05618 18.6809L8.06211 18.6906L9.54371 21.1822L14.5012 12.8164C14.5691 12.6992 14.6959 12.6324 14.8277 12.6442H14.8276ZM24.9864 18.9286C25.3886 18.9286 25.7143 19.2162 25.7143 19.5714C25.7143 19.9266 25.3886 20.2143 24.9864 20.2143H20.1564C19.7543 20.2143 19.4286 19.9266 19.4286 19.5714C19.4286 19.2162 19.7543 18.9286 20.1564 18.9286H24.9864ZM24.9922 16.3929C25.3912 16.3929 25.7143 16.6805 25.7143 17.0357C25.7143 17.3909 25.3912 17.6786 24.9922 17.6786H18.8649C18.466 17.6786 18.1429 17.3909 18.1429 17.0357C18.1429 16.6805 18.466 16.3929 18.8649 16.3929H24.9922ZM24.9321 13.8571C25.3642 13.8571 25.7143 14.1448 25.7143 14.5C25.7143 14.8552 25.3643 15.1429 24.9321 15.1429H21.4607C21.0286 15.1429 20.6786 14.8552 20.6786 14.5C20.6786 14.1448 21.0286 13.8571 21.4607 13.8571H24.9321H24.9321ZM7.42846 8.82143C9.16154 8.82143 10.5714 10.231 10.5714 11.9643C10.5714 13.6976 9.16214 15.1071 7.42846 15.1071C5.69539 15.1071 4.28571 13.6976 4.28571 11.9643C4.28571 10.231 5.69539 8.82143 7.42846 8.82143ZM23.5714 4.35714H17.6019L18.4007 5.61464C18.6756 6.12633 19.0841 6.55394 19.5827 6.85202C20.0812 7.1501 20.6512 7.3075 21.2321 7.3075H25.6429V6.42857C25.6429 5.296 24.7339 4.37571 23.6057 4.35743L23.5714 4.35714Z" fill="#333333"/>
</g>
<defs>
<clipPath id="clip0_42_213">
<rect width="30" height="30" fill="white"/>
</clipPath>
</defs>
</svg>
