<svg width="30" height="30" viewBox="0 0 30 30" fill="none" xmlns="http://www.w3.org/2000/svg">
<path fill-rule="evenodd" clip-rule="evenodd" d="M21.2858 10.6326H26.5487C27.1802 10.6326 27.6922 11.1445 27.6922 11.7761V28.8565C27.6922 29.488 27.1802 30 26.5487 30H6.57142C4.04669 30 2 27.9533 2 25.4286V4.57142C2 2.04669 4.04669 0 6.57142 0H16.7143C19.2391 0 21.2858 2.04669 21.2858 4.57142V10.6326ZM14.864 27.7131H15.3285H16.7143C16.8245 27.713 16.9346 27.7049 17.0437 27.689C18.1478 27.5288 18.9988 26.5764 18.9988 25.4286V4.57142C18.9988 3.31175 17.974 2.28693 16.7143 2.28693H6.57142C5.31175 2.28693 4.28693 3.31175 4.28693 4.57142V25.4286C4.28693 26.6882 5.31175 27.7131 6.57142 27.7131H8.43198V23.6038H14.864V27.7131ZM24.2975 28.2848H25.977V12.3478H21.2858V25.4286C21.2858 26.5093 20.9105 27.5023 20.2834 28.2848H22.5823V23.6038H24.2975V28.2848ZM12.8272 7.39678H14.8997V9.6837H12.8272V11.7562H10.5402V9.6837H8.46771V7.39678H10.5402V5.32425H12.8272V7.39678ZM14.864 14.1146H8.43198V15.8298H14.864V14.1146ZM14.864 18.4026H8.43198V20.1178H14.864V18.4026ZM24.2975 14.1702H22.5823V15.8854H24.2975V14.1702ZM24.2975 18.4582H22.5823V20.1734H24.2975V18.4582Z" fill="#333333"/>
</svg>
