<svg width="30" height="30" viewBox="0 0 30 30" fill="none" xmlns="http://www.w3.org/2000/svg">
<g clip-path="url(#clip0_42_144)">
<path d="M15 0C17.8837 0 20.6452 0.817107 23.0162 2.31936L23.941 1.42632C24.395 0.987857 25.1185 1.0005 25.557 1.45454C25.6897 1.592 25.7859 1.76056 25.8366 1.94479L27.1674 6.77325C27.335 7.38175 26.9777 8.011 26.3692 8.17868C26.1574 8.23705 25.9333 8.23314 25.7236 8.16743L20.9445 6.66903C20.3423 6.48021 20.0071 5.83889 20.196 5.23661C20.2531 5.05427 20.3551 4.88917 20.4926 4.75643L21.3152 3.96196C19.4172 2.87321 17.2543 2.28571 15 2.28571C7.97811 2.28571 2.28571 7.97811 2.28571 15C2.28571 22.0219 7.97811 27.7143 15 27.7143C18.8946 27.7143 22.4979 25.9537 24.8983 22.9806C24.9374 22.9321 24.9762 22.8833 25.0147 22.8342C25.404 22.3374 26.1223 22.2501 26.6191 22.6394C27.116 23.0287 27.2032 23.747 26.8139 24.2439C26.7686 24.3018 26.7229 24.3592 26.6767 24.4164C23.8469 27.9214 19.5929 30 15 30C6.71571 30 0 23.2843 0 15C0 6.71571 6.71571 0 15 0ZM27.6786 19.4643C28.3097 19.4643 28.8214 19.976 28.8214 20.6071C28.8214 21.2383 28.3097 21.75 27.6786 21.75C27.0474 21.75 26.5357 21.2383 26.5357 20.6071C26.5357 19.976 27.0474 19.4643 27.6786 19.4643ZM28.6786 16.1071C29.3097 16.1071 29.8214 16.6188 29.8214 17.25C29.8214 17.8812 29.3097 18.3929 28.6786 18.3929C28.0474 18.3929 27.5357 17.8812 27.5357 17.25C27.5357 16.6188 28.0474 16.1071 28.6786 16.1071ZM28.8571 12.75C29.4883 12.75 30 13.2617 30 13.8929C30 14.524 29.4883 15.0357 28.8571 15.0357C28.226 15.0357 27.7143 14.524 27.7143 13.8929C27.7143 13.2617 28.226 12.75 28.8571 12.75Z" fill="#333333"/>
</g>
<defs>
<clipPath id="clip0_42_144">
<rect width="30" height="30" fill="white"/>
</clipPath>
</defs>
</svg>
