<svg width="30" height="30" viewBox="0 0 30 30" fill="none" xmlns="http://www.w3.org/2000/svg">
<g clip-path="url(#clip0_45_67)">
<path fill-rule="evenodd" clip-rule="evenodd" d="M0.09375 0H17.2223L30.0938 12.8714V30L0.09375 0ZM19.3713 7.43446C19.3595 6.84654 19.3062 6.21718 19.2115 5.54636L18.5841 5.57004C18.6433 6.37893 18.667 7.00239 18.6551 7.44039C18.8643 7.43643 19.103 7.43446 19.3713 7.43446ZM17.6963 8.70704C17.6213 7.95336 17.5404 7.33582 17.4536 6.85443L16.8202 6.89586C16.8794 7.33386 16.9268 7.94939 16.9623 8.74254C17.1399 8.73861 17.3845 8.72675 17.6963 8.70704ZM10.0787 7.88429L12.5528 5.41021C12.2884 6.79129 12.4166 8.26111 12.9375 9.81979C13.2058 9.77243 13.4623 9.73693 13.7069 9.71325C13.0638 8.20986 12.8487 6.71636 13.0618 5.23268L15.524 7.69493L15.962 7.25693L13.3341 4.62896L14.4468 3.51621L16.7492 5.81864L17.1872 5.38064L14.8848 3.07821L15.8969 2.06607L15.4352 1.60439L14.4231 2.6165L12.1444 0.33775L11.7064 0.77575L13.9851 3.05446L12.8724 4.16721L10.2444 1.53925L9.80639 1.97725L12.2509 4.42175C10.8383 4.59143 9.31514 4.42175 7.68154 3.91275C7.66182 4.20868 7.63618 4.44743 7.60461 4.62893C9.19678 5.04129 10.6903 5.14979 12.0852 4.95446L9.61704 7.42261L10.0787 7.88429ZM16.2816 9.09175C15.1965 9.71129 14.1923 10.2341 13.2689 10.6602L13.6004 11.3469C14.6579 10.7629 15.6424 10.2321 16.5539 9.75468C16.459 9.53543 16.3682 9.31442 16.2816 9.09175ZM15.2103 11.4297L14.7605 11.8795L19.1641 16.2833L19.614 15.8334L17.6963 13.9157L19.3772 12.2348L20.9161 13.7737L21.366 13.3239L19.8271 11.7849L21.2594 10.3526L23.0114 12.1046L23.4613 11.6547L21.4755 9.66893L22.0821 9.80211C22.165 9.41143 22.2281 8.93007 22.2715 8.35789L21.6323 8.21582C21.583 8.65182 21.5041 9.10954 21.3956 9.589L19.5075 7.70086L19.0576 8.15068L20.7622 9.85529L19.3299 11.2876L17.791 9.74875L17.3411 10.1986L18.88 11.7375L17.1991 13.4184L15.2103 11.4297ZM27.8471 19.7457L28.2851 19.3077L27.6517 18.6744L29.7706 16.5554L27.8174 14.6022L25.6985 16.7212L24.9468 15.9695L27.0657 13.8505L25.148 11.9328L23.0291 14.0518L22.449 13.4717L22.011 13.9097L22.591 14.4898L22.1235 14.9574C21.2554 15.8255 20.336 16.3621 19.3653 16.5673C19.4008 16.8159 19.4087 17.0448 19.389 17.2539C20.4859 17.0566 21.5631 16.4292 22.6206 15.3717L23.0468 14.9455L24.0589 15.9577L22.0643 17.9524C21.8867 18.1299 21.7151 18.1358 21.5493 17.9701C21.3796 17.8004 21.2001 17.5933 21.0107 17.3486C20.8687 17.5696 20.7464 17.7432 20.6437 17.8695C20.8292 18.0786 21.0285 18.2897 21.2415 18.5028C21.6322 18.8934 22.0248 18.8915 22.4194 18.4969L24.5088 16.4075L25.2605 17.1592L24.8876 17.5321C23.976 18.4436 23.0231 19.0098 22.0287 19.2308C22.0564 19.4952 22.0662 19.726 22.0584 19.9233C23.2066 19.6669 24.3075 19.0118 25.3611 17.9583L25.7103 17.6091L26.7639 18.6626L24.568 20.8585C24.3865 21.04 24.2089 21.0439 24.0353 20.8703C23.8616 20.6967 23.6446 20.4521 23.3842 20.1364C23.2461 20.3534 23.1257 20.5251 23.0232 20.6513C23.2442 20.896 23.4908 21.1544 23.763 21.4267C24.1419 21.8055 24.5365 21.7897 24.9468 21.3794L27.2138 19.1124L27.8471 19.7457ZM25.189 12.803L23.4844 14.5077L24.4964 15.5198L26.2011 13.8152L25.189 12.803ZM27.8523 15.4662L26.1477 17.1708L27.2012 18.2244L28.9059 16.5197L27.8523 15.4662Z" fill="#FFCC00"/>
</g>
<defs>
<clipPath id="clip0_45_67">
<rect width="30" height="30" fill="white"/>
</clipPath>
</defs>
</svg>
