<svg width="30" height="30" viewBox="0 0 30 30" fill="none" xmlns="http://www.w3.org/2000/svg">
<g clip-path="url(#clip0_45_69)">
<path d="M17.1285 0.00012207L30 12.8716V30.0001L-7.62939e-06 0.00012207H17.1286H17.1285ZM12.4679 1.72894L9.64653 4.55026C9.07503 5.12176 9.06599 5.68419 9.61938 6.23762L12.5058 9.12405C13.005 9.62323 13.5132 9.72269 14.0305 9.42248C14.3126 9.25609 14.6671 9.01012 15.0939 8.68462C14.9709 8.46755 14.8696 8.25776 14.79 8.05523C14.3885 8.39162 14.0449 8.63755 13.7592 8.79309C13.4698 8.95226 13.1696 8.8763 12.8585 8.56523L10.1837 5.89041C9.86899 5.57569 9.87803 5.25198 10.2108 4.91919L11.7897 3.34034L15.0342 6.58487L14.7032 6.91584L15.159 7.37159L17.6873 4.84326L13.3197 0.475622L12.9182 0.877122L16.8301 4.78898L15.4357 6.18337L12.1912 2.93884L12.9345 2.19555L12.4679 1.72894H12.4679ZM20.6768 9.67748L20.1451 9.14576C18.796 9.13491 17.398 8.8148 15.9511 8.18541C15.9366 8.38076 15.9023 8.59598 15.848 8.83109C16.4702 9.06259 17.0742 9.25066 17.6602 9.39537L17.3455 9.71001L19.8793 12.2438L20.1668 11.9562C20.3115 12.5205 20.5177 13.0776 20.7854 13.6273C21.006 13.5731 21.2484 13.5261 21.5124 13.4863C20.789 12.2709 20.4381 11.0086 20.4598 9.69919L20.6768 9.67748H20.6768ZM14.3777 10.2363L13.9925 10.6216L18.9732 15.6023L19.3584 15.2171L18.0128 13.8715C18.6897 13.7048 19.3643 13.5294 20.0366 13.3452L19.8413 12.7158C19.1613 12.9835 18.4053 13.2222 17.5734 13.432L14.3777 10.2363ZM19.9281 6.34619C19.0636 6.64641 18.2208 6.78384 17.3997 6.75851C17.3962 6.97194 17.3817 7.17087 17.3563 7.35534C17.8736 7.36619 18.427 7.31194 19.0166 7.19259L20.8125 8.98844L21.176 8.62494L19.6026 7.05152C19.8689 6.97991 20.1331 6.90031 20.3947 6.8128L19.9281 6.34619ZM22.2937 8.71177C21.6932 8.95048 21.1091 9.08612 20.5412 9.11866C20.6135 9.29951 20.6787 9.49484 20.7365 9.70466C20.9319 9.67573 21.1543 9.63412 21.4039 9.57984L23.3517 11.5277L23.7152 11.1641L21.979 9.42794C22.2286 9.35198 22.4836 9.26337 22.744 9.16209L22.2937 8.71173V8.71177ZM19.9064 9.71005C19.8883 10.3937 19.957 11.0701 20.1126 11.7393L17.7958 9.42248C18.5301 9.59251 19.2336 9.68837 19.9064 9.71005ZM16.141 9.55816C15.9927 10.126 15.8082 10.6903 15.5876 11.2509L16.1627 11.4137C16.3615 10.8609 16.5299 10.2976 16.6673 9.72634L16.141 9.55812V9.55816ZM17.9423 10.8494C17.7072 11.3378 17.416 11.8568 17.0688 12.4066L17.5897 12.6887C17.8898 12.1788 18.1668 11.6556 18.4198 11.1207L17.9423 10.8494ZM21.2899 11.4734L21.8542 11.4842C21.8542 11.1226 21.8343 10.7192 21.7945 10.2743L21.2845 10.2635C21.3098 10.7301 21.3116 11.1334 21.2899 11.4734V11.4734ZM18.6693 8.70087L19.2445 8.76602C19.2698 8.40066 19.2788 8.05887 19.2716 7.74055L18.7779 7.67005C18.7517 8.01465 18.7155 8.35841 18.6693 8.70091V8.70087ZM25.7986 14.3002L25.2452 14.1157C25.1777 14.4454 25.0999 14.7729 25.0119 15.0977C24.433 14.6292 23.8615 14.1517 23.2974 13.6653C23.9485 13.5677 24.6375 13.4248 25.3646 13.2367L26.9543 14.8264L27.3558 14.4249L24.2415 11.3107L23.84 11.7121L24.8518 12.724C24.4576 12.8506 24.086 12.9492 23.7369 13.0197C23.339 13.1137 22.9791 13.1119 22.6572 13.0143L22.4022 13.6599C23.218 14.3231 24.0318 14.9886 24.8437 15.6566C24.7801 15.8548 24.7131 16.0519 24.643 16.2479C24.8569 16.3073 25.0686 16.3743 25.2778 16.4487C25.4876 15.7325 25.6612 15.0163 25.7986 14.3001V14.3002ZM21.4907 14.1374L21.0892 14.5389L22.3642 15.8139L21.3578 16.8203C20.8214 16.3992 20.2887 15.9733 19.7599 15.5426L19.429 16.1232C20.6074 16.9996 21.7757 17.8895 22.9339 18.7926C23.075 18.6226 23.2088 18.4743 23.3354 18.3477C22.8364 17.9682 22.339 17.5866 21.8433 17.2029L22.7982 16.2479L24.0407 17.4904L24.4422 17.0889L23.1997 15.8464L23.8725 15.1737L23.4385 14.7396L22.7657 15.4124L21.4907 14.1374L21.4907 14.1374ZM29.1517 15.5697L24.6864 20.035C24.4476 20.2737 24.2162 20.2773 23.9919 20.0458C23.8183 19.8722 23.5868 19.6118 23.2974 19.2645C23.1527 19.4743 23.0171 19.6642 22.8905 19.8342C23.2667 20.2177 23.5289 20.4835 23.6772 20.6318C24.1149 21.0695 24.5598 21.0623 25.0119 20.6101L29.602 16.0201L29.1516 15.5697L29.1517 15.5697ZM27.3883 14.9783L23.9322 18.4345L24.3716 18.8739L27.8278 15.4178L27.3883 14.9783Z" fill="#FFCC00"/>
</g>
<defs>
<clipPath id="clip0_45_69">
<rect width="30" height="30" fill="white"/>
</clipPath>
</defs>
</svg>
