<svg width="30" height="30" viewBox="0 0 30 30" fill="none" xmlns="http://www.w3.org/2000/svg">
<g clip-path="url(#clip0_45_46)">
<path d="M17.2223 0L30.0938 12.8714V30L0.09375 0H17.2223H17.2223ZM13.9267 9.82161C13.2835 8.31821 13.0685 6.82468 13.2816 5.34104L15.7438 7.80329L16.1818 7.36528L13.5539 4.73729L14.6666 3.62454L16.969 5.927L17.407 5.489L15.1046 3.18657L16.1167 2.17443L15.655 1.71275L14.6429 2.72489L12.3641 0.446107L11.9261 0.884107L14.2049 3.16289L13.0922 4.27564L10.4642 1.64764L10.0262 2.08564L12.4707 4.53014C11.058 4.69979 9.53496 4.53014 7.90132 4.02111C7.88161 4.31707 7.85596 4.55579 7.82439 4.73729C9.41653 5.14964 10.9101 5.25814 12.305 5.06282L9.83678 7.531L10.2985 7.99268L12.7725 5.51857C12.5082 6.89964 12.6364 8.3695 13.1573 9.92814C13.4256 9.88079 13.6821 9.84529 13.9267 9.82161ZM18.3185 9.17054C18.3027 9.43096 18.2712 9.65982 18.2239 9.85711C18.5139 9.80386 18.8266 9.73579 19.162 9.65293L15.5662 13.2486L16.0161 13.6985L16.4186 13.296L19.4254 16.3027L19.8279 15.9002L18.4606 14.533L19.378 13.6156L20.6269 14.8645L21.0294 14.462L19.7805 13.2131L20.6742 12.3194L21.9231 13.5682L22.3256 13.1657L21.0767 11.9169L21.9705 11.0231L23.2667 12.3194L23.6692 11.9169L20.8962 9.14389C21.344 8.99986 21.8185 8.83511 22.3197 8.64968L22.0119 8.04593C20.7689 8.60232 19.5378 8.97718 18.3185 9.17054H18.3185ZM16.1581 9.23564C16.9986 9.08171 18.1864 8.78975 19.7213 8.35964L19.4845 7.74407C19.011 7.90586 18.575 8.04793 18.1765 8.17025C17.8786 7.88418 17.6596 7.67107 17.5195 7.531C18.3442 7.32186 19.2754 7.02986 20.3132 6.655L20.0172 6.02761C18.9755 6.49321 17.9634 6.8385 16.9809 7.06339L16.7204 7.54875C16.9611 7.75 17.266 8.01143 17.6349 8.33304C16.6425 8.61514 15.9312 8.74832 15.5011 8.73254L15.1519 9.25932C15.6215 9.58682 16.2587 10.0702 17.0637 10.7094C17.1663 10.6305 17.3241 10.5042 17.5373 10.3306C17.0779 9.96521 16.6182 9.60021 16.1581 9.23561V9.23564ZM16.8211 12.8935L17.7385 11.9761L18.9282 13.1657L18.0107 14.0832L16.8211 12.8935ZM18.141 11.5736L19.0347 10.6798L20.2244 11.8695L19.3306 12.7633L18.141 11.5736ZM19.4372 10.2774L20.3309 9.38361L21.5206 10.5733L20.6269 11.467L19.4372 10.2774ZM14.0569 10.0584L13.7255 10.6147C14.3213 11.0133 15.0947 11.5223 16.0457 12.1418C16.1877 11.9998 16.3456 11.8537 16.5192 11.7038C15.6156 11.1237 14.7948 10.5753 14.0569 10.0584ZM22.586 9.10543C22.5071 9.61839 22.4124 10.0722 22.3019 10.4668L22.9411 10.6088C23.0438 10.2142 23.1246 9.75846 23.1838 9.24154L22.586 9.10543ZM28.2681 14.7875C28.2168 15.1348 28.1467 15.5224 28.058 15.9505L26.5457 14.4383L24.7049 16.279C23.5133 17.4707 22.3374 18.1257 21.1773 18.2441C21.2128 18.5243 21.2286 18.765 21.2246 18.9662C22.4104 18.8025 23.5508 18.2264 24.6458 17.2379L26.9245 19.5167L26.6404 19.8007L27.0961 20.2565L29.7301 17.6226L28.1231 16.0156L28.7534 16.1489C28.8284 15.6871 28.8797 15.2807 28.9074 14.9296L28.2681 14.7875H28.2681ZM21.9113 14.2666L21.4673 14.8289C21.8284 15.0114 22.1885 15.1958 22.5475 15.3823L20.9524 16.9775C20.7669 17.1629 20.5894 17.1708 20.4197 17.0011C20.2934 16.8749 20.1237 16.6855 19.9107 16.4329C19.7802 16.6283 19.644 16.8197 19.5023 17.0071C19.7272 17.2399 19.9087 17.4214 20.0468 17.5516C20.4651 17.962 20.8873 17.9541 21.3134 17.5279L23.1453 15.696C23.473 15.8724 23.7995 16.051 24.1249 16.2317C24.2354 16.1133 24.3873 15.9535 24.5806 15.7523C24.2577 15.5784 23.9351 15.4038 23.6129 15.2284L24.847 13.9944L25.5987 14.7461L26.0071 14.3376L25.2554 13.586L26.3681 12.4732L25.9124 12.0175L24.7996 13.1302L24.0065 12.3371L23.5981 12.7455L24.3913 13.5386L23.027 14.9029C22.653 14.6945 22.281 14.4824 21.9113 14.2666ZM26.5812 15.3261L28.8481 17.593L27.3506 19.0905L25.0837 16.8236L26.5812 15.3261Z" fill="#333333"/>
</g>
<defs>
<clipPath id="clip0_45_46">
<rect width="30" height="30" fill="white"/>
</clipPath>
</defs>
</svg>
