<svg width="30" height="30" viewBox="0 0 30 30" fill="none" xmlns="http://www.w3.org/2000/svg">
<g clip-path="url(#clip0_45_68)">
<path d="M17.1285 0L30 12.8714V30L0 0H17.1286H17.1285ZM16.4835 5.81418C16.519 6.047 16.5368 6.25018 16.5368 6.42382C16.9096 6.41 17.2855 6.37154 17.6643 6.30839C17.5933 6.76614 17.5834 7.23568 17.6347 7.71707C16.9461 7.54543 16.2152 7.23471 15.4418 6.78486C15.4041 6.99755 15.3587 7.20879 15.3056 7.41818C16.2152 7.85421 17.0231 8.15114 17.7294 8.30896C17.8774 8.94625 18.2197 9.71271 18.7563 10.6085C19.0207 10.494 19.2358 10.4171 19.4015 10.3776C18.9082 9.67525 18.5669 9.02418 18.3775 8.42439C19.0661 8.50921 19.7467 8.4895 20.4195 8.36521L20.7924 7.99232L18.8392 6.03911C19.0805 5.97054 19.3194 5.89354 19.5554 5.80825L19.2594 5.25189C18.4032 5.60307 17.4779 5.7905 16.4835 5.81418ZM13.1156 4.86125C13.0131 5.11375 12.9085 5.34461 12.802 5.55375C13.2834 5.44721 13.7815 5.30021 14.2965 5.11279L10.8961 8.51314L11.3163 8.93343L15.7466 4.50314C16.2951 4.24271 16.8603 3.94186 17.4423 3.60054L17.0872 3.07964C15.7969 3.88857 14.4731 4.48243 13.1157 4.86125H13.1156ZM17.3713 11.3424C15.7417 11.1254 14.1633 10.5453 12.6362 9.60225C12.6046 9.79164 12.5553 9.99882 12.4882 10.2237C14.0232 11.1589 15.6312 11.7291 17.3121 11.9343L17.3713 11.3424ZM13.0624 8.12254L13.4708 8.53093L17.0576 4.94411L16.6492 4.53571L13.0624 8.1225V8.12254ZM17.543 10.1054C16.4065 9.98696 15.1853 9.59436 13.8792 8.9275C13.8634 9.109 13.8299 9.32011 13.7786 9.56082C15.0729 10.1527 16.3138 10.5335 17.5015 10.7031L17.543 10.1054ZM17.5726 8.9275C16.5624 8.75389 15.6194 8.42243 14.7434 7.93314C14.7394 8.16593 14.7098 8.37311 14.6546 8.55461C15.5779 8.99654 16.5446 9.31618 17.5548 9.51346L17.5726 8.9275ZM19.8869 7.82068C19.4015 7.91932 18.852 7.92425 18.2384 7.83546C18.1358 7.31461 18.1358 6.76811 18.2384 6.19593L18.2562 6.19004L19.8868 7.82068H19.8869ZM21.8874 12.8162C21.8795 13.0214 21.8539 13.2443 21.8105 13.485C22.1124 13.395 22.4124 13.2983 22.7101 13.195C21.9939 14.1835 21.5648 15.1137 21.4228 15.9857C20.6119 15.9916 19.6205 15.7539 18.4485 15.2725C18.4446 15.5527 18.4209 15.8091 18.3775 16.042C19.5515 16.474 20.5448 16.6861 21.3577 16.6782C21.336 17.4457 21.5027 18.3306 21.8578 19.3329C22.1893 19.2697 22.4675 19.2401 22.6924 19.2441C22.2228 18.2891 22.0009 17.4161 22.0265 16.625C23.1096 16.477 24.3437 15.8171 25.7288 14.6451L26.4212 15.3376L26.8592 14.8996L24.4651 12.5055C24.8715 12.3318 25.2888 12.1414 25.7169 11.9343L25.3855 11.3306C24.1109 12.0132 22.9449 12.5084 21.8874 12.8162ZM20.0289 10.7683L17.7679 13.0293C17.539 13.2581 17.2924 13.3666 17.028 13.3548L16.9392 14.0828C17.105 14.0828 17.3121 14.1045 17.5607 14.1479C18.4051 14.3847 19.2121 14.6313 19.9815 14.8878C20.0763 14.7221 20.2045 14.5307 20.3663 14.3137C19.5771 14.0927 18.8274 13.8559 18.1171 13.6034L20.0762 11.6442L21.0943 12.6623L20.7746 12.9819L21.2363 13.4436L23.8643 10.8156L21.8105 8.76179L21.3961 9.17607L22.9883 10.7683L21.5086 12.248L20.0289 10.7683ZM23.6631 12.8399L23.8495 12.7659L25.2641 14.1805C24.0665 15.1729 23.014 15.7539 22.1064 15.9236C22.282 15.0062 22.8009 13.9782 23.6631 12.8399Z" fill="#FFCC00"/>
</g>
<defs>
<clipPath id="clip0_45_68">
<rect width="30" height="30" fill="white"/>
</clipPath>
</defs>
</svg>
