<svg width="30" height="30" viewBox="0 0 30 30" fill="none" xmlns="http://www.w3.org/2000/svg">
<g clip-path="url(#clip0_45_42)">
<path d="M17.2223 0L30.0938 12.8714V30L0.0937586 0H17.2223H17.2223ZM8.84604 6.84946L10.1837 5.51182L13.1668 8.49493L12.7465 8.91514C12.4782 9.18347 12.208 9.1815 11.9357 8.90925C11.7147 8.68825 11.4365 8.38246 11.1011 7.99182C10.9512 8.22068 10.819 8.41204 10.7045 8.56593C11.1307 8.99211 11.4503 9.30779 11.6634 9.51296C12.1409 9.99043 12.6242 9.9845 13.1135 9.49521L16.2742 6.3345L13.0307 3.091C13.3961 3.01641 13.7576 2.92355 14.1138 2.81279L17.671 6.37004L18.109 5.93204L14.7649 2.58789C15.0715 2.47115 15.3736 2.34282 15.6705 2.20318L15.2916 1.59943C14.9525 1.77691 14.6026 1.93309 14.244 2.06704L12.4033 0.22625L11.9653 0.664286L13.5841 2.28311C12.3806 2.63036 11.0795 2.74182 9.68062 2.61754C9.63722 2.874 9.5879 3.11271 9.53265 3.33371C10.1857 3.37121 10.822 3.36625 11.4415 3.31889L8.37847 6.38193L8.84608 6.8495L8.84604 6.84946ZM10.5862 5.10932L11.2964 4.39907L14.2795 7.38218L13.5693 8.09243L10.5862 5.10932ZM15.3864 6.27536L14.682 6.97964L11.6989 3.99654L12.4033 3.29221L15.3864 6.27532V6.27536ZM21.2105 8.53636L18.8548 10.8921C18.2393 11.5076 17.7085 11.9515 17.2627 12.2238C16.801 12.504 16.2446 12.717 15.5935 12.863C15.5817 13.0801 15.5541 13.305 15.5107 13.5378C16.7102 13.3563 17.8585 12.7171 18.9554 11.6201L19.861 10.7145L20.1422 10.9956C19.3135 12.0531 18.8203 13.0534 18.6625 13.9965C18.0153 14.0004 17.2508 13.8495 16.3689 13.5437C16.3373 13.7962 16.2939 14.033 16.2387 14.254C17.1403 14.4966 17.9226 14.6121 18.5855 14.6002C18.5579 15.1882 18.6437 15.8935 18.843 16.7162C19.0719 16.6846 19.3382 16.659 19.642 16.6393C19.3402 15.8363 19.1962 15.1398 19.21 14.5499C20.228 14.4236 21.2894 13.9659 22.3943 13.1768L22.7494 12.8216L20.2517 10.3239L21.2283 9.34721C21.9346 10.0299 22.9092 10.8664 24.1522 11.8569L24.4304 11.259C23.4558 10.5764 22.3825 9.66882 21.2105 8.53636ZM15.2088 13.0702L17.819 10.46L16.7537 9.39461L17.6947 8.45346L19.2218 9.98054L19.5888 9.61357L19.0916 9.11639L20.8613 7.34664L20.447 6.93236L18.6773 8.70207L18.0617 8.0865L19.6775 6.47068L19.2633 6.05636L16.2387 9.08089C15.2325 10.0871 14.3407 10.6947 13.5633 10.9039C13.587 11.1643 13.587 11.3932 13.5633 11.5905C14.4788 11.2945 15.4189 10.6839 16.3837 9.75861L17.0377 10.4126L14.7945 12.6559L15.2088 13.0702ZM21.909 12.7624C20.9738 13.4253 20.0998 13.8199 19.2869 13.9462C19.4585 13.1274 19.8818 12.282 20.5565 11.41L21.909 12.7624ZM26.6914 21.6289C26.3225 19.8946 26.4142 18.1239 26.9666 16.3167L29.3727 18.7227L29.8107 18.2847L27.2359 15.71L28.3013 14.6446L27.8397 14.1829L26.7743 15.2483L24.1995 12.6736L23.7615 13.1116L26.1498 15.4999C24.5655 15.9714 22.7514 16.1066 20.7074 15.9053C20.7232 16.1026 20.735 16.3512 20.7429 16.6511C22.7139 16.7596 24.4521 16.5643 25.9575 16.0651L23.6136 18.409L22.2108 17.0062L21.7965 17.4205L23.1993 18.8233L21.9859 20.0367L22.4476 20.4984L23.6609 19.285L25.0164 20.6404L25.4307 20.2261L24.0753 18.8707L26.4191 16.5268C25.8371 18.2452 25.6556 19.9499 25.8746 21.6407C26.2139 21.6328 26.4862 21.6289 26.6914 21.6289H26.6914Z" fill="#333333"/>
</g>
<defs>
<clipPath id="clip0_45_42">
<rect width="30" height="30" fill="white"/>
</clipPath>
</defs>
</svg>
