<svg width="30" height="30" viewBox="0 0 30 30" fill="none" xmlns="http://www.w3.org/2000/svg">
<g clip-path="url(#clip0_45_62)">
<path d="M17.1285 0L30 12.8714V30L0 0H17.1286H17.1285ZM18.1409 4.75418L15.868 7.02704L15.3767 6.53575L17.6378 4.27475L16.2824 2.91932L14.0214 5.18032L13.5478 4.70682L13.169 5.08564L13.6425 5.55914L13.0625 6.13918C12.222 6.97968 11.3973 7.48868 10.5884 7.66625C10.5963 7.83196 10.5845 8.04111 10.5529 8.29364C11.5039 8.09239 12.4351 7.53604 13.3466 6.62454L14.0272 5.94386L14.6132 6.52982L12.5771 8.56589C12.4075 8.73561 12.2536 8.75139 12.1155 8.61329C12.0208 8.51857 11.8985 8.36864 11.7485 8.16343C11.6455 8.3297 11.5329 8.48979 11.4111 8.64286C11.5611 8.8165 11.7011 8.96839 11.8314 9.09861C12.1589 9.42611 12.516 9.39654 12.9027 9.00982L14.998 6.91457L15.4892 7.40582L14.8796 8.01546C14.0194 8.87568 13.2065 9.38468 12.441 9.54254C12.4489 9.70825 12.4371 9.91739 12.4055 10.1699C13.3289 9.97264 14.2818 9.38271 15.2643 8.40018L15.874 7.79053L16.4658 8.38243L14.2995 10.5487C14.1141 10.7342 13.9503 10.752 13.8082 10.602C13.6701 10.456 13.534 10.2883 13.3999 10.0989C13.3015 10.2682 13.1886 10.4286 13.0625 10.5783C13.244 10.7835 13.4058 10.9571 13.5479 11.0992C13.8714 11.4228 14.2186 11.3991 14.5896 11.0282L16.8506 8.76714L17.2886 9.20514L17.6674 8.82636L17.2294 8.38836L19.5022 6.1155L18.1409 4.75418ZM21.2187 7.34664L16.2764 12.2889C16.0594 12.5059 15.8463 12.5059 15.6371 12.2889C15.4714 12.1153 15.2604 11.8726 15.0039 11.5609C14.8776 11.766 14.7414 11.9574 14.5954 12.135C14.8874 12.4428 15.1459 12.7091 15.3708 12.934C15.7457 13.3089 16.1462 13.2832 16.5724 12.8571L21.6507 7.77871L21.2186 7.34664H21.2187ZM16.3179 11.2531L20.2776 7.29336L19.8633 6.87907L15.9036 10.8387L16.3179 11.2531H16.3179ZM18.7505 6.09775L16.8446 8.00364L16.2527 7.41175L18.1586 5.50586L18.7505 6.09775ZM16.8861 4.257L14.992 6.15104L14.4061 5.56507L16.3001 3.67104L16.8861 4.257ZM21.0707 13.5674L20.6564 13.9817L22.1479 15.4732L20.7807 16.8405C20.5597 17.0615 20.3407 17.0634 20.1237 16.8464C19.9304 16.6531 19.7429 16.4341 19.5614 16.1894C19.4075 16.4143 19.2714 16.6057 19.153 16.7635C19.4253 17.0437 19.6443 17.2666 19.81 17.4324C20.2361 17.8585 20.6761 17.8447 21.1299 17.3909L22.5977 15.9231L24.19 17.5152L24.6042 17.1009L23.0121 15.5088L23.7579 14.763L24.77 15.7751L25.1843 15.3608L22.7576 12.934C23.5863 12.9972 24.4286 12.9439 25.2849 12.7742C25.0403 13.9028 25.0817 15.1003 25.4092 16.367C25.6184 16.2999 25.867 16.2249 26.155 16.1421C25.7131 14.9109 25.6381 13.7311 25.9301 12.6026L26.1728 12.5138L25.6874 12.0284C24.5036 12.3678 23.2134 12.4033 21.8165 12.135C21.7928 12.3875 21.7553 12.6184 21.704 12.8275C21.9634 12.8668 22.224 12.8984 22.4853 12.9222L22.2012 13.2063L23.308 14.3131L22.5622 15.0589L21.0707 13.5674ZM20.7866 13.5674C21.0391 13.228 21.2187 12.7013 21.3252 11.987C21.9171 11.6871 22.6037 11.3359 23.385 10.9335L23.7993 10.5191L22.1302 8.85004L16.596 14.3841L17.034 14.8221L22.1539 9.70236L22.9056 10.454C22.2029 10.8403 21.5005 11.227 20.7984 11.6141C20.7077 12.2968 20.5479 12.7999 20.319 13.1234C19.9047 13.7272 19.5496 13.9087 19.2536 13.668C19.0721 13.518 18.9123 13.3266 18.7742 13.0939C18.6558 13.3148 18.5315 13.522 18.4013 13.7153C18.6144 13.9836 18.8097 14.175 18.9873 14.2895C19.5516 14.6643 20.1513 14.4236 20.7866 13.5674ZM22.3433 16.8997C22.3235 17.5192 22.2821 18.2669 22.219 19.1429L22.9174 19.1784C22.9529 18.3853 22.9687 17.6395 22.9648 16.9411L22.3433 16.8997ZM20.8754 14.757C20.0862 15.0175 19.3404 15.1753 18.6381 15.2306C18.6815 15.4791 18.715 15.6942 18.7387 15.8757C19.4845 15.7692 20.2559 15.5975 21.053 15.3608L20.8754 14.757Z" fill="#FF5543"/>
</g>
<defs>
<clipPath id="clip0_45_62">
<rect width="30" height="30" fill="white"/>
</clipPath>
</defs>
</svg>
