<svg width="30" height="30" viewBox="0 0 30 30" fill="none" xmlns="http://www.w3.org/2000/svg">
<g clip-path="url(#clip0_45_78)">
<path d="M17.1285 0L30 12.8714V30L0 0H17.1286H17.1285ZM18.8099 6.06786L16.3417 8.536C15.2526 9.62507 14.1754 10.1933 13.11 10.2406C13.0942 10.4853 13.0725 10.7161 13.0449 10.9331C14.2997 10.8384 15.5327 10.1854 16.7441 8.974L17.0342 8.684L17.9102 9.55997L14.8087 12.6615L15.2467 13.0995L18.3482 9.99796L19.1946 10.8444L19.5971 10.4419L17.4367 8.2815L18.8158 6.90239C19.3958 7.41932 20.1278 8.01711 21.0117 8.69582L21.3135 8.08618C20.4691 7.54954 19.6345 6.87675 18.8099 6.06786ZM12.9975 5.57064L12.6187 5.94946L13.8262 7.15693L12.376 8.60704C12.1748 8.80829 11.9815 8.81618 11.796 8.63071C11.6658 8.5005 11.4981 8.30911 11.2929 8.05657C11.1508 8.25389 11.0226 8.4255 10.9082 8.57154C11.0958 8.76661 11.2852 8.95997 11.4764 9.15157C11.8789 9.55407 12.2892 9.54618 12.7075 9.12789L14.2523 7.58307L15.4124 8.74318L15.7912 8.36436L14.6311 7.20425L15.1934 6.64196L14.7672 6.21582L14.205 6.77811L12.9975 5.57064ZM13.9386 4.29811L13.5598 4.67693L16.6731 7.79025L17.0519 7.41143L16.1552 6.51471C16.536 6.48118 16.9454 6.43679 17.3834 6.38154L17.1999 5.72454C16.7165 5.84489 16.2124 5.95239 15.6876 6.04714L14.9064 5.26582L15.4834 5.35761C15.5663 4.86432 15.6215 4.47368 15.6491 4.18564L15.1046 4.09093C15.0612 4.43029 14.9902 4.817 14.8916 5.25104L13.9386 4.29811ZM15.5012 3.11432L15.1224 3.49314L17.8924 6.26314L18.2712 5.88436L17.0135 4.62661L17.3065 4.73018C17.4059 4.41561 17.4947 4.09779 17.5728 3.77725L17.0164 3.576C16.9355 3.87393 16.8566 4.14618 16.7796 4.39279L15.5012 3.11432ZM12.8081 6.67157C12.0979 6.93989 11.4961 7.12729 11.0029 7.23386C11.0779 7.45089 11.137 7.65211 11.1804 7.83757C11.7486 7.68764 12.3622 7.49625 13.0212 7.26346L12.8081 6.67157ZM14.4831 8.40579L13.9031 8.28743C13.8281 8.74911 13.7255 9.21864 13.5953 9.69611L14.2346 9.8145C14.3214 9.39621 14.4042 8.92664 14.4831 8.40579ZM23.2194 11.1166L21.0058 13.3303L21.42 13.7446L21.5976 13.567L24.415 16.3844L24.2374 16.562L24.6518 16.9763L26.8654 14.7626L25.8622 13.7594C26.2347 13.7224 26.6066 13.6799 26.9779 13.6321L26.7944 12.9633C26.3051 13.0856 25.8286 13.1853 25.365 13.2622L24.3706 12.2679L24.8412 12.3477C24.8964 11.9926 24.9398 11.5941 24.9714 11.1521L24.3972 11.0515C24.3539 11.4303 24.2996 11.7904 24.2345 12.1317L23.2194 11.1166ZM20.9347 13.8748L18.431 16.3785L18.8572 16.8046L19.1413 16.5206L21.4615 18.8407L21.1774 19.1249L21.6035 19.551L24.1072 17.0473L20.9347 13.8748H20.9347ZM17.4071 12.9396L17.1111 13.5552C18.0108 13.9893 18.7941 14.3898 19.4609 14.7568C19.5793 14.6147 19.7292 14.445 19.9107 14.2477C19.5872 14.0859 19.2784 13.9291 18.9845 13.7772L21.2898 11.4718L21.8995 12.0814L22.3197 11.6612L21.7101 11.0515L23.1898 9.57182L22.7518 9.13382L21.2721 10.6135L20.5618 9.90325L20.1416 10.3235L20.8519 11.0338L18.4074 13.4783C18.0715 13.3032 17.7381 13.1236 17.4071 12.9396ZM26.096 14.7035L24.7701 16.0293L23.5627 14.8219L24.8885 13.496L26.096 14.7035ZM21.9527 13.2119L23.2786 11.8861L24.4801 13.0876L23.1543 14.4134L21.9527 13.2119ZM23.3141 16.9881L22.7459 17.5564L20.4257 15.2362L20.9939 14.668L23.3141 16.9881ZM19.5083 16.1536L20.0706 15.5913L22.3907 17.9115L21.8285 18.4738L19.5083 16.1536ZM25.4094 14.9165L25.2673 14.3602C24.8412 14.4864 24.4604 14.5752 24.125 14.6265L24.2552 15.1355C24.4643 15.1158 24.8491 15.0428 25.4094 14.9165H25.4094ZM23.0419 12.5727C22.9708 12.9672 22.8939 13.3322 22.811 13.6677L23.3555 13.786C23.4266 13.4546 23.4877 13.0856 23.539 12.6792L23.0419 12.5727Z" fill="#00DF93"/>
</g>
<defs>
<clipPath id="clip0_45_78">
<rect width="30" height="30" fill="white"/>
</clipPath>
</defs>
</svg>
