<svg width="40" height="40" viewBox="0 0 40 40" fill="none" xmlns="http://www.w3.org/2000/svg">
<g clip-path="url(#clip0_2695_245)">
<path d="M0 11.4286C0 5.11676 5.11676 0 11.4286 0H28.5714C34.8832 0 40 5.11676 40 11.4286V28.5714C40 34.8832 34.8832 40 28.5714 40H11.4286C5.11676 40 0 34.8832 0 28.5714V11.4286Z" fill="white"/>
<path d="M0 11.4286C0 5.11676 5.11676 0 11.4286 0H28.5714C34.8832 0 40 5.11676 40 11.4286V28.5714C40 34.8832 34.8832 40 28.5714 40H11.4286C5.11676 40 0 34.8832 0 28.5714V11.4286Z" fill="#007AFF" fill-opacity="0.1"/>
<path fill-rule="evenodd" clip-rule="evenodd" d="M12.5401 26.6323H19.1835L19.3982 27.2866C19.6044 27.915 20.1909 28.3399 20.8523 28.3399C21.9079 28.3399 22.6465 27.2966 22.2959 26.3011L21.1394 23.0176C20.632 21.577 19.2709 20.6133 17.7436 20.6133C16.9147 20.6133 16.1113 20.8993 15.4688 21.4229L9.41305 26.3592C8.59943 27.0224 9.06839 28.3399 10.1181 28.3399C10.3825 28.3399 10.6384 28.246 10.84 28.0749L12.5401 26.6323ZM17.7885 22.2366L18.7604 25.3463H13.7407L17.7885 22.2366ZM26.9187 26.1186C26.4461 27.159 27.2067 28.3399 28.3494 28.3399C28.9664 28.3399 29.5263 27.9788 29.7808 27.4168L31.8585 22.8285C32.3286 21.7903 31.5695 20.6133 30.4299 20.6133C29.8149 20.6133 29.2566 20.9729 29.0021 21.5329L26.9187 26.1186Z" fill="#007AFF" fill-opacity="0.15"/>
<path fill-rule="evenodd" clip-rule="evenodd" d="M13.7492 23.3144H19.4851L19.7909 25.3439C19.8932 26.0225 20.4763 26.5244 21.1626 26.5244C22.0172 26.5244 22.6685 25.7592 22.5321 24.9157L20.7559 13.9359C20.5753 12.82 19.612 12 18.4817 12C17.65 12 16.8829 12.4483 16.4746 13.1728L10.0657 24.5467C9.56739 25.431 10.2063 26.5244 11.2213 26.5244C11.7083 26.5244 12.1561 26.2576 12.3879 25.8293L13.7492 23.3144ZM18.2806 15.0515L19.1198 20.8969H14.7858L18.2806 15.0515ZM24.857 24.7675C24.6679 25.6736 25.3595 26.5244 26.2851 26.5244C26.9764 26.5244 27.5727 26.0393 27.7135 25.3626L30.1285 13.7513C30.3164 12.8479 29.6267 12 28.7039 12C28.0149 12 27.4203 12.4833 27.2796 13.1578L24.857 24.7675Z" fill="#007AFF"/>
</g>
<defs>
<clipPath id="clip0_2695_245">
<rect width="40" height="40" fill="white"/>
</clipPath>
</defs>
</svg>
