<svg width="40" height="40" viewBox="0 0 40 40" fill="none" xmlns="http://www.w3.org/2000/svg">
<g clip-path="url(#clip0_2751_128)">
<path d="M0 11.4286C0 5.11676 5.11676 0 11.4286 0H28.5714C34.8832 0 40 5.11676 40 11.4286V28.5714C40 34.8832 34.8832 40 28.5714 40H11.4286C5.11676 40 0 34.8832 0 28.5714V11.4286Z" fill="white"/>
<path d="M0 11.4286C0 5.11676 5.11676 0 11.4286 0H28.5714C34.8832 0 40 5.11676 40 11.4286V28.5714C40 34.8832 34.8832 40 28.5714 40H11.4286C5.11676 40 0 34.8832 0 28.5714V11.4286Z" fill="#007AFF" fill-opacity="0.1"/>
<path d="M20 13.4545C21.736 13.4545 23.4008 14.1442 24.6283 15.3717C25.8559 16.5992 26.5455 18.264 26.5455 20C26.5455 22.4218 25.2255 24.5382 23.2727 25.6727V27.6364C23.2727 27.9257 23.1578 28.2032 22.9532 28.4078C22.7486 28.6123 22.4711 28.7273 22.1818 28.7273H17.8182C17.5289 28.7273 17.2514 28.6123 17.0468 28.4078C16.8422 28.2032 16.7273 27.9257 16.7273 27.6364V25.6727C14.7746 24.5382 13.4545 22.4218 13.4545 20C13.4545 18.264 14.1442 16.5992 15.3717 15.3717C16.5992 14.1442 18.264 13.4545 20 13.4545ZM22.1818 29.8182V30.9091C22.1818 31.1984 22.0669 31.4759 21.8623 31.6805C21.6577 31.8851 21.3802 32 21.0909 32H18.9091C18.6198 32 18.3423 31.8851 18.1377 31.6805C17.9331 31.4759 17.8182 31.1984 17.8182 30.9091V29.8182H22.1818ZM28.7273 20C28.7273 19.3975 29.2157 18.9091 29.8182 18.9091H30.9091C31.5116 18.9091 32 19.3975 32 20C32 20.6025 31.5116 21.0909 30.9091 21.0909H29.8182C29.2157 21.0909 28.7273 20.6025 28.7273 20ZM8 20C8 19.3975 8.48842 18.9091 9.09092 18.9091H10.1818C10.7843 18.9091 11.2727 19.3975 11.2727 20C11.2727 20.6025 10.7843 21.0909 10.1818 21.0909H9.09092C8.48842 21.0909 8 20.6025 8 20ZM20 8C20.6025 8 21.0909 8.48842 21.0909 9.09092V10.1818C21.0909 10.7843 20.6025 11.2727 20 11.2727C19.3975 11.2727 18.9091 10.7843 18.9091 10.1818V9.09092C18.9091 8.48842 19.3975 8 20 8ZM11.4991 11.51C11.9276 11.0784 12.6255 11.078 13.0545 11.5091L13.8273 12.2854C14.2539 12.7141 14.2518 13.4075 13.8227 13.8336C13.3957 14.2576 12.7065 14.2572 12.28 13.8327L11.5036 13.06C11.0747 12.6331 11.0727 11.9394 11.4991 11.51ZM26.1746 13.8254C25.7465 13.3974 25.7457 12.7036 26.1727 12.2745L26.9346 11.5091C27.364 11.0776 28.0622 11.0768 28.4927 11.5073C28.9232 11.9378 28.9224 12.636 28.4909 13.0654L27.7255 13.8273C27.2964 14.2543 26.6026 14.2535 26.1746 13.8254Z" fill="#007AFF"/>
<path fill-rule="evenodd" clip-rule="evenodd" d="M19.0027 15.0791C19.0864 15.3425 18.9381 15.6232 18.6714 15.7059C17.3285 16.1226 16.2525 17.1382 15.7654 18.4354C15.6682 18.6943 15.377 18.8264 15.1149 18.7304C14.8527 18.6344 14.7191 18.3466 14.8163 18.0877C15.4116 16.5019 16.7253 15.2616 18.3681 14.7519C18.6348 14.6691 18.9189 14.8156 19.0027 15.0791Z" fill="white"/>
</g>
<defs>
<clipPath id="clip0_2751_128">
<rect width="40" height="40" fill="white"/>
</clipPath>
</defs>
</svg>
