<svg width="40" height="40" viewBox="0 0 40 40" fill="none" xmlns="http://www.w3.org/2000/svg">
<g clip-path="url(#clip0_2144_164)">
<path d="M0 11.4286C0 5.11676 5.11676 0 11.4286 0H28.5714C34.8832 0 40 5.11676 40 11.4286V28.5714C40 34.8832 34.8832 40 28.5714 40H11.4286C5.11676 40 0 34.8832 0 28.5714V11.4286Z" fill="white"/>
<path d="M0 11.4286C0 5.11676 5.11676 0 11.4286 0H28.5714C34.8832 0 40 5.11676 40 11.4286V28.5714C40 34.8832 34.8832 40 28.5714 40H11.4286C5.11676 40 0 34.8832 0 28.5714V11.4286Z" fill="#007AFF" fill-opacity="0.1"/>
<path d="M23.1259 8.57141H12.4906C11.2717 8.57141 10.2857 9.51827 10.2857 10.6873V29.3809H25.3333V10.6873C25.3308 9.51827 24.3449 8.57141 23.1259 8.57141ZM14.8901 14.4746C14.8901 14.2419 15.0105 14.0541 15.1565 14.0541H16.7954V12.3747C16.7954 12.2318 16.99 12.1155 17.2282 12.1155H18.0938C18.332 12.1155 18.5266 12.2318 18.5266 12.3747V14.0541H20.1655C20.314 14.0541 20.4319 14.2419 20.4319 14.4746V15.3184C20.4319 15.5511 20.3115 15.7389 20.1655 15.7389H18.5266V17.2465C18.5266 17.3893 18.332 17.5056 18.0938 17.5056H17.2282C16.99 17.5056 16.7954 17.3893 16.7954 17.2465V15.7389H15.1565C15.008 15.7389 14.8901 15.5511 14.8901 15.3184V14.4746ZM22.6444 25.0381C22.6444 25.2947 22.3986 25.501 22.0939 25.501H13.5073C13.2025 25.501 12.9567 25.2947 12.9567 25.0381V24.1124C12.9567 23.8559 13.2025 23.6496 13.5073 23.6496H22.0939C22.3986 23.6496 22.6444 23.8559 22.6444 24.1124V25.0381ZM22.6444 21.2057C22.6444 21.4623 22.3986 21.6686 22.0939 21.6686H13.5073C13.2025 21.6686 12.9567 21.4623 12.9567 21.2057V20.2801C12.9567 20.0235 13.2025 19.8172 13.5073 19.8172H22.0939C22.3986 19.8172 22.6444 20.0235 22.6444 20.2801V21.2057Z" fill="#007AFF"/>
<path d="M30.9184 31.4305H9.0841C8.80214 31.4305 8.57143 31.1995 8.57143 30.9172V29.8904C8.57143 29.608 8.80214 29.377 9.0841 29.377H30.9159C31.1979 29.377 31.4286 29.608 31.4286 29.8904V30.9172C31.4311 31.2021 31.2004 31.4305 30.9184 31.4305ZM29.847 28.3861H26.566V16.0952H28.309C29.1574 16.0952 29.847 16.7857 29.847 17.6354V28.3861Z" fill="#007AFF" fill-opacity="0.4"/>
</g>
<defs>
<clipPath id="clip0_2144_164">
<rect width="40" height="40" fill="white"/>
</clipPath>
</defs>
</svg>
