<svg width="40" height="40" viewBox="0 0 40 40" fill="none" xmlns="http://www.w3.org/2000/svg">
<g clip-path="url(#clip0_2144_96)">
<path d="M0 11.4286C0 5.11676 5.11676 0 11.4286 0H28.5714C34.8832 0 40 5.11676 40 11.4286V28.5714C40 34.8832 34.8832 40 28.5714 40H11.4286C5.11676 40 0 34.8832 0 28.5714V11.4286Z" fill="white"/>
<path d="M0 11.4286C0 5.11676 5.11676 0 11.4286 0H28.5714C34.8832 0 40 5.11676 40 11.4286V28.5714C40 34.8832 34.8832 40 28.5714 40H11.4286C5.11676 40 0 34.8832 0 28.5714V11.4286Z" fill="#38CDB8" fill-opacity="0.1"/>
<path d="M31.1665 22.52L31.1634 22.5254L26.8209 30.0468L26.8209 30.0468V30.0469L26.8208 30.0468L23.8746 31.4184C23.8676 31.4217 23.86 31.4232 23.8524 31.4228C23.8447 31.4225 23.8373 31.4203 23.8307 31.4165C23.824 31.4127 23.8184 31.4073 23.8143 31.4008C23.8102 31.3944 23.8077 31.3871 23.807 31.3794L23.5218 28.1421H23.5217L27.8674 20.6152C28.4036 19.6864 29.5768 19.36 30.4878 19.886C31.3989 20.412 31.7027 21.5912 31.1665 22.52Z" fill="#38CDB8" fill-opacity="0.4"/>
<path d="M8.57143 10.8571C8.57143 9.59474 9.59476 8.57141 10.8571 8.57141H25.3333C26.5957 8.57141 27.619 9.59474 27.619 10.8571V18.4043L20.0995 31.4286H10.8571C9.59476 31.4286 8.57143 30.4052 8.57143 29.1428V10.8571ZM12.5714 12.8571C12.0454 12.8571 11.619 13.2835 11.619 13.8095C11.619 14.3355 12.0454 14.7619 12.5714 14.7619H22.0952C22.6212 14.7619 23.0476 14.3355 23.0476 13.8095C23.0476 13.2835 22.6212 12.8571 22.0952 12.8571H12.5714ZM11.619 18C11.619 18.526 12.0454 18.9524 12.5714 18.9524H20.1905C20.7165 18.9524 21.1429 18.526 21.1429 18C21.1429 17.474 20.7165 17.0476 20.1905 17.0476H12.5714C12.0454 17.0476 11.619 17.474 11.619 18ZM12.5714 21.2381C12.0454 21.2381 11.619 21.6645 11.619 22.1905C11.619 22.7165 12.0454 23.1428 12.5714 23.1428H18.2857C18.8117 23.1428 19.2381 22.7165 19.2381 22.1905C19.2381 21.6645 18.8117 21.2381 18.2857 21.2381H12.5714Z" fill="#38CDB8"/>
</g>
<defs>
<clipPath id="clip0_2144_96">
<rect width="40" height="40" fill="white"/>
</clipPath>
</defs>
</svg>
