<svg width="40" height="40" viewBox="0 0 40 40" fill="none" xmlns="http://www.w3.org/2000/svg">
<g clip-path="url(#clip0_2144_127)">
<path d="M0 11.4286C0 5.11676 5.11676 0 11.4286 0H28.5714C34.8832 0 40 5.11676 40 11.4286V28.5714C40 34.8832 34.8832 40 28.5714 40H11.4286C5.11676 40 0 34.8832 0 28.5714V11.4286Z" fill="white"/>
<path d="M0 11.4286C0 5.11676 5.11676 0 11.4286 0H28.5714C34.8832 0 40 5.11676 40 11.4286V28.5714C40 34.8832 34.8832 40 28.5714 40H11.4286C5.11676 40 0 34.8832 0 28.5714V11.4286Z" fill="#007AFF" fill-opacity="0.1"/>
<path d="M23.2002 10.3412C24.0173 8.92589 25.8272 8.43698 27.2368 9.25079C28.6464 10.0646 29.1279 11.8765 28.3107 13.2918C27.659 14.4207 26.3689 15.0029 25.1451 14.7291L23.8967 16.8915C25.3781 18.256 25.7307 20.4835 24.7261 22.2234C24.5139 22.5909 24.2319 22.8927 23.8831 23.2387L25.1182 25.3648C25.8352 25.2155 26.5566 25.3328 27.2031 25.7061C27.543 25.9023 28.0277 26.2267 28.2966 26.7766C28.6991 27.4736 28.7914 28.3129 28.5497 29.0772C28.3171 29.837 27.7865 30.4376 27.0568 30.7738C26.0923 31.2861 25.0171 31.2764 24.1067 30.7508C23.7645 30.5532 23.2812 30.2264 23.0099 29.6752C22.409 28.5423 22.5699 27.1712 23.4103 26.2371L22.1997 24.1508C21.0704 24.5425 19.8153 24.4162 18.7457 23.7986C17.7378 23.2167 16.9864 22.1687 16.7236 20.9827L14.3016 20.9783C13.8807 22.2341 12.7738 23.0589 11.5233 23.0402L11.5147 23.0385C11.2177 23.0261 10.6313 22.9548 10.0632 22.6268C9.11475 22.0793 8.54289 21.0935 8.57251 20.0541C8.57146 19.2929 8.89379 18.5371 9.45751 17.9779C10.0318 17.4057 10.7727 17.0887 11.5456 17.0895L11.5616 17.0892C11.9319 17.112 12.4888 17.2013 13.0189 17.5073C13.6251 17.8573 14.1172 18.4596 14.3526 19.1333L16.7967 19.1378C16.8787 18.7047 17.037 18.2933 17.2741 17.8828C17.7647 17.0331 18.5488 16.3721 19.4837 16.0208C20.391 15.679 21.3897 15.651 22.3064 15.9352L23.541 13.7966C22.7053 12.8177 22.5663 11.4391 23.2002 10.3412ZM22.2549 17.9071C21.0759 17.2264 19.5589 17.6362 18.8792 18.819C18.1957 20.0028 18.5983 21.5177 19.7773 22.1985C20.9563 22.8791 22.4696 22.4704 23.153 21.2866C23.8365 20.1027 23.4339 18.5878 22.2549 17.9071Z" fill="#007AFF"/>
<path d="M11.9118 24.2113C12.1778 23.7507 12.7035 23.6087 13.1623 23.8736L13.3857 24.0026L13.5015 24.1808C14.9806 26.8614 18.0251 28.6255 21.0786 28.5682L21.1007 28.5682L21.3154 28.5807L21.5459 28.7139C22.0356 28.9966 22.0977 29.5862 21.8796 29.9694C21.7763 30.1484 21.5445 30.3742 21.031 30.4183L21.0149 30.4185C19.1758 30.4641 17.3453 29.9896 15.7195 29.0509C14.0983 28.115 12.7759 26.766 11.8968 25.1542L11.889 25.1401C11.7411 24.8255 11.7479 24.4954 11.9118 24.2113ZM28.6632 14.3498C28.9073 14.2234 29.1533 14.1872 29.3747 14.2483L29.3904 14.2541C29.4808 14.284 29.5492 14.3139 29.6062 14.3469C29.7393 14.4237 29.8565 14.5391 29.9412 14.6834C31.8732 17.9024 31.8962 21.9413 30.0038 25.2244L29.8669 25.4891L29.8456 25.515C29.5306 25.874 29.0283 25.9755 28.6527 25.7586L28.5766 25.7147L28.559 25.7014C28.3338 25.5204 28.2021 25.2821 28.1768 25.0129C28.1563 24.8069 28.2155 24.6056 28.3588 24.4178L28.4111 24.3271C29.971 21.6254 29.9509 18.2787 28.3576 15.5927L28.3364 15.5582C28.2168 15.3809 28.1739 15.1589 28.222 14.9384C28.2674 14.7005 28.4245 14.4888 28.6506 14.3552L28.6632 14.3498ZM21.1976 9.57173C21.3554 9.56735 21.519 9.60773 21.6569 9.68735C21.7282 9.72849 21.8066 9.77383 21.8754 9.85802C22.0351 10.0408 22.1238 10.275 22.1251 10.5177C22.1297 10.7623 22.0356 10.9912 21.8597 11.1696C21.6814 11.3467 21.4439 11.4451 21.188 11.4437C18.0628 11.4056 15.1545 13.0615 13.5946 15.7633L13.5299 15.8755C13.4296 16.104 13.2347 16.2715 12.993 16.3388C12.7885 16.4021 12.5371 16.3874 12.2854 16.2963L12.2613 16.2887L12.2399 16.2763C11.8667 16.0609 11.6989 15.5885 11.8389 15.1538L11.848 15.1272L12.0092 14.8479C13.8915 11.5877 17.4107 9.56526 21.1976 9.57173Z" fill="#007AFF" fill-opacity="0.4"/>
</g>
<defs>
<clipPath id="clip0_2144_127">
<rect width="40" height="40" fill="white"/>
</clipPath>
</defs>
</svg>
