<svg width="40" height="40" viewBox="0 0 40 40" fill="none" xmlns="http://www.w3.org/2000/svg">
<g clip-path="url(#clip0_2144_176)">
<path d="M0 11.4286C0 5.11676 5.11676 0 11.4286 0H28.5714C34.8832 0 40 5.11676 40 11.4286V28.5714C40 34.8832 34.8832 40 28.5714 40H11.4286C5.11676 40 0 34.8832 0 28.5714V11.4286Z" fill="white"/>
<path d="M0 11.4286C0 5.11676 5.11676 0 11.4286 0H28.5714C34.8832 0 40 5.11676 40 11.4286V28.5714C40 34.8832 34.8832 40 28.5714 40H11.4286C5.11676 40 0 34.8832 0 28.5714V11.4286Z" fill="#007AFF" fill-opacity="0.1"/>
<path d="M15.2381 10.0952C15.2381 9.25365 15.9203 8.57141 16.7619 8.57141H23.2381C24.0797 8.57141 24.7619 9.25365 24.7619 10.0952V12.3809H15.2381V10.0952ZM15.2381 27.619H24.7619V29.9047C24.7619 30.7463 24.0797 31.4286 23.2381 31.4286H16.7619C15.9203 31.4286 15.2381 30.7463 15.2381 29.9047V27.619Z" fill="#007AFF" fill-opacity="0.4"/>
<path d="M20 29.0476C24.9969 29.0476 29.0476 24.9969 29.0476 20C29.0476 15.0032 24.9969 10.9524 20 10.9524C15.0031 10.9524 10.9524 15.0032 10.9524 20C10.9524 24.9969 15.0031 29.0476 20 29.0476ZM18.9143 15.3857C18.9143 14.7861 19.4004 14.3 20 14.3C20.5996 14.3 21.0857 14.7861 21.0857 15.3857V20.4524C21.0857 20.8097 20.9131 21.1268 20.6467 21.3246L18.156 23.4145C17.6967 23.7999 17.0119 23.74 16.6265 23.2807C16.241 22.8213 16.3009 22.1365 16.7603 21.7511L18.9143 19.9436V15.3857Z" fill="#007AFF"/>
</g>
<defs>
<clipPath id="clip0_2144_176">
<rect width="40" height="40" fill="white"/>
</clipPath>
</defs>
</svg>
