<svg width="40" height="40" viewBox="0 0 40 40" fill="none" xmlns="http://www.w3.org/2000/svg">
<g clip-path="url(#clip0_2144_215)">
<path d="M11.4286 0H28.5714C36.1905 0 40 3.80952 40 11.4286V28.5714C40 36.1905 36.1905 40 28.5714 40H11.4286C3.80952 40 0 36.1905 0 28.5714V11.4286C0 3.80952 3.80952 0 11.4286 0Z" fill="white"/>
<path d="M11.4286 0H28.5714C36.1905 0 40 3.80952 40 11.4286V28.5714C40 36.1905 36.1905 40 28.5714 40H11.4286C3.80952 40 0 36.1905 0 28.5714V11.4286C0 3.80952 3.80952 0 11.4286 0Z" fill="#FFCC00" fill-opacity="0.1"/>
<path d="M30.6766 23.1292C31.4273 23.5608 31.6543 24.4655 31.1821 25.1544C31.055 25.3398 30.8824 25.4975 30.6766 25.6164L20.8597 31.2521C20.336 31.551 19.673 31.551 19.1524 31.2521L9.32338 25.6054C8.57262 25.1738 8.34562 24.2691 8.81786 23.5802C8.945 23.3949 9.11752 23.2371 9.32338 23.1182C9.43483 23.0542 9.56112 23.0205 9.68966 23.0205C9.81819 23.0205 9.94447 23.0542 10.0559 23.1183L19.1494 28.3416C19.673 28.6404 20.336 28.6404 20.8567 28.3416L29.9156 23.1181L29.9333 23.1092C30.0492 23.0507 30.1778 23.022 30.3075 23.0255C30.4372 23.029 30.564 23.0646 30.6766 23.1292Z" fill="#FFCC00" fill-opacity="0.4"/>
<path d="M30.6766 18.9417C31.4273 19.3732 31.6544 20.278 31.1821 20.9669C31.055 21.1522 30.8825 21.3099 30.6766 21.4289L20.8597 27.0646C20.336 27.3634 19.673 27.3634 19.1524 27.0646L9.32338 21.4179C8.57267 20.9863 8.34562 20.0816 8.81786 19.3927C8.945 19.2073 9.11752 19.0496 9.32338 18.9306C9.43483 18.8666 9.56112 18.8329 9.68964 18.833C9.81817 18.833 9.94444 18.8667 10.0559 18.9308L19.1494 24.1568C19.673 24.4556 20.336 24.4556 20.8567 24.1568L29.7959 19.0292L29.9448 18.943C30.056 18.8786 30.1821 18.8446 30.3105 18.8443C30.4389 18.8441 30.5651 18.8777 30.6766 18.9417ZM20.8492 8.84886L30.6766 14.5013C31.4273 14.9333 31.6544 15.839 31.1821 16.5285C31.055 16.7141 30.8824 16.872 30.6766 16.9911L20.8613 22.6296C20.3376 22.9288 19.6746 22.9288 19.1539 22.6296L9.32343 16.9744C8.57267 16.5424 8.34557 15.6368 8.81786 14.9472C8.94505 14.7616 9.11762 14.6038 9.32343 14.4847L19.1448 8.84334C19.6685 8.54424 20.3315 8.54424 20.8523 8.84334L20.8492 8.84886Z" fill="#FFCC00"/>
</g>
<defs>
<clipPath id="clip0_2144_215">
<rect width="40" height="40" fill="white"/>
</clipPath>
</defs>
</svg>
