<svg width="40" height="40" viewBox="0 0 40 40" fill="none" xmlns="http://www.w3.org/2000/svg">
<g clip-path="url(#clip0_2700_41)">
<path d="M0 11.4286C0 5.11676 5.11676 0 11.4286 0H28.5714C34.8832 0 40 5.11676 40 11.4286V28.5714C40 34.8832 34.8832 40 28.5714 40H11.4286C5.11676 40 0 34.8832 0 28.5714V11.4286Z" fill="white"/>
<path d="M0 11.4286C0 5.11676 5.11676 0 11.4286 0H28.5714C34.8832 0 40 5.11676 40 11.4286V28.5714C40 34.8832 34.8832 40 28.5714 40H11.4286C5.11676 40 0 34.8832 0 28.5714V11.4286Z" fill="#007AFF" fill-opacity="0.1"/>
<path d="M21.1133 12.0561L21.295 11.8744C23.7715 9.39792 27.8156 9.39792 30.2921 11.8744C32.7685 14.3508 32.7685 18.395 30.2921 20.8714L30.1103 21.0532L21.1133 12.0561ZM22.6809 21.1441L26.3616 24.8247L29.0198 22.1665L18.705 11.8744C16.2285 9.3752 12.1844 9.3752 9.70793 11.8744C7.23147 14.3508 7.23147 18.395 9.70793 20.8714L19.3639 30.5274C19.7274 30.8909 20.2954 30.8909 20.6589 30.5274L22.9081 28.2781L19.2048 24.552C18.9549 24.3021 18.8867 23.8932 19.0912 23.5978C19.3639 23.1889 19.9318 23.1434 20.2499 23.4842L23.9533 27.1875L25.271 25.8698L21.5904 22.1665C21.295 21.8711 21.295 21.3713 21.6131 21.0759C21.9085 20.8033 22.3856 20.8487 22.6809 21.1441Z" fill="#007AFF" fill-opacity="0.15"/>
<path d="M18.1484 12.5L18.2832 12.5068C18.9488 12.566 19.5092 13.0236 19.7178 13.6641H19.7188L23.5195 25.2549L23.5215 25.2607C23.7933 26.1267 23.3441 27.0976 22.4795 27.4033L22.4785 27.4023C22.2999 27.4682 22.1203 27.5 21.9355 27.5C21.221 27.5 20.5981 27.0325 20.3672 26.3604L20.3652 26.3535L19.7158 24.374H16.4072L15.7158 26.3789L15.7139 26.3867L15.7109 26.3945C15.4641 27.0405 14.8558 27.4717 14.165 27.4717C13.9691 27.4716 13.7773 27.4346 13.5986 27.3691L13.5947 27.3682C12.7449 27.0487 12.3123 26.1088 12.5781 25.2422L12.5811 25.2344L12.584 25.2256L16.5762 13.6396L16.624 13.5156C16.8853 12.9106 17.4749 12.5001 18.1445 12.5H18.1484ZM25.8359 12.5107C26.7573 12.5107 27.5 13.2642 27.5 14.1816V25.7461C27.495 26.6619 26.7533 27.4102 25.8359 27.4102C24.9146 27.4101 24.1719 26.6567 24.1719 25.7393V14.1816C24.1719 13.2642 24.9146 12.5108 25.8359 12.5107ZM17.5879 20.9434H18.5928L18.1016 19.4473L17.5879 20.9434Z" fill="#007AFF" stroke="#E5F2FF"/>
</g>
<defs>
<clipPath id="clip0_2700_41">
<rect width="40" height="40" fill="white"/>
</clipPath>
</defs>
</svg>
