<svg width="40" height="40" viewBox="0 0 40 40" fill="none" xmlns="http://www.w3.org/2000/svg">
<g clip-path="url(#clip0_2144_248)">
<path d="M0 11.4286C0 5.11676 5.11676 0 11.4286 0H28.5714C34.8832 0 40 5.11676 40 11.4286V28.5714C40 34.8832 34.8832 40 28.5714 40H11.4286C5.11676 40 0 34.8832 0 28.5714V11.4286Z" fill="white"/>
<path d="M0 11.4286C0 5.11676 5.11676 0 11.4286 0H28.5714C34.8832 0 40 5.11676 40 11.4286V28.5714C40 34.8832 34.8832 40 28.5714 40H11.4286C5.11676 40 0 34.8832 0 28.5714V11.4286Z" fill="#007AFF" fill-opacity="0.1"/>
<path d="M0 11.4286C0 5.11676 5.11676 0 11.4286 0H28.5714C34.8832 0 40 5.11676 40 11.4286V28.5714C40 34.8832 34.8832 40 28.5714 40H11.4286C5.11676 40 0 34.8832 0 28.5714V11.4286Z" fill="white"/>
<path d="M0 11.4286C0 5.11676 5.11676 0 11.4286 0H28.5714C34.8832 0 40 5.11676 40 11.4286V28.5714C40 34.8832 34.8832 40 28.5714 40H11.4286C5.11676 40 0 34.8832 0 28.5714V11.4286Z" fill="#007AFF" fill-opacity="0.1"/>
<path d="M29.5478 22.9421L31.3714 21.3093C31.4027 21.3559 31.4199 21.3706 31.4199 21.384C31.4566 22.6192 31.1122 23.7025 30.2025 24.5437C29.7112 24.9983 29.1187 25.2128 28.4629 25.2397C28.4195 25.2351 28.3759 25.2465 28.3402 25.2716C28.3039 25.2972 28.2776 25.3347 28.2658 25.3776C28.1792 25.5625 28.0824 25.7425 27.9758 25.9167C27.9439 25.9737 27.909 26.0295 27.8575 26.1171L30.0474 25.4793C29.5928 26.815 28.6991 27.7463 27.2473 27.957C26.7481 28.0201 26.2418 27.9931 25.7522 27.8774C25.6966 27.8642 25.6381 27.8712 25.5871 27.897C25.2319 28.1108 24.8839 28.3314 24.5329 28.5507C24.514 28.5624 24.4968 28.5777 24.4601 28.6046C25.0248 28.65 25.5675 28.6849 26.1085 28.7395C26.6495 28.794 27.1869 28.8675 27.7782 28.9392C27.6627 29.0403 27.5828 29.1175 27.4958 29.1843C26.8543 29.686 26.1582 30.0616 25.3408 30.1315C24.453 30.2068 23.6771 29.9036 22.9977 29.3246C22.9631 29.2902 22.9193 29.2666 22.8716 29.2566C22.8242 29.2469 22.775 29.2513 22.7301 29.2694C22.304 29.3822 21.8713 29.4686 21.441 29.5654C21.3795 29.5751 21.3223 29.6033 21.2771 29.6462C21.3296 29.6738 21.3835 29.6985 21.4387 29.7204C22.1169 29.9514 22.7887 30.1995 23.4013 30.5855C23.5936 30.708 23.7653 30.8636 23.9772 31.0285C23.6345 31.2233 23.3261 31.3446 22.9917 31.3563C21.9856 31.3912 20.9735 31.4292 19.9643 31.4286C18.9303 31.4286 17.8957 31.3955 16.8629 31.3471C16.6019 31.3348 16.3462 31.2055 16.0876 31.1302L16.0722 31.0511C16.2227 30.9136 16.3808 30.7845 16.5456 30.6645C17.1843 30.2466 17.8904 29.9869 18.6042 29.7455C18.6753 29.7259 18.7408 29.6898 18.7954 29.6401C18.4236 29.5666 18.0514 29.4979 17.6809 29.4171C17.4992 29.3773 17.3116 29.2516 17.1482 29.2811C16.9848 29.3105 16.8635 29.4979 16.712 29.599C15.5484 30.3796 14.3652 30.3398 13.1815 29.6603C12.8642 29.4765 12.5742 29.2431 12.2718 29.0323L12.2913 28.9441L15.5324 28.6212C15.5194 28.6126 15.4904 28.5899 15.4596 28.5709C15.1246 28.3608 14.7919 28.1464 14.4534 27.9448C14.3808 27.91 14.2985 27.9011 14.2202 27.9196C13.3419 28.1126 12.4872 28.063 11.6752 27.6396C11.0279 27.3136 10.5111 26.7638 10.2138 26.0853C10.1387 25.9161 10.0594 25.7489 9.96998 25.5559C10.7055 25.6806 11.4241 25.8901 12.1114 26.1802L12.1427 26.1257C12.0972 26.0491 12.0492 25.9744 12.0066 25.8959C11.91 25.7303 11.8221 25.5597 11.7432 25.3849C11.7342 25.3474 11.7121 25.3144 11.6811 25.2915C11.6505 25.2691 11.6128 25.2587 11.5751 25.2624C10.4743 25.2312 9.67641 24.6748 9.12541 23.7178C8.72827 23.031 8.58441 22.2676 8.57141 21.4747C8.57665 21.4173 8.58513 21.3602 8.59684 21.3038L10.4772 22.9819C10.3216 22.6346 10.2996 22.2522 10.0209 21.9716C9.14198 21.0875 8.7407 19.9736 8.62703 18.7385C8.58441 18.2807 8.59803 17.8194 8.58974 17.3574C8.5946 17.2929 8.60489 17.2289 8.62055 17.1663C8.85727 17.2006 9.01946 17.3372 9.17274 17.4849C9.52789 17.8261 9.78417 18.2403 10.0233 18.6692C10.0523 18.7213 10.0825 18.7721 10.1334 18.8567C10.1486 18.8134 10.1606 18.7689 10.1695 18.7237C10.1866 18.4878 10.2073 18.2514 10.215 18.0148C10.22 17.9383 10.2011 17.8622 10.1612 17.7967C9.43555 16.8164 9.29703 15.7552 9.74684 14.6199C9.89422 14.2523 10.0931 13.9006 10.2689 13.5422L10.3576 13.552C10.5186 14.3026 10.6802 15.0537 10.843 15.8116C10.8584 15.7834 10.8821 15.7406 10.9022 15.697C11.0519 15.4121 11.204 15.1285 11.3479 14.8393C11.3836 14.7783 11.3977 14.7071 11.3881 14.6371C11.0656 13.6071 11.2585 12.6575 11.7752 11.7452C12.0557 11.2507 12.4724 10.9064 12.8997 10.5694C12.9405 10.543 12.9832 10.5199 13.0276 10.5002C13.1679 11.2617 13.1756 11.9945 12.8424 12.7059L12.9015 12.7346C13.0607 12.5993 13.2123 12.4528 13.3809 12.3321C13.5638 12.2016 13.6147 12.0454 13.61 11.815C13.5928 10.9125 13.9651 10.1865 14.6162 9.60379C15.1488 9.12836 15.7756 8.84465 16.4421 8.63941C16.4641 8.63632 16.4864 8.63632 16.5084 8.63941C16.0396 9.32684 15.5578 9.99593 15.2755 10.8494C15.3939 10.812 15.4732 10.8041 15.533 10.7661C15.8011 10.597 16.081 10.4414 16.3243 10.2398C16.8825 9.77598 17.5335 9.56889 18.2183 9.45493C18.8273 9.35322 19.4239 9.39793 19.9939 9.66384C20.0411 9.68639 20.0953 9.68947 20.1448 9.67241C21.0676 9.21965 21.9826 9.3477 22.8869 9.72451C23.119 9.82132 23.3308 9.97265 23.5445 10.1117C23.8464 10.3072 24.1364 10.5179 24.4394 10.7158C24.5154 10.7582 24.6004 10.7818 24.6874 10.7845C24.4589 9.95551 23.96 9.2846 23.4782 8.57141C24.4737 8.89551 25.3764 9.31951 25.9676 10.2398C26.2948 10.734 26.4487 11.3292 26.4038 11.9265C26.3953 11.9777 26.4013 12.0302 26.4213 12.0781C26.441 12.1254 26.474 12.166 26.5163 12.1949C26.6655 12.3113 26.8022 12.4448 26.9454 12.5692C27.0029 12.6204 27.0699 12.6597 27.1425 12.685C26.8336 11.9633 26.8495 11.2299 26.9786 10.4707C27.0333 10.4963 27.0862 10.5253 27.1372 10.5577C28.2292 11.3579 28.8228 12.4289 28.7701 13.8345C28.7625 14.0856 28.6784 14.3307 28.6358 14.5832C28.6198 14.646 28.6223 14.7122 28.6429 14.7737C28.8027 15.0954 28.9714 15.4115 29.1383 15.7295C29.1483 15.7458 29.16 15.761 29.1732 15.7748C29.335 15.0261 29.4966 14.2768 29.6579 13.5269L29.7366 13.5207C29.8621 13.7517 29.9947 13.9784 30.1113 14.2137C30.5848 15.1726 30.6931 16.1516 30.2297 17.1497C30.1351 17.3515 30.0199 17.5428 29.8858 17.7207C29.8479 17.7678 29.8207 17.8225 29.8061 17.8812C29.7914 17.9402 29.7895 18.0016 29.8006 18.0614C29.8319 18.3065 29.8438 18.5516 29.8675 18.8426C30.2889 18.1687 30.6126 17.4407 31.3815 17.1111C31.4012 17.1708 31.4153 17.2324 31.4235 17.2949C31.4276 18.0626 31.4614 18.8334 31.2785 19.5888C31.0711 20.4739 30.633 21.2831 30.0119 21.9281C29.8783 22.0661 29.7798 22.2342 29.7248 22.4183C29.6704 22.5911 29.6088 22.7632 29.5478 22.9421ZM15.4614 13.2211C15.2045 13.6182 14.3451 14.2695 13.6567 14.6456C13.1868 14.9006 12.6926 15.0984 12.1605 15.1193C12.0392 15.1174 11.9201 15.1519 11.8186 15.2184C11.7155 15.286 11.6343 15.382 11.5846 15.4948C11.3935 15.8766 11.2295 16.273 11.059 16.6657C11.0371 16.7166 11.0425 16.7803 11.0283 16.8955C11.1413 16.8029 11.2106 16.7472 11.2792 16.6902C11.7746 16.2754 12.2854 15.8845 12.9246 15.7399C13.1125 15.6875 13.3132 15.7062 13.4881 15.7926C13.4814 15.8221 13.4719 15.8508 13.4596 15.8784C13.1241 16.4114 12.8181 16.9671 12.4428 17.4714C12.0404 18.0099 11.5385 18.4425 10.8702 18.6153C10.8397 18.63 10.8131 18.6518 10.7927 18.6789C10.7721 18.7064 10.7581 18.7383 10.7518 18.7721C10.6974 19.3175 10.6536 19.8634 10.6092 20.4086C10.6092 20.4246 10.6294 20.4429 10.656 20.4834C11.0034 19.5074 11.5935 18.8071 12.5464 18.4462C12.5571 18.5234 12.5647 18.5687 12.5683 18.6098C12.5718 18.6508 12.5683 18.6845 12.5683 18.7219C12.5665 19.4888 12.3671 20.2413 11.9906 20.9018C11.7012 21.4036 11.3396 21.8614 11.0158 22.3423C10.9956 22.3699 10.9808 22.4011 10.9725 22.4343C10.964 22.4676 10.9621 22.5024 10.9667 22.5365C11.0851 22.8906 11.2147 23.2405 11.3473 23.5885C11.3867 23.6623 11.4339 23.7318 11.4881 23.7956C11.6231 23.1584 11.7545 22.5739 12.0409 22.0452C12.1341 21.8949 12.2362 21.7504 12.3469 21.6126L12.4174 21.6377C12.4961 21.9373 12.5949 22.2338 12.6506 22.5384C12.808 23.3857 12.7962 24.2067 12.2434 24.9279C12.2281 24.9589 12.2202 24.9929 12.2203 25.0275C12.2203 25.062 12.2282 25.0962 12.2434 25.127C12.4747 25.5281 12.7127 25.9254 12.9572 26.3187C13.0336 26.4227 13.1187 26.5201 13.2116 26.6097C13.246 25.6839 13.2324 24.7826 13.4076 23.8685C13.4999 23.9194 13.5721 23.9512 13.636 23.9954C13.9231 24.1933 14.1006 24.4806 14.2403 24.798C14.5199 25.4324 14.6614 26.1226 14.6546 26.8199C14.6499 27.31 14.8523 27.5998 15.1974 27.8492C15.2909 27.9172 15.3897 27.976 15.4862 28.0391C15.3223 27.1544 15.1003 26.3089 15.0482 25.4046C15.5613 25.6569 16.0089 26.0323 16.3539 26.4994C16.8197 27.1054 17.0896 27.8002 17.2192 28.5568C17.2393 28.6751 17.2784 28.7468 17.3968 28.7799C17.6756 28.8601 17.9507 28.9545 18.2307 29.0317C18.3207 29.0562 18.4207 29.0439 18.5663 29.0513C17.9709 28.3626 17.4193 27.7205 17.1659 26.8395C17.2672 26.8627 17.337 26.875 17.4027 26.8946C18.3935 27.1826 19.1422 27.8094 19.6814 28.6959C19.8874 29.0341 20.1176 28.9949 20.3046 28.6929C20.7965 27.8964 21.4481 27.2947 22.3128 26.9602C22.4756 26.8989 22.6473 26.8585 22.852 26.7978C22.5839 27.7101 22.0216 28.3614 21.4742 29.0396C21.8435 28.9723 22.1945 28.8693 22.5478 28.7737C22.7136 28.7284 22.781 28.6297 22.8136 28.4508C23.0248 27.2929 23.5635 26.3383 24.501 25.6447C24.6406 25.5418 24.7969 25.4609 24.9745 25.3525C24.9117 26.2776 24.6975 27.1256 24.4903 28.0079C24.7957 27.8915 24.9745 27.6758 25.1739 27.4883C25.2301 27.4418 25.2746 27.3827 25.3036 27.3158C25.3331 27.2485 25.3466 27.1749 25.3432 27.1011C25.342 26.8758 25.3551 26.6506 25.3823 26.4271C25.4503 25.7654 25.5723 25.1166 25.8931 24.5278C26.0558 24.2288 26.2659 23.9764 26.6122 23.844C26.7808 24.7502 26.7744 25.6502 26.7673 26.5816C26.8062 26.5575 26.8432 26.5305 26.8779 26.5006C27.2697 26.0718 27.5574 25.5779 27.7924 25.0474C27.8143 24.9983 27.7787 24.9107 27.7497 24.8513C27.6314 24.6136 27.4698 24.3917 27.3946 24.1412C27.1484 23.295 27.3082 22.4728 27.5965 21.6665C27.6103 21.6376 27.627 21.6101 27.6462 21.5844C27.9646 21.857 28.1031 22.2253 28.2226 22.5978C28.3422 22.9703 28.4339 23.3551 28.5428 23.7533C28.5709 23.7211 28.5955 23.6859 28.6163 23.6486C28.766 23.2601 28.9163 22.8716 29.0572 22.4802C29.0605 22.4514 29.0582 22.4223 29.0504 22.3945C29.0426 22.3668 29.0294 22.341 29.0116 22.3184C28.8754 22.1275 28.7345 21.9399 28.589 21.7559C28.048 21.071 27.6757 20.3002 27.5236 19.4277C27.4645 19.1024 27.4603 18.7672 27.4266 18.3935C28.4327 18.7685 29.0152 19.478 29.3797 20.4215C29.4247 19.818 29.4016 19.2323 29.2401 18.66C29.2282 18.6171 29.1578 18.5859 29.1087 18.5607C28.8299 18.4168 28.5221 18.3157 28.2747 18.1264C27.5485 17.5749 27.0644 16.8109 26.64 16.004C26.5986 15.9249 26.5654 15.8416 26.5068 15.7142C27.5722 15.5677 28.2233 16.2895 28.9737 16.8275C28.9807 16.783 28.9807 16.7377 28.9737 16.6933C28.7772 16.2521 28.5878 15.8073 28.3742 15.3754C28.2759 15.1768 28.0996 15.0923 27.8652 15.0844C27.6232 15.0703 27.3843 15.0235 27.1549 14.9453C26.3008 14.6781 25.5788 14.169 24.8987 13.5881C24.7726 13.4803 24.6543 13.3626 24.4986 13.2205C25.4456 13.2205 26.3062 13.37 27.133 13.7303C26.8276 13.2646 26.4458 12.8927 26.0422 12.5447C25.9984 12.5036 25.9444 12.4748 25.8858 12.4614C25.8276 12.4482 25.7669 12.451 25.7102 12.4694C24.7425 12.7145 23.7766 12.6311 22.8177 12.4173C22.5348 12.356 22.2548 12.2451 22.0175 12.0043C22.9325 11.5062 23.8848 11.3953 24.8738 11.5142C24.8738 11.4744 24.8738 11.4603 24.8697 11.4529C24.8543 11.4259 24.8354 11.4015 24.8176 11.3763C24.6401 11.1264 24.3684 11.0277 24.1074 10.9125C23.9059 10.8298 23.6872 10.7981 23.4706 10.82C23.1403 10.847 22.808 10.8359 22.4803 10.7869C21.6725 10.6496 20.9326 10.3072 20.2283 9.88379C20.1898 9.85708 20.1442 9.84243 20.0974 9.8417C20.0506 9.84112 20.0047 9.8545 19.9655 9.88013C19.5305 10.0964 19.0984 10.3231 18.6492 10.5038C17.975 10.7771 17.2766 10.9609 16.5427 10.8537C16.3392 10.8208 16.1305 10.8469 15.9414 10.9291C15.7609 11.0015 15.587 11.0894 15.4217 11.1919C15.3033 11.2709 15.2157 11.3977 15.1139 11.5031L15.1476 11.5448C16.1337 11.4364 17.086 11.5319 18.0005 12.0393C17.9459 12.0953 17.8849 12.1446 17.8188 12.1863C17.6093 12.2831 17.4045 12.4038 17.1819 12.4522C16.2106 12.666 15.2335 12.7408 14.2527 12.4969C14.2139 12.4889 14.1738 12.4891 14.135 12.4974C14.096 12.5058 14.0591 12.5221 14.0266 12.5454C13.8121 12.7178 13.6072 12.9019 13.4129 13.0967C13.2282 13.2861 13.0655 13.4981 12.8607 13.7383C13.3342 13.6047 13.7485 13.4619 14.1711 13.378C14.5937 13.294 15.0316 13.272 15.4631 13.2211H15.4614Z" fill="#007AFF" fill-opacity="0.4"/>
<path d="M13.8095 19.4795C13.8095 18.7436 14.0812 18.0851 14.6247 17.5041C14.7411 17.3878 14.8576 17.2329 14.9352 17.1168C15.6727 16.1871 16.5267 15.3737 17.4194 14.599C17.6911 14.3666 17.924 14.1342 18.1957 13.9405C18.5839 13.6307 19.0497 13.437 19.5931 13.3595C20.5247 13.2433 21.3398 13.5145 22.0385 14.1729C22.3102 14.4053 22.5819 14.6378 22.8925 14.8701C23.7853 15.6448 24.6004 16.4582 25.2991 17.3878C25.4155 17.5428 25.5708 17.6978 25.6872 17.8914C26.1142 18.5112 26.2695 19.2471 26.153 19.983C26.0754 20.6028 25.8037 21.1063 25.3767 21.5711L24.678 22.3846C24.1734 22.9656 23.6688 23.5078 23.0866 24.0114C22.776 24.2826 22.4655 24.5149 22.155 24.7861C21.9609 24.941 21.8056 25.0959 21.6116 25.2122C20.9517 25.6382 20.253 25.7932 19.4767 25.677C18.8556 25.5995 18.351 25.3284 17.8852 24.9023C17.7687 24.7861 17.6523 24.7086 17.497 24.5924C16.7207 23.9727 15.9832 23.2755 15.3233 22.5008C15.0905 22.1909 14.8187 21.9198 14.5858 21.6099C14.547 21.4937 14.3917 21.3 14.2753 21.1063C13.9648 20.6415 13.8095 20.0993 13.8095 19.4795ZM19.1625 20.4123V22.5668C19.1625 22.838 19.3178 22.9929 19.5895 22.9929H20.4507C20.5283 22.9929 20.6059 22.9542 20.6447 22.9155C20.8 22.7605 20.8777 22.5668 20.8777 22.3345V20.4898C20.8777 20.4123 20.8777 20.4123 20.9553 20.4123H23.115C23.3091 20.4123 23.4643 20.2574 23.5031 20.0637V19.1665C23.5031 19.089 23.4643 19.0115 23.4255 18.934C23.3479 18.8178 23.1926 18.7791 23.0374 18.7791H20.8777V16.6246C20.8777 16.3147 20.7224 16.1598 20.4118 16.1598H19.6283C19.5507 16.1598 19.4731 16.1598 19.3954 16.1985C19.2402 16.2759 19.1625 16.4309 19.1625 16.5858V18.7404H17.0028C16.7311 18.7404 16.5758 18.8953 16.5758 19.1665V19.9862C16.5758 20.1025 16.6147 20.1799 16.6535 20.2574C16.7311 20.3736 16.8864 20.4123 17.0417 20.4123H19.1625Z" fill="#007AFF"/>
</g>
<defs>
<clipPath id="clip0_2144_248">
<rect width="40" height="40" fill="white"/>
</clipPath>
</defs>
</svg>
