<svg width="40" height="40" viewBox="0 0 40 40" fill="none" xmlns="http://www.w3.org/2000/svg">
<g clip-path="url(#clip0_2898_142)">
<mask id="mask0_2898_142" style="mask-type:luminance" maskUnits="userSpaceOnUse" x="0" y="0" width="40" height="40">
<path d="M40 0H0V40H40V0Z" fill="white"/>
</mask>
<g mask="url(#mask0_2898_142)">
<path d="M0 11.4286C0 5.11676 5.11676 0 11.4286 0H28.5714C34.8832 0 40 5.11676 40 11.4286V28.5714C40 34.8832 34.8832 40 28.5714 40H11.4286C5.11676 40 0 34.8832 0 28.5714V11.4286Z" fill="white"/>
<path d="M0 11.4286C0 5.11676 5.11676 0 11.4286 0H28.5714C34.8832 0 40 5.11676 40 11.4286V28.5714C40 34.8832 34.8832 40 28.5714 40H11.4286C5.11676 40 0 34.8832 0 28.5714V11.4286Z" fill="#FFCC00" fill-opacity="0.1"/>
<path fill-rule="evenodd" clip-rule="evenodd" d="M19.7884 12.9251C19.7884 14.5281 21.0374 15.8277 22.5781 15.8277H27.2857V20.0037C27.2097 20.0013 27.1335 20 27.0569 20C23.0137 20 19.7359 23.4112 19.7359 27.619C19.7359 29.0068 20.0925 30.3079 20.7154 31.4286H10.6056C9.48213 31.4286 8.57141 30.481 8.57141 29.3121V10.6878C8.57141 9.51893 9.48213 8.57141 10.6056 8.57141H19.7884V12.9251ZM12.6978 25.3817C12.1201 25.3817 11.6517 25.869 11.6517 26.4701C11.6517 27.0712 12.1201 27.5585 12.6978 27.5585H15.1603C15.7381 27.5585 16.3271 27.0712 16.3271 26.4701C16.3271 25.869 15.7381 25.3817 15.1603 25.3817H12.6978ZM12.6978 19.5162C12.1201 19.5162 11.6517 20.0035 11.6517 20.6046C11.6517 21.2057 12.1201 21.6931 12.6978 21.6931H20.651C21.2288 21.6931 21.795 21.2057 21.795 20.6046C21.7949 20.0035 21.2288 19.5162 20.651 19.5162H12.6978Z" fill="#FFCC00"/>
<path d="M27.2857 13.8322H22.2875C21.8702 13.8322 21.532 13.4802 21.532 13.0461V8.96448L27.2857 13.8322Z" fill="#FFCC00"/>
<path d="M24.4103 27.7418C24.3326 27.9692 24.2903 28.2146 24.2903 28.4704C24.2903 29.5633 25.0623 30.4653 26.0604 30.5986L25.4279 27.77H27.1911L26.5583 30.6006C27.5634 30.4741 28.343 29.5686 28.343 28.4704C28.343 28.2161 28.3012 27.9722 28.2244 27.7458C30.0783 28.222 31.3936 29.4102 31.4279 31.0974H31.4286V31.4286H21.1905V31.0974H21.1912C21.2255 29.4055 22.5483 28.2153 24.4103 27.7418Z" fill="#FFCC00" fill-opacity="0.4"/>
<path d="M26.2989 21.8572C27.0154 21.8572 27.7026 22.141 28.2093 22.6463C28.7159 23.1516 29.0005 23.8368 29.0005 24.5514C29.0005 25.2659 28.7159 25.9512 28.2093 26.4564C27.7026 26.9617 27.0154 27.2455 26.2989 27.2455C25.5824 27.2455 24.8951 26.9617 24.3885 26.4564C23.8818 25.9512 23.5972 25.2659 23.5972 24.5514C23.5972 23.8368 23.8818 23.1516 24.3885 22.6463C24.8951 22.141 25.5824 21.8572 26.2989 21.8572Z" fill="#FFCC00" fill-opacity="0.4"/>
</g>
</g>
<defs>
<clipPath id="clip0_2898_142">
<rect width="40" height="40" fill="white"/>
</clipPath>
</defs>
</svg>
