<svg width="40" height="40" viewBox="0 0 40 40" fill="none" xmlns="http://www.w3.org/2000/svg">
<g clip-path="url(#clip0_2144_71)">
<path d="M0 11.4286C0 5.11676 5.11676 0 11.4286 0H28.5714C34.8832 0 40 5.11676 40 11.4286V28.5714C40 34.8832 34.8832 40 28.5714 40H11.4286C5.11676 40 0 34.8832 0 28.5714V11.4286Z" fill="white"/>
<path d="M0 11.4286C0 5.11676 5.11676 0 11.4286 0H28.5714C34.8832 0 40 5.11676 40 11.4286V28.5714C40 34.8832 34.8832 40 28.5714 40H11.4286C5.11676 40 0 34.8832 0 28.5714V11.4286Z" fill="#38CDB8" fill-opacity="0.1"/>
<path d="M13.619 29.619H27.5238C28.127 29.619 28.4286 29.9206 28.4286 30.5238C28.4286 31.127 28.127 31.4285 27.5238 31.4285H13.619C13.0159 31.4285 12.7143 31.127 12.7143 30.5238C12.7143 29.9206 13.0159 29.619 13.619 29.619Z" fill="#38CDB8" fill-opacity="0.4"/>
<path d="M12.4397 22.8362L16.6851 25.2873C17.1158 25.536 17.2068 25.8757 16.9582 26.3064L16.9582 26.3063C16.7095 26.737 16.3698 26.8281 15.9391 26.5794L11.6937 24.1283C11.263 23.8796 11.172 23.54 11.4206 23.1092L11.4206 23.1093C11.6693 22.6786 12.009 22.5876 12.4397 22.8362Z" fill="#38CDB8" fill-opacity="0.4"/>
<path d="M22.8807 8.6428C22.7828 8.58628 22.6665 8.57096 22.5572 8.60022C22.448 8.62947 22.3549 8.7009 22.2984 8.7988L21.5938 10.0192C20.6286 9.64009 19.5052 10.0133 18.971 10.9386L13.6425 20.1678L13.5673 22.2164L16.5289 23.9262L18.2571 22.8321L20.9001 18.2544C21.3988 18.3914 21.945 18.6513 22.4235 19.0636C23.1517 19.6909 23.7609 20.7019 23.7609 22.2997C23.7609 23.8144 22.7776 25.5447 21.5943 27.0276C21.0256 27.7403 20.454 28.3428 20.0237 28.7673C19.8556 28.9336 19.6841 29.0965 19.5095 29.2559C19.4636 29.2979 19.4172 29.3395 19.3705 29.3806C19.3551 29.3942 19.3438 29.404 19.3369 29.4101L19.3297 29.4162L19.3294 29.4165L19.3291 29.4168L19.329 29.4169C19.2591 29.4765 19.1966 29.5444 19.1429 29.619H22.3786C22.6956 29.2753 23.0379 28.8832 23.3809 28.4533C24.6138 26.9083 26.0466 24.6457 26.0466 22.2997C26.0466 20.0368 25.1478 18.3936 23.9154 17.3319C23.342 16.8378 22.7042 16.4762 22.0667 16.2338L23.5856 13.6029C24.1199 12.6775 23.8814 11.5181 23.0704 10.8718L23.7751 9.65137C23.8316 9.55347 23.8469 9.43712 23.8176 9.32793C23.7884 9.21873 23.7169 9.12562 23.6191 9.06909L22.8807 8.6428Z" fill="#38CDB8"/>
</g>
<defs>
<clipPath id="clip0_2144_71">
<rect width="40" height="40" fill="white"/>
</clipPath>
</defs>
</svg>
