<svg width="40" height="40" viewBox="0 0 40 40" fill="none" xmlns="http://www.w3.org/2000/svg">
<g clip-path="url(#clip0_2144_102)">
<path d="M0 11.4286C0 5.11676 5.11676 0 11.4286 0H28.5714C34.8832 0 40 5.11676 40 11.4286V28.5714C40 34.8832 34.8832 40 28.5714 40H11.4286C5.11676 40 0 34.8832 0 28.5714V11.4286Z" fill="white"/>
<path d="M0 11.4286C0 5.11676 5.11676 0 11.4286 0H28.5714C34.8832 0 40 5.11676 40 11.4286V28.5714C40 34.8832 34.8832 40 28.5714 40H11.4286C5.11676 40 0 34.8832 0 28.5714V11.4286Z" fill="#38CDB8" fill-opacity="0.1"/>
<path d="M12.7619 11.4286H14.7619V13.7143C14.7619 14.1351 15.103 14.4762 15.5238 14.4762H24.4762C24.897 14.4762 25.2381 14.1351 25.2381 13.7143V11.4286H27.2381C28.5005 11.4286 29.5238 12.4519 29.5238 13.7143V29.1429C29.5238 30.4053 28.5005 31.4286 27.2381 31.4286H12.7619C11.4995 31.4286 10.4762 30.4053 10.4762 29.1429V13.7143C10.4762 12.4519 11.4995 11.4286 12.7619 11.4286ZM15.1429 17.9048C14.6695 17.9048 14.2857 18.2885 14.2857 18.7619C14.2857 19.2353 14.6695 19.6191 15.1429 19.6191H24.8571C25.3305 19.6191 25.7143 19.2353 25.7143 18.7619C25.7143 18.2885 25.3305 17.9048 24.8571 17.9048H15.1429ZM14.2857 22.381C14.2857 22.8544 14.6695 23.2381 15.1429 23.2381H22.9524C23.4258 23.2381 23.8095 22.8544 23.8095 22.381C23.8095 21.9076 23.4258 21.5238 22.9524 21.5238H15.1429C14.6695 21.5238 14.2857 21.9076 14.2857 22.381ZM15.1429 25.1429C14.6695 25.1429 14.2857 25.5266 14.2857 26C14.2857 26.4734 14.6695 26.8572 15.1429 26.8572H20.0952C20.5686 26.8572 20.9524 26.4734 20.9524 26C20.9524 25.5266 20.5686 25.1429 20.0952 25.1429H15.1429Z" fill="#38CDB8"/>
<path d="M21.7038 10.4762C21.7107 10.4136 21.7143 10.3501 21.7143 10.2857C21.7143 9.33894 20.9468 8.57141 20 8.57141C19.0532 8.57141 18.2857 9.33894 18.2857 10.2857C18.2857 10.3501 18.2893 10.4136 18.2962 10.4762H16.4762C16.0554 10.4762 15.7143 10.8173 15.7143 11.2381V12.7619C15.7143 13.1827 16.0554 13.5238 16.4762 13.5238H23.5238C23.9446 13.5238 24.2857 13.1827 24.2857 12.7619V11.2381C24.2857 10.8173 23.9446 10.4762 23.5238 10.4762H21.7038Z" fill="#38CDB8" fill-opacity="0.4"/>
</g>
<defs>
<clipPath id="clip0_2144_102">
<rect width="40" height="40" fill="white"/>
</clipPath>
</defs>
</svg>
