<svg width="40" height="40" viewBox="0 0 40 40" fill="none" xmlns="http://www.w3.org/2000/svg">
<g clip-path="url(#clip0_2144_109)">
<path d="M11.4286 0H28.5714C36.1905 0 40 3.80952 40 11.4286V28.5714C40 36.1905 36.1905 40 28.5714 40H11.4286C3.80952 40 0 36.1905 0 28.5714V11.4286C0 3.80952 3.80952 0 11.4286 0Z" fill="white"/>
<path d="M11.4286 0H28.5714C36.1905 0 40 3.80952 40 11.4286V28.5714C40 36.1905 36.1905 40 28.5714 40H11.4286C3.80952 40 0 36.1905 0 28.5714V11.4286C0 3.80952 3.80952 0 11.4286 0Z" fill="#38CDB8" fill-opacity="0.1"/>
<path d="M23.1336 12.3809V11.9629C23.1336 11.0097 22.3609 10.237 21.4077 10.237H18.6556C18.0961 9.26978 17.0503 8.61902 15.8525 8.61902C14.6547 8.61902 13.6089 9.26983 13.0494 10.237H10.2973C9.34416 10.237 8.57144 11.0097 8.57144 11.9629V27.388C8.57144 28.3412 9.34416 29.1139 10.2973 29.1139H15V27.388H10.2973V11.9629H21.4077V12.3809H23.1336Z" fill="#38CDB8" fill-opacity="0.4"/>
<path d="M17.7619 13.381H25.2857V16.8096C25.2857 18.0719 26.3091 19.0953 27.5714 19.0953H31.4286V29.7143C31.4286 30.6348 30.6824 31.381 29.7619 31.381H17.7619C16.8414 31.381 16.0952 30.6348 16.0952 29.7143V15.0476C16.0952 14.1272 16.8414 13.381 17.7619 13.381ZM18.6191 22.8572C18.6191 23.3306 19.0028 23.7143 19.4762 23.7143H28C28.4734 23.7143 28.8572 23.3306 28.8572 22.8572C28.8572 22.3838 28.4734 22 28 22H19.4762C19.0028 22 18.6191 22.3838 18.6191 22.8572ZM19.4762 26.6191C19.0028 26.6191 18.6191 27.0028 18.6191 27.4762C18.6191 27.9496 19.0028 28.3334 19.4762 28.3334H28C28.4734 28.3334 28.8572 27.9496 28.8572 27.4762C28.8572 27.0028 28.4734 26.6191 28 26.6191H19.4762Z" fill="#38CDB8"/>
<path d="M31.4286 17.5238L26.7143 13.6904V16.9047C26.7143 17.2466 26.9914 17.5238 27.3333 17.5238H31.4286Z" fill="#38CDB8"/>
</g>
<defs>
<clipPath id="clip0_2144_109">
<rect width="40" height="40" fill="white"/>
</clipPath>
</defs>
</svg>
