<svg width="40" height="40" viewBox="0 0 40 40" fill="none" xmlns="http://www.w3.org/2000/svg">
<g clip-path="url(#clip0_2144_121)">
<path d="M0 11.4286C0 5.11676 5.11676 0 11.4286 0H28.5714C34.8832 0 40 5.11676 40 11.4286V28.5714C40 34.8832 34.8832 40 28.5714 40H11.4286C5.11676 40 0 34.8832 0 28.5714V11.4286Z" fill="white"/>
<path d="M0 11.4286C0 5.11676 5.11676 0 11.4286 0H28.5714C34.8832 0 40 5.11676 40 11.4286V28.5714C40 34.8832 34.8832 40 28.5714 40H11.4286C5.11676 40 0 34.8832 0 28.5714V11.4286Z" fill="#38CDB8" fill-opacity="0.1"/>
<path d="M11.762 17.3399L11.7619 17.3386V17.3399H11.762ZM11.762 17.3399C11.953 20.5767 14.4766 23.1856 17.619 23.1856C20.7619 23.1856 23.2857 20.576 23.4762 17.3399C21.5142 17.1392 19.5436 17.0346 17.5714 17.0266C15.4286 17.0266 13.2857 17.182 11.762 17.3399ZM17.619 27.153C17.619 27.153 20.0952 23.759 20.8095 23.759V23.7603C21.239 23.7603 21.6921 23.8601 22.1481 24.0391C21.8366 24.8879 21.6666 25.8051 21.6666 26.7619C21.6666 27.9871 21.9454 29.1471 22.4429 30.1822C21.1732 30.0483 19.6469 29.9193 17.9047 29.9193C15.6938 29.9193 13.7468 30.1235 12.211 30.2846C9.94279 30.5226 8.57141 30.6664 8.57141 29.9193C8.57141 27.1 11.4286 23.7603 14.4286 23.7603C15.2857 23.7603 17.619 27.153 17.619 27.153ZM22.9524 9.71827L24 16.4519V16.4532C24 16.4532 20.6666 15.8798 17.8095 15.8798C14.8095 15.8798 11.2381 16.4532 11.2381 16.4532L12.2857 9.71955C12.2857 9.71955 14.1428 8.57141 17.619 8.57141C21.0952 8.57141 22.9524 9.71827 22.9524 9.71827ZM17.1428 12.8508V14.4184C17.1428 14.707 17.3571 14.94 17.619 14.94C17.8809 14.94 18.0952 14.7057 18.0952 14.4184V12.8521H19.5714C19.8333 12.8521 20.0476 12.6178 20.0476 12.3305C20.0476 12.0159 19.8571 11.8088 19.5714 11.8088H18.0952V10.2425C18.0952 9.95255 17.8809 9.71955 17.619 9.71955C17.3571 9.71955 17.1428 9.95389 17.1428 10.2412V11.8062H15.6666C15.4286 11.8062 15.1905 12.0159 15.1905 12.3292C15.1905 12.6424 15.3809 12.8508 15.6666 12.8508H17.1428Z" fill="#38CDB8"/>
<path d="M22.8571 26.7682C22.8571 24.7139 24.7759 23.0476 27.1428 23.0476C29.5097 23.0476 31.4285 24.7139 31.4285 26.7682C31.4285 28.4659 30.1194 29.8977 28.3298 30.3441C28.5141 30.9275 29.0058 31.4184 29.0058 31.4184C29.0058 31.4184 24.2126 31.1193 23.0877 27.9741C22.9384 27.5957 22.8571 27.1903 22.8571 26.7682ZM25.2011 27.1407C25.1321 27.2069 25.0923 27.2978 25.0903 27.3934C25.0883 27.489 25.1243 27.5814 25.1904 27.6505L25.1904 27.6506L25.1908 27.651L25.1915 27.6517L25.1924 27.6527L25.1937 27.654L25.1952 27.6555L25.2042 27.6647C25.2117 27.6723 25.2224 27.6828 25.2357 27.6958C25.2727 27.7316 25.3105 27.7667 25.349 27.8009C25.4755 27.9136 25.6088 28.0186 25.7481 28.1151C26.0678 28.3361 26.5464 28.5965 27.0639 28.5965C27.6273 28.5965 28.1401 28.3458 28.4901 28.1226C28.6396 28.027 28.7829 27.9221 28.9192 27.8085C28.9603 27.7743 29.0006 27.7391 29.0401 27.7031C29.0546 27.6897 29.0691 27.6762 29.0833 27.6625L29.0863 27.6596L29.0873 27.6586L29.088 27.6579L29.0909 27.655C29.1568 27.587 29.1933 27.4959 29.1926 27.4013C29.1919 27.3067 29.1542 27.2162 29.0874 27.1491C29.0206 27.0821 28.9302 27.044 28.8356 27.0429C28.741 27.0419 28.6498 27.078 28.5815 27.1436L28.5809 27.1443L28.576 27.1489C28.5712 27.1535 28.5634 27.1608 28.5527 27.1706C28.5213 27.1992 28.4893 27.2271 28.4567 27.2543C28.344 27.3482 28.2255 27.435 28.1019 27.514C27.7978 27.708 27.4253 27.8747 27.0639 27.8747C26.7704 27.8747 26.4425 27.7177 26.1586 27.5214C26.0436 27.4417 25.9336 27.355 25.8291 27.2619C25.7983 27.2345 25.7681 27.2065 25.7385 27.1779C25.7295 27.1691 25.7205 27.1602 25.7116 27.1512L25.7114 27.1509L25.7113 27.1508L25.711 27.1506L25.711 27.1506C25.6446 27.0817 25.5537 27.042 25.4581 27.0402C25.3625 27.0383 25.27 27.0745 25.2011 27.1407Z" fill="#38CDB8" fill-opacity="0.4"/>
</g>
<defs>
<clipPath id="clip0_2144_121">
<rect width="40" height="40" fill="white"/>
</clipPath>
</defs>
</svg>
