<svg width="40" height="40" viewBox="0 0 40 40" fill="none" xmlns="http://www.w3.org/2000/svg">
<g clip-path="url(#clip0_2144_227)">
<path d="M0 11.4286C0 5.11676 5.11676 0 11.4286 0H28.5714C34.8832 0 40 5.11676 40 11.4286V28.5714C40 34.8832 34.8832 40 28.5714 40H11.4286C5.11676 40 0 34.8832 0 28.5714V11.4286Z" fill="white"/>
<path d="M0 11.4286C0 5.11676 5.11676 0 11.4286 0H28.5714C34.8832 0 40 5.11676 40 11.4286V28.5714C40 34.8832 34.8832 40 28.5714 40H11.4286C5.11676 40 0 34.8832 0 28.5714V11.4286Z" fill="#FFCC00" fill-opacity="0.1"/>
<path d="M29.5238 16.238C28.4719 16.238 27.619 17.0908 27.619 18.1428V29.5714C27.619 30.6233 28.4719 31.4761 29.5238 31.4761C30.5758 31.4761 31.4286 30.6233 31.4286 29.5714V18.1428C31.4286 17.0908 30.5758 16.238 29.5238 16.238ZM21.2857 20.0476C21.2857 18.9956 22.1385 18.1428 23.1905 18.1428C24.2424 18.1428 25.0952 18.9956 25.0952 20.0476V29.5714C25.0952 30.6233 24.2424 31.4761 23.1905 31.4761C22.1385 31.4761 21.2857 30.6233 21.2857 29.5714V20.0476ZM16.8095 20.9999C15.7576 20.9999 14.9048 21.8528 14.9048 22.9047V29.5714C14.9048 30.6233 15.7576 31.4761 16.8095 31.4761C17.8615 31.4761 18.7143 30.6233 18.7143 29.5714V22.9047C18.7143 21.8528 17.8615 20.9999 16.8095 20.9999ZM10.4762 23.8571C9.42424 23.8571 8.57143 24.7099 8.57143 25.7618V29.5714C8.57143 30.6233 9.42424 31.4761 10.4762 31.4761C11.5281 31.4761 12.381 30.6233 12.381 29.5714V25.7618C12.381 24.7099 11.5281 23.8571 10.4762 23.8571Z" fill="#FFCC00"/>
<path d="M25.0952 8.57141C24.4641 8.57141 23.9524 9.08308 23.9524 9.71427C23.9524 10.3455 24.4641 10.8571 25.0952 10.8571H26.4271L22.5957 14.5261L16.8909 12.0025C16.6807 11.9095 16.4474 11.882 16.2214 11.9237C15.9954 11.9653 15.7872 12.0742 15.624 12.236L10.1478 17.6646C9.69953 18.1089 9.69639 18.8325 10.1407 19.2807C10.5851 19.729 11.3087 19.7322 11.757 19.2878L16.6793 14.4082L22.371 16.9261C22.5781 17.0177 22.8077 17.0457 23.0308 17.0066C23.2538 16.9675 23.4602 16.863 23.6238 16.7064L27.9286 12.584V13.3333C27.9286 13.9645 28.4402 14.4762 29.0714 14.4762C29.7026 14.4762 30.2143 13.9645 30.2143 13.3333V9.71427C30.2143 9.08308 29.7026 8.57141 29.0714 8.57141H25.0952Z" fill="#FFCC00" fill-opacity="0.4"/>
</g>
<defs>
<clipPath id="clip0_2144_227">
<rect width="40" height="40" fill="white"/>
</clipPath>
</defs>
</svg>
