<svg width="40" height="40" viewBox="0 0 40 40" fill="none" xmlns="http://www.w3.org/2000/svg">
<g clip-path="url(#clip0_2700_122)">
<path d="M0 11.4286C0 5.11676 5.11676 0 11.4286 0H28.5714C34.8832 0 40 5.11676 40 11.4286V28.5714C40 34.8832 34.8832 40 28.5714 40H11.4286C5.11676 40 0 34.8832 0 28.5714V11.4286Z" fill="white"/>
<path d="M0 11.4286C0 5.11676 5.11676 0 11.4286 0H28.5714C34.8832 0 40 5.11676 40 11.4286V28.5714C40 34.8832 34.8832 40 28.5714 40H11.4286C5.11676 40 0 34.8832 0 28.5714V11.4286Z" fill="#007AFF" fill-opacity="0.1"/>
<path d="M31.0687 15.355C29.6849 12.0693 26.8845 9.52796 23.4218 8.50159C24.6022 10.1379 25.4155 12.6005 25.8418 15.355H31.0687Z" fill="#007AFF" fill-opacity="0.15"/>
<path d="M31.5836 16.9027H26.0353C26.1369 17.9192 26.196 18.9587 26.196 19.9982C26.196 21.0377 26.1369 22.0805 26.0353 23.0937H31.5803C31.8459 22.1001 31.9967 21.0705 31.9967 19.9982C31.9967 18.9259 31.8459 17.893 31.5836 16.9027Z" fill="#007AFF" fill-opacity="0.15"/>
<path d="M23.4283 31.4949C26.8846 30.4685 29.6915 27.9272 31.0753 24.6415H25.8451C25.4188 27.3992 24.6088 29.8619 23.4283 31.4949Z" fill="#007AFF" fill-opacity="0.15"/>
<path d="M16.575 8.50159C13.1187 9.52796 10.3118 12.0693 8.93457 15.355H14.1615C14.5812 12.6005 15.3945 10.1379 16.575 8.50159Z" fill="#007AFF" fill-opacity="0.15"/>
<path d="M13.8074 19.9982C13.8074 18.9587 13.8664 17.916 13.968 16.9027H8.41645C8.15412 17.8963 8 18.9259 8 19.9982C8 21.0705 8.15412 22.1034 8.41645 23.0937H13.9615C13.8664 22.0805 13.8074 21.041 13.8074 19.9982Z" fill="#007AFF" fill-opacity="0.15"/>
<path d="M8.93457 24.6449C10.3184 27.9306 13.1187 30.4719 16.5815 31.4983C15.401 29.862 14.5878 27.3994 14.1615 24.6449H8.93457Z" fill="#007AFF" fill-opacity="0.15"/>
<path d="M15.3551 19.9983C15.3551 21.0739 15.4141 22.1035 15.5158 23.0938H24.4809C24.5826 22.1003 24.6416 21.0706 24.6416 19.9983C24.6416 18.9261 24.5826 17.8931 24.4809 16.9028H15.5158C15.4141 17.8931 15.3551 18.9261 15.3551 19.9983Z" fill="#007AFF" fill-opacity="0.15"/>
<path d="M20.0017 8C21.9265 8 23.5825 11.0332 24.2842 15.3551H15.7191C16.4209 11.0332 18.0768 8 20.0017 8Z" fill="#007AFF" fill-opacity="0.15"/>
<path d="M20.0015 32C18.0767 32 16.4207 28.9668 15.719 24.6449H24.2841C23.5824 28.9668 21.9264 32 20.0015 32Z" fill="#007AFF" fill-opacity="0.15"/>
<path d="M21.9355 27C21.4445 27 21.005 26.6778 20.8402 26.198L20.1088 23.9673C20.0917 23.9136 20.0401 23.8742 19.9852 23.8742H16.143C16.0881 23.8742 16.0366 23.91 16.0194 23.9637L15.2434 26.2159C15.0683 26.6742 14.6426 26.9714 14.1653 26.9714C14.0314 26.9714 13.8975 26.9463 13.7704 26.8997C13.1799 26.6777 12.864 26.0153 13.0563 25.3887L17.0495 13.802C17.2143 13.3223 17.6538 13 18.1448 13C18.6461 13.0036 19.0856 13.333 19.2436 13.8199L23.0445 25.4102C23.2402 26.0332 22.9106 26.7207 22.3132 26.932C22.1896 26.9785 22.066 27 21.9355 27ZM18.1105 18.156C18.0555 18.156 18.004 18.1918 17.9869 18.2455L16.9499 21.2604C16.9362 21.3033 16.9431 21.3499 16.9671 21.3857C16.9911 21.4215 17.0323 21.443 17.0735 21.443H19.0993C19.1406 21.443 19.1818 21.4215 19.2058 21.3857C19.2298 21.3499 19.2367 21.3033 19.223 21.2604L18.2341 18.2455C18.2169 18.1918 18.1688 18.156 18.1105 18.156ZM25.836 26.9105C25.1939 26.9105 24.672 26.3841 24.672 25.7396V14.1816C24.672 13.5371 25.1939 13.0107 25.836 13.0107C26.4781 13.0107 27 13.5371 27 14.1816V25.7432C26.9966 26.3877 26.4747 26.9105 25.836 26.9105Z" fill="#007AFF"/>
<path fill-rule="evenodd" clip-rule="evenodd" d="M19.89 26.5095L19.3538 24.8742H16.7634L16.1835 26.5573L16.1776 26.5728C15.859 27.4065 15.0697 27.9714 14.1653 27.9714C13.9071 27.9714 13.6569 27.9232 13.4264 27.8387L13.4186 27.8358C12.3094 27.4189 11.7607 26.2021 12.1003 25.0954L12.1053 25.0791L16.1038 13.4772C16.1037 13.4774 16.1038 13.477 16.1038 13.4772C16.4009 12.6129 17.207 12 18.1448 12H18.152C19.0991 12.0068 19.9078 12.6289 20.1942 13.5097C20.1944 13.5103 20.1946 13.5109 20.1948 13.5114L23.6721 24.1146V14.1816C23.6721 12.9911 24.6354 12.0107 25.836 12.0107C27.0367 12.0107 28 12.9911 28 14.1816V25.7486C27.9937 26.9359 27.0322 27.9105 25.836 27.9105C24.986 27.9105 24.2549 27.4191 23.9004 26.7095C23.6662 27.2311 23.2355 27.6635 22.656 27.8714C22.4186 27.9595 22.1785 28 21.9355 28C20.9975 28 20.1914 27.3874 19.8944 26.5228L19.89 26.5095ZM22.3132 26.932C22.9106 26.7207 23.2403 26.0332 23.0445 25.4102L19.2436 13.8199C19.0856 13.333 18.6461 13.0036 18.1448 13C17.6538 13 17.2143 13.3223 17.0495 13.802L13.0563 25.3887C12.864 26.0153 13.1799 26.6777 13.7705 26.8997C13.8975 26.9463 14.0314 26.9714 14.1653 26.9714C14.6426 26.9714 15.0684 26.6742 15.2435 26.2159L16.0195 23.9637C16.0366 23.91 16.0881 23.8742 16.1431 23.8742H19.9852C20.0402 23.8742 20.0917 23.9136 20.1088 23.9673L20.8402 26.198C21.005 26.6778 21.4445 27 21.9355 27C22.066 27 22.1896 26.9785 22.3132 26.932ZM19.1586 24.2788C19.1585 24.2785 19.1584 24.2781 19.1583 24.2778L19.1586 24.2788ZM18.2341 18.2455C18.2169 18.1918 18.1689 18.156 18.1105 18.156C18.0556 18.156 18.0041 18.1918 17.9869 18.2455L16.95 21.2604C16.9362 21.3033 16.9431 21.3499 16.9671 21.3857C16.9912 21.4215 17.0324 21.443 17.0736 21.443H19.0994C19.1406 21.443 19.1818 21.4215 19.2058 21.3857C19.2298 21.3499 19.2367 21.3033 19.223 21.2604L18.2341 18.2455ZM24.6721 25.7396C24.6721 26.3841 25.194 26.9105 25.836 26.9105C26.4747 26.9105 26.9966 26.3877 27 25.7432V14.1816C27 13.5371 26.4781 13.0107 25.836 13.0107C25.194 13.0107 24.6721 13.5371 24.6721 14.1816V25.7396Z" fill="white"/>
<path d="M21.9355 27C21.4445 27 21.005 26.6778 20.8402 26.198L20.1088 23.9673C20.0917 23.9136 20.0401 23.8742 19.9852 23.8742H16.143C16.0881 23.8742 16.0366 23.91 16.0194 23.9637L15.2434 26.2159C15.0683 26.6742 14.6426 26.9714 14.1653 26.9714C14.0314 26.9714 13.8975 26.9463 13.7704 26.8997C13.1799 26.6778 12.864 26.0153 13.0563 25.3887L17.0495 13.802C17.2143 13.3223 17.6538 13 18.1448 13C18.6461 13.0036 19.0856 13.333 19.2436 13.8199L23.0445 25.4102C23.2402 26.0332 22.9106 26.7207 22.3132 26.932C22.1896 26.9785 22.066 27 21.9355 27ZM18.1105 18.156C18.0555 18.156 18.004 18.1918 17.9869 18.2455L16.9499 21.2604C16.9362 21.3033 16.9431 21.3499 16.9671 21.3857C16.9911 21.4215 17.0323 21.443 17.0735 21.443H19.0993C19.1406 21.443 19.1818 21.4215 19.2058 21.3857C19.2298 21.3499 19.2367 21.3033 19.223 21.2604L18.2341 18.2455C18.2169 18.1918 18.1688 18.156 18.1105 18.156ZM25.836 26.9105C25.1939 26.9105 24.672 26.3841 24.672 25.7396V14.1816C24.672 13.5371 25.1939 13.0107 25.836 13.0107C26.4781 13.0107 27 13.5371 27 14.1816V25.7432C26.9966 26.3877 26.4747 26.9105 25.836 26.9105Z" fill="#007AFF"/>
</g>
<defs>
<clipPath id="clip0_2700_122">
<rect width="40" height="40" fill="white"/>
</clipPath>
</defs>
</svg>
