<svg width="40" height="40" viewBox="0 0 40 40" fill="none" xmlns="http://www.w3.org/2000/svg">
<g clip-path="url(#clip0_2144_170)">
<path d="M0 11.4286C0 5.11676 5.11676 0 11.4286 0H28.5714C34.8832 0 40 5.11676 40 11.4286V28.5714C40 34.8832 34.8832 40 28.5714 40H11.4286C5.11676 40 0 34.8832 0 28.5714V11.4286Z" fill="white"/>
<path d="M0 11.4286C0 5.11676 5.11676 0 11.4286 0H28.5714C34.8832 0 40 5.11676 40 11.4286V28.5714C40 34.8832 34.8832 40 28.5714 40H11.4286C5.11676 40 0 34.8832 0 28.5714V11.4286Z" fill="#007AFF" fill-opacity="0.1"/>
<path d="M22.2667 12.2286C22.2667 14.2483 23.904 15.8857 25.9238 15.8857C27.9436 15.8857 29.581 14.2483 29.581 12.2286C29.581 10.2088 27.9436 8.57141 25.9238 8.57141C23.904 8.57141 22.2667 10.2088 22.2667 12.2286ZM29.581 21.3714C29.581 19.3516 27.9436 17.7143 25.9238 17.7143C23.904 17.7143 22.2667 19.3516 22.2667 21.3714V22.2857L19.591 23.8305C19.1616 24.0784 19.0144 24.6276 19.2624 25.057C19.5103 25.4865 20.0595 25.6336 20.4889 25.3856L22.2667 24.3593V31.4286H29.581V21.3714Z" fill="#007AFF" fill-opacity="0.4"/>
<path d="M17.6952 12.2286C17.6952 14.2483 16.0579 15.8857 14.0381 15.8857C12.0183 15.8857 10.381 14.2483 10.381 12.2286C10.381 10.2088 12.0183 8.57141 14.0381 8.57141C16.0579 8.57141 17.6952 10.2088 17.6952 12.2286ZM10.381 21.3714C10.381 19.3516 12.0183 17.7143 14.0381 17.7143C16.0579 17.7143 17.6952 19.3516 17.6952 21.3714V22.2857L20.5584 23.9387C20.9879 24.1867 21.135 24.7358 20.887 25.1653C20.6391 25.5947 20.09 25.7418 19.6605 25.4939L17.6952 24.3593V31.4286H10.381V21.3714Z" fill="#007AFF"/>
</g>
<defs>
<clipPath id="clip0_2144_170">
<rect width="40" height="40" fill="white"/>
</clipPath>
</defs>
</svg>
