<svg width="40" height="40" viewBox="0 0 40 40" fill="none" xmlns="http://www.w3.org/2000/svg">
<g clip-path="url(#clip0_2824_127)">
<path d="M0 11.4286C0 5.11676 5.11676 0 11.4286 0H28.5714C34.8832 0 40 5.11676 40 11.4286V28.5714C40 34.8832 34.8832 40 28.5714 40H11.4286C5.11676 40 0 34.8832 0 28.5714V11.4286Z" fill="white"/>
<path d="M0 11.4286C0 5.11676 5.11676 0 11.4286 0H28.5714C34.8832 0 40 5.11676 40 11.4286V28.5714C40 34.8832 34.8832 40 28.5714 40H11.4286C5.11676 40 0 34.8832 0 28.5714V11.4286Z" fill="#FFCC00" fill-opacity="0.1"/>
<path d="M21.2822 29.3337H9.08303C8.80165 29.3337 8.57141 29.5643 8.57141 29.8461V30.8707C8.57141 31.1525 8.80165 31.3831 9.08303 31.3831H22.3532C21.8868 30.763 21.525 30.0707 21.2822 29.3337Z" fill="#FFCC00" fill-opacity="0.4"/>
<path d="M12.4825 8.57141H23.0956C24.3121 8.57141 25.2959 9.51627 25.2985 10.6829V20.5286C22.7304 21.6064 20.9266 24.1446 20.9266 27.1042C20.9266 27.8843 21.052 28.6351 21.2836 29.3376H10.2822V10.6829C10.2822 9.51627 11.2661 8.57141 12.4825 8.57141ZM15.1428 14.0427C14.9971 14.0427 14.877 14.2301 14.877 14.4624V15.3044C14.877 15.5366 14.9946 15.724 15.1428 15.724H16.7784V17.2284C16.7784 17.3709 16.9725 17.4871 17.2102 17.4871H18.074C18.3117 17.4871 18.5059 17.3709 18.5059 17.2284V15.724H20.1414C20.2871 15.724 20.4072 15.5366 20.4072 15.3044V14.4624C20.4072 14.2301 20.2896 14.0427 20.1414 14.0427H18.5059V12.3668C18.5059 12.2243 18.3117 12.1081 18.074 12.1081H17.2102C16.9725 12.1081 16.7784 12.2243 16.7784 12.3668V14.0427H15.1428ZM22.0657 21.6414C22.3699 21.6414 22.6152 21.4355 22.6152 21.1795V20.2557C22.6152 19.9997 22.3699 19.7938 22.0657 19.7938H13.497C13.1929 19.7938 12.9476 19.9997 12.9476 20.2557V21.1795C12.9476 21.4355 13.1929 21.6414 13.497 21.6414H22.0657Z" fill="#FFCC00"/>
<path d="M26.8666 31.3811C29.3861 31.3811 31.4285 29.3386 31.4285 26.8192C31.4285 24.2997 29.3861 22.2572 26.8666 22.2572C24.3471 22.2572 22.3047 24.2997 22.3047 26.8192C22.3047 29.3386 24.3471 31.3811 26.8666 31.3811ZM29.2329 27.3848H26.0701V27.8778C26.0701 28.1524 25.8974 28.2435 25.6808 28.0781L24.513 27.1867C24.2979 27.0226 24.2965 26.7579 24.513 26.5925L25.6808 25.7008C25.8959 25.5369 26.0701 25.6273 26.0701 25.9014V26.3944H29.2329C29.265 26.3944 29.2968 26.4009 29.3265 26.4135C29.3563 26.4261 29.3832 26.4446 29.4057 26.4678C29.4284 26.4911 29.4463 26.5187 29.4584 26.549C29.4704 26.5793 29.4764 26.6117 29.4762 26.6445V27.1347C29.4762 27.2729 29.3679 27.3848 29.2329 27.3848Z" fill="#FFCC00" fill-opacity="0.4"/>
</g>
<defs>
<clipPath id="clip0_2824_127">
<rect width="40" height="40" fill="white"/>
</clipPath>
</defs>
</svg>
