<svg width="40" height="40" viewBox="0 0 40 40" fill="none" xmlns="http://www.w3.org/2000/svg">
<g clip-path="url(#clip0_2144_233)">
<path d="M0 11.4286C0 5.11676 5.11676 0 11.4286 0H28.5714C34.8832 0 40 5.11676 40 11.4286V28.5714C40 34.8832 34.8832 40 28.5714 40H11.4286C5.11676 40 0 34.8832 0 28.5714V11.4286Z" fill="white"/>
<path d="M0 11.4286C0 5.11676 5.11676 0 11.4286 0H28.5714C34.8832 0 40 5.11676 40 11.4286V28.5714C40 34.8832 34.8832 40 28.5714 40H11.4286C5.11676 40 0 34.8832 0 28.5714V11.4286Z" fill="#FFCC00" fill-opacity="0.1"/>
<path d="M22.8571 26.2612C24.5539 25.3089 26.0845 23.922 26.8053 21.9068C27.0261 21.3473 27.1668 20.7561 27.2152 20.1428C29.5758 20.3192 31.4286 22.039 31.4286 24.1335C31.4286 25.9613 30.0191 27.5027 28.0924 27.9833C28.2909 28.6113 28.8202 29.1399 28.8202 29.1399C28.8202 29.1399 24.5333 28.8723 22.8571 26.2612Z" fill="#FFCC00" fill-opacity="0.4"/>
<path d="M17.6191 10.8572C22.6158 10.8572 26.6667 14.3749 26.6667 18.7118C26.6667 19.6028 26.4952 20.4588 26.1799 21.2577C23.8051 27.8974 13.6862 28.5288 13.6862 28.5288C13.6862 28.5288 14.7243 27.4924 15.1133 26.2609C11.3353 25.3184 8.57144 22.2958 8.57144 18.7118C8.57144 14.3749 12.6223 10.8572 17.6191 10.8572ZM17.6191 22.1429C18.11 22.1429 18.508 21.7449 18.508 21.254V19.6985H20.0635C20.5544 19.6985 20.9524 19.3005 20.9524 18.8096C20.9524 18.3187 20.5544 17.9207 20.0635 17.9207H18.508V16.3651C18.508 15.8742 18.11 15.4762 17.6191 15.4762C17.1282 15.4762 16.7302 15.8742 16.7302 16.3651V17.9207H15.1746C14.6837 17.9207 14.2857 18.3187 14.2857 18.8096C14.2857 19.3005 14.6837 19.6985 15.1746 19.6985H16.7302V21.254C16.7302 21.7449 17.1282 22.1429 17.6191 22.1429Z" fill="#FFCC00"/>
</g>
<defs>
<clipPath id="clip0_2144_233">
<rect width="40" height="40" fill="white"/>
</clipPath>
</defs>
</svg>
