<svg width="40" height="40" viewBox="0 0 40 40" fill="none" xmlns="http://www.w3.org/2000/svg">
<rect width="40" height="40" rx="10" fill="white"/>
<rect width="40" height="40" rx="10" fill="#007AFF" fill-opacity="0.1"/>
<path d="M19.3848 24.9789C19.4076 24.9478 19.4331 24.9179 19.4612 24.8898C19.5327 24.8182 19.6176 24.7616 19.7112 24.7233C19.8048 24.6849 19.9051 24.6657 20.0062 24.6667C20.1073 24.6657 20.2077 24.6849 20.3013 24.7232C20.3949 24.7615 20.4799 24.8181 20.5514 24.8898C20.5791 24.9175 20.6047 24.9473 20.6279 24.9789L25.7895 30.1405C26.087 30.438 26.087 30.9205 25.7895 31.218C25.492 31.5156 25.0095 31.5156 24.712 31.218L20.0063 26.5123L15.3007 31.218C15.0031 31.5156 14.5207 31.5156 14.2231 31.218C13.9256 30.9205 13.9256 30.438 14.2231 30.1405L19.3848 24.9789Z" fill="#007AFF" fill-opacity="0.4"/>
<path d="M29.2857 10.5714H10.7143V24.9524C10.7143 26.2147 11.7376 27.2381 13 27.2381H27C28.2624 27.2381 29.2857 26.2147 29.2857 24.9524V10.5714ZM21.8572 12.0529H25.6667C26.1927 12.0529 26.6191 12.4793 26.6191 13.0053V16.6561C26.6191 17.182 26.1927 17.6085 25.6667 17.6085H21.8572C21.3312 17.6085 20.9048 17.182 20.9048 16.6561V13.0053C20.9048 12.4793 21.3312 12.0529 21.8572 12.0529ZM13 20.8723C13 20.5016 13.3006 20.201 13.6713 20.201H18.9954C19.3661 20.201 19.6667 20.5016 19.6667 20.8723C19.6667 21.2431 19.3661 21.5436 18.9954 21.5436H13.6713C13.3006 21.5436 13 21.2431 13 20.8723ZM13.6713 23.0251H18.9954C19.3661 23.0251 19.6667 23.3256 19.6667 23.6964C19.6667 24.0672 19.3661 24.3677 18.9954 24.3677H13.6713C13.3006 24.3677 13 24.0672 13 23.6964C13 23.3256 13.3006 23.0251 13.6713 23.0251Z" fill="#007AFF"/>
<path d="M9.14287 8.57141H30.8572C31.2381 8.57141 31.4286 8.76189 31.4286 9.14284V9.99998C31.4286 10.3809 31.2381 10.5714 30.8572 10.5714H9.14287C8.76192 10.5714 8.57144 10.3809 8.57144 9.99998V9.14284C8.57144 8.76189 8.76192 8.57141 9.14287 8.57141Z" fill="#007AFF" fill-opacity="0.4"/>
</svg>
