<svg width="40" height="40" viewBox="0 0 40 40" fill="none" xmlns="http://www.w3.org/2000/svg">
<g clip-path="url(#clip0_2144_133)">
<path d="M0 11.4286C0 5.11676 5.11676 0 11.4286 0H28.5714C34.8832 0 40 5.11676 40 11.4286V28.5714C40 34.8832 34.8832 40 28.5714 40H11.4286C5.11676 40 0 34.8832 0 28.5714V11.4286Z" fill="white"/>
<path d="M0 11.4286C0 5.11676 5.11676 0 11.4286 0H28.5714C34.8832 0 40 5.11676 40 11.4286V28.5714C40 34.8832 34.8832 40 28.5714 40H11.4286C5.11676 40 0 34.8832 0 28.5714V11.4286Z" fill="#007AFF" fill-opacity="0.1"/>
<path d="M14.2857 29.5973C17.4764 27.8569 20 22.7749 20 19.619C20 16.4631 17.4416 13.9047 14.2857 13.9047C11.1298 13.9047 8.57144 16.4631 8.57144 19.619C8.57144 22.7749 11.037 27.8569 14.2857 29.5973ZM14.3147 22.8387C12.3923 22.8387 10.834 21.2804 10.834 19.358C10.834 17.4356 12.3923 15.8772 14.3147 15.8772C16.2371 15.8772 17.7955 17.4356 17.7955 19.358C17.7955 21.2804 16.2371 22.8387 14.3147 22.8387ZM28.5714 16.4177C30.1668 15.5475 31.4286 13.0065 31.4286 11.4286C31.4286 9.8506 30.1494 8.57141 28.5714 8.57141C26.9935 8.57141 25.7143 9.8506 25.7143 11.4286C25.7143 13.0065 26.9471 15.5475 28.5714 16.4177ZM28.586 13.0384C27.6248 13.0384 26.8455 12.2592 26.8455 11.298C26.8455 10.3368 27.6248 9.55765 28.586 9.55765C29.5472 9.55765 30.3263 10.3368 30.3263 11.298C30.3263 12.2592 29.5472 13.0384 28.586 13.0384Z" fill="#007AFF"/>
<path d="M28.8933 17.4962C28.9612 17.8581 28.7228 18.2064 28.361 18.2743L28.3598 18.2745M28.3598 18.2745L28.3518 18.276L28.3163 18.2831C28.2682 18.293 28.2203 18.3032 28.1724 18.3138C28.0462 18.3417 27.8631 18.3846 27.6403 18.4436C27.2844 18.5379 26.9194 18.3258 26.8252 17.9699C26.7309 17.614 26.943 17.249 27.2989 17.1547C27.4931 17.1031 27.6884 17.0555 27.8845 17.0119C27.955 16.9963 28.0257 16.9815 28.0965 16.9674L28.1094 16.9649L28.1133 16.9642L28.1152 16.9638L28.1142 16.964L28.1153 16.9638C28.4772 16.896 28.8255 17.1343 28.8933 17.4962M26.5845 18.0448C26.7169 18.3884 26.5457 18.7742 26.2021 18.9066C25.7512 19.0802 25.2896 19.2891 24.8674 19.5349C24.5493 19.72 24.1412 19.6122 23.956 19.294C23.7708 18.9757 23.8786 18.5676 24.1968 18.3824C24.6963 18.0918 25.2257 17.8539 25.7228 17.6623C26.0663 17.53 26.4522 17.7012 26.5845 18.0448ZM23.7356 19.4333C24.0079 19.6811 24.0277 20.1028 23.7799 20.375C23.6311 20.5384 23.5134 20.7049 23.4276 20.8737C23.2155 21.2906 23.2698 21.4314 23.2734 21.4401C23.4138 21.7804 23.2517 22.1702 22.9113 22.3106C22.5709 22.451 22.1812 22.2889 22.0408 21.9485C21.8195 21.412 21.9546 20.8287 22.2391 20.2692C22.3874 19.9776 22.5783 19.7143 22.7939 19.4775C23.0417 19.2052 23.4633 19.1854 23.7356 19.4333ZM24.0709 22.4696C24.115 22.1041 24.4472 21.8436 24.8127 21.8878C25.0286 21.9139 25.266 21.938 25.5139 21.9632C26.0547 22.0181 26.6461 22.0783 27.1755 22.175C27.5377 22.2413 27.7777 22.5885 27.7115 22.9507C27.6453 23.3129 27.298 23.5529 26.9358 23.4867C26.4573 23.3992 25.9628 23.3492 25.453 23.2977C25.1903 23.2711 24.9234 23.2442 24.6527 23.2114C24.2872 23.1673 24.0267 22.8351 24.0709 22.4696ZM28.7332 23.2951C29.049 23.1059 29.4584 23.2085 29.6477 23.5243C29.9156 23.9714 30.0022 24.4999 29.9226 25.0893C29.8716 25.4676 29.764 25.836 29.6032 26.1822C29.4485 26.5163 29.0522 26.6618 28.7181 26.507C28.384 26.3523 28.2386 25.956 28.3933 25.6219C28.4981 25.3967 28.5681 25.1569 28.6013 24.9107C28.6487 24.5599 28.5873 24.3488 28.504 24.2096C28.3147 23.8938 28.4173 23.4843 28.7332 23.2951ZM28.3347 26.931C28.5656 27.2177 28.5203 27.6374 28.2335 27.8683C27.7212 28.2808 27.1256 28.6296 26.4888 28.9262C26.1551 29.0817 25.7585 28.9372 25.603 28.6034C25.4475 28.2697 25.5921 27.8731 25.9258 27.7176C26.4921 27.4538 26.9893 27.1582 27.3973 26.8298C27.6841 26.5989 28.1038 26.6441 28.3347 26.931ZM25.0818 28.7929C25.1904 29.1446 24.9933 29.5179 24.6414 29.6265C24.0243 29.817 23.3892 29.9775 22.7586 30.1127C22.3986 30.1899 22.0442 29.9606 21.967 29.6006C21.8898 29.2406 22.1191 28.8861 22.4791 28.809C23.0786 28.6804 23.6749 28.5295 24.2481 28.3525C24.5999 28.2439 24.9732 28.441 25.0818 28.7929ZM21.4223 29.6965C21.4764 30.0607 21.225 30.3998 20.8608 30.4539C20.1858 30.5541 19.5403 30.6293 18.9548 30.6859C18.5883 30.7213 18.2626 30.4529 18.2272 30.0864C18.1918 29.7199 18.4602 29.3941 18.8267 29.3587C19.3932 29.304 20.0158 29.2314 20.665 29.135C21.0292 29.0809 21.3683 29.3323 21.4223 29.6965ZM17.6736 30.127C17.6915 30.4948 17.4078 30.8074 17.0401 30.8252C16.7416 30.8397 16.5026 30.8477 16.3373 30.852C16.2523 30.8543 16.1672 30.856 16.0822 30.8571L16.0773 30.8571H16.0767L16.0912 30.857L16.0767 30.8571C15.7085 30.86 15.4077 30.5639 15.4048 30.1957C15.4019 29.8276 15.698 29.5268 16.0661 29.5239H16.0662L16.0689 29.5238L16.0795 29.5237L16.1242 29.523C16.1641 29.5224 16.224 29.5212 16.3022 29.5191C16.4585 29.515 16.6877 29.5074 16.9755 29.4934C17.3432 29.4756 17.6558 29.7593 17.6736 30.127Z" fill="#007AFF" fill-opacity="0.4"/>
</g>
<defs>
<clipPath id="clip0_2144_133">
<rect width="40" height="40" fill="white"/>
</clipPath>
</defs>
</svg>
