<svg width="40" height="40" viewBox="0 0 40 40" fill="none" xmlns="http://www.w3.org/2000/svg">
<g clip-path="url(#clip0_3410_71)">
<path d="M0 11.4286C0 5.11676 5.11676 0 11.4286 0H28.5714C34.8832 0 40 5.11676 40 11.4286V28.5714C40 34.8832 34.8832 40 28.5714 40H11.4286C5.11676 40 0 34.8832 0 28.5714V11.4286Z" fill="white"/>
<path d="M0 11.4286C0 5.11676 5.11676 0 11.4286 0H28.5714C34.8832 0 40 5.11676 40 11.4286V28.5714C40 34.8832 34.8832 40 28.5714 40H11.4286C5.11676 40 0 34.8832 0 28.5714V11.4286Z" fill="#007AFF" fill-opacity="0.1"/>
<path d="M0 11.4286C0 5.11676 5.11676 0 11.4286 0H28.5714C34.8832 0 40 5.11676 40 11.4286V28.5714C40 34.8832 34.8832 40 28.5714 40H11.4286C5.11676 40 0 34.8832 0 28.5714V11.4286Z" fill="white"/>
<path d="M0 11.4286C0 5.11676 5.11676 0 11.4286 0H28.5714C34.8832 0 40 5.11676 40 11.4286V28.5714C40 34.8832 34.8832 40 28.5714 40H11.4286C5.11676 40 0 34.8832 0 28.5714V11.4286Z" fill="#38CDB8" fill-opacity="0.1"/>
<path d="M15.4435 10.0952C17.4046 10.0952 18.4716 10.7674 19.1898 11.485L19.4238 11.7188V22.3844H17.8261V15.2518C17.615 14.4239 16.776 13.7687 15.7143 13.7687H13.034V23.6777H26.9857V13.7687H24.3055C23.3907 13.7687 22.6413 14.2551 22.3164 14.9192V22.3844H20.7186V11.7188L20.9526 11.485C21.6707 10.7674 22.7378 10.0952 24.6988 10.0952H31.5709V23.6777H31.5714V25.2743H12.5517C11.6896 25.2743 11.0932 25.5191 10.725 25.8379C10.3632 26.1513 10.1692 26.5788 10.1692 27.0769L10.1694 27.1002C10.1753 27.5884 10.3688 28.0076 10.725 28.316C11.0932 28.6348 11.6896 28.8795 12.5517 28.8796H29.8359V30.4762H12.5517C11.3892 30.4761 10.395 30.1429 9.67855 29.5225C8.96713 28.9064 8.58346 28.051 8.57165 27.1213L8.57141 27.0769V10.0952H15.4435ZM10.1692 24.2769C10.6404 23.9945 11.1939 23.8079 11.8095 23.7257V13.1156H15.7279V13.1157C16.5504 13.1193 17.3068 13.4467 17.8261 13.9753V12.3995C17.3826 12.0315 16.7085 11.6917 15.4435 11.6917H10.1692V24.2769ZM24.6988 11.6917C23.4339 11.6917 22.7598 12.0315 22.3164 12.3995V13.8581C22.8285 13.3986 23.532 13.119 24.2919 13.1157V13.1156H28.2102V23.6777H29.9731V11.6917H24.6988Z" fill="#38CDB8"/>
<path d="M11.1429 27.0714C11.1429 26.8091 11.2183 26.5496 11.4288 26.36C11.635 26.1744 11.9274 26.0952 12.2761 26.0952H27.5715V26.6207H12.2761C11.9998 26.6207 11.8587 26.6842 11.7876 26.7483C11.7208 26.8084 11.6751 26.9056 11.6751 27.0714C11.6751 27.2243 11.7246 27.3248 11.801 27.3909C11.8821 27.4609 12.0285 27.5221 12.2761 27.5221H27.5715V28.0476H12.2761C11.9456 28.0476 11.6584 27.966 11.4505 27.7864C11.2379 27.6027 11.1429 27.3465 11.1429 27.0714Z" fill="#38CDB8"/>
</g>
<defs>
<clipPath id="clip0_3410_71">
<rect width="40" height="40" fill="white"/>
</clipPath>
</defs>
</svg>
