<svg width="40" height="40" viewBox="0 0 40 40" fill="none" xmlns="http://www.w3.org/2000/svg">
<g clip-path="url(#clip0_2144_195)">
<path d="M0 11.4286C0 5.11676 5.11676 0 11.4286 0H28.5714C34.8832 0 40 5.11676 40 11.4286V28.5714C40 34.8832 34.8832 40 28.5714 40H11.4286C5.11676 40 0 34.8832 0 28.5714V11.4286Z" fill="white"/>
<path d="M0 11.4286C0 5.11676 5.11676 0 11.4286 0H28.5714C34.8832 0 40 5.11676 40 11.4286V28.5714C40 34.8832 34.8832 40 28.5714 40H11.4286C5.11676 40 0 34.8832 0 28.5714V11.4286Z" fill="#FFCC00" fill-opacity="0.1"/>
<path d="M19.816 10.7142C20.274 10.7142 20.6633 10.8745 20.984 11.1952C21.3046 11.5158 21.4649 11.9051 21.4649 12.3631V27.6612C21.4649 28.1193 21.3046 28.5086 20.984 28.8292C20.6633 29.1499 20.274 29.3101 19.816 29.3101H17.4342C16.9762 29.3101 16.5869 29.1499 16.2663 28.8292C15.9457 28.5086 15.7854 28.1193 15.7854 27.6612V12.3631C15.7854 11.9051 15.9075 11.5158 16.1518 11.1952C16.396 10.8745 16.7549 10.7142 17.2281 10.7142H19.816ZM19.816 22.2565C19.9687 22.2565 20.0984 22.184 20.2053 22.0389C20.3122 21.8939 20.3656 21.7221 20.3656 21.5237C20.3656 21.3099 20.3122 21.1344 20.2053 20.9969C20.0984 20.8595 19.9687 20.7909 19.816 20.7909H17.4342C17.2816 20.7909 17.1518 20.8595 17.0449 20.9969C16.938 21.1344 16.8846 21.3099 16.8846 21.5237C16.8846 21.7221 16.938 21.8939 17.0449 22.0389C17.1518 22.184 17.2816 22.2565 17.4342 22.2565H19.816ZM19.816 19.348C19.9687 19.348 20.0984 19.2755 20.2053 19.1305C20.3122 18.9854 20.3656 18.806 20.3656 18.5923C20.3656 18.3786 20.3122 18.203 20.2053 18.0656C20.0984 17.9282 19.9687 17.8595 19.816 17.8595H17.4342C17.2816 17.8595 17.1518 17.9282 17.0449 18.0656C16.938 18.203 16.8846 18.3786 16.8846 18.5923C16.8846 18.806 16.938 18.9854 17.0449 19.1305C17.1518 19.2755 17.2816 19.348 17.4342 19.348H19.816ZM12.625 10.7142C13.083 10.7142 13.4761 10.8745 13.8044 11.1952C14.1327 11.5158 14.2968 11.9051 14.2968 12.3631V27.6612C14.2968 28.1193 14.1327 28.5086 13.8044 28.8292C13.4761 29.1499 13.083 29.3101 12.625 29.3101H10.2432C9.78519 29.3101 9.39205 29.1499 9.06381 28.8292C8.73557 28.5086 8.57143 28.1193 8.57143 27.6612V12.3631C8.57143 11.9051 8.73557 11.5158 9.06381 11.1952C9.39205 10.8745 9.78519 10.7142 10.2432 10.7142H12.625ZM10.3349 16.4396C10.1669 16.4396 10.0295 16.5083 9.92262 16.6457C9.81571 16.7831 9.76228 16.9587 9.76228 17.1724C9.76228 17.3709 9.81571 17.5427 9.92262 17.6877C10.0295 17.8328 10.1669 17.9053 10.3349 17.9053H12.5334C12.7013 17.9053 12.8349 17.8328 12.9341 17.6877C13.0334 17.5427 13.083 17.3709 13.083 17.1724C13.083 16.9587 13.0334 16.7831 12.9341 16.6457C12.8349 16.5083 12.7013 16.4396 12.5334 16.4396H10.3349ZM12.625 23.6306C12.7929 23.6306 12.9265 23.5619 13.0258 23.4245C13.125 23.2871 13.1746 23.1191 13.1746 22.9207C13.1746 22.7069 13.125 22.5351 13.0258 22.4054C12.9265 22.2756 12.7929 22.2107 12.625 22.2107H10.3349C10.1669 22.2107 10.0295 22.2756 9.92262 22.4054C9.81571 22.5351 9.76228 22.7069 9.76228 22.9207C9.76228 23.1191 9.81571 23.2871 9.92262 23.4245C10.0295 23.5619 10.1669 23.6306 10.3349 23.6306H12.625ZM12.625 20.8138C12.7929 20.8138 12.9265 20.745 13.0258 20.6076C13.125 20.4702 13.1746 20.2946 13.1746 20.0809C13.1746 19.8671 13.125 19.6916 13.0258 19.5541C12.9265 19.4168 12.7929 19.348 12.625 19.348H10.3349C10.1669 19.348 10.0295 19.4168 9.92262 19.5541C9.81571 19.6916 9.76228 19.8671 9.76228 20.0809C9.76228 20.2946 9.81571 20.4702 9.92262 20.6076C10.0295 20.745 10.1669 20.8138 10.3349 20.8138H12.625Z" fill="#FFCC00"/>
<path d="M31.403 26.9076C31.4793 27.3656 31.3839 27.7779 31.1167 28.1443C30.8496 28.5107 30.487 28.7321 30.0289 28.8084L27.2808 29.2435C26.838 29.3199 26.4296 29.2244 26.0555 28.9573C25.6815 28.6901 25.4563 28.3275 25.38 27.8694L23.044 13.0752C23.0135 12.8462 23.0249 12.6286 23.0783 12.4225C23.1313 12.2175 23.2205 12.0236 23.3417 11.85C23.4639 11.6744 23.6203 11.5293 23.8112 11.4148C24.002 11.3003 24.212 11.2202 24.441 11.1743L27.1662 10.7392C27.6243 10.6629 28.0365 10.7622 28.4029 11.037C28.7693 11.3118 28.9907 11.6782 29.067 12.1362L31.403 26.9076Z" fill="#FFCC00" fill-opacity="0.4"/>
</g>
<defs>
<clipPath id="clip0_2144_195">
<rect width="40" height="40" fill="white"/>
</clipPath>
</defs>
</svg>
