<svg width="40" height="40" viewBox="0 0 40 40" fill="none" xmlns="http://www.w3.org/2000/svg">
<g clip-path="url(#clip0_2695_341)">
<path d="M0 11.4286C0 5.11676 5.11676 0 11.4286 0H28.5714C34.8832 0 40 5.11676 40 11.4286V28.5714C40 34.8832 34.8832 40 28.5714 40H11.4286C5.11676 40 0 34.8832 0 28.5714V11.4286Z" fill="white"/>
<path d="M0 11.4286C0 5.11676 5.11676 0 11.4286 0H28.5714C34.8832 0 40 5.11676 40 11.4286V28.5714C40 34.8832 34.8832 40 28.5714 40H11.4286C5.11676 40 0 34.8832 0 28.5714V11.4286Z" fill="#007AFF" fill-opacity="0.1"/>
<g clip-path="url(#clip1_2695_341)">
<path d="M13.4046 31.2296C13.2002 31.2296 13.0093 31.151 12.8655 31.0072C12.724 30.8657 12.6432 30.6703 12.6432 30.4682V25.1674C12.6432 25.1247 12.6117 25.0888 12.569 25.0821C11.6908 24.9675 10.1343 24.6396 9.56601 23.7187C9.28749 23.2672 9.26279 22.7259 9.49638 22.1981C10.1073 20.8235 11.1248 19.8307 11.6751 19.3635C11.6908 19.35 11.702 19.3298 11.7043 19.3096C11.9042 17.7081 13.3058 9.72327 21.3333 9.72327C25.7042 9.72327 29.2373 11.7021 30.7849 15.0128C32.4335 18.5459 31.4654 22.9281 28.1277 27.0384C28.1143 27.0541 28.1098 27.0721 28.1098 27.0923V30.3379C28.1098 30.7579 27.7684 31.0993 27.3483 31.0993C26.9283 31.0993 26.5869 30.7579 26.5869 30.3379V26.7846C26.5869 26.6049 26.6498 26.432 26.7643 26.2949C29.8685 22.5866 30.832 18.7054 29.408 15.653C28.1165 12.8903 25.1 11.2416 21.3355 11.2416C13.7842 11.2416 13.2092 19.4309 13.1867 19.779C13.171 20.0059 13.0587 20.2148 12.8745 20.3495C12.733 20.4573 11.5111 21.4119 10.889 22.8135C10.88 22.836 10.88 22.8607 10.889 22.8809C11.0484 23.2582 12.3624 23.5794 13.4405 23.6333C13.8471 23.6535 14.1638 23.986 14.166 24.3925V29.6192C14.166 29.6663 14.2042 29.7045 14.2514 29.7045H18.5032C18.9232 29.7045 19.2646 30.0459 19.2646 30.4659C19.2646 30.886 18.9232 31.2274 18.5032 31.2274H13.4046V31.2296Z" fill="#007AFF" fill-opacity="0.65"/>
<path d="M22.1149 24.4374C21.7937 24.4374 21.5062 24.2352 21.3984 23.9343L20.92 22.5349C20.9088 22.5012 20.8751 22.4765 20.8391 22.4765H18.3258C18.2898 22.4765 18.2561 22.499 18.2449 22.5327L17.7373 23.9455C17.6227 24.233 17.3442 24.4194 17.032 24.4194C16.9444 24.4194 16.8568 24.4037 16.7737 24.3745C16.3874 24.2352 16.1807 23.8197 16.3065 23.4266L18.9187 16.1583C19.0265 15.8573 19.314 15.6552 19.6352 15.6552C19.9632 15.6574 20.2507 15.864 20.354 16.1695L22.8404 23.4401C22.9684 23.8309 22.7528 24.2622 22.362 24.3947C22.2811 24.4239 22.2003 24.4374 22.1149 24.4374ZM19.6128 18.8895C19.5768 18.8895 19.5431 18.912 19.5319 18.9457L18.8536 20.8369C18.8446 20.8638 18.8491 20.893 18.8648 20.9155C18.8805 20.938 18.9075 20.9514 18.9344 20.9514H20.2596C20.2866 20.9514 20.3135 20.938 20.3293 20.9155C20.345 20.893 20.3495 20.8638 20.3405 20.8369L19.6936 18.9457C19.6824 18.912 19.651 18.8895 19.6128 18.8895ZM24.6665 24.3812C24.2465 24.3812 23.9051 24.051 23.9051 23.6468V16.3964C23.9051 15.9921 24.2465 15.6619 24.6665 15.6619C25.0865 15.6619 25.4279 15.9921 25.4279 16.3964V23.649C25.4257 24.0533 25.0843 24.3812 24.6665 24.3812Z" fill="#007AFF"/>
</g>
</g>
<defs>
<clipPath id="clip0_2695_341">
<rect width="40" height="40" fill="white"/>
</clipPath>
<clipPath id="clip1_2695_341">
<rect width="23" height="23" fill="white" transform="translate(9 9)"/>
</clipPath>
</defs>
</svg>
