<svg width="40" height="40" viewBox="0 0 40 40" fill="none" xmlns="http://www.w3.org/2000/svg">
<g clip-path="url(#clip0_2144_221)">
<path d="M0 11.4286C0 5.11676 5.11676 0 11.4286 0H28.5714C34.8832 0 40 5.11676 40 11.4286V28.5714C40 34.8832 34.8832 40 28.5714 40H11.4286C5.11676 40 0 34.8832 0 28.5714V11.4286Z" fill="white"/>
<path d="M0 11.4286C0 5.11676 5.11676 0 11.4286 0H28.5714C34.8832 0 40 5.11676 40 11.4286V28.5714C40 34.8832 34.8832 40 28.5714 40H11.4286C5.11676 40 0 34.8832 0 28.5714V11.4286Z" fill="#FFCC00" fill-opacity="0.1"/>
<path d="M14.2857 12.5873C14.2857 13.0256 14.641 13.3809 15.0794 13.3809H16.3492C16.7875 13.3809 17.1429 13.0256 17.1429 12.5873V10.0476C17.1429 9.25859 16.5033 8.61902 15.7143 8.61902C14.9253 8.61902 14.2857 9.25859 14.2857 10.0476V12.5873ZM22.8571 12.5873C22.8571 13.0256 23.2125 13.3809 23.6508 13.3809H24.9206C25.359 13.3809 25.7143 13.0256 25.7143 12.5873V10.0476C25.7143 9.25859 25.0747 8.61902 24.2857 8.61902C23.4967 8.61902 22.8571 9.25859 22.8571 10.0476V12.5873Z" fill="#FFCC00" fill-opacity="0.4"/>
<path d="M22.3809 12.9048C22.3809 13.4308 22.8073 13.8572 23.3333 13.8572H25.2381C25.7641 13.8572 26.1905 13.4308 26.1905 12.9048V10.9048H29.1429C30.4052 10.9048 31.4286 11.9281 31.4286 13.1905V16.2381H8.57143V13.1905C8.57143 11.9281 9.59476 10.9048 10.8571 10.9048H13.8095V12.9048C13.8095 13.4308 14.2359 13.8572 14.7619 13.8572H16.6667C17.1927 13.8572 17.619 13.4308 17.619 12.9048V10.9048H22.3809V12.9048ZM8.57143 18.5238H31.4286V29.1905C31.4286 30.4529 30.4052 31.4762 29.1429 31.4762H10.8571C9.59476 31.4762 8.57143 30.4529 8.57143 29.1905V18.5238ZM20.4948 29.8127L23.3594 20.1513H16.6667V21.6291H20.5989L17.5716 29.5197L20.4948 29.8127Z" fill="#FFCC00"/>
</g>
<defs>
<clipPath id="clip0_2144_221">
<rect width="40" height="40" fill="white"/>
</clipPath>
</defs>
</svg>
