<svg width="40" height="40" viewBox="0 0 40 40" fill="none" xmlns="http://www.w3.org/2000/svg">
<g clip-path="url(#clip0_2144_257)">
<path d="M0 11.4286C0 5.11676 5.11676 0 11.4286 0H28.5714C34.8832 0 40 5.11676 40 11.4286V28.5714C40 34.8832 34.8832 40 28.5714 40H11.4286C5.11676 40 0 34.8832 0 28.5714V11.4286Z" fill="white"/>
<path d="M0 11.4286C0 5.11676 5.11676 0 11.4286 0H28.5714C34.8832 0 40 5.11676 40 11.4286V28.5714C40 34.8832 34.8832 40 28.5714 40H11.4286C5.11676 40 0 34.8832 0 28.5714V11.4286Z" fill="#007AFF" fill-opacity="0.1"/>
<path d="M0 11.4286C0 5.11676 5.11676 0 11.4286 0H28.5714C34.8832 0 40 5.11676 40 11.4286V28.5714C40 34.8832 34.8832 40 28.5714 40H11.4286C5.11676 40 0 34.8832 0 28.5714V11.4286Z" fill="white"/>
<path d="M0 11.4286C0 5.11676 5.11676 0 11.4286 0H28.5714C34.8832 0 40 5.11676 40 11.4286V28.5714C40 34.8832 34.8832 40 28.5714 40H11.4286C5.11676 40 0 34.8832 0 28.5714V11.4286Z" fill="#38CDB8" fill-opacity="0.1"/>
<path d="M19.9643 31.4286C20.6395 31.4289 21.3161 31.4121 21.9913 31.3904C21.3444 30.4466 20.8843 29.3573 20.6663 28.1796C20.5352 28.343 20.4144 28.5144 20.3046 28.6929C20.1176 28.9949 19.8874 29.0341 19.6814 28.6959C19.1422 27.8094 18.3935 27.1826 17.4027 26.8946C17.3594 26.8817 17.3143 26.8719 17.2596 26.8602C17.2313 26.8541 17.2004 26.8474 17.1659 26.8395C17.4193 27.7205 17.9709 28.3626 18.5663 29.0513C18.5161 29.0487 18.4713 29.0486 18.4304 29.0484H18.4304C18.3528 29.048 18.2896 29.0477 18.2307 29.0317C18.0766 28.9892 17.9238 28.9415 17.7711 28.8937C17.6466 28.8548 17.522 28.8159 17.3968 28.7799C17.2784 28.7468 17.2393 28.6751 17.2192 28.5568C17.0896 27.8002 16.8197 27.1054 16.3539 26.4994C16.0089 26.0323 15.5613 25.6569 15.0482 25.4046C15.0865 26.068 15.2161 26.6998 15.3472 27.3387C15.3948 27.5706 15.4426 27.8035 15.4862 28.0391C15.4558 28.0192 15.4251 27.9997 15.3945 27.9803H15.3945C15.3279 27.938 15.2614 27.8957 15.1974 27.8492C14.8523 27.5998 14.6499 27.31 14.6546 26.8199C14.6614 26.1226 14.5199 25.4324 14.2403 24.798C14.1006 24.4806 13.9231 24.1933 13.636 23.9954C13.5939 23.9663 13.5481 23.9425 13.4954 23.9151H13.4953C13.4681 23.9009 13.439 23.8858 13.4076 23.8685C13.2675 24.5993 13.2481 25.3219 13.2285 26.0553V26.0554C13.2235 26.2394 13.2186 26.424 13.2116 26.6097C13.1187 26.5201 13.0336 26.4227 12.9572 26.3187C12.7127 25.9254 12.4747 25.5281 12.2434 25.127C12.2281 25.096 12.2202 25.062 12.2203 25.0275C12.2203 24.9928 12.2282 24.9587 12.2434 24.9279C12.7962 24.2067 12.808 23.3857 12.6506 22.5384C12.6125 22.33 12.5542 22.1255 12.496 21.9211V21.921C12.4691 21.8267 12.4422 21.7324 12.4174 21.6377L12.3469 21.6126C12.2362 21.7504 12.1341 21.8949 12.0409 22.0452C11.7545 22.5739 11.6231 23.1584 11.4881 23.7956C11.4339 23.7318 11.3867 23.6623 11.3473 23.5885C11.2147 23.2405 11.0851 22.8906 10.9667 22.5365C10.9621 22.5024 10.964 22.4677 10.9725 22.4343C10.9809 22.401 10.9956 22.3697 11.0158 22.3423C11.1274 22.1766 11.2434 22.0137 11.3594 21.8507C11.5802 21.5407 11.8009 21.2308 11.9906 20.9019C12.3671 20.2413 12.5665 19.4888 12.5683 18.7219C12.5683 18.7095 12.5687 18.6974 12.5691 18.6854V18.6853C12.5699 18.6612 12.5706 18.6371 12.5683 18.6098C12.5659 18.5818 12.5616 18.5519 12.5557 18.5114V18.5114L12.5556 18.5113C12.5529 18.4923 12.5498 18.4708 12.5464 18.4462C11.5935 18.8071 11.0034 19.5074 10.656 20.4834C10.6466 20.4692 10.6381 20.4577 10.6309 20.4481C10.6177 20.4303 10.6092 20.419 10.6092 20.4086L10.6167 20.3161C10.6586 19.8016 10.7005 19.2866 10.7518 18.7721C10.7581 18.7383 10.7721 18.7064 10.7927 18.6789C10.8131 18.6518 10.8397 18.63 10.8702 18.6153C11.5385 18.4425 12.0404 18.0099 12.4428 17.4714C12.705 17.1191 12.9333 16.7417 13.1616 16.3645C13.2601 16.2017 13.3585 16.039 13.4596 15.8784C13.4719 15.8508 13.4814 15.8221 13.4881 15.7926C13.3132 15.7062 13.1125 15.6875 12.9246 15.7399C12.2854 15.8845 11.7746 16.2754 11.2792 16.6902C11.2372 16.7251 11.1949 16.7596 11.1425 16.8023H11.1424L11.1419 16.8027C11.1089 16.8296 11.0718 16.8598 11.0283 16.8955C11.0334 16.8543 11.0359 16.8196 11.0381 16.7898C11.0421 16.7364 11.045 16.6984 11.059 16.6657C11.0922 16.5894 11.125 16.513 11.1579 16.4365L11.1579 16.4365C11.2942 16.1195 11.4306 15.8024 11.5846 15.4948C11.6343 15.382 11.7155 15.286 11.8186 15.2184C11.9201 15.1519 12.0392 15.1174 12.1605 15.1193C12.6926 15.0984 13.1868 14.9006 13.6567 14.6456C14.345 14.2696 15.2042 13.6184 15.4612 13.2214L15.4631 13.2211H15.4614L15.4612 13.2214C15.325 13.2374 15.1882 13.2506 15.0514 13.2637C14.7555 13.2922 14.4596 13.3206 14.1711 13.378C13.8774 13.4363 13.5877 13.523 13.2795 13.6154H13.2794C13.1441 13.6559 13.0051 13.6975 12.8607 13.7383C12.9222 13.6658 12.9831 13.593 13.0436 13.5197C13.1701 13.3669 13.2864 13.2265 13.4129 13.0967C13.6076 12.9015 13.8125 12.7174 14.0266 12.5454C14.0591 12.5221 14.096 12.5058 14.135 12.4974C14.1738 12.4891 14.2139 12.4889 14.2527 12.4969C15.2335 12.7408 16.2106 12.666 17.1819 12.4522C17.3501 12.4156 17.508 12.3378 17.6656 12.2602C17.7166 12.2351 17.7676 12.21 17.8188 12.1863C17.8849 12.1446 17.9459 12.0953 18.0005 12.0393C17.086 11.5319 16.1337 11.4364 15.1476 11.5448L15.1139 11.5031C15.1457 11.4702 15.1761 11.4352 15.2065 11.4003L15.2066 11.4002C15.2735 11.3232 15.3403 11.2463 15.4217 11.1919C15.587 11.0894 15.7609 11.0015 15.9414 10.9291C16.1305 10.8469 16.3392 10.8208 16.5427 10.8537C17.2766 10.9609 17.975 10.7771 18.6492 10.5038C19.018 10.3555 19.3752 10.1761 19.732 9.99698C19.8098 9.95789 19.8876 9.91884 19.9655 9.88013C20.0047 9.8545 20.0506 9.84112 20.0974 9.8417C20.1442 9.84243 20.1898 9.85708 20.2283 9.88379C20.9326 10.3072 21.6725 10.6496 22.4803 10.7869C22.808 10.8359 23.1403 10.847 23.4706 10.82C23.6872 10.7981 23.9059 10.8298 24.1074 10.9125C24.1333 10.9239 24.1593 10.9352 24.1853 10.9465C24.4214 11.0487 24.6577 11.1511 24.8176 11.3763C24.8218 11.3822 24.826 11.388 24.8302 11.3939V11.3939C24.8441 11.4131 24.8579 11.4323 24.8697 11.4529C24.8738 11.4603 24.8738 11.4744 24.8738 11.5142C23.8848 11.3953 22.9325 11.5062 22.0175 12.0043C22.2548 12.2451 22.5348 12.356 22.8177 12.4173C23.7766 12.6311 24.7425 12.7145 25.7102 12.4694C25.7669 12.451 25.8276 12.4482 25.8858 12.4614C25.9444 12.4748 25.9984 12.5036 26.0422 12.5447C26.4458 12.8927 26.8276 13.2646 27.133 13.7303C26.3062 13.37 25.4456 13.2205 24.4986 13.2205C24.5537 13.271 24.6085 13.3219 24.6628 13.3732L24.663 13.3733V13.3734C24.7457 13.451 24.8207 13.5215 24.8987 13.5881C25.5788 14.169 26.3008 14.6781 27.1549 14.9453C27.3843 15.0235 27.6232 15.0703 27.8652 15.0844C28.0996 15.0923 28.2759 15.1768 28.3742 15.3754C28.5396 15.7098 28.6905 16.052 28.8414 16.3943H28.8415C28.8854 16.494 28.9294 16.5937 28.9737 16.6933C28.9807 16.7377 28.9807 16.783 28.9737 16.8275C28.8387 16.7306 28.7069 16.6279 28.5753 16.5254C27.9756 16.0579 27.3805 15.5941 26.5068 15.7142C26.5284 15.761 26.5465 15.8019 26.5628 15.8388C26.5909 15.9023 26.6138 15.954 26.64 16.004C27.0644 16.8109 27.5485 17.5749 28.2747 18.1264C28.382 18.2084 28.5006 18.2739 28.6232 18.3335C28.9295 18.3355 29.2317 18.3551 29.5289 18.3914L29.7973 17.9274C29.8073 17.8517 29.8379 17.7802 29.8858 17.7207C30.0199 17.5428 30.1351 17.3515 30.2297 17.1497C30.6931 16.1516 30.5848 15.1726 30.1113 14.2137C30.0313 14.0523 29.9437 13.8948 29.8562 13.7373L29.8561 13.7373C29.8159 13.6653 29.7761 13.5931 29.7366 13.5207L29.6579 13.5269C29.4967 14.2763 29.3351 15.0256 29.1732 15.7748C29.16 15.761 29.1483 15.7458 29.1383 15.7295C29.1067 15.6695 29.0752 15.6095 29.0436 15.5495L29.0435 15.5494C28.9079 15.2918 28.7725 15.0346 28.6429 14.7737C28.6223 14.7122 28.6198 14.646 28.6358 14.5832C28.651 14.4931 28.6715 14.404 28.6918 14.3153V14.3152C28.7286 14.1551 28.7652 13.996 28.7701 13.8345C28.8228 12.4289 28.2292 11.3579 27.1372 10.5577C27.0862 10.5253 27.0333 10.4963 26.9786 10.4707C26.8495 11.2299 26.8336 11.9633 27.1425 12.685C27.0699 12.6597 27.0029 12.6204 26.9454 12.5692C26.8958 12.5259 26.8466 12.482 26.7979 12.4376V12.4376C26.7058 12.3543 26.6137 12.2709 26.5163 12.1949C26.474 12.166 26.441 12.1254 26.4213 12.0781C26.4013 12.0302 26.3953 11.9777 26.4038 11.9265C26.4487 11.3292 26.2948 10.734 25.9676 10.2398C25.3764 9.31951 24.4737 8.89551 23.4782 8.57141C23.5304 8.64865 23.5827 8.72536 23.635 8.80184L23.6352 8.80217C24.065 9.43193 24.4837 10.0454 24.6874 10.7845C24.6004 10.7818 24.5154 10.7582 24.4394 10.7158C24.2934 10.6205 24.1504 10.5221 24.0076 10.4239C23.8541 10.3184 23.7009 10.213 23.5445 10.1117C23.5092 10.0887 23.474 10.0654 23.4386 10.0421C23.2603 9.92413 23.0806 9.80532 22.8869 9.72451C21.9826 9.3477 21.0676 9.21965 20.1448 9.67241C20.0953 9.68947 20.0411 9.68639 19.9939 9.66384C19.4239 9.39793 18.8273 9.35322 18.2183 9.45493C17.5335 9.56889 16.8825 9.77598 16.3243 10.2398C16.1376 10.3945 15.9293 10.5221 15.7213 10.6496H15.7213C15.6583 10.6882 15.5953 10.7267 15.533 10.7661C15.4945 10.7906 15.4478 10.8026 15.3878 10.818C15.3547 10.8266 15.3176 10.8361 15.2755 10.8494C15.5373 10.0581 15.9705 9.42536 16.4057 8.78951C16.44 8.73951 16.4742 8.68951 16.5084 8.63941C16.4864 8.63632 16.4641 8.63632 16.4421 8.63941C15.7756 8.84465 15.1488 9.12836 14.6162 9.60379C13.9651 10.1865 13.5928 10.9125 13.61 11.815C13.6147 12.0454 13.5638 12.2016 13.3809 12.3321C13.2635 12.4162 13.1543 12.5127 13.0451 12.6093C12.9975 12.6515 12.9498 12.6936 12.9015 12.7346L12.8423 12.7059C13.1756 11.9945 13.1679 11.2617 13.0276 10.5002C12.9833 10.5198 12.9406 10.543 12.8997 10.5694C12.4724 10.9064 12.0557 11.2507 11.7752 11.7452C11.2585 12.6575 11.0656 13.6071 11.3881 14.6371C11.3977 14.7071 11.3836 14.7783 11.3479 14.8393C11.2346 15.0671 11.1161 15.2915 10.9977 15.5158V15.5158C10.9658 15.5762 10.9339 15.6366 10.9022 15.697C10.8833 15.7379 10.8612 15.7783 10.8459 15.8064L10.843 15.8116L10.6653 14.9843L10.6652 14.9842C10.5624 14.5055 10.4599 14.0286 10.3576 13.552L10.2689 13.5422C10.2148 13.6526 10.1585 13.7623 10.1021 13.872C9.97555 14.1187 9.84889 14.3655 9.74684 14.6199C9.29703 15.7552 9.43555 16.8164 10.1612 17.7967C10.2011 17.8622 10.22 17.9383 10.215 18.0148C10.209 18.2012 10.1948 18.3876 10.1807 18.5736V18.5736C10.1769 18.6237 10.1731 18.6737 10.1695 18.7237C10.1606 18.7689 10.1486 18.8133 10.1334 18.8567C10.0825 18.7721 10.0523 18.7213 10.0233 18.6692C9.78417 18.2403 9.52789 17.8261 9.17274 17.4849C9.01946 17.3372 8.85727 17.2006 8.62055 17.1663C8.60489 17.229 8.59458 17.2929 8.58974 17.3574C8.59208 17.4869 8.5927 17.6163 8.59327 17.7456C8.59484 18.0777 8.59636 18.409 8.62703 18.7385C8.7407 19.9736 9.14198 21.0875 10.0209 21.9716C10.2066 22.1585 10.2783 22.3906 10.3515 22.6273C10.3882 22.746 10.4253 22.8659 10.4772 22.9819L8.59684 21.3038C8.58513 21.3602 8.57664 21.4173 8.57141 21.4747C8.58441 22.2676 8.72827 23.031 9.12541 23.7178C9.67641 24.6748 10.4743 25.2312 11.5751 25.2624C11.6128 25.2587 11.6505 25.2691 11.6811 25.2915C11.7121 25.3144 11.7342 25.3474 11.7432 25.3849C11.8221 25.5597 11.91 25.7303 12.0066 25.8959C12.0358 25.9496 12.0675 26.0016 12.0992 26.0536C12.1137 26.0776 12.1284 26.1016 12.1427 26.1257L12.1114 26.1802C11.4241 25.8901 10.7055 25.6806 9.96998 25.5559C9.99484 25.6096 10.0189 25.6612 10.0423 25.7115C10.1031 25.842 10.1596 25.9632 10.2138 26.0853C10.5111 26.7638 11.0279 27.3136 11.6752 27.6396C12.4872 28.063 13.3419 28.1126 14.2202 27.9196C14.2985 27.9011 14.3808 27.91 14.4534 27.9448C14.7045 28.0943 14.9523 28.2508 15.2003 28.4075C15.2866 28.4621 15.373 28.5166 15.4596 28.5709C15.48 28.5836 15.4996 28.5977 15.5143 28.6084C15.5218 28.6138 15.528 28.6183 15.5324 28.6212L12.2913 28.9441L12.2718 29.0323C12.3666 29.0984 12.4602 29.1667 12.5538 29.235L12.5538 29.235C12.7588 29.3846 12.9637 29.5341 13.1815 29.6603C14.3652 30.3398 15.5484 30.3796 16.712 29.599C16.7676 29.5619 16.8193 29.5131 16.8704 29.4647C16.9584 29.3815 17.0449 29.2996 17.1482 29.2811C17.252 29.2624 17.3656 29.3063 17.4814 29.351C17.5476 29.3766 17.6146 29.4026 17.6809 29.4171C17.9458 29.4749 18.2117 29.5265 18.4777 29.5781C18.5836 29.5986 18.6895 29.6192 18.7954 29.6401C18.7408 29.6898 18.6753 29.7259 18.6042 29.7455C17.8904 29.9869 17.1843 30.2466 16.5456 30.6645C16.3808 30.7845 16.2227 30.9136 16.0722 31.0511L16.0876 31.1302C16.1693 31.154 16.2508 31.1832 16.3322 31.2124C16.5084 31.2756 16.6844 31.3387 16.8629 31.3471C17.8957 31.3955 18.9303 31.4286 19.9643 31.4286ZM27.4706 18.4102L27.4286 18.4162L27.4266 18.3935C27.4413 18.399 27.456 18.4046 27.4706 18.4102Z" fill="#38CDB8" fill-opacity="0.4"/>
<path d="M13.8095 19.4795C13.8095 18.7436 14.0812 18.0851 14.6247 17.5041C14.7411 17.3878 14.8576 17.2329 14.9352 17.1168C15.6727 16.1871 16.5267 15.3737 17.4194 14.599C17.6911 14.3666 17.924 14.1342 18.1957 13.9405C18.5839 13.6307 19.0497 13.437 19.5931 13.3595C20.5247 13.2433 21.3398 13.5145 22.0385 14.1729C22.3102 14.4053 22.5819 14.6378 22.8925 14.8701C23.7853 15.6448 24.6004 16.4582 25.2991 17.3878C25.4155 17.5428 25.5708 17.6978 25.6872 17.8914C26.1142 18.5112 26.2695 19.2471 26.153 19.983C26.0754 20.6028 25.8037 21.1063 25.3767 21.5711L24.678 22.3846C24.1734 22.9656 23.6688 23.5078 23.0866 24.0114C22.776 24.2826 22.4655 24.5149 22.155 24.7861C21.9609 24.941 21.8056 25.0959 21.6116 25.2122C20.9517 25.6382 20.253 25.7932 19.4767 25.677C18.8556 25.5995 18.351 25.3284 17.8852 24.9023C17.7687 24.7861 17.6523 24.7086 17.497 24.5924C16.7207 23.9727 15.9832 23.2755 15.3233 22.5008C15.0905 22.1909 14.8187 21.9198 14.5858 21.6099C14.547 21.4937 14.3917 21.3 14.2753 21.1063C13.9648 20.6415 13.8095 20.0993 13.8095 19.4795ZM19.1625 20.4123V22.5668C19.1625 22.838 19.3178 22.9929 19.5895 22.9929H20.4507C20.5283 22.9929 20.6059 22.9542 20.6447 22.9155C20.8 22.7605 20.8777 22.5668 20.8777 22.3345V20.4898C20.8777 20.4123 20.8777 20.4123 20.9553 20.4123H23.115C23.3091 20.4123 23.4643 20.2574 23.5031 20.0637V19.1665C23.5031 19.089 23.4643 19.0115 23.4255 18.934C23.3479 18.8178 23.1926 18.7791 23.0374 18.7791H20.8777V16.6246C20.8777 16.3147 20.7224 16.1598 20.4118 16.1598H19.6283C19.5507 16.1598 19.4731 16.1598 19.3954 16.1985C19.2402 16.2759 19.1625 16.4309 19.1625 16.5858V18.7404H17.0028C16.7311 18.7404 16.5758 18.8953 16.5758 19.1665V19.9862C16.5758 20.1025 16.6147 20.1799 16.6535 20.2574C16.7311 20.3736 16.8864 20.4123 17.0417 20.4123H19.1625Z" fill="#38CDB8"/>
<path d="M31.1639 22.0281L31.1608 22.0336L26.8209 29.555L23.8765 30.9266C23.8695 30.9299 23.8619 30.9314 23.8543 30.931C23.8466 30.9307 23.8392 30.9285 23.8326 30.9247C23.8259 30.9209 23.8203 30.9155 23.8162 30.909C23.8121 30.9026 23.8096 30.8952 23.8089 30.8876L23.5239 27.6503L23.5238 27.6502L27.8668 20.1233C28.4027 19.1946 29.5752 18.8682 30.4857 19.3941C31.3961 19.9201 31.6998 21.0994 31.1639 22.0281Z" fill="#38CDB8" fill-opacity="0.4"/>
</g>
<defs>
<clipPath id="clip0_2144_257">
<rect width="40" height="40" fill="white"/>
</clipPath>
</defs>
</svg>
