<svg width="40" height="40" viewBox="0 0 40 40" fill="none" xmlns="http://www.w3.org/2000/svg">
<g clip-path="url(#clip0_3115_96)">
<path d="M0 11.4286C0 5.11676 5.11676 0 11.4286 0H28.5714C34.8832 0 40 5.11676 40 11.4286V28.5714C40 34.8832 34.8832 40 28.5714 40H11.4286C5.11676 40 0 34.8832 0 28.5714V11.4286Z" fill="white"/>
<path d="M0 11.4286C0 5.11676 5.11676 0 11.4286 0H28.5714C34.8832 0 40 5.11676 40 11.4286V28.5714C40 34.8832 34.8832 40 28.5714 40H11.4286C5.11676 40 0 34.8832 0 28.5714V11.4286Z" fill="#007AFF" fill-opacity="0.1"/>
<path d="M28.313 8.57141C28.7222 8.57142 29.1273 8.65205 29.5053 8.80869C29.8833 8.96533 30.2267 9.19491 30.5159 9.48432C31.1003 10.069 31.4285 10.8617 31.4285 11.6883V28.3117C31.4285 29.1383 31.1003 29.931 30.5159 30.5156C30.2267 30.8051 29.8833 31.0346 29.5053 31.1913C29.1273 31.3479 28.7222 31.4285 28.313 31.4286H14.5267C13.7903 31.4284 13.0778 31.1675 12.5155 30.6921C11.9531 30.2166 11.5771 29.5574 11.4543 28.8312H12.7093C13.3195 28.8311 13.9055 28.5923 14.3419 28.1658C14.7785 27.7392 15.0309 27.1587 15.0452 26.5485C15.0596 25.9383 14.8348 25.3466 14.4188 24.8999C14.003 24.4533 13.4289 24.1872 12.8194 24.1584L12.7093 24.1558H11.4111V22.3376H12.7093C13.31 22.3376 13.8876 22.1062 14.3221 21.6915C14.7568 21.2766 15.015 20.7103 15.0433 20.1101L15.0459 20C15.0459 19.3991 14.8146 18.8213 14.4 18.3864C13.9855 17.9516 13.4194 17.6933 12.8194 17.6649L12.7093 17.6623H11.4111V15.8442H12.7093C13.31 15.8441 13.8876 15.6127 14.3221 15.1979C14.7568 14.7831 15.015 14.2168 15.0433 13.6166L15.0459 13.5065C15.0459 12.9056 14.8146 12.3278 14.4 11.8929C13.9855 11.4581 13.4194 11.1997 12.8194 11.1714L12.7093 11.1688H11.4543C11.5771 10.4426 11.9531 9.78337 12.5155 9.30784C13.0778 8.83243 13.7903 8.57153 14.5267 8.57141H28.313ZM16.6661 26.5553C16.428 26.5553 16.24 26.8243 16.24 27.1651C16.24 27.5058 16.4029 27.7748 16.6661 27.7748H22.5644C22.7148 27.7748 22.9528 27.5058 22.9528 27.1651C22.9528 26.8243 22.8024 26.5553 22.5268 26.5553H16.6661ZM16.6661 23.2986C16.428 23.2986 16.24 23.5318 16.24 23.9085C16.24 24.2492 16.4029 24.5183 16.6661 24.5183H25.1707C25.3336 24.5183 25.5968 24.2492 25.5717 23.9085C25.5717 23.5677 25.4088 23.2987 25.1457 23.2986H16.6661ZM24.9523 9.33332C24.7116 11.3676 24.4895 12.6062 23.9359 13.4026C23.3895 13.1383 22.7602 12.6783 21.9216 12.0169C22.583 12.8555 23.043 13.4847 23.3073 14.0312C22.5109 14.5847 21.2723 14.8069 19.238 15.0476C21.2723 15.2883 22.5109 15.5105 23.3073 16.064C23.043 16.6105 22.583 17.2397 21.9216 18.0783C22.7602 17.4169 23.3895 16.9569 23.9359 16.6926C24.4895 17.489 24.7116 18.7276 24.9523 20.7619C25.193 18.7276 25.4152 17.489 25.9688 16.6926C26.5152 16.9569 27.1445 17.4176 27.983 18.0783C27.3216 17.2397 26.8616 16.6105 26.5973 16.064C27.3938 15.5105 28.6324 15.2883 30.6666 15.0476C28.6324 14.8069 27.3938 14.5847 26.5973 14.0312C26.8616 13.4847 27.3223 12.8555 27.983 12.0169C27.1445 12.6783 26.5152 13.1383 25.9688 13.4026C25.4152 12.6062 25.193 11.3676 24.9523 9.33332Z" fill="#007AFF"/>
<path d="M13.9718 25.6483C13.7709 25.4161 13.4984 25.2857 13.2142 25.2857H9.64284C9.35865 25.2857 9.08617 25.4161 8.88522 25.6483C8.68427 25.8805 8.57141 26.1954 8.57141 26.5238C8.57141 26.8521 8.68427 27.167 8.88522 27.3992C9.08617 27.6314 9.35865 27.7618 9.64284 27.7618H13.2142C13.4984 27.7618 13.7709 27.6314 13.9718 27.3992C14.1727 27.167 14.2856 26.8521 14.2856 26.5238C14.2856 26.1954 14.1727 25.8805 13.9718 25.6483ZM13.9718 19.1245C13.7709 18.8923 13.4984 18.7618 13.2142 18.7618H9.64284C9.35865 18.7618 9.08617 18.8923 8.88522 19.1245C8.68427 19.3567 8.57141 19.6716 8.57141 19.9999C8.57141 20.3283 8.68427 20.6432 8.88522 20.8754C9.08617 21.1076 9.35865 21.238 9.64284 21.238H13.2142C13.4984 21.238 13.7709 21.1076 13.9718 20.8754C14.1727 20.6432 14.2856 20.3283 14.2856 19.9999C14.2856 19.6716 14.1727 19.3567 13.9718 19.1245ZM13.9718 12.6007C13.7709 12.3685 13.4984 12.238 13.2142 12.238H9.64284C9.35865 12.238 9.08617 12.3685 8.88522 12.6007C8.68427 12.8328 8.57141 13.1478 8.57141 13.4761C8.57141 13.8045 8.68427 14.1194 8.88522 14.3516C9.08617 14.5838 9.35865 14.7142 9.64284 14.7142H13.2142C13.4984 14.7142 13.7709 14.5838 13.9718 14.3516C14.1727 14.1194 14.2856 13.8045 14.2856 13.4761C14.2856 13.1478 14.1727 12.8328 13.9718 12.6007Z" fill="#007AFF" fill-opacity="0.4"/>
</g>
<defs>
<clipPath id="clip0_3115_96">
<rect width="40" height="40" fill="white"/>
</clipPath>
</defs>
</svg>
