<svg width="40" height="40" viewBox="0 0 40 40" fill="none" xmlns="http://www.w3.org/2000/svg">
<g clip-path="url(#clip0_2144_78)">
<path d="M0 11.4286C0 5.11676 5.11676 0 11.4286 0H28.5714C34.8832 0 40 5.11676 40 11.4286V28.5714C40 34.8832 34.8832 40 28.5714 40H11.4286C5.11676 40 0 34.8832 0 28.5714V11.4286Z" fill="white"/>
<path d="M0 11.4286C0 5.11676 5.11676 0 11.4286 0H28.5714C34.8832 0 40 5.11676 40 11.4286V28.5714C40 34.8832 34.8832 40 28.5714 40H11.4286C5.11676 40 0 34.8832 0 28.5714V11.4286Z" fill="#38CDB8" fill-opacity="0.1"/>
<path d="M24.897 14.1904H15.0956C13.2635 14.2933 11.8095 15.8115 11.8095 17.6694V27.944C11.8095 29.8684 13.3696 31.4285 15.294 31.4285H24.6986C26.623 31.4285 28.1831 29.8684 28.1831 27.944V17.6694C28.1831 15.8115 26.7291 14.2933 24.897 14.1904Z" fill="#38CDB8"/>
<path d="M23.6265 14.1905V12.8641H24.9492C25.3718 12.8641 25.7143 12.4699 25.7143 11.9836V9.45194C25.7143 8.96565 25.3718 8.57141 24.9492 8.57141H15.0508C14.6282 8.57141 14.2857 8.96565 14.2857 9.45194V11.9836C14.2857 12.4699 14.6282 12.8641 15.0508 12.8641H16.3746V14.1905H17.9013V12.8641H22.0998V14.1905H23.6265Z" fill="#38CDB8" fill-opacity="0.4"/>
<path d="M17.1429 18.0476H11.8095V22.1942H13.5484V20.8095C13.5484 20.7085 13.5886 20.6116 13.66 20.5401C13.7314 20.4687 13.8283 20.4286 13.9294 20.4286H14.4516C14.5527 20.4286 14.6496 20.4687 14.721 20.5401C14.7924 20.6116 14.8326 20.7085 14.8326 20.8095V22.1942H16.1905C16.2916 22.1942 16.3885 22.2344 16.4599 22.3058C16.5313 22.3772 16.5715 22.4741 16.5715 22.5752V23.0974C16.5715 23.1984 16.5313 23.2953 16.4599 23.3667C16.3885 23.4382 16.2916 23.4783 16.1905 23.4783H14.8326V24.8095C14.8326 24.9105 14.7924 25.0074 14.721 25.0789C14.6496 25.1503 14.5527 25.1905 14.4516 25.1905H13.9294C13.8283 25.1905 13.7314 25.1503 13.66 25.0789C13.5886 25.0074 13.5484 24.9105 13.5484 24.8095V23.4783H11.8095V27.5714H17.1429C18.4052 27.5714 19.4286 26.5481 19.4286 25.2857V20.3333C19.4286 19.0709 18.4052 18.0476 17.1429 18.0476Z" fill="white"/>
</g>
<defs>
<clipPath id="clip0_2144_78">
<rect width="40" height="40" fill="white"/>
</clipPath>
</defs>
</svg>
