<svg width="40" height="40" viewBox="0 0 40 40" fill="none" xmlns="http://www.w3.org/2000/svg">
<g clip-path="url(#clip0_2144_158)">
<path d="M0 11.4286C0 5.11676 5.11676 0 11.4286 0H28.5714C34.8832 0 40 5.11676 40 11.4286V28.5714C40 34.8832 34.8832 40 28.5714 40H11.4286C5.11676 40 0 34.8832 0 28.5714V11.4286Z" fill="white"/>
<path d="M0 11.4286C0 5.11676 5.11676 0 11.4286 0H28.5714C34.8832 0 40 5.11676 40 11.4286V28.5714C40 34.8832 34.8832 40 28.5714 40H11.4286C5.11676 40 0 34.8832 0 28.5714V11.4286Z" fill="#007AFF" fill-opacity="0.1"/>
<path d="M31.4286 15.519C31.4286 15.217 31.169 15.0002 30.8854 15.0002C30.7994 15.0002 30.7146 15.0205 30.6379 15.0595L20.9933 19.8225C20.8193 19.9108 20.713 20.0858 20.713 20.2774V30.9127C20.7136 31.0924 20.8119 31.2589 20.9723 31.3521C21.052 31.3981 21.1417 31.4237 21.2336 31.4267C21.3254 31.4296 21.4166 31.4099 21.4991 31.3693L31.1359 26.6109C31.3158 26.5232 31.4289 26.3461 31.4286 26.1528V15.519ZM22.4547 21.0431L29.6872 17.4713V25.384L22.4547 28.9553V21.0431Z" fill="#007AFF" fill-opacity="0.4"/>
<path d="M9.34024 15.0506C9.26707 15.0169 9.18757 14.9993 9.10705 14.9988V15.0003L9.09752 15.0004C8.80647 15.006 8.57224 15.2333 8.57143 15.5132V26.1543L8.57152 26.1645C8.57543 26.3541 8.68771 26.5257 8.86262 26.6109L18.5039 31.3722L18.5143 31.3772C18.5956 31.4147 18.6847 31.4321 18.7741 31.428C18.8635 31.4238 18.9506 31.3982 19.028 31.3533C19.1875 31.2602 19.2849 31.0944 19.2855 30.9156V20.2746L19.2854 20.2643C19.2818 20.0761 19.1708 19.9046 18.9958 19.8179L9.353 15.0566L9.34024 15.0506ZM12.4802 22.1607C12.1179 21.9806 11.9769 21.5361 12.1691 21.1801C12.3525 20.8406 12.772 20.7076 13.1175 20.8796L16.0305 22.3297C16.3924 22.5099 16.5329 22.954 16.3405 23.3095C16.1572 23.648 15.7387 23.7806 15.394 23.6092L12.4802 22.1607ZM12.4887 24.6378C12.1261 24.4576 11.9854 24.0126 12.1782 23.6566C12.3618 23.3179 12.7807 23.1854 13.1256 23.357L16.0387 24.8062C16.401 24.9864 16.5416 25.4312 16.3487 25.7869C16.1651 26.1252 15.7468 26.2575 15.4022 26.0861L12.4887 24.6378ZM19.9225 8.61474C19.853 8.58732 19.7776 8.57141 19.7022 8.57141L19.6861 8.5716C19.6186 8.57328 19.5519 8.58742 19.4894 8.61332L9.51771 12.6521C9.32505 12.7296 9.19543 12.9056 9.18386 13.1055C9.17233 13.3053 9.28085 13.494 9.46343 13.5914L19.6479 18.5217C19.7299 18.5652 19.8213 18.5879 19.9142 18.5879C20.007 18.5879 20.0984 18.5652 20.1805 18.5217L30.0179 13.759C30.4117 13.5466 30.3845 12.9946 29.9711 12.8212L19.9225 8.61474ZM12.7209 13.2336L19.6967 10.4082L26.8003 13.3818L19.9139 16.7158L12.7209 13.2336Z" fill="#007AFF"/>
</g>
<defs>
<clipPath id="clip0_2144_158">
<rect width="40" height="40" fill="white"/>
</clipPath>
</defs>
</svg>
