<svg width="40" height="40" viewBox="0 0 40 40" fill="none" xmlns="http://www.w3.org/2000/svg">
<g clip-path="url(#clip0_2144_189)">
<path d="M0 11.4286C0 5.11676 5.11676 0 11.4286 0H28.5714C34.8832 0 40 5.11676 40 11.4286V28.5714C40 34.8832 34.8832 40 28.5714 40H11.4286C5.11676 40 0 34.8832 0 28.5714V11.4286Z" fill="white"/>
<path d="M0 11.4286C0 5.11676 5.11676 0 11.4286 0H28.5714C34.8832 0 40 5.11676 40 11.4286V28.5714C40 34.8832 34.8832 40 28.5714 40H11.4286C5.11676 40 0 34.8832 0 28.5714V11.4286Z" fill="#FFCC00" fill-opacity="0.1"/>
<path d="M16.3238 17.3842C15.8439 16.9051 15.4631 16.3361 15.2032 15.7097C14.9434 15.0834 14.8096 14.4119 14.8095 13.7338C14.8096 13.0557 14.9434 12.3842 15.2032 11.7579C15.4631 11.1315 15.8439 10.5625 16.3238 10.0835C17.294 9.11507 18.6088 8.57125 19.9796 8.57141C21.3504 8.57125 22.6652 9.11506 23.6354 10.0835C24.1153 10.5625 24.4961 11.1315 24.756 11.7579C25.0158 12.3842 25.1496 13.0557 25.1497 13.7338C25.1496 14.4119 25.0158 15.0834 24.756 15.7097C24.4961 16.3361 24.1153 16.9051 23.6354 17.3842C22.6652 18.3525 21.3504 18.8963 19.9796 18.8962C18.6088 18.8963 17.294 18.3525 16.3238 17.3842ZM16.1361 21.2432C16.1361 20.7531 16.217 20.283 16.3655 19.8471C12.8022 20.7544 10.2712 23.035 10.2054 26.2768H10.2041V26.9115H29.7959V26.2768H29.7946C29.729 23.044 27.2119 20.7672 23.6644 19.8548C23.8112 20.2886 23.8911 20.756 23.8911 21.2432C23.8911 23.3476 22.3995 25.0826 20.476 25.3248L21.6871 19.9011H18.3129L19.5233 25.3212C17.6132 25.0657 16.1361 23.3374 16.1361 21.2432Z" fill="#FFCC00"/>
<path d="M30.068 27.6248C30.8194 27.6248 31.4286 28.233 31.4286 28.9833C31.4286 29.7336 30.8194 30.3418 30.068 30.3418H29.2517V31.4286H10.7483V30.3418H9.93195C9.18057 30.3418 8.57143 29.7336 8.57143 28.9833C8.57143 28.233 9.18057 27.6248 9.93195 27.6248H30.068Z" fill="#FFCC00" fill-opacity="0.4"/>
</g>
<defs>
<clipPath id="clip0_2144_189">
<rect width="40" height="40" fill="white"/>
</clipPath>
</defs>
</svg>
