<svg width="40" height="40" viewBox="0 0 40 40" fill="none" xmlns="http://www.w3.org/2000/svg">
<g clip-path="url(#clip0_2695_275)">
<path d="M0 11.4286C0 5.11676 5.11676 0 11.4286 0H28.5714C34.8832 0 40 5.11676 40 11.4286V28.5714C40 34.8832 34.8832 40 28.5714 40H11.4286C5.11676 40 0 34.8832 0 28.5714V11.4286Z" fill="white"/>
<path d="M0 11.4286C0 5.11676 5.11676 0 11.4286 0H28.5714C34.8832 0 40 5.11676 40 11.4286V28.5714C40 34.8832 34.8832 40 28.5714 40H11.4286C5.11676 40 0 34.8832 0 28.5714V11.4286Z" fill="#007AFF" fill-opacity="0.1"/>
<path d="M21.0623 11.7986C17.5314 11.1347 14.423 13.0963 13.4875 16.5367C13.0348 18.2267 12.7028 19.7658 14.9059 23.5985C15.3585 24.4133 15.268 25.8317 15.1775 26.6465C15.1171 27.0992 17.2296 27.7933 18.0143 28.0046L21.0623 11.7986Z" fill="#007AFF" fill-opacity="0.4"/>
<path d="M26.4039 18.9509C26.766 15.3898 24.5932 12.4625 21.0924 11.7986H21.0623L18.0142 28.0045C18.829 28.0951 21.0321 28.2158 21.1528 27.7631C21.3641 26.9483 21.8167 25.6204 22.5108 25.0168C25.9814 22.2706 26.2228 20.7013 26.4039 18.9509Z" fill="#007AFF"/>
<path d="M15.0266 25.1677L14.2117 29.5436C14.2117 29.6342 14.2721 29.7247 14.4532 29.8756L16.5355 31.626C16.7166 31.7768 17.0183 31.8976 17.29 31.9579L18.4367 25.8015L15.0266 25.1677Z" fill="white"/>
<path d="M15.0266 25.1677L14.2117 29.5436C14.2117 29.6342 14.2721 29.7247 14.4532 29.8756L16.5355 31.626C16.7166 31.7768 17.0183 31.8976 17.29 31.9579L18.4367 25.8015L15.0266 25.1677Z" fill="#007AFF" fill-opacity="0.65"/>
<path d="M18.4368 25.8015L17.29 31.958C17.5918 32.0183 17.8634 32.0183 18.1048 31.9278L20.67 31.0526C20.8812 30.9922 21.002 30.9017 21.0321 30.8413L21.847 26.4353L18.4368 25.8015Z" fill="white"/>
<path d="M18.4368 25.8015L17.29 31.958C17.5918 32.0183 17.8634 32.0183 18.1048 31.9278L20.67 31.0526C20.8812 30.9922 21.002 30.9017 21.0321 30.8413L21.847 26.4353L18.4368 25.8015Z" fill="#007AFF" fill-opacity="0.8"/>
<path d="M21.4801 10.3195C21.4165 10.6184 21.1306 10.8072 20.8288 10.76C20.527 10.6971 20.3205 10.4139 20.384 10.115L20.7017 8.44765C20.7653 8.14878 21.0512 7.96002 21.353 8.00721C21.6548 8.07013 21.8613 8.35327 21.7978 8.65214L21.4801 10.3195Z" fill="#007AFF" fill-opacity="0.65"/>
<path d="M16.8248 10.6972C16.9963 10.9465 16.9339 11.2894 16.6844 11.4609C16.4349 11.6323 16.0918 11.57 15.9203 11.3206L14.969 9.93345C14.7974 9.68408 14.8598 9.34118 15.1093 9.16974C15.3589 8.99829 15.7019 9.06063 15.8735 9.31001L16.8248 10.6972ZM25.1618 11.4609C24.9123 11.6323 24.8499 11.9752 25.0215 12.2246C25.193 12.474 25.5361 12.5363 25.7856 12.3649L27.1735 11.4141C27.4231 11.2427 27.4854 10.8998 27.3139 10.6504C27.1424 10.401 26.7993 10.3387 26.5498 10.5101L25.1618 11.4609Z" fill="#007AFF" fill-opacity="0.15"/>
<path d="M13.3078 12.7873C13.6047 12.8501 13.8078 13.1324 13.7453 13.4304C13.6828 13.7284 13.4016 13.9167 13.1047 13.8696L11.4488 13.5559C11.1519 13.4932 10.9488 13.2108 11.0113 12.9128C11.0738 12.6148 11.355 12.4266 11.6518 12.4736L13.3078 12.7873ZM28.9637 14.8892C29.2605 14.9519 29.4636 15.2342 29.4011 15.5322C29.3386 15.8303 29.0574 16.0185 28.7606 15.9714L27.1046 15.6577C26.8077 15.595 26.6047 15.3127 26.6671 15.0146C26.7296 14.7166 27.0108 14.5284 27.3077 14.5754L28.9637 14.8892Z" fill="#007AFF" fill-opacity="0.65"/>
<path d="M21.9676 28.3063C22.028 28.0649 21.8469 27.8235 21.6055 27.7933L18.1953 27.1595L18.0444 28.0347L21.4546 28.6685C21.6658 28.6987 21.9072 28.5478 21.9676 28.3063Z" fill="white"/>
<path d="M21.9676 28.3063C22.028 28.0649 21.8469 27.8235 21.6055 27.7933L18.1953 27.1595L18.0444 28.0347L21.4546 28.6685C21.6658 28.6987 21.9072 28.5478 21.9676 28.3063Z" fill="#007AFF" fill-opacity="0.4"/>
<path d="M14.755 26.4956C14.5136 26.4352 14.2722 26.6163 14.242 26.8577C14.1816 27.0992 14.3627 27.3406 14.6041 27.3708L18.0143 28.0045L18.1652 27.1293L14.755 26.4956ZM14.4231 28.3365C14.1816 28.2761 13.9402 28.4572 13.91 28.6986C13.8497 28.9401 14.0307 29.1815 14.2722 29.2117L17.6823 29.8454L17.8332 28.9702L14.4231 28.3365Z" fill="white"/>
<path d="M21.2434 29.604L17.8332 28.9702L17.6823 29.8454L21.0925 30.4791C21.3339 30.5395 21.5754 30.3584 21.6055 30.117C21.6659 29.8756 21.515 29.6341 21.2434 29.604Z" fill="white"/>
<path d="M21.2434 29.604L17.8332 28.9702L17.6823 29.8454L21.0925 30.4791C21.3339 30.5395 21.5754 30.3584 21.6055 30.117C21.6659 29.8756 21.515 29.6341 21.2434 29.604Z" fill="#007AFF" fill-opacity="0.4"/>
<path fill-rule="evenodd" clip-rule="evenodd" d="M23.7121 14.9287L22.206 22.1207H23.6876L25.1888 14.9287H23.7121ZM16.8684 20.5312H19.7188L19.9591 22.1207H21.3622L20.1946 14.9287H18.5512L14.4842 22.1207H16.005L16.8684 20.5312ZM19.1202 16.4397L19.5372 19.3342H17.3836L19.1202 16.4397Z" fill="white"/>
</g>
<defs>
<clipPath id="clip0_2695_275">
<rect width="40" height="40" fill="white"/>
</clipPath>
</defs>
</svg>
