<svg width="40" height="40" viewBox="0 0 40 40" fill="none" xmlns="http://www.w3.org/2000/svg">
<g clip-path="url(#clip0_2144_139)">
<path d="M0 11.4286C0 5.11676 5.11676 0 11.4286 0H28.5714C34.8832 0 40 5.11676 40 11.4286V28.5714C40 34.8832 34.8832 40 28.5714 40H11.4286C5.11676 40 0 34.8832 0 28.5714V11.4286Z" fill="white"/>
<path d="M0 11.4286C0 5.11676 5.11676 0 11.4286 0H28.5714C34.8832 0 40 5.11676 40 11.4286V28.5714C40 34.8832 34.8832 40 28.5714 40H11.4286C5.11676 40 0 34.8832 0 28.5714V11.4286Z" fill="#007AFF" fill-opacity="0.1"/>
<path d="M11.0399 16.4593C9.99219 17.0641 9.63324 18.4038 10.2381 19.4515L14.335 26.5476C14.9399 27.5953 16.2796 27.9543 17.3273 27.3494L29.8207 20.1363C30.8684 19.5314 31.2273 18.1918 30.6224 17.1441L26.5255 10.048C25.9206 9.00029 24.581 8.64134 23.5332 9.24624L11.0399 16.4593ZM21.4733 18.8924L20.1866 19.6352C19.6716 18.931 19.8509 18.2885 20.0077 17.7266C20.1212 17.3198 20.2229 16.9553 20.041 16.6401C19.8171 16.2524 19.4602 16.2056 19.1055 16.4104C18.7674 16.6056 18.5844 16.8982 18.5036 17.3297L17.2668 17.0541C17.3944 16.2656 17.8507 15.5512 18.593 15.1227C19.624 14.5274 20.7193 14.5769 21.3669 15.6986C21.7244 16.3178 21.5654 16.8499 21.412 17.3635C21.2609 17.8692 21.1151 18.3571 21.4733 18.8924ZM22.5093 20.2297C22.7903 20.7163 22.6404 21.2758 22.1538 21.5567C21.6589 21.8424 21.1077 21.6878 20.8268 21.2011C20.5458 20.7145 20.7052 20.1716 21.1919 19.8906C21.6785 19.6097 22.2284 19.7431 22.5093 20.2297Z" fill="#007AFF"/>
<path d="M13.078 25.8176H11.1667C9.73335 25.8176 8.57144 26.9795 8.57144 28.4129C8.57144 29.8462 9.73335 31.0081 11.1667 31.0081H28.8333C30.2667 31.0081 31.4286 29.8462 31.4286 28.4129C31.4286 26.9795 30.2667 25.8176 28.8333 25.8176H21.3442L18.7049 27.3414H28.8333C29.4251 27.3414 29.9048 27.8211 29.9048 28.4129C29.9048 29.0046 29.4251 29.4843 28.8333 29.4843H11.1667C10.575 29.4843 10.0953 29.0046 10.0953 28.4129C10.0953 27.8211 10.575 27.3414 11.1667 27.3414H13.9578L13.078 25.8176Z" fill="#007AFF" fill-opacity="0.4"/>
</g>
<defs>
<clipPath id="clip0_2144_139">
<rect width="40" height="40" fill="white"/>
</clipPath>
</defs>
</svg>
