<svg width="40" height="40" viewBox="0 0 40 40" fill="none" xmlns="http://www.w3.org/2000/svg">
<g clip-path="url(#clip0_2144_152)">
<path d="M0 11.4286C0 5.11676 5.11676 0 11.4286 0H28.5714C34.8832 0 40 5.11676 40 11.4286V28.5714C40 34.8832 34.8832 40 28.5714 40H11.4286C5.11676 40 0 34.8832 0 28.5714V11.4286Z" fill="white"/>
<path d="M0 11.4286C0 5.11676 5.11676 0 11.4286 0H28.5714C34.8832 0 40 5.11676 40 11.4286V28.5714C40 34.8832 34.8832 40 28.5714 40H11.4286C5.11676 40 0 34.8832 0 28.5714V11.4286Z" fill="#007AFF" fill-opacity="0.1"/>
<path d="M11.6343 17.8927C11.8171 21.0006 14.24 23.5058 17.2571 23.5058C20.2743 23.5058 22.6971 21.0006 22.88 17.894C20.9965 17.7012 19.1047 17.6009 17.2114 17.5932C15.1543 17.5932 13.0971 17.7424 11.6343 17.894V17.8927ZM20.32 24.0563C19.6343 24.0563 17.2571 27.3146 17.2571 27.3146C17.2571 27.3146 15.0171 24.0576 14.1943 24.0576C11.3143 24.0576 8.57143 27.2636 8.57143 29.9701C8.57143 31.1731 12.2743 29.9701 17.5314 29.9701C22.7429 29.9701 25.9429 31.1731 25.9429 29.9701C25.9429 27.3643 22.7429 24.0576 20.32 24.0576V24.0563ZM23.3829 17.0415L22.3771 10.5772C22.3771 10.5772 20.5943 9.4762 17.2571 9.4762C13.92 9.4762 12.1371 10.5784 12.1371 10.5784L11.1314 17.0428C11.1314 17.0428 14.56 16.4922 17.44 16.4922C20.1829 16.4922 23.3829 17.0428 23.3829 17.0428V17.0415ZM16.8 15.0881V13.5844H15.3829C15.1086 13.5844 14.9257 13.3843 14.9257 13.0836C14.9257 12.7829 15.1543 12.5816 15.3829 12.5816H16.8V11.0792C16.8 10.8033 17.0057 10.5784 17.2571 10.5784C17.5086 10.5784 17.7143 10.8021 17.7143 11.0805V12.5841H19.1314C19.4057 12.5841 19.5886 12.7829 19.5886 13.0849C19.5886 13.3608 19.3829 13.5857 19.1314 13.5857H17.7143V15.0893C17.7143 15.3651 17.5086 15.5901 17.2571 15.5901C17.0057 15.5901 16.8 15.3664 16.8 15.0893V15.0881Z" fill="#007AFF"/>
<path d="M26.3977 24.5099C28.5657 24.5099 31.4286 27.4687 31.4286 29.8011C31.4286 30.5343 30.096 30.2684 27.7657 30.0249L27.7714 29.954C27.7714 28.4206 26.6629 26.6423 25.2549 25.4394C25.72 24.9237 26.1657 24.5099 26.3977 24.5099ZM24.6103 18.739C26.144 18.7738 27.6103 18.8856 28.688 18.9962C28.5246 21.7748 26.3566 24.019 23.6571 24.019C22.864 24.0208 22.0815 23.8217 21.3714 23.4375V23.2001L21.4514 23.1455C22.8937 22.1281 23.989 20.6241 24.5691 18.8645L24.6103 18.739ZM23.8537 11.4645C26.5109 11.503 28.0171 12.3219 28.2149 12.4362L28.2377 12.4487L29.1371 18.2345C29.1371 18.2345 27.0126 17.8679 24.856 17.7672C24.9703 17.1782 25.0286 16.5768 25.0286 15.9729C25.0312 14.4629 24.6652 12.9791 23.968 11.6732L23.8537 11.4645Z" fill="#007AFF" fill-opacity="0.4"/>
</g>
<defs>
<clipPath id="clip0_2144_152">
<rect width="40" height="40" fill="white"/>
</clipPath>
</defs>
</svg>
