<svg width="40" height="40" viewBox="0 0 40 40" fill="none" xmlns="http://www.w3.org/2000/svg">
<g clip-path="url(#clip0_2144_240)">
<path d="M0 11.4286C0 5.11676 5.11676 0 11.4286 0H28.5714C34.8832 0 40 5.11676 40 11.4286V28.5714C40 34.8832 34.8832 40 28.5714 40H11.4286C5.11676 40 0 34.8832 0 28.5714V11.4286Z" fill="white"/>
<path d="M0 11.4286C0 5.11676 5.11676 0 11.4286 0H28.5714C34.8832 0 40 5.11676 40 11.4286V28.5714C40 34.8832 34.8832 40 28.5714 40H11.4286C5.11676 40 0 34.8832 0 28.5714V11.4286Z" fill="#FFCC00" fill-opacity="0.1"/>
<path d="M11.6668 17.8161L11.6667 17.8148V17.8161H11.6668ZM11.6668 17.8161C11.8578 21.0529 14.3814 23.6618 17.5238 23.6618C20.6667 23.6618 23.1905 21.0522 23.381 17.8161C21.419 17.6154 19.4484 17.5108 17.4762 17.5028C15.3334 17.5028 13.1905 17.6582 11.6668 17.8161ZM17.5238 27.6292C17.5238 27.6292 20 24.2352 20.7143 24.2352V24.2365C21.1438 24.2365 21.5969 24.3363 22.0529 24.5153C21.7414 25.3641 21.5714 26.2813 21.5714 27.2381C21.5714 28.4633 21.8501 29.6233 22.3477 30.6584C21.078 30.5245 19.5517 30.3955 17.8095 30.3955C15.5986 30.3955 13.6516 30.5997 12.1158 30.7608C9.84758 30.9988 8.4762 31.1426 8.4762 30.3955C8.4762 27.5762 11.3333 24.2365 14.3333 24.2365C15.1905 24.2365 17.5238 27.6292 17.5238 27.6292ZM22.8571 10.1945L23.9048 16.9281V16.9294C23.9048 16.9294 20.5714 16.356 17.7143 16.356C14.7143 16.356 11.1429 16.9294 11.1429 16.9294L12.1905 10.1958C12.1905 10.1958 14.0476 9.04761 17.5238 9.04761C21 9.04761 22.8571 10.1945 22.8571 10.1945ZM17.0476 13.327V14.8946C17.0476 15.1832 17.2619 15.4162 17.5238 15.4162C17.7857 15.4162 18 15.1819 18 14.8946V13.3283H19.4762C19.7381 13.3283 19.9524 13.094 19.9524 12.8067C19.9524 12.4921 19.7619 12.285 19.4762 12.285H18V10.7187C18 10.4287 17.7857 10.1958 17.5238 10.1958C17.2619 10.1958 17.0476 10.4301 17.0476 10.7174V12.2824H15.5714C15.3333 12.2824 15.0952 12.4921 15.0952 12.8054C15.0952 13.1186 15.2857 13.327 15.5714 13.327H17.0476Z" fill="#FFCC00"/>
<path d="M29.4379 24.6719C29.4379 24.0661 29.9049 23.5749 30.4809 23.5749C31.0569 23.5749 31.5238 24.0661 31.5238 24.6719V29.8078C31.5238 30.4137 31.0569 30.9048 30.4809 30.9048C29.9049 30.9048 29.4379 30.4137 29.4379 29.8078V24.6719ZM27.1774 21.381C26.6014 21.381 26.1345 21.8721 26.1345 22.478V29.8078C26.1345 30.4137 26.6014 30.9048 27.1774 30.9048C27.7534 30.9048 28.2204 30.4137 28.2204 29.8078V22.478C28.2204 21.8721 27.7534 21.381 27.1774 21.381ZM23.9001 25.1706C23.3241 25.1706 22.8571 25.6617 22.8571 26.2676V29.8078C22.8571 30.4137 23.3241 30.9048 23.9001 30.9048C24.4761 30.9048 24.9431 30.4137 24.9431 29.8078V26.2676C24.9431 25.6617 24.4761 25.1706 23.9001 25.1706Z" fill="#FFCC00" fill-opacity="0.4"/>
</g>
<defs>
<clipPath id="clip0_2144_240">
<rect width="40" height="40" fill="white"/>
</clipPath>
</defs>
</svg>
