<svg width="40" height="40" viewBox="0 0 40 40" fill="none" xmlns="http://www.w3.org/2000/svg">
<g clip-path="url(#clip0_2144_84)">
<path d="M0 11.4286C0 5.11676 5.11676 0 11.4286 0H28.5714C34.8832 0 40 5.11676 40 11.4286V28.5714C40 34.8832 34.8832 40 28.5714 40H11.4286C5.11676 40 0 34.8832 0 28.5714V11.4286Z" fill="white"/>
<path d="M0 11.4286C0 5.11676 5.11676 0 11.4286 0H28.5714C34.8832 0 40 5.11676 40 11.4286V28.5714C40 34.8832 34.8832 40 28.5714 40H11.4286C5.11676 40 0 34.8832 0 28.5714V11.4286Z" fill="#38CDB8" fill-opacity="0.1"/>
<path d="M16.1903 18.9116C19.5898 18.9116 23.8092 21.3522 23.8092 26.2131V31.4286H8.57143V26.2131C8.57143 21.3522 12.791 18.9116 16.1903 18.9116ZM16.1975 8.57141C18.6106 8.57141 20.544 10.5158 20.544 12.9252C20.544 15.3344 18.6106 17.2789 16.1975 17.2789C13.7842 17.2789 11.8367 15.3344 11.8367 12.9252C11.8367 10.5158 13.7842 8.57141 16.1975 8.57141Z" fill="#38CDB8"/>
<path d="M24.2596 19.4122C27.8635 19.4122 31.4286 21.7468 31.4286 26.3963V31.385H25.2837V26.3963C25.2837 23.4422 24.6275 21.2219 23.2654 19.5117C23.6245 19.4513 23.9626 19.4122 24.2596 19.4122ZM25.9927 9.61633C28.1042 9.61633 29.796 11.3177 29.796 13.4259C29.796 15.534 28.1042 17.2354 25.9927 17.2354C23.8811 17.2354 22.177 15.534 22.177 13.4259C22.177 11.3177 23.8811 9.61633 25.9927 9.61633Z" fill="#38CDB8" fill-opacity="0.4"/>
</g>
<defs>
<clipPath id="clip0_2144_84">
<rect width="40" height="40" fill="white"/>
</clipPath>
</defs>
</svg>
