<svg width="40" height="40" viewBox="0 0 40 40" fill="none" xmlns="http://www.w3.org/2000/svg">
<g clip-path="url(#clip0_2144_115)">
<path d="M0 11.4286C0 5.11676 5.11676 0 11.4286 0H28.5714C34.8832 0 40 5.11676 40 11.4286V28.5714C40 34.8832 34.8832 40 28.5714 40H11.4286C5.11676 40 0 34.8832 0 28.5714V11.4286Z" fill="white"/>
<path d="M0 11.4286C0 5.11676 5.11676 0 11.4286 0H28.5714C34.8832 0 40 5.11676 40 11.4286V28.5714C40 34.8832 34.8832 40 28.5714 40H11.4286C5.11676 40 0 34.8832 0 28.5714V11.4286Z" fill="#38CDB8" fill-opacity="0.1"/>
<path d="M25.9524 8.57141C27.3988 8.57141 28.5714 9.74346 28.5714 11.1892V25.9441C28.5714 27.3899 27.3988 28.5619 25.9524 28.5619H14.0476C12.6011 28.5619 11.4286 27.3899 11.4286 25.9441V11.1892C11.4286 9.74346 12.6011 8.57141 14.0476 8.57141H25.9524ZM25.037 23.4929H14.9629L14.9517 23.493C14.5829 23.4997 14.2857 23.8381 14.2857 24.2545C14.2857 24.675 14.5889 25.016 14.9629 25.016H25.037L25.0482 25.0159C25.4171 25.0092 25.7143 24.6708 25.7143 24.2545C25.7143 23.8338 25.411 23.4929 25.037 23.4929ZM15.1071 12.1411C14.6863 12.1411 14.3452 12.4821 14.3452 12.9027V20.5181L14.3453 20.5307C14.352 20.9455 14.6906 21.2796 15.1071 21.2796C15.5279 21.2796 15.869 20.9387 15.869 20.5181V12.9027L15.8689 12.8901C15.8622 12.4753 15.5237 12.1411 15.1071 12.1411ZM20.0238 14.045C19.603 14.045 19.2619 14.386 19.2619 14.8066V20.5181L19.262 20.5307C19.2687 20.9455 19.6072 21.2796 20.0238 21.2796C20.4446 21.2796 20.7857 20.9387 20.7857 20.5181V14.8066L20.7856 14.7939C20.7789 14.3792 20.4404 14.045 20.0238 14.045ZM24.9524 15.9488C24.5316 15.9488 24.1905 16.2898 24.1905 16.7104V20.5181L24.1906 20.5307C24.1973 20.9455 24.5358 21.2796 24.9524 21.2796C25.3732 21.2796 25.7143 20.9387 25.7143 20.5181V16.7104L25.7142 16.6978C25.7074 16.2831 25.3689 15.9488 24.9524 15.9488Z" fill="#38CDB8"/>
<path d="M9.52382 29.5238H30.4762C31.1111 29.5238 31.4286 29.8413 31.4286 30.4762C31.4286 31.1111 31.1111 31.4286 30.4762 31.4286H9.52382C8.8889 31.4286 8.57144 31.1111 8.57144 30.4762C8.57144 29.8413 8.8889 29.5238 9.52382 29.5238Z" fill="#38CDB8" fill-opacity="0.4"/>
</g>
<defs>
<clipPath id="clip0_2144_115">
<rect width="40" height="40" fill="white"/>
</clipPath>
</defs>
</svg>
