<svg width="40" height="40" viewBox="0 0 40 40" fill="none" xmlns="http://www.w3.org/2000/svg">
<g clip-path="url(#clip0_3410_62)">
<path d="M0 11.4286C0 5.11676 5.11676 0 11.4286 0H28.5714C34.8832 0 40 5.11676 40 11.4286V28.5714C40 34.8832 34.8832 40 28.5714 40H11.4286C5.11676 40 0 34.8832 0 28.5714V11.4286Z" fill="white"/>
<path d="M0 11.4286C0 5.11676 5.11676 0 11.4286 0H28.5714C34.8832 0 40 5.11676 40 11.4286V28.5714C40 34.8832 34.8832 40 28.5714 40H11.4286C5.11676 40 0 34.8832 0 28.5714V11.4286Z" fill="#007AFF" fill-opacity="0.1"/>
<path d="M24.0736 27.179C24.0736 29.2192 22.225 30.8731 19.9445 30.8731C17.664 30.8731 15.8154 29.2192 15.8154 27.179C15.8154 25.1388 17.664 23.4849 19.9445 23.4849C22.225 23.4849 24.0736 25.1388 24.0736 27.179Z" fill="#007AFF"/>
<path d="M21.2798 10.2982C21.2798 10.9362 20.6886 11.4534 19.9592 11.4534C19.2299 11.4534 18.6386 10.9362 18.6386 10.2982C18.6386 9.66006 19.2299 9.14282 19.9592 9.14282C20.6886 9.14282 21.2798 9.66006 21.2798 10.2982ZM26.3902 27.4877C26.3902 28.4163 25.5369 29.169 24.4843 29.169C23.4317 29.169 22.5784 28.4163 22.5784 27.4877C22.5784 26.5593 23.4317 25.8065 24.4843 25.8065C25.5369 25.8065 26.3902 26.5593 26.3902 27.4877ZM17.4418 27.5559C17.4418 28.4843 16.5885 29.2371 15.5358 29.2371C14.4833 29.2371 13.6299 28.4843 13.6299 27.5559C13.6299 26.6273 14.4833 25.8746 15.5358 25.8746C16.5885 25.8746 17.4418 26.6273 17.4418 27.5559ZM8.57141 18.3136C8.57141 17.5322 9.20484 16.8988 9.98627 16.8988C10.5723 16.8988 11.0475 17.3739 11.0475 17.9599V20.1287C11.0475 20.7147 10.5723 21.1898 9.98627 21.1898C9.20484 21.1898 8.57141 20.5563 8.57141 19.775V18.3136ZM31.4286 18.3136C31.4286 17.5322 30.7951 16.8988 30.0137 16.8988C29.4276 16.8988 28.9525 17.3739 28.9525 17.9599V20.1287C28.9525 20.7147 29.4276 21.1898 30.0137 21.1898C30.7951 21.1898 31.4286 20.5563 31.4286 19.775V18.3136Z" fill="#007AFF" fill-opacity="0.4"/>
<path d="M19.9393 10.1328C25.5676 10.1328 30.1302 14.1223 30.1302 19.0437C30.1302 23.965 25.5676 27.9546 19.9393 27.9546C14.3111 27.9546 9.74841 23.965 9.74841 19.0437C9.74841 14.1223 14.3111 10.1328 19.9393 10.1328ZM25.1011 15.7857C21.1622 13.7987 14.9336 15.0019 14.1676 16.6933C13.2799 18.6535 13.5196 20.7133 14.3517 21.8914C14.4208 21.9893 14.6902 22.3194 14.9253 22.4571C16.5809 23.4271 22.9141 24.0381 25.4311 21.8914C26.6749 20.8306 26.8489 16.6675 25.1011 15.7857Z" fill="#007AFF"/>
<path d="M17.4732 17.9716C17.9533 17.9716 18.3426 18.4704 18.3426 19.0856C18.3426 19.7009 17.9533 20.1997 17.4732 20.1997C16.993 20.1997 16.6038 19.7009 16.6038 19.0856C16.6038 18.4704 16.993 17.9716 17.4732 17.9716ZM22.4746 17.9716C22.9548 17.9716 23.344 18.4704 23.344 19.0856C23.344 19.7009 22.9548 20.1997 22.4746 20.1997C21.9944 20.1997 21.6051 19.7009 21.6051 19.0856C21.6051 18.4704 21.9944 17.9716 22.4746 17.9716Z" fill="#007AFF"/>
</g>
<defs>
<clipPath id="clip0_3410_62">
<rect width="40" height="40" fill="white"/>
</clipPath>
</defs>
</svg>
