<svg width="40" height="40" viewBox="0 0 40 40" fill="none" xmlns="http://www.w3.org/2000/svg">
<g clip-path="url(#clip0_2144_239)">
<path d="M0 11.4286C0 5.11676 5.11676 0 11.4286 0H28.5714C34.8832 0 40 5.11676 40 11.4286V28.5714C40 34.8832 34.8832 40 28.5714 40H11.4286C5.11676 40 0 34.8832 0 28.5714V11.4286Z" fill="white"/>
<path d="M0 11.4286C0 5.11676 5.11676 0 11.4286 0H28.5714C34.8832 0 40 5.11676 40 11.4286V28.5714C40 34.8832 34.8832 40 28.5714 40H11.4286C5.11676 40 0 34.8832 0 28.5714V11.4286Z" fill="#FFCC00" fill-opacity="0.1"/>
<path d="M14.8095 13.7338C14.8096 14.4119 14.9434 15.0834 15.2032 15.7097C15.4631 16.3361 15.8439 16.9051 16.3238 17.3842C17.294 18.3525 18.6088 18.8963 19.9796 18.8962C21.3504 18.8963 22.6652 18.3525 23.6354 17.3842C24.1153 16.9051 24.4961 16.3361 24.756 15.7097C25.0158 15.0834 25.1496 14.4119 25.1497 13.7338C25.1496 13.0557 25.0158 12.3842 24.756 11.7579C24.4961 11.1315 24.1153 10.5625 23.6354 10.0835C22.6652 9.11506 21.3504 8.57125 19.9796 8.57141C18.6088 8.57125 17.294 9.11507 16.3238 10.0835C15.8439 10.5625 15.4631 11.1315 15.2032 11.7579C14.9434 12.3842 14.8096 13.0557 14.8095 13.7338ZM16.3655 19.8471C16.217 20.283 16.1361 20.7531 16.1361 21.2432C16.1361 23.3374 17.6132 25.0657 19.5233 25.3212L18.3129 19.9011H21.6871L20.476 25.3248C22.3995 25.0826 23.8912 23.3476 23.8912 21.2432C23.8912 20.756 23.8112 20.2886 23.6644 19.8548C24.8341 20.1556 25.8917 20.6048 26.7864 21.1877L23.4818 26.9115H10.2041V26.2768H10.2054C10.2712 23.035 12.8022 20.7544 16.3655 19.8471Z" fill="#FFCC00"/>
<path d="M23.07 27.6247H9.93197C9.18058 27.6247 8.57144 28.233 8.57144 28.9832C8.57144 29.7335 9.18058 30.3418 9.93197 30.3418H10.7483V31.4286H20.8738L23.07 27.6247ZM31.1926 23.5165L31.1898 23.5214L27.3206 30.2057L24.6954 31.4246C24.6892 31.4274 24.6825 31.4288 24.6757 31.4285C24.6689 31.4282 24.6622 31.4263 24.6563 31.4229C24.6504 31.4195 24.6454 31.4147 24.6417 31.409C24.6381 31.4033 24.6358 31.3967 24.6352 31.39L24.381 28.513L24.381 28.5129L28.253 21.8238C28.7308 20.9984 29.7762 20.7083 30.5879 21.1757C31.3996 21.6431 31.6704 22.6912 31.1926 23.5165Z" fill="#FFCC00" fill-opacity="0.4"/>
</g>
<defs>
<clipPath id="clip0_2144_239">
<rect width="40" height="40" fill="white"/>
</clipPath>
</defs>
</svg>
