<svg width="40" height="40" viewBox="0 0 40 40" fill="none" xmlns="http://www.w3.org/2000/svg">
<g clip-path="url(#clip0_2144_90)">
<path d="M0 11.4286C0 5.11676 5.11676 0 11.4286 0H28.5714C34.8832 0 40 5.11676 40 11.4286V28.5714C40 34.8832 34.8832 40 28.5714 40H11.4286C5.11676 40 0 34.8832 0 28.5714V11.4286Z" fill="white"/>
<path d="M0 11.4286C0 5.11676 5.11676 0 11.4286 0H28.5714C34.8832 0 40 5.11676 40 11.4286V28.5714C40 34.8832 34.8832 40 28.5714 40H11.4286C5.11676 40 0 34.8832 0 28.5714V11.4286Z" fill="#38CDB8" fill-opacity="0.1"/>
<path d="M22.561 27.3993H22.4947C22.3004 27.3993 22.1141 27.3221 21.9767 27.1847C21.8393 27.0473 21.7621 26.861 21.762 26.6667C21.762 26.5705 21.781 26.4752 21.8178 26.3863C21.8546 26.2975 21.9086 26.2167 21.9766 26.1487C22.0447 26.0806 22.1254 26.0267 22.2143 25.9899C22.3032 25.9531 22.3985 25.9341 22.4947 25.9341H22.561C22.7097 25.1322 23.098 24.3942 23.6747 23.8174C24.2514 23.2407 24.9894 22.8524 25.7914 22.7037V22.6374C25.7914 22.4431 25.8686 22.2568 26.006 22.1194C26.1433 21.982 26.3297 21.9048 26.524 21.9048C26.7183 21.9048 26.9046 21.982 27.042 22.1194C27.1794 22.2568 27.2566 22.4431 27.2566 22.6374V22.7037C28.0585 22.8524 28.7965 23.2407 29.3732 23.8175C29.9499 24.3942 30.3383 25.1322 30.487 25.9341H30.5533C30.7476 25.9341 30.9339 26.0113 31.0713 26.1487C31.2087 26.2861 31.2859 26.4724 31.2859 26.6667C31.2859 26.861 31.2087 27.0473 31.0713 27.1847C30.9339 27.3221 30.7476 27.3993 30.5533 27.3993H30.487C30.3383 28.2012 29.9499 28.9393 29.3732 29.516C28.7965 30.0927 28.0585 30.481 27.2566 30.6297V30.696C27.2574 30.7927 27.239 30.8886 27.2025 30.9781C27.166 31.0677 27.1122 31.1492 27.0441 31.2178C26.976 31.2865 26.895 31.341 26.8057 31.3782C26.7164 31.4154 26.6207 31.4345 26.524 31.4345C26.4273 31.4345 26.3315 31.4154 26.2423 31.3782C26.153 31.341 26.072 31.2865 26.0039 31.2178C25.9357 31.1492 25.8819 31.0677 25.8454 30.9781C25.809 30.8886 25.7906 30.7927 25.7914 30.696V30.6297C24.9894 30.481 24.2514 30.0927 23.6747 29.516C23.0979 28.9393 22.7096 28.2013 22.561 27.3993ZM26.524 28.8645C27.1068 28.8645 27.6658 28.6329 28.078 28.2207C28.4902 27.8086 28.7217 27.2496 28.7218 26.6667C28.7218 26.232 28.5928 25.8071 28.3514 25.4457C28.1099 25.0843 27.7666 24.8026 27.365 24.6363C26.9634 24.4699 26.5215 24.4264 26.0952 24.5112C25.6689 24.596 25.2773 24.8053 24.9699 25.1127C24.6626 25.42 24.4533 25.8116 24.3685 26.238C24.2837 26.6643 24.3272 27.1062 24.4935 27.5078C24.6599 27.9093 24.9415 28.2526 25.303 28.4941C25.6644 28.7356 26.0893 28.8645 26.524 28.8645ZM26.524 28.1319C26.1354 28.1318 25.7627 27.9775 25.4879 27.7027C25.2132 27.4279 25.0588 27.0553 25.0588 26.6667C25.0588 26.3769 25.1447 26.0936 25.3057 25.8527C25.4667 25.6118 25.6955 25.4239 25.9632 25.313C26.1634 25.2301 26.3794 25.1926 26.5958 25.2033C26.8122 25.2139 27.0236 25.2724 27.2146 25.3745C27.4057 25.4766 27.5717 25.6199 27.7008 25.7939C27.8298 25.9679 27.9187 26.1684 27.961 26.3808C28.0032 26.5933 27.9978 26.8125 27.9452 27.0227C27.8926 27.2328 27.794 27.4287 27.6565 27.5962C27.5191 27.7637 27.3462 27.8986 27.1504 27.9912C26.9545 28.0838 26.7406 28.1319 26.524 28.1319Z" fill="#38CDB8" fill-opacity="0.4"/>
<path d="M11.8572 17.3399L11.8571 17.3386V17.3399H11.8572ZM11.8572 17.3399C12.0483 20.5767 14.5719 23.1856 17.7143 23.1856C20.8571 23.1856 23.381 20.576 23.5714 17.3399C21.6095 17.1392 19.6389 17.0346 17.6667 17.0266C15.5239 17.0266 13.381 17.182 11.8572 17.3399ZM17.7143 27.153C17.7143 27.153 20.1905 23.759 20.9048 23.759V23.7603C21.3042 23.7603 21.724 23.8466 22.1475 24.0026C21.3414 24.9877 20.8578 26.2469 20.8578 27.619C20.8578 28.4976 21.056 29.3298 21.4103 30.0734C20.3954 29.9861 19.2536 29.9193 18 29.9193C15.7891 29.9193 13.8421 30.1235 12.3063 30.2846C10.038 30.5226 8.66666 30.6664 8.66666 29.9193C8.66666 27.1 11.5238 23.7603 14.5238 23.7603C15.3809 23.7603 17.7143 27.153 17.7143 27.153ZM23.0476 9.71827L24.0952 16.4519V16.4532C24.0952 16.4532 20.7619 15.8798 17.9048 15.8798C14.9048 15.8798 11.3333 16.4532 11.3333 16.4532L12.381 9.71955C12.381 9.71955 14.2381 8.57141 17.7143 8.57141C21.1905 8.57141 23.0476 9.71827 23.0476 9.71827ZM17.2381 12.8508V14.4184C17.2381 14.707 17.4524 14.94 17.7143 14.94C17.9762 14.94 18.1905 14.7057 18.1905 14.4184V12.8521H19.6667C19.9286 12.8521 20.1429 12.6178 20.1429 12.3305C20.1429 12.0159 19.9524 11.8088 19.6667 11.8088H18.1905V10.2425C18.1905 9.95255 17.9762 9.71955 17.7143 9.71955C17.4524 9.71955 17.2381 9.95389 17.2381 10.2412V11.8062H15.7619C15.5238 11.8062 15.2857 12.0159 15.2857 12.3292C15.2857 12.6424 15.4762 12.8508 15.7619 12.8508H17.2381Z" fill="#38CDB8"/>
</g>
<defs>
<clipPath id="clip0_2144_90">
<rect width="40" height="40" fill="white"/>
</clipPath>
</defs>
</svg>
